<svg xmlns="http://www.w3.org/2000/svg" width="13.25" height="9.312" viewBox="0 0 13.25 9.312">
  <g id="Flows_icon" data-name="Flows icon" transform="translate(22.5 -138.5)">
    <g id="flowchart_2" data-name="flowchart 2" transform="translate(-22.5 138.5)">
      <path id="Path_5" data-name="Path 5" d="M216.954,235.741a.242.242,0,0,1-.158-.059l-1.111-.956a.242.242,0,1,1,.316-.367l.953.82.95-.82a.242.242,0,0,1,.317.367l-1.108.956A.242.242,0,0,1,216.954,235.741Z" transform="translate(-210.282 -230.345)" fill="#fff"/>
      <path id="Path_6" data-name="Path 6" d="M214.144,166.708a.242.242,0,0,1-.242-.242v-4.081h-.96a.242.242,0,0,1,0-.485h1.2a.242.242,0,0,1,.242.242v4.323A.242.242,0,0,1,214.144,166.708Z" transform="translate(-207.476 -160.285)" fill="#fff"/>
      <path id="Path_7" data-name="Path 7" d="M251.254,205.917h-1.111a.242.242,0,0,1-.242-.242v-4.333a.242.242,0,1,1,.485,0v4.09h.869a.242.242,0,0,1,0,.485Z" transform="translate(-243.474 -198.218)" fill="#fff"/>
      <path id="Path_8" data-name="Path 8" d="M55.927,115.606H51.785a.786.786,0,0,1-.785-.785v-2.136a.786.786,0,0,1,.785-.785h4.142a.786.786,0,0,1,.785.785v2.136A.786.786,0,0,1,55.927,115.606Zm-4.142-3.221a.3.3,0,0,0-.3.3v2.136a.3.3,0,0,0,.3.3h4.142a.3.3,0,0,0,.3-.3v-2.136a.3.3,0,0,0-.3-.3Z" transform="translate(-51 -111.9)" fill="#fff"/>
      <path id="Path_9" data-name="Path 9" d="M289.227,289.106h-4.142a.786.786,0,0,1-.785-.785v-2.136a.786.786,0,0,1,.785-.785h4.142a.786.786,0,0,1,.785.785v2.136A.786.786,0,0,1,289.227,289.106Zm-4.142-3.221a.3.3,0,0,0-.3.3v2.136a.3.3,0,0,0,.3.3h4.142a.3.3,0,0,0,.3-.3v-2.136a.3.3,0,0,0-.3-.3Z" transform="translate(-276.762 -279.794)" fill="#fff"/>
    </g>
  </g>
</svg>
