<svg id="Logout_icon" data-name="Logout icon" xmlns="http://www.w3.org/2000/svg" width="11.267" height="11.267" viewBox="0 0 11.267 11.267">
  <path id="Path_22" data-name="Path 22" d="M1,2.878v7.511a1.878,1.878,0,0,0,1.878,1.878h7.511a1.878,1.878,0,0,0,1.878-1.878v-1.5a.376.376,0,0,0-.751,0v1.5a1.122,1.122,0,0,1-1.127,1.127H2.878a1.122,1.122,0,0,1-1.127-1.127V2.878A1.122,1.122,0,0,1,2.878,1.751h7.511a1.13,1.13,0,0,1,1.127,1.127v1.5a.376.376,0,1,0,.751,0v-1.5A1.878,1.878,0,0,0,10.389,1H2.878A1.878,1.878,0,0,0,1,2.878ZM12.263,6.656a.379.379,0,0,1-.019.094c0,.011-.008.026-.011.038a.37.37,0,0,1-.075.113L10.28,8.778a.381.381,0,0,1-.533,0,.374.374,0,0,1,0-.53l1.239-1.239H6.633a.376.376,0,0,1,0-.751h4.353L9.75,5.022a.374.374,0,1,1,.53-.53L12.158,6.37s0,.008.008.011a.433.433,0,0,1,.075.109.014.014,0,0,0,0,.011.325.325,0,0,1,.023.12A.1.1,0,0,0,12.263,6.656Z" transform="translate(-1 -1)" fill="#fff"/>
</svg>
