<svg xmlns="http://www.w3.org/2000/svg" width="15.333" height="13.505" viewBox="0 0 15.333 13.505">
  <g id="Dimension_performance_icon" data-name="Dimension performance icon" transform="translate(-19.167 -206.954)">
    <path id="_3d_allside" data-name="3d allside" d="M15.318,43.634l-.376-.835a.218.218,0,0,0-.4.179l.1.231-3.074-1.774c0-.115,0-4.105,0-4.139a.219.219,0,0,0-.109-.187L7.883,35.041v-3.62c.1.12.147.284.316.284a.218.218,0,0,0,.177-.346c-.558-.775-.55-.794-.65-.823a.219.219,0,0,0-.238.082l-.534.741a.218.218,0,0,0,.354.255l.139-.193v3.62C3.6,37.262,3.838,37.113,3.8,37.168c-.063.084-.044-.24-.044,4.267L.692,43.2l.1-.224a.218.218,0,0,0-.4-.179l-.376.835a.218.218,0,0,0,.178.305c.961.1.91.093.931.093A.218.218,0,0,0,1.15,43.6l-.228-.023,3.05-1.761c3.774,2.166,3.581,2.1,3.692,2.1.086,0-.209.154,3.692-2.1l3.052,1.761-.221.022a.218.218,0,1,0,.044.434c.982-.1.967-.078,1.044-.157A.244.244,0,0,0,15.318,43.634ZM7.664,35.419,10.92,37.3,7.664,39.178,4.409,37.3ZM4.19,37.677l3.256,1.879v3.759L4.19,41.435Zm3.692,5.638V39.556l3.256-1.879v3.759Z" transform="translate(19.166 176.427)" fill="#fff"/>
  </g>
</svg>
