<?xml version="1.0" encoding="UTF-8" standalone="no"?>
<svg
   width="168.5"
   height="27"
   viewBox="0 0 168.5 27"
   version="1.1"
   id="svg10"
   sodipodi:docname="02.svg"
   xmlns:inkscape="http://www.inkscape.org/namespaces/inkscape"
   xmlns:sodipodi="http://sodipodi.sourceforge.net/DTD/sodipodi-0.dtd"
   xmlns="http://www.w3.org/2000/svg"
   xmlns:svg="http://www.w3.org/2000/svg">
  <defs
     id="defs14" />
  <sodipodi:namedview
     id="namedview12"
     pagecolor="#ffffff"
     bordercolor="#666666"
     borderopacity="1.0"
     inkscape:pageshadow="2"
     inkscape:pageopacity="0.0"
     inkscape:pagecheckerboard="0" />
  <g
     id="Group_126"
     data-name="Group 126"
     transform="translate(-588.75,-15.5)">
    <path
       id="Selection_Bar_3"
       transform="translate(588.75,15.5)"
       style="fill:#ffffff"
       d="M 0,0 H 168.5 V 27 H 0 Z" />
    <g
       aria-label="Weighted Performance"
       transform="translate(645.75,32.5)"
       id="Weighted_Performance"
       style="font-size:10px;font-family:Roboto-Regular, Roboto;fill:#0c2339">
      <path
         d="m 2.3583984,-2.2412109 0.1367188,0.9375 0.2001953,-0.8447266 1.40625,-4.9609375 h 0.7910156 l 1.3720703,4.9609375 0.1953125,0.859375 0.1513672,-0.9570313 1.1035156,-4.8632812 H 8.6572266 L 6.9335937,0 H 6.0791016 L 4.6142578,-5.1806641 4.5019531,-5.7226562 4.3896484,-5.1806641 2.8710938,0 H 2.0166016 L 0.29785156,-7.109375 H 1.2353516 Z"
         id="path17" />
      <path
         d="m 11.59668,0.09765625 q -1.074219,0 -1.7480472,-0.703125 Q 9.1748047,-1.3134766 9.1748047,-2.4951172 v -0.1660156 q 0,-0.7861328 0.2978516,-1.4013672 0.3027343,-0.6201172 0.8398437,-0.9667969 0.541992,-0.3515625 1.171875,-0.3515625 1.030273,0 1.601563,0.678711 0.571289,0.6787109 0.571289,1.9433593 v 0.3759766 h -3.579102 q 0.01953,0.78125 0.454102,1.2646484 0.439453,0.47851566 1.113281,0.47851566 0.478515,0 0.810547,-0.1953125 0.332031,-0.19531246 0.581054,-0.51757816 l 0.551758,0.42968754 Q 12.924805,0.09765625 11.59668,0.09765625 Z M 11.484375,-4.6386719 q -0.546875,0 -0.917969,0.4003907 -0.371093,0.3955078 -0.458984,1.1132812 h 2.646484 v -0.068359 q -0.03906,-0.6884765 -0.371093,-1.0644531 -0.332032,-0.3808594 -0.898438,-0.3808594 z"
         id="path19" />
      <path
         d="m 15.683594,0 h -0.903321 v -5.2832031 h 0.903321 z m -0.976563,-6.6845703 q 0,-0.2197266 0.131836,-0.3710938 0.136719,-0.1513671 0.400391,-0.1513671 0.263672,0 0.40039,0.1513671 0.136719,0.1513672 0.136719,0.3710938 0,0.2197266 -0.136719,0.3662109 -0.136718,0.1464844 -0.40039,0.1464844 -0.263672,0 -0.400391,-0.1464844 -0.131836,-0.1464843 -0.131836,-0.3662109 z"
         id="path21" />
      <path
         d="m 16.914062,-2.6855469 q 0,-1.2353515 0.57129,-1.9628906 0.571289,-0.7324219 1.513671,-0.7324219 0.966797,0 1.508789,0.6835938 l 0.04395,-0.5859375 h 0.825195 v 5.15624998 q 0,1.02539062 -0.610351,1.61621092 -0.605469,0.5908203 -1.63086,0.5908203 -0.571289,0 -1.118164,-0.2441406 Q 17.470703,1.5917969 17.182617,1.1669922 L 17.651367,0.625 q 0.581055,0.7177734 1.420899,0.7177734 0.659179,0 1.02539,-0.37109371 0.371094,-0.37109375 0.371094,-1.04492188 v -0.45410156 q -0.541992,0.625 -1.479492,0.625 -0.927735,0 -1.503906,-0.74707031 -0.57129,-0.74707034 -0.57129,-2.03613284 z m 0.908204,0.1025391 q 0,0.8935547 0.366211,1.40625 0.36621,0.50781249 1.02539,0.50781249 0.854492,0 1.254883,-0.77636719 v -2.4121094 q -0.415039,-0.7568359 -1.245117,-0.7568359 -0.65918,0 -1.030274,0.5126953 -0.371093,0.5126953 -0.371093,1.5185547 z"
         id="path23" />
      <path
         d="m 23.642578,-4.6435547 q 0.600586,-0.7373047 1.5625,-0.7373047 1.674805,0 1.689453,1.8896485 V 0 h -0.90332 v -3.4960938 q -0.0049,-0.571289 -0.263672,-0.8447265 -0.253906,-0.2734375 -0.795898,-0.2734375 -0.439454,0 -0.771485,0.234375 -0.332031,0.234375 -0.517578,0.6152344 V 0 h -0.90332 v -7.5 h 0.90332 z"
         id="path25" />
      <path
         d="m 29.472656,-6.5625 v 1.2792969 h 0.986328 v 0.6982422 h -0.986328 v 3.2763672 q 0,0.31738276 0.131836,0.47851557 0.131836,0.15625001 0.449219,0.15625001 0.15625,0 0.429687,-0.0585938 V 0 q -0.356445,0.09765625 -0.693359,0.09765625 -0.605469,0 -0.913086,-0.36621094 -0.307617,-0.36621093 -0.307617,-1.04003901 v -3.2763672 h -0.961914 v -0.6982422 h 0.961914 V -6.5625 Z"
         id="path27" />
      <path
         d="m 33.706055,0.09765625 q -1.074219,0 -1.748047,-0.703125 Q 31.28418,-1.3134766 31.28418,-2.4951172 v -0.1660156 q 0,-0.7861328 0.297851,-1.4013672 0.302735,-0.6201172 0.839844,-0.9667969 0.541992,-0.3515625 1.171875,-0.3515625 1.030273,0 1.601562,0.678711 0.57129,0.6787109 0.57129,1.9433593 v 0.3759766 H 32.1875 q 0.01953,0.78125 0.454102,1.2646484 0.439453,0.47851566 1.113281,0.47851566 0.478515,0 0.810547,-0.1953125 0.332031,-0.19531246 0.581054,-0.51757816 l 0.551758,0.42968754 Q 35.03418,0.09765625 33.706055,0.09765625 Z M 33.59375,-4.6386719 q -0.546875,0 -0.917969,0.4003907 -0.371094,0.3955078 -0.458984,1.1132812 h 2.646484 v -0.068359 q -0.03906,-0.6884765 -0.371094,-1.0644531 -0.332031,-0.3808594 -0.898437,-0.3808594 z"
         id="path29" />
      <path
         d="m 36.591797,-2.6855469 q 0,-1.2158203 0.576172,-1.953125 0.576172,-0.7421875 1.508789,-0.7421875 0.927734,0 1.469726,0.6347657 V -7.5 h 0.903321 V 0 h -0.830078 l -0.04395,-0.56640625 q -0.541992,0.6640625 -1.508789,0.6640625 -0.917969,0 -1.499023,-0.75195312 Q 36.591797,-1.40625 36.591797,-2.6171875 Z m 0.90332,0.1025391 q 0,0.8984375 0.371094,1.40625 0.371094,0.50781249 1.025391,0.50781249 0.859375,0 1.254882,-0.77148439 v -2.4267578 q -0.405273,-0.7470703 -1.245117,-0.7470703 -0.664062,0 -1.035156,0.5126953 -0.371094,0.5126953 -0.371094,1.5185547 z"
         id="path31" />
      <path
         d="M 46.005859,-2.7832031 V 0 h -0.9375 v -7.109375 h 2.622071 q 1.166992,0 1.826172,0.5957031 0.664062,0.5957032 0.664062,1.5771485 0,1.0351562 -0.649414,1.5966796 -0.644531,0.5566407 -1.850586,0.5566407 z m 0,-0.7666016 h 1.684571 q 0.751953,0 1.152343,-0.3515625 0.400391,-0.3564453 0.400391,-1.0253906 0,-0.6347656 -0.400391,-1.015625 -0.40039,-0.3808594 -1.098632,-0.3955078 h -1.738282 z"
         id="path33" />
      <path
         d="m 53.364258,0.09765625 q -1.074219,0 -1.748047,-0.703125 -0.673828,-0.70800785 -0.673828,-1.88964845 v -0.1660156 q 0,-0.7861328 0.297851,-1.4013672 0.302735,-0.6201172 0.839844,-0.9667969 0.541992,-0.3515625 1.171875,-0.3515625 1.030274,0 1.601563,0.678711 0.571289,0.6787109 0.571289,1.9433593 v 0.3759766 h -3.579102 q 0.01953,0.78125 0.454102,1.2646484 0.439453,0.47851566 1.113281,0.47851566 0.478516,0 0.810547,-0.1953125 0.332031,-0.19531246 0.581054,-0.51757816 l 0.551758,0.42968754 Q 54.692383,0.09765625 53.364258,0.09765625 Z M 53.251953,-4.6386719 q -0.546875,0 -0.917969,0.4003907 Q 51.962891,-3.8427734 51.875,-3.125 h 2.646484 v -0.068359 q -0.03906,-0.6884765 -0.371093,-1.0644531 -0.332032,-0.3808594 -0.898438,-0.3808594 z"
         id="path35" />
      <path
         d="m 59.023437,-4.4726562 q -0.205078,-0.03418 -0.444335,-0.03418 -0.888672,0 -1.206055,0.7568359 V 0 h -0.90332 v -5.2832031 h 0.878906 l 0.01465,0.6103515 q 0.444336,-0.7080078 1.259766,-0.7080078 0.263672,0 0.40039,0.068359 z"
         id="path37" />
      <path
         d="m 60.371094,0 v -4.5849609 h -0.834961 v -0.6982422 h 0.834961 v -0.5419922 q 0,-0.8496094 0.454101,-1.3134766 0.454102,-0.4638672 1.28418,-0.4638672 0.3125,0 0.620117,0.083008 l -0.04883,0.7324218 q -0.229492,-0.043945 -0.488281,-0.043945 -0.439453,0 -0.678711,0.2587891 -0.239258,0.2539062 -0.239258,0.7324219 v 0.5566406 h 1.12793 v 0.6982422 h -1.12793 V 0 Z"
         id="path39" />
      <path
         d="m 63.15918,-2.6904297 q 0,-0.7763672 0.302734,-1.3964844 0.307617,-0.6201171 0.849609,-0.9570312 0.546875,-0.3369141 1.245118,-0.3369141 1.079101,0 1.743164,0.7470703 0.668945,0.7470703 0.668945,1.9873047 v 0.063477 q 0,0.7714844 -0.297852,1.3867187 -0.292968,0.6103516 -0.844726,0.95214847 -0.546875,0.34179688 -1.259766,0.34179688 -1.074219,0 -1.743164,-0.74707031 Q 63.15918,-1.3964844 63.15918,-2.6269531 Z m 0.908203,0.1074219 q 0,0.8789062 0.405273,1.4111328 0.410156,0.53222656 1.09375,0.53222656 0.688477,0 1.09375,-0.53710936 0.405274,-0.5419922 0.405274,-1.5136719 0,-0.8691406 -0.415039,-1.40625 -0.410157,-0.5419922 -1.09375,-0.5419922 -0.668946,0 -1.079102,0.5322266 -0.410156,0.5322265 -0.410156,1.5234375 z"
         id="path41" />
      <path
         d="m 71.655273,-4.4726562 q -0.205078,-0.03418 -0.444336,-0.03418 -0.888671,0 -1.206054,0.7568359 V 0 h -0.903321 v -5.2832031 h 0.878907 l 0.01465,0.6103515 q 0.444336,-0.7080078 1.259766,-0.7080078 0.263672,0 0.40039,0.068359 z"
         id="path43" />
      <path
         d="m 73.334961,-5.2832031 0.02441,0.5859375 q 0.581055,-0.6835938 1.567383,-0.6835938 1.108398,0 1.508789,0.8496094 0.263672,-0.3808594 0.683594,-0.6152344 0.424804,-0.234375 1.000976,-0.234375 1.738281,0 1.767578,1.8408203 V 0 h -0.90332 v -3.4863281 q 0,-0.5664063 -0.258789,-0.8447266 -0.258789,-0.2832031 -0.869141,-0.2832031 -0.502929,0 -0.834961,0.3027344 -0.332031,0.2978515 -0.385742,0.805664 V 0 h -0.908203 v -3.4619141 q 0,-1.1523437 -1.12793,-1.1523437 -0.888672,0 -1.21582,0.7568359 V 0 h -0.90332 v -5.2832031 z"
         id="path45" />
      <path
         d="m 84.511719,0 q -0.07813,-0.15625 -0.126953,-0.55664062 -0.629883,0.65429687 -1.503907,0.65429687 -0.78125,0 -1.284179,-0.43945313 -0.498047,-0.44433593 -0.498047,-1.12304682 0,-0.8251954 0.625,-1.2792969 0.629883,-0.4589844 1.767578,-0.4589844 h 0.878906 v -0.4150391 q 0,-0.4736328 -0.283203,-0.7519531 -0.283203,-0.2832031 -0.834961,-0.2832031 -0.483398,0 -0.810547,0.2441406 -0.327148,0.2441406 -0.327148,0.5908203 h -0.908203 q 0,-0.3955078 0.27832,-0.7617187 0.283203,-0.3710938 0.761719,-0.5859375 0.483398,-0.2148438 1.05957,-0.2148438 0.913086,0 1.430664,0.4589844 0.517578,0.4541016 0.537109,1.2548828 v 2.4316406 q 0,0.7275391 0.185547,1.1572266 V 0 Z m -1.499024,-0.68847656 q 0.424805,0 0.805664,-0.21972657 0.38086,-0.21972657 0.551758,-0.57128907 v -1.0839844 h -0.708008 q -1.660156,0 -1.660156,0.9716797 0,0.4248047 0.283203,0.66406252 0.283203,0.23925782 0.727539,0.23925782 z"
         id="path47" />
      <path
         d="m 87.543945,-5.2832031 0.0293,0.6640625 q 0.605469,-0.7617188 1.582031,-0.7617188 1.674805,0 1.689454,1.8896485 V 0 h -0.903321 v -3.4960938 q -0.0049,-0.571289 -0.263672,-0.8447265 -0.253906,-0.2734375 -0.795898,-0.2734375 -0.439453,0 -0.771484,0.234375 -0.332032,0.234375 -0.517579,0.6152344 V 0 h -0.90332 v -5.2832031 z"
         id="path49" />
      <path
         d="m 94.326172,-0.63964844 q 0.483398,0 0.844726,-0.29296875 0.361329,-0.29296871 0.400391,-0.73242191 h 0.854492 q -0.02441,0.4541016 -0.3125,0.86425785 -0.288086,0.41015625 -0.771484,0.65429688 -0.478516,0.24414062 -1.015625,0.24414062 -1.079102,0 -1.71875,-0.71777344 -0.634766,-0.72265621 -0.634766,-1.97265621 v -0.1513672 q 0,-0.7714844 0.283203,-1.3720703 0.283203,-0.600586 0.810547,-0.9326172 0.532227,-0.3320313 1.254883,-0.3320313 0.888672,0 1.474609,0.5322266 0.590821,0.5322266 0.629883,1.3818359 h -0.854492 q -0.03906,-0.5126953 -0.390625,-0.8398437 -0.34668,-0.3320313 -0.859375,-0.3320313 -0.688477,0 -1.069336,0.4980469 -0.375976,0.4931641 -0.375976,1.4306641 v 0.1708984 q 0,0.9130859 0.375976,1.40625 0.375977,0.49316406 1.074219,0.49316406 z"
         id="path51" />
      <path
         d="m 99.633789,0.09765625 q -1.074219,0 -1.748047,-0.703125 -0.673828,-0.70800785 -0.673828,-1.88964845 v -0.1660156 q 0,-0.7861328 0.297852,-1.4013672 0.302734,-0.6201172 0.839843,-0.9667969 0.541993,-0.3515625 1.171875,-0.3515625 1.030276,0 1.601566,0.678711 0.57129,0.6787109 0.57129,1.9433593 v 0.3759766 h -3.579106 q 0.01953,0.78125 0.454102,1.2646484 0.439453,0.47851566 1.113281,0.47851566 0.478513,0 0.810543,-0.1953125 0.33204,-0.19531246 0.58106,-0.51757816 l 0.55176,0.42968754 q -0.66407,1.02050781 -1.992191,1.02050781 z M 99.521484,-4.6386719 q -0.546875,0 -0.917968,0.4003907 -0.371094,0.3955078 -0.458985,1.1132812 h 2.646489 v -0.068359 q -0.0391,-0.6884765 -0.3711,-1.0644531 -0.33203,-0.3808594 -0.898436,-0.3808594 z"
         id="path53" />
    </g>
    <g
       id="Group_125"
       data-name="Group 125"
       transform="translate(183.75,-1)">
      <path
         id="Ellipse_118"
         transform="translate(413,25.5)"
         style="fill:#4dc0ed"
         d="M 9,4.5 A 4.5,4.5 0 0 1 4.5,9 4.5,4.5 0 0 1 0,4.5 4.5,4.5 0 0 1 4.5,0 4.5,4.5 0 0 1 9,4.5 Z" />
      <path
         id="Path_158"
         data-name="Path 158"
         d="m 3403.136,1329.557 1.837,1.575 2.737,-3.763"
         transform="translate(-2988,-1299.5)"
         fill="none"
         stroke="#ffffff"
         stroke-linecap="round"
         stroke-width="0.5" />
    </g>
  </g>
</svg>
