<?xml version="1.0" encoding="UTF-8" standalone="no"?>
<svg
   width="168.5"
   height="27"
   viewBox="0 0 168.5 27"
   version="1.1"
   id="svg9"
   sodipodi:docname="01.svg"
   xmlns:inkscape="http://www.inkscape.org/namespaces/inkscape"
   xmlns:sodipodi="http://sodipodi.sourceforge.net/DTD/sodipodi-0.dtd"
   xmlns="http://www.w3.org/2000/svg"
   xmlns:svg="http://www.w3.org/2000/svg">
  <defs
     id="defs13" />
  <sodipodi:namedview
     id="namedview11"
     pagecolor="#ffffff"
     bordercolor="#666666"
     borderopacity="1.0"
     inkscape:pageshadow="2"
     inkscape:pageopacity="0.0"
     inkscape:pagecheckerboard="0" />
  <g
     id="Group_1"
     data-name="Group 1"
     transform="translate(-405,-16.5)">
    <path
       id="Selection_Bar_3"
       transform="translate(405,16.5)"
       style="fill:#ffffff"
       d="M 0,0 H 168.5 V 27 H 0 Z" />
    <g
       aria-label="Regular Performance"
       transform="translate(466,32.5)"
       id="Regular_Performance"
       style="font-size:10px;font-family:Roboto-Regular, Roboto;fill:#0c2339">
      <path
         d="M 3.4326172,-2.8759766 H 1.7626953 V 0 H 0.8203125 v -7.109375 h 2.3535156 q 1.2011719,0 1.8457031,0.546875 0.6494141,0.546875 0.6494141,1.5917969 0,0.6640625 -0.3613281,1.1572265 -0.3564453,0.4931641 -0.9960938,0.7373047 l 1.6699219,3.01757815 V 0 H 4.9755859 Z M 1.7626953,-3.6425781 H 3.203125 q 0.6982422,0 1.1083984,-0.3613281 0.4150391,-0.3613282 0.4150391,-0.9667969 0,-0.6591797 -0.3955078,-1.0107422 -0.390625,-0.3515625 -1.1328125,-0.3564453 H 1.7626953 Z"
         id="path16" />
      <path
         d="m 9.0332031,0.09765625 q -1.0742187,0 -1.7480469,-0.703125 Q 6.6113281,-1.3134766 6.6113281,-2.4951172 v -0.1660156 q 0,-0.7861328 0.2978516,-1.4013672 0.3027344,-0.6201172 0.8398437,-0.9667969 0.5419922,-0.3515625 1.171875,-0.3515625 1.0302735,0 1.6015626,0.678711 0.571289,0.6787109 0.571289,1.9433593 v 0.3759766 H 7.5146484 q 0.019531,0.78125 0.4541016,1.2646484 0.4394531,0.47851566 1.1132813,0.47851566 0.4785156,0 0.8105468,-0.1953125 0.3320309,-0.19531246 0.5810549,-0.51757816 l 0.551758,0.42968754 Q 10.361328,0.09765625 9.0332031,0.09765625 Z M 8.9208984,-4.6386719 q -0.546875,0 -0.9179687,0.4003907 Q 7.6318359,-3.8427734 7.5439453,-3.125 H 10.19043 v -0.068359 Q 10.151367,-3.8818359 9.8193359,-4.2578125 9.4873047,-4.6386719 8.9208984,-4.6386719 Z"
         id="path18" />
      <path
         d="m 11.923828,-2.6855469 q 0,-1.2353515 0.571289,-1.9628906 0.571289,-0.7324219 1.513672,-0.7324219 0.966797,0 1.508789,0.6835938 l 0.04394,-0.5859375 h 0.825196 v 5.15624998 q 0,1.02539062 -0.610352,1.61621092 -0.605469,0.5908203 -1.630859,0.5908203 -0.571289,0 -1.118164,-0.2441406 Q 12.480469,1.5917969 12.192383,1.1669922 L 12.661133,0.625 q 0.581055,0.7177734 1.420898,0.7177734 0.65918,0 1.025391,-0.37109371 0.371094,-0.37109375 0.371094,-1.04492188 v -0.45410156 q -0.541993,0.625 -1.479493,0.625 -0.927734,0 -1.503906,-0.74707031 -0.571289,-0.74707034 -0.571289,-2.03613284 z m 0.908203,0.1025391 q 0,0.8935547 0.366211,1.40625 0.366211,0.50781249 1.025391,0.50781249 0.854492,0 1.254883,-0.77636719 v -2.4121094 q -0.415039,-0.7568359 -1.245118,-0.7568359 -0.659179,0 -1.030273,0.5126953 -0.371094,0.5126953 -0.371094,1.5185547 z"
         id="path20" />
      <path
         d="m 21.010742,-0.52246094 q -0.527344,0.62011719 -1.547851,0.62011719 -0.844727,0 -1.289063,-0.48828125 -0.439453,-0.49316406 -0.444336,-1.4550781 v -3.4375 h 0.90332 v 3.4130859 q 0,1.20117189 0.976563,1.20117189 1.035156,0 1.376953,-0.77148439 v -3.8427734 h 0.90332 V 0 h -0.859375 z"
         id="path22" />
      <path
         d="m 24.243164,0 h -0.90332 v -7.5 h 0.90332 z"
         id="path24" />
      <path
         d="m 28.950195,0 q -0.07813,-0.15625 -0.126953,-0.55664062 -0.629883,0.65429687 -1.503906,0.65429687 -0.78125,0 -1.28418,-0.43945313 -0.498047,-0.44433593 -0.498047,-1.12304682 0,-0.8251954 0.625,-1.2792969 0.629883,-0.4589844 1.767578,-0.4589844 h 0.878907 v -0.4150391 q 0,-0.4736328 -0.283203,-0.7519531 -0.283204,-0.2832031 -0.834961,-0.2832031 -0.483399,0 -0.810547,0.2441406 -0.327149,0.2441406 -0.327149,0.5908203 h -0.908203 q 0,-0.3955078 0.278321,-0.7617187 0.283203,-0.3710938 0.761718,-0.5859375 0.483399,-0.2148438 1.059571,-0.2148438 0.913086,0 1.430664,0.4589844 0.517578,0.4541016 0.537109,1.2548828 v 2.4316406 q 0,0.7275391 0.185547,1.1572266 V 0 Z m -1.499023,-0.68847656 q 0.424805,0 0.805664,-0.21972657 0.380859,-0.21972657 0.551758,-0.57128907 v -1.0839844 h -0.708008 q -1.660156,0 -1.660156,0.9716797 0,0.4248047 0.283203,0.66406252 0.283203,0.23925782 0.727539,0.23925782 z"
         id="path26" />
      <path
         d="m 33.681641,-4.4726562 q -0.205079,-0.03418 -0.444336,-0.03418 -0.888672,0 -1.206055,0.7568359 V 0 h -0.90332 v -5.2832031 h 0.878906 l 0.01465,0.6103515 q 0.444336,-0.7080078 1.259766,-0.7080078 0.263672,0 0.400391,0.068359 z"
         id="path28" />
      <path
         d="M 38.066406,-2.7832031 V 0 h -0.9375 v -7.109375 h 2.622071 q 1.166992,0 1.826171,0.5957031 0.664063,0.5957032 0.664063,1.5771485 0,1.0351562 -0.649414,1.5966796 -0.644531,0.5566407 -1.850586,0.5566407 z m 0,-0.7666016 h 1.684571 q 0.751953,0 1.152343,-0.3515625 0.400391,-0.3564453 0.400391,-1.0253906 0,-0.6347656 -0.400391,-1.015625 -0.40039,-0.3808594 -1.098633,-0.3955078 h -1.738281 z"
         id="path30" />
      <path
         d="m 45.424805,0.09765625 q -1.074219,0 -1.748047,-0.703125 Q 43.00293,-1.3134766 43.00293,-2.4951172 v -0.1660156 q 0,-0.7861328 0.297851,-1.4013672 0.302735,-0.6201172 0.839844,-0.9667969 0.541992,-0.3515625 1.171875,-0.3515625 1.030273,0 1.601562,0.678711 0.57129,0.6787109 0.57129,1.9433593 v 0.3759766 H 43.90625 q 0.01953,0.78125 0.454102,1.2646484 0.439453,0.47851566 1.113281,0.47851566 0.478515,0 0.810547,-0.1953125 0.332031,-0.19531246 0.581054,-0.51757816 l 0.551758,0.42968754 Q 46.75293,0.09765625 45.424805,0.09765625 Z M 45.3125,-4.6386719 q -0.546875,0 -0.917969,0.4003907 -0.371094,0.3955078 -0.458984,1.1132812 h 2.646484 v -0.068359 Q 46.542969,-3.8818359 46.210937,-4.2578125 45.878906,-4.6386719 45.3125,-4.6386719 Z"
         id="path32" />
      <path
         d="m 51.083984,-4.4726562 q -0.205078,-0.03418 -0.444336,-0.03418 -0.888671,0 -1.206054,0.7568359 V 0 h -0.903321 v -5.2832031 h 0.878907 l 0.01465,0.6103515 q 0.444336,-0.7080078 1.259766,-0.7080078 0.263672,0 0.40039,0.068359 z"
         id="path34" />
      <path
         d="M 52.431641,0 V -4.5849609 H 51.59668 v -0.6982422 h 0.834961 v -0.5419922 q 0,-0.8496094 0.454101,-1.3134766 0.454102,-0.4638672 1.28418,-0.4638672 0.3125,0 0.620117,0.083008 l -0.04883,0.7324218 q -0.229492,-0.043945 -0.488281,-0.043945 -0.439453,0 -0.678711,0.2587891 -0.239258,0.2539062 -0.239258,0.7324219 v 0.5566406 h 1.12793 v 0.6982422 h -1.12793 V 0 Z"
         id="path36" />
      <path
         d="m 55.219727,-2.6904297 q 0,-0.7763672 0.302734,-1.3964844 0.307617,-0.6201171 0.849609,-0.9570312 0.546875,-0.3369141 1.245117,-0.3369141 1.079102,0 1.743165,0.7470703 0.668945,0.7470703 0.668945,1.9873047 v 0.063477 q 0,0.7714844 -0.297852,1.3867187 -0.292968,0.6103516 -0.844726,0.95214847 -0.546875,0.34179688 -1.259766,0.34179688 -1.074219,0 -1.743164,-0.74707031 -0.664062,-0.74707034 -0.664062,-1.97753904 z m 0.908203,0.1074219 q 0,0.8789062 0.405273,1.4111328 0.410156,0.53222656 1.09375,0.53222656 0.688477,0 1.09375,-0.53710936 0.405274,-0.5419922 0.405274,-1.5136719 0,-0.8691406 -0.41504,-1.40625 -0.410156,-0.5419922 -1.09375,-0.5419922 -0.668945,0 -1.079101,0.5322266 -0.410156,0.5322265 -0.410156,1.5234375 z"
         id="path38" />
      <path
         d="m 63.71582,-4.4726562 q -0.205078,-0.03418 -0.444336,-0.03418 -0.888672,0 -1.206054,0.7568359 V 0 h -0.903321 v -5.2832031 h 0.878907 l 0.01465,0.6103515 Q 62.5,-5.3808594 63.31543,-5.3808594 q 0.263672,0 0.40039,0.068359 z"
         id="path40" />
      <path
         d="m 65.395508,-5.2832031 0.02441,0.5859375 q 0.581055,-0.6835938 1.567383,-0.6835938 1.108398,0 1.508789,0.8496094 0.263672,-0.3808594 0.683593,-0.6152344 0.424805,-0.234375 1.000977,-0.234375 1.738281,0 1.767578,1.8408203 V 0 h -0.90332 v -3.4863281 q 0,-0.5664063 -0.258789,-0.8447266 -0.258789,-0.2832031 -0.869141,-0.2832031 -0.50293,0 -0.834961,0.3027344 -0.332031,0.2978515 -0.385742,0.805664 V 0 h -0.908203 v -3.4619141 q 0,-1.1523437 -1.12793,-1.1523437 -0.888672,0 -1.21582,0.7568359 V 0 h -0.90332 v -5.2832031 z"
         id="path42" />
      <path
         d="m 76.572266,0 q -0.07813,-0.15625 -0.126954,-0.55664062 -0.629882,0.65429687 -1.503906,0.65429687 -0.78125,0 -1.284179,-0.43945313 -0.498047,-0.44433593 -0.498047,-1.12304682 0,-0.8251954 0.625,-1.2792969 0.629882,-0.4589844 1.767578,-0.4589844 h 0.878906 v -0.4150391 q 0,-0.4736328 -0.283203,-0.7519531 -0.283203,-0.2832031 -0.834961,-0.2832031 -0.483398,0 -0.810547,0.2441406 -0.327148,0.2441406 -0.327148,0.5908203 h -0.908203 q 0,-0.3955078 0.27832,-0.7617187 0.283203,-0.3710938 0.761719,-0.5859375 0.483398,-0.2148438 1.05957,-0.2148438 0.913086,0 1.430664,0.4589844 0.517578,0.4541016 0.537109,1.2548828 v 2.4316406 q 0,0.7275391 0.185547,1.1572266 V 0 Z m -1.499024,-0.68847656 q 0.424805,0 0.805664,-0.21972657 0.38086,-0.21972657 0.551758,-0.57128907 v -1.0839844 h -0.708008 q -1.660156,0 -1.660156,0.9716797 0,0.4248047 0.283203,0.66406252 0.283203,0.23925782 0.727539,0.23925782 z"
         id="path44" />
      <path
         d="m 79.604492,-5.2832031 0.0293,0.6640625 q 0.605469,-0.7617188 1.582031,-0.7617188 1.674805,0 1.689453,1.8896485 V 0 h -0.90332 v -3.4960938 q -0.0049,-0.571289 -0.263672,-0.8447265 -0.253906,-0.2734375 -0.795898,-0.2734375 -0.439453,0 -0.771485,0.234375 -0.332031,0.234375 -0.517578,0.6152344 V 0 H 78.75 v -5.2832031 z"
         id="path46" />
      <path
         d="m 86.386719,-0.63964844 q 0.483398,0 0.844726,-0.29296875 0.361328,-0.29296871 0.400391,-0.73242191 h 0.854492 q -0.02441,0.4541016 -0.3125,0.86425785 -0.288086,0.41015625 -0.771484,0.65429688 -0.478516,0.24414062 -1.015625,0.24414062 -1.079102,0 -1.71875,-0.71777344 -0.634766,-0.72265621 -0.634766,-1.97265621 v -0.1513672 q 0,-0.7714844 0.283203,-1.3720703 0.283203,-0.600586 0.810547,-0.9326172 0.532227,-0.3320313 1.254883,-0.3320313 0.888672,0 1.474609,0.5322266 0.590821,0.5322266 0.629883,1.3818359 h -0.854492 q -0.03906,-0.5126953 -0.390625,-0.8398437 -0.34668,-0.3320313 -0.859375,-0.3320313 -0.688477,0 -1.069336,0.4980469 -0.375977,0.4931641 -0.375977,1.4306641 v 0.1708984 q 0,0.9130859 0.375977,1.40625 0.375977,0.49316406 1.074219,0.49316406 z"
         id="path48" />
      <path
         d="m 91.694336,0.09765625 q -1.074219,0 -1.748047,-0.703125 -0.673828,-0.70800785 -0.673828,-1.88964845 v -0.1660156 q 0,-0.7861328 0.297851,-1.4013672 0.302735,-0.6201172 0.839844,-0.9667969 0.541992,-0.3515625 1.171875,-0.3515625 1.030274,0 1.601563,0.678711 0.571289,0.6787109 0.571289,1.9433593 v 0.3759766 h -3.579102 q 0.01953,0.78125 0.454102,1.2646484 0.439453,0.47851566 1.113281,0.47851566 0.478516,0 0.810547,-0.1953125 0.332031,-0.19531246 0.581055,-0.51757816 l 0.551757,0.42968754 Q 93.022461,0.09765625 91.694336,0.09765625 Z M 91.582031,-4.6386719 q -0.546875,0 -0.917969,0.4003907 -0.371093,0.3955078 -0.458984,1.1132812 h 2.646484 v -0.068359 Q 92.8125,-3.8818359 92.480469,-4.2578125 92.148437,-4.6386719 91.582031,-4.6386719 Z"
         id="path50" />
    </g>
    <path
       id="Ellipse_118"
       transform="translate(413,25.5)"
       style="fill:#4dc0ed"
       d="M 9,4.5 A 4.5,4.5 0 0 1 4.5,9 4.5,4.5 0 0 1 0,4.5 4.5,4.5 0 0 1 4.5,0 4.5,4.5 0 0 1 9,4.5 Z" />
    <path
       id="Path_158"
       data-name="Path 158"
       d="m 3403.136,1329.557 1.837,1.575 2.737,-3.763"
       transform="translate(-2988,-1299.5)"
       fill="none"
       stroke="#ffffff"
       stroke-linecap="round"
       stroke-width="0.5" />
  </g>
</svg>
