<svg xmlns="http://www.w3.org/2000/svg" width="130" height="27" viewBox="0 0 130 27">
  <g id="Group_816" data-name="Group 816" transform="translate(-227 -88.252)">
    <rect id="Current_target_performance_card" data-name="Current target performance card" width="130" height="27" rx="5" transform="translate(227 88.252)" fill="rgba(77,192,237,0.1)"/>
    <path id="Current_target_performance_card_-_Outline" data-name="Current target performance card - Outline" d="M5,.5A4.505,4.505,0,0,0,.5,5V22A4.505,4.505,0,0,0,5,26.5H125a4.505,4.505,0,0,0,4.5-4.5V5A4.505,4.505,0,0,0,125,.5H5M5,0H125a5,5,0,0,1,5,5V22a5,5,0,0,1-5,5H5a5,5,0,0,1-5-5V5A5,5,0,0,1,5,0Z" transform="translate(227 88.252)" fill="rgba(165,170,188,0.5)"/>
    <path id="Path_573" data-name="Path 573" d="M7.547,0H6.416L2.121-6.574V0H.99V-8.531H2.121l4.307,6.6v-6.6H7.547Zm4.459.117a2.77,2.77,0,0,1-2.1-.847A3.142,3.142,0,0,1,9.1-2.994v-.2a3.8,3.8,0,0,1,.36-1.685,2.811,2.811,0,0,1,1.008-1.16,2.534,2.534,0,0,1,1.4-.419,2.374,2.374,0,0,1,1.922.814,3.526,3.526,0,0,1,.686,2.332v.451H10.184a2.254,2.254,0,0,0,.548,1.515,1.722,1.722,0,0,0,1.333.577A1.888,1.888,0,0,0,13.037-1a2.444,2.444,0,0,0,.7-.621l.662.516A2.662,2.662,0,0,1,12.006.117Zm-.135-5.684a1.446,1.446,0,0,0-1.1.478,2.321,2.321,0,0,0-.551,1.339h3.176v-.082a2.065,2.065,0,0,0-.445-1.28A1.361,1.361,0,0,0,11.871-5.566Zm9.475,4.072L22.564-6.34h1.084L21.8,0h-.879L19.383-4.8,17.883,0H17l-1.84-6.34h1.078L17.49-1.594,18.967-6.34h.873ZM27.68-3.463a9.059,9.059,0,0,1,.354-2.543,7.387,7.387,0,0,1,1.058-2.215,4.5,4.5,0,0,1,1.459-1.406l.223.715a4.667,4.667,0,0,0-1.4,2,8.687,8.687,0,0,0-.6,3.018l-.006.5A8.733,8.733,0,0,0,29.59.533a4.689,4.689,0,0,0,1.184,1.559l-.223.662A4.644,4.644,0,0,1,29.063,1.3,8.144,8.144,0,0,1,27.68-3.463Zm9.135-.48h-3.7V-.92h4.295V0h-5.42V-8.531h5.361v.92H33.117v2.748h3.7Zm2.848-2.4.029.7a2.341,2.341,0,0,1,1.881-.82,1.813,1.813,0,0,1,1.811,1.02,2.4,2.4,0,0,1,.823-.738,2.431,2.431,0,0,1,1.2-.281q2.086,0,2.121,2.209V0H46.441V-4.184A1.456,1.456,0,0,0,46.131-5.2a1.368,1.368,0,0,0-1.043-.337,1.437,1.437,0,0,0-1,.36,1.462,1.462,0,0,0-.463.97V0h-1.09V-4.154A1.209,1.209,0,0,0,41.18-5.537a1.45,1.45,0,0,0-1.459.908V0H38.637V-6.34ZM54.516-3.1a3.8,3.8,0,0,1-.662,2.332,2.122,2.122,0,0,1-1.793.885,2.325,2.325,0,0,1-1.816-.732V2.438H49.16V-6.34h.99l.053.7a2.233,2.233,0,0,1,1.84-.82,2.162,2.162,0,0,1,1.808.861,3.838,3.838,0,0,1,.665,2.4Zm-1.084-.123a2.8,2.8,0,0,0-.457-1.693,1.472,1.472,0,0,0-1.254-.621,1.593,1.593,0,0,0-1.477.873v3.029a1.6,1.6,0,0,0,1.488.867,1.465,1.465,0,0,0,1.239-.618A3.058,3.058,0,0,0,53.432-3.223Zm3.932-4.652V-6.34h1.184V-5.5H57.363v3.937a.88.88,0,0,0,.158.572.666.666,0,0,0,.539.191,2.624,2.624,0,0,0,.516-.07V0a3.161,3.161,0,0,1-.832.116,1.35,1.35,0,0,1-1.1-.439,1.888,1.888,0,0,1-.369-1.248V-5.5H55.125V-6.34h1.154V-7.875Zm4.523,6.287L63.363-6.34h1.16L61.975.979q-.592,1.582-1.881,1.582l-.205-.018-.4-.076V1.588l.293.023a1.442,1.442,0,0,0,.858-.223,1.611,1.611,0,0,0,.507-.814l.24-.645L59.121-6.34H60.3ZM67.992-3.4a9.063,9.063,0,0,1-.343,2.5A7.407,7.407,0,0,1,66.6,1.313a4.6,4.6,0,0,1-1.479,1.441l-.229-.662a4.711,4.711,0,0,0,1.45-2.147,9.29,9.29,0,0,0,.56-3.231v-.187a9.646,9.646,0,0,0-.258-2.288,7.722,7.722,0,0,0-.718-1.9,4.378,4.378,0,0,0-1.034-1.307l.229-.662A4.577,4.577,0,0,1,66.595-8.2a7.423,7.423,0,0,1,1.049,2.209A9.273,9.273,0,0,1,67.992-3.4Zm9.516-.363h-3.58V0H72.8V-8.531h5.285v.92h-4.16v2.924h3.58ZM80.443,0H79.359V-9h1.084Zm1.447-3.229A3.745,3.745,0,0,1,82.257-4.9a2.732,2.732,0,0,1,1.02-1.148,2.775,2.775,0,0,1,1.491-.4,2.674,2.674,0,0,1,2.095.9,3.449,3.449,0,0,1,.8,2.385V-3.1a3.777,3.777,0,0,1-.354,1.661A2.692,2.692,0,0,1,86.294-.293a2.807,2.807,0,0,1-1.515.41,2.667,2.667,0,0,1-2.089-.9,3.432,3.432,0,0,1-.8-2.373Zm1.09.129a2.712,2.712,0,0,0,.489,1.693,1.566,1.566,0,0,0,1.31.639,1.556,1.556,0,0,0,1.313-.647,2.966,2.966,0,0,0,.486-1.813,2.708,2.708,0,0,0-.5-1.69,1.574,1.574,0,0,0-1.315-.647,1.557,1.557,0,0,0-1.295.639A2.944,2.944,0,0,0,82.98-3.1ZM94.635-1.494,95.854-6.34h1.084L95.092,0h-.879L92.672-4.8,91.172,0h-.879l-1.84-6.34h1.078l1.248,4.746L92.256-6.34h.873Z" transform="translate(252 106)" fill="#0c2339"/>
    <g id="check_2_" data-name="check (2)" transform="translate(235 97)">
      <path id="Path_86" data-name="Path 86" d="M5,0a5,5,0,1,0,5,5A5.006,5.006,0,0,0,5,0ZM5,0" fill="#2196f3"/>
      <path id="Path_87" data-name="Path 87" d="M146.1,166.039l-2.708,2.708a.416.416,0,0,1-.589,0l-1.354-1.354a.417.417,0,1,1,.589-.589l1.06,1.06,2.414-2.414a.417.417,0,0,1,.589.589Zm0,0" transform="translate(-138.568 -162.099)" fill="#fafafa"/>
    </g>
  </g>
</svg>
