<svg xmlns="http://www.w3.org/2000/svg" xmlns:xlink="http://www.w3.org/1999/xlink" width="982" height="676.006" viewBox="0 0 982 676.006"><defs><clipPath id="a"><rect width="81" height="81" transform="translate(0 -0.002)" fill="rgba(0,0,0,0)"/></clipPath><clipPath id="b"><rect width="81" height="81" transform="translate(0.249 0)" fill="none"/></clipPath><clipPath id="c"><rect width="81" height="81" transform="translate(0.409 0)" fill="none"/></clipPath><clipPath id="d"><rect width="81" height="81" transform="translate(-0.342 0)" fill="none"/></clipPath><clipPath id="e"><rect width="81" height="81" transform="translate(0.348 0)" fill="none"/></clipPath><clipPath id="f"><rect width="82" height="81" transform="translate(-0.493)" fill="none"/></clipPath><clipPath id="g"><rect width="81" height="81" transform="translate(-0.244 0)" fill="none"/></clipPath><clipPath id="h"><rect width="81" height="81" transform="translate(0.005 0)" fill="none"/></clipPath><clipPath id="i"><rect width="81" height="81" fill="none"/></clipPath><clipPath id="k"><rect width="80.995" height="80.995" fill="none"/></clipPath><clipPath id="l"><rect width="80.997" height="80.997" fill="none"/></clipPath><clipPath id="m"><rect width="80.994" height="80.995" fill="none"/></clipPath><clipPath id="v"><rect width="80.999" height="81" fill="none"/></clipPath></defs><g transform="translate(-192 -77.248)"><path d="M11.65,7.123,10.257,8.516a.348.348,0,0,1-.492-.492l.8-.8H7.225v3.338l.8-.8a.348.348,0,0,1,.492.492L7.123,11.65a.349.349,0,0,1-.493,0L5.237,10.257a.348.348,0,1,1,.492-.492l.8.8V7.225H3.19l.8.8a.348.348,0,1,1-.492.492L2.1,7.123a.35.35,0,0,1,0-.493L3.5,5.237a.348.348,0,1,1,.492.492l-.8.8H6.528V3.19l-.8.8A.348.348,0,1,1,5.237,3.5L6.63,2.1a.35.35,0,0,1,.493,0L8.516,3.5a.348.348,0,0,1-.493.492l-.8-.8V6.528h3.338l-.8-.8a.348.348,0,1,1,.492-.492L11.65,6.63A.349.349,0,0,1,11.65,7.123Z" transform="translate(189.998 75.246)" fill="#a1a1a1"/><g transform="translate(192 93)" fill="#fff" stroke="rgba(165,170,188,0.5)" stroke-width="0.5"><rect width="477" height="227" rx="5" stroke="none"/><rect x="0.25" y="0.25" width="476.5" height="226.5" rx="4.75" fill="none"/></g><path d="M0,0H476" transform="translate(192.5 136.5)" fill="none" stroke="rgba(165,170,188,0.25)" stroke-width="0.5"/><text transform="translate(209 120)" fill="#0c2339" font-size="12" font-family="Roboto-Medium, Roboto" font-weight="500"><tspan x="0" y="0">Current Target Performance</tspan></text><text transform="translate(222 160)" fill="#0c2339" font-size="12" font-family="Roboto-Regular, Roboto"><tspan x="0" y="0">Total: 433</tspan></text><text transform="translate(311 160)" fill="#0c2339" font-size="12" font-family="Roboto-Regular, Roboto"><tspan x="0" y="0">Target type: </tspan><tspan x="0" y="14">All</tspan></text><text transform="translate(403 160)" fill="#0c2339" font-size="12" font-family="Roboto-Regular, Roboto"><tspan x="0" y="0">Filter by:</tspan></text><text transform="translate(474 160)" fill="#0c2339" font-size="12" font-family="Roboto-Regular, Roboto"><tspan x="0" y="0">Group by:</tspan></text><text transform="translate(551 160)" fill="#0c2339" font-size="12" font-family="Roboto-Regular, Roboto"><tspan x="0" y="0">Time Period:</tspan><tspan x="0" y="14">Now</tspan></text><line y2="19.5" transform="translate(554.5 107.5)" fill="none" stroke="#a5aabc" stroke-width="0.5"/><g transform="translate(565 108)" fill="#fff" stroke="rgba(132,131,131,0.4)" stroke-width="0.5"><circle cx="9.5" cy="9.5" r="9.5" stroke="none"/><circle cx="9.5" cy="9.5" r="9.25" fill="none"/></g><path d="M15.5,55.15a.75.75,0,1,1-.75-.75A.752.752,0,0,1,15.5,55.15Zm2.25-.75a.75.75,0,1,0,.75.75A.752.752,0,0,0,17.75,54.4Zm3,0a.75.75,0,1,0,.75.75A.752.752,0,0,0,20.75,54.4Z" transform="translate(556.75 62.6)" fill="#a5aabc"/><g transform="translate(589 108)" fill="#fff" stroke="rgba(132,131,131,0.4)" stroke-width="0.5"><circle cx="9.5" cy="9.5" r="9.5" stroke="none"/><circle cx="9.5" cy="9.5" r="9.25" fill="none"/></g><g transform="translate(649.334 82.627) rotate(60)"><g transform="translate(0.001 57.525)"><g transform="translate(0 0)"><path d="M5,65.02a3.438,3.438,0,0,1-3.307-2.5H2.708c.1-.094.147-.22.051-.314L1.585,61.023a.252.252,0,0,0-.349,0L.071,62.208c-.138.162-.046.22.051.314h.931a4.057,4.057,0,0,0,7.4,1.193l-.588-.235A3.436,3.436,0,0,1,5,65.02Zm4.9-4.06H9.01A4.06,4.06,0,0,0,1.4,59.708l.582.233a3.438,3.438,0,0,1,6.4,1.019H7.312c-.1.094-.189.152-.051.314L8.426,62.46a.252.252,0,0,0,.349,0l1.173-1.185C10.045,61.181,9.994,61.054,9.9,60.96Z" transform="translate(-0.001 -57.525)" fill="#a5aabc"/></g></g></g><g transform="translate(613 108)" fill="#fff" stroke="rgba(132,131,131,0.4)" stroke-width="0.5"><circle cx="9.5" cy="9.5" r="9.5" stroke="none"/><circle cx="9.5" cy="9.5" r="9.25" fill="none"/></g><g transform="translate(588.022 113.587)"><g transform="translate(32.391)"><path d="M123.087,0a2.087,2.087,0,1,0,2.087,2.087A2.089,2.089,0,0,0,123.087,0Z" transform="translate(-121)" fill="#a5aabc"/></g><g transform="translate(31 4.637)"><path d="M37.074,300.9a2.974,2.974,0,0,0-2.132-.9h-.927a2.975,2.975,0,0,0-2.132.9A3.041,3.041,0,0,0,31,303.045a.232.232,0,0,0,.232.232h6.491a.232.232,0,0,0,.232-.232A3.041,3.041,0,0,0,37.074,300.9Z" transform="translate(-31 -300)" fill="#a5aabc"/></g></g><g transform="translate(637 108)" fill="#fff" stroke="rgba(132,131,131,0.4)" stroke-width="0.5"><circle cx="9.5" cy="9.5" r="9.5" stroke="none"/><circle cx="9.5" cy="9.5" r="9.25" fill="none"/></g><g transform="translate(638.625 109.837)"><path d="M14.25,4.125a.375.375,0,0,1,.375-.375h2.25a.375.375,0,0,1,.375.375v2.25a.375.375,0,0,1-.75,0V4.5H14.625A.375.375,0,0,1,14.25,4.125Z" transform="translate(-5.25)" fill="#a5aabc" fill-rule="evenodd"/><path d="M16.765,3.86a.375.375,0,0,1,0,.53L14.14,7.015a.375.375,0,0,1-.53-.53L16.235,3.86A.375.375,0,0,1,16.765,3.86Z" transform="translate(-4.875 0)" fill="#a5aabc" fill-rule="evenodd"/><path d="M4.125,14.25a.375.375,0,0,1,.375.375V16.5H6.375a.375.375,0,0,1,0,.75H4.125a.375.375,0,0,1-.375-.375v-2.25A.375.375,0,0,1,4.125,14.25Z" transform="translate(0 -5.25)" fill="#a5aabc" fill-rule="evenodd"/><path d="M7.015,13.61a.375.375,0,0,1,0,.53L4.39,16.765a.375.375,0,1,1-.53-.53L6.485,13.61A.375.375,0,0,1,7.015,13.61Z" transform="translate(0 -4.875)" fill="#a5aabc" fill-rule="evenodd"/></g><g transform="translate(107.3 48.3)"><path d="M-5.546-9.5A3.958,3.958,0,0,1-1.592-5.546,3.958,3.958,0,0,1-5.546-1.592,3.958,3.958,0,0,1-9.5-5.546,3.958,3.958,0,0,1-5.546-9.5Zm0,7.214a3.264,3.264,0,0,0,3.26-3.26,3.264,3.264,0,0,0-3.26-3.26,3.264,3.264,0,0,0-3.26,3.26A3.264,3.264,0,0,0-5.546-2.286Z" transform="translate(112.879 112.879)" fill="#a1a1a1"/><path d="M-3.867-9.5A5.64,5.64,0,0,1,1.767-3.867,5.64,5.64,0,0,1-3.867,1.767,5.64,5.64,0,0,1-9.5-3.867,5.64,5.64,0,0,1-3.867-9.5Zm0,10.573a4.945,4.945,0,0,0,4.94-4.94,4.945,4.945,0,0,0-4.94-4.94,4.945,4.945,0,0,0-4.94,4.94A4.945,4.945,0,0,0-3.867,1.073Z" transform="translate(111.2 111.2)" fill="#a1a1a1"/><path d="M-8.076-9.5A1.425,1.425,0,0,1-6.652-8.076,1.425,1.425,0,0,1-8.076-6.652,1.425,1.425,0,0,1-9.5-8.076,1.425,1.425,0,0,1-8.076-9.5Zm0,2.154a.731.731,0,0,0,.73-.73.731.731,0,0,0-.73-.73.731.731,0,0,0-.73.73A.731.731,0,0,0-8.076-7.346Z" transform="translate(115.409 115.409)" fill="#a1a1a1"/></g><circle cx="9.5" cy="9.5" r="9.5" transform="translate(209 168)" fill="#a1a1a1"/><text transform="translate(210 181)" fill="#fff" font-size="10" font-family="Roboto-Regular, Roboto"><tspan x="0" y="0">130</tspan></text><circle cx="9.5" cy="9.5" r="9.5" transform="translate(275 168)" fill="#3cca8e"/><text transform="translate(276 181)" fill="#fff" font-size="10" font-family="Roboto-Regular, Roboto"><tspan x="0" y="0">235</tspan></text><circle cx="9.5" cy="9.5" r="9.5" transform="translate(231 168)" fill="#fe746e"/><text transform="translate(235 181)" fill="#fff" font-size="10" font-family="Roboto-Regular, Roboto"><tspan x="0" y="0">57</tspan></text><circle cx="9.5" cy="9.5" r="9.5" transform="translate(253 168)" fill="#fed325"/><text transform="translate(257 181)" fill="#fff" font-size="10" font-family="Roboto-Regular, Roboto"><tspan x="0" y="0">11</tspan></text><path d="M53,99V10A44.512,44.512,0,0,1,70.147,95.364,44.2,44.2,0,0,1,53,99Z" transform="translate(219 202)" fill="none"/><g transform="translate(37)"><text transform="translate(218 246)" fill="#a1a1a1" font-size="17" font-family="Roboto-Medium, Roboto" font-weight="500"><tspan x="0" y="0">30%</tspan></text><text transform="translate(207 297)" fill="#a1a1a1" font-size="12" font-family="Roboto-Medium, Roboto" font-weight="500"><tspan x="0" y="0">Undecided</tspan></text><g transform="translate(193 197.002)"><g transform="translate(0 0)" clip-path="url(#a)"><path d="M40.5,81.006A40.458,40.458,0,1,1,79.618,51.048,40.549,40.549,0,0,1,40.5,81.006m0-71.253A30.779,30.779,0,1,0,71.253,40.5,30.786,30.786,0,0,0,40.5,9.753" transform="translate(0 0)" fill="#f2f5f6"/><path d="M93.252,51.048l-9.418-2.534a30.781,30.781,0,0,0-29.7-38.761V0A40.533,40.533,0,0,1,93.252,51.048" transform="translate(-13.635 0)" fill="#a1a1a1"/></g></g></g><g transform="translate(37)"><text transform="translate(313 246)" fill="#fe746e" font-size="17" font-family="Roboto-Medium, Roboto" font-weight="500"><tspan x="0" y="0">13.2%</tspan></text><text transform="translate(313 297)" fill="#fe746e" font-size="12" font-family="Roboto-Medium, Roboto" font-weight="500"><tspan x="0" y="0">Breached</tspan></text><g transform="translate(294.751 197)"><g transform="translate(0 0)" clip-path="url(#b)"><path d="M40.5,81A40.456,40.456,0,1,1,79.616,51.047,40.547,40.547,0,0,1,40.5,81m0-71.25A30.778,30.778,0,1,0,71.251,40.5,30.785,30.785,0,0,0,40.5,9.753" transform="translate(0 0.002)" fill="#f2f5f6"/><path d="M80.775,25.13A30.752,30.752,0,0,0,54.137,9.753V0a40.541,40.541,0,0,1,35.08,20.246Z" transform="translate(-13.636 0.002)" fill="#ff645b"/></g></g></g><g transform="translate(37)"><text transform="translate(420 246)" fill="#fed325" font-size="17" font-family="Roboto-Medium, Roboto" font-weight="500"><tspan x="0" y="0">2.5%</tspan></text><text transform="translate(414 297)" fill="#fed325" font-size="12" font-family="Roboto-Medium, Roboto" font-weight="500"><tspan x="0" y="0">Warning</tspan></text><g transform="translate(397.591 197)"><g transform="translate(0 0)" clip-path="url(#c)"><path d="M40.5,81.008A40.465,40.465,0,1,1,79.62,51.05,40.55,40.55,0,0,1,40.5,81.008m0-71.255A30.782,30.782,0,1,0,71.255,40.5,30.786,30.786,0,0,0,40.5,9.753" transform="translate(0 0)" fill="#f2f5f6"/><path d="M57.956,9.988a31.192,31.192,0,0,0-3.819-.234V0a41.038,41.038,0,0,1,5.015.307Z" transform="translate(-13.633 0)" fill="#ffd52a"/></g></g></g><g transform="translate(37)"><text transform="translate(518 246)" fill="#3cca8e" font-size="17" font-family="Roboto-Medium, Roboto" font-weight="500"><tspan x="0" y="0">54.3%</tspan></text><text transform="translate(507 297)" fill="#3cca8e" font-size="12" font-family="Roboto-Medium, Roboto" font-weight="500"><tspan x="0" y="0">Not Breached</tspan></text><g transform="translate(500.342 197)"><g transform="translate(0 0)" clip-path="url(#d)"><path d="M40.5,81.005A40.464,40.464,0,1,1,79.618,51.048,40.548,40.548,0,0,1,40.5,81.005m0-71.253A30.781,30.781,0,1,0,71.253,40.5,30.785,30.785,0,0,0,40.5,9.753" transform="translate(0 0)" fill="#f2f5f6"/><path d="M50.584,81.005a40.6,40.6,0,0,1-10.554-1.39L42.566,70.2A30.754,30.754,0,1,0,50.584,9.753V0a40.5,40.5,0,1,1,0,81.005" transform="translate(-10.082 0)" fill="#38be86"/></g></g></g><path d="M11.65,7.123,10.257,8.516a.348.348,0,0,1-.492-.492l.8-.8H7.225v3.338l.8-.8a.348.348,0,0,1,.492.492L7.123,11.65a.349.349,0,0,1-.493,0L5.237,10.257a.348.348,0,1,1,.492-.492l.8.8V7.225H3.19l.8.8a.348.348,0,1,1-.492.492L2.1,7.123a.35.35,0,0,1,0-.493L3.5,5.237a.348.348,0,1,1,.492.492l-.8.8H6.528V3.19l-.8.8A.348.348,0,1,1,5.237,3.5L6.63,2.1a.35.35,0,0,1,.493,0L8.516,3.5a.348.348,0,0,1-.493.492l-.8-.8V6.528h3.338l-.8-.8a.348.348,0,1,1,.492-.492L11.65,6.63A.349.349,0,0,1,11.65,7.123Z" transform="translate(694.998 75.246)" fill="#a1a1a1"/><g transform="translate(697 93)" fill="#fff" stroke="rgba(165,170,188,0.5)" stroke-width="0.5"><rect width="477" height="227" rx="5" stroke="none"/><rect x="0.25" y="0.25" width="476.5" height="226.5" rx="4.75" fill="none"/></g><path d="M0,0H476" transform="translate(697.5 136.5)" fill="none" stroke="rgba(165,170,188,0.25)" stroke-width="0.5"/><text transform="translate(714 120)" fill="#0c2339" font-size="12" font-family="Roboto-Medium, Roboto" font-weight="500"><tspan x="0" y="0">Current Target Performance</tspan></text><text transform="translate(727 160)" fill="#0c2339" font-size="12" font-family="Roboto-Regular, Roboto"><tspan x="0" y="0">Total: 433</tspan></text><text transform="translate(816 160)" fill="#0c2339" font-size="12" font-family="Roboto-Regular, Roboto"><tspan x="0" y="0">Target type: </tspan><tspan x="0" y="14">All</tspan></text><text transform="translate(908 160)" fill="#0c2339" font-size="12" font-family="Roboto-Regular, Roboto"><tspan x="0" y="0">Filter by:</tspan></text><text transform="translate(979 160)" fill="#0c2339" font-size="12" font-family="Roboto-Regular, Roboto"><tspan x="0" y="0">Group by:</tspan></text><text transform="translate(1056 160)" fill="#0c2339" font-size="12" font-family="Roboto-Regular, Roboto"><tspan x="0" y="0">Time Period:</tspan><tspan x="0" y="14">Now</tspan></text><line y2="19.5" transform="translate(1059.5 107.5)" fill="none" stroke="#a5aabc" stroke-width="0.5"/><g transform="translate(1070 108)" fill="#fff" stroke="rgba(132,131,131,0.4)" stroke-width="0.5"><circle cx="9.5" cy="9.5" r="9.5" stroke="none"/><circle cx="9.5" cy="9.5" r="9.25" fill="none"/></g><path d="M15.5,55.15a.75.75,0,1,1-.75-.75A.752.752,0,0,1,15.5,55.15Zm2.25-.75a.75.75,0,1,0,.75.75A.752.752,0,0,0,17.75,54.4Zm3,0a.75.75,0,1,0,.75.75A.752.752,0,0,0,20.75,54.4Z" transform="translate(1061.75 62.6)" fill="#a5aabc"/><g transform="translate(1094 108)" fill="#fff" stroke="rgba(132,131,131,0.4)" stroke-width="0.5"><circle cx="9.5" cy="9.5" r="9.5" stroke="none"/><circle cx="9.5" cy="9.5" r="9.25" fill="none"/></g><g transform="translate(1154.334 82.627) rotate(60)"><g transform="translate(0.001 57.525)"><g transform="translate(0 0)"><path d="M5,65.02a3.438,3.438,0,0,1-3.307-2.5H2.708c.1-.094.147-.22.051-.314L1.585,61.023a.252.252,0,0,0-.349,0L.071,62.208c-.138.162-.046.22.051.314h.931a4.057,4.057,0,0,0,7.4,1.193l-.588-.235A3.436,3.436,0,0,1,5,65.02Zm4.9-4.06H9.01A4.06,4.06,0,0,0,1.4,59.708l.582.233a3.438,3.438,0,0,1,6.4,1.019H7.312c-.1.094-.189.152-.051.314L8.426,62.46a.252.252,0,0,0,.349,0l1.173-1.185C10.045,61.181,9.994,61.054,9.9,60.96Z" transform="translate(-0.001 -57.525)" fill="#a5aabc"/></g></g></g><g transform="translate(1118 108)" fill="#fff" stroke="rgba(132,131,131,0.4)" stroke-width="0.5"><circle cx="9.5" cy="9.5" r="9.5" stroke="none"/><circle cx="9.5" cy="9.5" r="9.25" fill="none"/></g><g transform="translate(1093.022 113.587)"><g transform="translate(32.391)"><path d="M123.087,0a2.087,2.087,0,1,0,2.087,2.087A2.089,2.089,0,0,0,123.087,0Z" transform="translate(-121)" fill="#a5aabc"/></g><g transform="translate(31 4.637)"><path d="M37.074,300.9a2.974,2.974,0,0,0-2.132-.9h-.927a2.975,2.975,0,0,0-2.132.9A3.041,3.041,0,0,0,31,303.045a.232.232,0,0,0,.232.232h6.491a.232.232,0,0,0,.232-.232A3.041,3.041,0,0,0,37.074,300.9Z" transform="translate(-31 -300)" fill="#a5aabc"/></g></g><g transform="translate(1142 108)" fill="#fff" stroke="rgba(132,131,131,0.4)" stroke-width="0.5"><circle cx="9.5" cy="9.5" r="9.5" stroke="none"/><circle cx="9.5" cy="9.5" r="9.25" fill="none"/></g><g transform="translate(1143.625 109.837)"><path d="M14.25,4.125a.375.375,0,0,1,.375-.375h2.25a.375.375,0,0,1,.375.375v2.25a.375.375,0,0,1-.75,0V4.5H14.625A.375.375,0,0,1,14.25,4.125Z" transform="translate(-5.25)" fill="#a5aabc" fill-rule="evenodd"/><path d="M16.765,3.86a.375.375,0,0,1,0,.53L14.14,7.015a.375.375,0,0,1-.53-.53L16.235,3.86A.375.375,0,0,1,16.765,3.86Z" transform="translate(-4.875 0)" fill="#a5aabc" fill-rule="evenodd"/><path d="M4.125,14.25a.375.375,0,0,1,.375.375V16.5H6.375a.375.375,0,0,1,0,.75H4.125a.375.375,0,0,1-.375-.375v-2.25A.375.375,0,0,1,4.125,14.25Z" transform="translate(0 -5.25)" fill="#a5aabc" fill-rule="evenodd"/><path d="M7.015,13.61a.375.375,0,0,1,0,.53L4.39,16.765a.375.375,0,1,1-.53-.53L6.485,13.61A.375.375,0,0,1,7.015,13.61Z" transform="translate(0 -4.875)" fill="#a5aabc" fill-rule="evenodd"/></g><g transform="translate(612.3 48.3)"><path d="M-5.546-9.5A3.958,3.958,0,0,1-1.592-5.546,3.958,3.958,0,0,1-5.546-1.592,3.958,3.958,0,0,1-9.5-5.546,3.958,3.958,0,0,1-5.546-9.5Zm0,7.214a3.264,3.264,0,0,0,3.26-3.26,3.264,3.264,0,0,0-3.26-3.26,3.264,3.264,0,0,0-3.26,3.26A3.264,3.264,0,0,0-5.546-2.286Z" transform="translate(112.879 112.879)" fill="#a1a1a1"/><path d="M-3.867-9.5A5.64,5.64,0,0,1,1.767-3.867,5.64,5.64,0,0,1-3.867,1.767,5.64,5.64,0,0,1-9.5-3.867,5.64,5.64,0,0,1-3.867-9.5Zm0,10.573a4.945,4.945,0,0,0,4.94-4.94,4.945,4.945,0,0,0-4.94-4.94,4.945,4.945,0,0,0-4.94,4.94A4.945,4.945,0,0,0-3.867,1.073Z" transform="translate(111.2 111.2)" fill="#a1a1a1"/><path d="M-8.076-9.5A1.425,1.425,0,0,1-6.652-8.076,1.425,1.425,0,0,1-8.076-6.652,1.425,1.425,0,0,1-9.5-8.076,1.425,1.425,0,0,1-8.076-9.5Zm0,2.154a.731.731,0,0,0,.73-.73.731.731,0,0,0-.73-.73.731.731,0,0,0-.73.73A.731.731,0,0,0-8.076-7.346Z" transform="translate(115.409 115.409)" fill="#a1a1a1"/></g><g transform="translate(714 168)" fill="none" stroke="#a1a1a1" stroke-width="0.5"><circle cx="9.5" cy="9.5" r="9.5" stroke="none"/><circle cx="9.5" cy="9.5" r="9.25" fill="none"/></g><text transform="translate(715 181)" fill="#0c2339" font-size="10" font-family="Roboto-Regular, Roboto"><tspan x="0" y="0">130</tspan></text><g transform="translate(780 168)" fill="none" stroke="#3cca8e" stroke-width="0.5"><circle cx="9.5" cy="9.5" r="9.5" stroke="none"/><circle cx="9.5" cy="9.5" r="9.25" fill="none"/></g><text transform="translate(781 181)" fill="#0c2339" font-size="10" font-family="Roboto-Regular, Roboto"><tspan x="0" y="0">241</tspan></text><g transform="translate(736 168)" fill="none" stroke="#fe746e" stroke-width="0.5"><circle cx="9.5" cy="9.5" r="9.5" stroke="none"/><circle cx="9.5" cy="9.5" r="9.25" fill="none"/></g><text transform="translate(740 181)" fill="#0c2339" font-size="10" font-family="Roboto-Regular, Roboto"><tspan x="0" y="0">50</tspan></text><g transform="translate(758 168)" fill="none" stroke="#fed325" stroke-width="0.5"><circle cx="9.5" cy="9.5" r="9.5" stroke="none"/><circle cx="9.5" cy="9.5" r="9.25" fill="none"/></g><text transform="translate(762 181)" fill="#0c2339" font-size="10" font-family="Roboto-Regular, Roboto"><tspan x="0" y="0">12</tspan></text><path d="M53,99V10A44.512,44.512,0,0,1,70.147,95.364,44.2,44.2,0,0,1,53,99Z" transform="translate(724 202)" fill="none"/><g transform="translate(37)"><text transform="translate(727 246)" fill="#a1a1a1" font-size="17" font-family="Roboto-Medium, Roboto" font-weight="500"><tspan x="0" y="0">30%</tspan></text><text transform="translate(711 297)" fill="#a1a1a1" font-size="12" font-family="Roboto-Medium, Roboto" font-weight="500"><tspan x="0" y="0">Undecided</tspan></text><g transform="translate(698.652 197)"><g transform="translate(0 0)" clip-path="url(#e)"><path d="M40.632,80.764A40.087,40.087,0,1,1,79.39,51.081,40.178,40.178,0,0,1,40.632,80.764Zm0-70.6A30.5,30.5,0,1,0,71.1,40.632,30.5,30.5,0,0,0,40.632,10.164Z" transform="translate(-0.129 -0.129)" fill="none" stroke="#f2f5f6" stroke-miterlimit="10" stroke-width="1"/><path d="M93.394,51.081,84.063,48.57A30.5,30.5,0,0,0,54.637,10.164V.5A40.162,40.162,0,0,1,93.394,51.081" transform="translate(-14.135 -0.129)" fill="#a1a1a1"/></g></g></g><g transform="translate(37)"><text transform="translate(818 246)" fill="#fe746e" font-size="17" font-family="Roboto-Medium, Roboto" font-weight="500"><tspan x="0" y="0">13.2%</tspan></text><text transform="translate(816 297)" fill="#fe746e" font-size="12" font-family="Roboto-Medium, Roboto" font-weight="500"><tspan x="0" y="0">Breached</tspan></text><g transform="translate(800.493 197)"><g transform="translate(0 0)" clip-path="url(#f)"><path d="M40.632,80.764A40.087,40.087,0,1,1,79.39,51.081,40.178,40.178,0,0,1,40.632,80.764Zm0-70.6A30.5,30.5,0,1,0,71.1,40.632,30.5,30.5,0,0,0,40.632,10.164Z" transform="translate(-0.129 -0.129)" fill="none" stroke="#f2f5f6" stroke-miterlimit="10" stroke-width="1"/><path d="M81.032,25.4a30.472,30.472,0,0,0-26.4-15.237V.5A40.172,40.172,0,0,1,89.4,20.562Z" transform="translate(-14.135 -0.129)" fill="#ffe1e1"/><path d="M81.032,25.4a30.472,30.472,0,0,0-26.4-15.237V.5A40.172,40.172,0,0,1,89.4,20.562Z" transform="translate(-14.135 -0.129)" fill="none" stroke="#ff645b" stroke-miterlimit="10" stroke-width="1"/></g></g></g><g transform="translate(37)"><text transform="translate(924 246)" fill="#fed325" font-size="17" font-family="Roboto-Medium, Roboto" font-weight="500"><tspan x="0" y="0">2.5%</tspan></text><text transform="translate(921 297)" fill="#fed325" font-size="12" font-family="Roboto-Medium, Roboto" font-weight="500"><tspan x="0" y="0">Warning</tspan></text><g transform="translate(902.244 197)"><g transform="translate(0 0)" clip-path="url(#g)"><path d="M40.633,80.767A40.095,40.095,0,1,1,79.392,51.083,40.179,40.179,0,0,1,40.633,80.767Zm0-70.6A30.5,30.5,0,1,0,71.1,40.634,30.5,30.5,0,0,0,40.633,10.164Z" transform="translate(-0.129 -0.129)" fill="none" stroke="#f2f5f6" stroke-miterlimit="10" stroke-width="1"/><path d="M58.421,10.4a30.907,30.907,0,0,0-3.784-.232V.5a40.663,40.663,0,0,1,4.969.3Z" transform="translate(-14.133 -0.13)" fill="#fff6d2"/><path d="M58.421,10.4a30.907,30.907,0,0,0-3.784-.232V.5a40.663,40.663,0,0,1,4.969.3Z" transform="translate(-14.133 -0.13)" fill="none" stroke="#ffd52a" stroke-miterlimit="10" stroke-width="1"/></g></g></g><g transform="translate(37)"><text transform="translate(1021 246)" fill="#3cca8e" font-size="17" font-family="Roboto-Medium, Roboto" font-weight="500"><tspan x="0" y="0">54.3%</tspan></text><text transform="translate(1007 297)" fill="#3cca8e" font-size="12" font-family="Roboto-Medium, Roboto" font-weight="500"><tspan x="0" y="0">Not Breached</tspan></text><g transform="translate(1002.995 197)"><g transform="translate(0 0)" clip-path="url(#h)"><path d="M40.632,80.764A40.094,40.094,0,1,1,79.389,51.081,40.177,40.177,0,0,1,40.632,80.764Zm0-70.6A30.5,30.5,0,1,0,71.1,40.632,30.5,30.5,0,0,0,40.632,10.164Z" transform="translate(-0.129 -0.129)" fill="none" stroke="#f2f5f6" stroke-miterlimit="10" stroke-width="1"/><path d="M50.988,80.764A40.229,40.229,0,0,1,40.53,79.387l2.513-9.331a30.473,30.473,0,1,0,7.945-59.893V.5a40.132,40.132,0,1,1,0,80.264" transform="translate(-10.485 -0.129)" fill="#b0ffd7"/><path d="M50.988,80.764A40.229,40.229,0,0,1,40.53,79.387l2.513-9.331a30.473,30.473,0,1,0,7.945-59.893V.5a40.132,40.132,0,1,1,0,80.264Z" transform="translate(-10.485 -0.129)" fill="none" stroke="#38be86" stroke-miterlimit="10" stroke-width="1"/></g></g></g><path d="M11.65,7.123,10.257,8.516a.348.348,0,0,1-.492-.492l.8-.8H7.225v3.338l.8-.8a.348.348,0,0,1,.492.492L7.123,11.65a.349.349,0,0,1-.493,0L5.237,10.257a.348.348,0,1,1,.492-.492l.8.8V7.225H3.19l.8.8a.348.348,0,1,1-.492.492L2.1,7.123a.35.35,0,0,1,0-.493L3.5,5.237a.348.348,0,1,1,.492.492l-.8.8H6.528V3.19l-.8.8A.348.348,0,1,1,5.237,3.5L6.63,2.1a.35.35,0,0,1,.493,0L8.516,3.5a.348.348,0,0,1-.493.492l-.8-.8V6.528h3.338l-.8-.8a.348.348,0,1,1,.492-.492L11.65,6.63A.349.349,0,0,1,11.65,7.123Z" transform="translate(189.998 326.5)" fill="#a1a1a1"/><g transform="translate(192 344.254)" fill="#fff" stroke="rgba(165,170,188,0.5)" stroke-width="0.5"><rect width="981.5" height="409" rx="5" stroke="none"/><rect x="0.25" y="0.25" width="981" height="408.5" rx="4.75" fill="none"/></g><path d="M0,0H981" transform="translate(192.5 387.754)" fill="none" stroke="rgba(165,170,188,0.25)" stroke-width="0.5"/><text transform="translate(209 371.254)" fill="#0c2339" font-size="12" font-family="Roboto-Medium, Roboto" font-weight="500"><tspan x="0" y="0">Target Performance (grouped)</tspan></text><text transform="translate(222 411.254)" fill="#0c2339" font-size="12" font-family="Roboto-Regular, Roboto"><tspan x="0" y="0">Total: 154</tspan></text><text transform="translate(816 411.254)" fill="#0c2339" font-size="12" font-family="Roboto-Regular, Roboto"><tspan x="0" y="0">Target type: </tspan><tspan x="0" y="14">All</tspan></text><text transform="translate(908 411.254)" fill="#0c2339" font-size="12" font-family="Roboto-Regular, Roboto"><tspan x="0" y="0">Filter by:</tspan><tspan x="0" y="14">Multiple</tspan></text><text transform="translate(979 411.254)" fill="#0c2339" font-size="12" font-family="Roboto-Regular, Roboto"><tspan x="0" y="0">Group by:</tspan><tspan x="0" y="14">Flow</tspan></text><text transform="translate(1056 411.254)" fill="#0c2339" font-size="12" font-family="Roboto-Regular, Roboto"><tspan x="0" y="0">Time Period:</tspan><tspan x="0" y="14">Now</tspan></text><line y2="19.5" transform="translate(1059.5 358.754)" fill="none" stroke="#a5aabc" stroke-width="0.5"/><circle cx="9.5" cy="9.5" r="9.5" transform="translate(209 419.254)" fill="#a1a1a1"/><circle cx="9.5" cy="9.5" r="9.5" transform="translate(231 419.254)" fill="#fe746e"/><circle cx="9.5" cy="9.5" r="9.5" transform="translate(253 419.254)" fill="#fed325"/><circle cx="9.5" cy="9.5" r="9.5" transform="translate(275 419.254)" fill="#3cca8e"/><g transform="translate(1070 359.254)" fill="#fff" stroke="rgba(132,131,131,0.4)" stroke-width="0.5"><circle cx="9.5" cy="9.5" r="9.5" stroke="none"/><circle cx="9.5" cy="9.5" r="9.25" fill="none"/></g><path d="M15.5,55.15a.75.75,0,1,1-.75-.75A.752.752,0,0,1,15.5,55.15Zm2.25-.75a.75.75,0,1,0,.75.75A.752.752,0,0,0,17.75,54.4Zm3,0a.75.75,0,1,0,.75.75A.752.752,0,0,0,20.75,54.4Z" transform="translate(1061.75 313.854)" fill="#a5aabc"/><g transform="translate(1094 359.254)" fill="#fff" stroke="rgba(132,131,131,0.4)" stroke-width="0.5"><circle cx="9.5" cy="9.5" r="9.5" stroke="none"/><circle cx="9.5" cy="9.5" r="9.25" fill="none"/></g><g transform="translate(1154.334 333.881) rotate(60)"><g transform="translate(0.001 57.525)"><g transform="translate(0 0)"><path d="M5,65.02a3.438,3.438,0,0,1-3.307-2.5H2.708c.1-.094.147-.22.051-.314L1.585,61.023a.252.252,0,0,0-.349,0L.071,62.208c-.138.162-.046.22.051.314h.931a4.057,4.057,0,0,0,7.4,1.193l-.588-.235A3.436,3.436,0,0,1,5,65.02Zm4.9-4.06H9.01A4.06,4.06,0,0,0,1.4,59.708l.582.233a3.438,3.438,0,0,1,6.4,1.019H7.312c-.1.094-.189.152-.051.314L8.426,62.46a.252.252,0,0,0,.349,0l1.173-1.185C10.045,61.181,9.994,61.054,9.9,60.96Z" transform="translate(-0.001 -57.525)" fill="#a5aabc"/></g></g></g><g transform="translate(1142 359.254)" fill="#fff" stroke="rgba(132,131,131,0.4)" stroke-width="0.5"><circle cx="9.5" cy="9.5" r="9.5" stroke="none"/><circle cx="9.5" cy="9.5" r="9.25" fill="none"/></g><g transform="translate(1143.625 361.091)"><path d="M14.25,4.125a.375.375,0,0,1,.375-.375h2.25a.375.375,0,0,1,.375.375v2.25a.375.375,0,0,1-.75,0V4.5H14.625A.375.375,0,0,1,14.25,4.125Z" transform="translate(-5.25)" fill="#a5aabc" fill-rule="evenodd"/><path d="M16.765,3.86a.375.375,0,0,1,0,.53L14.14,7.015a.375.375,0,0,1-.53-.53L16.235,3.86A.375.375,0,0,1,16.765,3.86Z" transform="translate(-4.875 0)" fill="#a5aabc" fill-rule="evenodd"/><path d="M4.125,14.25a.375.375,0,0,1,.375.375V16.5H6.375a.375.375,0,0,1,0,.75H4.125a.375.375,0,0,1-.375-.375v-2.25A.375.375,0,0,1,4.125,14.25Z" transform="translate(0 -5.25)" fill="#a5aabc" fill-rule="evenodd"/><path d="M7.015,13.61a.375.375,0,0,1,0,.53L4.39,16.765a.375.375,0,1,1-.53-.53L6.485,13.61A.375.375,0,0,1,7.015,13.61Z" transform="translate(0 -4.875)" fill="#a5aabc" fill-rule="evenodd"/></g><g transform="translate(107.3 299.554)"><path d="M-5.546-9.5A3.958,3.958,0,0,1-1.592-5.546,3.958,3.958,0,0,1-5.546-1.592,3.958,3.958,0,0,1-9.5-5.546,3.958,3.958,0,0,1-5.546-9.5Zm0,7.214a3.264,3.264,0,0,0,3.26-3.26,3.264,3.264,0,0,0-3.26-3.26,3.264,3.264,0,0,0-3.26,3.26A3.264,3.264,0,0,0-5.546-2.286Z" transform="translate(112.879 112.879)" fill="#a1a1a1"/><path d="M-3.867-9.5A5.64,5.64,0,0,1,1.767-3.867,5.64,5.64,0,0,1-3.867,1.767,5.64,5.64,0,0,1-9.5-3.867,5.64,5.64,0,0,1-3.867-9.5Zm0,10.573a4.945,4.945,0,0,0,4.94-4.94,4.945,4.945,0,0,0-4.94-4.94,4.945,4.945,0,0,0-4.94,4.94A4.945,4.945,0,0,0-3.867,1.073Z" transform="translate(111.2 111.2)" fill="#a1a1a1"/><path d="M-8.076-9.5A1.425,1.425,0,0,1-6.652-8.076,1.425,1.425,0,0,1-8.076-6.652,1.425,1.425,0,0,1-9.5-8.076,1.425,1.425,0,0,1-8.076-9.5Zm0,2.154a.731.731,0,0,0,.73-.73.731.731,0,0,0-.73-.73.731.731,0,0,0-.73.73A.731.731,0,0,0-8.076-7.346Z" transform="translate(115.409 115.409)" fill="#a1a1a1"/></g><text transform="translate(213 432.254)" fill="#fff" font-size="10" font-family="Roboto-Regular, Roboto"><tspan x="0" y="0">26</tspan></text><text transform="translate(279 432.254)" fill="#fff" font-size="10" font-family="Roboto-Regular, Roboto"><tspan x="0" y="0">98</tspan></text><text transform="translate(235 432.254)" fill="#fff" font-size="10" font-family="Roboto-Regular, Roboto"><tspan x="0" y="0">23</tspan></text><text transform="translate(260 432.254)" fill="#fff" font-size="10" font-family="Roboto-Regular, Roboto"><tspan x="0" y="0">7</tspan></text><text transform="translate(254.5 549.254)" fill="#0c2339" font-size="12" font-family="Roboto-Medium, Roboto" font-weight="500"><tspan x="0" y="0">Anti Money </tspan><tspan x="0" y="14">Laundering </tspan><tspan x="0" y="28">Transaction</tspan><tspan x="0" y="42">Monitoring</tspan></text><text transform="translate(284.5 704.502)" fill="#0c2339" font-size="12" font-family="Roboto-Medium, Roboto" font-weight="500"><tspan x="-41.991" y="0">Global Treasury</tspan><tspan x="-24.381" y="14">Liquidity </tspan><tspan x="-35.001" y="28">Performance</tspan></text><text transform="translate(395 704.502)" fill="#0c2339" font-size="12" font-family="Roboto-Medium, Roboto" font-weight="500"><tspan x="-29.101" y="0">High Value</tspan><tspan x="-26.795" y="14">Payments</tspan></text><text transform="translate(505.497 704.502)" fill="#0c2339" font-size="12" font-family="Roboto-Medium, Roboto" font-weight="500"><tspan x="-27.694" y="0">Low Value</tspan><tspan x="-26.795" y="14">Payments</tspan></text><text transform="translate(614.995 704.502)" fill="#0c2339" font-size="12" font-family="Roboto-Medium, Roboto" font-weight="500"><tspan x="-44.396" y="0">OTC 60 Seconds</tspan><tspan x="-31.939" y="14">Compliance</tspan><tspan x="-26.279" y="28">Reporting</tspan></text><text transform="translate(725 704.502)" fill="#0c2339" font-size="12" font-family="Roboto-Medium, Roboto" font-weight="500"><tspan x="-41.687" y="0">Retail Lending -</tspan><tspan x="-41.244" y="14">Loan Servicing:</tspan><tspan x="-35.309" y="28">Loan Closure</tspan></text><text transform="translate(835 704.502)" fill="#0c2339" font-size="12" font-family="Roboto-Medium, Roboto" font-weight="500"><tspan x="-34.438" y="0">SEPA Overall</tspan></text><text transform="translate(942.5 704.502)" fill="#0c2339" font-size="12" font-family="Roboto-Medium, Roboto" font-weight="500"><tspan x="-41.552" y="0">Transformation</tspan><tspan x="-42.668" y="14">Navigator - OKR</tspan></text><text transform="translate(1057 704.502)" fill="#0c2339" font-size="12" font-family="Roboto-Medium, Roboto" font-weight="500"><tspan x="-31.699" y="0">WSF Report</tspan></text><text transform="translate(395 549.254)" fill="#0c2339" font-size="12" font-family="Roboto-Medium, Roboto" font-weight="500"><tspan x="-40.866" y="0">Asset Lifecycle</tspan><tspan x="-21.809" y="14">Process</tspan></text><text transform="translate(506 549.254)" fill="#0c2339" font-size="12" font-family="Roboto-Medium, Roboto" font-weight="500"><tspan x="-38.417" y="0">BCBS Value at</tspan><tspan x="-48.152" y="14">Risk and Stressed</tspan><tspan x="-34.813" y="28">Value at Risk</tspan></text><text transform="translate(614.499 549.254)" fill="#0c2339" font-size="12" font-family="Roboto-Medium, Roboto" font-weight="500"><tspan x="-44.476" y="0">BCBS Wholesale</tspan><tspan x="-21.56" y="14">Funding</tspan></text><text transform="translate(724.499 549.254)" fill="#0c2339" font-size="12" font-family="Roboto-Medium, Roboto" font-weight="500"><tspan x="-32.499" y="0">Commercial</tspan><tspan x="-39.662" y="14">Lending - Loan</tspan><tspan x="-31.172" y="28">Origination:</tspan><tspan x="-40.213" y="42">Credit Analysis</tspan></text><text transform="translate(836 549.254)" fill="#0c2339" font-size="12" font-family="Roboto-Medium, Roboto" font-weight="500"><tspan x="-47.558" y="0">Embargo Filtering</tspan><tspan x="-12.703" y="14">Flow</tspan></text><text transform="translate(943.497 549.254)" fill="#0c2339" font-size="12" font-family="Roboto-Medium, Roboto" font-weight="500"><tspan x="-24.199" y="0">Financial</tspan><tspan x="-31.078" y="14">Messaging </tspan><tspan x="-26.323" y="28">Outbound</tspan></text><text transform="translate(1052.497 549.254)" fill="#0c2339" font-size="12" font-family="Roboto-Medium, Roboto" font-weight="500"><tspan x="-38.124" y="0">First Notice of</tspan><tspan x="-12.855" y="14">Loss</tspan></text><path d="M53,99V10A44.512,44.512,0,0,1,70.147,95.364,44.2,44.2,0,0,1,53,99Z" transform="translate(219 441.254)" fill="none"/><text transform="translate(264 497)" fill="#38be86" font-size="17" font-family="Roboto-Medium, Roboto" font-weight="500"><tspan x="0" y="0">85.7%</tspan></text><g transform="translate(246 451)"><g transform="translate(0 0)" clip-path="url(#i)"><path d="M40.5,81A40.5,40.5,0,1,1,81,40.5,40.547,40.547,0,0,1,40.5,81m0-71.937A31.437,31.437,0,1,0,71.936,40.5,31.473,31.473,0,0,0,40.5,9.063" transform="translate(0 0)" fill="#a1a1a1"/><path d="M40.5,81A40.511,40.511,0,0,1,4.825,21.315l7.979,4.3A31.441,31.441,0,1,0,40.5,9.063V0a40.5,40.5,0,0,1,0,81" transform="translate(0 0)" fill="#38be86"/></g></g><text transform="translate(373 497)" fill="#38be86" font-size="17" font-family="Roboto-Medium, Roboto" font-weight="500"><tspan x="0" y="0">81.5%</tspan></text><g transform="translate(355 450.502)"><g transform="translate(0 0)" clip-path="url(#i)"><path d="M40.5,81A40.5,40.5,0,1,1,81,40.5,40.546,40.546,0,0,1,40.5,81m0-71.937A31.437,31.437,0,1,0,71.937,40.5,31.472,31.472,0,0,0,40.5,9.063" transform="translate(0 0)" fill="#ff645b"/><path d="M40.5,81A40.525,40.525,0,0,1,2.236,27.2L10.8,30.174A31.443,31.443,0,1,0,40.5,9.063V0a40.5,40.5,0,1,1,0,81" transform="translate(0 0)" fill="#38be86"/></g></g><text transform="translate(489 497)" fill="#38be86" font-size="17" font-family="Roboto-Medium, Roboto" font-weight="500"><tspan x="0" y="0">50%</tspan></text><g transform="translate(465 450.504)"><g transform="translate(0 0)" clip-path="url(#k)"><path d="M40.5,80.995a40.5,40.5,0,1,1,40.5-40.5,40.543,40.543,0,0,1-40.5,40.5m0-71.932A31.435,31.435,0,1,0,71.932,40.5,31.47,31.47,0,0,0,40.5,9.063" transform="translate(0 0)" fill="#a1a1a1"/><path d="M53.623,80.995V71.932a31.435,31.435,0,1,0,0-62.87V0a40.5,40.5,0,1,1,0,80.995" transform="translate(-13.126 0)" fill="#38be86"/></g></g><text transform="translate(598 497)" fill="#38be86" font-size="17" font-family="Roboto-Medium, Roboto" font-weight="500"><tspan x="0" y="0">50%</tspan></text><g transform="translate(574 450.502)"><g transform="translate(0 0)" clip-path="url(#l)"><path d="M40.5,81A40.5,40.5,0,1,1,81,40.5,40.545,40.545,0,0,1,40.5,81m0-71.935A31.436,31.436,0,1,0,71.935,40.5,31.471,31.471,0,0,0,40.5,9.063" transform="translate(0 0)" fill="#a1a1a1"/><path d="M53.623,81V71.935a31.436,31.436,0,1,0,0-62.872V0a40.5,40.5,0,1,1,0,81" transform="translate(-13.125 0)" fill="#38be86"/></g></g><text transform="translate(704 497)" fill="#38be86" font-size="17" font-family="Roboto-Medium, Roboto" font-weight="500"><tspan x="0" y="0">100%</tspan></text><g transform="translate(684 450.504)"><g transform="translate(0 0)" clip-path="url(#m)"><path d="M40.5,80.995a40.5,40.5,0,1,1,40.5-40.5,40.543,40.543,0,0,1-40.5,40.5m0-71.932A31.435,31.435,0,1,0,71.932,40.5,31.47,31.47,0,0,0,40.5,9.063" transform="translate(0 0)" fill="#a1a1a1"/><path d="M40.5,80.995a40.5,40.5,0,1,1,40.5-40.5,40.543,40.543,0,0,1-40.5,40.5m0-71.932A31.435,31.435,0,1,0,71.932,40.5,31.47,31.47,0,0,0,40.5,9.063" transform="translate(0 0)" fill="#38be86"/></g></g><text transform="translate(810 497)" fill="#38be86" font-size="17" font-family="Roboto-Medium, Roboto" font-weight="500"><tspan x="0" y="0">33.3%</tspan></text><g transform="translate(793 450.504)"><g transform="translate(0 0)" clip-path="url(#m)"><path d="M40.5,80.995a40.5,40.5,0,1,1,40.5-40.5,40.544,40.544,0,0,1-40.5,40.5m0-71.932A31.435,31.435,0,1,0,71.932,40.5,31.47,31.47,0,0,0,40.5,9.063" transform="translate(0 0)" fill="#a1a1a1"/><path d="M87.752,62.3l-7.631-4.887a31.442,31.442,0,0,0-26.5-48.355V0A40.5,40.5,0,0,1,87.752,62.3" transform="translate(-13.126 0)" fill="#38be86"/></g></g><text transform="translate(920 497)" fill="#38be86" font-size="17" font-family="Roboto-Medium, Roboto" font-weight="500"><tspan x="0" y="0">88.9%</tspan></text><g transform="translate(903 450.504)"><g transform="translate(0 0)" clip-path="url(#m)"><path d="M40.5,80.995a40.5,40.5,0,1,1,40.5-40.5,40.544,40.544,0,0,1-40.5,40.5m0-71.932A31.435,31.435,0,1,0,71.932,40.5,31.47,31.47,0,0,0,40.5,9.063" transform="translate(0 0)" fill="#a1a1a1"/><path d="M40.5,80.995a40.5,40.5,0,0,1-28.749-69.02l6.433,6.383A31.435,31.435,0,1,0,40.5,9.063V0a40.5,40.5,0,0,1,0,80.995" transform="translate(0 0)" fill="#38be86"/></g></g><text transform="translate(1034 497)" fill="#38be86" font-size="17" font-family="Roboto-Medium, Roboto" font-weight="500"><tspan x="0" y="0">9.1%</tspan></text><g transform="translate(1012 450.504)"><g transform="translate(0 0)" clip-path="url(#m)"><path d="M40.5,80.995a40.5,40.5,0,1,1,40.5-40.5,40.544,40.544,0,0,1-40.5,40.5m0-71.932A31.435,31.435,0,1,0,71.932,40.5,31.47,31.47,0,0,0,40.5,9.063" transform="translate(0 0)" fill="#a1a1a1"/><path d="M71.2,14.428A31.267,31.267,0,0,0,53.623,9.063V0A40.291,40.291,0,0,1,76.27,6.919Z" transform="translate(-13.126 0)" fill="#38be86"/></g></g><text transform="translate(266 653)" fill="#38be86" font-size="17" font-family="Roboto-Medium, Roboto" font-weight="500"><tspan x="0" y="0">100%</tspan></text><g transform="translate(246 607)"><g transform="translate(0 0)" clip-path="url(#i)"><path d="M40.5,81A40.5,40.5,0,1,1,81,40.5,40.547,40.547,0,0,1,40.5,81m0-71.937A31.437,31.437,0,1,0,71.936,40.5,31.473,31.473,0,0,0,40.5,9.063" transform="translate(0 0)" fill="#a1a1a1"/><path d="M40.5,81A40.5,40.5,0,1,1,81,40.5,40.547,40.547,0,0,1,40.5,81m0-71.937A31.437,31.437,0,1,0,71.936,40.5,31.473,31.473,0,0,0,40.5,9.063" transform="translate(0 0)" fill="#38be86"/></g></g><text transform="translate(485 653)" fill="#38be86" font-size="17" font-family="Roboto-Medium, Roboto" font-weight="500"><tspan x="0" y="0">100%</tspan></text><g transform="translate(465 606.502)"><g transform="translate(0 0)" clip-path="url(#i)"><path d="M40.5,81A40.5,40.5,0,1,1,81,40.5,40.547,40.547,0,0,1,40.5,81m0-71.937A31.437,31.437,0,1,0,71.936,40.5,31.473,31.473,0,0,0,40.5,9.063" transform="translate(0 0)" fill="#a1a1a1"/><path d="M40.5,81A40.5,40.5,0,1,1,81,40.5,40.547,40.547,0,0,1,40.5,81m0-71.937A31.437,31.437,0,1,0,71.936,40.5,31.473,31.473,0,0,0,40.5,9.063" transform="translate(0 0)" fill="#38be86"/></g></g><text transform="translate(594 653)" fill="#38be86" font-size="17" font-family="Roboto-Medium, Roboto" font-weight="500"><tspan x="0" y="0">100%</tspan></text><g transform="translate(574 606.502)"><g transform="translate(0 0)" clip-path="url(#i)"><path d="M40.5,81A40.5,40.5,0,1,1,81,40.5,40.547,40.547,0,0,1,40.5,81m0-71.937A31.437,31.437,0,1,0,71.936,40.5,31.473,31.473,0,0,0,40.5,9.063" transform="translate(0 0)" fill="#a1a1a1"/><path d="M40.5,81A40.5,40.5,0,1,1,81,40.5,40.547,40.547,0,0,1,40.5,81m0-71.937A31.437,31.437,0,1,0,71.936,40.5,31.473,31.473,0,0,0,40.5,9.063" transform="translate(0 0)" fill="#38be86"/></g></g><text transform="translate(704 653)" fill="#38be86" font-size="17" font-family="Roboto-Medium, Roboto" font-weight="500"><tspan x="0" y="0">100%</tspan></text><g transform="translate(684 606.502)"><g transform="translate(0 0)" clip-path="url(#i)"><path d="M40.5,81A40.5,40.5,0,1,1,81,40.5,40.547,40.547,0,0,1,40.5,81m0-71.937A31.437,31.437,0,1,0,71.936,40.5,31.473,31.473,0,0,0,40.5,9.063" transform="translate(0 0)" fill="#a1a1a1"/><path d="M40.5,81A40.5,40.5,0,1,1,81,40.5,40.547,40.547,0,0,1,40.5,81m0-71.937A31.437,31.437,0,1,0,71.936,40.5,31.473,31.473,0,0,0,40.5,9.063" transform="translate(0 0)" fill="#38be86"/></g></g><text transform="translate(373 653)" fill="#38be86" font-size="17" font-family="Roboto-Medium, Roboto" font-weight="500"><tspan x="0" y="0">71.1%</tspan></text><g transform="translate(355 606.502)"><g transform="translate(0 0)" clip-path="url(#i)"><path d="M40.5,81A40.5,40.5,0,1,1,81,40.5,40.546,40.546,0,0,1,40.5,81m0-71.937A31.437,31.437,0,1,0,71.937,40.5,31.472,31.472,0,0,0,40.5,9.063" transform="translate(0 0)" fill="#a1a1a1"/><path d="M40.5,81A40.51,40.51,0,0,1,5.712,19.75l7.78,4.65A31.441,31.441,0,1,0,40.5,9.063V0a40.5,40.5,0,1,1,0,81" transform="translate(0 0)" fill="#38be86"/><path d="M9.063,46.9H0A40.459,40.459,0,0,1,5.712,26.15l7.78,4.65A31.391,31.391,0,0,0,9.063,46.9" transform="translate(0 -6.4)" fill="#ff645b"/><path d="M3.184,69.388A40.245,40.245,0,0,1,0,53.623H9.063a31.234,31.234,0,0,0,2.468,12.235Z" transform="translate(0 -13.123)" fill="#ffd52a"/></g></g><text transform="translate(810 653)" fill="#38be86" font-size="17" font-family="Roboto-Medium, Roboto" font-weight="500"><tspan x="0" y="0">72.7%</tspan></text><g transform="translate(793 606.502)"><g transform="translate(0 0)" clip-path="url(#v)"><path d="M40.5,81A40.5,40.5,0,1,1,81,40.5,40.546,40.546,0,0,1,40.5,81m0-71.937A31.437,31.437,0,1,0,71.936,40.5,31.472,31.472,0,0,0,40.5,9.063" transform="translate(0 0)" fill="#a1a1a1"/><path d="M41.413,81A40.292,40.292,0,0,1,3.731,55.371l8.43-3.329A31.441,31.441,0,1,0,41.413,9.063V0a40.5,40.5,0,0,1,0,81" transform="translate(-0.913 0)" fill="#38be86"/></g></g><text transform="translate(920 653)" fill="#38be86" font-size="17" font-family="Roboto-Medium, Roboto" font-weight="500"><tspan x="0" y="0">33.3%</tspan></text><g transform="translate(903 606.502)"><g transform="translate(0 0)" clip-path="url(#v)"><path d="M40.5,81A40.5,40.5,0,1,1,81,40.5,40.546,40.546,0,0,1,40.5,81m0-71.937A31.437,31.437,0,1,0,71.936,40.5,31.472,31.472,0,0,0,40.5,9.063" transform="translate(0 0)" fill="#a1a1a1"/><path d="M40.5,81A40.5,40.5,0,1,1,81,40.5,40.546,40.546,0,0,1,40.5,81m0-71.937A31.437,31.437,0,1,0,71.936,40.5,31.472,31.472,0,0,0,40.5,9.063" transform="translate(0 0)" fill="#38be86"/><path d="M40.5,81a40.5,40.5,0,0,1,0-81V9.063A31.437,31.437,0,1,0,69.467,52.735l8.348,3.53A40.443,40.443,0,0,1,40.5,81" transform="translate(0 0)" fill="#ff645b"/></g></g><text transform="translate(1029 653)" fill="#38be86" font-size="17" font-family="Roboto-Medium, Roboto" font-weight="500"><tspan x="0" y="0">18.2%</tspan></text><g transform="translate(1012 606.502)"><g transform="translate(0 0)" clip-path="url(#v)"><path d="M40.5,81A40.5,40.5,0,1,1,81,40.5,40.546,40.546,0,0,1,40.5,81m0-71.937A31.437,31.437,0,1,0,71.936,40.5,31.472,31.472,0,0,0,40.5,9.063" transform="translate(0 0)" fill="#a1a1a1"/><path d="M79.326,22.394a31.51,31.51,0,0,0-25.7-13.33V0A40.583,40.583,0,0,1,86.73,17.167Z" transform="translate(-13.123 0)" fill="#38be86"/><path d="M42.877,84.976A40.57,40.57,0,0,1,9.713,67.728l7.417-5.208A31.441,31.441,0,1,0,65.418,22.563l6.5-6.318A40.5,40.5,0,0,1,42.877,84.976" transform="translate(-2.377 -3.976)" fill="#ffd52a"/><path d="M18.015,74.19A40.5,40.5,0,0,1,40.5,0V9.063A31.439,31.439,0,0,0,23.053,66.654Z" transform="translate(0 0)" fill="#ff645b"/></g></g><g transform="translate(1118 359.254)" fill="#fff" stroke="rgba(132,131,131,0.4)" stroke-width="0.5"><circle cx="9.5" cy="9.5" r="9.5" stroke="none"/><circle cx="9.5" cy="9.5" r="9.25" fill="none"/></g><g transform="translate(1123 364.254)"><path d="M8.173,1.905c-.068-.1-.14-.191-.216-.282A4.492,4.492,0,0,0,4.5,0H4.474A4.493,4.493,0,0,0,1.043,1.623q-.114.137-.216.282a4.484,4.484,0,0,0,0,5.19c.068.1.14.191.216.282A4.493,4.493,0,0,0,4.474,9H4.5A4.492,4.492,0,0,0,7.957,7.377c.076-.091.148-.185.216-.282a4.484,4.484,0,0,0,0-5.19ZM3.185.585A4.21,4.21,0,0,0,2.19,2.267a4.292,4.292,0,0,1-.849-.423A4.142,4.142,0,0,1,3.185.585ZM1.124,2.127a4.74,4.74,0,0,0,.961.485,7.172,7.172,0,0,0-.246,1.85H.37A4.107,4.107,0,0,1,1.124,2.127Zm-.741,2.7H1.846a7.093,7.093,0,0,0,.239,1.557,4.713,4.713,0,0,0-.961.485A4.1,4.1,0,0,1,.384,4.831Zm.958,2.323a4.318,4.318,0,0,1,.848-.422,4.206,4.206,0,0,0,.995,1.682A4.141,4.141,0,0,1,1.342,7.155ZM4.315,8.618c-.758-.1-1.412-.881-1.782-2a6.825,6.825,0,0,1,1.782-.273Zm0-2.642a7.032,7.032,0,0,0-1.886.3,6.846,6.846,0,0,1-.213-1.44h2.1Zm0-1.514H2.208A6.97,6.97,0,0,1,2.431,2.73a7.033,7.033,0,0,0,1.884.3V4.462Zm0-1.806a6.815,6.815,0,0,1-1.781-.273c.371-1.119,1.024-1.9,1.781-2ZM8.63,4.462H7.139A7.169,7.169,0,0,0,6.9,2.619a4.737,4.737,0,0,0,.98-.492A4.107,4.107,0,0,1,8.63,4.462ZM7.659,1.845a4.31,4.31,0,0,1-.868.429A4.2,4.2,0,0,0,5.782.574,4.142,4.142,0,0,1,7.659,1.845ZM4.685.385c.749.116,1.395.892,1.762,2a6.826,6.826,0,0,1-1.762.267Zm0,2.639a7.045,7.045,0,0,0,1.864-.289A6.954,6.954,0,0,1,6.77,4.462H4.685Zm0,1.807H6.763a6.874,6.874,0,0,1-.212,1.434,7.045,7.045,0,0,0-1.865-.289V4.831Zm0,3.784V6.345a6.838,6.838,0,0,1,1.763.267C6.08,7.723,5.434,8.5,4.685,8.615Zm1.1-.189a4.2,4.2,0,0,0,1.009-1.7,4.315,4.315,0,0,1,.867.429A4.143,4.143,0,0,1,5.782,8.426ZM7.876,6.873A4.725,4.725,0,0,0,6.9,6.381a7.091,7.091,0,0,0,.236-1.55H8.616A4.1,4.1,0,0,1,7.876,6.873Z" fill="#a5aabc"/></g></g></svg>