<svg xmlns="http://www.w3.org/2000/svg" width="17.303" height="17.303" viewBox="0 0 17.303 17.303">
  <g id="Group_1101" data-name="Group 1101" transform="translate(-755.67 -337.073)">
    <path id="Path_1094" data-name="Path 1094" d="M8.651,0A8.651,8.651,0,1,1,0,8.651,8.651,8.651,0,0,1,8.651,0Z" transform="translate(755.67 337.073)" fill="#3cca8e"/>
    <path id="Path_1095" data-name="Path 1095" d="M1.714-3.595h.611a1.343,1.343,0,0,0,.905-.3,1.013,1.013,0,0,0,.33-.8A.992.992,0,0,0,2.439-5.818a1.166,1.166,0,0,0-.842.3,1.054,1.054,0,0,0-.314.8H.47a1.632,1.632,0,0,1,.556-1.263,2.025,2.025,0,0,1,1.413-.5,2,2,0,0,1,1.419.479,1.73,1.73,0,0,1,.514,1.332,1.4,1.4,0,0,1-.27.809,1.632,1.632,0,0,1-.736.584,1.572,1.572,0,0,1,.815.554,1.538,1.538,0,0,1,.288.945A1.745,1.745,0,0,1,3.907-.417,2.106,2.106,0,0,1,2.443.088,2.162,2.162,0,0,1,.978-.4,1.618,1.618,0,0,1,.413-1.687H1.23a1.046,1.046,0,0,0,.33.809,1.254,1.254,0,0,0,.883.3,1.23,1.23,0,0,0,.9-.308,1.186,1.186,0,0,0,.312-.883,1.076,1.076,0,0,0-.343-.857,1.493,1.493,0,0,0-.989-.308H1.714Z" transform="translate(761.59 348.805)" fill="#fff"/>
  </g>
</svg>
