<svg xmlns="http://www.w3.org/2000/svg" xmlns:xlink="http://www.w3.org/1999/xlink" width="549" height="229.5" viewBox="0 0 549 229.5">
  <defs>
    <clipPath id="clip-path">
      <path id="Path_125" data-name="Path 125" d="M0,0H11.75V11.75H0Z" fill="none"/>
    </clipPath>
    <clipPath id="clip-path-2">
      <rect id="Rectangle_45" data-name="Rectangle 45" width="549" height="229" rx="5" transform="translate(393 373)" fill="none" stroke="rgba(165,170,188,0.5)" stroke-width="1"/>
    </clipPath>
  </defs>
  <g id="Group_1101" data-name="Group 1101" transform="translate(-807.471 34)">
    <g id="Group_352" data-name="Group 352" transform="translate(652.471 -304)">
      <rect id="Rectangle_36" data-name="Rectangle 36" width="549" height="229" rx="5" transform="translate(155 270)" fill="#fff"/>
      <line id="Line_20" data-name="Line 20" x1="132.5" transform="translate(155 343.996)" fill="none" stroke="rgba(165,170,188,0.5)" stroke-width="1"/>
      <line id="Line_24" data-name="Line 24" x1="132.5" transform="translate(155 380.491)" fill="none" stroke="rgba(165,170,188,0.5)" stroke-width="1"/>
      <text id="OC2S-0010" transform="translate(193 294)" fill="#0c2339" font-size="10" font-family="Roboto-Regular, Roboto"><tspan x="0" y="0">OC2S-0010</tspan></text>
      <text id="OC2S-0011" transform="translate(193 331)" fill="#0c2339" font-size="10" font-family="Roboto-Regular, Roboto"><tspan x="0" y="0">OC2S-0011</tspan></text>
      <rect id="Rectangle_38" data-name="Rectangle 38" width="133" height="36" transform="translate(155 344)" fill="#e5f4ff"/>
      <text id="_0" data-name="0" transform="translate(327.25 337.996)" fill="#0c2339" font-size="10" font-family="Roboto-Regular, Roboto"><tspan x="0" y="0">0</tspan></text>
      <text id="_3" data-name="3" transform="translate(349.75 337.996)" fill="#0c2339" font-size="10" font-family="Roboto-Regular, Roboto"><tspan x="0" y="0">3</tspan></text>
      <text id="_6" data-name="6" transform="translate(372.25 337.996)" fill="#0c2339" font-size="10" font-family="Roboto-Regular, Roboto"><tspan x="0" y="0">6</tspan></text>
      <text id="_9" data-name="9" transform="translate(394.75 337.996)" fill="#0c2339" font-size="10" font-family="Roboto-Regular, Roboto"><tspan x="0" y="0">9</tspan></text>
      <text id="_12" data-name="12" transform="translate(414.75 337.996)" fill="#0c2339" font-size="10" font-family="Roboto-Regular, Roboto"><tspan x="0" y="0">12</tspan></text>
      <text id="_15" data-name="15" transform="translate(437.25 337.996)" fill="#0c2339" font-size="10" font-family="Roboto-Regular, Roboto"><tspan x="0" y="0">15</tspan></text>
      <text id="_18" data-name="18" transform="translate(459.75 337.996)" fill="#0c2339" font-size="10" font-family="Roboto-Regular, Roboto"><tspan x="0" y="0">18</tspan></text>
      <text id="_21" data-name="21" transform="translate(482.25 337.996)" fill="#0c2339" font-size="10" font-family="Roboto-Regular, Roboto"><tspan x="0" y="0">21</tspan></text>
      <text id="_24" data-name="24" transform="translate(504.75 337.996)" fill="#0c2339" font-size="10" font-family="Roboto-Regular, Roboto"><tspan x="0" y="0">24</tspan></text>
      <text id="_27" data-name="27" transform="translate(527.25 337.996)" fill="#0c2339" font-size="10" font-family="Roboto-Regular, Roboto"><tspan x="0" y="0">27</tspan></text>
      <text id="_30" data-name="30" transform="translate(549.75 337.996)" fill="#0c2339" font-size="10" font-family="Roboto-Regular, Roboto"><tspan x="0" y="0">30</tspan></text>
      <text id="_33" data-name="33" transform="translate(572.25 337.996)" fill="#0c2339" font-size="10" font-family="Roboto-Regular, Roboto"><tspan x="0" y="0">33</tspan></text>
      <text id="_36" data-name="36" transform="translate(594.75 337.996)" fill="#0c2339" font-size="10" font-family="Roboto-Regular, Roboto"><tspan x="0" y="0">36</tspan></text>
      <text id="_39" data-name="39" transform="translate(617.25 337.996)" fill="#0c2339" font-size="10" font-family="Roboto-Regular, Roboto"><tspan x="0" y="0">39</tspan></text>
      <text id="_42" data-name="42" transform="translate(639.75 337.996)" fill="#0c2339" font-size="10" font-family="Roboto-Regular, Roboto"><tspan x="0" y="0">42</tspan></text>
      <text id="_45" data-name="45" transform="translate(662.25 337.996)" fill="#0c2339" font-size="10" font-family="Roboto-Regular, Roboto"><tspan x="0" y="0">45</tspan></text>
      <text id="OC2S-0028:_The_Allocation_System_database_must_be" data-name="OC2S-0028: The Allocation System database must be" transform="translate(323.25 294.252)" fill="#0c2339" font-size="10" font-family="Roboto-Medium, Roboto" font-weight="500"><tspan x="0" y="0">OC2S-0028: The Allocation System database must be</tspan></text>
      <circle id="Ellipse_99" data-name="Ellipse 99" cx="9.5" cy="9.5" r="9.5" transform="translate(167.75 281.252)" fill="#4dc0ed"/>
      <circle id="Ellipse_102" data-name="Ellipse 102" cx="9.5" cy="9.5" r="9.5" transform="translate(168 318)" fill="#4dc0ed"/>
      <circle id="Ellipse_106" data-name="Ellipse 106" cx="9.5" cy="9.5" r="9.5" transform="translate(167.75 354.243)" fill="#4dc0ed"/>
      <circle id="Ellipse_101" data-name="Ellipse 101" cx="9.5" cy="9.5" r="9.5" transform="translate(294.979 281.252)" fill="#4dc0ed"/>
      <circle id="Ellipse_100" data-name="Ellipse 100" cx="9.5" cy="9.5" r="9.5" transform="translate(251 281.252)" fill="#3cca8e"/>
      <circle id="Ellipse_103" data-name="Ellipse 103" cx="9.5" cy="9.5" r="9.5" transform="translate(251 317.748)" fill="#3cca8e"/>
      <circle id="Ellipse_105" data-name="Ellipse 105" cx="9.5" cy="9.5" r="9.5" transform="translate(251 354.243)" fill="#3cca8e"/>
      <text id="_1_2_3" data-name="1
 2
   3" transform="translate(175 288)" fill="#fff" font-size="4" font-family="Roboto-Regular, Roboto"><tspan x="0" y="0">1</tspan><tspan x="0" y="5" xml:space="preserve"> 2</tspan><tspan x="0" y="10" xml:space="preserve">   3</tspan></text>
      <g id="Refresh_icon" data-name="Refresh icon" transform="translate(-470.25 -78.254)">
        <g id="Ellipse_32" data-name="Ellipse 32" transform="translate(1094 359.254)" fill="#fff" stroke="rgba(132,131,131,0.4)" stroke-width="0.5">
          <circle cx="9.5" cy="9.5" r="9.5" stroke="none"/>
          <circle cx="9.5" cy="9.5" r="9.25" fill="none"/>
        </g>
      </g>
      <g id="Refresh_icon-2" data-name="Refresh icon" transform="translate(-445.25 -78.254)">
        <g id="Ellipse_32-2" data-name="Ellipse 32" transform="translate(1094 359.254)" fill="#fff" stroke="rgba(132,131,131,0.4)" stroke-width="0.5">
          <circle cx="9.5" cy="9.5" r="9.5" stroke="none"/>
          <circle cx="9.5" cy="9.5" r="9.25" fill="none"/>
        </g>
        <g id="Refresh" transform="translate(1154.334 333.881) rotate(60)">
          <g id="_x37__11_" transform="translate(0.001 57.525)">
            <g id="Group_15" data-name="Group 15" transform="translate(0 0)">
              <path id="Path_26" data-name="Path 26" d="M5,65.02a3.438,3.438,0,0,1-3.307-2.5H2.708c.1-.094.147-.22.051-.314L1.585,61.023a.252.252,0,0,0-.349,0L.071,62.208c-.138.162-.046.22.051.314h.931a4.057,4.057,0,0,0,7.4,1.193l-.588-.235A3.436,3.436,0,0,1,5,65.02Zm4.9-4.06H9.01A4.06,4.06,0,0,0,1.4,59.708l.582.233a3.438,3.438,0,0,1,6.4,1.019H7.312c-.1.094-.189.152-.051.314L8.426,62.46a.252.252,0,0,0,.349,0l1.173-1.185C10.045,61.181,9.994,61.054,9.9,60.96Z" transform="translate(-0.001 -57.525)" fill="#a5aabc"/>
            </g>
          </g>
        </g>
      </g>
      <g id="Ellipse_32-3" data-name="Ellipse 32" transform="translate(673.75 281)" fill="#fff" stroke="rgba(132,131,131,0.4)" stroke-width="0.5">
        <circle cx="9.5" cy="9.5" r="9.5" stroke="none"/>
        <circle cx="9.5" cy="9.5" r="9.25" fill="none"/>
      </g>
      <g id="power" transform="translate(298.145 284.807)">
        <path id="Path_119" data-name="Path 119" d="M7.244,3.316a.335.335,0,0,0-.366-.022Z" transform="translate(-2.835 -1.106)" fill="#fff"/>
        <path id="Path_120" data-name="Path 120" d="M16.5,3.294a.335.335,0,0,0-.458.125A.448.448,0,0,0,16,3.557l.959.036A4.6,4.6,0,0,0,16.5,3.294Z" transform="translate(-7.879 -1.106)" fill="#fff"/>
        <path id="Path_121" data-name="Path 121" d="M4.376,3.931A.335.335,0,0,0,4.5,3.474L4.46,3.416l-.05-.046-.366-.022-.027.02A8.037,8.037,0,0,0,2.9,4.275a4.482,4.482,0,0,0-1.147,3,4.584,4.584,0,0,0,9.167,0,4.482,4.482,0,0,0-1.147-3,4.588,4.588,0,0,0-.687-.627l-.959-.036a.336.336,0,0,0,.168.32,3.922,3.922,0,0,1,.978.791,3.811,3.811,0,0,1,.977,2.55,3.913,3.913,0,0,1-7.825,0A3.811,3.811,0,0,1,3.4,4.722a3.922,3.922,0,0,1,.978-.791Z" transform="translate(0 -1.16)" fill="#fff"/>
        <path id="Path_122" data-name="Path 122" d="M11.585,1.25a.335.335,0,0,1,.335.335V6.057a.335.335,0,0,1-.671,0V1.585A.335.335,0,0,1,11.585,1.25Z" transform="translate(-5.252)" fill="#fff"/>
      </g>
      <g id="power-2" data-name="power" transform="translate(170.834 357.798)">
        <path id="Path_119-2" data-name="Path 119" d="M7.244,3.316a.335.335,0,0,0-.366-.022Z" transform="translate(-2.835 -1.106)" fill="#fff"/>
        <path id="Path_120-2" data-name="Path 120" d="M16.5,3.294a.335.335,0,0,0-.458.125A.448.448,0,0,0,16,3.557l.959.036A4.6,4.6,0,0,0,16.5,3.294Z" transform="translate(-7.879 -1.106)" fill="#fff"/>
        <path id="Path_121-2" data-name="Path 121" d="M4.376,3.931A.335.335,0,0,0,4.5,3.474L4.46,3.416l-.05-.046-.366-.022-.027.02A8.037,8.037,0,0,0,2.9,4.275a4.482,4.482,0,0,0-1.147,3,4.584,4.584,0,0,0,9.167,0,4.482,4.482,0,0,0-1.147-3,4.588,4.588,0,0,0-.687-.627l-.959-.036a.336.336,0,0,0,.168.32,3.922,3.922,0,0,1,.978.791,3.811,3.811,0,0,1,.977,2.55,3.913,3.913,0,0,1-7.825,0A3.811,3.811,0,0,1,3.4,4.722a3.922,3.922,0,0,1,.978-.791Z" transform="translate(0 -1.16)" fill="#fff"/>
        <path id="Path_122-2" data-name="Path 122" d="M11.585,1.25a.335.335,0,0,1,.335.335V6.057a.335.335,0,0,1-.671,0V1.585A.335.335,0,0,1,11.585,1.25Z" transform="translate(-5.252)" fill="#fff"/>
      </g>
      <g id="Rectangle_37" data-name="Rectangle 37" transform="translate(570.936 281)" fill="#fff" stroke="rgba(165,170,188,0.5)" stroke-width="0.5">
        <rect width="37" height="19" rx="9.5" stroke="none"/>
        <rect x="0.25" y="0.25" width="36.5" height="18.5" rx="9.25" fill="none"/>
      </g>
      <g id="Group_116" data-name="Group 116" transform="translate(-248.064 -103)">
        <path id="Path_207" data-name="Path 207" d="M9.5,0A9.5,9.5,0,1,1,0,9.5,9.5,9.5,0,0,1,9.5,0Z" transform="translate(815.75 384.252)" fill="#2c70fa"/>
        <g id="power-3" data-name="power" transform="translate(818.916 387.807)">
          <path id="Path_119-3" data-name="Path 119" d="M7.244,3.316a.335.335,0,0,0-.366-.022Z" transform="translate(-2.835 -1.106)" fill="#fff"/>
          <path id="Path_120-3" data-name="Path 120" d="M16.5,3.294a.335.335,0,0,0-.458.125A.448.448,0,0,0,16,3.557l.959.036A4.6,4.6,0,0,0,16.5,3.294Z" transform="translate(-7.879 -1.106)" fill="#fff"/>
          <path id="Path_121-3" data-name="Path 121" d="M4.376,3.931A.335.335,0,0,0,4.5,3.474L4.46,3.416l-.05-.046-.366-.022-.027.02A8.037,8.037,0,0,0,2.9,4.275a4.482,4.482,0,0,0-1.147,3,4.584,4.584,0,0,0,9.167,0,4.482,4.482,0,0,0-1.147-3,4.588,4.588,0,0,0-.687-.627l-.959-.036a.336.336,0,0,0,.168.32,3.922,3.922,0,0,1,.978.791,3.811,3.811,0,0,1,.977,2.55,3.913,3.913,0,0,1-7.825,0A3.811,3.811,0,0,1,3.4,4.722a3.922,3.922,0,0,1,.978-.791Z" transform="translate(0 -1.16)" fill="#fff"/>
          <path id="Path_122-3" data-name="Path 122" d="M11.585,1.25a.335.335,0,0,1,.335.335V6.057a.335.335,0,0,1-.671,0V1.585A.335.335,0,0,1,11.585,1.25Z" transform="translate(-5.252)" fill="#fff"/>
        </g>
      </g>
      <line id="Line_21" data-name="Line 21" y1="3" x2="3" transform="translate(589.686 288.5)" fill="none" stroke="#a5aabc" stroke-width="0.5"/>
      <line id="Line_23" data-name="Line 23" y1="3" x2="3" transform="translate(602.436 290.75) rotate(180)" fill="none" stroke="#a5aabc" stroke-width="0.5"/>
      <line id="Line_22" data-name="Line 22" x1="3" y1="3" transform="translate(594.436 288.5)" fill="none" stroke="#a5aabc" stroke-width="0.5"/>
      <g id="Ellipse_108" data-name="Ellipse 108" transform="translate(592.186 286)" fill="#fff" stroke="#a5aabc" stroke-width="0.5">
        <circle cx="1.5" cy="1.5" r="1.5" stroke="none"/>
        <circle cx="1.5" cy="1.5" r="1.25" fill="none"/>
      </g>
      <g id="Ellipse_109" data-name="Ellipse 109" transform="translate(599.936 293.25) rotate(180)" fill="#fff" stroke="#a5aabc" stroke-width="0.5">
        <circle cx="1.5" cy="1.5" r="1.5" stroke="none"/>
        <circle cx="1.5" cy="1.5" r="1.25" fill="none"/>
      </g>
      <g id="_x31_6-thumbtack" transform="translate(625.571 282.4)">
        <path id="Path_123" data-name="Path 123" d="M11.551,6.528,8.719,3.7a.311.311,0,0,0-.45,0l-1.03,1.03a.309.309,0,0,0,0,.45l.225.225L6.5,6.367a2.941,2.941,0,0,0-2.51.386.311.311,0,0,0,0,.45L5.824,9.038,3.8,11.065a.311.311,0,0,0,0,.45.342.342,0,0,0,.45,0L6.274,9.488l1.834,1.834a.3.3,0,0,0,.45,0,2.941,2.941,0,0,0,.386-2.51l.965-.965.225.225a.311.311,0,0,0,.45,0l1.03-1.03a.486.486,0,0,0-.064-.515Z" transform="translate(0 0)" fill="#a1a1a1"/>
      </g>
      <g id="apps" transform="translate(677.375 285.625)" clip-path="url(#clip-path)">
        <path id="Path_124" data-name="Path 124" d="M10.674,5.938H9.9V3.49A.491.491,0,0,0,9.406,3H7.448a.491.491,0,0,0-.49.49V5.938H6.18a.491.491,0,0,0-.348.837L8.079,9.022a.488.488,0,0,0,.69,0l2.247-2.247A.49.49,0,0,0,10.674,5.938ZM5,10.833a.491.491,0,0,0,.49.49h5.875a.49.49,0,1,0,0-.979H5.49A.491.491,0,0,0,5,10.833Z" transform="translate(-2.552 -1.531)" fill="#a1a1a1"/>
      </g>
      <line id="Line_18" data-name="Line 18" y2="229" transform="translate(287.75 270.5)" fill="none" stroke="rgba(165,170,188,0.5)" stroke-width="1"/>
      <line id="Line_41" data-name="Line 41" y2="37.5" transform="translate(616.729 270)" fill="none" stroke="rgba(165,170,188,0.5)" stroke-width="1"/>
      <g id="Rectangle_39" data-name="Rectangle 39" transform="translate(155 270)" fill="none" stroke="rgba(165,170,188,0.5)" stroke-width="1">
        <rect width="549" height="229" rx="5" stroke="none"/>
        <rect x="0.5" y="0.5" width="548" height="228" rx="4.5" fill="none"/>
      </g>
      <line id="Line_25" data-name="Line 25" y2="59" transform="translate(330.25 349.748)" fill="none" stroke="#707070" stroke-width="1"/>
      <line id="Line_31" data-name="Line 31" y2="59" transform="translate(465.25 349.748)" fill="none" stroke="#707070" stroke-width="1"/>
      <line id="Line_26" data-name="Line 26" y2="59" transform="translate(352.75 349.748)" fill="none" stroke="#707070" stroke-width="1"/>
      <line id="Line_32" data-name="Line 32" y2="59" transform="translate(487.75 349.748)" fill="none" stroke="#707070" stroke-width="1"/>
      <line id="Line_27" data-name="Line 27" y2="59" transform="translate(375.25 349.748)" fill="none" stroke="#707070" stroke-width="1"/>
      <line id="Line_33" data-name="Line 33" y2="59" transform="translate(510.25 349.748)" fill="none" stroke="#707070" stroke-width="1"/>
      <line id="Line_37" data-name="Line 37" y2="59" transform="translate(600.25 349.748)" fill="none" stroke="#707070" stroke-width="1"/>
      <line id="Line_28" data-name="Line 28" y2="59" transform="translate(397.75 349.748)" fill="none" stroke="#707070" stroke-width="1"/>
      <line id="Line_34" data-name="Line 34" y2="59" transform="translate(532.75 349.748)" fill="none" stroke="#707070" stroke-width="1"/>
      <line id="Line_38" data-name="Line 38" y2="59" transform="translate(622.75 349.748)" fill="none" stroke="#707070" stroke-width="1"/>
      <line id="Line_29" data-name="Line 29" y2="59" transform="translate(420.25 349.748)" fill="none" stroke="#707070" stroke-width="1"/>
      <line id="Line_35" data-name="Line 35" y2="59" transform="translate(555.25 349.748)" fill="none" stroke="#707070" stroke-width="1"/>
      <line id="Line_39" data-name="Line 39" y2="59" transform="translate(645.25 349.748)" fill="none" stroke="#707070" stroke-width="1"/>
      <line id="Line_30" data-name="Line 30" y2="59" transform="translate(442.75 349.748)" fill="none" stroke="#707070" stroke-width="1"/>
      <line id="Line_36" data-name="Line 36" y2="59" transform="translate(577.75 349.748)" fill="none" stroke="#707070" stroke-width="1"/>
      <line id="Line_40" data-name="Line 40" y2="59" transform="translate(667.75 349.748)" fill="none" stroke="#707070" stroke-width="1"/>
      <g id="Rectangle_40" data-name="Rectangle 40" transform="translate(327 347)" fill="none" stroke="#3cca8e" stroke-width="3" opacity="0.72">
        <rect width="353" height="62" stroke="none"/>
        <rect x="1.5" y="1.5" width="350" height="59" fill="none"/>
      </g>
      <rect id="Rectangle_41" data-name="Rectangle 41" width="3" height="26" rx="1.5" transform="translate(331 369)" fill="#2c70fa"/>
      <rect id="Rectangle_42" data-name="Rectangle 42" width="3" height="26" rx="1.5" transform="translate(509 369)" fill="#2c70fa"/>
      <rect id="Rectangle_43" data-name="Rectangle 43" width="180" height="18" transform="translate(330 373)" fill="#2c70fa" opacity="0.32"/>
      <rect id="Rectangle_44" data-name="Rectangle 44" width="4" height="72" rx="2" transform="translate(420 345)" fill="#0c2339"/>
      <g id="Group_117" data-name="Group 117" transform="translate(-218.202 -128.702)">
        <g id="Ellipse_110" data-name="Ellipse 110" transform="translate(555.202 504.702)" fill="#fff" stroke="#1f6cb6" stroke-width="0.5">
          <circle cx="6" cy="6" r="6" stroke="none"/>
          <circle cx="6" cy="6" r="5.75" fill="none"/>
        </g>
        <g id="layer1" transform="translate(559.702 507.685)">
          <path id="path9421" d="M3.233,290.916a.274.274,0,0,0-.19.081l-1.372,1.372a.274.274,0,1,0,.387.389l.9-.9,0,4.82a.274.274,0,1,0,.549,0l0-4.825.905.907a.275.275,0,1,0,.389-.389L3.431,291a.274.274,0,0,0-.2-.081Z" transform="translate(-1.582 -290.916)" fill="#1f6cb6"/>
        </g>
      </g>
      <text id="True_Not_Breached" data-name="True
Not Breached" transform="translate(488 440)" fill="#3cca8e" font-size="18" font-family="Roboto-Regular, Roboto"><tspan x="-17.815" y="0">True</tspan><tspan x="-54.457" y="22">Not Breached</tspan></text>
      <text id="Last_Observed:_September_14_2022_12:24_PM_" data-name="Last Observed:(September 14, 2022 12:24 PM)" transform="translate(488 481)" fill="#a1a1a1" font-size="10" font-family="Roboto-Regular, Roboto"><tspan x="-103.552" y="0">Last Observed:(September 14, 2022 12:24 PM)</tspan></text>
      <g id="Mask_Group_3" data-name="Mask Group 3" transform="translate(-238 -103)" clip-path="url(#clip-path-2)">
        <line id="Line_19" data-name="Line 19" x1="549.5" transform="translate(393 410.5)" fill="none" stroke="rgba(165,170,188,0.5)" stroke-width="1"/>
      </g>
      <text id="OC2S-0028" transform="translate(193 367)" fill="#0c2339" font-size="10" font-family="Roboto-Regular, Roboto"><tspan x="0" y="0">OC2S-0028</tspan></text>
    </g>
    <g id="timer" transform="translate(767.625 18)">
      <g id="Group_748" data-name="Group 748" transform="translate(57.375)">
        <path id="Path_561" data-name="Path 561" d="M412.1,58.561l-.379.656,1.313.758.379-.656a.38.38,0,0,0-.139-.518l-.656-.379A.379.379,0,0,0,412.1,58.561Z" transform="translate(-405.185 -57.295)" fill="#fff"/>
        <path id="Path_562" data-name="Path 562" d="M242.84,1.707a4.97,4.97,0,0,1,.705.057V1.15l.485,0V.353A.352.352,0,0,0,243.678,0h-1.671a.352.352,0,0,0-.353.353v.793l.481,0v.613A4.97,4.97,0,0,1,242.84,1.707Z" transform="translate(-238.256)" fill="#fff"/>
        <path id="Path_563" data-name="Path 563" d="M61.959,114.75a4.584,4.584,0,1,0,4.584,4.584A4.584,4.584,0,0,0,61.959,114.75Zm2.142,6.738-2.671-1.849v-2.611H62.2v2.207l2.339,1.619Z" transform="translate(-57.375 -112.634)" fill="#fff"/>
      </g>
    </g>
  </g>
</svg>
