<svg xmlns="http://www.w3.org/2000/svg" width="170" height="31" viewBox="0 0 170 31">
  <g id="Group_1127" data-name="Group 1127" transform="translate(-360.999 -86.999)">
    <g id="Group_1003" data-name="Group 1003">
      <g id="Current_target_performance_card" data-name="Current target performance card" transform="translate(363 88.252)" fill="rgba(77,192,237,0.1)">
        <path d="M5,0H161.5a5,5,0,0,1,5,5V22a5,5,0,0,1-5,5H5a5,5,0,0,1-5-5V5A5,5,0,0,1,5,0Z" stroke="none"/>
        <path d="M 5 0.5 C 2.518692016601562 0.5 0.5 2.518688201904297 0.5 5 L 0.5 22 C 0.5 24.4813117980957 2.518692016601562 26.5 5 26.5 L 161.5 26.5 C 163.9813079833984 26.5 166 24.4813117980957 166 22 L 166 5 C 166 2.518688201904297 163.9813079833984 0.5 161.5 0.5 L 5 0.5 M 5 0 L 161.5 0 C 164.2614135742188 0 166.5 2.238582611083984 166.5 5 L 166.5 22 C 166.5 24.76141738891602 164.2614135742188 27 161.5 27 L 5 27 C 2.238555908203125 27 0 24.76141738891602 0 22 L 0 5 C 0 2.238582611083984 2.238555908203125 0 5 0 Z" stroke="none" fill="rgba(165,170,188,0.5)"/>
      </g>
      <path id="Path_883" data-name="Path 883" d="M7.547,0H6.416L2.121-6.574V0H.99V-8.531H2.121l4.307,6.6v-6.6H7.547Zm4.459.117a2.77,2.77,0,0,1-2.1-.847A3.142,3.142,0,0,1,9.1-2.994v-.2a3.8,3.8,0,0,1,.36-1.685,2.811,2.811,0,0,1,1.008-1.16,2.534,2.534,0,0,1,1.4-.419,2.374,2.374,0,0,1,1.922.814,3.526,3.526,0,0,1,.686,2.332v.451H10.184a2.254,2.254,0,0,0,.548,1.515,1.722,1.722,0,0,0,1.333.577A1.888,1.888,0,0,0,13.037-1a2.444,2.444,0,0,0,.7-.621l.662.516A2.662,2.662,0,0,1,12.006.117Zm-.135-5.684a1.446,1.446,0,0,0-1.1.478,2.321,2.321,0,0,0-.551,1.339h3.176v-.082a2.065,2.065,0,0,0-.445-1.28A1.361,1.361,0,0,0,11.871-5.566Zm9.475,4.072L22.564-6.34h1.084L21.8,0h-.879L19.383-4.8,17.883,0H17l-1.84-6.34h1.078L17.49-1.594,18.967-6.34h.873ZM27.68-3.463a9.059,9.059,0,0,1,.354-2.543,7.387,7.387,0,0,1,1.058-2.215,4.5,4.5,0,0,1,1.459-1.406l.223.715a4.667,4.667,0,0,0-1.4,2,8.687,8.687,0,0,0-.6,3.018l-.006.5A8.733,8.733,0,0,0,29.59.533a4.689,4.689,0,0,0,1.184,1.559l-.223.662A4.644,4.644,0,0,1,29.063,1.3,8.144,8.144,0,0,1,27.68-3.463ZM31.992,0V-8.531H34.4a3.877,3.877,0,0,1,1.969.492,3.329,3.329,0,0,1,1.321,1.4,4.558,4.558,0,0,1,.472,2.086v.545A4.574,4.574,0,0,1,37.7-1.893,3.277,3.277,0,0,1,36.366-.5a4.124,4.124,0,0,1-2.013.5Zm1.125-7.611V-.92H34.3a2.575,2.575,0,0,0,2.024-.809,3.344,3.344,0,0,0,.724-2.3v-.5a3.4,3.4,0,0,0-.683-2.261,2.429,2.429,0,0,0-1.937-.818ZM39.4-3.229A3.745,3.745,0,0,1,39.771-4.9a2.732,2.732,0,0,1,1.02-1.148,2.775,2.775,0,0,1,1.491-.4,2.674,2.674,0,0,1,2.095.9,3.449,3.449,0,0,1,.8,2.385V-3.1a3.777,3.777,0,0,1-.354,1.661A2.692,2.692,0,0,1,43.808-.293a2.807,2.807,0,0,1-1.515.41,2.667,2.667,0,0,1-2.089-.9,3.432,3.432,0,0,1-.8-2.373Zm1.09.129a2.712,2.712,0,0,0,.489,1.693,1.566,1.566,0,0,0,1.31.639,1.556,1.556,0,0,0,1.313-.647,2.966,2.966,0,0,0,.486-1.813,2.708,2.708,0,0,0-.5-1.69,1.574,1.574,0,0,0-1.315-.647,1.557,1.557,0,0,0-1.295.639A2.944,2.944,0,0,0,40.494-3.1Zm7.061-3.24.029.7a2.341,2.341,0,0,1,1.881-.82,1.813,1.813,0,0,1,1.811,1.02,2.4,2.4,0,0,1,.823-.738,2.431,2.431,0,0,1,1.2-.281q2.086,0,2.121,2.209V0H54.334V-4.184A1.456,1.456,0,0,0,54.023-5.2a1.368,1.368,0,0,0-1.043-.337,1.437,1.437,0,0,0-1,.36,1.462,1.462,0,0,0-.463.97V0h-1.09V-4.154a1.209,1.209,0,0,0-1.354-1.383,1.45,1.45,0,0,0-1.459.908V0H46.529V-6.34ZM60.967,0a2.277,2.277,0,0,1-.152-.668,2.419,2.419,0,0,1-1.8.785,2.238,2.238,0,0,1-1.538-.53,1.716,1.716,0,0,1-.6-1.345A1.792,1.792,0,0,1,57.624-3.3a3.55,3.55,0,0,1,2.118-.548H60.8v-.5a1.217,1.217,0,0,0-.34-.905,1.366,1.366,0,0,0-1-.337,1.581,1.581,0,0,0-.973.293.863.863,0,0,0-.393.709H57a1.5,1.5,0,0,1,.337-.917,2.3,2.3,0,0,1,.914-.7,3.075,3.075,0,0,1,1.269-.258,2.506,2.506,0,0,1,1.717.548A1.976,1.976,0,0,1,61.881-4.4v2.918A3.567,3.567,0,0,0,62.1-.094V0Zm-1.8-.826a1.905,1.905,0,0,0,.967-.264,1.6,1.6,0,0,0,.662-.686v-1.3h-.85q-1.992,0-1.992,1.166a.987.987,0,0,0,.34.8A1.306,1.306,0,0,0,59.168-.826ZM64.758,0H63.674V-6.34h1.084ZM63.586-8.021a.647.647,0,0,1,.161-.445.6.6,0,0,1,.478-.182.614.614,0,0,1,.48.182.64.64,0,0,1,.164.445.619.619,0,0,1-.164.439.626.626,0,0,1-.48.176.616.616,0,0,1-.478-.176A.626.626,0,0,1,63.586-8.021ZM67.518-6.34l.035.8a2.31,2.31,0,0,1,1.9-.914q2.01,0,2.027,2.268V0H70.395V-4.2a1.459,1.459,0,0,0-.313-1.014,1.256,1.256,0,0,0-.958-.328,1.564,1.564,0,0,0-.926.281,1.91,1.91,0,0,0-.621.738V0H66.492V-6.34Zm9.861,3V0H76.254V-8.531H79.4a3.161,3.161,0,0,1,2.194.715,2.423,2.423,0,0,1,.794,1.893,2.391,2.391,0,0,1-.776,1.913,3.3,3.3,0,0,1-2.224.671Zm0-.92H79.4a2.021,2.021,0,0,0,1.383-.426,1.556,1.556,0,0,0,.48-1.23,1.608,1.608,0,0,0-.48-1.221,1.894,1.894,0,0,0-1.318-.475H77.379ZM87.5,0a2.277,2.277,0,0,1-.152-.668,2.419,2.419,0,0,1-1.8.785,2.238,2.238,0,0,1-1.538-.53,1.716,1.716,0,0,1-.6-1.345A1.792,1.792,0,0,1,84.161-3.3a3.55,3.55,0,0,1,2.118-.548h1.055v-.5a1.217,1.217,0,0,0-.34-.905,1.366,1.366,0,0,0-1-.337,1.581,1.581,0,0,0-.973.293.863.863,0,0,0-.393.709h-1.09a1.5,1.5,0,0,1,.337-.917,2.3,2.3,0,0,1,.914-.7,3.075,3.075,0,0,1,1.269-.258,2.506,2.506,0,0,1,1.717.548A1.976,1.976,0,0,1,88.418-4.4v2.918a3.567,3.567,0,0,0,.223,1.389V0Zm-1.8-.826a1.905,1.905,0,0,0,.967-.264,1.6,1.6,0,0,0,.662-.686v-1.3h-.85q-1.992,0-1.992,1.166a.987.987,0,0,0,.34.8A1.306,1.306,0,0,0,85.705-.826Zm6.955.059a1.561,1.561,0,0,0,1.014-.352A1.237,1.237,0,0,0,94.154-2H95.18A1.966,1.966,0,0,1,94.8-.961a2.47,2.47,0,0,1-.923.785A2.663,2.663,0,0,1,92.66.117,2.612,2.612,0,0,1,90.6-.747a3.442,3.442,0,0,1-.765-2.364v-.182a3.817,3.817,0,0,1,.34-1.646,2.588,2.588,0,0,1,.976-1.119,2.771,2.771,0,0,1,1.5-.4,2.543,2.543,0,0,1,1.772.639A2.283,2.283,0,0,1,95.18-4.16H94.154a1.494,1.494,0,0,0-.466-1.011,1.449,1.449,0,0,0-1.034-.4,1.517,1.517,0,0,0-1.28.595,2.793,2.793,0,0,0-.454,1.72v.205a2.737,2.737,0,0,0,.451,1.688A1.524,1.524,0,0,0,92.66-.768Zm5.508-2.168-.68.709V0H96.4V-9h1.084v5.443l.58-.7,1.975-2.086h1.318L98.895-3.691,101.648,0h-1.271Zm6.814-.469a9.063,9.063,0,0,1-.343,2.5,7.407,7.407,0,0,1-1.049,2.212,4.6,4.6,0,0,1-1.479,1.441l-.229-.662a4.711,4.711,0,0,0,1.45-2.147,9.29,9.29,0,0,0,.56-3.231v-.187a9.646,9.646,0,0,0-.258-2.288,7.722,7.722,0,0,0-.718-1.9,4.378,4.378,0,0,0-1.034-1.307l.229-.662a4.577,4.577,0,0,1,1.474,1.43,7.423,7.423,0,0,1,1.049,2.209A9.273,9.273,0,0,1,104.982-3.4Zm9.516-.363h-3.58V0h-1.125V-8.531h5.285v.92h-4.16v2.924h3.58ZM117.434,0H116.35V-9h1.084Zm1.447-3.229a3.745,3.745,0,0,1,.366-1.676,2.732,2.732,0,0,1,1.02-1.148,2.775,2.775,0,0,1,1.491-.4,2.674,2.674,0,0,1,2.095.9,3.449,3.449,0,0,1,.8,2.385V-3.1a3.777,3.777,0,0,1-.354,1.661,2.692,2.692,0,0,1-1.014,1.146,2.807,2.807,0,0,1-1.515.41,2.667,2.667,0,0,1-2.089-.9,3.432,3.432,0,0,1-.8-2.373Zm1.09.129a2.712,2.712,0,0,0,.489,1.693,1.566,1.566,0,0,0,1.31.639,1.556,1.556,0,0,0,1.313-.647,2.966,2.966,0,0,0,.486-1.813,2.708,2.708,0,0,0-.5-1.69,1.574,1.574,0,0,0-1.315-.647,1.557,1.557,0,0,0-1.295.639A2.944,2.944,0,0,0,119.971-3.1Zm11.654,1.605,1.219-4.846h1.084L132.082,0H131.2l-1.541-4.8-1.5,4.8h-.879l-1.84-6.34h1.078l1.248,4.746,1.477-4.746h.873Z" transform="translate(387 106)" fill="#0c2339"/>
      <path id="Path_86" data-name="Path 86" d="M5,0a5,5,0,1,0,5,5A5.006,5.006,0,0,0,5,0ZM5,0" transform="translate(371 97)" fill="#2196f3"/>
      <path id="Path_87" data-name="Path 87" d="M146.1,166.039l-2.708,2.708a.416.416,0,0,1-.589,0l-1.354-1.354a.417.417,0,1,1,.589-.589l1.06,1.06,2.414-2.414a.417.417,0,0,1,.589.589Zm0,0" transform="translate(232.432 -65.099)" fill="#fafafa"/>
      <g id="Group_1126" data-name="Group 1126">
        <g id="Path_890" data-name="Path 890" transform="translate(360.999 86.999)" fill="rgba(255,255,255,0)">
          <path d="M 163 29.5 L 7 29.5 C 3.967295408248901 29.5 1.5 27.03270530700684 1.5 24 L 1.5 7 C 1.5 3.967295408248901 3.967295408248901 1.5 7 1.5 L 163 1.5 C 166.0326995849609 1.5 168.5 3.967295408248901 168.5 7 L 168.5 24 C 168.5 27.03270530700684 166.0326995849609 29.5 163 29.5 Z" stroke="none"/>
          <path d="M 7 3 C 4.794387817382812 3 3 4.794380187988281 3 7 L 3 24 C 3 26.20561981201172 4.794387817382812 28 7 28 L 163 28 C 165.2056121826172 28 167 26.20561981201172 167 24 L 167 7 C 167 4.794380187988281 165.2056121826172 3 163 3 L 7 3 M 7 0 L 163 0 C 166.8659973144531 0 170 3.134000778198242 170 7 L 170 24 C 170 27.86599922180176 166.8659973144531 31 163 31 L 7 31 C 3.134002685546875 31 0 27.86599922180176 0 24 L 0 7 C 0 3.134000778198242 3.134002685546875 0 7 0 Z" stroke="none" fill="#4dc0ed"/>
        </g>
      </g>
    </g>
  </g>
</svg>
