<svg xmlns="http://www.w3.org/2000/svg" width="98.5" height="36" viewBox="0 0 98.5 36">
  <g id="Group_1011" data-name="Group 1011" transform="translate(-1171 -715.743)">
    <g id="Field_1" data-name="Field 1" transform="translate(1171 715.743)" fill="#1f6cb6">
      <path d="M5,0H93.5a5,5,0,0,1,5,5V31a5,5,0,0,1-5,5H5a5,5,0,0,1-5-5V5A5,5,0,0,1,5,0Z" stroke="none"/>
      <path d="M 5 0.5 C 2.518684387207031 0.5 0.5 2.518688201904297 0.5 5 L 0.5 31 C 0.5 33.4813117980957 2.518684387207031 35.5 5 35.5 L 93.5 35.5 C 95.98131561279297 35.5 98 33.4813117980957 98 31 L 98 5 C 98 2.518688201904297 95.98131561279297 0.5 93.5 0.5 L 5 0.5 M 5 0 L 93.5 0 C 96.26142883300781 0 98.5 2.238574981689453 98.5 5 L 98.5 31 C 98.5 33.76142501831055 96.26142883300781 36 93.5 36 L 5 36 C 2.238578796386719 36 0 33.76142501831055 0 31 L 0 5 C 0 2.238574981689453 2.238578796386719 0 5 0 Z" stroke="none" fill="rgba(165,170,188,0.5)"/>
    </g>
    <path id="Path_953" data-name="Path 953" d="M3.5-3.8A5.29,5.29,0,0,1,1.4-4.825a1.954,1.954,0,0,1-.659-1.5,2.064,2.064,0,0,1,.806-1.667,3.2,3.2,0,0,1,2.095-.659,3.5,3.5,0,0,1,1.567.34,2.577,2.577,0,0,1,1.066.938A2.4,2.4,0,0,1,6.65-6.064H5.52a1.56,1.56,0,0,0-.492-1.22,2,2,0,0,0-1.389-.444,2.049,2.049,0,0,0-1.3.367,1.224,1.224,0,0,0-.466,1.018,1.1,1.1,0,0,0,.442.883,4.339,4.339,0,0,0,1.506.66,6.987,6.987,0,0,1,1.664.66,2.525,2.525,0,0,1,.891.841,2.146,2.146,0,0,1,.29,1.131A1.993,1.993,0,0,1,5.859-.507,3.448,3.448,0,0,1,3.7.117,4.01,4.01,0,0,1,2.057-.22,2.761,2.761,0,0,1,.882-1.143a2.252,2.252,0,0,1-.413-1.33H1.6a1.469,1.469,0,0,0,.571,1.222A2.4,2.4,0,0,0,3.7-.8a2.211,2.211,0,0,0,1.365-.363,1.18,1.18,0,0,0,.475-.99,1.158,1.158,0,0,0-.439-.97A5.066,5.066,0,0,0,3.5-3.8ZM11.854,0A2.277,2.277,0,0,1,11.7-.668,2.419,2.419,0,0,1,9.9.117a2.238,2.238,0,0,1-1.538-.53,1.716,1.716,0,0,1-.6-1.345A1.792,1.792,0,0,1,8.511-3.3a3.55,3.55,0,0,1,2.118-.548h1.055v-.5a1.217,1.217,0,0,0-.34-.905,1.366,1.366,0,0,0-1-.337,1.581,1.581,0,0,0-.973.293.863.863,0,0,0-.393.709H7.887A1.5,1.5,0,0,1,8.224-5.5a2.3,2.3,0,0,1,.914-.7,3.075,3.075,0,0,1,1.269-.258,2.506,2.506,0,0,1,1.717.548A1.976,1.976,0,0,1,12.768-4.4v2.918A3.567,3.567,0,0,0,12.99-.094V0Zm-1.8-.826a1.905,1.905,0,0,0,.967-.264,1.6,1.6,0,0,0,.662-.686v-1.3h-.85q-1.992,0-1.992,1.166a.987.987,0,0,0,.34.8A1.306,1.306,0,0,0,10.055-.826Zm6.416-.645,1.57-4.869h1.107L16.875,0h-.826l-2.3-6.34h1.107ZM22.746.117a2.77,2.77,0,0,1-2.1-.847,3.142,3.142,0,0,1-.809-2.265v-.2a3.8,3.8,0,0,1,.36-1.685,2.811,2.811,0,0,1,1.008-1.16,2.534,2.534,0,0,1,1.4-.419,2.374,2.374,0,0,1,1.922.814,3.526,3.526,0,0,1,.686,2.332v.451H20.924a2.254,2.254,0,0,0,.548,1.515A1.722,1.722,0,0,0,22.8-.768,1.888,1.888,0,0,0,23.777-1a2.444,2.444,0,0,0,.7-.621l.662.516A2.662,2.662,0,0,1,22.746.117Zm-.135-5.684a1.446,1.446,0,0,0-1.1.478,2.321,2.321,0,0,0-.551,1.339h3.176v-.082a2.065,2.065,0,0,0-.445-1.28A1.361,1.361,0,0,0,22.611-5.566Z" transform="translate(1207 737.743)" fill="#fff"/>
  </g>
</svg>
