<svg xmlns="http://www.w3.org/2000/svg" width="1236.268" height="33" viewBox="0 0 1236.268 33">
  <g id="Group_1105" data-name="Group 1105" transform="translate(14637.768 -4663.741)">
    <path id="Field_1" data-name="Field 1" d="M0,0H1236.267V33H0Z" transform="translate(-14637.768 4663.741)" fill="#fff"/>
    <path id="Path_1388" data-name="Path 1388" d="M2.848,0H2.121V-4.816L.664-4.281v-.656l2.07-.777h.113Z" transform="translate(-14617 4680.741)" fill="#0c2339"/>
    <path id="Path_1428" data-name="Path 1428" d="M3.043-5.687H3.8V-1.66a1.668,1.668,0,0,1-.49,1.277A1.83,1.83,0,0,1,2,.078,1.881,1.881,0,0,1,.68-.355,1.566,1.566,0,0,1,.207-1.57h.75a1.043,1.043,0,0,0,.268.762A1.037,1.037,0,0,0,2-.535a1.006,1.006,0,0,0,.752-.293,1.135,1.135,0,0,0,.291-.82ZM4.77-2.152A2.5,2.5,0,0,1,5.014-3.27a1.821,1.821,0,0,1,.68-.766,1.85,1.85,0,0,1,.994-.27,1.782,1.782,0,0,1,1.4.6,2.3,2.3,0,0,1,.533,1.59v.051A2.518,2.518,0,0,1,8.381-.959,1.794,1.794,0,0,1,7.705-.2,1.871,1.871,0,0,1,6.7.078,1.778,1.778,0,0,1,5.3-.52,2.288,2.288,0,0,1,4.77-2.1Zm.727.086A1.808,1.808,0,0,0,5.822-.937,1.044,1.044,0,0,0,6.7-.512,1.038,1.038,0,0,0,7.57-.943a1.977,1.977,0,0,0,.324-1.209,1.805,1.805,0,0,0-.33-1.127,1.049,1.049,0,0,0-.877-.432,1.038,1.038,0,0,0-.863.426A1.963,1.963,0,0,0,5.5-2.066ZM12.133,0a1.518,1.518,0,0,1-.1-.445,1.612,1.612,0,0,1-1.2.523A1.492,1.492,0,0,1,9.8-.275a1.144,1.144,0,0,1-.4-.9A1.2,1.2,0,0,1,9.9-2.2a2.367,2.367,0,0,1,1.412-.365h.7v-.332a.812.812,0,0,0-.227-.6.911.911,0,0,0-.668-.225,1.054,1.054,0,0,0-.648.2.576.576,0,0,0-.262.473H9.488a1,1,0,0,1,.225-.611,1.533,1.533,0,0,1,.609-.467,2.05,2.05,0,0,1,.846-.172,1.671,1.671,0,0,1,1.145.365,1.318,1.318,0,0,1,.43,1.006V-.988a2.378,2.378,0,0,0,.148.926V0Zm-1.2-.551a1.27,1.27,0,0,0,.645-.176,1.063,1.063,0,0,0,.441-.457v-.867h-.566q-1.328,0-1.328.777a.658.658,0,0,0,.227.531A.871.871,0,0,0,10.934-.551Zm3.625-3.676.023.531A1.54,1.54,0,0,1,15.848-4.3q1.34,0,1.352,1.512V0h-.723V-2.8a.973.973,0,0,0-.209-.676.837.837,0,0,0-.639-.219,1.043,1.043,0,0,0-.617.188,1.273,1.273,0,0,0-.414.492V0h-.723V-4.227Zm4.414,0L19-3.7A1.54,1.54,0,0,1,20.262-4.3q1.34,0,1.352,1.512V0h-.723V-2.8a.973.973,0,0,0-.209-.676.837.837,0,0,0-.639-.219,1.043,1.043,0,0,0-.617.188,1.273,1.273,0,0,0-.414.492V0h-.723V-4.227Zm5.484,4.3a1.847,1.847,0,0,1-1.4-.564A2.1,2.1,0,0,1,22.52-2v-.133a2.536,2.536,0,0,1,.24-1.123,1.874,1.874,0,0,1,.672-.773,1.689,1.689,0,0,1,.936-.279,1.583,1.583,0,0,1,1.281.543,2.351,2.351,0,0,1,.457,1.555v.3H23.242A1.5,1.5,0,0,0,23.607-.9a1.148,1.148,0,0,0,.889.385,1.259,1.259,0,0,0,.648-.156,1.629,1.629,0,0,0,.465-.414l.441.344A1.775,1.775,0,0,1,24.457.078Zm-.09-3.789a.964.964,0,0,0-.734.318,1.547,1.547,0,0,0-.367.893h2.117v-.055a1.376,1.376,0,0,0-.3-.854A.908.908,0,0,0,24.367-3.711ZM33.406,0h-.754V-2.629H29.785V0h-.75V-5.687h.75v2.445h2.867V-5.687h.754Zm3.828,0a1.518,1.518,0,0,1-.1-.445,1.612,1.612,0,0,1-1.2.523A1.492,1.492,0,0,1,34.9-.275a1.144,1.144,0,0,1-.4-.9,1.2,1.2,0,0,1,.5-1.025,2.367,2.367,0,0,1,1.412-.365h.7v-.332a.812.812,0,0,0-.227-.6.911.911,0,0,0-.668-.225,1.054,1.054,0,0,0-.648.2.576.576,0,0,0-.262.473H34.59a1,1,0,0,1,.225-.611,1.533,1.533,0,0,1,.609-.467A2.05,2.05,0,0,1,36.27-4.3a1.671,1.671,0,0,1,1.145.365,1.318,1.318,0,0,1,.43,1.006V-.988a2.378,2.378,0,0,0,.148.926V0Zm-1.2-.551a1.27,1.27,0,0,0,.645-.176,1.063,1.063,0,0,0,.441-.457v-.867h-.566q-1.328,0-1.328.777a.658.658,0,0,0,.227.531A.871.871,0,0,0,36.035-.551ZM41.02-3.578a2.166,2.166,0,0,0-.355-.027A.952.952,0,0,0,39.7-3V0h-.723V-4.227h.7l.012.488A1.125,1.125,0,0,1,40.7-4.3a.738.738,0,0,1,.32.055Zm2.707,0a2.166,2.166,0,0,0-.355-.027A.952.952,0,0,0,42.406-3V0h-.723V-4.227h.7l.012.488A1.125,1.125,0,0,1,43.406-4.3a.738.738,0,0,1,.32.055ZM45.176,0h-.723V-4.227h.723Zm-.781-5.348a.431.431,0,0,1,.107-.3.4.4,0,0,1,.318-.121.41.41,0,0,1,.32.121.427.427,0,0,1,.109.3.413.413,0,0,1-.109.293.417.417,0,0,1-.32.117.411.411,0,0,1-.318-.117A.417.417,0,0,1,44.395-5.348Zm4.4,4.227a.532.532,0,0,0-.221-.455,2.124,2.124,0,0,0-.77-.279,3.638,3.638,0,0,1-.871-.281,1.239,1.239,0,0,1-.477-.391.934.934,0,0,1-.154-.539,1.1,1.1,0,0,1,.439-.879A1.716,1.716,0,0,1,47.863-4.3a1.766,1.766,0,0,1,1.166.371,1.179,1.179,0,0,1,.447.949H48.75A.652.652,0,0,0,48.5-3.5a.944.944,0,0,0-.635-.215.988.988,0,0,0-.617.172.541.541,0,0,0-.223.449.438.438,0,0,0,.207.395,2.547,2.547,0,0,0,.748.254,3.9,3.9,0,0,1,.877.289,1.279,1.279,0,0,1,.5.4.994.994,0,0,1,.162.576,1.082,1.082,0,0,1-.453.908,1.9,1.9,0,0,1-1.176.342,2.128,2.128,0,0,1-.9-.18,1.461,1.461,0,0,1-.611-.5,1.21,1.21,0,0,1-.221-.7h.723a.748.748,0,0,0,.291.576,1.129,1.129,0,0,0,.717.213,1.165,1.165,0,0,0,.658-.166A.51.51,0,0,0,48.793-1.121Z" transform="translate(-14286.5 4680.741)" fill="#0f6daa"/>
    <path id="Path_1448" data-name="Path 1448" d="M1.523-3.2h.543a1.193,1.193,0,0,0,.8-.27.9.9,0,0,0,.293-.707.882.882,0,0,0-1-1A1.036,1.036,0,0,0,1.42-4.9a.936.936,0,0,0-.279.709H.418A1.451,1.451,0,0,1,.912-5.318a1.8,1.8,0,0,1,1.256-.447A1.779,1.779,0,0,1,3.43-5.34a1.538,1.538,0,0,1,.457,1.184,1.248,1.248,0,0,1-.24.719,1.451,1.451,0,0,1-.654.52,1.4,1.4,0,0,1,.725.492,1.367,1.367,0,0,1,.256.84,1.551,1.551,0,0,1-.5,1.215,1.872,1.872,0,0,1-1.3.449,1.922,1.922,0,0,1-1.3-.434A1.438,1.438,0,0,1,.367-1.5h.727a.93.93,0,0,0,.293.719,1.114,1.114,0,0,0,.785.27,1.093,1.093,0,0,0,.8-.273A1.054,1.054,0,0,0,3.25-1.57a.956.956,0,0,0-.3-.762,1.328,1.328,0,0,0-.879-.273H1.523ZM8.691,0H4.965V-.52L6.934-2.707a4.677,4.677,0,0,0,.6-.807A1.346,1.346,0,0,0,7.7-4.156a1.02,1.02,0,0,0-.27-.73.942.942,0,0,0-.719-.285,1.116,1.116,0,0,0-.838.307,1.171,1.171,0,0,0-.3.854H4.855a1.677,1.677,0,0,1,.506-1.27,1.875,1.875,0,0,1,1.354-.484,1.8,1.8,0,0,1,1.254.416A1.419,1.419,0,0,1,8.43-4.242a3.253,3.253,0,0,1-1.07,2L5.836-.59H8.691Zm3.141,0h-.727V-4.816l-1.457.535v-.656l2.07-.777h.113Zm2.449-2.852.289-2.836h2.914v.668h-2.3l-.172,1.551a1.835,1.835,0,0,1,.949-.246A1.569,1.569,0,0,1,17.2-3.2a2.013,2.013,0,0,1,.457,1.389,1.943,1.943,0,0,1-.475,1.385,1.73,1.73,0,0,1-1.326.506,1.8,1.8,0,0,1-1.23-.418A1.668,1.668,0,0,1,14.078-1.5h.684a1.148,1.148,0,0,0,.348.736,1.081,1.081,0,0,0,.742.248.975.975,0,0,0,.791-.344A1.437,1.437,0,0,0,16.93-1.8a1.319,1.319,0,0,0-.311-.916,1.056,1.056,0,0,0-.826-.346,1.191,1.191,0,0,0-.742.207l-.191.156ZM22.168,0H18.441V-.52L20.41-2.707a4.677,4.677,0,0,0,.6-.807,1.346,1.346,0,0,0,.166-.643,1.02,1.02,0,0,0-.27-.73.942.942,0,0,0-.719-.285,1.116,1.116,0,0,0-.838.307,1.171,1.171,0,0,0-.3.854h-.723a1.677,1.677,0,0,1,.506-1.27,1.875,1.875,0,0,1,1.354-.484,1.8,1.8,0,0,1,1.254.416,1.419,1.419,0,0,1,.461,1.107,3.253,3.253,0,0,1-1.07,2L19.313-.59h2.855Zm4.215-4.2a1.321,1.321,0,0,1-.225.758,1.528,1.528,0,0,1-.607.52,1.63,1.63,0,0,1,.705.559,1.406,1.406,0,0,1,.26.832,1.486,1.486,0,0,1-.5,1.176,1.913,1.913,0,0,1-1.311.438,1.9,1.9,0,0,1-1.314-.439A1.493,1.493,0,0,1,22.9-1.535a1.448,1.448,0,0,1,.252-.832,1.568,1.568,0,0,1,.7-.562,1.491,1.491,0,0,1-.6-.52,1.34,1.34,0,0,1-.219-.754,1.47,1.47,0,0,1,.461-1.141,1.729,1.729,0,0,1,1.215-.422,1.731,1.731,0,0,1,1.213.422A1.467,1.467,0,0,1,26.383-4.2Zm-.59,2.652a1.048,1.048,0,0,0-.3-.777,1.074,1.074,0,0,0-.791-.3,1.055,1.055,0,0,0-.783.3,1.06,1.06,0,0,0-.295.781,1.01,1.01,0,0,0,.287.762,1.1,1.1,0,0,0,.8.277,1.1,1.1,0,0,0,.8-.279A1.007,1.007,0,0,0,25.793-1.551ZM24.707-5.172a.932.932,0,0,0-.689.264.969.969,0,0,0-.264.717.964.964,0,0,0,.26.7.922.922,0,0,0,.693.268A.922.922,0,0,0,25.4-3.49a.964.964,0,0,0,.26-.7.964.964,0,0,0-.27-.707A.919.919,0,0,0,24.707-5.172ZM29.8,0h-.727V-4.816l-1.457.535v-.656l2.07-.777H29.8Zm3.168-3.2h.543a1.193,1.193,0,0,0,.8-.27.9.9,0,0,0,.293-.707.882.882,0,0,0-1-1,1.036,1.036,0,0,0-.748.268.936.936,0,0,0-.279.709h-.723a1.451,1.451,0,0,1,.494-1.123,1.8,1.8,0,0,1,1.256-.447,1.779,1.779,0,0,1,1.262.426,1.538,1.538,0,0,1,.457,1.184,1.248,1.248,0,0,1-.24.719,1.451,1.451,0,0,1-.654.52,1.4,1.4,0,0,1,.725.492,1.367,1.367,0,0,1,.256.84,1.551,1.551,0,0,1-.5,1.215,1.872,1.872,0,0,1-1.3.449,1.922,1.922,0,0,1-1.3-.434,1.438,1.438,0,0,1-.5-1.145h.727a.93.93,0,0,0,.293.719,1.114,1.114,0,0,0,.785.27,1.093,1.093,0,0,0,.8-.273A1.054,1.054,0,0,0,34.7-1.57a.956.956,0,0,0-.3-.762,1.328,1.328,0,0,0-.879-.273h-.543Zm3.773.344.289-2.836h2.914v.668h-2.3l-.172,1.551a1.835,1.835,0,0,1,.949-.246,1.569,1.569,0,0,1,1.234.514,2.013,2.013,0,0,1,.457,1.389,1.943,1.943,0,0,1-.475,1.385,1.73,1.73,0,0,1-1.326.506,1.8,1.8,0,0,1-1.23-.418A1.668,1.668,0,0,1,36.539-1.5h.684a1.148,1.148,0,0,0,.348.736,1.081,1.081,0,0,0,.742.248A.975.975,0,0,0,39.1-.855a1.437,1.437,0,0,0,.287-.949,1.319,1.319,0,0,0-.311-.916,1.056,1.056,0,0,0-.826-.346,1.191,1.191,0,0,0-.742.207L37.32-2.7Zm6.93.352a1.768,1.768,0,0,1-.541.434,1.468,1.468,0,0,1-.689.164,1.515,1.515,0,0,1-.857-.242,1.574,1.574,0,0,1-.564-.682,2.324,2.324,0,0,1-.2-.971,2.368,2.368,0,0,1,.217-1.027,1.593,1.593,0,0,1,.615-.7,1.754,1.754,0,0,1,.93-.242,1.588,1.588,0,0,1,1.33.631A2.752,2.752,0,0,1,44.4-3.414V-3.2a3.677,3.677,0,0,1-.656,2.424A2.521,2.521,0,0,1,41.762,0h-.141V-.609h.152a1.99,1.99,0,0,0,1.375-.466A2,2,0,0,0,43.672-2.5Zm-1.113,0a1.116,1.116,0,0,0,.67-.223,1.313,1.313,0,0,0,.447-.551v-.289a1.989,1.989,0,0,0-.309-1.156.921.921,0,0,0-.781-.445.928.928,0,0,0-.766.365,1.507,1.507,0,0,0-.289.963,1.568,1.568,0,0,0,.279.959A.884.884,0,0,0,42.559-2.5Zm6.4.074a3.305,3.305,0,0,1-.434,1.887,1.542,1.542,0,0,1-1.355.617,1.553,1.553,0,0,1-1.348-.6,3.137,3.137,0,0,1-.453-1.8v-.965A3.232,3.232,0,0,1,45.8-5.156a1.554,1.554,0,0,1,1.359-.609,1.568,1.568,0,0,1,1.352.588,3.119,3.119,0,0,1,.445,1.814Zm-.723-.988a2.648,2.648,0,0,0-.258-1.338.887.887,0,0,0-.816-.42.876.876,0,0,0-.809.418,2.585,2.585,0,0,0-.262,1.285v1.156a2.69,2.69,0,0,0,.268,1.361.886.886,0,0,0,.811.439.874.874,0,0,0,.795-.414,2.593,2.593,0,0,0,.271-1.3Zm2.7.219h.543a1.193,1.193,0,0,0,.8-.27.9.9,0,0,0,.293-.707.882.882,0,0,0-1-1,1.036,1.036,0,0,0-.748.268.936.936,0,0,0-.279.709h-.723a1.451,1.451,0,0,1,.494-1.123,1.8,1.8,0,0,1,1.256-.447,1.779,1.779,0,0,1,1.262.426A1.538,1.538,0,0,1,53.3-4.156a1.248,1.248,0,0,1-.24.719,1.451,1.451,0,0,1-.654.52,1.4,1.4,0,0,1,.725.492,1.367,1.367,0,0,1,.256.84,1.551,1.551,0,0,1-.5,1.215,1.872,1.872,0,0,1-1.3.449,1.922,1.922,0,0,1-1.3-.434,1.438,1.438,0,0,1-.5-1.145h.727a.93.93,0,0,0,.293.719,1.114,1.114,0,0,0,.785.27,1.093,1.093,0,0,0,.8-.273,1.054,1.054,0,0,0,.277-.785.956.956,0,0,0-.3-.762,1.328,1.328,0,0,0-.879-.273h-.543Z" transform="translate(-14123.768 4680.741)" fill="#0f6daa"/>
    <path id="Path_1463" data-name="Path 1463" d="M1.41-2.227V0H.66V-5.687h2.1a2.107,2.107,0,0,1,1.463.477A1.616,1.616,0,0,1,4.75-3.949a1.594,1.594,0,0,1-.518,1.275,2.2,2.2,0,0,1-1.482.447Zm0-.613H2.758a1.347,1.347,0,0,0,.922-.284A1.037,1.037,0,0,0,4-3.943a1.072,1.072,0,0,0-.32-.814A1.262,1.262,0,0,0,2.8-5.074H1.41Zm4.906-.875a1.536,1.536,0,0,1,1.25-.59q1.34,0,1.352,1.512V0H8.2V-2.8a.973.973,0,0,0-.209-.676.837.837,0,0,0-.639-.219A1.043,1.043,0,0,0,6.73-3.5a1.273,1.273,0,0,0-.414.492V0H5.594V-6h.723ZM9.809-2.152a2.5,2.5,0,0,1,.244-1.117,1.821,1.821,0,0,1,.68-.766,1.85,1.85,0,0,1,.994-.27,1.782,1.782,0,0,1,1.4.6,2.3,2.3,0,0,1,.533,1.59v.051A2.518,2.518,0,0,1,13.42-.959a1.794,1.794,0,0,1-.676.764,1.871,1.871,0,0,1-1.01.273,1.778,1.778,0,0,1-1.393-.6A2.288,2.288,0,0,1,9.809-2.1Zm.727.086a1.808,1.808,0,0,0,.326,1.129,1.044,1.044,0,0,0,.873.426,1.038,1.038,0,0,0,.875-.432,1.977,1.977,0,0,0,.324-1.209,1.805,1.805,0,0,0-.33-1.127,1.049,1.049,0,0,0-.877-.432,1.038,1.038,0,0,0-.863.426A1.963,1.963,0,0,0,10.535-2.066ZM16.316.078a1.847,1.847,0,0,1-1.4-.564A2.1,2.1,0,0,1,14.379-2v-.133a2.536,2.536,0,0,1,.24-1.123,1.874,1.874,0,0,1,.672-.773,1.689,1.689,0,0,1,.936-.279,1.583,1.583,0,0,1,1.281.543,2.351,2.351,0,0,1,.457,1.555v.3H15.1A1.5,1.5,0,0,0,15.467-.9a1.148,1.148,0,0,0,.889.385A1.259,1.259,0,0,0,17-.668a1.629,1.629,0,0,0,.465-.414l.441.344A1.775,1.775,0,0,1,16.316.078Zm-.09-3.789a.964.964,0,0,0-.734.318,1.547,1.547,0,0,0-.367.893h2.117v-.055a1.376,1.376,0,0,0-.3-.854A.908.908,0,0,0,16.227-3.711Zm3.258-.516.023.531A1.54,1.54,0,0,1,20.773-4.3q1.34,0,1.352,1.512V0H21.4V-2.8a.973.973,0,0,0-.209-.676.837.837,0,0,0-.639-.219,1.043,1.043,0,0,0-.617.188,1.273,1.273,0,0,0-.414.492V0H18.8V-4.227ZM24,0h-.723V-4.227H24Zm-.781-5.348a.431.431,0,0,1,.107-.3.4.4,0,0,1,.318-.121.41.41,0,0,1,.32.121.427.427,0,0,1,.109.3.413.413,0,0,1-.109.293.417.417,0,0,1-.32.117.411.411,0,0,1-.318-.117A.417.417,0,0,1,23.219-5.348Zm3.355,2.664.938-1.543h.844l-1.383,2.09L28.4,0h-.836l-.977-1.582L25.609,0h-.84L26.2-2.137l-1.383-2.09h.836ZM29.1,1.133l-.41-.281A1.885,1.885,0,0,0,29.07-.2V-.855h.707v.566A1.779,1.779,0,0,1,29.584.5,1.847,1.847,0,0,1,29.1,1.133Zm6.828-2.621H33.543L33.008,0h-.773l2.172-5.687h.656L37.238,0h-.77ZM33.77-2.1H35.7l-.969-2.66Zm4.8,1.488H41.82V0H37.68V-.562L40.8-5.074H37.73v-.613H41.7v.547Z" transform="translate(-14022.768 4681.991)" fill="#0f6daa"/>
    <path id="Path_1475" data-name="Path 1475" d="M4.664-5.687V-1.82A1.814,1.814,0,0,1,4.158-.5,2.038,2.038,0,0,1,2.8.07L2.6.078a2.129,2.129,0,0,1-1.488-.5A1.8,1.8,0,0,1,.547-1.812V-5.687h.742v3.852a1.3,1.3,0,0,0,.34.959A1.306,1.306,0,0,0,2.6-.535a1.315,1.315,0,0,0,.975-.34,1.3,1.3,0,0,0,.338-.957V-5.687ZM7.523-2.535a3.527,3.527,0,0,1-1.4-.682,1.3,1.3,0,0,1-.439-1,1.376,1.376,0,0,1,.537-1.111,2.135,2.135,0,0,1,1.4-.439,2.33,2.33,0,0,1,1.045.227,1.718,1.718,0,0,1,.711.625,1.6,1.6,0,0,1,.252.871H8.867a1.04,1.04,0,0,0-.328-.813,1.334,1.334,0,0,0-.926-.3,1.366,1.366,0,0,0-.865.245.816.816,0,0,0-.311.679.734.734,0,0,0,.295.589,2.893,2.893,0,0,0,1,.44,4.658,4.658,0,0,1,1.109.44,1.683,1.683,0,0,1,.594.561,1.431,1.431,0,0,1,.193.754A1.329,1.329,0,0,1,9.094-.338,2.3,2.3,0,0,1,7.652.078,2.673,2.673,0,0,1,6.559-.146a1.841,1.841,0,0,1-.783-.615A1.5,1.5,0,0,1,5.5-1.648h.754a.98.98,0,0,0,.381.814,1.6,1.6,0,0,0,1.018.3,1.474,1.474,0,0,0,.91-.242.787.787,0,0,0,.316-.66.772.772,0,0,0-.293-.646A3.378,3.378,0,0,0,7.523-2.535Z" transform="translate(-13908.5 4682.857)" fill="#0f6daa"/>
    <path id="Path_1486" data-name="Path 1486" d="M4.664-5.687V-1.82A1.814,1.814,0,0,1,4.158-.5,2.038,2.038,0,0,1,2.8.07L2.6.078a2.129,2.129,0,0,1-1.488-.5A1.8,1.8,0,0,1,.547-1.812V-5.687h.742v3.852a1.3,1.3,0,0,0,.34.959A1.306,1.306,0,0,0,2.6-.535a1.315,1.315,0,0,0,.975-.34,1.3,1.3,0,0,0,.338-.957V-5.687ZM7.523-2.535a3.527,3.527,0,0,1-1.4-.682,1.3,1.3,0,0,1-.439-1,1.376,1.376,0,0,1,.537-1.111,2.135,2.135,0,0,1,1.4-.439,2.33,2.33,0,0,1,1.045.227,1.718,1.718,0,0,1,.711.625,1.6,1.6,0,0,1,.252.871H8.867a1.04,1.04,0,0,0-.328-.813,1.334,1.334,0,0,0-.926-.3,1.366,1.366,0,0,0-.865.245.816.816,0,0,0-.311.679.734.734,0,0,0,.295.589,2.893,2.893,0,0,0,1,.44,4.658,4.658,0,0,1,1.109.44,1.683,1.683,0,0,1,.594.561,1.431,1.431,0,0,1,.193.754A1.329,1.329,0,0,1,9.094-.338,2.3,2.3,0,0,1,7.652.078,2.673,2.673,0,0,1,6.559-.146a1.841,1.841,0,0,1-.783-.615A1.5,1.5,0,0,1,5.5-1.648h.754a.98.98,0,0,0,.381.814,1.6,1.6,0,0,0,1.018.3,1.474,1.474,0,0,0,.91-.242.787.787,0,0,0,.316-.66.772.772,0,0,0-.293-.646A3.378,3.378,0,0,0,7.523-2.535ZM10.594,0V-5.687H12.2a2.584,2.584,0,0,1,1.313.328,2.219,2.219,0,0,1,.881.934,3.039,3.039,0,0,1,.314,1.391v.363a3.049,3.049,0,0,1-.311,1.41,2.184,2.184,0,0,1-.887.93A2.749,2.749,0,0,1,12.168,0Zm.75-5.074V-.613h.789a1.717,1.717,0,0,0,1.35-.54,2.229,2.229,0,0,0,.482-1.537v-.332a2.264,2.264,0,0,0-.455-1.507,1.619,1.619,0,0,0-1.291-.545Z" transform="translate(-13831.5 4682.857)" fill="#0f6daa"/>
    <path id="Path_1497" data-name="Path 1497" d="M2.848,0H2.121V-4.816L.664-4.281v-.656l2.07-.777h.113ZM8.016-1.91H8.8v.59H8.016V0H7.289V-1.32H4.7v-.426L7.246-5.687h.77Zm-2.5,0h1.77V-4.7L7.2-4.543Zm4.27-.941.289-2.836h2.914v.668h-2.3L10.52-3.469a1.835,1.835,0,0,1,.949-.246A1.569,1.569,0,0,1,12.7-3.2a2.013,2.013,0,0,1,.457,1.389,1.943,1.943,0,0,1-.475,1.385,1.73,1.73,0,0,1-1.326.506,1.8,1.8,0,0,1-1.23-.418A1.668,1.668,0,0,1,9.586-1.5h.684a1.148,1.148,0,0,0,.348.736,1.081,1.081,0,0,0,.742.248.975.975,0,0,0,.791-.344,1.437,1.437,0,0,0,.287-.949,1.319,1.319,0,0,0-.311-.916,1.056,1.056,0,0,0-.826-.346,1.191,1.191,0,0,0-.742.207l-.191.156Zm4.25,2.473a.453.453,0,0,1,.111-.312.424.424,0,0,1,.334-.125.437.437,0,0,1,.338.125.443.443,0,0,1,.115.313.419.419,0,0,1-.115.3.445.445,0,0,1-.338.121.432.432,0,0,1-.334-.121A.428.428,0,0,1,14.039-.379Zm5.582-2.047a3.305,3.305,0,0,1-.434,1.887,1.542,1.542,0,0,1-1.355.617,1.553,1.553,0,0,1-1.348-.6,3.137,3.137,0,0,1-.453-1.8v-.965a3.232,3.232,0,0,1,.434-1.863,1.554,1.554,0,0,1,1.359-.609,1.568,1.568,0,0,1,1.352.588,3.119,3.119,0,0,1,.445,1.814ZM18.9-3.414a2.648,2.648,0,0,0-.258-1.338.887.887,0,0,0-.816-.42.876.876,0,0,0-.809.418,2.585,2.585,0,0,0-.262,1.285v1.156a2.69,2.69,0,0,0,.268,1.361.886.886,0,0,0,.811.439.874.874,0,0,0,.795-.414,2.593,2.593,0,0,0,.271-1.3Zm5.215.988A3.305,3.305,0,0,1,23.68-.539a1.542,1.542,0,0,1-1.355.617,1.553,1.553,0,0,1-1.348-.6,3.137,3.137,0,0,1-.453-1.8v-.965a3.232,3.232,0,0,1,.434-1.863,1.554,1.554,0,0,1,1.359-.609,1.568,1.568,0,0,1,1.352.588,3.119,3.119,0,0,1,.445,1.814Zm-.723-.988a2.648,2.648,0,0,0-.258-1.338.887.887,0,0,0-.816-.42.876.876,0,0,0-.809.418,2.585,2.585,0,0,0-.262,1.285v1.156a2.69,2.69,0,0,0,.268,1.361.886.886,0,0,0,.811.439.874.874,0,0,0,.795-.414,2.593,2.593,0,0,0,.271-1.3Z" transform="translate(-13756.138 4682.857)" fill="#0f6daa"/>
    <path id="Path_1510" data-name="Path 1510" d="M2.746-2.3H1.41V0H.656V-5.687H2.539a2.229,2.229,0,0,1,1.479.438,1.574,1.574,0,0,1,.518,1.273,1.531,1.531,0,0,1-.287.926,1.714,1.714,0,0,1-.8.59L4.785-.047V0h-.8ZM1.41-2.914H2.563a1.3,1.3,0,0,0,.889-.29.979.979,0,0,0,.33-.775,1.031,1.031,0,0,0-.314-.81,1.332,1.332,0,0,0-.908-.286H1.41ZM7.227.078a1.847,1.847,0,0,1-1.4-.564A2.1,2.1,0,0,1,5.289-2v-.133a2.536,2.536,0,0,1,.24-1.123A1.874,1.874,0,0,1,6.2-4.025,1.689,1.689,0,0,1,7.137-4.3a1.583,1.583,0,0,1,1.281.543,2.351,2.351,0,0,1,.457,1.555v.3H6.012A1.5,1.5,0,0,0,6.377-.9a1.148,1.148,0,0,0,.889.385,1.259,1.259,0,0,0,.648-.156,1.629,1.629,0,0,0,.465-.414l.441.344A1.775,1.775,0,0,1,7.227.078Zm-.09-3.789a.964.964,0,0,0-.734.318,1.547,1.547,0,0,0-.367.893H8.152v-.055a1.376,1.376,0,0,0-.3-.854A.908.908,0,0,0,7.137-3.711ZM12.32,0a1.518,1.518,0,0,1-.1-.445,1.612,1.612,0,0,1-1.2.523A1.492,1.492,0,0,1,9.99-.275a1.144,1.144,0,0,1-.4-.9,1.2,1.2,0,0,1,.5-1.025A2.367,2.367,0,0,1,11.5-2.562h.7v-.332a.812.812,0,0,0-.227-.6.911.911,0,0,0-.668-.225,1.054,1.054,0,0,0-.648.2.576.576,0,0,0-.262.473H9.676A1,1,0,0,1,9.9-3.666a1.533,1.533,0,0,1,.609-.467,2.05,2.05,0,0,1,.846-.172,1.671,1.671,0,0,1,1.145.365,1.318,1.318,0,0,1,.43,1.006V-.988a2.378,2.378,0,0,0,.148.926V0Zm-1.2-.551a1.27,1.27,0,0,0,.645-.176,1.063,1.063,0,0,0,.441-.457v-.867h-.566q-1.328,0-1.328.777a.658.658,0,0,0,.227.531A.871.871,0,0,0,11.121-.551Zm2.766-1.6a2.476,2.476,0,0,1,.461-1.564A1.458,1.458,0,0,1,15.555-4.3,1.466,1.466,0,0,1,16.73-3.8V-6h.723V0h-.664l-.035-.453a1.472,1.472,0,0,1-1.207.531,1.444,1.444,0,0,1-1.2-.6,2.5,2.5,0,0,1-.463-1.57Zm.723.082a1.875,1.875,0,0,0,.3,1.125.96.96,0,0,0,.82.406,1.054,1.054,0,0,0,1-.617V-3.094a1.062,1.062,0,0,0-1-.6.964.964,0,0,0-.828.41A2.064,2.064,0,0,0,14.609-2.066Zm5.348,1.008.984-3.168h.773L20.016.652q-.395,1.055-1.254,1.055L18.625,1.7l-.27-.051V1.059l.2.016a.962.962,0,0,0,.572-.148,1.074,1.074,0,0,0,.338-.543l.16-.43-1.508-4.18H18.9ZM24.7,0V-3.668h-.668v-.559H24.7V-4.66a1.439,1.439,0,0,1,.363-1.051,1.372,1.372,0,0,1,1.027-.371,1.908,1.908,0,0,1,.5.066l-.039.582a2.075,2.075,0,0,0-.391-.035.705.705,0,0,0-.543.206.834.834,0,0,0-.191.59v.447h.9v.559h-.9V0Zm2.23-2.152A2.5,2.5,0,0,1,27.17-3.27a1.821,1.821,0,0,1,.68-.766,1.85,1.85,0,0,1,.994-.27,1.782,1.782,0,0,1,1.4.6,2.3,2.3,0,0,1,.533,1.59v.051a2.518,2.518,0,0,1-.236,1.107,1.794,1.794,0,0,1-.676.764,1.871,1.871,0,0,1-1.01.273,1.778,1.778,0,0,1-1.393-.6A2.288,2.288,0,0,1,26.926-2.1Zm.727.086a1.808,1.808,0,0,0,.326,1.129,1.044,1.044,0,0,0,.873.426,1.038,1.038,0,0,0,.875-.432,1.977,1.977,0,0,0,.324-1.209,1.805,1.805,0,0,0-.33-1.127,1.049,1.049,0,0,0-.877-.432,1.038,1.038,0,0,0-.863.426A1.963,1.963,0,0,0,27.652-2.066Zm6.07-1.512a2.166,2.166,0,0,0-.355-.027A.952.952,0,0,0,32.4-3V0H31.68V-4.227h.7l.012.488A1.125,1.125,0,0,1,33.4-4.3a.738.738,0,0,1,.32.055ZM37.23-2.227V0h-.75V-5.687h2.1a2.107,2.107,0,0,1,1.463.477,1.616,1.616,0,0,1,.529,1.262,1.594,1.594,0,0,1-.518,1.275,2.2,2.2,0,0,1-1.482.447Zm0-.613h1.348a1.347,1.347,0,0,0,.922-.284,1.037,1.037,0,0,0,.32-.82,1.072,1.072,0,0,0-.32-.814,1.262,1.262,0,0,0-.879-.317H37.23ZM42.2,0h-.723V-4.227H42.2Zm-.781-5.348a.431.431,0,0,1,.107-.3.4.4,0,0,1,.318-.121.41.41,0,0,1,.32.121.427.427,0,0,1,.109.3.413.413,0,0,1-.109.293.417.417,0,0,1-.32.117.411.411,0,0,1-.318-.117A.417.417,0,0,1,41.418-5.348ZM45.051-.512a1.041,1.041,0,0,0,.676-.234.825.825,0,0,0,.32-.586h.684a1.31,1.31,0,0,1-.25.691,1.647,1.647,0,0,1-.615.523,1.775,1.775,0,0,1-.814.2A1.741,1.741,0,0,1,43.678-.5a2.3,2.3,0,0,1-.51-1.576V-2.2a2.545,2.545,0,0,1,.227-1.1,1.726,1.726,0,0,1,.65-.746,1.848,1.848,0,0,1,1-.266,1.7,1.7,0,0,1,1.182.426,1.522,1.522,0,0,1,.5,1.105h-.684a1,1,0,0,0-.311-.674.966.966,0,0,0-.689-.264,1.011,1.011,0,0,0-.854.4,1.862,1.862,0,0,0-.3,1.146v.137a1.825,1.825,0,0,0,.3,1.125A1.016,1.016,0,0,0,45.051-.512Zm3.672-1.445-.453.473V0h-.723V-6h.723v3.629l.387-.465,1.316-1.391h.879L49.207-2.461,51.043,0H50.2ZM52.383,0H51.66V-4.227h.723ZM51.6-5.348a.431.431,0,0,1,.107-.3.4.4,0,0,1,.318-.121.41.41,0,0,1,.32.121.427.427,0,0,1,.109.3.413.413,0,0,1-.109.293.417.417,0,0,1-.32.117.411.411,0,0,1-.318-.117A.417.417,0,0,1,51.6-5.348Zm2.621,1.121.023.531A1.54,1.54,0,0,1,55.512-4.3q1.34,0,1.352,1.512V0h-.723V-2.8a.973.973,0,0,0-.209-.676.837.837,0,0,0-.639-.219,1.043,1.043,0,0,0-.617.188,1.273,1.273,0,0,0-.414.492V0h-.723V-4.227Zm3.559,2.078a2.484,2.484,0,0,1,.457-1.572A1.462,1.462,0,0,1,59.449-4.3a1.454,1.454,0,0,1,1.207.547l.035-.469h.66V-.1a1.719,1.719,0,0,1-.486,1.293,1.8,1.8,0,0,1-1.307.473,2.174,2.174,0,0,1-.895-.2A1.54,1.54,0,0,1,58,.934L58.371.5a1.413,1.413,0,0,0,1.137.574,1.107,1.107,0,0,0,.822-.3,1.135,1.135,0,0,0,.295-.836V-.422a1.485,1.485,0,0,1-1.184.5,1.444,1.444,0,0,1-1.2-.6A2.612,2.612,0,0,1,57.781-2.148Zm.727.082A1.9,1.9,0,0,0,58.8-.943a.952.952,0,0,0,.82.408,1.059,1.059,0,0,0,1-.621v-1.93a1.071,1.071,0,0,0-1-.605.961.961,0,0,0-.824.41A2.064,2.064,0,0,0,58.508-2.066Z" transform="translate(-13682.75 4682.857)" fill="#0f6daa"/>
    <path id="Path_1522" data-name="Path 1522" d="M1.887-1.793,2-1.043l.16-.676L3.281-5.687h.633l1.1,3.969.156.688L5.289-1.8l.883-3.891h.754L5.547,0H4.863L3.691-4.145,3.6-4.578l-.09.434L2.3,0H1.613L.238-5.687h.75ZM9.277.078a1.847,1.847,0,0,1-1.4-.564A2.1,2.1,0,0,1,7.34-2v-.133a2.536,2.536,0,0,1,.24-1.123,1.874,1.874,0,0,1,.672-.773A1.689,1.689,0,0,1,9.188-4.3a1.583,1.583,0,0,1,1.281.543,2.351,2.351,0,0,1,.457,1.555v.3H8.063A1.5,1.5,0,0,0,8.428-.9a1.148,1.148,0,0,0,.889.385,1.259,1.259,0,0,0,.648-.156,1.629,1.629,0,0,0,.465-.414l.441.344A1.775,1.775,0,0,1,9.277.078Zm-.09-3.789a.964.964,0,0,0-.734.318,1.547,1.547,0,0,0-.367.893H10.2v-.055a1.376,1.376,0,0,0-.3-.854A.908.908,0,0,0,9.188-3.711Zm2.4,1.563a2.476,2.476,0,0,1,.461-1.564A1.458,1.458,0,0,1,13.254-4.3,1.466,1.466,0,0,1,14.43-3.8V-6h.723V0h-.664l-.035-.453a1.472,1.472,0,0,1-1.207.531,1.444,1.444,0,0,1-1.2-.6,2.5,2.5,0,0,1-.463-1.57Zm.723.082a1.875,1.875,0,0,0,.3,1.125.96.96,0,0,0,.82.406,1.054,1.054,0,0,0,1-.617V-3.094a1.062,1.062,0,0,0-1-.6.964.964,0,0,0-.828.41A2.064,2.064,0,0,0,12.309-2.066Zm7.734-.469a3.527,3.527,0,0,1-1.4-.682,1.3,1.3,0,0,1-.439-1,1.376,1.376,0,0,1,.537-1.111,2.135,2.135,0,0,1,1.4-.439,2.33,2.33,0,0,1,1.045.227,1.718,1.718,0,0,1,.711.625,1.6,1.6,0,0,1,.252.871h-.754a1.04,1.04,0,0,0-.328-.813,1.334,1.334,0,0,0-.926-.3,1.366,1.366,0,0,0-.865.245.816.816,0,0,0-.311.679.734.734,0,0,0,.295.589,2.893,2.893,0,0,0,1,.44,4.658,4.658,0,0,1,1.109.44,1.683,1.683,0,0,1,.594.561,1.431,1.431,0,0,1,.193.754,1.329,1.329,0,0,1-.539,1.107,2.3,2.3,0,0,1-1.441.416,2.673,2.673,0,0,1-1.094-.225,1.841,1.841,0,0,1-.783-.615,1.5,1.5,0,0,1-.275-.887h.754a.98.98,0,0,0,.381.814,1.6,1.6,0,0,0,1.018.3,1.474,1.474,0,0,0,.91-.242.787.787,0,0,0,.316-.66.772.772,0,0,0-.293-.646A3.378,3.378,0,0,0,20.043-2.535ZM24.754.078a1.847,1.847,0,0,1-1.4-.564A2.1,2.1,0,0,1,22.816-2v-.133a2.536,2.536,0,0,1,.24-1.123,1.874,1.874,0,0,1,.672-.773,1.689,1.689,0,0,1,.936-.279,1.583,1.583,0,0,1,1.281.543A2.351,2.351,0,0,1,26.4-2.207v.3H23.539A1.5,1.5,0,0,0,23.9-.9a1.148,1.148,0,0,0,.889.385,1.259,1.259,0,0,0,.648-.156,1.629,1.629,0,0,0,.465-.414l.441.344A1.775,1.775,0,0,1,24.754.078Zm-.09-3.789a.964.964,0,0,0-.734.318,1.547,1.547,0,0,0-.367.893H25.68v-.055a1.376,1.376,0,0,0-.3-.854A.908.908,0,0,0,24.664-3.711Zm6.145,1.645a2.531,2.531,0,0,1-.441,1.555,1.415,1.415,0,0,1-1.2.59A1.55,1.55,0,0,1,27.961-.41V1.625h-.723V-4.227h.66l.035.469A1.489,1.489,0,0,1,29.16-4.3a1.441,1.441,0,0,1,1.205.574,2.558,2.558,0,0,1,.443,1.6Zm-.723-.082a1.867,1.867,0,0,0-.3-1.129.982.982,0,0,0-.836-.414,1.062,1.062,0,0,0-.984.582v2.02a1.064,1.064,0,0,0,.992.578.977.977,0,0,0,.826-.412A2.038,2.038,0,0,0,30.086-2.148ZM36.008,0h-.727V-4.816l-1.457.535v-.656l2.07-.777h.113Zm5.168-1.91h.789v.59h-.789V0h-.727V-1.32h-2.59v-.426l2.547-3.941h.77Zm-2.5,0h1.77V-4.7l-.086.156Zm9.484-.516A3.305,3.305,0,0,1,47.73-.539a1.542,1.542,0,0,1-1.355.617,1.553,1.553,0,0,1-1.348-.6,3.137,3.137,0,0,1-.453-1.8v-.965a3.232,3.232,0,0,1,.434-1.863,1.554,1.554,0,0,1,1.359-.609,1.568,1.568,0,0,1,1.352.588,3.119,3.119,0,0,1,.445,1.814Zm-.723-.988a2.648,2.648,0,0,0-.258-1.338.887.887,0,0,0-.816-.42.876.876,0,0,0-.809.418A2.585,2.585,0,0,0,45.3-3.469v1.156a2.69,2.69,0,0,0,.268,1.361.886.886,0,0,0,.811.439.874.874,0,0,0,.795-.414,2.593,2.593,0,0,0,.271-1.3Zm4.484-2.277v.613h-.133a1.9,1.9,0,0,0-1.344.5,2.081,2.081,0,0,0-.578,1.363A1.543,1.543,0,0,1,51.1-3.73a1.475,1.475,0,0,1,1.186.523,2.019,2.019,0,0,1,.443,1.352,2.013,2.013,0,0,1-.479,1.406,1.648,1.648,0,0,1-1.283.527,1.623,1.623,0,0,1-1.324-.627,2.485,2.485,0,0,1-.508-1.615v-.277a3.744,3.744,0,0,1,.67-2.4,2.46,2.46,0,0,1,1.994-.85Zm-.949,2.563a1.153,1.153,0,0,0-.684.223,1.16,1.16,0,0,0-.434.559v.266a1.866,1.866,0,0,0,.316,1.133.948.948,0,0,0,.789.43.919.919,0,0,0,.768-.359,1.491,1.491,0,0,0,.279-.941,1.492,1.492,0,0,0-.283-.947A.908.908,0,0,0,50.977-3.129Zm2.656,2.75a.453.453,0,0,1,.111-.312.424.424,0,0,1,.334-.125.437.437,0,0,1,.338.125.443.443,0,0,1,.115.313.419.419,0,0,1-.115.3.445.445,0,0,1-.338.121.432.432,0,0,1-.334-.121A.428.428,0,0,1,53.633-.379Zm0-3.449a.453.453,0,0,1,.111-.312.424.424,0,0,1,.334-.125.437.437,0,0,1,.338.125.443.443,0,0,1,.115.313.419.419,0,0,1-.115.3.445.445,0,0,1-.338.121.432.432,0,0,1-.334-.121A.428.428,0,0,1,53.637-3.828ZM56.57-3.2h.543a1.193,1.193,0,0,0,.8-.27.9.9,0,0,0,.293-.707.882.882,0,0,0-1-1,1.036,1.036,0,0,0-.748.268.936.936,0,0,0-.279.709h-.723a1.451,1.451,0,0,1,.494-1.123,1.8,1.8,0,0,1,1.256-.447,1.779,1.779,0,0,1,1.262.426,1.538,1.538,0,0,1,.457,1.184,1.248,1.248,0,0,1-.24.719,1.451,1.451,0,0,1-.654.52,1.4,1.4,0,0,1,.725.492,1.367,1.367,0,0,1,.256.84,1.551,1.551,0,0,1-.5,1.215,1.872,1.872,0,0,1-1.3.449,1.922,1.922,0,0,1-1.3-.434,1.438,1.438,0,0,1-.5-1.145h.727a.93.93,0,0,0,.293.719,1.114,1.114,0,0,0,.785.27,1.093,1.093,0,0,0,.8-.273A1.054,1.054,0,0,0,58.3-1.57a.956.956,0,0,0-.3-.762,1.328,1.328,0,0,0-.879-.273H56.57ZM63.063-1.91h.789v.59h-.789V0h-.727V-1.32h-2.59v-.426l2.547-3.941h.77Zm-2.5,0h1.77V-4.7l-.086.156ZM64.555-.379a.453.453,0,0,1,.111-.312A.424.424,0,0,1,65-.816a.437.437,0,0,1,.338.125.443.443,0,0,1,.115.313.419.419,0,0,1-.115.3A.445.445,0,0,1,65,.043a.432.432,0,0,1-.334-.121A.428.428,0,0,1,64.555-.379Zm0-3.449a.453.453,0,0,1,.111-.312A.424.424,0,0,1,65-4.266a.437.437,0,0,1,.338.125.443.443,0,0,1,.115.313.419.419,0,0,1-.115.3A.445.445,0,0,1,65-3.406a.432.432,0,0,1-.334-.121A.428.428,0,0,1,64.559-3.828ZM68.816,0H68.09V-4.816l-1.457.535v-.656l2.07-.777h.113ZM74.66,0H70.934V-.52L72.9-2.707a4.677,4.677,0,0,0,.6-.807,1.346,1.346,0,0,0,.166-.643,1.02,1.02,0,0,0-.27-.73.942.942,0,0,0-.719-.285,1.116,1.116,0,0,0-.838.307,1.171,1.171,0,0,0-.3.854h-.723a1.677,1.677,0,0,1,.506-1.27,1.875,1.875,0,0,1,1.354-.484,1.8,1.8,0,0,1,1.254.416A1.419,1.419,0,0,1,74.4-4.242a3.253,3.253,0,0,1-1.07,2L71.8-.59H74.66Zm6.473,0H77.406V-.52l1.969-2.187a4.677,4.677,0,0,0,.6-.807,1.346,1.346,0,0,0,.166-.643,1.02,1.02,0,0,0-.27-.73.942.942,0,0,0-.719-.285,1.116,1.116,0,0,0-.838.307,1.171,1.171,0,0,0-.3.854H77.3a1.677,1.677,0,0,1,.506-1.27,1.875,1.875,0,0,1,1.354-.484,1.8,1.8,0,0,1,1.254.416,1.419,1.419,0,0,1,.461,1.107,3.253,3.253,0,0,1-1.07,2L78.277-.59h2.855Zm4.332-2.426a3.305,3.305,0,0,1-.434,1.887,1.542,1.542,0,0,1-1.355.617,1.553,1.553,0,0,1-1.348-.6,3.137,3.137,0,0,1-.453-1.8v-.965a3.232,3.232,0,0,1,.434-1.863,1.554,1.554,0,0,1,1.359-.609,1.568,1.568,0,0,1,1.352.588,3.119,3.119,0,0,1,.445,1.814Zm-.723-.988a2.648,2.648,0,0,0-.258-1.338.887.887,0,0,0-.816-.42.876.876,0,0,0-.809.418A2.585,2.585,0,0,0,82.6-3.469v1.156a2.69,2.69,0,0,0,.268,1.361.886.886,0,0,0,.811.439.874.874,0,0,0,.795-.414,2.593,2.593,0,0,0,.271-1.3ZM90.117,0H86.391V-.52l1.969-2.187a4.677,4.677,0,0,0,.6-.807,1.346,1.346,0,0,0,.166-.643,1.02,1.02,0,0,0-.27-.73.942.942,0,0,0-.719-.285,1.116,1.116,0,0,0-.838.307,1.171,1.171,0,0,0-.3.854h-.723a1.677,1.677,0,0,1,.506-1.27,1.875,1.875,0,0,1,1.354-.484,1.8,1.8,0,0,1,1.254.416,1.419,1.419,0,0,1,.461,1.107,3.253,3.253,0,0,1-1.07,2L87.262-.59h2.855Zm4.492,0H90.883V-.52l1.969-2.187a4.677,4.677,0,0,0,.6-.807,1.346,1.346,0,0,0,.166-.643,1.02,1.02,0,0,0-.27-.73.942.942,0,0,0-.719-.285,1.116,1.116,0,0,0-.838.307,1.171,1.171,0,0,0-.3.854h-.723a1.677,1.677,0,0,1,.506-1.27,1.875,1.875,0,0,1,1.354-.484,1.8,1.8,0,0,1,1.254.416,1.419,1.419,0,0,1,.461,1.107,3.253,3.253,0,0,1-1.07,2L91.754-.59h2.855Zm6.938-5.687V-1.82A1.814,1.814,0,0,1,101.041-.5,2.038,2.038,0,0,1,99.68.07l-.2.008a2.129,2.129,0,0,1-1.488-.5,1.8,1.8,0,0,1-.562-1.387V-5.687h.742v3.852a1.3,1.3,0,0,0,.34.959,1.306,1.306,0,0,0,.969.342,1.315,1.315,0,0,0,.975-.34,1.3,1.3,0,0,0,.338-.957V-5.687Zm5.113.613h-1.828V0h-.746V-5.074h-1.824v-.613h4.4Zm4.918,3.27a2.093,2.093,0,0,1-.666,1.393,2.183,2.183,0,0,1-1.49.49,2,2,0,0,1-1.615-.723,2.907,2.907,0,0,1-.607-1.934v-.547a3.24,3.24,0,0,1,.283-1.395,2.115,2.115,0,0,1,.8-.924,2.235,2.235,0,0,1,1.2-.322,2.055,2.055,0,0,1,1.453.506,2.118,2.118,0,0,1,.637,1.4h-.754a1.634,1.634,0,0,0-.424-.987,1.282,1.282,0,0,0-.912-.306,1.342,1.342,0,0,0-1.127.532,2.441,2.441,0,0,0-.408,1.513v.551a2.509,2.509,0,0,0,.387,1.474,1.25,1.25,0,0,0,1.082.547,1.443,1.443,0,0,0,.959-.283,1.572,1.572,0,0,0,.443-.986Z" transform="translate(-13572.361 4680.741)" fill="#0f6daa"/>
    <path id="Path_1393" data-name="Path 1393" d="M2.848,0H2.121V-4.816L.664-4.281v-.656l2.07-.777h.113ZM7.8-5.691v.613H7.668a1.9,1.9,0,0,0-1.344.5,2.081,2.081,0,0,0-.578,1.363A1.543,1.543,0,0,1,6.973-3.73a1.475,1.475,0,0,1,1.186.523A2.019,2.019,0,0,1,8.6-1.855,2.013,2.013,0,0,1,8.123-.449,1.648,1.648,0,0,1,6.84.078,1.623,1.623,0,0,1,5.516-.549a2.485,2.485,0,0,1-.508-1.615v-.277a3.744,3.744,0,0,1,.67-2.4,2.46,2.46,0,0,1,1.994-.85ZM6.852-3.129a1.153,1.153,0,0,0-.684.223,1.16,1.16,0,0,0-.434.559v.266A1.866,1.866,0,0,0,6.051-.949a.948.948,0,0,0,.789.43.919.919,0,0,0,.768-.359,1.491,1.491,0,0,0,.279-.941A1.492,1.492,0,0,0,7.6-2.768.908.908,0,0,0,6.852-3.129Zm5.441-2.562v.613H12.16a1.9,1.9,0,0,0-1.344.5,2.081,2.081,0,0,0-.578,1.363,1.543,1.543,0,0,1,1.227-.516,1.475,1.475,0,0,1,1.186.523,2.019,2.019,0,0,1,.443,1.352,2.013,2.013,0,0,1-.479,1.406,1.648,1.648,0,0,1-1.283.527,1.623,1.623,0,0,1-1.324-.627A2.485,2.485,0,0,1,9.5-2.164v-.277a3.744,3.744,0,0,1,.67-2.4,2.46,2.46,0,0,1,1.994-.85Zm-.949,2.563a1.153,1.153,0,0,0-.684.223,1.16,1.16,0,0,0-.434.559v.266a1.866,1.866,0,0,0,.316,1.133.948.948,0,0,0,.789.43A.919.919,0,0,0,12.1-.879a1.491,1.491,0,0,0,.279-.941,1.492,1.492,0,0,0-.283-.947A.908.908,0,0,0,11.344-3.129ZM15-3.2h.543a1.193,1.193,0,0,0,.8-.27.9.9,0,0,0,.293-.707.882.882,0,0,0-1-1A1.036,1.036,0,0,0,14.9-4.9a.936.936,0,0,0-.279.709h-.723a1.451,1.451,0,0,1,.494-1.123,1.8,1.8,0,0,1,1.256-.447,1.779,1.779,0,0,1,1.262.426,1.538,1.538,0,0,1,.457,1.184,1.248,1.248,0,0,1-.24.719,1.451,1.451,0,0,1-.654.52,1.4,1.4,0,0,1,.725.492,1.367,1.367,0,0,1,.256.84,1.551,1.551,0,0,1-.5,1.215,1.872,1.872,0,0,1-1.3.449,1.922,1.922,0,0,1-1.3-.434,1.438,1.438,0,0,1-.5-1.145h.727a.93.93,0,0,0,.293.719,1.114,1.114,0,0,0,.785.27,1.093,1.093,0,0,0,.8-.273,1.054,1.054,0,0,0,.277-.785.956.956,0,0,0-.3-.762,1.328,1.328,0,0,0-.879-.273H15ZM20.816,0H20.09V-4.816l-1.457.535v-.656l2.07-.777h.113Zm3.168-3.2h.543a1.193,1.193,0,0,0,.8-.27.9.9,0,0,0,.293-.707.882.882,0,0,0-1-1,1.036,1.036,0,0,0-.748.268A.936.936,0,0,0,23.6-4.2h-.723a1.451,1.451,0,0,1,.494-1.123,1.8,1.8,0,0,1,1.256-.447,1.779,1.779,0,0,1,1.262.426,1.538,1.538,0,0,1,.457,1.184,1.248,1.248,0,0,1-.24.719,1.451,1.451,0,0,1-.654.52,1.4,1.4,0,0,1,.725.492,1.367,1.367,0,0,1,.256.84,1.551,1.551,0,0,1-.5,1.215,1.872,1.872,0,0,1-1.3.449,1.922,1.922,0,0,1-1.3-.434,1.438,1.438,0,0,1-.5-1.145h.727a.93.93,0,0,0,.293.719,1.114,1.114,0,0,0,.785.27,1.093,1.093,0,0,0,.8-.273,1.054,1.054,0,0,0,.277-.785.956.956,0,0,0-.3-.762,1.328,1.328,0,0,0-.879-.273h-.543Zm6.277-2.5v.613h-.133a1.9,1.9,0,0,0-1.344.5,2.081,2.081,0,0,0-.578,1.363,1.543,1.543,0,0,1,1.227-.516,1.475,1.475,0,0,1,1.186.523,2.019,2.019,0,0,1,.443,1.352,2.013,2.013,0,0,1-.479,1.406A1.648,1.648,0,0,1,29.3.078a1.623,1.623,0,0,1-1.324-.627,2.485,2.485,0,0,1-.508-1.615v-.277a3.744,3.744,0,0,1,.67-2.4,2.46,2.46,0,0,1,1.994-.85Zm-.949,2.563a1.153,1.153,0,0,0-.684.223,1.16,1.16,0,0,0-.434.559v.266a1.866,1.866,0,0,0,.316,1.133.948.948,0,0,0,.789.43.919.919,0,0,0,.768-.359,1.491,1.491,0,0,0,.279-.941,1.492,1.492,0,0,0-.283-.947A.908.908,0,0,0,29.313-3.129Zm5.441-2.562v.613h-.133a1.9,1.9,0,0,0-1.344.5A2.081,2.081,0,0,0,32.7-3.215a1.543,1.543,0,0,1,1.227-.516,1.475,1.475,0,0,1,1.186.523,2.019,2.019,0,0,1,.443,1.352,2.013,2.013,0,0,1-.479,1.406,1.648,1.648,0,0,1-1.283.527,1.623,1.623,0,0,1-1.324-.627,2.485,2.485,0,0,1-.508-1.615v-.277a3.744,3.744,0,0,1,.67-2.4,2.46,2.46,0,0,1,1.994-.85ZM33.8-3.129a1.153,1.153,0,0,0-.684.223,1.16,1.16,0,0,0-.434.559v.266A1.866,1.866,0,0,0,33-.949a.948.948,0,0,0,.789.43.919.919,0,0,0,.768-.359,1.491,1.491,0,0,0,.279-.941,1.492,1.492,0,0,0-.283-.947A.908.908,0,0,0,33.8-3.129Zm2.938.277.289-2.836h2.914v.668h-2.3l-.172,1.551a1.835,1.835,0,0,1,.949-.246,1.569,1.569,0,0,1,1.234.514,2.013,2.013,0,0,1,.457,1.389,1.943,1.943,0,0,1-.475,1.385,1.73,1.73,0,0,1-1.326.506,1.8,1.8,0,0,1-1.23-.418A1.668,1.668,0,0,1,36.539-1.5h.684a1.148,1.148,0,0,0,.348.736,1.081,1.081,0,0,0,.742.248A.975.975,0,0,0,39.1-.855a1.437,1.437,0,0,0,.287-.949,1.319,1.319,0,0,0-.311-.916,1.056,1.056,0,0,0-.826-.346,1.191,1.191,0,0,0-.742.207L37.32-2.7ZM41.953-3.2H42.5a1.193,1.193,0,0,0,.8-.27.9.9,0,0,0,.293-.707.882.882,0,0,0-1-1,1.036,1.036,0,0,0-.748.268.936.936,0,0,0-.279.709h-.723a1.451,1.451,0,0,1,.494-1.123A1.8,1.8,0,0,1,42.6-5.766a1.779,1.779,0,0,1,1.262.426,1.538,1.538,0,0,1,.457,1.184,1.248,1.248,0,0,1-.24.719,1.451,1.451,0,0,1-.654.52,1.4,1.4,0,0,1,.725.492,1.367,1.367,0,0,1,.256.84,1.551,1.551,0,0,1-.5,1.215,1.872,1.872,0,0,1-1.3.449,1.922,1.922,0,0,1-1.3-.434A1.438,1.438,0,0,1,40.8-1.5h.727a.93.93,0,0,0,.293.719,1.114,1.114,0,0,0,.785.27,1.093,1.093,0,0,0,.8-.273,1.054,1.054,0,0,0,.277-.785.956.956,0,0,0-.3-.762,1.328,1.328,0,0,0-.879-.273h-.543ZM45.582,0V-5.687h1.859a2.158,2.158,0,0,1,1.393.383A1.38,1.38,0,0,1,49.3-4.172a1.155,1.155,0,0,1-.227.705,1.469,1.469,0,0,1-.617.475,1.319,1.319,0,0,1,.729.49,1.407,1.407,0,0,1,.268.861,1.521,1.521,0,0,1-.5,1.2,2.052,2.052,0,0,1-1.4.438Zm.75-2.66V-.613H47.57A1.192,1.192,0,0,0,48.4-.885a.953.953,0,0,0,.3-.748q0-1.027-1.117-1.027Zm0-.6h1.133a1.187,1.187,0,0,0,.787-.247.827.827,0,0,0,.295-.669.813.813,0,0,0-.273-.683,1.343,1.343,0,0,0-.832-.213H46.332ZM51.316-.613h2.7V0H50.563V-5.687h.754Zm3.7-2.238L55.3-5.687h2.914v.668h-2.3l-.172,1.551a1.835,1.835,0,0,1,.949-.246,1.569,1.569,0,0,1,1.234.514,2.013,2.013,0,0,1,.457,1.389,1.943,1.943,0,0,1-.475,1.385,1.73,1.73,0,0,1-1.326.506,1.8,1.8,0,0,1-1.23-.418A1.668,1.668,0,0,1,54.809-1.5h.684a1.148,1.148,0,0,0,.348.736,1.081,1.081,0,0,0,.742.248.975.975,0,0,0,.791-.344A1.437,1.437,0,0,0,57.66-1.8a1.319,1.319,0,0,0-.311-.916,1.056,1.056,0,0,0-.826-.346,1.191,1.191,0,0,0-.742.207L55.59-2.7Zm5.574,1.059.109.75.16-.676L61.98-5.687h.633l1.1,3.969.156.688.121-.766.883-3.891h.754L64.246,0h-.684L62.391-4.145l-.09-.434-.09.434L61,0h-.684L58.938-5.687h.75Zm9.086-.836H67.207V-.613H70.07V0H66.457V-5.687h3.574v.613H67.207v1.832h2.465Zm4.547,0H71.754V-.613h2.863V0H71V-5.687h3.574v.613H71.754v1.832h2.465Zm4.711.2A3.305,3.305,0,0,1,78.5-.539a1.542,1.542,0,0,1-1.355.617,1.553,1.553,0,0,1-1.348-.6,3.137,3.137,0,0,1-.453-1.8v-.965a3.232,3.232,0,0,1,.434-1.863,1.554,1.554,0,0,1,1.359-.609,1.568,1.568,0,0,1,1.352.588,3.119,3.119,0,0,1,.445,1.814Zm-.723-.988a2.648,2.648,0,0,0-.258-1.338.887.887,0,0,0-.816-.42.876.876,0,0,0-.809.418,2.585,2.585,0,0,0-.262,1.285v1.156A2.69,2.69,0,0,0,76.33-.951a.886.886,0,0,0,.811.439.874.874,0,0,0,.795-.414,2.593,2.593,0,0,0,.271-1.3Zm5.766-1.66H82.145V0H81.4V-5.074H79.574v-.613h4.4ZM89.188,0h-.754L85.57-4.383V0h-.754V-5.687h.754l2.871,4.4v-4.4h.746Zm3.418-2.3H91.27V0h-.754V-5.687H92.4a2.229,2.229,0,0,1,1.479.438,1.574,1.574,0,0,1,.518,1.273,1.531,1.531,0,0,1-.287.926,1.714,1.714,0,0,1-.8.59L94.645-.047V0h-.8ZM91.27-2.914h1.152a1.3,1.3,0,0,0,.889-.29.979.979,0,0,0,.33-.775,1.031,1.031,0,0,0-.314-.81,1.332,1.332,0,0,0-.908-.286H91.27Z" transform="translate(-14583.268 4682.857)" fill="#0f6daa"/>
    <path id="Path_1413" data-name="Path 1413" d="M5.031,0H4.277V-2.629H1.41V0H.66V-5.687h.75v2.445H4.277V-5.687h.754ZM6.059-2.152A2.5,2.5,0,0,1,6.3-3.27a1.821,1.821,0,0,1,.68-.766,1.85,1.85,0,0,1,.994-.27,1.782,1.782,0,0,1,1.4.6,2.3,2.3,0,0,1,.533,1.59v.051A2.518,2.518,0,0,1,9.67-.959,1.794,1.794,0,0,1,8.994-.2a1.871,1.871,0,0,1-1.01.273,1.778,1.778,0,0,1-1.393-.6A2.288,2.288,0,0,1,6.059-2.1Zm.727.086A1.808,1.808,0,0,0,7.111-.937a1.044,1.044,0,0,0,.873.426,1.038,1.038,0,0,0,.875-.432,1.977,1.977,0,0,0,.324-1.209,1.805,1.805,0,0,0-.33-1.127,1.049,1.049,0,0,0-.877-.432,1.038,1.038,0,0,0-.863.426A1.963,1.963,0,0,0,6.785-2.066Zm4.707-2.16.02.469A1.561,1.561,0,0,1,12.766-4.3a1.208,1.208,0,0,1,1.207.68,1.6,1.6,0,0,1,.549-.492,1.621,1.621,0,0,1,.8-.187q1.391,0,1.414,1.473V0h-.723V-2.789a.97.97,0,0,0-.207-.678.912.912,0,0,0-.7-.225.958.958,0,0,0-.668.24.975.975,0,0,0-.309.646V0h-.727V-2.77a.806.806,0,0,0-.9-.922.967.967,0,0,0-.973.605V0h-.723V-4.227Zm8.086,4.3a1.847,1.847,0,0,1-1.4-.564A2.1,2.1,0,0,1,17.641-2v-.133a2.536,2.536,0,0,1,.24-1.123,1.874,1.874,0,0,1,.672-.773,1.689,1.689,0,0,1,.936-.279,1.583,1.583,0,0,1,1.281.543,2.351,2.351,0,0,1,.457,1.555v.3H18.363A1.5,1.5,0,0,0,18.729-.9a1.148,1.148,0,0,0,.889.385,1.259,1.259,0,0,0,.648-.156,1.629,1.629,0,0,0,.465-.414l.441.344A1.775,1.775,0,0,1,19.578.078Zm-.09-3.789a.964.964,0,0,0-.734.318,1.547,1.547,0,0,0-.367.893H20.5v-.055a1.376,1.376,0,0,0-.3-.854A.908.908,0,0,0,19.488-3.711Zm2.719,4.2h-.621l2.375-6.176h.617ZM29.848-2.66A3.518,3.518,0,0,1,29.566-1.2a2.13,2.13,0,0,1-.8.951,2.192,2.192,0,0,1-1.2.328,2.174,2.174,0,0,1-1.191-.33,2.181,2.181,0,0,1-.807-.941,3.376,3.376,0,0,1-.295-1.416v-.41a3.477,3.477,0,0,1,.285-1.449,2.174,2.174,0,0,1,.807-.963,2.164,2.164,0,0,1,1.193-.334,2.2,2.2,0,0,1,1.205.33,2.126,2.126,0,0,1,.8.957,3.535,3.535,0,0,1,.281,1.459ZM29.1-3.027A2.55,2.55,0,0,0,28.7-4.58a1.34,1.34,0,0,0-1.137-.541,1.326,1.326,0,0,0-1.119.541,2.5,2.5,0,0,0-.42,1.5v.418a2.554,2.554,0,0,0,.412,1.541,1.331,1.331,0,0,0,1.135.561,1.326,1.326,0,0,0,1.125-.529,2.539,2.539,0,0,0,.41-1.518ZM31.215,0V-3.668h-.668v-.559h.668V-4.66a1.439,1.439,0,0,1,.363-1.051,1.372,1.372,0,0,1,1.027-.371,1.908,1.908,0,0,1,.5.066l-.039.582a2.075,2.075,0,0,0-.391-.035.705.705,0,0,0-.543.206.834.834,0,0,0-.191.59v.447H33.5v-.359a1.468,1.468,0,0,1,.4-1.1,1.568,1.568,0,0,1,1.143-.395,3.458,3.458,0,0,1,1.105.237l-.121.607a2.512,2.512,0,0,0-.934-.2.913.913,0,0,0-.67.208.865.865,0,0,0-.205.631v.368h.867v.559h-.867V0H33.5V-3.668H31.938V0Zm5.293,0h-.723V-4.227h.723Zm2.875-.512a1.041,1.041,0,0,0,.676-.234.825.825,0,0,0,.32-.586h.684a1.31,1.31,0,0,1-.25.691,1.647,1.647,0,0,1-.615.523,1.775,1.775,0,0,1-.814.2A1.741,1.741,0,0,1,38.01-.5a2.3,2.3,0,0,1-.51-1.576V-2.2a2.545,2.545,0,0,1,.227-1.1,1.726,1.726,0,0,1,.65-.746,1.848,1.848,0,0,1,1-.266,1.7,1.7,0,0,1,1.182.426,1.522,1.522,0,0,1,.5,1.105h-.684a1,1,0,0,0-.311-.674.966.966,0,0,0-.689-.264,1.011,1.011,0,0,0-.854.4,1.862,1.862,0,0,0-.3,1.146v.137a1.825,1.825,0,0,0,.3,1.125A1.016,1.016,0,0,0,39.383-.512Zm4.246.59a1.847,1.847,0,0,1-1.4-.564A2.1,2.1,0,0,1,41.691-2v-.133a2.536,2.536,0,0,1,.24-1.123,1.874,1.874,0,0,1,.672-.773,1.689,1.689,0,0,1,.936-.279,1.583,1.583,0,0,1,1.281.543,2.351,2.351,0,0,1,.457,1.555v.3H42.414A1.5,1.5,0,0,0,42.779-.9a1.148,1.148,0,0,0,.889.385,1.259,1.259,0,0,0,.648-.156,1.629,1.629,0,0,0,.465-.414l.441.344A1.775,1.775,0,0,1,43.629.078Zm-.09-3.789a.964.964,0,0,0-.734.318,1.547,1.547,0,0,0-.367.893h2.117v-.055a1.376,1.376,0,0,0-.3-.854A.908.908,0,0,0,43.539-3.711ZM48.207,0V-5.687h1.605a2.584,2.584,0,0,1,1.313.328,2.219,2.219,0,0,1,.881.934,3.039,3.039,0,0,1,.314,1.391v.363a3.049,3.049,0,0,1-.311,1.41,2.184,2.184,0,0,1-.887.93A2.749,2.749,0,0,1,49.781,0Zm.75-5.074V-.613h.789a1.717,1.717,0,0,0,1.35-.54,2.229,2.229,0,0,0,.482-1.537v-.332a2.264,2.264,0,0,0-.455-1.507,1.619,1.619,0,0,0-1.291-.545ZM55.094.078a1.847,1.847,0,0,1-1.4-.564A2.1,2.1,0,0,1,53.156-2v-.133a2.536,2.536,0,0,1,.24-1.123,1.874,1.874,0,0,1,.672-.773A1.689,1.689,0,0,1,55-4.3a1.583,1.583,0,0,1,1.281.543,2.351,2.351,0,0,1,.457,1.555v.3H53.879A1.5,1.5,0,0,0,54.244-.9a1.148,1.148,0,0,0,.889.385,1.259,1.259,0,0,0,.648-.156,1.629,1.629,0,0,0,.465-.414l.441.344A1.775,1.775,0,0,1,55.094.078ZM55-3.711a.964.964,0,0,0-.734.318A1.547,1.547,0,0,0,53.9-2.5H56.02v-.055a1.376,1.376,0,0,0-.3-.854A.908.908,0,0,0,55-3.711ZM58.363,0h-.723V-6h.723ZM60.3,0h-.723V-4.227H60.3Zm-.781-5.348a.431.431,0,0,1,.107-.3.4.4,0,0,1,.318-.121.41.41,0,0,1,.32.121.427.427,0,0,1,.109.3.413.413,0,0,1-.109.293.417.417,0,0,1-.32.117.411.411,0,0,1-.318-.117A.417.417,0,0,1,59.523-5.348ZM62.855-.98,63.9-4.227h.738L63.125,0h-.551L61.043-4.227h.738ZM67.039.078a1.847,1.847,0,0,1-1.4-.564A2.1,2.1,0,0,1,65.1-2v-.133a2.536,2.536,0,0,1,.24-1.123,1.874,1.874,0,0,1,.672-.773,1.689,1.689,0,0,1,.936-.279,1.583,1.583,0,0,1,1.281.543,2.351,2.351,0,0,1,.457,1.555v.3H65.824A1.5,1.5,0,0,0,66.189-.9a1.148,1.148,0,0,0,.889.385,1.259,1.259,0,0,0,.648-.156,1.629,1.629,0,0,0,.465-.414l.441.344A1.775,1.775,0,0,1,67.039.078Zm-.09-3.789a.964.964,0,0,0-.734.318,1.547,1.547,0,0,0-.367.893h2.117v-.055a1.376,1.376,0,0,0-.3-.854A.908.908,0,0,0,66.949-3.711Zm4.617.133a2.166,2.166,0,0,0-.355-.027A.952.952,0,0,0,70.246-3V0h-.723V-4.227h.7l.012.488A1.125,1.125,0,0,1,71.246-4.3a.738.738,0,0,1,.32.055Zm2.117,2.52.984-3.168h.773L73.742.652q-.395,1.055-1.254,1.055L72.352,1.7l-.27-.051V1.059l.2.016A.962.962,0,0,0,72.85.926a1.074,1.074,0,0,0,.338-.543l.16-.43L71.84-4.227h.789Z" transform="translate(-14421.768 4682.857)" fill="#0f6daa"/>
  </g>
</svg>
