<svg xmlns="http://www.w3.org/2000/svg" xmlns:xlink="http://www.w3.org/1999/xlink" width="549.5" height="229" viewBox="0 0 549.5 229">
  <defs>
    <clipPath id="clip-path">
      <path id="Path_125" data-name="Path 125" d="M0,0H11.75V11.75H0Z" fill="none"/>
    </clipPath>
    <clipPath id="clip-path-2">
      <rect id="Rectangle_46" data-name="Rectangle 46" width="377.228" height="157.915" fill="none"/>
    </clipPath>
    <clipPath id="clip-path-4">
      <rect id="Rectangle_49" data-name="Rectangle 49" width="226.957" height="27.672" transform="translate(0 0)" fill="#fff" stroke="rgba(165,170,188,0.5)" stroke-width="1"/>
    </clipPath>
  </defs>
  <g id="Group_1046" data-name="Group 1046" transform="translate(-211 -402)">
    <path id="Path_1151" data-name="Path 1151" d="M5,0H544a5,5,0,0,1,5,5V224a5,5,0,0,1-5,5H5a5,5,0,0,1-5-5V5A5,5,0,0,1,5,0Z" transform="translate(211 402)" fill="#fff"/>
    <path id="Path_1174" data-name="Path 1174" d="M6.4-3.369a4.362,4.362,0,0,1-.361,1.833A2.732,2.732,0,0,1,5-.325,2.841,2.841,0,0,1,3.457.1,2.847,2.847,0,0,1,1.917-.325a2.774,2.774,0,0,1-1.045-1.2A4.225,4.225,0,0,1,.5-3.33v-.4A4.324,4.324,0,0,1,.867-5.566a2.771,2.771,0,0,1,1.04-1.218,2.832,2.832,0,0,1,1.541-.422,2.857,2.857,0,0,1,1.541.417,2.736,2.736,0,0,1,1.038,1.2A4.315,4.315,0,0,1,6.4-3.765ZM5.161-3.74a3.108,3.108,0,0,0-.447-1.812,1.462,1.462,0,0,0-1.267-.63,1.457,1.457,0,0,0-1.252.627,3.048,3.048,0,0,0-.461,1.775v.41A3.084,3.084,0,0,0,2.19-1.558a1.47,1.47,0,0,0,1.267.64,1.453,1.453,0,0,0,1.262-.625,3.151,3.151,0,0,0,.442-1.826Zm7.891,1.426a2.567,2.567,0,0,1-.84,1.775A2.863,2.863,0,0,1,10.264.1a2.772,2.772,0,0,1-1.5-.4,2.644,2.644,0,0,1-1-1.145A4.132,4.132,0,0,1,7.4-3.174v-.664A4.162,4.162,0,0,1,7.759-5.61,2.686,2.686,0,0,1,8.782-6.792a2.853,2.853,0,0,1,1.541-.415,2.748,2.748,0,0,1,1.895.637,2.663,2.663,0,0,1,.835,1.8h-1.23a1.756,1.756,0,0,0-.447-1.106,1.477,1.477,0,0,0-1.052-.339,1.442,1.442,0,0,0-1.238.589,2.943,2.943,0,0,0-.442,1.728v.63A3.122,3.122,0,0,0,9.055-1.5,1.369,1.369,0,0,0,10.264-.9a1.6,1.6,0,0,0,1.094-.327,1.706,1.706,0,0,0,.464-1.089ZM18.745,0h-4.78V-.815L16.333-3.4a5.9,5.9,0,0,0,.73-.955,1.547,1.547,0,0,0,.217-.769,1.168,1.168,0,0,0-.286-.82.991.991,0,0,0-.769-.312,1.142,1.142,0,0,0-.894.352,1.383,1.383,0,0,0-.317.962H13.828a2.325,2.325,0,0,1,.3-1.169,2.034,2.034,0,0,1,.845-.808,2.689,2.689,0,0,1,1.267-.288,2.4,2.4,0,0,1,1.633.52,1.805,1.805,0,0,1,.6,1.438,2.44,2.44,0,0,1-.3,1.116,6.344,6.344,0,0,1-.984,1.326L15.444-.947h3.3Zm4.81-1.831a.858.858,0,0,0-.33-.723,3.965,3.965,0,0,0-1.189-.513,5.741,5.741,0,0,1-1.367-.576A1.824,1.824,0,0,1,19.7-5.234a1.732,1.732,0,0,1,.7-1.416,2.836,2.836,0,0,1,1.819-.557,3.072,3.072,0,0,1,1.323.273,2.172,2.172,0,0,1,.913.779,2,2,0,0,1,.332,1.121h-1.23a1.114,1.114,0,0,0-.349-.872,1.441,1.441,0,0,0-1-.315,1.5,1.5,0,0,0-.94.259.862.862,0,0,0-.334.723.78.78,0,0,0,.361.652,4.163,4.163,0,0,0,1.191.508,5.48,5.48,0,0,1,1.333.562,2.12,2.12,0,0,1,.737.723,1.882,1.882,0,0,1,.234.955,1.692,1.692,0,0,1-.681,1.414A2.955,2.955,0,0,1,22.261.1a3.473,3.473,0,0,1-1.418-.286,2.383,2.383,0,0,1-1.006-.789,1.965,1.965,0,0,1-.359-1.172h1.235a1.15,1.15,0,0,0,.4.938,1.753,1.753,0,0,0,1.147.332,1.523,1.523,0,0,0,.969-.261A.843.843,0,0,0,23.555-1.831Zm4.507-.713H25.5V-3.5h2.563ZM33.6-2.993a3.877,3.877,0,0,1-.574,2.312A2.026,2.026,0,0,1,31.279.1a2.053,2.053,0,0,1-1.736-.759,3.713,3.713,0,0,1-.6-2.249v-1.23a3.819,3.819,0,0,1,.574-2.3,2.045,2.045,0,0,1,1.75-.767,2.057,2.057,0,0,1,1.741.747A3.7,3.7,0,0,1,33.6-4.224ZM32.412-4.321a3.008,3.008,0,0,0-.273-1.467.933.933,0,0,0-.869-.466.933.933,0,0,0-.854.442,2.78,2.78,0,0,0-.288,1.379v1.611a3.086,3.086,0,0,0,.278,1.484.935.935,0,0,0,.874.488.918.918,0,0,0,.845-.452,2.9,2.9,0,0,0,.288-1.414Zm6.87,1.328a3.877,3.877,0,0,1-.574,2.312A2.026,2.026,0,0,1,36.963.1a2.053,2.053,0,0,1-1.736-.759,3.713,3.713,0,0,1-.6-2.249v-1.23a3.819,3.819,0,0,1,.574-2.3,2.045,2.045,0,0,1,1.75-.767,2.057,2.057,0,0,1,1.741.747,3.7,3.7,0,0,1,.588,2.236ZM38.1-4.321a3.008,3.008,0,0,0-.273-1.467.933.933,0,0,0-.869-.466.933.933,0,0,0-.854.442,2.78,2.78,0,0,0-.288,1.379v1.611a3.086,3.086,0,0,0,.278,1.484.935.935,0,0,0,.874.488.918.918,0,0,0,.845-.452A2.9,2.9,0,0,0,38.1-2.715ZM41.7-4.1h.723a1.293,1.293,0,0,0,.867-.283,1.01,1.01,0,0,0,.32-.806,1.1,1.1,0,0,0-.266-.789,1.071,1.071,0,0,0-.813-.281,1.133,1.133,0,0,0-.786.276.922.922,0,0,0-.308.72H40.254a1.8,1.8,0,0,1,.291-1,1.952,1.952,0,0,1,.811-.7,2.64,2.64,0,0,1,1.165-.251,2.445,2.445,0,0,1,1.672.535A1.876,1.876,0,0,1,44.8-5.186a1.511,1.511,0,0,1-.305.9,1.914,1.914,0,0,1-.789.637,1.744,1.744,0,0,1,.891.63A1.725,1.725,0,0,1,44.9-1.992a1.909,1.909,0,0,1-.657,1.523A2.55,2.55,0,0,1,42.52.1a2.531,2.531,0,0,1-1.68-.547A1.8,1.8,0,0,1,40.186-1.9h1.187a.993.993,0,0,0,.315.762,1.194,1.194,0,0,0,.847.293,1.232,1.232,0,0,0,.869-.293,1.1,1.1,0,0,0,.317-.85,1.11,1.11,0,0,0-.332-.864,1.42,1.42,0,0,0-.986-.3h-.7Zm8.789-1.138a1.653,1.653,0,0,1-.269.93,1.863,1.863,0,0,1-.732.642,2.029,2.029,0,0,1,.857.708,1.786,1.786,0,0,1,.3,1.016,1.865,1.865,0,0,1-.635,1.487A2.491,2.491,0,0,1,48.325.1a2.5,2.5,0,0,1-1.7-.552,1.864,1.864,0,0,1-.637-1.484,1.807,1.807,0,0,1,.3-1.025,1.945,1.945,0,0,1,.85-.7,1.852,1.852,0,0,1-.725-.642,1.664,1.664,0,0,1-.266-.93,1.849,1.849,0,0,1,.586-1.44,2.264,2.264,0,0,1,1.582-.532,2.271,2.271,0,0,1,1.587.532A1.849,1.849,0,0,1,50.493-5.234ZM49.463-2a1.172,1.172,0,0,0-.315-.852,1.107,1.107,0,0,0-.833-.325,1.1,1.1,0,0,0-.828.322,1.181,1.181,0,0,0-.31.854,1.144,1.144,0,0,0,.305.835,1.123,1.123,0,0,0,.842.313,1.127,1.127,0,0,0,.837-.3A1.147,1.147,0,0,0,49.463-2ZM49.312-5.19a1.1,1.1,0,0,0-.269-.764.921.921,0,0,0-.723-.3.929.929,0,0,0-.718.286,1.1,1.1,0,0,0-.264.779,1.1,1.1,0,0,0,.266.776.933.933,0,0,0,.72.288.933.933,0,0,0,.72-.288A1.1,1.1,0,0,0,49.312-5.19ZM52.49-1.25A.678.678,0,0,1,53-1.062a.653.653,0,0,1,.181.471A.63.63,0,0,1,53-.129a.688.688,0,0,1-.513.183.69.69,0,0,1-.5-.181A.619.619,0,0,1,51.8-.591a.653.653,0,0,1,.181-.471A.671.671,0,0,1,52.49-1.25Zm0-4.146A.678.678,0,0,1,53-5.208a.653.653,0,0,1,.181.471A.63.63,0,0,1,53-4.275a.688.688,0,0,1-.513.183.69.69,0,0,1-.5-.181.619.619,0,0,1-.186-.464.653.653,0,0,1,.181-.471A.671.671,0,0,1,52.49-5.4Zm9.385-.718H59.658V0H58.433V-6.113h-2.2v-1h5.64Zm1.987,1.406a1.857,1.857,0,0,1,1.47-.674q1.689,0,1.714,1.929V0H65.859V-3.408a1.043,1.043,0,0,0-.237-.774.968.968,0,0,0-.7-.227,1.143,1.143,0,0,0-1.064.635V0H62.676V-7.5h1.187ZM70.571.1a2.455,2.455,0,0,1-1.829-.71,2.577,2.577,0,0,1-.7-1.892v-.146a3.17,3.17,0,0,1,.305-1.414,2.323,2.323,0,0,1,.857-.969,2.265,2.265,0,0,1,1.23-.347,2.074,2.074,0,0,1,1.667.688,2.911,2.911,0,0,1,.588,1.948v.479H69.238a1.587,1.587,0,0,0,.437,1.035,1.312,1.312,0,0,0,.964.381,1.607,1.607,0,0,0,1.328-.659l.64.61a2.136,2.136,0,0,1-.847.735A2.652,2.652,0,0,1,70.571.1ZM70.43-4.429a1,1,0,0,0-.789.342,1.772,1.772,0,0,0-.383.952h2.261v-.088a1.442,1.442,0,0,0-.317-.9A.992.992,0,0,0,70.43-4.429ZM77.2-5.283l.034.61a1.9,1.9,0,0,1,1.538-.708q1.65,0,1.68,1.89V0H79.268V-3.423a1.088,1.088,0,0,0-.217-.745.914.914,0,0,0-.71-.242,1.143,1.143,0,0,0-1.069.649V0H76.084V-5.283ZM84.863-.518A1.84,1.84,0,0,1,83.379.1a1.64,1.64,0,0,1-1.3-.5,2.14,2.14,0,0,1-.442-1.455V-5.283h1.187v3.408q0,1.006.835,1.006a1.173,1.173,0,0,0,1.167-.62V-5.283h1.187V0H84.893Zm3.472-4.766.034.552a1.9,1.9,0,0,1,1.523-.649,1.46,1.46,0,0,1,1.45.811,1.874,1.874,0,0,1,1.621-.811,1.647,1.647,0,0,1,1.3.483A2.128,2.128,0,0,1,94.7-3.472V0H93.516V-3.437a1.051,1.051,0,0,0-.22-.737.962.962,0,0,0-.728-.234.988.988,0,0,0-.662.217,1.146,1.146,0,0,0-.359.569l0,3.623H90.366V-3.477a.846.846,0,0,0-.952-.933,1.045,1.045,0,0,0-1.011.581V0H87.217V-5.283Zm12.222,2.7a3.174,3.174,0,0,1-.549,1.958A1.789,1.789,0,0,1,98.5.1a1.723,1.723,0,0,1-1.445-.669L96.992,0H95.918V-7.5H97.1v2.725a1.717,1.717,0,0,1,1.382-.605A1.81,1.81,0,0,1,100-4.663a3.226,3.226,0,0,1,.552,2.007Zm-1.187-.1a2.243,2.243,0,0,0-.3-1.289,1.008,1.008,0,0,0-.879-.43,1.1,1.1,0,0,0-1.084.674v2.178A1.113,1.113,0,0,0,98.2-.869a1,1,0,0,0,.859-.415,2.173,2.173,0,0,0,.313-1.255ZM103.877.1a2.455,2.455,0,0,1-1.829-.71,2.577,2.577,0,0,1-.7-1.892v-.146a3.17,3.17,0,0,1,.305-1.414,2.323,2.323,0,0,1,.857-.969,2.265,2.265,0,0,1,1.23-.347,2.074,2.074,0,0,1,1.667.688A2.911,2.911,0,0,1,106-2.744v.479h-3.452a1.587,1.587,0,0,0,.437,1.035,1.312,1.312,0,0,0,.964.381,1.607,1.607,0,0,0,1.328-.659l.64.61a2.136,2.136,0,0,1-.847.735A2.652,2.652,0,0,1,103.877.1Zm-.142-4.526a1,1,0,0,0-.789.342,1.772,1.772,0,0,0-.383.952h2.261v-.088a1.442,1.442,0,0,0-.317-.9A.992.992,0,0,0,103.735-4.429Zm5.947.229a2.936,2.936,0,0,0-.483-.039,1.088,1.088,0,0,0-1.1.625V0h-1.187V-5.283h1.133l.029.591a1.337,1.337,0,0,1,1.191-.688,1.111,1.111,0,0,1,.42.068ZM112.7-2.69a3.115,3.115,0,0,1,.308-1.4,2.247,2.247,0,0,1,.864-.957,2.435,2.435,0,0,1,1.279-.334,2.308,2.308,0,0,1,1.736.688,2.708,2.708,0,0,1,.72,1.826l0,.278a3.143,3.143,0,0,1-.3,1.4,2.22,2.22,0,0,1-.859.952A2.453,2.453,0,0,1,115.161.1a2.292,2.292,0,0,1-1.79-.745,2.852,2.852,0,0,1-.671-1.985Zm1.187.1a2.129,2.129,0,0,0,.337,1.277,1.1,1.1,0,0,0,.938.461,1.083,1.083,0,0,0,.935-.469,2.351,2.351,0,0,0,.334-1.372,2.1,2.1,0,0,0-.344-1.27,1.1,1.1,0,0,0-.935-.469,1.089,1.089,0,0,0-.923.461A2.307,2.307,0,0,0,113.887-2.588ZM119.033,0V-4.4h-.806v-.879h.806v-.483a1.815,1.815,0,0,1,.488-1.357,1.87,1.87,0,0,1,1.367-.479,2.742,2.742,0,0,1,.664.088l-.029.928a2.337,2.337,0,0,0-.454-.039.762.762,0,0,0-.85.874v.469h1.074V-4.4H120.22V0Zm5.4-2.69a3.115,3.115,0,0,1,.308-1.4,2.247,2.247,0,0,1,.864-.957,2.435,2.435,0,0,1,1.279-.334,2.308,2.308,0,0,1,1.736.688,2.708,2.708,0,0,1,.72,1.826l0,.278a3.143,3.143,0,0,1-.3,1.4,2.22,2.22,0,0,1-.859.952A2.453,2.453,0,0,1,126.89.1a2.292,2.292,0,0,1-1.79-.745,2.852,2.852,0,0,1-.671-1.985Zm1.187.1a2.129,2.129,0,0,0,.337,1.277,1.1,1.1,0,0,0,.938.461,1.083,1.083,0,0,0,.935-.469,2.351,2.351,0,0,0,.334-1.372,2.1,2.1,0,0,0-.344-1.27,1.1,1.1,0,0,0-.935-.469,1.089,1.089,0,0,0-.923.461A2.307,2.307,0,0,0,125.615-2.588Zm7.93,2.07A1.84,1.84,0,0,1,132.061.1a1.64,1.64,0,0,1-1.3-.5,2.139,2.139,0,0,1-.442-1.455V-5.283H131.5v3.408q0,1.006.835,1.006a1.173,1.173,0,0,0,1.167-.62V-5.283h1.187V0h-1.118Zm3.843-6.05v1.284h.933V-4.4h-.933v2.949a.649.649,0,0,0,.12.437.555.555,0,0,0,.427.134,1.828,1.828,0,0,0,.415-.049v.918a2.922,2.922,0,0,1-.781.112Q136.2.1,136.2-1.411V-4.4h-.869v-.879h.869V-6.567Zm1.631,3.887a3.09,3.09,0,0,1,.579-1.965,1.857,1.857,0,0,1,1.536-.735,1.74,1.74,0,0,1,1.421.63l.054-.532h1.069V-.161a2.129,2.129,0,0,1-.647,1.641,2.464,2.464,0,0,1-1.746.6,2.814,2.814,0,0,1-1.135-.242,2.017,2.017,0,0,1-.842-.632l.562-.713a1.7,1.7,0,0,0,1.348.649,1.311,1.311,0,0,0,.933-.32,1.226,1.226,0,0,0,.342-.94V-.474A1.747,1.747,0,0,1,141.123.1a1.853,1.853,0,0,1-1.516-.737A3.19,3.19,0,0,1,139.019-2.681Zm1.182.1a2.127,2.127,0,0,0,.325,1.252,1.044,1.044,0,0,0,.9.457,1.142,1.142,0,0,0,1.064-.615V-3.809a1.125,1.125,0,0,0-1.055-.6,1.048,1.048,0,0,0-.911.464A2.382,2.382,0,0,0,140.2-2.578Zm4.473-.112a3.115,3.115,0,0,1,.308-1.4,2.247,2.247,0,0,1,.864-.957,2.435,2.435,0,0,1,1.279-.334,2.308,2.308,0,0,1,1.736.688,2.708,2.708,0,0,1,.72,1.826l0,.278a3.143,3.143,0,0,1-.3,1.4,2.22,2.22,0,0,1-.859.952A2.453,2.453,0,0,1,147.134.1a2.292,2.292,0,0,1-1.79-.745,2.852,2.852,0,0,1-.671-1.985Zm1.187.1a2.129,2.129,0,0,0,.337,1.277,1.1,1.1,0,0,0,.938.461,1.083,1.083,0,0,0,.935-.469A2.351,2.351,0,0,0,148.4-2.69a2.1,2.1,0,0,0-.344-1.27,1.1,1.1,0,0,0-.935-.469,1.089,1.089,0,0,0-.923.461A2.307,2.307,0,0,0,145.859-2.588ZM151.851,0h-1.187V-5.283h1.187Zm-1.26-6.655a.63.63,0,0,1,.173-.454.655.655,0,0,1,.5-.181.663.663,0,0,1,.5.181.625.625,0,0,1,.176.454.61.61,0,0,1-.176.447.668.668,0,0,1-.5.178.66.66,0,0,1-.5-.178A.615.615,0,0,1,150.591-6.655Zm3.652,1.372.034.61a1.9,1.9,0,0,1,1.538-.708q1.65,0,1.68,1.89V0h-1.187V-3.423a1.088,1.088,0,0,0-.217-.745.914.914,0,0,0-.71-.242,1.143,1.143,0,0,0-1.069.649V0h-1.187V-5.283Zm4.253,2.6a3.09,3.09,0,0,1,.579-1.965,1.857,1.857,0,0,1,1.536-.735,1.74,1.74,0,0,1,1.421.63l.054-.532h1.069V-.161a2.129,2.129,0,0,1-.647,1.641,2.464,2.464,0,0,1-1.746.6,2.814,2.814,0,0,1-1.135-.242,2.017,2.017,0,0,1-.842-.632l.562-.713a1.7,1.7,0,0,0,1.348.649,1.311,1.311,0,0,0,.933-.32,1.226,1.226,0,0,0,.342-.94V-.474A1.747,1.747,0,0,1,160.6.1a1.853,1.853,0,0,1-1.516-.737A3.19,3.19,0,0,1,158.5-2.681Zm1.182.1A2.127,2.127,0,0,0,160-1.326a1.044,1.044,0,0,0,.9.457,1.142,1.142,0,0,0,1.064-.615V-3.809a1.125,1.125,0,0,0-1.055-.6,1.048,1.048,0,0,0-.911.464A2.382,2.382,0,0,0,159.678-2.578Zm11.812-.01a3.146,3.146,0,0,1-.557,1.956,1.783,1.783,0,0,1-1.494.73,1.8,1.8,0,0,1-1.392-.571v2.5H166.86V-5.283h1.094l.049.537a1.743,1.743,0,0,1,1.421-.635,1.8,1.8,0,0,1,1.516.72,3.23,3.23,0,0,1,.549,2Zm-1.182-.1a2.2,2.2,0,0,0-.315-1.255,1.024,1.024,0,0,0-.9-.464,1.092,1.092,0,0,0-1.045.6v2.344A1.1,1.1,0,0,0,169.1-.85a1.023,1.023,0,0,0,.886-.457A2.426,2.426,0,0,0,170.308-2.69ZM175.649,0a1.831,1.831,0,0,1-.137-.493A1.847,1.847,0,0,1,174.126.1a1.864,1.864,0,0,1-1.3-.454,1.453,1.453,0,0,1-.5-1.123,1.5,1.5,0,0,1,.627-1.3,3.041,3.041,0,0,1,1.794-.452h.728v-.347a.925.925,0,0,0-.229-.657.91.91,0,0,0-.7-.247,1.045,1.045,0,0,0-.664.2.627.627,0,0,0-.259.515h-1.187a1.317,1.317,0,0,1,.288-.813,1.919,1.919,0,0,1,.784-.593,2.753,2.753,0,0,1,1.106-.215,2.217,2.217,0,0,1,1.479.466A1.663,1.663,0,0,1,176.66-3.6v2.383a2.7,2.7,0,0,0,.2,1.138V0Zm-1.3-.854a1.35,1.35,0,0,0,.662-.171,1.142,1.142,0,0,0,.466-.459v-1h-.64a1.749,1.749,0,0,0-.991.229.743.743,0,0,0-.332.649.693.693,0,0,0,.227.544A.879.879,0,0,0,174.346-.854Zm5.332-.845,1.074-3.584h1.265L179.917.8a1.707,1.707,0,0,1-1.641,1.333,2.115,2.115,0,0,1-.571-.088V1.123l.225.015a1.155,1.155,0,0,0,.676-.163,1.084,1.084,0,0,0,.359-.549l.171-.454L177.28-5.283h1.279Zm4.136-3.584.034.552a1.9,1.9,0,0,1,1.523-.649,1.46,1.46,0,0,1,1.45.811,1.874,1.874,0,0,1,1.621-.811,1.647,1.647,0,0,1,1.3.483,2.128,2.128,0,0,1,.437,1.426V0h-1.187V-3.437a1.051,1.051,0,0,0-.22-.737.962.962,0,0,0-.728-.234.988.988,0,0,0-.662.217,1.146,1.146,0,0,0-.359.569l0,3.623h-1.187V-3.477a.846.846,0,0,0-.952-.933,1.044,1.044,0,0,0-1.011.581V0H182.7V-5.283ZM193.726.1a2.455,2.455,0,0,1-1.829-.71,2.577,2.577,0,0,1-.7-1.892v-.146a3.17,3.17,0,0,1,.305-1.414,2.323,2.323,0,0,1,.857-.969,2.266,2.266,0,0,1,1.23-.347,2.074,2.074,0,0,1,1.667.688,2.911,2.911,0,0,1,.588,1.948v.479h-3.452a1.587,1.587,0,0,0,.437,1.035,1.312,1.312,0,0,0,.964.381,1.607,1.607,0,0,0,1.328-.659l.64.61a2.136,2.136,0,0,1-.847.735A2.652,2.652,0,0,1,193.726.1Zm-.142-4.526a1,1,0,0,0-.789.342,1.772,1.772,0,0,0-.383.952h2.261v-.088a1.442,1.442,0,0,0-.317-.9A.992.992,0,0,0,193.584-4.429Zm4.282-.854.034.61a1.9,1.9,0,0,1,1.538-.708q1.65,0,1.68,1.89V0h-1.187V-3.423a1.088,1.088,0,0,0-.217-.745.914.914,0,0,0-.71-.242,1.143,1.143,0,0,0-1.069.649V0h-1.187V-5.283Zm5.947-1.284v1.284h.933V-4.4h-.933v2.949a.649.649,0,0,0,.12.437.555.555,0,0,0,.427.134,1.828,1.828,0,0,0,.415-.049v.918a2.922,2.922,0,0,1-.781.112q-1.367,0-1.367-1.509V-4.4h-.869v-.879h.869V-6.567Zm4.8,5.132a.538.538,0,0,0-.261-.483,2.778,2.778,0,0,0-.867-.293,4.456,4.456,0,0,1-1.011-.322,1.349,1.349,0,0,1-.889-1.245,1.406,1.406,0,0,1,.576-1.143,2.278,2.278,0,0,1,1.465-.459,2.37,2.37,0,0,1,1.531.469,1.487,1.487,0,0,1,.583,1.216h-1.187a.731.731,0,0,0-.254-.569.973.973,0,0,0-.674-.227,1.051,1.051,0,0,0-.637.181.57.57,0,0,0-.247.483.481.481,0,0,0,.229.425,3.156,3.156,0,0,0,.928.305,4.392,4.392,0,0,1,1.1.366,1.552,1.552,0,0,1,.591.51,1.3,1.3,0,0,1,.193.723,1.377,1.377,0,0,1-.591,1.155A2.519,2.519,0,0,1,207.642.1a2.732,2.732,0,0,1-1.157-.234,1.9,1.9,0,0,1-.791-.645,1.526,1.526,0,0,1-.283-.884h1.152a.836.836,0,0,0,.317.647,1.233,1.233,0,0,0,.776.227,1.2,1.2,0,0,0,.713-.178A.552.552,0,0,0,208.613-1.436Z" transform="translate(245.5 426.252)" fill="#0c2339"/>
    <path id="Path_1175" data-name="Path 1175" d="M9.5,0A9.5,9.5,0,1,1,0,9.5,9.5,9.5,0,0,1,9.5,0Z" transform="translate(223.75 413.252)" fill="#4dc0ed"/>
    <path id="Path_1176" data-name="Path 1176" d="M1.424,0H1.061V-2.408l-.729.268v-.328l1.035-.389h.057ZM3.09,5H1.227V4.74l.984-1.094a2.339,2.339,0,0,0,.3-.4A.673.673,0,0,0,2.6,2.922a.51.51,0,0,0-.135-.365A.471.471,0,0,0,2.1,2.414a.558.558,0,0,0-.419.153.586.586,0,0,0-.149.427H1.172a.839.839,0,0,1,.253-.635A.938.938,0,0,1,2.1,2.117a.9.9,0,0,1,.627.208.71.71,0,0,1,.23.554,1.627,1.627,0,0,1-.535,1l-.762.826H3.09Zm.643,3.4H4a.6.6,0,0,0,.4-.135.45.45,0,0,0,.146-.354.441.441,0,0,0-.5-.5.518.518,0,0,0-.374.134.468.468,0,0,0-.14.354H3.18a.725.725,0,0,1,.247-.562.9.9,0,0,1,.628-.224.889.889,0,0,1,.631.213.769.769,0,0,1,.229.592.624.624,0,0,1-.12.359.725.725,0,0,1-.327.26.7.7,0,0,1,.362.246.683.683,0,0,1,.128.42.776.776,0,0,1-.25.607.936.936,0,0,1-.65.225.961.961,0,0,1-.651-.217.719.719,0,0,1-.251-.572h.363a.465.465,0,0,0,.146.359.557.557,0,0,0,.393.135.547.547,0,0,0,.4-.137A.527.527,0,0,0,4.6,9.215a.478.478,0,0,0-.152-.381A.664.664,0,0,0,4,8.7H3.732Z" transform="translate(231 420)" fill="#fff"/>
    <g id="Path_1177" data-name="Path 1177" transform="translate(590.043 413)" fill="#fff">
      <path d="M9.5,0A9.5,9.5,0,1,1,0,9.5,9.5,9.5,0,0,1,9.5,0Z" stroke="none"/>
      <path d="M 9.5 0.5 C 4.537380218505859 0.5 0.5 4.537380218505859 0.5 9.5 C 0.5 14.46261978149414 4.537380218505859 18.5 9.5 18.5 C 14.46261978149414 18.5 18.5 14.46261978149414 18.5 9.5 C 18.5 4.537380218505859 14.46261978149414 0.5 9.5 0.5 M 9.5 0 C 14.74670028686523 0 19 4.253299713134766 19 9.5 C 19 14.74670028686523 14.74670028686523 19 9.5 19 C 4.253299713134766 19 0 14.74670028686523 0 9.5 C 0 4.253299713134766 4.253299713134766 0 9.5 0 Z" stroke="none" fill="rgba(132,131,131,0.4)"/>
    </g>
    <g id="Refresh" transform="translate(650.377 387.627) rotate(60)">
      <g id="_x37__11_" transform="translate(0.001 57.525)">
        <g id="Group_15" data-name="Group 15" transform="translate(0 0)">
          <path id="Path_26" data-name="Path 26" d="M5,65.02a3.438,3.438,0,0,1-3.307-2.5H2.708c.1-.094.147-.22.051-.314L1.585,61.023a.252.252,0,0,0-.349,0L.071,62.208c-.138.162-.046.22.051.314h.931a4.057,4.057,0,0,0,7.4,1.193l-.588-.235A3.436,3.436,0,0,1,5,65.02Zm4.9-4.06H9.01A4.06,4.06,0,0,0,1.4,59.708l.582.233a3.438,3.438,0,0,1,6.4,1.019H7.312c-.1.094-.189.152-.051.314L8.426,62.46a.252.252,0,0,0,.349,0l1.173-1.185C10.045,61.181,9.994,61.054,9.9,60.96Z" transform="translate(-0.001 -57.525)" fill="#a5aabc"/>
        </g>
      </g>
    </g>
    <path id="Path_1166" data-name="Path 1166" d="M118.271,0H0" transform="translate(641.229 476.982)" fill="none" stroke="rgba(165,170,188,0.5)" stroke-width="1"/>
    <path id="Path_1167" data-name="Path 1167" d="M0,0H118.771V36H0Z" transform="translate(641.229 440.491)" fill="#e5f4ff"/>
    <path id="Path_1178" data-name="Path 1178" d="M6.294-3.325A4.4,4.4,0,0,1,5.942-1.5a2.663,2.663,0,0,1-1,1.189,2.741,2.741,0,0,1-1.5.41A2.717,2.717,0,0,1,1.953-.315,2.727,2.727,0,0,1,.945-1.492a4.22,4.22,0,0,1-.369-1.77v-.513A4.346,4.346,0,0,1,.933-5.586a2.717,2.717,0,0,1,1.008-1.2,2.706,2.706,0,0,1,1.492-.417,2.756,2.756,0,0,1,1.506.413,2.658,2.658,0,0,1,1,1.2,4.419,4.419,0,0,1,.352,1.824Zm-.933-.459a3.188,3.188,0,0,0-.508-1.941A1.675,1.675,0,0,0,3.433-6.4a1.657,1.657,0,0,0-1.4.676,3.122,3.122,0,0,0-.525,1.877v.522A3.192,3.192,0,0,0,2.024-1.4a1.664,1.664,0,0,0,1.418.7A1.657,1.657,0,0,0,4.849-1.36a3.174,3.174,0,0,0,.513-1.9ZM12.93-2.256A2.616,2.616,0,0,1,12.1-.515,2.728,2.728,0,0,1,10.234.1a2.505,2.505,0,0,1-2.019-.9,3.634,3.634,0,0,1-.759-2.417v-.684A4.051,4.051,0,0,1,7.81-5.649a2.644,2.644,0,0,1,1-1.155,2.794,2.794,0,0,1,1.5-.4,2.569,2.569,0,0,1,1.816.632,2.647,2.647,0,0,1,.8,1.75h-.942a2.043,2.043,0,0,0-.53-1.234,1.6,1.6,0,0,0-1.14-.382,1.677,1.677,0,0,0-1.409.665A3.051,3.051,0,0,0,8.4-3.885V-3.2a3.136,3.136,0,0,0,.483,1.842,1.562,1.562,0,0,0,1.353.684,1.8,1.8,0,0,0,1.2-.354,1.964,1.964,0,0,0,.554-1.233ZM16.3-3.169a4.408,4.408,0,0,1-1.755-.852A1.628,1.628,0,0,1,14-5.269a1.72,1.72,0,0,1,.671-1.389,2.668,2.668,0,0,1,1.746-.549,2.913,2.913,0,0,1,1.306.283,2.148,2.148,0,0,1,.889.781,2,2,0,0,1,.315,1.089h-.942a1.3,1.3,0,0,0-.41-1.017,1.668,1.668,0,0,0-1.157-.37,1.708,1.708,0,0,0-1.082.306,1.02,1.02,0,0,0-.388.849.918.918,0,0,0,.369.736A3.616,3.616,0,0,0,16.57-4a5.822,5.822,0,0,1,1.387.55,2.1,2.1,0,0,1,.742.7,1.788,1.788,0,0,1,.242.942,1.661,1.661,0,0,1-.674,1.384,2.873,2.873,0,0,1-1.8.52A3.342,3.342,0,0,1,15.1-.183a2.3,2.3,0,0,1-.979-.769,1.877,1.877,0,0,1-.344-1.108h.942a1.224,1.224,0,0,0,.476,1.018,2,2,0,0,0,1.272.374,1.843,1.843,0,0,0,1.138-.3A.983.983,0,0,0,18-1.8a.965.965,0,0,0-.366-.808A4.222,4.222,0,0,0,16.3-3.169ZM24.565,0H19.907V-.649l2.461-2.734a5.846,5.846,0,0,0,.754-1.008,1.683,1.683,0,0,0,.208-.8,1.276,1.276,0,0,0-.337-.913,1.178,1.178,0,0,0-.9-.356,1.4,1.4,0,0,0-1.047.383,1.464,1.464,0,0,0-.374,1.067h-.9A2.1,2.1,0,0,1,20.4-6.6a2.344,2.344,0,0,1,1.692-.605,2.252,2.252,0,0,1,1.567.52A1.774,1.774,0,0,1,24.238-5.3,4.067,4.067,0,0,1,22.9-2.8L21-.737h3.569Zm5.405-2.651H27.588v-.737h2.383Zm7.72-.381a4.131,4.131,0,0,1-.542,2.358A1.928,1.928,0,0,1,35.454.1,1.942,1.942,0,0,1,33.77-.657,3.921,3.921,0,0,1,33.2-2.91V-4.116a4.039,4.039,0,0,1,.542-2.329,1.942,1.942,0,0,1,1.7-.762,1.96,1.96,0,0,1,1.689.735A3.9,3.9,0,0,1,37.69-4.2Zm-.9-1.235a3.31,3.31,0,0,0-.322-1.672,1.109,1.109,0,0,0-1.021-.525,1.1,1.1,0,0,0-1.011.522,3.232,3.232,0,0,0-.327,1.606v1.445a3.363,3.363,0,0,0,.334,1.7,1.107,1.107,0,0,0,1.013.549,1.092,1.092,0,0,0,.994-.518,3.241,3.241,0,0,0,.339-1.631Zm6.519,1.235a4.131,4.131,0,0,1-.542,2.358A1.928,1.928,0,0,1,41.069.1a1.942,1.942,0,0,1-1.685-.754,3.921,3.921,0,0,1-.566-2.253V-4.116a4.039,4.039,0,0,1,.542-2.329,1.942,1.942,0,0,1,1.7-.762,1.96,1.96,0,0,1,1.689.735A3.9,3.9,0,0,1,43.306-4.2Zm-.9-1.235A3.31,3.31,0,0,0,42.08-5.94a1.109,1.109,0,0,0-1.021-.525,1.1,1.1,0,0,0-1.011.522,3.232,3.232,0,0,0-.327,1.606v1.445a3.363,3.363,0,0,0,.334,1.7,1.107,1.107,0,0,0,1.013.549,1.092,1.092,0,0,0,.994-.518A3.241,3.241,0,0,0,42.4-2.788Zm3.374.273h.679a1.492,1.492,0,0,0,1.006-.337,1.126,1.126,0,0,0,.366-.884,1.1,1.1,0,0,0-1.245-1.25,1.3,1.3,0,0,0-.935.334,1.171,1.171,0,0,0-.349.886h-.9a1.814,1.814,0,0,1,.618-1.4,2.25,2.25,0,0,1,1.57-.559,2.224,2.224,0,0,1,1.577.532A1.923,1.923,0,0,1,48.73-5.2a1.561,1.561,0,0,1-.3.9,1.813,1.813,0,0,1-.818.649,1.747,1.747,0,0,1,.906.615,1.709,1.709,0,0,1,.32,1.05,1.939,1.939,0,0,1-.625,1.519A2.34,2.34,0,0,1,46.587.1a2.4,2.4,0,0,1-1.628-.542,1.8,1.8,0,0,1-.627-1.431h.908a1.162,1.162,0,0,0,.366.9,1.393,1.393,0,0,0,.981.337,1.367,1.367,0,0,0,1-.342,1.317,1.317,0,0,0,.347-.981,1.2,1.2,0,0,0-.381-.952,1.659,1.659,0,0,0-1.1-.342h-.679ZM54.668-6.6,51.724,0h-.947l2.935-6.367H49.863v-.742h4.8Z" transform="translate(678.75 424.757)" fill="#0c2339"/>
    <path id="Path_1169" data-name="Path 1169" d="M6.294-3.325A4.4,4.4,0,0,1,5.942-1.5a2.663,2.663,0,0,1-1,1.189,2.741,2.741,0,0,1-1.5.41A2.717,2.717,0,0,1,1.953-.315,2.727,2.727,0,0,1,.945-1.492a4.22,4.22,0,0,1-.369-1.77v-.513A4.346,4.346,0,0,1,.933-5.586a2.717,2.717,0,0,1,1.008-1.2,2.706,2.706,0,0,1,1.492-.417,2.756,2.756,0,0,1,1.506.413,2.658,2.658,0,0,1,1,1.2,4.419,4.419,0,0,1,.352,1.824Zm-.933-.459a3.188,3.188,0,0,0-.508-1.941A1.675,1.675,0,0,0,3.433-6.4a1.657,1.657,0,0,0-1.4.676,3.122,3.122,0,0,0-.525,1.877v.522A3.192,3.192,0,0,0,2.024-1.4a1.664,1.664,0,0,0,1.418.7A1.657,1.657,0,0,0,4.849-1.36a3.174,3.174,0,0,0,.513-1.9ZM12.93-2.256A2.616,2.616,0,0,1,12.1-.515,2.728,2.728,0,0,1,10.234.1a2.505,2.505,0,0,1-2.019-.9,3.634,3.634,0,0,1-.759-2.417v-.684A4.051,4.051,0,0,1,7.81-5.649a2.644,2.644,0,0,1,1-1.155,2.794,2.794,0,0,1,1.5-.4,2.569,2.569,0,0,1,1.816.632,2.647,2.647,0,0,1,.8,1.75h-.942a2.043,2.043,0,0,0-.53-1.234,1.6,1.6,0,0,0-1.14-.382,1.677,1.677,0,0,0-1.409.665A3.051,3.051,0,0,0,8.4-3.885V-3.2a3.136,3.136,0,0,0,.483,1.842,1.562,1.562,0,0,0,1.353.684,1.8,1.8,0,0,0,1.2-.354,1.964,1.964,0,0,0,.554-1.233ZM16.3-3.169a4.408,4.408,0,0,1-1.755-.852A1.628,1.628,0,0,1,14-5.269a1.72,1.72,0,0,1,.671-1.389,2.668,2.668,0,0,1,1.746-.549,2.913,2.913,0,0,1,1.306.283,2.148,2.148,0,0,1,.889.781,2,2,0,0,1,.315,1.089h-.942a1.3,1.3,0,0,0-.41-1.017,1.668,1.668,0,0,0-1.157-.37,1.708,1.708,0,0,0-1.082.306,1.02,1.02,0,0,0-.388.849.918.918,0,0,0,.369.736A3.616,3.616,0,0,0,16.57-4a5.822,5.822,0,0,1,1.387.55,2.1,2.1,0,0,1,.742.7,1.788,1.788,0,0,1,.242.942,1.661,1.661,0,0,1-.674,1.384,2.873,2.873,0,0,1-1.8.52A3.342,3.342,0,0,1,15.1-.183a2.3,2.3,0,0,1-.979-.769,1.877,1.877,0,0,1-.344-1.108h.942a1.224,1.224,0,0,0,.476,1.018,2,2,0,0,0,1.272.374,1.843,1.843,0,0,0,1.138-.3A.983.983,0,0,0,18-1.8a.965.965,0,0,0-.366-.808A4.222,4.222,0,0,0,16.3-3.169ZM24.565,0H19.907V-.649l2.461-2.734a5.846,5.846,0,0,0,.754-1.008,1.683,1.683,0,0,0,.208-.8,1.276,1.276,0,0,0-.337-.913,1.178,1.178,0,0,0-.9-.356,1.4,1.4,0,0,0-1.047.383,1.464,1.464,0,0,0-.374,1.067h-.9A2.1,2.1,0,0,1,20.4-6.6a2.344,2.344,0,0,1,1.692-.605,2.252,2.252,0,0,1,1.567.52A1.774,1.774,0,0,1,24.238-5.3,4.067,4.067,0,0,1,22.9-2.8L21-.737h3.569Zm5.405-2.651H27.588v-.737h2.383Zm7.72-.381a4.131,4.131,0,0,1-.542,2.358A1.928,1.928,0,0,1,35.454.1,1.942,1.942,0,0,1,33.77-.657,3.921,3.921,0,0,1,33.2-2.91V-4.116a4.039,4.039,0,0,1,.542-2.329,1.942,1.942,0,0,1,1.7-.762,1.96,1.96,0,0,1,1.689.735A3.9,3.9,0,0,1,37.69-4.2Zm-.9-1.235a3.31,3.31,0,0,0-.322-1.672,1.109,1.109,0,0,0-1.021-.525,1.1,1.1,0,0,0-1.011.522,3.232,3.232,0,0,0-.327,1.606v1.445a3.363,3.363,0,0,0,.334,1.7,1.107,1.107,0,0,0,1.013.549,1.092,1.092,0,0,0,.994-.518,3.241,3.241,0,0,0,.339-1.631Zm6.519,1.235a4.131,4.131,0,0,1-.542,2.358A1.928,1.928,0,0,1,41.069.1a1.942,1.942,0,0,1-1.685-.754,3.921,3.921,0,0,1-.566-2.253V-4.116a4.039,4.039,0,0,1,.542-2.329,1.942,1.942,0,0,1,1.7-.762,1.96,1.96,0,0,1,1.689.735A3.9,3.9,0,0,1,43.306-4.2Zm-.9-1.235A3.31,3.31,0,0,0,42.08-5.94a1.109,1.109,0,0,0-1.021-.525,1.1,1.1,0,0,0-1.011.522,3.232,3.232,0,0,0-.327,1.606v1.445a3.363,3.363,0,0,0,.334,1.7,1.107,1.107,0,0,0,1.013.549,1.092,1.092,0,0,0,.994-.518A3.241,3.241,0,0,0,42.4-2.788Zm3.374.273h.679a1.492,1.492,0,0,0,1.006-.337,1.126,1.126,0,0,0,.366-.884,1.1,1.1,0,0,0-1.245-1.25,1.3,1.3,0,0,0-.935.334,1.171,1.171,0,0,0-.349.886h-.9a1.814,1.814,0,0,1,.618-1.4,2.25,2.25,0,0,1,1.57-.559,2.224,2.224,0,0,1,1.577.532A1.923,1.923,0,0,1,48.73-5.2a1.561,1.561,0,0,1-.3.9,1.813,1.813,0,0,1-.818.649,1.747,1.747,0,0,1,.906.615,1.709,1.709,0,0,1,.32,1.05,1.939,1.939,0,0,1-.625,1.519A2.34,2.34,0,0,1,46.587.1a2.4,2.4,0,0,1-1.628-.542,1.8,1.8,0,0,1-.627-1.431h.908a1.162,1.162,0,0,0,.366.9,1.393,1.393,0,0,0,.981.337,1.367,1.367,0,0,0,1-.342,1.317,1.317,0,0,0,.347-.981,1.2,1.2,0,0,0-.381-.952,1.659,1.659,0,0,0-1.1-.342h-.679Zm8.613-1.26a1.651,1.651,0,0,1-.281.947,1.91,1.91,0,0,1-.759.649,2.038,2.038,0,0,1,.881.7,1.757,1.757,0,0,1,.325,1.04,1.858,1.858,0,0,1-.623,1.47A2.392,2.392,0,0,1,52.295.1a2.381,2.381,0,0,1-1.643-.549,1.866,1.866,0,0,1-.618-1.467,1.81,1.81,0,0,1,.315-1.04,1.96,1.96,0,0,1,.872-.7,1.863,1.863,0,0,1-.747-.649,1.674,1.674,0,0,1-.273-.942,1.838,1.838,0,0,1,.576-1.426,2.161,2.161,0,0,1,1.519-.527,2.163,2.163,0,0,1,1.516.527A1.834,1.834,0,0,1,54.39-5.254Zm-.737,3.315a1.31,1.31,0,0,0-.378-.972,1.342,1.342,0,0,0-.989-.376,1.318,1.318,0,0,0-.979.371,1.325,1.325,0,0,0-.369.977,1.262,1.262,0,0,0,.359.952,1.378,1.378,0,0,0,1,.347,1.373,1.373,0,0,0,1-.349A1.259,1.259,0,0,0,53.652-1.938ZM52.295-6.465a1.166,1.166,0,0,0-.862.33,1.211,1.211,0,0,0-.33.9,1.2,1.2,0,0,0,.325.876,1.152,1.152,0,0,0,.867.334,1.152,1.152,0,0,0,.867-.334,1.2,1.2,0,0,0,.325-.876,1.205,1.205,0,0,0-.337-.884A1.149,1.149,0,0,0,52.295-6.465Z" transform="translate(678.75 462.491)" fill="#0c2339"/>
    <path id="Path_1170" data-name="Path 1170" d="M9.5,0A9.5,9.5,0,1,1,0,9.5,9.5,9.5,0,0,1,9.5,0Z" transform="translate(653.979 450.735)" fill="#4dc0ed"/>
    <path id="Path_1179" data-name="Path 1179" d="M9.5,0A9.5,9.5,0,1,1,0,9.5,9.5,9.5,0,0,1,9.5,0Z" transform="translate(653.979 413)" fill="#4dc0ed"/>
    <path id="Path_1171" data-name="Path 1171" d="M9.5,0A9.5,9.5,0,1,1,0,9.5,9.5,9.5,0,0,1,9.5,0Z" transform="translate(737.229 450.735)" fill="#fed325"/>
    <path id="Path_142" data-name="Path 142" d="M9.5,0A9.5,9.5,0,1,1,0,9.5,9.5,9.5,0,0,1,9.5,0Z" transform="translate(737.229 413.248)" fill="#fed325"/>
    <g id="Path_1180" data-name="Path 1180" transform="translate(459 413)" fill="#fff">
      <path d="M9.5,0H45.021a9.5,9.5,0,0,1,0,19H9.5a9.5,9.5,0,0,1,0-19Z" stroke="none"/>
      <path d="M 9.500003814697266 0.5 C 4.537384033203125 0.5 0.5000038146972656 4.537380218505859 0.5000038146972656 9.5 C 0.5000038146972656 14.46261978149414 4.537384033203125 18.5 9.500003814697266 18.5 L 45.021484375 18.5 C 49.98410034179688 18.5 54.02148056030273 14.46261978149414 54.02148056030273 9.5 C 54.02148056030273 4.537380218505859 49.98410034179688 0.5 45.021484375 0.5 L 9.500003814697266 0.5 M 9.500003814697266 0 L 45.021484375 0 C 50.26819229125977 0 54.52148056030273 4.253290176391602 54.52148056030273 9.5 C 54.52148056030273 14.7467098236084 50.26819229125977 19 45.021484375 19 L 9.500003814697266 19 C 4.253292083740234 19 3.814697265625e-06 14.7467098236084 3.814697265625e-06 9.5 C 3.814697265625e-06 4.253290176391602 4.253292083740234 0 9.500003814697266 0 Z" stroke="none" fill="rgba(165,170,188,0.5)"/>
    </g>
    <path id="Path_1181" data-name="Path 1181" d="M0,3,3,0" transform="translate(477.75 420.5)" fill="none" stroke="#a5aabc" stroke-width="0.5"/>
    <path id="Path_1182" data-name="Path 1182" d="M0,3,3,0" transform="translate(490.5 422.75) rotate(180)" fill="none" stroke="#a5aabc" stroke-width="0.5"/>
    <path id="Path_1183" data-name="Path 1183" d="M3,3,0,0" transform="translate(482.5 420.5)" fill="none" stroke="#a5aabc" stroke-width="0.5"/>
    <g id="Path_1184" data-name="Path 1184" transform="translate(480.25 418)" fill="#fff">
      <path d="M 1.5 2.75 C 0.8107500076293945 2.75 0.25 2.189249992370605 0.25 1.5 C 0.25 0.8107500076293945 0.8107500076293945 0.25 1.5 0.25 C 2.189249992370605 0.25 2.75 0.8107500076293945 2.75 1.5 C 2.75 2.189249992370605 2.189249992370605 2.75 1.5 2.75 Z" stroke="none"/>
      <path d="M 1.5 0.5 C 0.9486000537872314 0.5 0.5 0.9486000537872314 0.5 1.5 C 0.5 2.051399946212769 0.9486000537872314 2.5 1.5 2.5 C 2.051399946212769 2.5 2.5 2.051399946212769 2.5 1.5 C 2.5 0.9486000537872314 2.051399946212769 0.5 1.5 0.5 M 1.5 0 C 2.328429937362671 0 3 0.6715700626373291 3 1.5 C 3 2.328429937362671 2.328429937362671 3 1.5 3 C 0.6715700626373291 3 0 2.328429937362671 0 1.5 C 0 0.6715700626373291 0.6715700626373291 0 1.5 0 Z" stroke="none" fill="#a5aabc"/>
    </g>
    <g id="Path_1185" data-name="Path 1185" transform="translate(488 425.25) rotate(180)" fill="#fff">
      <path d="M 1.5 2.75 C 0.8107500076293945 2.75 0.25 2.189249992370605 0.25 1.5 C 0.25 0.8107500076293945 0.8107500076293945 0.25 1.5 0.25 C 2.189249992370605 0.25 2.75 0.8107500076293945 2.75 1.5 C 2.75 2.189249992370605 2.189249992370605 2.75 1.5 2.75 Z" stroke="none"/>
      <path d="M 1.5 0.5 C 0.9486000537872314 0.5 0.5 0.9486000537872314 0.5 1.5 C 0.5 2.051399946212769 0.9486000537872314 2.5 1.5 2.5 C 2.051399946212769 2.5 2.5 2.051399946212769 2.5 1.5 C 2.5 0.9486000537872314 2.051399946212769 0.5 1.5 0.5 M 1.5 0 C 2.328429937362671 0 3 0.6715700626373291 3 1.5 C 3 2.328429937362671 2.328429937362671 3 1.5 3 C 0.6715700626373291 3 0 2.328429937362671 0 1.5 C 0 0.6715700626373291 0.6715700626373291 0 1.5 0 Z" stroke="none" fill="#a5aabc"/>
    </g>
    <g id="Refresh_icon" data-name="Refresh icon" transform="translate(-528.957 53.746)">
      <g id="Ellipse_32" data-name="Ellipse 32" transform="translate(1094 359.254)" fill="#fff" stroke="rgba(132,131,131,0.4)" stroke-width="0.5">
        <circle cx="9.5" cy="9.5" r="9.5" stroke="none"/>
        <circle cx="9.5" cy="9.5" r="9.25" fill="none"/>
      </g>
    </g>
    <g id="_x31_6-thumbtack" transform="translate(566.864 414.4)">
      <path id="Path_123" data-name="Path 123" d="M11.551,6.528,8.719,3.7a.311.311,0,0,0-.45,0l-1.03,1.03a.309.309,0,0,0,0,.45l.225.225L6.5,6.367a2.941,2.941,0,0,0-2.51.386.311.311,0,0,0,0,.45L5.824,9.038,3.8,11.065a.311.311,0,0,0,0,.45.342.342,0,0,0,.45,0L6.274,9.488l1.834,1.834a.3.3,0,0,0,.45,0,2.941,2.941,0,0,0,.386-2.51l.965-.965.225.225a.311.311,0,0,0,.45,0l1.03-1.03a.486.486,0,0,0-.064-.515Z" transform="translate(0 0)" fill="#a1a1a1"/>
    </g>
    <g id="Path_1186" data-name="Path 1186" transform="translate(615.043 413)" fill="#fff">
      <path d="M9.5,0A9.5,9.5,0,1,1,0,9.5,9.5,9.5,0,0,1,9.5,0Z" stroke="none"/>
      <path d="M 9.5 0.5 C 4.537380218505859 0.5 0.5 4.537380218505859 0.5 9.5 C 0.5 14.46261978149414 4.537380218505859 18.5 9.5 18.5 C 14.46261978149414 18.5 18.5 14.46261978149414 18.5 9.5 C 18.5 4.537380218505859 14.46261978149414 0.5 9.5 0.5 M 9.5 0 C 14.74670028686523 0 19 4.253299713134766 19 9.5 C 19 14.74670028686523 14.74670028686523 19 9.5 19 C 4.253299713134766 19 0 14.74670028686523 0 9.5 C 0 4.253299713134766 4.253299713134766 0 9.5 0 Z" stroke="none" fill="rgba(132,131,131,0.4)"/>
    </g>
    <g id="apps" transform="translate(618.668 417.625)" clip-path="url(#clip-path)">
      <path id="Path_124" data-name="Path 124" d="M10.674,5.938H9.9V3.49A.491.491,0,0,0,9.406,3H7.448a.491.491,0,0,0-.49.49V5.938H6.18a.491.491,0,0,0-.348.837L8.079,9.022a.488.488,0,0,0,.69,0l2.247-2.247A.49.49,0,0,0,10.674,5.938ZM5,10.833a.491.491,0,0,0,.49.49h5.875a.49.49,0,1,0,0-.979H5.49A.491.491,0,0,0,5,10.833Z" transform="translate(-2.552 -1.531)" fill="#a1a1a1"/>
    </g>
    <path id="Path_1152" data-name="Path 1152" d="M0,0V229" transform="translate(641.229 402)" fill="none" stroke="rgba(165,170,188,0.5)" stroke-width="1"/>
    <g id="Path_1153" data-name="Path 1153" transform="translate(211 402)" fill="none">
      <path d="M5,0H544a5,5,0,0,1,5,5V224a5,5,0,0,1-5,5H5a5,5,0,0,1-5-5V5A5,5,0,0,1,5,0Z" stroke="none"/>
      <path d="M 5 1 C 2.79437255859375 1 1 2.794357299804688 1 5 L 1 224 C 1 226.2056427001953 2.79437255859375 228 5 228 L 544 228 C 546.2056274414062 228 548 226.2056427001953 548 224 L 548 5 C 548 2.794357299804688 546.2056274414062 1 544 1 L 5 1 M 5 0 L 544 0 C 546.7614135742188 0 549 2.238571166992188 549 5 L 549 224 C 549 226.7614288330078 546.7614135742188 229 544 229 L 5 229 C 2.23858642578125 229 0 226.7614288330078 0 224 L 0 5 C 0 2.238571166992188 2.23858642578125 0 5 0 Z" stroke="none" fill="rgba(165,170,188,0.5)"/>
    </g>
    <path id="Path_1154" data-name="Path 1154" d="M549.5,0H0" transform="translate(211 439.5)" fill="none" stroke="rgba(165,170,188,0.5)" stroke-width="1"/>
    <g id="Path_1155" data-name="Path 1155" transform="translate(211 402)" fill="none">
      <path d="M5,0H544a5,5,0,0,1,5,5V224a5,5,0,0,1-5,5H5a5,5,0,0,1-5-5V5A5,5,0,0,1,5,0Z" stroke="none"/>
      <path d="M 5 1 C 2.79437255859375 1 1 2.794357299804688 1 5 L 1 224 C 1 226.2056427001953 2.79437255859375 228 5 228 L 544 228 C 546.2056274414062 228 548 226.2056427001953 548 224 L 548 5 C 548 2.794357299804688 546.2056274414062 1 544 1 L 5 1 M 5 0 L 544 0 C 546.7614135742188 0 549 2.238571166992188 549 5 L 549 224 C 549 226.7614288330078 546.7614135742188 229 544 229 L 5 229 C 2.23858642578125 229 0 226.7614288330078 0 224 L 0 5 C 0 2.238571166992188 2.23858642578125 0 5 0 Z" stroke="none" fill="rgba(165,170,188,0.5)"/>
    </g>
    <path id="Path_1187" data-name="Path 1187" d="M1.424,0H1.061V-2.408l-.729.268v-.328l1.035-.389h.057ZM3.09,5H1.227V4.74l.984-1.094a2.339,2.339,0,0,0,.3-.4A.673.673,0,0,0,2.6,2.922a.51.51,0,0,0-.135-.365A.471.471,0,0,0,2.1,2.414a.558.558,0,0,0-.419.153.586.586,0,0,0-.149.427H1.172a.839.839,0,0,1,.253-.635A.938.938,0,0,1,2.1,2.117a.9.9,0,0,1,.627.208.71.71,0,0,1,.23.554,1.627,1.627,0,0,1-.535,1l-.762.826H3.09Zm.643,3.4H4a.6.6,0,0,0,.4-.135.45.45,0,0,0,.146-.354.441.441,0,0,0-.5-.5.518.518,0,0,0-.374.134.468.468,0,0,0-.14.354H3.18a.725.725,0,0,1,.247-.562.9.9,0,0,1,.628-.224.889.889,0,0,1,.631.213.769.769,0,0,1,.229.592.624.624,0,0,1-.12.359.725.725,0,0,1-.327.26.7.7,0,0,1,.362.246.683.683,0,0,1,.128.42.776.776,0,0,1-.25.607.936.936,0,0,1-.65.225.961.961,0,0,1-.651-.217.719.719,0,0,1-.251-.572h.363a.465.465,0,0,0,.146.359.557.557,0,0,0,.393.135.547.547,0,0,0,.4-.137A.527.527,0,0,0,4.6,9.215a.478.478,0,0,0-.152-.381A.664.664,0,0,0,4,8.7H3.732Z" transform="translate(465.25 420)" fill="#a1a1a1"/>
    <path id="Path_1188" data-name="Path 1188" d="M9.5,0A9.5,9.5,0,1,1,0,9.5,9.5,9.5,0,0,1,9.5,0Z" transform="translate(498 413.252)" fill="#1f6cb6"/>
    <g id="plus-minus" transform="translate(356.162 246.8)">
      <path id="Path_126" data-name="Path 126" d="M182.063,170.582v1.946h2.34a.358.358,0,0,1,0,.716h-2.34v2.006a.382.382,0,1,1-.764,0v-2.006h-2.34a.358.358,0,0,1,0-.716h2.34v-1.946a.382.382,0,0,1,.764,0Z" transform="translate(-30.342)" fill="#fff"/>
      <path id="Path_127" data-name="Path 127" d="M155.318,329.716h-7.96a.359.359,0,0,1-.358-.358h0a.357.357,0,0,1,.358-.358h7.96a.357.357,0,0,1,.358.358h0A.357.357,0,0,1,155.318,329.716Z" transform="translate(0 -152.48)" fill="#fff"/>
      <path id="Path_128" data-name="Path 128" d="M201.058,391.716h-4a.359.359,0,0,1-.358-.358h0a.359.359,0,0,1,.358-.358h4a.357.357,0,0,1,.358.358h0A.357.357,0,0,1,201.058,391.716Z" transform="translate(-47.722 -212.012)" fill="#fff"/>
    </g>
    <g id="_x31_5_38_" transform="translate(540.043 413)">
      <g id="Group_118" data-name="Group 118" transform="translate(0 0)">
        <path id="Path_129" data-name="Path 129" d="M100.163,9.094h.272a.748.748,0,0,0,.748-.748V5.51a.748.748,0,0,0-.748-.748h-.272a.748.748,0,0,0-.748.748V8.346A.748.748,0,0,0,100.163,9.094Z" transform="translate(-95.52 -4.743)" fill="#a1a1a1"/>
        <path id="Path_130" data-name="Path 130" d="M345.029,8.621h.272a.748.748,0,0,0,.748-.748V5.037a.748.748,0,0,0-.748-.748h-.272a.748.748,0,0,0-.748.748V7.873A.748.748,0,0,0,345.029,8.621Z" transform="translate(-330.792 -4.289)" fill="#a1a1a1"/>
        <path id="Path_131" data-name="Path 131" d="M17.784,43.558h-1.92V45.8a1.2,1.2,0,0,1-1.356,1.16h-.272A1.357,1.357,0,0,1,12.881,45.6V43.558H6.271v2.064a1.357,1.357,0,0,1-1.356,1.356H4.643a1.357,1.357,0,0,1-1.356-1.356V43.558H1.216A1.217,1.217,0,0,0,0,44.774V59.467a1.217,1.217,0,0,0,1.216,1.216H17.784A1.217,1.217,0,0,0,19,59.467V44.774A1.217,1.217,0,0,0,17.784,43.558Zm0,15.909H1.216v-11.1H17.784v11.1Z" transform="translate(0 -42.019)" fill="#a1a1a1"/>
        <path id="Path_132" data-name="Path 132" d="M254.655,207.359h2.183a.157.157,0,0,0,.157-.157v-1.891a.157.157,0,0,0-.157-.157h-2.183a.157.157,0,0,0-.157.157V207.2A.157.157,0,0,0,254.655,207.359Z" transform="translate(-244.527 -197.285)" fill="#a1a1a1"/>
        <path id="Path_133" data-name="Path 133" d="M345.6,207.359h2.183a.157.157,0,0,0,.157-.157v-1.891a.157.157,0,0,0-.157-.157H345.6a.157.157,0,0,0-.157.157V207.2A.157.157,0,0,0,345.6,207.359Z" transform="translate(-331.909 -197.285)" fill="#a1a1a1"/>
        <path id="Path_134" data-name="Path 134" d="M72.768,286.358h2.183a.157.157,0,0,0,.157-.157v-1.891a.157.157,0,0,0-.157-.157H72.768a.157.157,0,0,0-.157.157V286.2A.157.157,0,0,0,72.768,286.358Z" transform="translate(-69.766 -273.189)" fill="#a1a1a1"/>
        <path id="Path_135" data-name="Path 135" d="M163.712,286.358H165.9a.157.157,0,0,0,.157-.157v-1.891a.157.157,0,0,0-.157-.157h-2.183a.157.157,0,0,0-.157.157V286.2A.157.157,0,0,0,163.712,286.358Z" transform="translate(-157.147 -273.189)" fill="#a1a1a1"/>
        <path id="Path_136" data-name="Path 136" d="M254.656,286.358h2.183A.157.157,0,0,0,257,286.2v-1.891a.157.157,0,0,0-.157-.157h-2.183a.157.157,0,0,0-.157.157V286.2A.157.157,0,0,0,254.656,286.358Z" transform="translate(-244.528 -273.189)" fill="#a1a1a1"/>
        <path id="Path_137" data-name="Path 137" d="M345.6,286.358h2.183a.157.157,0,0,0,.157-.157v-1.891a.157.157,0,0,0-.157-.157H345.6a.157.157,0,0,0-.157.157V286.2A.157.157,0,0,0,345.6,286.358Z" transform="translate(-331.909 -273.189)" fill="#a1a1a1"/>
        <path id="Path_138" data-name="Path 138" d="M74.952,363.154H72.769a.157.157,0,0,0-.157.157V365.2a.157.157,0,0,0,.157.157h2.183a.157.157,0,0,0,.157-.157v-1.891A.157.157,0,0,0,74.952,363.154Z" transform="translate(-69.767 -349.094)" fill="#a1a1a1"/>
        <path id="Path_139" data-name="Path 139" d="M165.9,363.154h-2.183a.157.157,0,0,0-.157.157V365.2a.157.157,0,0,0,.157.157H165.9a.157.157,0,0,0,.157-.157v-1.891A.157.157,0,0,0,165.9,363.154Z" transform="translate(-157.148 -349.094)" fill="#a1a1a1"/>
        <path id="Path_140" data-name="Path 140" d="M256.84,363.154h-2.183a.157.157,0,0,0-.157.157V365.2a.157.157,0,0,0,.157.157h2.183A.157.157,0,0,0,257,365.2v-1.891A.157.157,0,0,0,256.84,363.154Z" transform="translate(-244.529 -349.094)" fill="#a1a1a1"/>
        <path id="Path_141" data-name="Path 141" d="M347.783,363.154H345.6a.157.157,0,0,0-.157.157V365.2a.157.157,0,0,0,.157.157h2.183a.157.157,0,0,0,.157-.157v-1.891A.157.157,0,0,0,347.783,363.154Z" transform="translate(-331.909 -349.094)" fill="#a1a1a1"/>
      </g>
    </g>
    <path id="Path_1172" data-name="Path 1172" d="M1.424,0H1.061V-2.408l-.729.268v-.328l1.035-.389h.057ZM3.09,5H1.227V4.74l.984-1.094a2.339,2.339,0,0,0,.3-.4A.673.673,0,0,0,2.6,2.922a.51.51,0,0,0-.135-.365A.471.471,0,0,0,2.1,2.414a.558.558,0,0,0-.419.153.586.586,0,0,0-.149.427H1.172a.839.839,0,0,1,.253-.635A.938.938,0,0,1,2.1,2.117a.9.9,0,0,1,.627.208.71.71,0,0,1,.23.554,1.627,1.627,0,0,1-.535,1l-.762.826H3.09Zm.643,3.4H4a.6.6,0,0,0,.4-.135.45.45,0,0,0,.146-.354.441.441,0,0,0-.5-.5.518.518,0,0,0-.374.134.468.468,0,0,0-.14.354H3.18a.725.725,0,0,1,.247-.562.9.9,0,0,1,.628-.224.889.889,0,0,1,.631.213.769.769,0,0,1,.229.592.624.624,0,0,1-.12.359.725.725,0,0,1-.327.26.7.7,0,0,1,.362.246.683.683,0,0,1,.128.42.776.776,0,0,1-.25.607.936.936,0,0,1-.65.225.961.961,0,0,1-.651-.217.719.719,0,0,1-.251-.572h.363a.465.465,0,0,0,.146.359.557.557,0,0,0,.393.135.547.547,0,0,0,.4-.137A.527.527,0,0,0,4.6,9.215a.478.478,0,0,0-.152-.381A.664.664,0,0,0,4,8.7H3.732Z" transform="translate(661 456.491)" fill="#fff"/>
    <path id="Path_1189" data-name="Path 1189" d="M1.424,0H1.061V-2.408l-.729.268v-.328l1.035-.389h.057ZM3.09,5H1.227V4.74l.984-1.094a2.339,2.339,0,0,0,.3-.4A.673.673,0,0,0,2.6,2.922a.51.51,0,0,0-.135-.365A.471.471,0,0,0,2.1,2.414a.558.558,0,0,0-.419.153.586.586,0,0,0-.149.427H1.172a.839.839,0,0,1,.253-.635A.938.938,0,0,1,2.1,2.117a.9.9,0,0,1,.627.208.71.71,0,0,1,.23.554,1.627,1.627,0,0,1-.535,1l-.762.826H3.09Zm.643,3.4H4a.6.6,0,0,0,.4-.135.45.45,0,0,0,.146-.354.441.441,0,0,0-.5-.5.518.518,0,0,0-.374.134.468.468,0,0,0-.14.354H3.18a.725.725,0,0,1,.247-.562.9.9,0,0,1,.628-.224.889.889,0,0,1,.631.213.769.769,0,0,1,.229.592.624.624,0,0,1-.12.359.725.725,0,0,1-.327.26.7.7,0,0,1,.362.246.683.683,0,0,1,.128.42.776.776,0,0,1-.25.607.936.936,0,0,1-.65.225.961.961,0,0,1-.651-.217.719.719,0,0,1-.251-.572h.363a.465.465,0,0,0,.146.359.557.557,0,0,0,.393.135.547.547,0,0,0,.4-.137A.527.527,0,0,0,4.6,9.215a.478.478,0,0,0-.152-.381A.664.664,0,0,0,4,8.7H3.732Z" transform="translate(661 418.757)" fill="#fff"/>
    <path id="Path_143" data-name="Path 143" d="M389.229,115.119V92.864h8.209v16.418h10.945l3.648,2.214h22.256v3.623Z" transform="translate(171.328 413.595)" fill="#fff89b"/>
    <path id="Path_144" data-name="Path 144" d="M434.092,115.229h-7.327v-.611h7.022v-.837h.611v1.142h-.305Zm-14.654,0h-7.327v-.611h7.327Zm-14.654,0h-7.327v-.611h7.327Zm-14.654,0h-1.4v-6.538h.611v5.927h.789Zm39.117-3.623h-7.327V111h7.327Zm-14.654,0h-2.841l-3.648-2.214h-.219v-.611h.389L411.922,111h2.67Zm-14.035-2.214h-3.619v-4.319h.611v3.708h3.008Zm-11.217-8.028h-.611V94.037h.611Zm8.209-3.618h-.611V92.974h-1.945v-.611h2.555Z" transform="translate(171.523 413.79)" fill="#d4a215"/>
    <path id="Path_145" data-name="Path 145" d="M367.614,127.645V175.19H319.557l-4.119-4.677h-8.7l-5.035,2.288h-7.78V129.3" transform="translate(177.974 400.051)" fill="#e1fff1"/>
    <path id="Line_43" data-name="Line 43" d="M.111,3.664H-.5V0H.111Z" transform="translate(545.477 527.696)" fill="#2fad73"/>
    <path id="Line_44" data-name="Line 44" d="M.111,24.13H-.5V16.087H.111Zm0-16.087H-.5V0H.111Z" transform="translate(545.477 539.403)" fill="#2fad73"/>
    <path id="Path_146" data-name="Path 146" d="M388.095,203.48h-3.969v-.611h3.358v-3.358h.611Z" transform="translate(157.316 372.066)" fill="#2fad73"/>
    <path id="Line_45" data-name="Line 45" d="M23.662.111h-6.2V-.5h6.2Zm-12.393,0h-6.2V-.5h6.2Z" transform="translate(508.124 575.436)" fill="#2fad73"/>
    <path id="Path_147" data-name="Path 147" d="M326.62,202.639H322.8l-3.284-4.676h-3.5v-.611h3.822l3.284,4.676h3.5Z" transform="translate(174.655 372.907)" fill="#2fad73"/>
    <path id="Path_148" data-name="Path 148" d="M297.4,199.568h-3.969V195.6h.611v3.358H297.4Z" transform="translate(178.964 373.59)" fill="#2fad73"/>
    <path id="Line_46" data-name="Line 46" d="M.111,27.625H-.5V20.391H.111Zm0-14.467H-.5V5.924H.111Z" transform="translate(472.4 534.33)" fill="#2fad73"/>
    <path id="Line_47" data-name="Line 47" d="M.111,3.664H-.5V0H.111Z" transform="translate(472.4 529.356)" fill="#2fad73"/>
    <g id="Group_120" data-name="Group 120" transform="translate(249 449.757)">
      <g id="Group_119" data-name="Group 119" clip-path="url(#clip-path-2)">
        <path id="Path_149" data-name="Path 149" d="M377.228,157.914H0V0H377.228V.3H.38v157.3H377.228Z" transform="translate(0 0)" fill="#a5aabc"/>
        <path id="Line_48" data-name="Line 48" d="M377.039.055H0V-.25H377.039Z" transform="translate(0.19 26.518)" fill="#a5aabc"/>
        <path id="Line_49" data-name="Line 49" d="M377.039.055H0V-.25H377.039Z" transform="translate(0.19 52.786)" fill="#a5aabc"/>
      </g>
    </g>
    <path id="Path_150" data-name="Path 150" d="M206.5,129.312h0Z" transform="translate(248.903 399.402)" fill="#e1fff1"/>
    <g id="Group_122" data-name="Group 122" transform="translate(249 449.757)">
      <g id="Group_121" data-name="Group 121" clip-path="url(#clip-path-2)">
        <path id="Path_151" data-name="Path 151" d="M378.379,129.533h-9.112v-1.221h9.112Zm-18.224,0h-9.112v-1.221h9.112Zm-18.224,0h-9.112v-1.221h9.112Zm-18.224,0h-9.112v-1.221h9.112Zm-18.224,0H296.37v-1.221h9.112Zm-18.224,0h-9.112v-1.221h9.112Zm-18.224,0h-9.112v-1.221h9.112Zm-18.224,0H241.7v-1.221h9.112Zm-18.224,0h-9.112v-1.221h9.112Zm-18.224,0h-9.112v-1.221h9.112Zm-15.993,0H187.024v-1.221h11.343Zm-18.224,0H168.8v-1.221h11.343Zm-18.224,0H150.575v-1.221h11.343Zm-18.224,0H132.351v-1.221h11.343Zm-18.224,0H114.127v-1.221H125.47Zm-18.224,0H95.9v-1.221h11.343Zm-18.224,0H77.678v-1.221H89.021Zm-18.224,0H59.454v-1.221H70.8Zm-18.224,0H41.23v-1.221H52.573Zm-18.224,0H23.005v-1.221H34.348Zm-18.224,0H4.781v-1.221H16.124Z" transform="translate(-1.151 -49.965)" fill="#2fad73"/>
        <path id="Line_50" data-name="Line 50" d="M377.039.055H0V-.25H377.039Z" transform="translate(0.19 105.323)" fill="#a5aabc"/>
        <path id="Line_51" data-name="Line 51" d="M377.039.055H0V-.25H377.039Z" transform="translate(0.19 131.591)" fill="#a5aabc"/>
        <path id="Path_152" data-name="Path 152" d="M4.731,129.312v40.98l1.935-1.257v2.682l2.042-2.347V173l1.059-.665.378,2.768,1.059-3.382.378.614.756-.949,1.134.559,1.437-.615.832-.614v1.061l1.588-1.229.68,1.453v1l1.21-.441v.838l.756,1.706.605-.477.3,1.285.454.95.529-2.123.68.365v-1.2l.832.559.378-.5.907.838L25.193,173l.68-1.559.216,1.025.162.763.756-.894a8.762,8.762,0,0,0,.453,1.006c.114.14.832-.341.832-.341v-1.335l.453-1.341.378,1.174.983.167L30.221,173s.3.452.493.509l1.694-3.967.907,1.844.68-.28v.727l1.021-.056v.894l1.1-.335.3.665.454.844.453-.844a3.514,3.514,0,0,0,.529.788,2.037,2.037,0,0,1,.378.894l.907.838.529.782.681-.727,1.059.447.3-.92.454.976.378-2.682.6.559.378-.559.605.614V175.1l.983-1.147V173l.983.341v-.949l.907,3.24.378-1.285.529.757.3-.812.681.447.453-.727.756.056.529.614.605-.782.453.615V173l1.059.4v.726a4.012,4.012,0,0,0,.453,1.341s1.626.559,1.362,0L54.3,174.9l.642-.67V129.312Z" transform="translate(-1.139 -50.355)" fill="rgba(60,202,142,0.5)"/>
        <path id="Path_153" data-name="Path 153" d="M4.231,128.812H55.2V174.14l-.592.617.189.4a.4.4,0,0,1-.039.464.684.684,0,0,1-.551.2,5.024,5.024,0,0,1-1.275-.273L52.8,175.5l-.061-.11a4.234,4.234,0,0,1-.485-1.449v-.547l-.3-.112v2.149l-.841-1.14-.58.75-.758-.879-.322-.024-.55.881-.607-.4-.4,1.063-.491-.7-.533,1.812-.932-3.327-.57-.2v.587l-1.742,2.034v-1.967l-.167-.169-.365.539-.4-.367-.459,3.256-.591-1.269-.119.363-1.195-.5-.842.9L38.7,175.5l-.954-.881-.016-.089a1.748,1.748,0,0,0-.292-.739,1.968,1.968,0,0,1-.219-.254l-.474.882-.811-1.508-.17-.374-1.252.383V171.9l-1.021.056v-.555l-.5.206-.683-1.388L30.826,173.7l-.364-.108c-.148-.044-.388-.192-.7-.65l-.039-.058-.1-1.171-.933-.159-.078-.243-.065.192v1.438l-.137.092a2.25,2.25,0,0,1-1.005.437.492.492,0,0,1-.388-.164,2.777,2.777,0,0,1-.254-.49l-.854,1.009-.29-1.37-.187.429-.7,2.356-1.051-.97-.338.449-.549-.368v1.122l-.8-.429-.675,2.708L20.4,175.8l-.177-.751-.522.412-.977-2.206v-.417l-1.21.441v-1.418l-.453-.967L15.241,172.3v-1.084l-.231.171-1.671.715-1-.494-.917,1.152L11.2,172.4l-1.323,4.224-.534-3.91-1.135.713v-3.283l-2.042,2.347V169.48l-1.935,1.257Zm50.211.611H4.99v40.036L6.925,168.2v2.352l2.042-2.347v3.969l.982-.617.222,1.626.8-2.54.537.872.594-.747,1.267.624,1.2-.515L16,169.822v1.038l1.36-1.053.908,1.939v.582l1.21-.441v1.259l.534,1.206.688-.542.407,1.731.376-1.509.562.3v-1.285l1.116.749.419-.556.764.705.363-1.231,1.173-2.689.466,2.206.667-.788.236.6c.1.255.223.548.312.74.071-.036.152-.082.232-.131v-1.228l.842-2.49.678,2.1,1.034.176.122,1.446,1.793-4.2,1.132,2.3.861-.354v.9l1.021-.056v.778l.941-.288.43.947.1.188.468-.872.338.684a3.143,3.143,0,0,0,.466.7,2.019,2.019,0,0,1,.446.956l.863.8.267.4.52-.555.922.389.485-1.476.317.682.3-2.107.812.751.391-.578,1.044,1.059v.216l.223-.261v-1.325l.983.341v-3.231l1.3,4.629.223-.759.568.811.209-.562.755.5.357-.572,1.191.088.3.349.63-.814.066.089v-.88l1.819.681v.912a3.481,3.481,0,0,0,.363,1.114,5.263,5.263,0,0,0,.629.157l-.252-.531.693-.723Z" transform="translate(-1.018 -50.16)" fill="#2fad73"/>
        <path id="Path_154" data-name="Path 154" d="M129.113,129.312v62.36l1.935-1.913v4.081l2.042-3.571v5.517l1.059-1.012.378,4.212,1.059-5.147.378.935.756-1.445,1.134.85,1.437-.935.832-.935v1.616l1.588-1.87.68,2.21v1.522l1.21-.672v1.276l.756,2.6.605-.726.3,1.955.454,1.445.529-3.231.68.556v-1.831l.832.85.378-.765.907,1.275.529-2.729.68-2.372.216,1.559.162,1.162.756-1.36s.34,1.318.453,1.53.832-.518.832-.518v-2.032l.453-2.04.378,1.785.983.255.112,2.032s.3.689.493.774l1.694-6.036.907,2.806.68-.425v1.105l1.021-.085v1.36l1.1-.51.3,1.012.454,1.283.453-1.283a6.124,6.124,0,0,0,.529,1.2,4.144,4.144,0,0,1,.378,1.36l.907,1.276.529,1.19.681-1.105,1.059.68.3-1.4.454,1.484.378-4.081.6.85.378-.85.605.935v1.661l.983-1.746v-1.454l.983.518V194.86l.907,4.931.378-1.955.529,1.151.3-1.236.681.68.453-1.105.756.085.529.935.605-1.19.453.935v-2.3l1.059.6V197.5a8.367,8.367,0,0,0,.453,2.04s1.626.851,1.361,0l-.265-.85.642-1.02,1.494,1.877.567-4.441.907,8.189,1.021-6.939.356,2.27.21,1.338,1.7-.694.454,2.4a19.665,19.665,0,0,0,.567-1.98,19.238,19.238,0,0,0,0-3.192l1.248,5.172a17.776,17.776,0,0,1,0-3.507c.226-.625,1.134,1.8,1.134,1.8l.794-1.249a5.062,5.062,0,0,0,.907,1.249,9.675,9.675,0,0,1,1.248,1.7V199.4l1.362,1.249,1.134-1.249v3.886l1.475-4.858v6.524l1.418-6.246a4.865,4.865,0,0,0,1.248.694c.283,0,1.361-3.747,1.361-3.747l3.176,2.915s.567-4.65.794-3.054a19.245,19.245,0,0,0,.907,4.3c.34.556-.169-.731.34.556l.51,1.286.625-3.646,1.588,3.646v-3.229l1.475,3.229.68-3.507,1.134,3.507,1.134-2.813v3.47l1.021,1.943.794-4.858c1.248,1.18,2.722-5,2.722-5l.794,4.3.794-21.236,1.7,5.414v-2.5l1.248,1.8.907-2.082V174.8l1.512,7.053L225,171.39l.579,3.727.177,1.138,1.059-1.946.605,1.946,1.361-1.216v1.818l1.513-3.521,1.059,3.521,2.42-1.454.756,1.454.907,1.1.756-1.1.605.979,1.664-1.581v-3l2.269,3.04v-4.013l1.512,3.041v-3.527l2.269,5.472,1.966-3.648,4.235,2.676,2.873-1.824-.983-45.156Z" transform="translate(-31.072 -50.355)" fill="rgba(60,202,142,0.5)"/>
        <path id="Path_155" data-name="Path 155" d="M182.119,206.054l-.881-7.95-.274,2.145-1.722-2.164-.278.442.231.739a.541.541,0,0,1-.091.573.682.682,0,0,1-.513.185,3.635,3.635,0,0,1-1.333-.427l-.118-.062-.039-.109a8.521,8.521,0,0,1-.468-2.115v-.958l-.3-.171v3.336l-.841-1.735-.578,1.137-.807-1.426-.236-.026-.573,1.4-.608-.607-.405,1.659-.491-1.067-.538,2.782-.954-5.185-.548-.289v.954l-1.742,3.1v-3l-.161-.249-.363.816-.4-.559-.463,5-.591-1.933-.1.472-1.192-.766-.869,1.41-.819-1.841-.932-1.31-.008-.066a3.706,3.706,0,0,0-.332-1.24,2.575,2.575,0,0,1-.173-.3l-.477,1.352-.824-2.329-.183-.614-1.226.571v-1.551l-1.021.085v-.82l-.523.327-.659-2.037-1.462,5.208-.444-.2c-.078-.035-.314-.141-.666-.938l-.019-.043-.1-1.866-.951-.246L153,193.3l-.065.291V195.7l-.082.083c-.662.673-.951.673-1.06.673a.464.464,0,0,1-.419-.223,5.038,5.038,0,0,1-.229-.679l-.854,1.536L150,195.032l-.177.617-.694,3.578-1.054-1.481-.331.669-.562-.574v1.7l-.785-.642-.687,4.191-.945-3.009-.18-1.162-.525.629-.964-3.314V195.5l-1.21.672v-2.066l-.465-1.512-1.8,2.123v-1.653l-.174.2-1.733,1.128-.978-.733-.94,1.8-.212-.525-1.328,6.452-.541-6.03-1.127,1.077v-4.96l-2.042,3.571v-4.617l-1.935,1.913V128.812H252.852l.007.3.987,45.307-3.256,2.067-4.083-2.58-2.165,4.017-1.843-4.445v3.232l-1.512-3.041V177.2l-2.269-3.04V177.4h-.759v-.5l-1.367,1.3-.54-.873-.708,1.031-1.273-1.544-.582-1.12-2.491,1.5-.889-2.957-1.828,4.254V175.64l-1.176,1.051-.508-1.634-1.166,2.143-.5-3.187-1.153,9.964-1.245-5.807v1.8l-1.208,2.772-.947-1.369v3.775l-1.784-5.674-.713,19.052-.755.036-.492-2.67c-.1.312-.2.646-.32.978a11.132,11.132,0,0,1-.789,1.815c-.243.421-.633.981-1.209.981H214.3l-.909,5.557-1.594-3.035v-1.6L211,202.555l-1-3.1-.624,3.218-1.244-2.724v3.308l-1.806-4.147-.639,3.729-1.019-2.57-.1-.263a.735.735,0,0,1-.215-.25,10.9,10.9,0,0,1-.742-3.056c-.087.534-.172,1.139-.241,1.7l-.086.7-3.269-3c-.107.355-.252.831-.406,1.3-.179.549-.334.988-.46,1.3-.217.542-.356.8-.693.8a1.923,1.923,0,0,1-.964-.411l-.027-.017-1.3,5.73-.753-.055v-3.985l-1.475,4.858v-5.489l-.728.8-1.009-.926v2.767l-.721-1.187a9.279,9.279,0,0,0-1.138-1.594,2.83,2.83,0,0,1-.687-.8l-.874,1.375-.272-.727c-.154-.413-.329-.82-.484-1.138-.027.767.032,1.953.093,2.733l-.752.077-.491-2.036c0,.016-.006.032-.009.047a19.66,19.66,0,0,1-.576,2.012l-.474,1.373-.642-3.388-1.714.7-.245-1.561Zm30.435-3.993.447.85.724-4.426.554.524a.3.3,0,0,0,.047.037c.094-.041.568-.342,1.3-2.449.424-1.225.714-2.433.716-2.445l.421-1.763.494,2.681L218,175.085l1.62,5.153v-1.222l1.548,2.239.607-1.392V174.6l.754-.052,1.025,4.783,1.268-10.953,1.017,6.542.951-1.749.7,2.258,1.545-1.381v.8l1.2-2.787,1.228,4.084,2.349-1.411.93,1.788.541.656.8-1.169.671,1.085,1.2-1.141v-3.992l2.269,3.04v-4.5l1.512,3.041v-3.822l2.695,6.5,1.767-3.279,4.387,2.772,2.491-1.582-.974-44.7H129.372v61.2l1.935-1.913v3.546l2.042-3.571v6.075l.99-.946.215,2.394.791-3.842.544,1.345.571-1.092,1.291.967,1.14-.742,1.491-1.676v1.578l1.373-1.617.9,2.909v.977l1.21-.672v1.822l.547,1.878.686-.823.4,2.57.362-2.211.576.471v-1.967l1.1,1.126.426-.861.761,1.069.368-1.89,1.181-4.117.47,3.386.667-1.2.239.925c.1.4.229.857.321,1.156.069-.058.143-.124.213-.191v-1.95l.842-3.789.7,3.328,1.015.263.115,2.081,1.79-6.38,1.156,3.574.838-.523v1.39l1.021-.085v1.169l.967-.45.419,1.4.086.244.469-1.328.352,1.083a5.687,5.687,0,0,0,.494,1.127,3.954,3.954,0,0,1,.416,1.414l.884,1.243.24.539.493-.8.925.595.5-2.327.317,1.036.293-3.162.811,1.141.393-.884,1.05,1.621v.321l.223-.4v-1.953l.983.518v-.88l.755-.045.541,2.941.218-1.128.568,1.235.2-.814.755.754.334-.814,1.277.143.252.445.632-1.243.065.135V195l1.819,1.037V197.3a7.772,7.772,0,0,0,.4,1.848,3.789,3.789,0,0,0,.66.249l-.293-.939,1.007-1.6,1.266,1.59.456-3.571.756,0,.582,5.256.956-6.5.888,5.656,1.689-.689.244,1.286c.04-.157.077-.311.107-.456a19.2,19.2,0,0,0,0-3.125l.752-.076.453,1.879a1.355,1.355,0,0,1,.057-.241.482.482,0,0,1,.466-.322c.356,0,.588.27.992,1.153.041.09.081.179.118.266l.743-1.168.321.59a4.6,4.6,0,0,0,.79,1.129,3.027,3.027,0,0,1,.638.711V198.4l1.714,1.573,1.541-1.7v2.284l1.475-4.858v5.689l.786-3.464.505.363a8.077,8.077,0,0,0,.841.534,32.846,32.846,0,0,0,1.144-3.429l.167-.581,3.093,2.838c.041-.295.092-.652.149-1.007.08-.5.155-.9.224-1.183.1-.4.185-.777.589-.777s.466.393.5.6a23.446,23.446,0,0,0,.782,4.017.363.363,0,0,1,.219.206c.009.021.023.054.042.1.037.091.1.24.189.474h0l.611-3.563,1.37,3.145V196.52l1.705,3.734.736-3.795,1.268,3.918,1.474-3.655Z" transform="translate(-30.951 -50.16)" fill="#2fad73"/>
        <path id="Path_156" data-name="Path 156" d="M70.856,110.5V88.614l.831.852.3-.379.379-.473.529,1.459v.669l.831.547v-1.52a2.774,2.774,0,0,0,.832-1.4c.037-.183.6-1.7.6-1.7l.605.73.68-.73v1.216l.454,1.277s-.038.973,0,1.155a3.482,3.482,0,0,0,.378,1.034c.151.152.68-1.824.68-1.824s-.189-.638,0-.79a1.234,1.234,0,0,0,.3-.426l.3-.973.831-2.676v-1.7l.832.547a.378.378,0,0,1,0-.547,4.006,4.006,0,0,0,.453-1.277l.529,1.216.529-1.885V99.741l.681,4.926v3.344l.377.851.756-1.094v.973l.983-.791.756.912.378-.79.3.79c-.3-.79.085-4.013.085-4.013a6.537,6.537,0,0,0,.369,1.885c.226.182,1.55-1.855,1.588-1.642s0,2.006,0,2.006l.756.73.378.73a3.779,3.779,0,0,1,.378-1.4c.3-.456.642-1.733.831-1.946a12.82,12.82,0,0,0,.756-1.581s.529,1.915.68,2.311.189,1.186.454,1.277.491-2.249.756-1.034.3,1.52.3,1.52v.547l.983-.547s-.34,1.155,0,1.155,1.059-.152,1.286-.122.34.821.605.912.605-1.277.605-1.277l.68.973.907-1.4.831,1.216.983.608.756.426,1.059-1.034.454.912.983-.608.605.73,1.286-1.216.3-1.763.68,1.52v-2.006l1.286,2.067.756-1.4s-.529,1.064,0,1.216,0,.912,0,.912l.235-5.047.521,1.338.378-1.155,1.059,1.885-.378-4.318,1.059,1.338.53-1.338.68,1.459v-1.581l.68.851.529,1.034v-3.314l.68,2.98.756-.608V110.5Z" transform="translate(-17.052 -31.547)" fill="#fe746e"/>
        <path id="Path_157" data-name="Path 157" d="M115.353,109.063h-45V85.984l1.18,1.209.844-1.054.777,2.144v.568l.072.047v-.976l.073-.08a2.565,2.565,0,0,0,.762-1.256l0-.012c.038-.187.481-1.379.615-1.74l.232-.621.755.91,1.042-1.117v2.089l.456,1.282,0,.048a10.661,10.661,0,0,0,0,1.1c.009.043.021.093.035.147.088-.275.18-.59.26-.886-.1-.356-.143-.8.12-1.008a.929.929,0,0,0,.206-.3l1.119-3.6V80.569l.837.55a.919.919,0,0,1,.064-.082,3.564,3.564,0,0,0,.389-1.149l.234-1.2.591,1.359L82,76.528v21.45l.681,4.926v3.308l.074.166,1.06-1.534v1.413l.663-.533.606.731.277-.579c.009-1.156.174-2.577.2-2.8l.757.009a12.953,12.953,0,0,0,.179,1.342c.174-.2.376-.46.511-.631s.259-.33.36-.449a.667.667,0,0,1,.513-.319.376.376,0,0,1,.391.278c.036.2.016,1.421.006,1.941l.563.544a2.068,2.068,0,0,1,.232-.518,6.555,6.555,0,0,0,.451-1.066,3.328,3.328,0,0,1,.407-.913,12.013,12.013,0,0,0,.705-1.5l.433-1.046.3,1.076c.005.019.528,1.908.673,2.287a2.673,2.673,0,0,1,.1.355c.026-.089.053-.174.079-.247a.548.548,0,0,1,.507-.431c.4,0,.485.378.534.6.252,1.157.3,1.5.306,1.539l1.2-.67-.228.774a3.536,3.536,0,0,0-.141.763c.107-.012.228-.029.341-.044a5.367,5.367,0,0,1,.643-.065,1.016,1.016,0,0,1,.136.008c.317.043.441.3.56.577a6.809,6.809,0,0,0,.215-.7l.2-.808.839,1.2.911-1.4,1.135,1.66.913.565.462.26,1.243-1.214.506,1.016.907-.561.551.665.888-.84.5-2.9.466,1.042v-1.55l1.641,2.639.432-.8.072.024.215-4.6.786,2.019.315-.963.625,1.113-.334-3.816,1.427,1.8.616-1.555.33.707v-.936l1.21,1.513v-1.9l.753-.055.55,2.408.893-.718Zm-7.139-.611h6.38v-6.406l-.619.5-.058-.253v1.5l-1.21-2.363v2.2l-1.031-2.211-.444,1.12-.69-.872.422,4.819-1.492-2.656-.441,1.348-.256-.657-.1,2.224a.556.556,0,0,1,.147.212,1.234,1.234,0,0,1-.244.977Zm-1.633,0h1.251l.065-1.39-.386.714-.93-1.5Zm-2.148,0h2.018l-.764-1.707-.107.622Zm-1.659,0h.7l-.238-.287Zm-1.448,0H102l-.219-.441Zm-30.21,0h29.053l-.323-.182-1.046-.647-.528-.773-.9,1.393-.554-.793c-.18.487-.364.766-.718.766a.537.537,0,0,1-.175-.029c-.291-.1-.407-.377-.531-.671-.028-.065-.065-.153-.1-.216-.115.01-.273.031-.417.051a5.789,5.789,0,0,1-.7.069.536.536,0,0,1-.383-.15.752.752,0,0,1-.138-.649l-.842.469v-1.113c-.007-.048-.037-.237-.129-.691l-.02.056a.559.559,0,0,1-.514.439.5.5,0,0,1-.166-.028c-.363-.125-.445-.512-.548-1a3.525,3.525,0,0,0-.118-.465c-.078-.2-.246-.774-.4-1.3a3.622,3.622,0,0,1-.365.657,5.365,5.365,0,0,0-.3.732,6.472,6.472,0,0,1-.509,1.183,3.417,3.417,0,0,0-.334,1.274l-.1,1.3-.981-1.894-.81-.781,0-.113c.008-.364.013-.747.016-1.078-.651.822-.875,1.035-1.189,1.035a.512.512,0,0,1-.2-.041,6.081,6.081,0,0,0,.078,1.763l.065.17,0,.013.014.037h0a.266.266,0,0,1-.115.323l-.19.13-.224-.089a.3.3,0,0,1-.192-.186h0l-.04-.1-.021-.054,0-.009-.247.516-.906-1.093-1.3,1.049V107.2l-.452.655-.681-1.536v-3.38l-.681-4.926V82l-.071.252-.537-1.234a1.446,1.446,0,0,1-.213.365c-.093.107-.029.168-.026.171L79.873,82l-.212-.14v1.1l-1.154,3.707a1.547,1.547,0,0,1-.361.518,1.428,1.428,0,0,0,.068.532l.02.067-.018.068s-.126.469-.27.927c-.086.273-.162.492-.227.65-.09.221-.2.5-.536.5a.444.444,0,0,1-.315-.123,1.506,1.506,0,0,1-.3-.618c-.077-.234-.135-.465-.154-.556a9.176,9.176,0,0,1-.007-1.167l-.452-1.273v-.342l-.319.342-.454-.547c-.189.516-.346.962-.363,1.041l0,.012a2.954,2.954,0,0,1-.825,1.435v2.066L72.4,89.141v-.77l-.281-.775-.519.65-.483-.495Z" transform="translate(-16.931 -29.8)" fill="#d64c4c"/>
        <rect id="Rectangle_47" data-name="Rectangle 47" width="1.362" height="157.61" transform="translate(221.83 0.153)" fill="#2b73ba"/>
      </g>
    </g>
    <path id="Path_1168" data-name="Path 1168" d="M5.249,0H.591V-.649L3.052-3.384a5.847,5.847,0,0,0,.754-1.008,1.683,1.683,0,0,0,.208-.8,1.276,1.276,0,0,0-.337-.913,1.178,1.178,0,0,0-.9-.356,1.4,1.4,0,0,0-1.047.383,1.464,1.464,0,0,0-.374,1.067h-.9A2.1,2.1,0,0,1,1.086-6.6a2.344,2.344,0,0,1,1.692-.605,2.252,2.252,0,0,1,1.567.52A1.774,1.774,0,0,1,4.922-5.3,4.067,4.067,0,0,1,3.584-2.8L1.68-.737H5.249Zm5.415-3.032a4.131,4.131,0,0,1-.542,2.358A1.928,1.928,0,0,1,8.428.1,1.942,1.942,0,0,1,6.743-.657,3.921,3.921,0,0,1,6.177-2.91V-4.116a4.039,4.039,0,0,1,.542-2.329,1.942,1.942,0,0,1,1.7-.762,1.96,1.96,0,0,1,1.689.735A3.9,3.9,0,0,1,10.664-4.2Zm-.9-1.235A3.31,3.31,0,0,0,9.438-5.94a1.109,1.109,0,0,0-1.021-.525,1.1,1.1,0,0,0-1.011.522A3.232,3.232,0,0,0,7.08-4.336v1.445a3.363,3.363,0,0,0,.334,1.7A1.107,1.107,0,0,0,8.428-.64a1.092,1.092,0,0,0,.994-.518,3.241,3.241,0,0,0,.339-1.631Zm6.519,1.235a4.131,4.131,0,0,1-.542,2.358A1.928,1.928,0,0,1,14.043.1a1.942,1.942,0,0,1-1.685-.754,3.921,3.921,0,0,1-.566-2.253V-4.116a4.039,4.039,0,0,1,.542-2.329,1.942,1.942,0,0,1,1.7-.762,1.96,1.96,0,0,1,1.689.735A3.9,3.9,0,0,1,16.279-4.2Zm-.9-1.235a3.31,3.31,0,0,0-.322-1.672,1.109,1.109,0,0,0-1.021-.525,1.1,1.1,0,0,0-1.011.522A3.232,3.232,0,0,0,12.7-4.336v1.445a3.363,3.363,0,0,0,.334,1.7,1.107,1.107,0,0,0,1.013.549,1.092,1.092,0,0,0,.994-.518,3.241,3.241,0,0,0,.339-1.631Z" transform="translate(228.5 479.991)" fill="#a1a1a1"/>
    <path id="Path_1165" data-name="Path 1165" d="M3.56,0H2.651V-6.021L.83-5.352v-.82l2.588-.972H3.56Zm7.1-3.032a4.131,4.131,0,0,1-.542,2.358A1.928,1.928,0,0,1,8.428.1,1.942,1.942,0,0,1,6.743-.657,3.921,3.921,0,0,1,6.177-2.91V-4.116a4.039,4.039,0,0,1,.542-2.329,1.942,1.942,0,0,1,1.7-.762,1.96,1.96,0,0,1,1.689.735A3.9,3.9,0,0,1,10.664-4.2Zm-.9-1.235A3.31,3.31,0,0,0,9.438-5.94a1.109,1.109,0,0,0-1.021-.525,1.1,1.1,0,0,0-1.011.522A3.232,3.232,0,0,0,7.08-4.336v1.445a3.363,3.363,0,0,0,.334,1.7A1.107,1.107,0,0,0,8.428-.64a1.092,1.092,0,0,0,.994-.518,3.241,3.241,0,0,0,.339-1.631Zm6.519,1.235a4.131,4.131,0,0,1-.542,2.358A1.928,1.928,0,0,1,14.043.1a1.942,1.942,0,0,1-1.685-.754,3.921,3.921,0,0,1-.566-2.253V-4.116a4.039,4.039,0,0,1,.542-2.329,1.942,1.942,0,0,1,1.7-.762,1.96,1.96,0,0,1,1.689.735A3.9,3.9,0,0,1,16.279-4.2Zm-.9-1.235a3.31,3.31,0,0,0-.322-1.672,1.109,1.109,0,0,0-1.021-.525,1.1,1.1,0,0,0-1.011.522A3.232,3.232,0,0,0,12.7-4.336v1.445a3.363,3.363,0,0,0,.334,1.7,1.107,1.107,0,0,0,1.013.549,1.092,1.092,0,0,0,.994-.518,3.241,3.241,0,0,0,.339-1.631Z" transform="translate(228.5 505.991)" fill="#a1a1a1"/>
    <path id="Path_1162" data-name="Path 1162" d="M2.563-2.651H.181v-.737H2.563ZM6.318,0H5.41V-6.021l-1.821.669v-.82l2.588-.972h.142Zm7.1-3.032a4.131,4.131,0,0,1-.542,2.358A1.928,1.928,0,0,1,11.187.1,1.942,1.942,0,0,1,9.5-.657,3.921,3.921,0,0,1,8.936-2.91V-4.116a4.039,4.039,0,0,1,.542-2.329,1.942,1.942,0,0,1,1.7-.762,1.96,1.96,0,0,1,1.689.735A3.9,3.9,0,0,1,13.423-4.2Zm-.9-1.235A3.31,3.31,0,0,0,12.2-5.94a1.109,1.109,0,0,0-1.021-.525,1.1,1.1,0,0,0-1.011.522,3.232,3.232,0,0,0-.327,1.606v1.445a3.363,3.363,0,0,0,.334,1.7,1.107,1.107,0,0,0,1.013.549,1.092,1.092,0,0,0,.994-.518,3.241,3.241,0,0,0,.339-1.631Zm6.519,1.235A4.131,4.131,0,0,1,18.5-.674,1.928,1.928,0,0,1,16.8.1a1.942,1.942,0,0,1-1.685-.754,3.921,3.921,0,0,1-.566-2.253V-4.116a4.039,4.039,0,0,1,.542-2.329,1.942,1.942,0,0,1,1.7-.762,1.96,1.96,0,0,1,1.689.735A3.9,3.9,0,0,1,19.038-4.2Zm-.9-1.235a3.31,3.31,0,0,0-.322-1.672,1.109,1.109,0,0,0-1.021-.525,1.1,1.1,0,0,0-1.011.522,3.232,3.232,0,0,0-.327,1.606v1.445a3.363,3.363,0,0,0,.334,1.7A1.107,1.107,0,0,0,16.8-.64a1.092,1.092,0,0,0,.994-.518,3.241,3.241,0,0,0,.339-1.631Z" transform="translate(223.75 557.991)" fill="#a1a1a1"/>
    <path id="Path_1163" data-name="Path 1163" d="M2.563-2.651H.181v-.737H2.563ZM8.008,0H3.35V-.649L5.811-3.384a5.847,5.847,0,0,0,.754-1.008,1.683,1.683,0,0,0,.208-.8,1.276,1.276,0,0,0-.337-.913,1.178,1.178,0,0,0-.9-.356,1.4,1.4,0,0,0-1.047.383,1.464,1.464,0,0,0-.374,1.067h-.9A2.1,2.1,0,0,1,3.845-6.6a2.344,2.344,0,0,1,1.692-.605,2.252,2.252,0,0,1,1.567.52A1.774,1.774,0,0,1,7.681-5.3,4.067,4.067,0,0,1,6.343-2.8L4.438-.737H8.008Zm5.415-3.032a4.131,4.131,0,0,1-.542,2.358A1.928,1.928,0,0,1,11.187.1,1.942,1.942,0,0,1,9.5-.657,3.921,3.921,0,0,1,8.936-2.91V-4.116a4.039,4.039,0,0,1,.542-2.329,1.942,1.942,0,0,1,1.7-.762,1.96,1.96,0,0,1,1.689.735A3.9,3.9,0,0,1,13.423-4.2Zm-.9-1.235A3.31,3.31,0,0,0,12.2-5.94a1.109,1.109,0,0,0-1.021-.525,1.1,1.1,0,0,0-1.011.522,3.232,3.232,0,0,0-.327,1.606v1.445a3.363,3.363,0,0,0,.334,1.7,1.107,1.107,0,0,0,1.013.549,1.092,1.092,0,0,0,.994-.518,3.241,3.241,0,0,0,.339-1.631Zm6.519,1.235A4.131,4.131,0,0,1,18.5-.674,1.928,1.928,0,0,1,16.8.1a1.942,1.942,0,0,1-1.685-.754,3.921,3.921,0,0,1-.566-2.253V-4.116a4.039,4.039,0,0,1,.542-2.329,1.942,1.942,0,0,1,1.7-.762,1.96,1.96,0,0,1,1.689.735A3.9,3.9,0,0,1,19.038-4.2Zm-.9-1.235a3.31,3.31,0,0,0-.322-1.672,1.109,1.109,0,0,0-1.021-.525,1.1,1.1,0,0,0-1.011.522,3.232,3.232,0,0,0-.327,1.606v1.445a3.363,3.363,0,0,0,.334,1.7A1.107,1.107,0,0,0,16.8-.64a1.092,1.092,0,0,0,.994-.518,3.241,3.241,0,0,0,.339-1.631Z" transform="translate(223.75 583.991)" fill="#a1a1a1"/>
    <path id="Path_1161" data-name="Path 1161" d="M4.039-2.426A3.305,3.305,0,0,1,3.605-.539,1.542,1.542,0,0,1,2.25.078,1.553,1.553,0,0,1,.9-.525a3.137,3.137,0,0,1-.453-1.8v-.965A3.232,3.232,0,0,1,.883-5.156a1.554,1.554,0,0,1,1.359-.609,1.568,1.568,0,0,1,1.352.588,3.119,3.119,0,0,1,.445,1.814Zm-.723-.988a2.648,2.648,0,0,0-.258-1.338.887.887,0,0,0-.816-.42.876.876,0,0,0-.809.418,2.585,2.585,0,0,0-.262,1.285v1.156A2.69,2.69,0,0,0,1.439-.951a.886.886,0,0,0,.811.439.874.874,0,0,0,.795-.414,2.593,2.593,0,0,0,.271-1.3ZM7.8-5.691v.613H7.668a1.9,1.9,0,0,0-1.344.5,2.081,2.081,0,0,0-.578,1.363A1.543,1.543,0,0,1,6.973-3.73a1.475,1.475,0,0,1,1.186.523A2.019,2.019,0,0,1,8.6-1.855,2.013,2.013,0,0,1,8.123-.449,1.648,1.648,0,0,1,6.84.078,1.623,1.623,0,0,1,5.516-.549a2.485,2.485,0,0,1-.508-1.615v-.277a3.744,3.744,0,0,1,.67-2.4,2.46,2.46,0,0,1,1.994-.85ZM6.852-3.129a1.153,1.153,0,0,0-.684.223,1.16,1.16,0,0,0-.434.559v.266A1.866,1.866,0,0,0,6.051-.949a.948.948,0,0,0,.789.43.919.919,0,0,0,.768-.359,1.491,1.491,0,0,0,.279-.941A1.492,1.492,0,0,0,7.6-2.768.908.908,0,0,0,6.852-3.129Zm5.523.9V0h-.75V-5.687h2.1a2.107,2.107,0,0,1,1.463.477,1.616,1.616,0,0,1,.529,1.262A1.594,1.594,0,0,1,15.2-2.674a2.2,2.2,0,0,1-1.482.447Zm0-.613h1.348a1.347,1.347,0,0,0,.922-.284,1.037,1.037,0,0,0,.32-.82,1.072,1.072,0,0,0-.32-.814,1.262,1.262,0,0,0-.879-.317H12.375Zm5.266-2.848L19.5-1.047l1.859-4.641h.973V0h-.75V-2.215l.07-2.391L19.785,0h-.574L17.348-4.594l.074,2.379V0h-.75V-5.687Z" transform="translate(256 618.672)" fill="#a1a1a1"/>
    <path id="Path_1156" data-name="Path 1156" d="M1.629-5.687,3.488-1.047,5.348-5.687H6.32V0H5.57V-2.215l.07-2.391L3.773,0H3.2L1.336-4.594,1.41-2.215V0H.66V-5.687ZM7.34-2.152A2.5,2.5,0,0,1,7.584-3.27a1.821,1.821,0,0,1,.68-.766,1.85,1.85,0,0,1,.994-.27,1.782,1.782,0,0,1,1.4.6,2.3,2.3,0,0,1,.533,1.59v.051a2.518,2.518,0,0,1-.236,1.107,1.794,1.794,0,0,1-.676.764,1.871,1.871,0,0,1-1.01.273,1.778,1.778,0,0,1-1.393-.6A2.288,2.288,0,0,1,7.34-2.1Zm.727.086A1.808,1.808,0,0,0,8.393-.937a1.044,1.044,0,0,0,.873.426,1.038,1.038,0,0,0,.875-.432,1.977,1.977,0,0,0,.324-1.209,1.805,1.805,0,0,0-.33-1.127,1.049,1.049,0,0,0-.877-.432,1.038,1.038,0,0,0-.863.426A1.963,1.963,0,0,0,8.066-2.066Zm4.711-2.16L12.8-3.7A1.54,1.54,0,0,1,14.066-4.3q1.34,0,1.352,1.512V0H14.7V-2.8a.973.973,0,0,0-.209-.676.837.837,0,0,0-.639-.219,1.043,1.043,0,0,0-.617.188,1.273,1.273,0,0,0-.414.492V0h-.723V-4.227ZM20.789,0h-.727V-4.816l-1.457.535v-.656l2.07-.777h.113Zm5.844,0H22.906V-.52l1.969-2.187a4.677,4.677,0,0,0,.6-.807,1.346,1.346,0,0,0,.166-.643,1.02,1.02,0,0,0-.27-.73.942.942,0,0,0-.719-.285,1.116,1.116,0,0,0-.838.307,1.171,1.171,0,0,0-.3.854H22.8a1.677,1.677,0,0,1,.506-1.27,1.875,1.875,0,0,1,1.354-.484,1.8,1.8,0,0,1,1.254.416,1.419,1.419,0,0,1,.461,1.107,3.253,3.253,0,0,1-1.07,2L23.777-.59h2.855Z" transform="translate(305 618.672)" fill="#a1a1a1"/>
    <path id="Path_1157" data-name="Path 1157" d="M4.039-2.426A3.305,3.305,0,0,1,3.605-.539,1.542,1.542,0,0,1,2.25.078,1.553,1.553,0,0,1,.9-.525a3.137,3.137,0,0,1-.453-1.8v-.965A3.232,3.232,0,0,1,.883-5.156a1.554,1.554,0,0,1,1.359-.609,1.568,1.568,0,0,1,1.352.588,3.119,3.119,0,0,1,.445,1.814Zm-.723-.988a2.648,2.648,0,0,0-.258-1.338.887.887,0,0,0-.816-.42.876.876,0,0,0-.809.418,2.585,2.585,0,0,0-.262,1.285v1.156A2.69,2.69,0,0,0,1.439-.951a.886.886,0,0,0,.811.439.874.874,0,0,0,.795-.414,2.593,2.593,0,0,0,.271-1.3ZM7.8-5.691v.613H7.668a1.9,1.9,0,0,0-1.344.5,2.081,2.081,0,0,0-.578,1.363A1.543,1.543,0,0,1,6.973-3.73a1.475,1.475,0,0,1,1.186.523A2.019,2.019,0,0,1,8.6-1.855,2.013,2.013,0,0,1,8.123-.449,1.648,1.648,0,0,1,6.84.078,1.623,1.623,0,0,1,5.516-.549a2.485,2.485,0,0,1-.508-1.615v-.277a3.744,3.744,0,0,1,.67-2.4,2.46,2.46,0,0,1,1.994-.85ZM6.852-3.129a1.153,1.153,0,0,0-.684.223,1.16,1.16,0,0,0-.434.559v.266A1.866,1.866,0,0,0,6.051-.949a.948.948,0,0,0,.789.43.919.919,0,0,0,.768-.359,1.491,1.491,0,0,0,.279-.941A1.492,1.492,0,0,0,7.6-2.768.908.908,0,0,0,6.852-3.129Zm7.914,1.641H12.383L11.848,0h-.773l2.172-5.687H13.9L16.078,0h-.77ZM12.609-2.1h1.934l-.969-2.66Zm5.2-3.586,1.859,4.641,1.859-4.641H22.5V0h-.75V-2.215l.07-2.391L19.957,0h-.574L17.52-4.594l.074,2.379V0h-.75V-5.687Z" transform="translate(358 618.672)" fill="#a1a1a1"/>
    <path id="Path_1158" data-name="Path 1158" d="M2.848,0H2.121V-4.816L.664-4.281v-.656l2.07-.777h.113ZM8.691,0H4.965V-.52L6.934-2.707a4.677,4.677,0,0,0,.6-.807A1.346,1.346,0,0,0,7.7-4.156a1.02,1.02,0,0,0-.27-.73.942.942,0,0,0-.719-.285,1.116,1.116,0,0,0-.838.307,1.171,1.171,0,0,0-.3.854H4.855a1.677,1.677,0,0,1,.506-1.27,1.875,1.875,0,0,1,1.354-.484,1.8,1.8,0,0,1,1.254.416A1.419,1.419,0,0,1,8.43-4.242a3.253,3.253,0,0,1-1.07,2L5.836-.59H8.691Zm3.684-2.227V0h-.75V-5.687h2.1a2.107,2.107,0,0,1,1.463.477,1.616,1.616,0,0,1,.529,1.262A1.594,1.594,0,0,1,15.2-2.674a2.2,2.2,0,0,1-1.482.447Zm0-.613h1.348a1.347,1.347,0,0,0,.922-.284,1.037,1.037,0,0,0,.32-.82,1.072,1.072,0,0,0-.32-.814,1.262,1.262,0,0,0-.879-.317H12.375Zm5.266-2.848L19.5-1.047l1.859-4.641h.973V0h-.75V-2.215l.07-2.391L19.785,0h-.574L17.348-4.594l.074,2.379V0h-.75V-5.687Z" transform="translate(407 618.672)" fill="#a1a1a1"/>
    <path id="Path_1159" data-name="Path 1159" d="M4.039-2.426A3.305,3.305,0,0,1,3.605-.539,1.542,1.542,0,0,1,2.25.078,1.553,1.553,0,0,1,.9-.525a3.137,3.137,0,0,1-.453-1.8v-.965A3.232,3.232,0,0,1,.883-5.156a1.554,1.554,0,0,1,1.359-.609,1.568,1.568,0,0,1,1.352.588,3.119,3.119,0,0,1,.445,1.814Zm-.723-.988a2.648,2.648,0,0,0-.258-1.338.887.887,0,0,0-.816-.42.876.876,0,0,0-.809.418,2.585,2.585,0,0,0-.262,1.285v1.156A2.69,2.69,0,0,0,1.439-.951a.886.886,0,0,0,.811.439.874.874,0,0,0,.795-.414,2.593,2.593,0,0,0,.271-1.3ZM7.8-5.691v.613H7.668a1.9,1.9,0,0,0-1.344.5,2.081,2.081,0,0,0-.578,1.363A1.543,1.543,0,0,1,6.973-3.73a1.475,1.475,0,0,1,1.186.523A2.019,2.019,0,0,1,8.6-1.855,2.013,2.013,0,0,1,8.123-.449,1.648,1.648,0,0,1,6.84.078,1.623,1.623,0,0,1,5.516-.549a2.485,2.485,0,0,1-.508-1.615v-.277a3.744,3.744,0,0,1,.67-2.4,2.46,2.46,0,0,1,1.994-.85ZM6.852-3.129a1.153,1.153,0,0,0-.684.223,1.16,1.16,0,0,0-.434.559v.266A1.866,1.866,0,0,0,6.051-.949a.948.948,0,0,0,.789.43.919.919,0,0,0,.768-.359,1.491,1.491,0,0,0,.279-.941A1.492,1.492,0,0,0,7.6-2.768.908.908,0,0,0,6.852-3.129Zm5.523.9V0h-.75V-5.687h2.1a2.107,2.107,0,0,1,1.463.477,1.616,1.616,0,0,1,.529,1.262A1.594,1.594,0,0,1,15.2-2.674a2.2,2.2,0,0,1-1.482.447Zm0-.613h1.348a1.347,1.347,0,0,0,.922-.284,1.037,1.037,0,0,0,.32-.82,1.072,1.072,0,0,0-.32-.814,1.262,1.262,0,0,0-.879-.317H12.375Zm5.266-2.848L19.5-1.047l1.859-4.641h.973V0h-.75V-2.215l.07-2.391L19.785,0h-.574L17.348-4.594l.074,2.379V0h-.75V-5.687Z" transform="translate(456 618.672)" fill="#a1a1a1"/>
    <path id="Path_1164" data-name="Path 1164" d="M5.049-3.032A4.131,4.131,0,0,1,4.507-.674,1.928,1.928,0,0,1,2.813.1,1.942,1.942,0,0,1,1.128-.657,3.921,3.921,0,0,1,.562-2.91V-4.116A4.039,4.039,0,0,1,1.1-6.445a1.942,1.942,0,0,1,1.7-.762,1.96,1.96,0,0,1,1.689.735A3.9,3.9,0,0,1,5.049-4.2Zm-.9-1.235A3.31,3.31,0,0,0,3.823-5.94,1.109,1.109,0,0,0,2.8-6.465a1.1,1.1,0,0,0-1.011.522,3.232,3.232,0,0,0-.327,1.606v1.445a3.363,3.363,0,0,0,.334,1.7A1.107,1.107,0,0,0,2.813-.64a1.092,1.092,0,0,0,.994-.518,3.241,3.241,0,0,0,.339-1.631Z" transform="translate(239.5 531.991)" fill="#a1a1a1"/>
    <g id="Group_125" data-name="Group 125" transform="translate(527.75 588)">
      <g id="Group_124" data-name="Group 124" transform="translate(0 0)" clip-path="url(#clip-path-4)">
        <path id="Path_157-2" data-name="Path 157" d="M224.162,28.031H3.246c-1.51,0-2.746-.9-2.746-2V9.5c0-1.1,1.236-2,2.746-2H107.961L113.7.932,119.446,7.5H224.162c1.51,0,2.746.9,2.746,2V26.033C226.908,27.132,225.672,28.031,224.162,28.031Z" transform="translate(-0.225 -0.559)" fill="#fff" stroke="rgba(165,170,188,0.5)" stroke-miterlimit="10" stroke-width="1"/>
      </g>
    </g>
    <path id="Path_1160" data-name="Path 1160" d="M5.594-2.131A2.264,2.264,0,0,1,4.832-.505,2.678,2.678,0,0,1,3.019.088,2.408,2.408,0,0,1,1.083-.74,3.4,3.4,0,0,1,.378-3.015v-.391A3.836,3.836,0,0,1,.7-5.032a2.437,2.437,0,0,1,.929-1.079,2.6,2.6,0,0,1,1.4-.376,2.609,2.609,0,0,1,1.784.593A2.433,2.433,0,0,1,5.6-4.228H4.285a1.336,1.336,0,0,0-.345-.9,1.277,1.277,0,0,0-.9-.279,1.12,1.12,0,0,0-.987.472,2.648,2.648,0,0,0-.336,1.466v.483a2.834,2.834,0,0,0,.314,1.516,1.1,1.1,0,0,0,.991.479,1.3,1.3,0,0,0,.912-.279,1.26,1.26,0,0,0,.345-.864ZM7.717,0H6.442V-6.75H7.717ZM10.1,0H8.829V-4.755H10.1ZM8.754-5.985a.625.625,0,0,1,.191-.47.718.718,0,0,1,.521-.185.72.72,0,0,1,.519.185.622.622,0,0,1,.193.47.624.624,0,0,1-.2.475.722.722,0,0,1-.516.185.722.722,0,0,1-.516-.185A.624.624,0,0,1,8.754-5.985ZM13.126-.936a.833.833,0,0,0,.571-.193.677.677,0,0,0,.229-.514h1.191a1.629,1.629,0,0,1-.264.885,1.74,1.74,0,0,1-.71.624,2.221,2.221,0,0,1-1,.222A2.064,2.064,0,0,1,11.54-.56a2.565,2.565,0,0,1-.589-1.791v-.083a2.536,2.536,0,0,1,.584-1.753,2.04,2.04,0,0,1,1.6-.655,2,2,0,0,1,1.43.508,1.8,1.8,0,0,1,.547,1.351H13.926a.873.873,0,0,0-.229-.6.762.762,0,0,0-.58-.232.765.765,0,0,0-.67.323,1.875,1.875,0,0,0-.226,1.05v.132a1.9,1.9,0,0,0,.224,1.056A.775.775,0,0,0,13.126-.936Zm4.443-.971-.457.457V0h-1.27V-6.75h1.27v3.74l.246-.316,1.217-1.428H20.1L18.382-2.773,20.25,0H18.791ZM24.13-4.236a1.585,1.585,0,0,1,1.27-.606q1.547,0,1.569,1.8V0H25.7V-3.01a.883.883,0,0,0-.176-.6.754.754,0,0,0-.584-.2.864.864,0,0,0-.809.431V0H22.86V-6.75h1.27ZM30.116.088a2.334,2.334,0,0,1-1.7-.642,2.281,2.281,0,0,1-.657-1.709v-.123a2.872,2.872,0,0,1,.277-1.281,2.032,2.032,0,0,1,.784-.87,2.2,2.2,0,0,1,1.158-.305,1.973,1.973,0,0,1,1.536.615,2.5,2.5,0,0,1,.56,1.745v.519H29.043a1.18,1.18,0,0,0,.371.747,1.123,1.123,0,0,0,.784.281,1.371,1.371,0,0,0,1.147-.532l.624.7a1.907,1.907,0,0,1-.773.631A2.538,2.538,0,0,1,30.116.088Zm-.145-3.907a.794.794,0,0,0-.613.256,1.326,1.326,0,0,0-.3.733h1.767v-.1a.946.946,0,0,0-.229-.655A.819.819,0,0,0,29.971-3.819Zm5.493.255a3.45,3.45,0,0,0-.457-.035.93.93,0,0,0-.945.488V0h-1.27V-4.755h1.2l.035.567a1.177,1.177,0,0,1,1.059-.655,1.331,1.331,0,0,1,.4.057ZM38.18.088a2.334,2.334,0,0,1-1.7-.642,2.281,2.281,0,0,1-.657-1.709v-.123A2.872,2.872,0,0,1,36.1-3.667a2.032,2.032,0,0,1,.784-.87,2.2,2.2,0,0,1,1.158-.305,1.973,1.973,0,0,1,1.536.615,2.5,2.5,0,0,1,.56,1.745v.519H37.107a1.18,1.18,0,0,0,.371.747,1.123,1.123,0,0,0,.784.281,1.371,1.371,0,0,0,1.147-.532l.624.7a1.907,1.907,0,0,1-.773.631A2.538,2.538,0,0,1,38.18.088Zm-.145-3.907a.794.794,0,0,0-.613.256,1.326,1.326,0,0,0-.3.733h1.767v-.1a.946.946,0,0,0-.229-.655A.819.819,0,0,0,38.035-3.819Zm6.583-2.1v1.169h.813v.932h-.813V-1.45a.567.567,0,0,0,.1.378.508.508,0,0,0,.387.114,2.025,2.025,0,0,0,.374-.031v.962a2.615,2.615,0,0,1-.769.114,1.213,1.213,0,0,1-1.362-1.349V-3.823h-.694v-.932h.694V-5.924Zm1.191,3.5a2.82,2.82,0,0,1,.272-1.261,2,2,0,0,1,.784-.857,2.289,2.289,0,0,1,1.189-.3,2.165,2.165,0,0,1,1.571.589,2.363,2.363,0,0,1,.679,1.6l.009.325A2.485,2.485,0,0,1,49.7-.573a2.123,2.123,0,0,1-1.639.661,2.134,2.134,0,0,1-1.641-.659,2.529,2.529,0,0,1-.613-1.793Zm1.27.09a1.777,1.777,0,0,0,.255,1.036.841.841,0,0,0,.729.359.843.843,0,0,0,.721-.354,1.945,1.945,0,0,0,.259-1.133,1.76,1.76,0,0,0-.259-1.03.843.843,0,0,0-.729-.365.829.829,0,0,0-.721.363A1.978,1.978,0,0,0,47.079-2.331Zm8.038.78L56-4.755h1.327L55.723,0H54.51l-1.6-4.755h1.327ZM59.225,0H57.951V-4.755h1.274ZM57.876-5.985a.625.625,0,0,1,.191-.47.718.718,0,0,1,.521-.185.72.72,0,0,1,.519.185.622.622,0,0,1,.193.47.624.624,0,0,1-.2.475.722.722,0,0,1-.516.185.722.722,0,0,1-.516-.185A.624.624,0,0,1,57.876-5.985ZM62.459.088a2.334,2.334,0,0,1-1.7-.642A2.281,2.281,0,0,1,60.1-2.263v-.123a2.872,2.872,0,0,1,.277-1.281,2.032,2.032,0,0,1,.784-.87,2.2,2.2,0,0,1,1.158-.305,1.973,1.973,0,0,1,1.536.615,2.5,2.5,0,0,1,.56,1.745v.519H61.387a1.18,1.18,0,0,0,.371.747,1.123,1.123,0,0,0,.784.281,1.371,1.371,0,0,0,1.147-.532l.624.7a1.907,1.907,0,0,1-.773.631A2.538,2.538,0,0,1,62.459.088Zm-.145-3.907a.794.794,0,0,0-.613.256,1.326,1.326,0,0,0-.3.733h1.767v-.1a.946.946,0,0,0-.229-.655A.819.819,0,0,0,62.314-3.819Zm6.957,2.092L69.9-4.755h1.226L69.908,0H68.845l-.9-2.993L67.043,0H65.984L64.771-4.755H66l.62,3.023.87-3.023h.918Zm9.356-3.6h-1.96V0H75.349V-5.331H73.415V-6.4h5.212Zm1.907,1.094a1.585,1.585,0,0,1,1.27-.606q1.547,0,1.569,1.8V0H82.1V-3.01a.883.883,0,0,0-.176-.6.754.754,0,0,0-.584-.2.864.864,0,0,0-.809.431V0h-1.27V-6.75h1.27ZM87-3.564a3.45,3.45,0,0,0-.457-.035.93.93,0,0,0-.945.488V0h-1.27V-4.755h1.2l.035.567a1.177,1.177,0,0,1,1.059-.655,1.331,1.331,0,0,1,.4.057ZM89.719.088a2.334,2.334,0,0,1-1.7-.642,2.281,2.281,0,0,1-.657-1.709v-.123a2.872,2.872,0,0,1,.277-1.281,2.032,2.032,0,0,1,.784-.87,2.2,2.2,0,0,1,1.158-.305,1.973,1.973,0,0,1,1.536.615,2.5,2.5,0,0,1,.56,1.745v.519H88.646a1.18,1.18,0,0,0,.371.747,1.123,1.123,0,0,0,.784.281,1.371,1.371,0,0,0,1.147-.532l.624.7a1.907,1.907,0,0,1-.773.631A2.538,2.538,0,0,1,89.719.088Zm-.145-3.907a.794.794,0,0,0-.613.256,1.326,1.326,0,0,0-.3.733h1.767v-.1a.946.946,0,0,0-.229-.655A.819.819,0,0,0,89.574-3.819Zm5.4,2.5a.409.409,0,0,0-.231-.367A2.621,2.621,0,0,0,94-1.92q-1.7-.356-1.7-1.441a1.307,1.307,0,0,1,.525-1.057A2.118,2.118,0,0,1,94.2-4.843a2.28,2.28,0,0,1,1.448.426,1.343,1.343,0,0,1,.543,1.107h-1.27a.615.615,0,0,0-.176-.45.744.744,0,0,0-.549-.178.76.76,0,0,0-.5.145.458.458,0,0,0-.176.369.391.391,0,0,0,.2.341,2.057,2.057,0,0,0,.675.224,5.51,5.51,0,0,1,.8.213,1.314,1.314,0,0,1,1.006,1.279,1.24,1.24,0,0,1-.558,1.052,2.408,2.408,0,0,1-1.441.4,2.515,2.515,0,0,1-1.061-.213,1.781,1.781,0,0,1-.727-.584,1.358,1.358,0,0,1-.264-.8h1.2a.663.663,0,0,0,.25.519.994.994,0,0,0,.624.18.92.92,0,0,0,.552-.138A.431.431,0,0,0,94.97-1.314Zm3.292-2.922a1.585,1.585,0,0,1,1.27-.606q1.547,0,1.569,1.8V0h-1.27V-3.01a.883.883,0,0,0-.176-.6.754.754,0,0,0-.584-.2.864.864,0,0,0-.809.431V0h-1.27V-6.75h1.27Zm3.6,1.815a2.82,2.82,0,0,1,.272-1.261,2,2,0,0,1,.784-.857,2.289,2.289,0,0,1,1.189-.3,2.165,2.165,0,0,1,1.571.589,2.363,2.363,0,0,1,.679,1.6l.009.325a2.485,2.485,0,0,1-.611,1.756,2.123,2.123,0,0,1-1.639.661,2.134,2.134,0,0,1-1.641-.659,2.529,2.529,0,0,1-.613-1.793Zm1.27.09a1.777,1.777,0,0,0,.255,1.036.841.841,0,0,0,.729.359.843.843,0,0,0,.721-.354,1.945,1.945,0,0,0,.259-1.133,1.76,1.76,0,0,0-.259-1.03.843.843,0,0,0-.729-.365.829.829,0,0,0-.721.363A1.978,1.978,0,0,0,103.131-2.331ZM108.488,0h-1.274V-6.75h1.274Zm.848-2.413a2.865,2.865,0,0,1,.5-1.771,1.618,1.618,0,0,1,1.365-.659,1.456,1.456,0,0,1,1.147.519V-6.75h1.274V0h-1.147l-.062-.505a1.5,1.5,0,0,1-1.222.593,1.614,1.614,0,0,1-1.347-.661A2.958,2.958,0,0,1,109.336-2.413Zm1.27.095a1.877,1.877,0,0,0,.233,1.026.759.759,0,0,0,.677.357.85.85,0,0,0,.831-.5V-3.313a.838.838,0,0,0-.822-.5Q110.606-3.81,110.606-2.318ZM115,.549h-.945L116.416-6.4h.945Zm8.3-3.6a3.863,3.863,0,0,1-.334,1.657,2.515,2.515,0,0,1-.956,1.1,2.644,2.644,0,0,1-1.426.387,2.662,2.662,0,0,1-1.419-.382,2.54,2.54,0,0,1-.967-1.092,3.752,3.752,0,0,1-.347-1.633v-.316A3.842,3.842,0,0,1,118.2-5a2.536,2.536,0,0,1,.962-1.1,2.647,2.647,0,0,1,1.422-.385A2.647,2.647,0,0,1,122-6.1a2.536,2.536,0,0,1,.962,1.1,3.831,3.831,0,0,1,.341,1.659Zm-1.336-.29a2.693,2.693,0,0,0-.36-1.529,1.174,1.174,0,0,0-1.028-.523,1.175,1.175,0,0,0-1.024.516,2.662,2.662,0,0,0-.365,1.514v.312a2.726,2.726,0,0,0,.36,1.521,1.171,1.171,0,0,0,1.037.541,1.161,1.161,0,0,0,1.02-.521,2.71,2.71,0,0,0,.36-1.518Zm6.5,1.011a2.879,2.879,0,0,1-.488,1.782,1.616,1.616,0,0,1-1.362.639,1.485,1.485,0,0,1-1.235-.593L125.323,0h-1.143V-6.75h1.27v2.421a1.446,1.446,0,0,1,1.156-.514,1.629,1.629,0,0,1,1.365.639,2.883,2.883,0,0,1,.494,1.8Zm-1.27-.092a1.892,1.892,0,0,0-.229-1.052.773.773,0,0,0-.681-.332.838.838,0,0,0-.835.5v1.876a.849.849,0,0,0,.844.5.784.784,0,0,0,.809-.606A3.128,3.128,0,0,0,127.2-2.426Zm4.627,1.112a.409.409,0,0,0-.231-.367,2.621,2.621,0,0,0-.74-.24q-1.7-.356-1.7-1.441a1.307,1.307,0,0,1,.525-1.057,2.118,2.118,0,0,1,1.373-.424,2.28,2.28,0,0,1,1.448.426,1.343,1.343,0,0,1,.543,1.107h-1.27a.615.615,0,0,0-.176-.45.744.744,0,0,0-.549-.178.76.76,0,0,0-.5.145.458.458,0,0,0-.176.369.391.391,0,0,0,.2.341,2.057,2.057,0,0,0,.675.224,5.51,5.51,0,0,1,.8.213,1.314,1.314,0,0,1,1.006,1.279A1.24,1.24,0,0,1,132.5-.314a2.408,2.408,0,0,1-1.441.4A2.515,2.515,0,0,1,130-.125a1.781,1.781,0,0,1-.727-.584,1.358,1.358,0,0,1-.264-.8h1.2a.663.663,0,0,0,.25.519.994.994,0,0,0,.624.18.92.92,0,0,0,.552-.138A.431.431,0,0,0,131.823-1.314Zm4.241,1.4a2.334,2.334,0,0,1-1.7-.642,2.281,2.281,0,0,1-.657-1.709v-.123a2.872,2.872,0,0,1,.277-1.281,2.032,2.032,0,0,1,.784-.87,2.2,2.2,0,0,1,1.158-.305,1.973,1.973,0,0,1,1.536.615,2.5,2.5,0,0,1,.56,1.745v.519h-3.028a1.18,1.18,0,0,0,.371.747,1.123,1.123,0,0,0,.784.281,1.371,1.371,0,0,0,1.147-.532l.624.7a1.907,1.907,0,0,1-.773.631A2.538,2.538,0,0,1,136.063.088Zm-.145-3.907a.794.794,0,0,0-.613.256,1.326,1.326,0,0,0-.3.733h1.767v-.1a.946.946,0,0,0-.229-.655A.819.819,0,0,0,135.918-3.819Zm5.493.255a3.45,3.45,0,0,0-.457-.035.93.93,0,0,0-.945.488V0h-1.27V-4.755h1.2l.035.567a1.177,1.177,0,0,1,1.059-.655,1.331,1.331,0,0,1,.4.057Zm2.47,2.013.883-3.2h1.327L144.488,0h-1.213l-1.6-4.755H143ZM149.339,0a1.41,1.41,0,0,1-.127-.426,1.537,1.537,0,0,1-1.2.514,1.688,1.688,0,0,1-1.158-.4,1.3,1.3,0,0,1-.459-1.02,1.344,1.344,0,0,1,.56-1.16,2.765,2.765,0,0,1,1.619-.409h.584v-.272a.784.784,0,0,0-.169-.527.666.666,0,0,0-.534-.2.757.757,0,0,0-.5.154.523.523,0,0,0-.182.422H146.5a1.276,1.276,0,0,1,.255-.765,1.685,1.685,0,0,1,.721-.552,2.627,2.627,0,0,1,1.046-.2,2.075,2.075,0,0,1,1.4.442,1.545,1.545,0,0,1,.516,1.241V-1.1a2.273,2.273,0,0,0,.189,1.024V0Zm-1.05-.883a1.094,1.094,0,0,0,.519-.125.823.823,0,0,0,.352-.336v-.817h-.475q-.954,0-1.015.659l0,.075a.508.508,0,0,0,.167.391A.649.649,0,0,0,148.289-.883Zm4.641-5.041v1.169h.813v.932h-.813V-1.45a.567.567,0,0,0,.1.378.508.508,0,0,0,.387.114,2.025,2.025,0,0,0,.374-.031v.962a2.615,2.615,0,0,1-.769.114,1.213,1.213,0,0,1-1.362-1.349V-3.823h-.694v-.932h.694V-5.924ZM155.791,0h-1.274V-4.755h1.274Zm-1.349-5.985a.625.625,0,0,1,.191-.47.718.718,0,0,1,.521-.185.72.72,0,0,1,.519.185.622.622,0,0,1,.193.47.624.624,0,0,1-.2.475.722.722,0,0,1-.516.185.722.722,0,0,1-.516-.185A.624.624,0,0,1,154.441-5.985Zm2.2,3.564a2.82,2.82,0,0,1,.272-1.261,2,2,0,0,1,.784-.857,2.289,2.289,0,0,1,1.189-.3,2.165,2.165,0,0,1,1.571.589,2.363,2.363,0,0,1,.679,1.6l.009.325a2.485,2.485,0,0,1-.611,1.756,2.123,2.123,0,0,1-1.639.661,2.134,2.134,0,0,1-1.641-.659,2.529,2.529,0,0,1-.613-1.793Zm1.27.09a1.777,1.777,0,0,0,.255,1.036.841.841,0,0,0,.729.359.843.843,0,0,0,.721-.354,1.945,1.945,0,0,0,.259-1.133,1.76,1.76,0,0,0-.259-1.03.843.843,0,0,0-.729-.365.829.829,0,0,0-.721.363A1.978,1.978,0,0,0,157.909-2.331Zm5.186-2.424.04.549a1.66,1.66,0,0,1,1.367-.637,1.38,1.38,0,0,1,1.125.444A2.071,2.071,0,0,1,166-3.072V0h-1.27V-3.041a.824.824,0,0,0-.176-.587.787.787,0,0,0-.584-.182.874.874,0,0,0-.8.457V0H161.9V-4.755Zm5.915,2.342a2.865,2.865,0,0,1,.5-1.771,1.618,1.618,0,0,1,1.365-.659,1.456,1.456,0,0,1,1.147.519V-6.75h1.274V0h-1.147l-.062-.505a1.5,1.5,0,0,1-1.222.593,1.614,1.614,0,0,1-1.347-.661A2.958,2.958,0,0,1,169.009-2.413Zm1.27.095a1.877,1.877,0,0,0,.233,1.026.759.759,0,0,0,.677.357.85.85,0,0,0,.831-.5V-3.313a.838.838,0,0,0-.822-.5Q170.279-3.81,170.279-2.318ZM176.467.088a2.334,2.334,0,0,1-1.7-.642,2.281,2.281,0,0,1-.657-1.709v-.123a2.872,2.872,0,0,1,.277-1.281,2.032,2.032,0,0,1,.784-.87,2.2,2.2,0,0,1,1.158-.305,1.973,1.973,0,0,1,1.536.615,2.5,2.5,0,0,1,.56,1.745v.519h-3.028a1.18,1.18,0,0,0,.371.747,1.123,1.123,0,0,0,.784.281,1.371,1.371,0,0,0,1.147-.532l.624.7a1.907,1.907,0,0,1-.773.631A2.538,2.538,0,0,1,176.467.088Zm-.145-3.907a.794.794,0,0,0-.613.256,1.326,1.326,0,0,0-.3.733h1.767v-.1a.946.946,0,0,0-.229-.655A.819.819,0,0,0,176.322-3.819Zm4.342-2.1v1.169h.813v.932h-.813V-1.45a.567.567,0,0,0,.1.378.508.508,0,0,0,.387.114,2.025,2.025,0,0,0,.374-.031v.962a2.615,2.615,0,0,1-.769.114,1.213,1.213,0,0,1-1.362-1.349V-3.823H178.7v-.932h.694V-5.924ZM184.939,0a1.41,1.41,0,0,1-.127-.426,1.537,1.537,0,0,1-1.2.514,1.688,1.688,0,0,1-1.158-.4A1.3,1.3,0,0,1,182-1.336a1.344,1.344,0,0,1,.56-1.16,2.765,2.765,0,0,1,1.619-.409h.584v-.272a.784.784,0,0,0-.169-.527.666.666,0,0,0-.534-.2.757.757,0,0,0-.5.154.523.523,0,0,0-.182.422H182.1a1.276,1.276,0,0,1,.255-.765,1.685,1.685,0,0,1,.721-.552,2.627,2.627,0,0,1,1.046-.2,2.075,2.075,0,0,1,1.4.442,1.545,1.545,0,0,1,.516,1.241V-1.1a2.273,2.273,0,0,0,.189,1.024V0Zm-1.05-.883a1.094,1.094,0,0,0,.519-.125.823.823,0,0,0,.352-.336v-.817h-.475q-.954,0-1.015.659l0,.075a.508.508,0,0,0,.167.391A.649.649,0,0,0,183.889-.883ZM188.35,0h-1.274V-4.755h1.274ZM187-5.985a.625.625,0,0,1,.191-.47.718.718,0,0,1,.521-.185.72.72,0,0,1,.519.185.622.622,0,0,1,.193.47.624.624,0,0,1-.2.475.722.722,0,0,1-.516.185.722.722,0,0,1-.516-.185A.624.624,0,0,1,187-5.985ZM190.736,0h-1.274V-6.75h1.274Zm3.621-1.314a.409.409,0,0,0-.231-.367,2.621,2.621,0,0,0-.74-.24q-1.7-.356-1.7-1.441a1.307,1.307,0,0,1,.525-1.057,2.118,2.118,0,0,1,1.373-.424,2.28,2.28,0,0,1,1.448.426,1.343,1.343,0,0,1,.543,1.107h-1.27a.615.615,0,0,0-.176-.45.744.744,0,0,0-.549-.178.76.76,0,0,0-.5.145.458.458,0,0,0-.176.369.391.391,0,0,0,.2.341,2.057,2.057,0,0,0,.675.224,5.51,5.51,0,0,1,.8.213,1.314,1.314,0,0,1,1.006,1.279,1.24,1.24,0,0,1-.558,1.052,2.408,2.408,0,0,1-1.441.4,2.515,2.515,0,0,1-1.061-.213A1.781,1.781,0,0,1,191.8-.71a1.358,1.358,0,0,1-.264-.8h1.2a.663.663,0,0,0,.25.519.994.994,0,0,0,.624.18.92.92,0,0,0,.552-.138A.431.431,0,0,0,194.357-1.314Z" transform="translate(543.229 609)" fill="#0c2339"/>
    <path id="Path_1173" data-name="Path 1173" d="M0,0V21" transform="translate(527.5 413.5)" fill="none" stroke="rgba(165,170,188,0.5)" stroke-width="0.5"/>
  </g>
</svg>
