<svg xmlns="http://www.w3.org/2000/svg" width="95.788" height="20.035" viewBox="0 0 95.788 20.035">
  <g id="Group_1102" data-name="Group 1102" transform="translate(-422.655 -213.686)">
    <g id="Group_1101" data-name="Group 1101">
      <path id="Path_1110" data-name="Path 1110" d="M1.591-.69H4.623V0H.743V-6.4h.848ZM6.341,0H5.528V-4.755h.813ZM5.462-6.016a.485.485,0,0,1,.121-.334.454.454,0,0,1,.358-.136.461.461,0,0,1,.36.136.48.48,0,0,1,.123.334.464.464,0,0,1-.123.33.469.469,0,0,1-.36.132.462.462,0,0,1-.358-.132A.469.469,0,0,1,5.462-6.016ZM8.411-4.755l.026.6a1.733,1.733,0,0,1,1.424-.686q1.507,0,1.521,1.7V0h-.813V-3.146a1.1,1.1,0,0,0-.235-.76.942.942,0,0,0-.719-.246,1.173,1.173,0,0,0-.694.211,1.432,1.432,0,0,0-.466.554V0H7.642V-4.755ZM13.935-2.2l-.51.532V0h-.813V-6.75h.813v4.083l.435-.523,1.481-1.564h.989L14.48-2.769,16.545,0h-.954Zm5.12,2.29a2.078,2.078,0,0,1-1.573-.635,2.357,2.357,0,0,1-.606-1.7V-2.4a2.853,2.853,0,0,1,.27-1.263,2.108,2.108,0,0,1,.756-.87,1.9,1.9,0,0,1,1.052-.314,1.781,1.781,0,0,1,1.441.611,2.645,2.645,0,0,1,.514,1.749v.338H17.688A1.69,1.69,0,0,0,18.1-1.009a1.292,1.292,0,0,0,1,.433,1.416,1.416,0,0,0,.729-.176,1.833,1.833,0,0,0,.523-.466l.5.387A2,2,0,0,1,19.055.088Zm-.1-4.263a1.084,1.084,0,0,0-.826.358,1.741,1.741,0,0,0-.413,1H20.1v-.062a1.548,1.548,0,0,0-.334-.96A1.021,1.021,0,0,0,18.954-4.175Zm2.7,1.758a2.785,2.785,0,0,1,.519-1.76,1.64,1.64,0,0,1,1.358-.666,1.649,1.649,0,0,1,1.323.571V-6.75h.813V0h-.747l-.04-.51a1.656,1.656,0,0,1-1.358.6,1.624,1.624,0,0,1-1.347-.677,2.817,2.817,0,0,1-.521-1.767Zm.813.092A2.109,2.109,0,0,0,22.8-1.059a1.08,1.08,0,0,0,.923.457A1.186,1.186,0,0,0,24.851-1.3V-3.48a1.2,1.2,0,0,0-1.121-.672,1.085,1.085,0,0,0-.932.461A2.322,2.322,0,0,0,22.465-2.325Zm10.345-.5H30.125V0h-.844V-6.4h3.964v.69h-3.12v2.193H32.81ZM35.011,0H34.2V-6.75h.813ZM36.1-2.421a2.808,2.808,0,0,1,.275-1.257,2.049,2.049,0,0,1,.765-.861,2.081,2.081,0,0,1,1.118-.3,2.005,2.005,0,0,1,1.571.672,2.587,2.587,0,0,1,.6,1.789v.057a2.833,2.833,0,0,1-.266,1.246,2.019,2.019,0,0,1-.76.859,2.105,2.105,0,0,1-1.136.308A2,2,0,0,1,36.7-.584a2.574,2.574,0,0,1-.6-1.78Zm.817.1a2.034,2.034,0,0,0,.367,1.27,1.174,1.174,0,0,0,.982.479,1.167,1.167,0,0,0,.984-.486,2.224,2.224,0,0,0,.365-1.36,2.031,2.031,0,0,0-.371-1.268,1.181,1.181,0,0,0-.987-.486,1.167,1.167,0,0,0-.971.479A2.208,2.208,0,0,0,36.914-2.325Zm8.741,1.2.914-3.634h.813L46,0h-.659L44.183-3.6,43.058,0H42.4l-1.38-4.755h.809l.936,3.56,1.107-3.56h.655Zm5.322-.141a.6.6,0,0,0-.248-.512,2.39,2.39,0,0,0-.866-.314,4.093,4.093,0,0,1-.98-.316,1.394,1.394,0,0,1-.536-.439,1.051,1.051,0,0,1-.174-.606,1.233,1.233,0,0,1,.494-.989,1.931,1.931,0,0,1,1.263-.4,1.987,1.987,0,0,1,1.312.417,1.326,1.326,0,0,1,.5,1.068h-.817a.734.734,0,0,0-.283-.576,1.062,1.062,0,0,0-.714-.242,1.111,1.111,0,0,0-.694.193.609.609,0,0,0-.25.505.493.493,0,0,0,.233.444,2.866,2.866,0,0,0,.842.286,4.385,4.385,0,0,1,.987.325,1.439,1.439,0,0,1,.56.455,1.118,1.118,0,0,1,.182.648A1.217,1.217,0,0,1,51.28-.3a2.138,2.138,0,0,1-1.323.385,2.394,2.394,0,0,1-1.011-.2,1.644,1.644,0,0,1-.688-.565,1.361,1.361,0,0,1-.248-.784h.813a.842.842,0,0,0,.327.648,1.27,1.27,0,0,0,.806.24,1.311,1.311,0,0,0,.74-.187A.574.574,0,0,0,50.977-1.261Zm1.846.835a.509.509,0,0,1,.125-.352.477.477,0,0,1,.376-.141.492.492,0,0,1,.38.141.5.5,0,0,1,.13.352.472.472,0,0,1-.13.338.5.5,0,0,1-.38.136.486.486,0,0,1-.376-.136A.481.481,0,0,1,52.822-.426Zm0-3.88a.509.509,0,0,1,.125-.352.477.477,0,0,1,.376-.141.492.492,0,0,1,.38.141.5.5,0,0,1,.13.352.472.472,0,0,1-.13.338.5.5,0,0,1-.38.136.486.486,0,0,1-.376-.136A.481.481,0,0,1,52.827-4.307Z" transform="translate(421.912 226.095)" fill="#0c2339"/>
      <g id="Path_1111" data-name="Path 1111" transform="translate(495.676 213.686)" fill="none">
        <path d="M5,0H17.767a5,5,0,0,1,5,5V15.035a5,5,0,0,1-5,5H5a5,5,0,0,1-5-5V5A5,5,0,0,1,5,0Z" stroke="none"/>
        <path d="M 5.000003814697266 1 C 2.794395446777344 1 0.9999942779541016 2.794389724731445 0.9999942779541016 5 L 0.9999942779541016 15.03458023071289 C 0.9999942779541016 17.24019050598145 2.794395446777344 19.03458023071289 5.000003814697266 19.03458023071289 L 17.76656341552734 19.03458023071289 C 19.97217559814453 19.03458023071289 21.76656532287598 17.24019050598145 21.76656532287598 15.03458023071289 L 21.76656532287598 5 C 21.76656532287598 2.794389724731445 19.97217559814453 1 17.76656341552734 1 L 5.000003814697266 1 M 5.000003814697266 0 L 17.76656341552734 0 C 20.52799415588379 0 22.76656532287598 2.238580703735352 22.76656532287598 5 L 22.76656532287598 15.03458023071289 C 22.76656532287598 17.79599952697754 20.52799415588379 20.03458023071289 17.76656341552734 20.03458023071289 L 5.000003814697266 20.03458023071289 C 2.238574981689453 20.03458023071289 -5.7220458984375e-06 17.79599952697754 -5.7220458984375e-06 15.03458023071289 L -5.7220458984375e-06 5 C -5.7220458984375e-06 2.238580703735352 2.238574981689453 0 5.000003814697266 0 Z" stroke="none" fill="#fe746e"/>
      </g>
    </g>
    <path id="Path_1112" data-name="Path 1112" d="M3.2,0H2.386V-5.418l-1.639.6v-.738l2.329-.875H3.2Z" transform="translate(504.327 226.55)" fill="#0c2339"/>
  </g>
</svg>
