<svg xmlns="http://www.w3.org/2000/svg" xmlns:xlink="http://www.w3.org/1999/xlink" width="8" height="12" viewBox="0 0 8 12"><defs><clipPath id="a"><rect width="6.348" height="11.401" fill="#fff"/></clipPath></defs><g transform="translate(-487.826 -91)"><g transform="translate(495.826 102.701) rotate(180)"><g clip-path="url(#a)"><path d="M4.819,5.717c-.069-.073-.113-.121-.159-.167q-2.2-2.2-4.4-4.393A.705.705,0,0,1,0,.642.6.6,0,0,1,.339.079.6.6,0,0,1,1.011.13a1.429,1.429,0,0,1,.175.161L6.051,5.146a.672.672,0,0,1-.005,1.119Q3.6,8.706,1.154,11.149a.667.667,0,0,1-.693.226.628.628,0,0,1-.318-1,2.04,2.04,0,0,1,.151-.157l4.36-4.352c.047-.046.1-.087.167-.146" transform="translate(0 0)" fill="#fff"/></g></g><g transform="translate(488.826 103) rotate(180)" fill="#fff" stroke="#fff" stroke-width="1"><rect width="1" height="12" rx="0.5" stroke="none"/><rect x="0.5" y="0.5" height="11" fill="none"/></g></g></svg>