<svg xmlns="http://www.w3.org/2000/svg" width="96.5" height="41.748" viewBox="0 0 96.5 41.748">
  <g id="Group_819" data-name="Group 819" transform="translate(-461.297 -290.423)">
    <g id="Group_817" data-name="Group 817" transform="translate(3 -1)">
      <g id="Store_payments" data-name="Store payments" transform="translate(370.297 111.082)">
        <g id="Create_flow_bg" data-name="Create flow bg" transform="translate(88 180.341)" fill="#fff" stroke="#3cca8e" stroke-width="0.5">
          <rect width="96.5" height="41.748" rx="5" stroke="none"/>
          <rect x="0.25" y="0.25" width="96" height="41.248" rx="4.75" fill="none"/>
        </g>
        <path id="Path_573" data-name="Path 573" d="M4.614-1.8a1.184,1.184,0,0,0-.076-.439.876.876,0,0,0-.269-.349,2.139,2.139,0,0,0-.52-.3,7.6,7.6,0,0,0-.83-.286,7.051,7.051,0,0,1-.955-.344,3.136,3.136,0,0,1-.728-.444,1.792,1.792,0,0,1-.461-.574,1.627,1.627,0,0,1-.161-.737,1.725,1.725,0,0,1,.173-.769,1.838,1.838,0,0,1,.491-.615,2.335,2.335,0,0,1,.762-.408,3.154,3.154,0,0,1,.991-.146A2.958,2.958,0,0,1,4.1-7.026a2.417,2.417,0,0,1,.789.479,2,2,0,0,1,.486.688,2.04,2.04,0,0,1,.166.806H4.6a1.559,1.559,0,0,0-.1-.552,1.16,1.16,0,0,0-.291-.439,1.34,1.34,0,0,0-.488-.288,2.1,2.1,0,0,0-.693-.1,2.18,2.18,0,0,0-.654.088,1.305,1.305,0,0,0-.459.242.96.96,0,0,0-.269.364,1.177,1.177,0,0,0-.088.459.885.885,0,0,0,.1.41,1.045,1.045,0,0,0,.3.342,2.25,2.25,0,0,0,.515.288,6.441,6.441,0,0,0,.754.254,6.772,6.772,0,0,1,1.045.378,2.864,2.864,0,0,1,.725.471,1.716,1.716,0,0,1,.425.591,1.88,1.88,0,0,1,.139.742,1.733,1.733,0,0,1-.176.786,1.72,1.72,0,0,1-.5.6A2.367,2.367,0,0,1,4.1-.037,3.6,3.6,0,0,1,3.081.1,3.56,3.56,0,0,1,2.427.037,3.239,3.239,0,0,1,1.8-.146a2.779,2.779,0,0,1-.557-.3A2.151,2.151,0,0,1,.8-.869a1.88,1.88,0,0,1-.3-.537,1.916,1.916,0,0,1-.107-.654h.942a1.281,1.281,0,0,0,.144.627A1.278,1.278,0,0,0,1.863-1a1.672,1.672,0,0,0,.557.251,2.66,2.66,0,0,0,.662.081,1.843,1.843,0,0,0,1.138-.3A.983.983,0,0,0,4.614-1.8ZM7.842-6.562v1.279h.986v.7H7.842v3.276a.92.92,0,0,0,.049.33.473.473,0,0,0,.129.193.413.413,0,0,0,.186.09,1.058,1.058,0,0,0,.217.022A1.364,1.364,0,0,0,8.66-.7q.125-.022.193-.037V0q-.107.029-.278.063A2.153,2.153,0,0,1,8.159.1,1.543,1.543,0,0,1,7.688.027.949.949,0,0,1,7.3-.21a1.166,1.166,0,0,1-.264-.437,1.98,1.98,0,0,1-.1-.667V-4.585H5.977v-.7h.962V-6.562Zm1.7,3.872a3.266,3.266,0,0,1,.168-1.067,2.578,2.578,0,0,1,.479-.852,2.19,2.19,0,0,1,.754-.566,2.349,2.349,0,0,1,1-.205,2.39,2.39,0,0,1,1.008.205,2.209,2.209,0,0,1,.759.566,2.522,2.522,0,0,1,.479.852,3.31,3.31,0,0,1,.166,1.067v.107a3.31,3.31,0,0,1-.166,1.067,2.5,2.5,0,0,1-.479.85,2.2,2.2,0,0,1-.757.562,2.386,2.386,0,0,1-1,.2,2.386,2.386,0,0,1-1-.2A2.2,2.2,0,0,1,10.2-.667a2.527,2.527,0,0,1-.481-.85,3.266,3.266,0,0,1-.168-1.067Zm.908.107a2.918,2.918,0,0,0,.093.747,1.9,1.9,0,0,0,.281.618A1.4,1.4,0,0,0,11.3-.8a1.329,1.329,0,0,0,.657.156A1.332,1.332,0,0,0,12.607-.8a1.373,1.373,0,0,0,.469-.422,1.97,1.97,0,0,0,.281-.618,2.847,2.847,0,0,0,.1-.747V-2.69a2.855,2.855,0,0,0-.1-.745,1.935,1.935,0,0,0-.283-.62A1.42,1.42,0,0,0,12.6-4.48a1.326,1.326,0,0,0-.659-.159,1.289,1.289,0,0,0-.649.159,1.436,1.436,0,0,0-.466.425,1.9,1.9,0,0,0-.281.62,2.926,2.926,0,0,0-.093.745Zm7.588-1.89q-.117-.02-.217-.027T17.6-4.507a1.312,1.312,0,0,0-.764.205,1.246,1.246,0,0,0-.442.552V0h-.9V-5.283h.879l.015.61a1.59,1.59,0,0,1,.513-.518,1.392,1.392,0,0,1,.747-.19,1.335,1.335,0,0,1,.225.022.713.713,0,0,1,.176.046ZM20.972.1a2.522,2.522,0,0,1-1-.19,2.229,2.229,0,0,1-.764-.53,2.341,2.341,0,0,1-.488-.808,2.973,2.973,0,0,1-.171-1.025v-.205a3.228,3.228,0,0,1,.193-1.152,2.587,2.587,0,0,1,.515-.854A2.227,2.227,0,0,1,20-5.2a2.119,2.119,0,0,1,.864-.183,2.229,2.229,0,0,1,.977.2,1.852,1.852,0,0,1,.676.544,2.314,2.314,0,0,1,.393.82,3.97,3.97,0,0,1,.127,1.03v.405H19.453a2.262,2.262,0,0,0,.12.684,1.667,1.667,0,0,0,.313.552,1.485,1.485,0,0,0,.488.371,1.48,1.48,0,0,0,.647.137,1.573,1.573,0,0,0,.811-.2,2.037,2.037,0,0,0,.581-.518l.552.43a2.413,2.413,0,0,1-.308.378,2.1,2.1,0,0,1-.422.327,2.222,2.222,0,0,1-.554.229A2.688,2.688,0,0,1,20.972.1Zm-.112-4.736a1.244,1.244,0,0,0-.5.1,1.252,1.252,0,0,0-.41.291,1.564,1.564,0,0,0-.3.474,2.4,2.4,0,0,0-.164.649h2.646v-.068a2.5,2.5,0,0,0-.085-.522,1.419,1.419,0,0,0-.22-.464,1.132,1.132,0,0,0-.383-.332A1.208,1.208,0,0,0,20.859-4.639ZM31.016-2.583a3.983,3.983,0,0,1-.137,1.072,2.627,2.627,0,0,1-.4.85,1.853,1.853,0,0,1-.642.559,1.84,1.84,0,0,1-.869.2A2.246,2.246,0,0,1,28.1-.059a1.777,1.777,0,0,1-.642-.454V2.031h-.9V-5.283h.825l.044.586a1.791,1.791,0,0,1,.649-.508,2.089,2.089,0,0,1,.884-.176,1.915,1.915,0,0,1,.881.2,1.84,1.84,0,0,1,.647.549,2.5,2.5,0,0,1,.4.85,4.208,4.208,0,0,1,.134,1.1Zm-.9-.1a3.212,3.212,0,0,0-.083-.745,1.877,1.877,0,0,0-.259-.613,1.312,1.312,0,0,0-.444-.417,1.266,1.266,0,0,0-.64-.154,1.517,1.517,0,0,0-.417.054,1.26,1.26,0,0,0-.339.151,1.264,1.264,0,0,0-.269.232,1.732,1.732,0,0,0-.205.291v2.524a1.732,1.732,0,0,0,.205.291,1.209,1.209,0,0,0,.269.229,1.3,1.3,0,0,0,.342.149A1.564,1.564,0,0,0,28.7-.64,1.227,1.227,0,0,0,29.329-.8a1.344,1.344,0,0,0,.442-.42,1.874,1.874,0,0,0,.259-.618,3.275,3.275,0,0,0,.083-.75ZM35.425,0a.979.979,0,0,1-.078-.247Q35.317-.4,35.3-.557a2.406,2.406,0,0,1-.286.251,2.046,2.046,0,0,1-.347.21,1.974,1.974,0,0,1-.408.142A2.036,2.036,0,0,1,33.794.1a2.1,2.1,0,0,1-.735-.122A1.711,1.711,0,0,1,32.5-.356a1.463,1.463,0,0,1-.359-.5,1.492,1.492,0,0,1-.127-.613,1.624,1.624,0,0,1,.166-.75,1.5,1.5,0,0,1,.476-.544,2.245,2.245,0,0,1,.75-.332,3.967,3.967,0,0,1,.981-.112h.9v-.415A1.015,1.015,0,0,0,35-4.373a1.138,1.138,0,0,0-.835-.281,1.492,1.492,0,0,0-.464.068,1.182,1.182,0,0,0-.359.183.854.854,0,0,0-.232.266.651.651,0,0,0-.083.317h-.908a1.179,1.179,0,0,1,.149-.562,1.647,1.647,0,0,1,.422-.5,2.235,2.235,0,0,1,.662-.361,2.555,2.555,0,0,1,.867-.139,2.734,2.734,0,0,1,.793.11,1.694,1.694,0,0,1,.623.332,1.535,1.535,0,0,1,.405.554,1.91,1.91,0,0,1,.146.776v2.456a3.639,3.639,0,0,0,.046.564,2.121,2.121,0,0,0,.139.51V0Zm-1.5-.688a1.505,1.505,0,0,0,.459-.068,1.714,1.714,0,0,0,.391-.178,1.454,1.454,0,0,0,.305-.251,1.231,1.231,0,0,0,.2-.293V-2.563h-.752a2.425,2.425,0,0,0-1.2.242.789.789,0,0,0-.42.73.99.99,0,0,0,.063.356.747.747,0,0,0,.193.286.959.959,0,0,0,.317.19A1.237,1.237,0,0,0,33.926-.688Zm5.332-.635,1.23-3.96h.967L39.331.815a4.14,4.14,0,0,1-.19.425,1.821,1.821,0,0,1-.305.427A1.648,1.648,0,0,1,38.384,2a1.35,1.35,0,0,1-.62.134.979.979,0,0,1-.127-.01L37.49,2.1l-.137-.024q-.063-.012-.1-.022V1.323a.329.329,0,0,0,.054.007l.071,0,.068,0,.051,0a1.68,1.68,0,0,0,.405-.044.887.887,0,0,0,.313-.144.9.9,0,0,0,.237-.266,2.121,2.121,0,0,0,.183-.41l.2-.537L36.953-5.283h.986Zm3.853-3.96.024.586a1.918,1.918,0,0,1,.662-.5,2.127,2.127,0,0,1,.906-.181,1.949,1.949,0,0,1,.906.2,1.345,1.345,0,0,1,.6.647,2,2,0,0,1,.686-.615,2.026,2.026,0,0,1,1-.234,2.36,2.36,0,0,1,.752.11,1.362,1.362,0,0,1,.554.344,1.509,1.509,0,0,1,.344.6,2.8,2.8,0,0,1,.117.859V0h-.9V-3.477a1.62,1.62,0,0,0-.081-.552.861.861,0,0,0-.227-.352.81.81,0,0,0-.356-.183,1.956,1.956,0,0,0-.464-.051,1.294,1.294,0,0,0-.493.088,1.148,1.148,0,0,0-.369.237,1.117,1.117,0,0,0-.244.352,1.424,1.424,0,0,0-.115.432V0H45.5V-3.472A1.515,1.515,0,0,0,45.422-4a.9.9,0,0,0-.227-.354.893.893,0,0,0-.354-.2,1.592,1.592,0,0,0-.466-.063,1.305,1.305,0,0,0-.776.21,1.3,1.3,0,0,0-.439.547V0h-.9V-5.283ZM53.218.1a2.522,2.522,0,0,1-1-.19,2.229,2.229,0,0,1-.764-.53,2.341,2.341,0,0,1-.488-.808A2.973,2.973,0,0,1,50.8-2.456v-.205a3.228,3.228,0,0,1,.193-1.152,2.587,2.587,0,0,1,.515-.854,2.227,2.227,0,0,1,.737-.53,2.119,2.119,0,0,1,.864-.183,2.229,2.229,0,0,1,.977.2,1.852,1.852,0,0,1,.676.544,2.314,2.314,0,0,1,.393.82,3.97,3.97,0,0,1,.127,1.03v.405H51.7a2.262,2.262,0,0,0,.12.684,1.667,1.667,0,0,0,.313.552,1.485,1.485,0,0,0,.488.371,1.48,1.48,0,0,0,.647.137,1.573,1.573,0,0,0,.811-.2,2.037,2.037,0,0,0,.581-.518l.552.43a2.413,2.413,0,0,1-.308.378,2.1,2.1,0,0,1-.422.327,2.222,2.222,0,0,1-.554.229A2.688,2.688,0,0,1,53.218.1Zm-.112-4.736a1.244,1.244,0,0,0-.5.1,1.252,1.252,0,0,0-.41.291,1.564,1.564,0,0,0-.3.474,2.4,2.4,0,0,0-.164.649h2.646v-.068a2.5,2.5,0,0,0-.085-.522,1.419,1.419,0,0,0-.22-.464,1.132,1.132,0,0,0-.383-.332A1.208,1.208,0,0,0,53.105-4.639Zm4.072-.645.029.664a2.042,2.042,0,0,1,.684-.559,1.961,1.961,0,0,1,.9-.2,2.184,2.184,0,0,1,.7.1,1.284,1.284,0,0,1,.532.337,1.559,1.559,0,0,1,.339.6,2.842,2.842,0,0,1,.12.881V0h-.9V-3.472A1.763,1.763,0,0,0,59.507-4a.866.866,0,0,0-.2-.354.8.8,0,0,0-.332-.2,1.5,1.5,0,0,0-.457-.063,1.3,1.3,0,0,0-.771.234,1.592,1.592,0,0,0-.518.615V0h-.9V-5.283Zm5.889-1.279v1.279h.986v.7h-.986v3.276a.92.92,0,0,0,.049.33.473.473,0,0,0,.129.193.413.413,0,0,0,.186.09,1.058,1.058,0,0,0,.217.022A1.364,1.364,0,0,0,63.884-.7q.125-.022.193-.037V0Q63.97.029,63.8.063A2.153,2.153,0,0,1,63.384.1a1.543,1.543,0,0,1-.471-.071.949.949,0,0,1-.388-.237,1.166,1.166,0,0,1-.264-.437,1.98,1.98,0,0,1-.1-.667V-4.585H61.2v-.7h.962V-6.562ZM68.184-1.4a.852.852,0,0,0-.044-.276.581.581,0,0,0-.173-.244,1.3,1.3,0,0,0-.369-.212,3.809,3.809,0,0,0-.63-.181,5.964,5.964,0,0,1-.791-.22,2.42,2.42,0,0,1-.6-.305,1.258,1.258,0,0,1-.378-.422,1.184,1.184,0,0,1-.132-.571,1.319,1.319,0,0,1,.139-.593,1.519,1.519,0,0,1,.393-.493,1.925,1.925,0,0,1,.615-.337,2.462,2.462,0,0,1,.806-.125,2.58,2.58,0,0,1,.847.129A1.931,1.931,0,0,1,68.5-4.9a1.515,1.515,0,0,1,.4.525,1.531,1.531,0,0,1,.137.642H68.13a.79.79,0,0,0-.073-.325.885.885,0,0,0-.215-.293,1.108,1.108,0,0,0-.347-.21,1.289,1.289,0,0,0-.474-.081,1.532,1.532,0,0,0-.481.066.948.948,0,0,0-.325.176.675.675,0,0,0-.186.249.729.729,0,0,0-.059.286.68.68,0,0,0,.049.264.5.5,0,0,0,.186.212,1.516,1.516,0,0,0,.374.176,5.935,5.935,0,0,0,.613.164,5.925,5.925,0,0,1,.84.254,2.293,2.293,0,0,1,.591.33,1.217,1.217,0,0,1,.349.432,1.318,1.318,0,0,1,.115.566,1.4,1.4,0,0,1-.144.635,1.408,1.408,0,0,1-.413.493,2.025,2.025,0,0,1-.645.32A2.853,2.853,0,0,1,67.051.1a2.715,2.715,0,0,1-.93-.146,2.083,2.083,0,0,1-.676-.388,1.645,1.645,0,0,1-.415-.552,1.519,1.519,0,0,1-.142-.637h.9a.948.948,0,0,0,.134.466,1,1,0,0,0,.3.305,1.216,1.216,0,0,0,.4.166,1.933,1.933,0,0,0,.43.049A1.825,1.825,0,0,0,67.539-.7a1.129,1.129,0,0,0,.354-.161A.694.694,0,0,0,68.11-1.1.635.635,0,0,0,68.184-1.4Zm5,1.4V-4.585h-.835v-.7h.835V-5.84a2.2,2.2,0,0,1,.12-.754,1.489,1.489,0,0,1,.344-.554,1.448,1.448,0,0,1,.547-.339,2.16,2.16,0,0,1,.728-.115,2.371,2.371,0,0,1,.62.083l-.049.732q-.1-.02-.232-.032T75-6.831a.883.883,0,0,0-.679.256,1.038,1.038,0,0,0-.239.735v.557h1.128v.7H74.087V0Zm2.788-2.69a3.266,3.266,0,0,1,.168-1.067,2.578,2.578,0,0,1,.479-.852,2.19,2.19,0,0,1,.754-.566,2.349,2.349,0,0,1,1-.205,2.39,2.39,0,0,1,1.008.205,2.209,2.209,0,0,1,.759.566,2.522,2.522,0,0,1,.479.852,3.31,3.31,0,0,1,.166,1.067v.107a3.31,3.31,0,0,1-.166,1.067,2.5,2.5,0,0,1-.479.85A2.2,2.2,0,0,1,79.38-.1a2.386,2.386,0,0,1-1,.2,2.386,2.386,0,0,1-1-.2,2.2,2.2,0,0,1-.757-.562,2.527,2.527,0,0,1-.481-.85,3.266,3.266,0,0,1-.168-1.067Zm.908.107a2.918,2.918,0,0,0,.093.747,1.9,1.9,0,0,0,.281.618,1.4,1.4,0,0,0,.469.422,1.329,1.329,0,0,0,.657.156A1.332,1.332,0,0,0,79.033-.8a1.373,1.373,0,0,0,.469-.422,1.97,1.97,0,0,0,.281-.618,2.847,2.847,0,0,0,.1-.747V-2.69a2.855,2.855,0,0,0-.1-.745,1.935,1.935,0,0,0-.283-.62,1.42,1.42,0,0,0-.471-.425,1.326,1.326,0,0,0-.659-.159,1.289,1.289,0,0,0-.649.159,1.436,1.436,0,0,0-.466.425,1.9,1.9,0,0,0-.281.62,2.926,2.926,0,0,0-.093.745Zm7.588-1.89q-.117-.02-.217-.027t-.227-.007a1.312,1.312,0,0,0-.764.205,1.246,1.246,0,0,0-.442.552V0h-.9V-5.283h.879l.015.61a1.59,1.59,0,0,1,.513-.518,1.392,1.392,0,0,1,.747-.19,1.335,1.335,0,0,1,.225.022.713.713,0,0,1,.176.046ZM1.128,13V8.415H.293v-.7h.835V7.16a2.2,2.2,0,0,1,.12-.754,1.489,1.489,0,0,1,.344-.554,1.448,1.448,0,0,1,.547-.339A2.16,2.16,0,0,1,2.866,5.4a2.371,2.371,0,0,1,.62.083l-.049.732q-.1-.02-.232-.032t-.256-.012a.883.883,0,0,0-.679.256,1.038,1.038,0,0,0-.239.735v.557H3.159v.7H2.031V13Zm6.289-.522a1.683,1.683,0,0,1-.63.457,2.32,2.32,0,0,1-.918.164,2.154,2.154,0,0,1-.708-.11,1.378,1.378,0,0,1-.547-.347,1.578,1.578,0,0,1-.354-.61,2.866,2.866,0,0,1-.125-.9V7.717h.9V11.14a1.77,1.77,0,0,0,.083.588.955.955,0,0,0,.22.366.735.735,0,0,0,.313.186,1.284,1.284,0,0,0,.361.051,1.65,1.65,0,0,0,.886-.21,1.251,1.251,0,0,0,.491-.562V7.717h.9V13H7.437Zm3.477-6.04V7.717h.986v.7h-.986v3.276a.92.92,0,0,0,.049.33.473.473,0,0,0,.129.193.413.413,0,0,0,.186.09,1.058,1.058,0,0,0,.217.022,1.364,1.364,0,0,0,.237-.022q.125-.022.193-.037V13q-.107.029-.278.063a2.153,2.153,0,0,1-.415.034,1.543,1.543,0,0,1-.471-.071.949.949,0,0,1-.388-.237,1.166,1.166,0,0,1-.264-.437,1.98,1.98,0,0,1-.1-.667V8.415H9.028v-.7H9.99V6.438Zm5.3,6.04a1.683,1.683,0,0,1-.63.457,2.32,2.32,0,0,1-.918.164,2.154,2.154,0,0,1-.708-.11,1.378,1.378,0,0,1-.547-.347,1.578,1.578,0,0,1-.354-.61,2.866,2.866,0,0,1-.125-.9V7.717h.9V11.14a1.77,1.77,0,0,0,.083.588.955.955,0,0,0,.22.366.735.735,0,0,0,.313.186,1.284,1.284,0,0,0,.361.051,1.65,1.65,0,0,0,.886-.21,1.251,1.251,0,0,0,.491-.562V7.717h.9V13h-.859ZM21,8.527q-.117-.02-.217-.027t-.227-.007a1.312,1.312,0,0,0-.764.205,1.246,1.246,0,0,0-.442.552V13h-.9V7.717h.879l.015.61a1.59,1.59,0,0,1,.513-.518,1.392,1.392,0,0,1,.747-.19,1.335,1.335,0,0,1,.225.022A.713.713,0,0,1,21,7.688Zm2.93,4.57a2.522,2.522,0,0,1-1-.19,2.229,2.229,0,0,1-.764-.53,2.341,2.341,0,0,1-.488-.808,2.973,2.973,0,0,1-.171-1.025v-.205A3.228,3.228,0,0,1,21.7,9.187a2.587,2.587,0,0,1,.515-.854,2.227,2.227,0,0,1,.737-.53,2.119,2.119,0,0,1,.864-.183,2.229,2.229,0,0,1,.977.2,1.852,1.852,0,0,1,.676.544,2.314,2.314,0,0,1,.393.82,3.97,3.97,0,0,1,.127,1.03v.405H22.412a2.262,2.262,0,0,0,.12.684,1.667,1.667,0,0,0,.313.552,1.455,1.455,0,0,0,1.135.508,1.573,1.573,0,0,0,.811-.2,2.037,2.037,0,0,0,.581-.518l.552.43a2.413,2.413,0,0,1-.308.378,2.1,2.1,0,0,1-.422.327,2.222,2.222,0,0,1-.554.229A2.688,2.688,0,0,1,23.931,13.1Zm-.112-4.736a1.218,1.218,0,0,0-.913.391,1.564,1.564,0,0,0-.3.474,2.4,2.4,0,0,0-.164.649h2.646V9.807A2.5,2.5,0,0,0,25,9.284a1.419,1.419,0,0,0-.22-.464,1.132,1.132,0,0,0-.383-.332A1.208,1.208,0,0,0,23.818,8.361Zm8.77,3.237a.852.852,0,0,0-.044-.276.581.581,0,0,0-.173-.244A1.3,1.3,0,0,0,32,10.866a3.809,3.809,0,0,0-.63-.181,5.963,5.963,0,0,1-.791-.22,2.42,2.42,0,0,1-.6-.305,1.258,1.258,0,0,1-.378-.422,1.184,1.184,0,0,1-.132-.571,1.319,1.319,0,0,1,.139-.593A1.519,1.519,0,0,1,30,8.081a1.925,1.925,0,0,1,.615-.337,2.462,2.462,0,0,1,.806-.125,2.58,2.58,0,0,1,.847.129,1.931,1.931,0,0,1,.635.354,1.515,1.515,0,0,1,.4.525,1.531,1.531,0,0,1,.137.642h-.908a.79.79,0,0,0-.073-.325.885.885,0,0,0-.215-.293,1.108,1.108,0,0,0-.347-.21,1.289,1.289,0,0,0-.474-.081,1.532,1.532,0,0,0-.481.066.948.948,0,0,0-.325.176.675.675,0,0,0-.186.249.729.729,0,0,0-.059.286.68.68,0,0,0,.049.264.5.5,0,0,0,.186.212,1.516,1.516,0,0,0,.374.176,5.935,5.935,0,0,0,.613.164,5.925,5.925,0,0,1,.84.254,2.293,2.293,0,0,1,.591.33,1.217,1.217,0,0,1,.349.432,1.318,1.318,0,0,1,.115.566,1.379,1.379,0,0,1-.557,1.128,2.025,2.025,0,0,1-.645.32,2.853,2.853,0,0,1-.835.115,2.715,2.715,0,0,1-.93-.146,2.083,2.083,0,0,1-.676-.388,1.645,1.645,0,0,1-.415-.552,1.519,1.519,0,0,1-.142-.637h.9a.948.948,0,0,0,.134.466,1,1,0,0,0,.3.305,1.216,1.216,0,0,0,.4.166,1.933,1.933,0,0,0,.43.049,1.825,1.825,0,0,0,.488-.059,1.129,1.129,0,0,0,.354-.161.694.694,0,0,0,.217-.242A.635.635,0,0,0,32.588,11.6Zm4.272,1.5a2.522,2.522,0,0,1-1-.19,2.229,2.229,0,0,1-.764-.53,2.341,2.341,0,0,1-.488-.808,2.973,2.973,0,0,1-.171-1.025v-.205a3.228,3.228,0,0,1,.193-1.152,2.587,2.587,0,0,1,.515-.854,2.227,2.227,0,0,1,.737-.53,2.119,2.119,0,0,1,.864-.183,2.229,2.229,0,0,1,.977.2,1.852,1.852,0,0,1,.676.544,2.314,2.314,0,0,1,.393.82,3.97,3.97,0,0,1,.127,1.03v.405H35.342a2.262,2.262,0,0,0,.12.684,1.667,1.667,0,0,0,.313.552,1.455,1.455,0,0,0,1.135.508,1.573,1.573,0,0,0,.811-.2,2.037,2.037,0,0,0,.581-.518l.552.43a2.413,2.413,0,0,1-.308.378,2.1,2.1,0,0,1-.422.327,2.222,2.222,0,0,1-.554.229A2.688,2.688,0,0,1,36.86,13.1Zm-.112-4.736a1.218,1.218,0,0,0-.913.391,1.564,1.564,0,0,0-.3.474,2.4,2.4,0,0,0-.164.649h2.646V9.807a2.5,2.5,0,0,0-.085-.522,1.419,1.419,0,0,0-.22-.464,1.132,1.132,0,0,0-.383-.332A1.208,1.208,0,0,0,36.748,8.361Zm4.072-.645.029.664a2.042,2.042,0,0,1,.684-.559,1.961,1.961,0,0,1,.9-.2,2.184,2.184,0,0,1,.7.1,1.284,1.284,0,0,1,.532.337,1.559,1.559,0,0,1,.339.6,2.842,2.842,0,0,1,.12.881V13h-.9V9.528A1.763,1.763,0,0,0,43.149,9a.866.866,0,0,0-.2-.354.8.8,0,0,0-.332-.2,1.5,1.5,0,0,0-.457-.063,1.3,1.3,0,0,0-.771.234,1.592,1.592,0,0,0-.518.615V13h-.9V7.717Zm4.443,2.6a3.817,3.817,0,0,1,.149-1.1,2.6,2.6,0,0,1,.422-.85,1.931,1.931,0,0,1,.657-.549,1.86,1.86,0,0,1,.857-.2,2.032,2.032,0,0,1,.845.164,1.784,1.784,0,0,1,.625.471V5.5h.9V13h-.83l-.044-.566a1.765,1.765,0,0,1-.635.493,2.073,2.073,0,0,1-.874.171,1.8,1.8,0,0,1-.847-.2,1.96,1.96,0,0,1-.657-.559,2.663,2.663,0,0,1-.422-.85,3.677,3.677,0,0,1-.149-1.072Zm.9.1a3.3,3.3,0,0,0,.081.745,1.846,1.846,0,0,0,.251.608,1.277,1.277,0,0,0,.435.41,1.245,1.245,0,0,0,.63.151,1.519,1.519,0,0,0,.43-.056,1.257,1.257,0,0,0,.344-.159,1.3,1.3,0,0,0,.273-.244,1.655,1.655,0,0,0,.208-.312V9.133a1.726,1.726,0,0,0-.205-.3,1.26,1.26,0,0,0-.271-.237A1.3,1.3,0,0,0,48,8.442a1.5,1.5,0,0,0-.425-.056,1.252,1.252,0,0,0-.637.154,1.276,1.276,0,0,0-.437.417,1.9,1.9,0,0,0-.251.613,3.3,3.3,0,0,0-.081.745ZM52.1,13h-.9V7.717h.9Zm-.977-6.685a.539.539,0,0,1,.134-.371.5.5,0,0,1,.4-.151.512.512,0,0,1,.4.151.534.534,0,0,1,.137.371.516.516,0,0,1-.137.366.521.521,0,0,1-.4.146.513.513,0,0,1-.4-.146A.521.521,0,0,1,51.128,6.315Zm3.276,1.4.029.664a2.042,2.042,0,0,1,.684-.559,1.961,1.961,0,0,1,.9-.2,2.184,2.184,0,0,1,.7.1,1.284,1.284,0,0,1,.532.337,1.559,1.559,0,0,1,.339.6,2.842,2.842,0,0,1,.12.881V13h-.9V9.528A1.763,1.763,0,0,0,56.733,9a.866.866,0,0,0-.2-.354.8.8,0,0,0-.332-.2,1.5,1.5,0,0,0-.457-.063,1.3,1.3,0,0,0-.771.234,1.592,1.592,0,0,0-.518.615V13h-.9V7.717Zm4.448,2.6A3.938,3.938,0,0,1,59,9.213a2.555,2.555,0,0,1,.415-.85,1.854,1.854,0,0,1,1.526-.745,2.023,2.023,0,0,1,.874.176,1.771,1.771,0,0,1,.635.508l.044-.586h.825v5.171a2.482,2.482,0,0,1-.164.93,1.907,1.907,0,0,1-.461.688,2,2,0,0,1-.708.427,2.685,2.685,0,0,1-.908.146,2.781,2.781,0,0,1-.471-.046,2.833,2.833,0,0,1-.537-.151,2.409,2.409,0,0,1-.52-.281,1.686,1.686,0,0,1-.425-.435l.469-.542a2.118,2.118,0,0,0,.342.342,1.854,1.854,0,0,0,.354.22,1.6,1.6,0,0,0,.361.12,1.851,1.851,0,0,0,.364.037,1.74,1.74,0,0,0,.576-.09,1.167,1.167,0,0,0,.442-.271,1.2,1.2,0,0,0,.281-.442,1.732,1.732,0,0,0,.1-.608v-.459a1.778,1.778,0,0,1-.627.464,2.089,2.089,0,0,1-.852.161,1.823,1.823,0,0,1-.857-.2,1.937,1.937,0,0,1-.654-.559,2.656,2.656,0,0,1-.417-.85,3.734,3.734,0,0,1-.146-1.072Zm.908.1a3.3,3.3,0,0,0,.081.745,1.879,1.879,0,0,0,.249.608,1.2,1.2,0,0,0,1.062.562,1.484,1.484,0,0,0,.432-.059,1.3,1.3,0,0,0,.347-.161,1.249,1.249,0,0,0,.271-.244,1.727,1.727,0,0,0,.205-.312V9.143a1.812,1.812,0,0,0-.205-.3,1.282,1.282,0,0,0-.271-.242,1.257,1.257,0,0,0-.344-.159,1.5,1.5,0,0,0-.425-.056,1.239,1.239,0,0,0-.635.154,1.283,1.283,0,0,0-.435.417,1.9,1.9,0,0,0-.251.613,3.3,3.3,0,0,0-.081.745Z" transform="translate(95 197)" fill="#0c2339"/>
        <g id="_3" data-name="3" transform="translate(-249.5 -148.577)">
          <circle id="Ellipse_55" data-name="Ellipse 55" cx="5.333" cy="5.333" r="5.333" transform="translate(417.333 356.417)" fill="#3cca8e"/>
          <path id="Path_574" data-name="Path 574" d="M1.143-2.4h.387A1.112,1.112,0,0,0,1.9-2.452a.743.743,0,0,0,.264-.154.628.628,0,0,0,.158-.231.786.786,0,0,0,.053-.292.774.774,0,0,0-.185-.558.747.747,0,0,0-.562-.192.922.922,0,0,0-.315.051.692.692,0,0,0-.243.146.652.652,0,0,0-.157.231.8.8,0,0,0-.056.3H.313a1.133,1.133,0,0,1,.094-.46A1.11,1.11,0,0,1,.674-3.98a1.272,1.272,0,0,1,.415-.252,1.5,1.5,0,0,1,.538-.092,1.69,1.69,0,0,1,.527.078,1.122,1.122,0,0,1,.406.229,1.025,1.025,0,0,1,.262.376,1.359,1.359,0,0,1,.094.524.877.877,0,0,1-.04.252,1.025,1.025,0,0,1-.12.258,1.084,1.084,0,0,1-.208.236,1.12,1.12,0,0,1-.3.183,1.139,1.139,0,0,1,.353.177.953.953,0,0,1,.227.245.929.929,0,0,1,.12.284,1.277,1.277,0,0,1,.035.293,1.308,1.308,0,0,1-.1.532,1.1,1.1,0,0,1-.284.391,1.259,1.259,0,0,1-.428.242,1.659,1.659,0,0,1-.536.083A1.733,1.733,0,0,1,1.1-.019,1.282,1.282,0,0,1,.674-.248,1.082,1.082,0,0,1,.382-.62a1.147,1.147,0,0,1-.107-.505H.82a.8.8,0,0,0,.056.3.654.654,0,0,0,.161.234.721.721,0,0,0,.255.151,1.008,1.008,0,0,0,.337.053,1.092,1.092,0,0,0,.337-.048A.662.662,0,0,0,2.221-.58a.647.647,0,0,0,.161-.249,1,1,0,0,0,.056-.349.853.853,0,0,0-.064-.346.629.629,0,0,0-.183-.242A.792.792,0,0,0,1.9-1.907a1.387,1.387,0,0,0-.375-.047H1.143Z" transform="translate(421 364.083)" fill="#fff"/>
        </g>
      </g>
    </g>
  </g>
</svg>
