<?xml version="1.0" encoding="utf-8"?>
<!-- Generator: Adobe Illustrator 27.2.0, SVG Export Plug-In . SVG Version: 6.00 Build 0)  -->
<svg version="1.1"
	 id="svg10" xmlns:inkscape="http://www.inkscape.org/namespaces/inkscape" xmlns:sodipodi="http://sodipodi.sourceforge.net/DTD/sodipodi-0.dtd" xmlns:svg="http://www.w3.org/2000/svg"
	 xmlns="http://www.w3.org/2000/svg" xmlns:xlink="http://www.w3.org/1999/xlink" x="0px" y="0px" viewBox="0 0 1352 59"
	 style="enable-background:new 0 0 1352 59;" xml:space="preserve">
<style type="text/css">
	.st0{fill:#FFFFFF;}
	.st1{fill:#0C2339;}
	.st2{fill:#A5AABC;}
</style>
<sodipodi:namedview  bordercolor="#666666" borderopacity="1.0" id="namedview12" inkscape:pagecheckerboard="0" inkscape:pageopacity="0.0" inkscape:pageshadow="2" pagecolor="#ffffff">
	</sodipodi:namedview>
<g id="g8" transform="translate(-67.733)">
	<path id="rect2" class="st0" d="M67.7,0h1352v59H67.7V0z"/>
	<g id="text6" transform="translate(83.733,35)">
		<path id="path17" class="st1" d="M6.7-4.2h-4V0H1v-10h6.3v1.4H2.7v3h4V-4.2z"/>
		<path id="path19" class="st1" d="M10.3,0H8.6v-10.5h1.7V0z"/>
		<path id="path21" class="st1" d="M11.8-3.8c0-0.7,0.1-1.4,0.4-2c0.3-0.6,0.7-1,1.2-1.3c0.5-0.3,1.1-0.5,1.8-0.5c1,0,1.8,0.3,2.4,1
			c0.6,0.6,1,1.5,1,2.6l0,0.4c0,0.7-0.1,1.4-0.4,2c-0.3,0.6-0.7,1-1.2,1.3c-0.5,0.3-1.1,0.5-1.8,0.5c-1,0-1.9-0.3-2.5-1
			C12.1-1.6,11.8-2.5,11.8-3.8L11.8-3.8z M13.5-3.6c0,0.8,0.2,1.4,0.5,1.8c0.3,0.4,0.8,0.6,1.3,0.6s1-0.2,1.3-0.7
			C16.9-2.3,17-2.9,17-3.8c0-0.7-0.2-1.3-0.5-1.8c-0.3-0.4-0.8-0.7-1.3-0.7c-0.5,0-1,0.2-1.3,0.6C13.6-5.1,13.5-4.5,13.5-3.6z"/>
		<path id="path23" class="st1" d="M26.6-2.3l1.2-5.1h1.6l-2,7.4H26l-1.6-5.1L22.9,0h-1.4l-2-7.4h1.6l1.2,5.1l1.5-5.1H25L26.6-2.3z"
			/>
		<path id="path25" class="st1" d="M34.1,0v-10h2.9c0.9,0,1.7,0.2,2.3,0.6C40.1-9,40.6-8.4,41-7.7s0.6,1.5,0.6,2.5v0.5
			c0,0.9-0.2,1.8-0.6,2.5c-0.4,0.7-0.9,1.3-1.6,1.7C38.7-0.2,37.9,0,37,0H34.1z M35.9-8.6v7.2H37c0.9,0,1.6-0.3,2.1-0.8
			c0.5-0.6,0.7-1.4,0.7-2.4v-0.6c0-1.1-0.2-1.9-0.7-2.5s-1.2-0.9-2-0.9H35.9z"/>
		<path id="path27" class="st1" d="M46.4,0.1c-1.1,0-1.9-0.3-2.6-1c-0.7-0.7-1-1.5-1-2.7v-0.2c0-0.7,0.1-1.4,0.4-2
			c0.3-0.6,0.7-1,1.2-1.4s1.1-0.5,1.7-0.5c1,0,1.8,0.3,2.3,1c0.6,0.6,0.8,1.6,0.8,2.7v0.7h-4.8c0.1,0.6,0.3,1.1,0.6,1.4
			c0.4,0.4,0.8,0.5,1.4,0.5c0.8,0,1.4-0.3,1.9-0.9l0.9,0.9c-0.3,0.4-0.7,0.8-1.2,1C47.6,0,47,0.1,46.4,0.1z M46.2-6.2
			c-0.5,0-0.8,0.2-1.1,0.5c-0.3,0.3-0.5,0.8-0.5,1.3h3.2v-0.1c0-0.6-0.2-1-0.4-1.3C47-6.1,46.6-6.2,46.2-6.2z"/>
		<path id="path29" class="st1" d="M54.8-2c0-0.3-0.1-0.5-0.4-0.7c-0.2-0.2-0.6-0.3-1.2-0.4s-1-0.3-1.4-0.5c-0.8-0.4-1.2-1-1.2-1.7
			c0-0.6,0.3-1.2,0.8-1.6s1.2-0.6,2.1-0.6c0.9,0,1.6,0.2,2.1,0.7c0.5,0.4,0.8,1,0.8,1.7h-1.7c0-0.3-0.1-0.6-0.4-0.8
			c-0.2-0.2-0.6-0.3-0.9-0.3c-0.4,0-0.7,0.1-0.9,0.3c-0.2,0.2-0.3,0.4-0.3,0.7c0,0.3,0.1,0.5,0.3,0.6s0.6,0.3,1.3,0.4
			c0.7,0.1,1.2,0.3,1.5,0.5c0.4,0.2,0.6,0.4,0.8,0.7c0.2,0.3,0.3,0.6,0.3,1c0,0.7-0.3,1.2-0.8,1.6c-0.6,0.4-1.3,0.6-2.2,0.6
			c-0.6,0-1.1-0.1-1.6-0.3S51-0.7,50.7-1.1s-0.4-0.8-0.4-1.2h1.6c0,0.4,0.2,0.7,0.4,0.9c0.3,0.2,0.6,0.3,1.1,0.3
			c0.4,0,0.8-0.1,1-0.2C54.7-1.5,54.8-1.7,54.8-2z"/>
		<path id="path31" class="st1" d="M59.6,0H58v-7.4h1.7V0z M57.9-9.3c0-0.3,0.1-0.5,0.2-0.6c0.2-0.2,0.4-0.3,0.7-0.3
			s0.5,0.1,0.7,0.3s0.2,0.4,0.2,0.6c0,0.3-0.1,0.5-0.2,0.6c-0.2,0.2-0.4,0.2-0.7,0.2s-0.5-0.1-0.7-0.2C57.9-8.9,57.9-9.1,57.9-9.3z"
			/>
		<path id="path33" class="st1" d="M61.1-3.8c0-1.1,0.3-2.1,0.8-2.7c0.5-0.7,1.3-1,2.2-1c0.8,0,1.5,0.3,2,0.9l0.1-0.7h1.5v7.2
			c0,1-0.3,1.7-0.9,2.3c-0.6,0.6-1.4,0.8-2.4,0.8c-0.5,0-1.1-0.1-1.6-0.3c-0.5-0.2-0.9-0.5-1.2-0.9l0.8-1c0.5,0.6,1.1,0.9,1.9,0.9
			c0.6,0,1-0.2,1.3-0.5C65.8,0.9,66,0.4,66-0.2v-0.5c-0.5,0.5-1.1,0.8-1.9,0.8c-0.9,0-1.6-0.3-2.1-1C61.4-1.6,61.1-2.5,61.1-3.8z
			 M62.8-3.6c0,0.7,0.2,1.3,0.5,1.8c0.3,0.4,0.7,0.6,1.3,0.6c0.7,0,1.2-0.3,1.5-0.9v-3.3c-0.3-0.6-0.8-0.8-1.5-0.8
			c-0.5,0-1,0.2-1.3,0.6C63-5.1,62.8-4.5,62.8-3.6z"/>
		<path id="path35" class="st1" d="M70.9-7.4l0,0.9c0.5-0.7,1.3-1,2.2-1c1.5,0,2.3,0.9,2.4,2.6V0h-1.7v-4.8c0-0.5-0.1-0.8-0.3-1
			c-0.2-0.2-0.5-0.3-1-0.3c-0.7,0-1.2,0.3-1.5,0.9V0h-1.7v-7.4H70.9z"/>
		<path id="path37" class="st1" d="M80.4,0.1c-1.1,0-1.9-0.3-2.6-1c-0.7-0.7-1-1.5-1-2.7v-0.2c0-0.7,0.1-1.4,0.4-2
			c0.3-0.6,0.7-1,1.2-1.4s1.1-0.5,1.7-0.5c1,0,1.8,0.3,2.3,1c0.6,0.6,0.8,1.6,0.8,2.7v0.7h-4.8c0.1,0.6,0.3,1.1,0.6,1.4
			c0.4,0.4,0.8,0.5,1.4,0.5c0.8,0,1.4-0.3,1.9-0.9l0.9,0.9c-0.3,0.4-0.7,0.8-1.2,1C81.6,0,81,0.1,80.4,0.1z M80.2-6.2
			c-0.5,0-0.8,0.2-1.1,0.5c-0.3,0.3-0.5,0.8-0.5,1.3h3.2v-0.1c0-0.6-0.2-1-0.4-1.3C81-6.1,80.7-6.2,80.2-6.2z"/>
		<path id="path39" class="st1" d="M88.5-5.9c-0.2,0-0.4-0.1-0.7-0.1c-0.8,0-1.3,0.3-1.5,0.9V0h-1.7v-7.4h1.6l0,0.8
			c0.4-0.6,1-1,1.7-1c0.2,0,0.4,0,0.6,0.1L88.5-5.9z"/>
		<path id="path41" class="st1" d="M93.1-4c0-1.1,0.1-2.1,0.4-3c0.3-0.9,0.7-1.8,1.2-2.5c0.5-0.7,1.1-1.3,1.7-1.6l0.3,1
			c-0.6,0.5-1.2,1.2-1.6,2.2c-0.4,1-0.6,2.1-0.6,3.4l0,0.6c0,1.4,0.2,2.6,0.6,3.7c0.4,1.1,0.9,1.9,1.6,2.5l-0.3,0.9
			c-0.6-0.3-1.2-0.8-1.7-1.6c-0.5-0.7-1-1.6-1.2-2.5C93.2-1.9,93.1-2.9,93.1-4z"/>
		<path id="path43" class="st1" d="M102.4,0h-1.7v-8l-2.4,0.8v-1.4l3.9-1.4h0.2L102.4,0z"/>
		<path id="path45" class="st1" d="M111.5-9.2v1.8h1.3v1.2h-1.3V-2c0,0.3,0.1,0.5,0.2,0.6c0.1,0.1,0.3,0.2,0.6,0.2
			c0.2,0,0.4,0,0.6-0.1V0c-0.4,0.1-0.7,0.2-1.1,0.2c-1.3,0-1.9-0.7-1.9-2.1v-4.2h-1.2v-1.2h1.2v-1.8L111.5-9.2z"/>
		<path id="path47" class="st1" d="M113.5-3.8c0-0.7,0.1-1.4,0.4-2c0.3-0.6,0.7-1,1.2-1.3c0.5-0.3,1.1-0.5,1.8-0.5
			c1,0,1.8,0.3,2.4,1c0.6,0.6,1,1.5,1,2.6l0,0.4c0,0.7-0.1,1.4-0.4,2c-0.3,0.6-0.7,1-1.2,1.3c-0.5,0.3-1.1,0.5-1.8,0.5
			c-1,0-1.9-0.3-2.5-1C113.9-1.6,113.5-2.5,113.5-3.8L113.5-3.8z M115.2-3.6c0,0.8,0.2,1.4,0.5,1.8c0.3,0.4,0.8,0.6,1.3,0.6
			s1-0.2,1.3-0.7c0.3-0.4,0.5-1.1,0.5-1.9c0-0.7-0.2-1.3-0.5-1.8C118-6,117.5-6.2,117-6.2c-0.5,0-1,0.2-1.3,0.6
			C115.4-5.1,115.2-4.5,115.2-3.6z"/>
		<path id="path49" class="st1" d="M123.9-9.2v1.8h1.3v1.2h-1.3V-2c0,0.3,0.1,0.5,0.2,0.6c0.1,0.1,0.3,0.2,0.6,0.2
			c0.2,0,0.4,0,0.6-0.1V0c-0.4,0.1-0.7,0.2-1.1,0.2c-1.3,0-1.9-0.7-1.9-2.1v-4.2H121v-1.2h1.2v-1.8L123.9-9.2z"/>
		<path id="path51" class="st1" d="M130.9,0c-0.1-0.1-0.1-0.4-0.2-0.7c-0.5,0.6-1.2,0.8-1.9,0.8c-0.7,0-1.3-0.2-1.8-0.6
			s-0.7-0.9-0.7-1.6c0-0.8,0.3-1.4,0.9-1.8c0.6-0.4,1.4-0.6,2.5-0.6h1V-5c0-0.4-0.1-0.7-0.3-0.9c-0.2-0.2-0.5-0.3-1-0.3
			c-0.4,0-0.7,0.1-0.9,0.3c-0.2,0.2-0.4,0.4-0.4,0.7h-1.7c0-0.4,0.1-0.8,0.4-1.1c0.3-0.4,0.6-0.6,1.1-0.8c0.5-0.2,1-0.3,1.6-0.3
			c0.9,0,1.6,0.2,2.1,0.7c0.5,0.4,0.8,1,0.8,1.8v3.3c0,0.7,0.1,1.2,0.3,1.6V0H130.9z M129.1-1.2c0.3,0,0.6-0.1,0.9-0.2
			c0.3-0.2,0.5-0.4,0.7-0.6v-1.4h-0.9c-0.6,0-1.1,0.1-1.4,0.3c-0.3,0.2-0.5,0.5-0.5,0.9c0,0.3,0.1,0.6,0.3,0.8
			C128.4-1.3,128.7-1.2,129.1-1.2L129.1-1.2z"/>
		<path id="path53" class="st1" d="M135.8,0h-1.7v-10.5h1.7V0z"/>
		<path id="path55" class="st1" d="M140.8-3.9c0,1-0.1,2-0.4,2.9c-0.3,0.9-0.7,1.8-1.3,2.6c-0.6,0.8-1.2,1.3-1.8,1.6l-0.3-0.9
			c0.7-0.5,1.2-1.3,1.6-2.4c0.4-1.1,0.6-2.3,0.6-3.7v-0.2c0-1.3-0.2-2.4-0.5-3.5c-0.3-1-0.8-1.9-1.5-2.5l-0.2-0.2l0.3-0.9
			c0.6,0.3,1.1,0.8,1.7,1.5s1,1.5,1.3,2.4c0.3,0.9,0.5,1.8,0.5,2.8L140.8-3.9z"/>
	</g>
</g>
<path id="Path_90" class="st2" d="M1321.8,23.5h-1.2v-0.6c0-0.2-0.2-0.4-0.4-0.4s-0.4,0.2-0.4,0.4v0.6h-5.7v-0.6
	c0-0.2-0.2-0.4-0.4-0.4s-0.4,0.2-0.4,0.4v0.6h-1.2c-0.9,0-1.7,0.8-1.7,1.7v8.6c0,0.9,0.8,1.7,1.7,1.7h9.6c0.9,0,1.7-0.8,1.7-1.7
	v-8.6C1323.5,24.3,1322.7,23.5,1321.8,23.5z M1322.7,33.8c0,0.5-0.4,0.9-0.9,0.9h-9.6c-0.5,0-0.9-0.4-0.9-0.9v-6.7
	c0-0.1,0.1-0.1,0.1-0.1h11.1c0.1,0,0.1,0.1,0.1,0.1L1322.7,33.8z"/>
</svg>
