<svg xmlns="http://www.w3.org/2000/svg" xmlns:xlink="http://www.w3.org/1999/xlink" width="1064.5" height="595.752" viewBox="0 0 1064.5 595.752">
  <defs>
    <clipPath id="clip-path">
      <rect id="Rectangle_89" data-name="Rectangle 89" width="63.472" height="52.882" fill="none" stroke="#a1a1a1" stroke-width="3"/>
    </clipPath>
    <clipPath id="clip-path-2">
      <rect id="Rectangle_89-2" data-name="Rectangle 89" width="63.472" height="52.882" fill="none" stroke="#3cca8e" stroke-width="3"/>
    </clipPath>
    <clipPath id="clip-path-3">
      <rect id="Rectangle_89-3" data-name="Rectangle 89" width="63.472" height="52.882" fill="none" stroke="#fe746e" stroke-width="3"/>
    </clipPath>
    <clipPath id="clip-path-8">
      <rect x="16" width="295.432" height="12.385" fill="none"/>
    </clipPath>
  </defs>
  <g id="Group_819" data-name="Group 819" transform="translate(-201 -77)">
    <path id="Move_icon" data-name="Move icon" d="M11.65,7.123,10.257,8.516a.348.348,0,0,1-.492-.492l.8-.8H7.225v3.338l.8-.8a.348.348,0,0,1,.492.492L7.123,11.65a.349.349,0,0,1-.493,0L5.237,10.257a.348.348,0,1,1,.492-.492l.8.8V7.225H3.19l.8.8a.348.348,0,1,1-.492.492L2.1,7.123a.35.35,0,0,1,0-.493L3.5,5.237a.348.348,0,1,1,.492.492l-.8.8H6.528V3.19l-.8.8A.348.348,0,1,1,5.237,3.5L6.63,2.1a.35.35,0,0,1,.493,0L8.516,3.5a.348.348,0,0,1-.493.492l-.8-.8V6.528h3.338l-.8-.8a.348.348,0,1,1,.492-.492L11.65,6.63A.349.349,0,0,1,11.65,7.123Z" transform="translate(198.999 74.998)" fill="#a1a1a1"/>
    <path id="Flow_performance_white_bg" data-name="Flow performance white bg" d="M5,0H1056.5a5,5,0,0,1,5,5V572a5,5,0,0,1-5,5H5a5,5,0,0,1-5-5V5A5,5,0,0,1,5,0Z" transform="translate(204 95.752)" fill="#fff"/>
    <path id="Flow_performance_white_bg_-_Outline" data-name="Flow performance white bg - Outline" d="M5,.5A4.505,4.505,0,0,0,.5,5V572A4.505,4.505,0,0,0,5,576.5H1056.5a4.505,4.505,0,0,0,4.5-4.5V5a4.505,4.505,0,0,0-4.5-4.5H5M5,0H1056.5a5,5,0,0,1,5,5V572a5,5,0,0,1-5,5H5a5,5,0,0,1-5-5V5A5,5,0,0,1,5,0Z" transform="translate(204 95.752)" fill="rgba(165,170,188,0.5)"/>
    <path id="Path_53" data-name="Path 53" d="M1061.5.25H0v-.5H1061.5Z" transform="translate(204 136.252)" fill="rgba(165,170,188,0.25)"/>
    <path id="Path_981" data-name="Path 981" d="M7.377-2.777A3.08,3.08,0,0,1,6.369-.647,3.436,3.436,0,0,1,4.031.117a3.327,3.327,0,0,1-1.8-.483,3.173,3.173,0,0,1-1.2-1.374A4.958,4.958,0,0,1,.6-3.809v-.8a4.994,4.994,0,0,1,.428-2.127A3.224,3.224,0,0,1,2.253-8.15a3.424,3.424,0,0,1,1.849-.5,3.3,3.3,0,0,1,2.273.765,3.2,3.2,0,0,1,1,2.165H5.9a2.107,2.107,0,0,0-.536-1.327A1.772,1.772,0,0,0,4.1-7.453a1.731,1.731,0,0,0-1.485.707,3.532,3.532,0,0,0-.53,2.073v.757a3.747,3.747,0,0,0,.5,2.111,1.643,1.643,0,0,0,1.45.727,1.917,1.917,0,0,0,1.313-.393A2.047,2.047,0,0,0,5.9-2.777ZM12.4-.621a2.208,2.208,0,0,1-1.781.738,1.968,1.968,0,0,1-1.562-.6,2.567,2.567,0,0,1-.53-1.746V-6.34H9.955v4.09q0,1.207,1,1.207a1.407,1.407,0,0,0,1.4-.744V-6.34h1.424V0H12.439Zm6.146-4.418a3.523,3.523,0,0,0-.58-.047,1.306,1.306,0,0,0-1.318.75V0H15.229V-6.34h1.359l.035.709a1.6,1.6,0,0,1,1.43-.826,1.333,1.333,0,0,1,.5.082Zm4.219,0a3.523,3.523,0,0,0-.58-.047,1.306,1.306,0,0,0-1.318.75V0H19.447V-6.34h1.359l.035.709a1.6,1.6,0,0,1,1.43-.826,1.333,1.333,0,0,1,.5.082ZM26.35.117a2.946,2.946,0,0,1-2.194-.853,3.093,3.093,0,0,1-.841-2.271v-.176a3.8,3.8,0,0,1,.366-1.7,2.787,2.787,0,0,1,1.028-1.163,2.719,2.719,0,0,1,1.477-.416,2.488,2.488,0,0,1,2,.826,3.494,3.494,0,0,1,.706,2.338v.574H24.75a1.9,1.9,0,0,0,.524,1.242,1.574,1.574,0,0,0,1.157.457,1.928,1.928,0,0,0,1.594-.791l.768.732A2.563,2.563,0,0,1,27.776-.2,3.183,3.183,0,0,1,26.35.117Zm-.17-5.432a1.2,1.2,0,0,0-.946.41,2.126,2.126,0,0,0-.46,1.143h2.713v-.105a1.731,1.731,0,0,0-.381-1.081A1.19,1.19,0,0,0,26.18-5.314ZM31.318-6.34l.041.732a2.28,2.28,0,0,1,1.846-.85q1.98,0,2.016,2.268V0H33.8V-4.107A1.306,1.306,0,0,0,33.536-5a1.1,1.1,0,0,0-.853-.29,1.372,1.372,0,0,0-1.283.779V0H29.977V-6.34Zm7.137-1.541V-6.34h1.119v1.055H38.455v3.539a.779.779,0,0,0,.144.524.666.666,0,0,0,.513.161,2.193,2.193,0,0,0,.5-.059v1.1a3.507,3.507,0,0,1-.937.135q-1.641,0-1.641-1.811V-5.285H35.988V-6.34h1.043V-7.881ZM49.6-7.336h-2.66V0H45.469V-7.336H42.832v-1.2H49.6ZM53.385,0a2.2,2.2,0,0,1-.164-.592,2.216,2.216,0,0,1-1.664.709A2.237,2.237,0,0,1,50-.428a1.743,1.743,0,0,1-.6-1.348,1.8,1.8,0,0,1,.753-1.556A3.649,3.649,0,0,1,52.3-3.873h.873v-.416a1.11,1.11,0,0,0-.275-.788,1.092,1.092,0,0,0-.838-.3,1.254,1.254,0,0,0-.8.243.753.753,0,0,0-.311.618H49.529a1.58,1.58,0,0,1,.346-.976,2.3,2.3,0,0,1,.94-.712,3.3,3.3,0,0,1,1.327-.258,2.66,2.66,0,0,1,1.775.56,2,2,0,0,1,.68,1.573v2.859A3.241,3.241,0,0,0,54.838-.1V0ZM51.82-1.025a1.62,1.62,0,0,0,.794-.205,1.37,1.37,0,0,0,.56-.551v-1.2h-.768a2.1,2.1,0,0,0-1.189.275.892.892,0,0,0-.4.779.832.832,0,0,0,.272.653A1.055,1.055,0,0,0,51.82-1.025Zm7.588-4.014a3.523,3.523,0,0,0-.58-.047,1.306,1.306,0,0,0-1.318.75V0H56.086V-6.34h1.359l.035.709a1.6,1.6,0,0,1,1.43-.826,1.333,1.333,0,0,1,.5.082Zm.539,1.822a3.708,3.708,0,0,1,.694-2.358,2.229,2.229,0,0,1,1.843-.882,2.088,2.088,0,0,1,1.705.756l.064-.639h1.283V-.193a2.555,2.555,0,0,1-.776,1.969,2.957,2.957,0,0,1-2.095.721,3.376,3.376,0,0,1-1.362-.29,2.421,2.421,0,0,1-1.011-.759l.674-.855a2.035,2.035,0,0,0,1.617.779A1.573,1.573,0,0,0,63.7.987a1.471,1.471,0,0,0,.41-1.128V-.568a2.1,2.1,0,0,1-1.641.686,2.223,2.223,0,0,1-1.819-.885A3.828,3.828,0,0,1,59.947-3.217Zm1.418.123a2.552,2.552,0,0,0,.39,1.5,1.253,1.253,0,0,0,1.081.548,1.37,1.37,0,0,0,1.277-.738V-4.57a1.351,1.351,0,0,0-1.266-.721,1.258,1.258,0,0,0-1.093.557A2.858,2.858,0,0,0,61.365-3.094ZM69.791.117A2.946,2.946,0,0,1,67.6-.735a3.093,3.093,0,0,1-.841-2.271v-.176a3.8,3.8,0,0,1,.366-1.7A2.787,2.787,0,0,1,68.15-6.041a2.719,2.719,0,0,1,1.477-.416,2.488,2.488,0,0,1,2,.826,3.494,3.494,0,0,1,.706,2.338v.574H68.191a1.9,1.9,0,0,0,.524,1.242,1.574,1.574,0,0,0,1.157.457,1.928,1.928,0,0,0,1.594-.791l.768.732A2.563,2.563,0,0,1,71.218-.2,3.183,3.183,0,0,1,69.791.117Zm-.17-5.432a1.2,1.2,0,0,0-.946.41,2.126,2.126,0,0,0-.46,1.143h2.713v-.105a1.731,1.731,0,0,0-.381-1.081A1.19,1.19,0,0,0,69.621-5.314Zm5.6-2.566V-6.34h1.119v1.055H75.223v3.539a.779.779,0,0,0,.144.524.666.666,0,0,0,.513.161,2.193,2.193,0,0,0,.5-.059v1.1a3.507,3.507,0,0,1-.937.135Q73.8.117,73.8-1.693V-5.285H72.756V-6.34H73.8V-7.881ZM85.969-3.105A3.775,3.775,0,0,1,85.3-.759a2.139,2.139,0,0,1-1.793.876,2.154,2.154,0,0,1-1.67-.686V2.438H80.414V-6.34h1.313l.059.645a2.091,2.091,0,0,1,1.705-.762,2.161,2.161,0,0,1,1.819.864,3.875,3.875,0,0,1,.659,2.4Zm-1.418-.123a2.644,2.644,0,0,0-.378-1.506,1.229,1.229,0,0,0-1.081-.557,1.31,1.31,0,0,0-1.254.721v2.813A1.322,1.322,0,0,0,83.1-1.02a1.227,1.227,0,0,0,1.063-.548A2.911,2.911,0,0,0,84.551-3.229ZM89.965.117a2.946,2.946,0,0,1-2.194-.853,3.093,3.093,0,0,1-.841-2.271v-.176a3.8,3.8,0,0,1,.366-1.7,2.787,2.787,0,0,1,1.028-1.163A2.719,2.719,0,0,1,89.8-6.457a2.488,2.488,0,0,1,2,.826,3.494,3.494,0,0,1,.706,2.338v.574H88.365a1.9,1.9,0,0,0,.524,1.242,1.574,1.574,0,0,0,1.157.457,1.928,1.928,0,0,0,1.594-.791l.768.732A2.563,2.563,0,0,1,91.392-.2,3.183,3.183,0,0,1,89.965.117Zm-.17-5.432a1.2,1.2,0,0,0-.946.41,2.126,2.126,0,0,0-.46,1.143H91.1v-.105a1.731,1.731,0,0,0-.381-1.081A1.19,1.19,0,0,0,89.795-5.314Zm7.137.275a3.523,3.523,0,0,0-.58-.047,1.306,1.306,0,0,0-1.318.75V0H93.609V-6.34h1.359L95-5.631a1.6,1.6,0,0,1,1.43-.826,1.333,1.333,0,0,1,.5.082ZM98.449,0V-5.285h-.967V-6.34h.967v-.58a2.177,2.177,0,0,1,.586-1.629,2.244,2.244,0,0,1,1.641-.574,3.291,3.291,0,0,1,.8.105L101.438-7.9a2.8,2.8,0,0,0-.545-.047A.914.914,0,0,0,99.873-6.9v.563h1.289v1.055H99.873V0Zm3.486-3.229a3.738,3.738,0,0,1,.369-1.679,2.7,2.7,0,0,1,1.037-1.148,2.922,2.922,0,0,1,1.535-.4,2.769,2.769,0,0,1,2.083.826,3.249,3.249,0,0,1,.864,2.191l.006.334a3.772,3.772,0,0,1-.36,1.676,2.664,2.664,0,0,1-1.031,1.143,2.944,2.944,0,0,1-1.55.4,2.75,2.75,0,0,1-2.147-.894,3.422,3.422,0,0,1-.806-2.382Zm1.424.123a2.555,2.555,0,0,0,.4,1.532,1.314,1.314,0,0,0,1.125.554,1.3,1.3,0,0,0,1.122-.562,2.822,2.822,0,0,0,.4-1.646A2.522,2.522,0,0,0,106-4.752a1.319,1.319,0,0,0-1.122-.562,1.307,1.307,0,0,0-1.107.554A2.768,2.768,0,0,0,103.359-3.105Zm8.994-1.934a3.523,3.523,0,0,0-.58-.047,1.306,1.306,0,0,0-1.318.75V0h-1.424V-6.34h1.359l.035.709a1.6,1.6,0,0,1,1.43-.826,1.333,1.333,0,0,1,.5.082Zm2.238-1.3.041.662a2.281,2.281,0,0,1,1.828-.779,1.753,1.753,0,0,1,1.74.973,2.249,2.249,0,0,1,1.945-.973,1.977,1.977,0,0,1,1.562.58,2.554,2.554,0,0,1,.524,1.711V0h-1.424V-4.125a1.261,1.261,0,0,0-.264-.885,1.154,1.154,0,0,0-.873-.281,1.185,1.185,0,0,0-.794.261,1.375,1.375,0,0,0-.431.683L118.453,0h-1.424V-4.172a1.016,1.016,0,0,0-1.143-1.119,1.253,1.253,0,0,0-1.213.7V0H113.25V-6.34ZM127.482,0a2.2,2.2,0,0,1-.164-.592,2.216,2.216,0,0,1-1.664.709A2.237,2.237,0,0,1,124.1-.428a1.743,1.743,0,0,1-.6-1.348,1.8,1.8,0,0,1,.753-1.556,3.649,3.649,0,0,1,2.153-.542h.873v-.416A1.11,1.11,0,0,0,127-5.077a1.092,1.092,0,0,0-.838-.3,1.254,1.254,0,0,0-.8.243.753.753,0,0,0-.311.618h-1.424a1.58,1.58,0,0,1,.346-.976,2.3,2.3,0,0,1,.94-.712,3.3,3.3,0,0,1,1.327-.258,2.66,2.66,0,0,1,1.775.56,2,2,0,0,1,.68,1.573v2.859a3.241,3.241,0,0,0,.24,1.365V0Zm-1.564-1.025a1.62,1.62,0,0,0,.794-.205,1.37,1.37,0,0,0,.56-.551v-1.2H126.5a2.1,2.1,0,0,0-1.189.275.892.892,0,0,0-.4.779.832.832,0,0,0,.272.653A1.055,1.055,0,0,0,125.918-1.025Zm5.59-5.314.041.732a2.28,2.28,0,0,1,1.846-.85q1.98,0,2.016,2.268V0h-1.424V-4.107A1.306,1.306,0,0,0,133.726-5a1.1,1.1,0,0,0-.853-.29,1.372,1.372,0,0,0-1.283.779V0h-1.424V-6.34Zm7.957,5.32a1.287,1.287,0,0,0,.885-.311,1.061,1.061,0,0,0,.375-.768h1.342a2.091,2.091,0,0,1-.369,1.1,2.421,2.421,0,0,1-.937.812,2.794,2.794,0,0,1-1.277.3,2.7,2.7,0,0,1-2.109-.861,3.416,3.416,0,0,1-.779-2.379V-3.27a3.359,3.359,0,0,1,.773-2.317,2.678,2.678,0,0,1,2.109-.87,2.6,2.6,0,0,1,1.843.659,2.361,2.361,0,0,1,.747,1.731h-1.342a1.3,1.3,0,0,0-.372-.9,1.2,1.2,0,0,0-.888-.352,1.253,1.253,0,0,0-1.066.5,2.556,2.556,0,0,0-.381,1.521v.229a2.6,2.6,0,0,0,.372,1.538A1.252,1.252,0,0,0,139.465-1.02ZM145.934.117a2.946,2.946,0,0,1-2.194-.853,3.093,3.093,0,0,1-.841-2.271v-.176a3.8,3.8,0,0,1,.366-1.7,2.787,2.787,0,0,1,1.028-1.163,2.719,2.719,0,0,1,1.477-.416,2.488,2.488,0,0,1,2,.826,3.494,3.494,0,0,1,.706,2.338v.574h-4.143a1.9,1.9,0,0,0,.524,1.242,1.574,1.574,0,0,0,1.157.457,1.928,1.928,0,0,0,1.594-.791l.768.732A2.563,2.563,0,0,1,147.36-.2,3.183,3.183,0,0,1,145.934.117Zm-.17-5.432a1.2,1.2,0,0,0-.946.41,2.126,2.126,0,0,0-.46,1.143h2.713v-.105a1.731,1.731,0,0,0-.381-1.081A1.19,1.19,0,0,0,145.764-5.314Z" transform="translate(214 119.752)" fill="#0c2339"/>
    <path id="Path_995" data-name="Path 995" d="M6.885-7.611H4.143V0H3.023V-7.611H.287v-.92h6.6ZM11.232,0a2.277,2.277,0,0,1-.152-.668,2.419,2.419,0,0,1-1.8.785,2.238,2.238,0,0,1-1.538-.53,1.716,1.716,0,0,1-.6-1.345A1.792,1.792,0,0,1,7.89-3.3a3.55,3.55,0,0,1,2.118-.548h1.055v-.5a1.217,1.217,0,0,0-.34-.905,1.366,1.366,0,0,0-1-.337,1.581,1.581,0,0,0-.973.293.863.863,0,0,0-.393.709H7.266A1.5,1.5,0,0,1,7.6-5.5a2.3,2.3,0,0,1,.914-.7,3.075,3.075,0,0,1,1.269-.258,2.506,2.506,0,0,1,1.717.548A1.976,1.976,0,0,1,12.146-4.4v2.918a3.567,3.567,0,0,0,.223,1.389V0Zm-1.8-.826A1.905,1.905,0,0,0,10.4-1.09a1.6,1.6,0,0,0,.662-.686v-1.3h-.85q-1.992,0-1.992,1.166a.987.987,0,0,0,.34.8A1.306,1.306,0,0,0,9.434-.826ZM16.91-5.367a3.248,3.248,0,0,0-.533-.041A1.428,1.428,0,0,0,14.93-4.5V0H13.846V-6.34H14.9l.018.732a1.688,1.688,0,0,1,1.512-.85,1.107,1.107,0,0,1,.48.082Zm.627,2.145a3.726,3.726,0,0,1,.686-2.358,2.192,2.192,0,0,1,1.816-.876,2.181,2.181,0,0,1,1.811.82l.053-.7h.99V-.152a2.579,2.579,0,0,1-.729,1.939A2.692,2.692,0,0,1,20.2,2.5,3.261,3.261,0,0,1,18.861,2.2a2.31,2.31,0,0,1-1-.8l.563-.65a2.12,2.12,0,0,0,1.705.861,1.661,1.661,0,0,0,1.233-.445A1.7,1.7,0,0,0,21.8-.088V-.633a2.228,2.228,0,0,1-1.775.75,2.166,2.166,0,0,1-1.8-.9A3.918,3.918,0,0,1,17.537-3.223Zm1.09.123a2.843,2.843,0,0,0,.439,1.685A1.428,1.428,0,0,0,20.3-.8,1.588,1.588,0,0,0,21.8-1.734V-4.629a1.606,1.606,0,0,0-1.494-.908,1.441,1.441,0,0,0-1.236.615A3.1,3.1,0,0,0,18.627-3.1ZM27.158.117a2.77,2.77,0,0,1-2.1-.847,3.142,3.142,0,0,1-.809-2.265v-.2a3.8,3.8,0,0,1,.36-1.685,2.811,2.811,0,0,1,1.008-1.16,2.534,2.534,0,0,1,1.4-.419,2.374,2.374,0,0,1,1.922.814,3.526,3.526,0,0,1,.686,2.332v.451H25.336a2.254,2.254,0,0,0,.548,1.515,1.722,1.722,0,0,0,1.333.577A1.888,1.888,0,0,0,28.189-1a2.444,2.444,0,0,0,.7-.621l.662.516A2.662,2.662,0,0,1,27.158.117Zm-.135-5.684a1.446,1.446,0,0,0-1.1.478,2.321,2.321,0,0,0-.551,1.339h3.176v-.082a2.065,2.065,0,0,0-.445-1.28A1.361,1.361,0,0,0,27.023-5.566Zm5.332-2.309V-6.34h1.184V-5.5H32.355v3.937a.88.88,0,0,0,.158.572.666.666,0,0,0,.539.191,2.624,2.624,0,0,0,.516-.07V0a3.161,3.161,0,0,1-.832.116,1.35,1.35,0,0,1-1.1-.439,1.888,1.888,0,0,1-.369-1.248V-5.5H30.117V-6.34h1.154V-7.875Zm6.891,0V-6.34H40.43V-5.5H39.246v3.937a.88.88,0,0,0,.158.572.666.666,0,0,0,.539.191,2.624,2.624,0,0,0,.516-.07V0a3.161,3.161,0,0,1-.832.116,1.35,1.35,0,0,1-1.1-.439,1.888,1.888,0,0,1-.369-1.248V-5.5H37.008V-6.34h1.154V-7.875ZM43.77-1.588,45.246-6.34h1.16L43.857.979q-.592,1.582-1.881,1.582l-.205-.018-.4-.076V1.588l.293.023a1.442,1.442,0,0,0,.858-.223,1.611,1.611,0,0,0,.507-.814l.24-.645L41-6.34h1.184ZM52.729-3.1a3.8,3.8,0,0,1-.662,2.332,2.122,2.122,0,0,1-1.793.885,2.325,2.325,0,0,1-1.816-.732V2.438H47.373V-6.34h.99l.053.7a2.233,2.233,0,0,1,1.84-.82,2.162,2.162,0,0,1,1.808.861,3.838,3.838,0,0,1,.665,2.4Zm-1.084-.123a2.8,2.8,0,0,0-.457-1.693,1.472,1.472,0,0,0-1.254-.621,1.593,1.593,0,0,0-1.477.873v3.029a1.6,1.6,0,0,0,1.488.867,1.465,1.465,0,0,0,1.239-.618A3.058,3.058,0,0,0,51.645-3.223ZM56.736.117a2.77,2.77,0,0,1-2.1-.847,3.142,3.142,0,0,1-.809-2.265v-.2a3.8,3.8,0,0,1,.36-1.685A2.811,2.811,0,0,1,55.2-6.038a2.534,2.534,0,0,1,1.4-.419,2.374,2.374,0,0,1,1.922.814,3.526,3.526,0,0,1,.686,2.332v.451H54.914a2.254,2.254,0,0,0,.548,1.515,1.722,1.722,0,0,0,1.333.577A1.888,1.888,0,0,0,57.768-1a2.444,2.444,0,0,0,.7-.621l.662.516A2.662,2.662,0,0,1,56.736.117ZM56.6-5.566a1.446,1.446,0,0,0-1.1.478,2.321,2.321,0,0,0-.551,1.339h3.176v-.082a2.065,2.065,0,0,0-.445-1.28A1.361,1.361,0,0,0,56.6-5.566Zm3.826,5a.679.679,0,0,1,.167-.469.636.636,0,0,1,.5-.187.655.655,0,0,1,.507.188.665.665,0,0,1,.173.469.629.629,0,0,1-.173.451A.667.667,0,0,1,61.1.064a.648.648,0,0,1-.5-.182A.641.641,0,0,1,60.428-.568Zm.006-5.174a.679.679,0,0,1,.167-.469.636.636,0,0,1,.5-.187.655.655,0,0,1,.507.188.665.665,0,0,1,.173.469.629.629,0,0,1-.173.451.667.667,0,0,1-.507.182.648.648,0,0,1-.5-.182A.641.641,0,0,1,60.434-5.742ZM5.7,11.768H2.127L1.324,14H.164L3.422,5.469h.984L7.67,14H6.516Zm-3.234-.92h2.9L3.914,6.857Zm5.924-.07a3.726,3.726,0,0,1,.686-2.358,2.192,2.192,0,0,1,1.816-.876,2.181,2.181,0,0,1,1.811.82l.053-.7h.99v6.188a2.579,2.579,0,0,1-.729,1.939,2.692,2.692,0,0,1-1.96.709A3.261,3.261,0,0,1,9.715,16.2a2.31,2.31,0,0,1-1-.8l.563-.65a2.12,2.12,0,0,0,1.705.861,1.661,1.661,0,0,0,1.233-.445,1.7,1.7,0,0,0,.442-1.254v-.545a2.228,2.228,0,0,1-1.775.75,2.166,2.166,0,0,1-1.8-.9A3.918,3.918,0,0,1,8.391,10.777Zm1.09.123a2.843,2.843,0,0,0,.439,1.685,1.428,1.428,0,0,0,1.23.612,1.588,1.588,0,0,0,1.506-.932V9.371a1.606,1.606,0,0,0-1.494-.908,1.441,1.441,0,0,0-1.236.615A3.1,3.1,0,0,0,9.48,10.9Zm5.643-.123a3.726,3.726,0,0,1,.686-2.358,2.363,2.363,0,0,1,3.627-.056l.053-.7h.99v6.188a2.579,2.579,0,0,1-.729,1.939,2.692,2.692,0,0,1-1.96.709,3.261,3.261,0,0,1-1.342-.293,2.31,2.31,0,0,1-1-.8l.563-.65a2.12,2.12,0,0,0,1.705.861,1.661,1.661,0,0,0,1.233-.445,1.7,1.7,0,0,0,.442-1.254v-.545a2.228,2.228,0,0,1-1.775.75,2.166,2.166,0,0,1-1.8-.9A3.918,3.918,0,0,1,15.123,10.777Zm1.09.123a2.843,2.843,0,0,0,.439,1.685,1.428,1.428,0,0,0,1.23.612,1.588,1.588,0,0,0,1.506-.932V9.371a1.606,1.606,0,0,0-1.494-.908,1.441,1.441,0,0,0-1.236.615A3.1,3.1,0,0,0,16.213,10.9Zm8.965-2.268a3.248,3.248,0,0,0-.533-.041A1.428,1.428,0,0,0,23.2,9.5V14H22.113V7.66h1.055l.018.732a1.688,1.688,0,0,1,1.512-.85,1.107,1.107,0,0,1,.48.082Zm3.516,5.484a2.77,2.77,0,0,1-2.1-.847,3.142,3.142,0,0,1-.809-2.265v-.2a3.8,3.8,0,0,1,.36-1.685,2.811,2.811,0,0,1,1.008-1.16,2.534,2.534,0,0,1,1.4-.419,2.374,2.374,0,0,1,1.922.814,3.526,3.526,0,0,1,.686,2.332v.451H26.871a2.254,2.254,0,0,0,.548,1.515,1.722,1.722,0,0,0,1.333.577A1.888,1.888,0,0,0,29.725,13a2.444,2.444,0,0,0,.7-.621l.662.516A2.662,2.662,0,0,1,28.693,14.117Zm-.135-5.684a1.446,1.446,0,0,0-1.1.478,2.321,2.321,0,0,0-.551,1.339h3.176v-.082a2.065,2.065,0,0,0-.445-1.28A1.361,1.361,0,0,0,28.559,8.434Zm3.6,2.344a3.726,3.726,0,0,1,.686-2.358,2.363,2.363,0,0,1,3.627-.056l.053-.7h.99v6.188a2.579,2.579,0,0,1-.729,1.939,2.692,2.692,0,0,1-1.96.709,3.261,3.261,0,0,1-1.342-.293,2.31,2.31,0,0,1-1-.8l.563-.65a2.12,2.12,0,0,0,1.705.861,1.661,1.661,0,0,0,1.233-.445,1.7,1.7,0,0,0,.442-1.254v-.545a2.228,2.228,0,0,1-1.775.75,2.166,2.166,0,0,1-1.8-.9A3.918,3.918,0,0,1,32.162,10.777Zm1.09.123a2.843,2.843,0,0,0,.439,1.685,1.428,1.428,0,0,0,1.23.612,1.588,1.588,0,0,0,1.506-.932V9.371a1.606,1.606,0,0,0-1.494-.908,1.441,1.441,0,0,0-1.236.615A3.1,3.1,0,0,0,33.252,10.9ZM43.066,14a2.277,2.277,0,0,1-.152-.668,2.419,2.419,0,0,1-1.8.785,2.238,2.238,0,0,1-1.538-.53,1.716,1.716,0,0,1-.6-1.345,1.792,1.792,0,0,1,.753-1.538,3.55,3.55,0,0,1,2.118-.548H42.9v-.5a1.217,1.217,0,0,0-.34-.905,1.366,1.366,0,0,0-1-.337,1.581,1.581,0,0,0-.973.293.863.863,0,0,0-.393.709H39.1a1.5,1.5,0,0,1,.337-.917,2.3,2.3,0,0,1,.914-.7,3.075,3.075,0,0,1,1.269-.258,2.506,2.506,0,0,1,1.717.548A1.976,1.976,0,0,1,43.98,9.6v2.918a3.567,3.567,0,0,0,.223,1.389V14Zm-1.8-.826a1.905,1.905,0,0,0,.967-.264,1.6,1.6,0,0,0,.662-.686v-1.3h-.85q-1.992,0-1.992,1.166a.987.987,0,0,0,.34.8A1.306,1.306,0,0,0,41.268,13.174ZM47.15,6.125V7.66h1.184V8.5H47.15v3.937a.88.88,0,0,0,.158.572.666.666,0,0,0,.539.191,2.624,2.624,0,0,0,.516-.07V14a3.161,3.161,0,0,1-.832.116,1.35,1.35,0,0,1-1.1-.439,1.888,1.888,0,0,1-.369-1.248V8.5H44.912V7.66h1.154V6.125Zm5.08,7.992a2.77,2.77,0,0,1-2.1-.847,3.142,3.142,0,0,1-.809-2.265v-.2a3.8,3.8,0,0,1,.36-1.685,2.811,2.811,0,0,1,1.008-1.16,2.534,2.534,0,0,1,1.4-.419,2.374,2.374,0,0,1,1.922.814,3.526,3.526,0,0,1,.686,2.332v.451H50.408a2.254,2.254,0,0,0,.548,1.515,1.722,1.722,0,0,0,1.333.577A1.888,1.888,0,0,0,53.262,13a2.444,2.444,0,0,0,.7-.621l.662.516A2.662,2.662,0,0,1,52.23,14.117ZM52.1,8.434a1.446,1.446,0,0,0-1.1.478,2.321,2.321,0,0,0-.551,1.339h3.176v-.082a2.065,2.065,0,0,0-.445-1.28A1.361,1.361,0,0,0,52.1,8.434Zm3.6,2.344a3.714,3.714,0,0,1,.691-2.347A2.352,2.352,0,0,1,59.959,8.3V5h1.084v9h-1l-.053-.68a2.208,2.208,0,0,1-1.811.8,2.165,2.165,0,0,1-1.8-.9,3.756,3.756,0,0,1-.694-2.355Zm1.084.123a2.812,2.812,0,0,0,.445,1.688,1.44,1.44,0,0,0,1.23.609,1.581,1.581,0,0,0,1.506-.926V9.359a1.593,1.593,0,0,0-1.494-.9,1.446,1.446,0,0,0-1.242.615A3.1,3.1,0,0,0,56.777,10.9Z" transform="translate(857 159.752)" fill="#0c2339"/>
    <path id="Path_997" data-name="Path 997" d="M5.7-3.768H2.115V0H.99V-8.531H6.275v.92H2.115v2.924H5.7ZM8.631,0H7.547V-6.34H8.631ZM7.459-8.021a.647.647,0,0,1,.161-.445A.6.6,0,0,1,8.1-8.648a.614.614,0,0,1,.48.182.64.64,0,0,1,.164.445.619.619,0,0,1-.164.439.626.626,0,0,1-.48.176.616.616,0,0,1-.478-.176A.626.626,0,0,1,7.459-8.021ZM11.543,0H10.459V-9h1.084Zm3.205-7.875V-6.34h1.184V-5.5H14.748v3.937a.88.88,0,0,0,.158.572.666.666,0,0,0,.539.191,2.624,2.624,0,0,0,.516-.07V0a3.161,3.161,0,0,1-.832.116,1.35,1.35,0,0,1-1.1-.439,1.888,1.888,0,0,1-.369-1.248V-5.5H12.51V-6.34h1.154V-7.875ZM19.828.117a2.77,2.77,0,0,1-2.1-.847,3.142,3.142,0,0,1-.809-2.265v-.2a3.8,3.8,0,0,1,.36-1.685,2.811,2.811,0,0,1,1.008-1.16,2.534,2.534,0,0,1,1.4-.419,2.374,2.374,0,0,1,1.922.814A3.526,3.526,0,0,1,22.3-3.311v.451H18.006a2.254,2.254,0,0,0,.548,1.515,1.722,1.722,0,0,0,1.333.577A1.888,1.888,0,0,0,20.859-1a2.444,2.444,0,0,0,.7-.621l.662.516A2.662,2.662,0,0,1,19.828.117Zm-.135-5.684a1.446,1.446,0,0,0-1.1.478,2.321,2.321,0,0,0-.551,1.339h3.176v-.082a2.065,2.065,0,0,0-.445-1.28A1.361,1.361,0,0,0,19.693-5.566Zm6.926.2a3.248,3.248,0,0,0-.533-.041,1.428,1.428,0,0,0-1.447.908V0H23.555V-6.34h1.055l.018.732a1.688,1.688,0,0,1,1.512-.85,1.107,1.107,0,0,1,.48.082ZM35.953-3.1a3.77,3.77,0,0,1-.668,2.335,2.134,2.134,0,0,1-1.793.882,2.21,2.21,0,0,1-1.857-.85L31.582,0h-1V-9H31.67v3.357a2.2,2.2,0,0,1,1.811-.814,2.147,2.147,0,0,1,1.813.873,3.883,3.883,0,0,1,.659,2.391Zm-1.084-.123a2.929,2.929,0,0,0-.428-1.711,1.416,1.416,0,0,0-1.23-.6,1.591,1.591,0,0,0-1.541,1V-1.8a1.636,1.636,0,0,0,1.553,1,1.408,1.408,0,0,0,1.213-.6A3.115,3.115,0,0,0,34.869-3.223Zm4.459,1.635L40.8-6.34h1.16L39.416.979q-.592,1.582-1.881,1.582l-.205-.018-.4-.076V1.588l.293.023a1.442,1.442,0,0,0,.858-.223,1.611,1.611,0,0,0,.507-.814l.24-.645L36.563-6.34h1.184ZM42.9-.568a.679.679,0,0,1,.167-.469.636.636,0,0,1,.5-.187.655.655,0,0,1,.507.188.665.665,0,0,1,.173.469.629.629,0,0,1-.173.451.667.667,0,0,1-.507.182.648.648,0,0,1-.5-.182A.641.641,0,0,1,42.9-.568ZM42.9-5.742a.679.679,0,0,1,.167-.469.636.636,0,0,1,.5-.187.655.655,0,0,1,.507.188.665.665,0,0,1,.173.469.629.629,0,0,1-.173.451.667.667,0,0,1-.507.182.648.648,0,0,1-.5-.182A.641.641,0,0,1,42.9-5.742Z" transform="translate(949 159.752)" fill="#0c2339"/>
    <path id="Path_999" data-name="Path 999" d="M7.289-1.119a2.6,2.6,0,0,1-1.21.929A4.887,4.887,0,0,1,4.271.117,3.506,3.506,0,0,1,2.42-.372,3.26,3.26,0,0,1,1.169-1.764,4.806,4.806,0,0,1,.715-3.855V-4.6a4.487,4.487,0,0,1,.9-2.988A3.134,3.134,0,0,1,4.143-8.648a3.237,3.237,0,0,1,2.15.683,2.974,2.974,0,0,1,1,1.937H6.164a1.86,1.86,0,0,0-2.016-1.7,1.991,1.991,0,0,0-1.714.795,3.88,3.88,0,0,0-.589,2.3v.7A3.636,3.636,0,0,0,2.5-1.65,2.127,2.127,0,0,0,4.277-.8a3.921,3.921,0,0,0,1.107-.14,1.713,1.713,0,0,0,.785-.473V-3.328H4.2v-.92H7.289Zm4.77-4.248a3.248,3.248,0,0,0-.533-.041,1.428,1.428,0,0,0-1.447.908V0H8.994V-6.34h1.055l.018.732a1.688,1.688,0,0,1,1.512-.85,1.107,1.107,0,0,1,.48.082Zm.592,2.139A3.745,3.745,0,0,1,13.017-4.9a2.732,2.732,0,0,1,1.02-1.148,2.775,2.775,0,0,1,1.491-.4,2.674,2.674,0,0,1,2.095.9,3.449,3.449,0,0,1,.8,2.385V-3.1a3.777,3.777,0,0,1-.354,1.661A2.692,2.692,0,0,1,17.054-.293a2.807,2.807,0,0,1-1.515.41,2.667,2.667,0,0,1-2.089-.9,3.432,3.432,0,0,1-.8-2.373Zm1.09.129a2.712,2.712,0,0,0,.489,1.693,1.566,1.566,0,0,0,1.31.639,1.556,1.556,0,0,0,1.313-.647,2.966,2.966,0,0,0,.486-1.813,2.708,2.708,0,0,0-.5-1.69,1.574,1.574,0,0,0-1.315-.647,1.557,1.557,0,0,0-1.295.639A2.944,2.944,0,0,0,13.74-3.1ZM23.7-.627a2.3,2.3,0,0,1-1.857.744,1.971,1.971,0,0,1-1.544-.589,2.549,2.549,0,0,1-.536-1.743V-6.34h1.084v4.1Q20.842-.8,22.014-.8a1.623,1.623,0,0,0,1.652-.926V-6.34H24.75V0H23.719ZM31.752-3.1A3.8,3.8,0,0,1,31.09-.768,2.122,2.122,0,0,1,29.3.117,2.325,2.325,0,0,1,27.48-.615V2.438H26.4V-6.34h.99l.053.7a2.233,2.233,0,0,1,1.84-.82,2.162,2.162,0,0,1,1.808.861,3.838,3.838,0,0,1,.665,2.4Zm-1.084-.123a2.8,2.8,0,0,0-.457-1.693,1.472,1.472,0,0,0-1.254-.621,1.593,1.593,0,0,0-1.477.873v3.029a1.6,1.6,0,0,0,1.488.867,1.465,1.465,0,0,0,1.239-.618A3.058,3.058,0,0,0,30.668-3.223Zm10.8.123A3.77,3.77,0,0,1,40.8-.765a2.134,2.134,0,0,1-1.793.882,2.21,2.21,0,0,1-1.857-.85L37.1,0h-1V-9h1.084v3.357a2.2,2.2,0,0,1,1.811-.814,2.147,2.147,0,0,1,1.813.873,3.883,3.883,0,0,1,.659,2.391Zm-1.084-.123a2.929,2.929,0,0,0-.428-1.711,1.416,1.416,0,0,0-1.23-.6,1.591,1.591,0,0,0-1.541,1V-1.8a1.636,1.636,0,0,0,1.553,1,1.408,1.408,0,0,0,1.213-.6A3.115,3.115,0,0,0,40.383-3.223Zm4.459,1.635L46.318-6.34h1.16L44.93.979q-.592,1.582-1.881,1.582l-.205-.018-.4-.076V1.588l.293.023a1.442,1.442,0,0,0,.858-.223A1.611,1.611,0,0,0,44.1.574l.24-.645L42.076-6.34H43.26ZM48.41-.568a.679.679,0,0,1,.167-.469.636.636,0,0,1,.5-.187.655.655,0,0,1,.507.188.665.665,0,0,1,.173.469.629.629,0,0,1-.173.451.667.667,0,0,1-.507.182.648.648,0,0,1-.5-.182A.641.641,0,0,1,48.41-.568Zm.006-5.174a.679.679,0,0,1,.167-.469.636.636,0,0,1,.5-.187.655.655,0,0,1,.507.188.665.665,0,0,1,.173.469.629.629,0,0,1-.173.451.667.667,0,0,1-.507.182.648.648,0,0,1-.5-.182A.641.641,0,0,1,48.416-5.742ZM7.553,10.01A5.277,5.277,0,0,1,7.131,12.2a3.2,3.2,0,0,1-1.2,1.427,3.289,3.289,0,0,1-1.8.492,3.261,3.261,0,0,1-1.787-.5,3.272,3.272,0,0,1-1.21-1.412,5.064,5.064,0,0,1-.442-2.124V9.471A5.215,5.215,0,0,1,1.119,7.3a3.26,3.26,0,0,1,1.21-1.444,3.247,3.247,0,0,1,1.79-.5,3.307,3.307,0,0,1,1.808.5,3.19,3.19,0,0,1,1.2,1.436,5.3,5.3,0,0,1,.422,2.188ZM6.434,9.459A3.825,3.825,0,0,0,5.824,7.13a2.01,2.01,0,0,0-1.705-.812A1.988,1.988,0,0,0,2.44,7.13a3.747,3.747,0,0,0-.63,2.253v.627a3.831,3.831,0,0,0,.618,2.312,2,2,0,0,0,1.7.841,1.989,1.989,0,0,0,1.688-.794,3.809,3.809,0,0,0,.615-2.276Zm5.7-.826a3.248,3.248,0,0,0-.533-.041,1.428,1.428,0,0,0-1.447.908V14H9.07V7.66h1.055l.018.732a1.688,1.688,0,0,1,1.512-.85,1.107,1.107,0,0,1,.48.082Zm.627,2.145a3.726,3.726,0,0,1,.686-2.358,2.192,2.192,0,0,1,1.816-.876,2.181,2.181,0,0,1,1.811.82l.053-.7h.99v6.188a2.579,2.579,0,0,1-.729,1.939,2.692,2.692,0,0,1-1.96.709,3.261,3.261,0,0,1-1.342-.293,2.31,2.31,0,0,1-1-.8l.563-.65a2.12,2.12,0,0,0,1.705.861,1.661,1.661,0,0,0,1.233-.445,1.7,1.7,0,0,0,.442-1.254v-.545a2.228,2.228,0,0,1-1.775.75,2.166,2.166,0,0,1-1.8-.9A3.918,3.918,0,0,1,12.762,10.777Zm1.09.123a2.843,2.843,0,0,0,.439,1.685,1.428,1.428,0,0,0,1.23.612,1.588,1.588,0,0,0,1.506-.932V9.371a1.606,1.606,0,0,0-1.494-.908,1.441,1.441,0,0,0-1.236.615A3.1,3.1,0,0,0,13.852,10.9ZM23.666,14a2.277,2.277,0,0,1-.152-.668,2.419,2.419,0,0,1-1.8.785,2.238,2.238,0,0,1-1.538-.53,1.716,1.716,0,0,1-.6-1.345,1.792,1.792,0,0,1,.753-1.538,3.55,3.55,0,0,1,2.118-.548H23.5v-.5a1.217,1.217,0,0,0-.34-.905,1.366,1.366,0,0,0-1-.337,1.581,1.581,0,0,0-.973.293.863.863,0,0,0-.393.709H19.7a1.5,1.5,0,0,1,.337-.917,2.3,2.3,0,0,1,.914-.7,3.075,3.075,0,0,1,1.269-.258,2.506,2.506,0,0,1,1.717.548A1.976,1.976,0,0,1,24.58,9.6v2.918a3.567,3.567,0,0,0,.223,1.389V14Zm-1.8-.826a1.905,1.905,0,0,0,.967-.264,1.6,1.6,0,0,0,.662-.686v-1.3h-.85q-1.992,0-1.992,1.166a.987.987,0,0,0,.34.8A1.306,1.306,0,0,0,21.867,13.174ZM27.3,7.66l.035.8a2.31,2.31,0,0,1,1.9-.914q2.01,0,2.027,2.268V14H30.182V9.8a1.459,1.459,0,0,0-.313-1.014,1.256,1.256,0,0,0-.958-.328,1.564,1.564,0,0,0-.926.281,1.91,1.91,0,0,0-.621.738V14H26.279V7.66ZM34.078,14H32.994V7.66h1.084ZM32.906,5.979a.647.647,0,0,1,.161-.445.6.6,0,0,1,.478-.182.614.614,0,0,1,.48.182.64.64,0,0,1,.164.445.619.619,0,0,1-.164.439.626.626,0,0,1-.48.176.616.616,0,0,1-.478-.176A.626.626,0,0,1,32.906,5.979Zm3.926,7.137h3.709V14H35.508v-.8l3.5-4.646H35.561v-.9h4.8v.768ZM45.674,14a2.277,2.277,0,0,1-.152-.668,2.419,2.419,0,0,1-1.8.785,2.238,2.238,0,0,1-1.538-.53,1.716,1.716,0,0,1-.6-1.345,1.792,1.792,0,0,1,.753-1.538,3.55,3.55,0,0,1,2.118-.548H45.5v-.5a1.217,1.217,0,0,0-.34-.905,1.366,1.366,0,0,0-1-.337,1.581,1.581,0,0,0-.973.293.863.863,0,0,0-.393.709h-1.09a1.5,1.5,0,0,1,.337-.917,2.3,2.3,0,0,1,.914-.7,3.075,3.075,0,0,1,1.269-.258,2.506,2.506,0,0,1,1.717.548A1.976,1.976,0,0,1,46.588,9.6v2.918a3.567,3.567,0,0,0,.223,1.389V14Zm-1.8-.826a1.905,1.905,0,0,0,.967-.264,1.6,1.6,0,0,0,.662-.686v-1.3h-.85q-1.992,0-1.992,1.166a.987.987,0,0,0,.34.8A1.306,1.306,0,0,0,43.875,13.174Zm5.883-7.049V7.66h1.184V8.5H49.758v3.937a.88.88,0,0,0,.158.572.666.666,0,0,0,.539.191,2.624,2.624,0,0,0,.516-.07V14a3.161,3.161,0,0,1-.832.116,1.35,1.35,0,0,1-1.1-.439,1.888,1.888,0,0,1-.369-1.248V8.5H47.52V7.66h1.154V6.125ZM53.385,14H52.3V7.66h1.084ZM52.213,5.979a.647.647,0,0,1,.161-.445.6.6,0,0,1,.478-.182.614.614,0,0,1,.48.182.64.64,0,0,1,.164.445.619.619,0,0,1-.164.439.626.626,0,0,1-.48.176.616.616,0,0,1-.478-.176A.626.626,0,0,1,52.213,5.979Zm2.619,4.793A3.745,3.745,0,0,1,55.2,9.1a2.732,2.732,0,0,1,1.02-1.148,2.775,2.775,0,0,1,1.491-.4,2.674,2.674,0,0,1,2.095.9,3.449,3.449,0,0,1,.8,2.385V10.9a3.777,3.777,0,0,1-.354,1.661,2.692,2.692,0,0,1-1.014,1.146,2.807,2.807,0,0,1-1.515.41,2.667,2.667,0,0,1-2.089-.9,3.432,3.432,0,0,1-.8-2.373Zm1.09.129a2.712,2.712,0,0,0,.489,1.693,1.658,1.658,0,0,0,2.622-.009,2.966,2.966,0,0,0,.486-1.813,2.708,2.708,0,0,0-.5-1.69,1.574,1.574,0,0,0-1.315-.647,1.557,1.557,0,0,0-1.295.639A2.944,2.944,0,0,0,55.922,10.9Zm7.066-3.24.035.8a2.31,2.31,0,0,1,1.9-.914q2.01,0,2.027,2.268V14H65.865V9.8a1.459,1.459,0,0,0-.313-1.014,1.256,1.256,0,0,0-.958-.328,1.564,1.564,0,0,0-.926.281,1.91,1.91,0,0,0-.621.738V14H61.963V7.66Z" transform="translate(1020 159.752)" fill="#0c2339"/>
    <path id="Path_1002" data-name="Path 1002" d="M6.885-7.611H4.143V0H3.023V-7.611H.287v-.92h6.6ZM9.158,0H8.074V-6.34H9.158ZM7.986-8.021a.647.647,0,0,1,.161-.445.6.6,0,0,1,.478-.182.614.614,0,0,1,.48.182.64.64,0,0,1,.164.445.619.619,0,0,1-.164.439.626.626,0,0,1-.48.176.616.616,0,0,1-.478-.176A.626.626,0,0,1,7.986-8.021ZM11.912-6.34l.029.7a2.341,2.341,0,0,1,1.881-.82,1.813,1.813,0,0,1,1.811,1.02,2.4,2.4,0,0,1,.823-.738,2.431,2.431,0,0,1,1.2-.281q2.086,0,2.121,2.209V0H18.691V-4.184A1.456,1.456,0,0,0,18.381-5.2a1.368,1.368,0,0,0-1.043-.337,1.437,1.437,0,0,0-1,.36,1.462,1.462,0,0,0-.463.97V0h-1.09V-4.154A1.209,1.209,0,0,0,13.43-5.537a1.45,1.45,0,0,0-1.459.908V0H10.887V-6.34ZM24.041.117a2.77,2.77,0,0,1-2.1-.847,3.142,3.142,0,0,1-.809-2.265v-.2a3.8,3.8,0,0,1,.36-1.685A2.811,2.811,0,0,1,22.5-6.038a2.534,2.534,0,0,1,1.4-.419,2.374,2.374,0,0,1,1.922.814,3.526,3.526,0,0,1,.686,2.332v.451H22.219a2.254,2.254,0,0,0,.548,1.515A1.722,1.722,0,0,0,24.1-.768,1.888,1.888,0,0,0,25.072-1a2.444,2.444,0,0,0,.7-.621l.662.516A2.662,2.662,0,0,1,24.041.117Zm-.135-5.684a1.446,1.446,0,0,0-1.1.478,2.321,2.321,0,0,0-.551,1.339H25.43v-.082a2.065,2.065,0,0,0-.445-1.28A1.361,1.361,0,0,0,23.906-5.566ZM32.033-3.34V0H30.908V-8.531h3.146a3.161,3.161,0,0,1,2.194.715,2.423,2.423,0,0,1,.794,1.893,2.391,2.391,0,0,1-.776,1.913,3.3,3.3,0,0,1-2.224.671Zm0-.92h2.021a2.021,2.021,0,0,0,1.383-.426,1.556,1.556,0,0,0,.48-1.23,1.608,1.608,0,0,0-.48-1.221,1.894,1.894,0,0,0-1.318-.475H32.033ZM40.863.117a2.77,2.77,0,0,1-2.1-.847,3.142,3.142,0,0,1-.809-2.265v-.2a3.8,3.8,0,0,1,.36-1.685,2.811,2.811,0,0,1,1.008-1.16,2.534,2.534,0,0,1,1.4-.419,2.374,2.374,0,0,1,1.922.814,3.526,3.526,0,0,1,.686,2.332v.451H39.041a2.254,2.254,0,0,0,.548,1.515,1.722,1.722,0,0,0,1.333.577A1.888,1.888,0,0,0,41.895-1a2.444,2.444,0,0,0,.7-.621l.662.516A2.662,2.662,0,0,1,40.863.117Zm-.135-5.684a1.446,1.446,0,0,0-1.1.478,2.321,2.321,0,0,0-.551,1.339h3.176v-.082a2.065,2.065,0,0,0-.445-1.28A1.361,1.361,0,0,0,40.729-5.566Zm6.926.2a3.248,3.248,0,0,0-.533-.041,1.428,1.428,0,0,0-1.447.908V0H44.59V-6.34h1.055l.018.732a1.688,1.688,0,0,1,1.512-.85,1.107,1.107,0,0,1,.48.082ZM49.828,0H48.744V-6.34h1.084ZM48.656-8.021a.647.647,0,0,1,.161-.445.6.6,0,0,1,.478-.182.614.614,0,0,1,.48.182.64.64,0,0,1,.164.445.619.619,0,0,1-.164.439.626.626,0,0,1-.48.176.616.616,0,0,1-.478-.176A.626.626,0,0,1,48.656-8.021Zm2.619,4.793A3.745,3.745,0,0,1,51.642-4.9a2.732,2.732,0,0,1,1.02-1.148,2.775,2.775,0,0,1,1.491-.4,2.674,2.674,0,0,1,2.095.9,3.449,3.449,0,0,1,.8,2.385V-3.1a3.777,3.777,0,0,1-.354,1.661A2.692,2.692,0,0,1,55.679-.293a2.807,2.807,0,0,1-1.515.41,2.667,2.667,0,0,1-2.089-.9,3.432,3.432,0,0,1-.8-2.373Zm1.09.129a2.712,2.712,0,0,0,.489,1.693,1.566,1.566,0,0,0,1.31.639,1.556,1.556,0,0,0,1.313-.647,2.966,2.966,0,0,0,.486-1.813,2.708,2.708,0,0,0-.5-1.69,1.574,1.574,0,0,0-1.315-.647,1.557,1.557,0,0,0-1.295.639A2.944,2.944,0,0,0,52.365-3.1Zm5.777-.123a3.714,3.714,0,0,1,.691-2.347,2.186,2.186,0,0,1,1.811-.888,2.2,2.2,0,0,1,1.764.762V-9h1.084V0h-1l-.053-.68a2.208,2.208,0,0,1-1.811.8,2.165,2.165,0,0,1-1.8-.9,3.756,3.756,0,0,1-.694-2.355Zm1.084.123a2.812,2.812,0,0,0,.445,1.688A1.44,1.44,0,0,0,60.9-.8a1.581,1.581,0,0,0,1.506-.926V-4.641a1.593,1.593,0,0,0-1.494-.9,1.446,1.446,0,0,0-1.242.615A3.1,3.1,0,0,0,59.227-3.1ZM65.139-.568a.679.679,0,0,1,.167-.469.636.636,0,0,1,.5-.187.655.655,0,0,1,.507.188.665.665,0,0,1,.173.469.629.629,0,0,1-.173.451.667.667,0,0,1-.507.182.648.648,0,0,1-.5-.182A.641.641,0,0,1,65.139-.568Zm.006-5.174a.679.679,0,0,1,.167-.469.636.636,0,0,1,.5-.187.655.655,0,0,1,.507.188.665.665,0,0,1,.173.469.629.629,0,0,1-.173.451.667.667,0,0,1-.507.182.648.648,0,0,1-.5-.182A.641.641,0,0,1,65.145-5.742ZM7.547,14H6.416L2.121,7.426V14H.99V5.469H2.121l4.307,6.6v-6.6H7.547Zm1.541-3.229A3.745,3.745,0,0,1,9.454,9.1a2.732,2.732,0,0,1,1.02-1.148,2.775,2.775,0,0,1,1.491-.4,2.674,2.674,0,0,1,2.095.9,3.449,3.449,0,0,1,.8,2.385V10.9a3.777,3.777,0,0,1-.354,1.661,2.692,2.692,0,0,1-1.014,1.146,2.807,2.807,0,0,1-1.515.41,2.667,2.667,0,0,1-2.089-.9,3.432,3.432,0,0,1-.8-2.373Zm1.09.129a2.712,2.712,0,0,0,.489,1.693,1.658,1.658,0,0,0,2.622-.009,2.966,2.966,0,0,0,.486-1.813,2.708,2.708,0,0,0-.5-1.69,1.574,1.574,0,0,0-1.315-.647,1.557,1.557,0,0,0-1.295.639A2.944,2.944,0,0,0,10.178,10.9Zm11.654,1.605L23.051,7.66h1.084L22.289,14H21.41L19.869,9.2l-1.5,4.8H17.49L15.65,7.66h1.078l1.248,4.746L19.453,7.66h.873Z" transform="translate(1131 159.752)" fill="#0c2339"/>
    <g id="Edit_tools" data-name="Edit tools" transform="translate(17.5)">
      <path id="divider" d="M.25,19.5h-.5V0h.5Z" transform="translate(1134.5 107.252)" fill="#a5aabc"/>
      <g id="Edit_icon" data-name="Edit icon" transform="translate(75 -251.502)">
        <circle id="Ellipse_31" data-name="Ellipse 31" cx="9.5" cy="9.5" r="9.5" transform="translate(1070 359.254)" fill="#fff"/>
        <path id="Ellipse_31_-_Outline" data-name="Ellipse 31 - Outline" d="M9.5.5a9,9,0,1,0,9,9,9.01,9.01,0,0,0-9-9m0-.5A9.5,9.5,0,1,1,0,9.5,9.5,9.5,0,0,1,9.5,0Z" transform="translate(1070 359.254)" fill="rgba(132,131,131,0.4)"/>
        <path id="dots" d="M15.5,55.15a.75.75,0,1,1-.75-.75A.752.752,0,0,1,15.5,55.15Zm2.25-.75a.75.75,0,1,0,.75.75A.752.752,0,0,0,17.75,54.4Zm3,0a.75.75,0,1,0,.75.75A.752.752,0,0,0,20.75,54.4Z" transform="translate(1061.75 313.854)" fill="#a5aabc"/>
      </g>
      <g id="Refresh_icon" data-name="Refresh icon" transform="translate(75 -251.502)">
        <circle id="Ellipse_32" data-name="Ellipse 32" cx="9.5" cy="9.5" r="9.5" transform="translate(1094 359.254)" fill="#fff"/>
        <path id="Ellipse_32_-_Outline" data-name="Ellipse 32 - Outline" d="M9.5.5a9,9,0,1,0,9,9,9.01,9.01,0,0,0-9-9m0-.5A9.5,9.5,0,1,1,0,9.5,9.5,9.5,0,0,1,9.5,0Z" transform="translate(1094 359.254)" fill="rgba(132,131,131,0.4)"/>
        <g id="Refresh" transform="translate(1154.334 333.881) rotate(60)">
          <g id="_x37__11_" transform="translate(0.001 57.525)">
            <g id="Group_15" data-name="Group 15" transform="translate(0 0)">
              <path id="Path_26" data-name="Path 26" d="M5,65.02a3.438,3.438,0,0,1-3.307-2.5H2.708c.1-.094.147-.22.051-.314L1.585,61.023a.252.252,0,0,0-.349,0L.071,62.208c-.138.162-.046.22.051.314h.931a4.057,4.057,0,0,0,7.4,1.193l-.588-.235A3.436,3.436,0,0,1,5,65.02Zm4.9-4.06H9.01A4.06,4.06,0,0,0,1.4,59.708l.582.233a3.438,3.438,0,0,1,6.4,1.019H7.312c-.1.094-.189.152-.051.314L8.426,62.46a.252.252,0,0,0,.349,0l1.173-1.185C10.045,61.181,9.994,61.054,9.9,60.96Z" transform="translate(-0.001 -57.525)" fill="#a5aabc"/>
            </g>
          </g>
        </g>
      </g>
      <g id="Expand_icon" data-name="Expand icon" transform="translate(75 -251.502)">
        <circle id="Ellipse_34" data-name="Ellipse 34" cx="9.5" cy="9.5" r="9.5" transform="translate(1142 359.254)" fill="#fff"/>
        <path id="Ellipse_34_-_Outline" data-name="Ellipse 34 - Outline" d="M9.5.5a9,9,0,1,0,9,9,9.01,9.01,0,0,0-9-9m0-.5A9.5,9.5,0,1,1,0,9.5,9.5,9.5,0,0,1,9.5,0Z" transform="translate(1142 359.254)" fill="rgba(132,131,131,0.4)"/>
        <g id="expand" transform="translate(1143.625 361.091)">
          <path id="Path_29" data-name="Path 29" d="M14.25,4.125a.375.375,0,0,1,.375-.375h2.25a.375.375,0,0,1,.375.375v2.25a.375.375,0,0,1-.75,0V4.5H14.625A.375.375,0,0,1,14.25,4.125Z" transform="translate(-5.25)" fill="#a5aabc" fill-rule="evenodd"/>
          <path id="Path_30" data-name="Path 30" d="M16.765,3.86a.375.375,0,0,1,0,.53L14.14,7.015a.375.375,0,0,1-.53-.53L16.235,3.86A.375.375,0,0,1,16.765,3.86Z" transform="translate(-4.875 0)" fill="#a5aabc" fill-rule="evenodd"/>
          <path id="Path_31" data-name="Path 31" d="M4.125,14.25a.375.375,0,0,1,.375.375V16.5H6.375a.375.375,0,0,1,0,.75H4.125a.375.375,0,0,1-.375-.375v-2.25A.375.375,0,0,1,4.125,14.25Z" transform="translate(0 -5.25)" fill="#a5aabc" fill-rule="evenodd"/>
          <path id="Path_32" data-name="Path 32" d="M7.015,13.61a.375.375,0,0,1,0,.53L4.39,16.765a.375.375,0,1,1-.53-.53L6.485,13.61A.375.375,0,0,1,7.015,13.61Z" transform="translate(0 -4.875)" fill="#a5aabc" fill-rule="evenodd"/>
        </g>
      </g>
      <g id="Global_icon" data-name="Global icon" transform="translate(75 -251.502)">
        <circle id="Ellipse_33" data-name="Ellipse 33" cx="9.5" cy="9.5" r="9.5" transform="translate(1118 359.254)" fill="#fff"/>
        <path id="Ellipse_33_-_Outline" data-name="Ellipse 33 - Outline" d="M9.5.5a9,9,0,1,0,9,9,9.01,9.01,0,0,0-9-9m0-.5A9.5,9.5,0,1,1,0,9.5,9.5,9.5,0,0,1,9.5,0Z" transform="translate(1118 359.254)" fill="rgba(132,131,131,0.4)"/>
        <g id="earth" transform="translate(1123 364.254)">
          <path id="Path_85" data-name="Path 85" d="M8.173,1.905c-.068-.1-.14-.191-.216-.282A4.492,4.492,0,0,0,4.5,0H4.474A4.493,4.493,0,0,0,1.043,1.623q-.114.137-.216.282a4.484,4.484,0,0,0,0,5.19c.068.1.14.191.216.282A4.493,4.493,0,0,0,4.474,9H4.5A4.492,4.492,0,0,0,7.957,7.377c.076-.091.148-.185.216-.282a4.484,4.484,0,0,0,0-5.19ZM3.185.585A4.21,4.21,0,0,0,2.19,2.267a4.292,4.292,0,0,1-.849-.423A4.142,4.142,0,0,1,3.185.585ZM1.124,2.127a4.74,4.74,0,0,0,.961.485,7.172,7.172,0,0,0-.246,1.85H.37A4.107,4.107,0,0,1,1.124,2.127Zm-.741,2.7H1.846a7.093,7.093,0,0,0,.239,1.557,4.713,4.713,0,0,0-.961.485A4.1,4.1,0,0,1,.384,4.831Zm.958,2.323a4.318,4.318,0,0,1,.848-.422,4.206,4.206,0,0,0,.995,1.682A4.141,4.141,0,0,1,1.342,7.155ZM4.315,8.618c-.758-.1-1.412-.881-1.782-2a6.825,6.825,0,0,1,1.782-.273Zm0-2.642a7.032,7.032,0,0,0-1.886.3,6.846,6.846,0,0,1-.213-1.44h2.1Zm0-1.514H2.208A6.97,6.97,0,0,1,2.431,2.73a7.033,7.033,0,0,0,1.884.3V4.462Zm0-1.806a6.815,6.815,0,0,1-1.781-.273c.371-1.119,1.024-1.9,1.781-2ZM8.63,4.462H7.139A7.169,7.169,0,0,0,6.9,2.619a4.737,4.737,0,0,0,.98-.492A4.107,4.107,0,0,1,8.63,4.462ZM7.659,1.845a4.31,4.31,0,0,1-.868.429A4.2,4.2,0,0,0,5.782.574,4.142,4.142,0,0,1,7.659,1.845ZM4.685.385c.749.116,1.395.892,1.762,2a6.826,6.826,0,0,1-1.762.267Zm0,2.639a7.045,7.045,0,0,0,1.864-.289A6.954,6.954,0,0,1,6.77,4.462H4.685Zm0,1.807H6.763a6.874,6.874,0,0,1-.212,1.434,7.045,7.045,0,0,0-1.865-.289V4.831Zm0,3.784V6.345a6.838,6.838,0,0,1,1.763.267C6.08,7.723,5.434,8.5,4.685,8.615Zm1.1-.189a4.2,4.2,0,0,0,1.009-1.7,4.315,4.315,0,0,1,.867.429A4.143,4.143,0,0,1,5.782,8.426ZM7.876,6.873A4.725,4.725,0,0,0,6.9,6.381a7.091,7.091,0,0,0,.236-1.55H8.616A4.1,4.1,0,0,1,7.876,6.873Z" fill="#a5aabc"/>
        </g>
      </g>
    </g>
    <path id="Path_991" data-name="Path 991" d="M0,0H48V28H0Z" transform="translate(635 455)" fill="#fff"/>
    <g id="Group_146" data-name="Group 146" transform="translate(713.906 271)">
      <g id="Group_126" data-name="Group 126" clip-path="url(#clip-path)">
        <path id="Path_160" data-name="Path 160" d="M18.022,3.5,4.077,26.738,18.022,49.976h28.1L60.064,26.738,46.119,3.5h-28.1m-1.7-3H47.817L63.563,26.738,47.817,52.976H16.324L.578,26.738Z" transform="translate(-0.334 -0.297)" fill="#a1a1a1"/>
      </g>
    </g>
    <g id="Group_147" data-name="Group 147" transform="translate(650.434 370.118)">
      <g id="Group_126-2" data-name="Group 126" clip-path="url(#clip-path-2)">
        <path id="Path_160-2" data-name="Path 160" d="M18.022,3.5,4.077,26.738,18.022,49.976h28.1L60.064,26.738,46.119,3.5h-28.1m-1.7-3H47.817L63.563,26.738,47.817,52.976H16.324L.578,26.738Z" transform="translate(-0.334 -0.297)" fill="#3cca8e"/>
      </g>
    </g>
    <g id="Group_148" data-name="Group 148" transform="translate(777.379 370.118)">
      <g id="Group_126-3" data-name="Group 126" clip-path="url(#clip-path-3)">
        <path id="Path_160-3" data-name="Path 160" d="M18.022,3.5,4.077,26.738,18.022,49.976h28.1L60.064,26.738,46.119,3.5h-28.1m-1.7-3H47.817L63.563,26.738,47.817,52.976H16.324L.578,26.738Z" transform="translate(-0.334 -0.297)" fill="#fe746e"/>
      </g>
    </g>
    <g id="Group_152" data-name="Group 152" transform="translate(913.451 370.118)">
      <g id="Group_126-4" data-name="Group 126" clip-path="url(#clip-path-2)">
        <path id="Path_160-4" data-name="Path 160" d="M18.022,3.5,4.077,26.738,18.022,49.976h28.1L60.064,26.738,46.119,3.5h-28.1m-1.7-3H47.817L63.563,26.738,47.817,52.976H16.324L.578,26.738Z" transform="translate(-0.334 -0.297)" fill="#3cca8e"/>
      </g>
    </g>
    <g id="Group_155" data-name="Group 155" transform="translate(334 370.118)">
      <g id="Group_126-5" data-name="Group 126" clip-path="url(#clip-path-2)">
        <path id="Path_160-5" data-name="Path 160" d="M18.022,3.5,4.077,26.738,18.022,49.976h28.1L60.064,26.738,46.119,3.5h-28.1m-1.7-3H47.817L63.563,26.738,47.817,52.976H16.324L.578,26.738Z" transform="translate(-0.334 -0.297)" fill="#3cca8e"/>
      </g>
    </g>
    <g id="Group_153" data-name="Group 153" transform="translate(1071.668 370.118)">
      <g id="Group_126-6" data-name="Group 126" clip-path="url(#clip-path-2)">
        <path id="Path_160-6" data-name="Path 160" d="M18.022,3.5,4.077,26.738,18.022,49.976h28.1L60.064,26.738,46.119,3.5h-28.1m-1.7-3H47.817L63.563,26.738,47.817,52.976H16.324L.578,26.738Z" transform="translate(-0.334 -0.297)" fill="#3cca8e"/>
      </g>
    </g>
    <g id="Group_154" data-name="Group 154" transform="translate(492.216 370.118)">
      <g id="Group_126-7" data-name="Group 126" clip-path="url(#clip-path)">
        <path id="Path_160-7" data-name="Path 160" d="M18.022,3.5,4.077,26.738,18.022,49.976h28.1L60.064,26.738,46.119,3.5h-28.1m-1.7-3H47.817L63.563,26.738,47.817,52.976H16.324L.578,26.738Z" transform="translate(-0.334 -0.297)" fill="#a1a1a1"/>
      </g>
    </g>
    <path id="Path_161" data-name="Path 161" d="M6937.3-1142.882h-1V-1153.9H6810.764v11.018h-1V-1154.9H6937.3Z" transform="translate(-6128.094 1513)" fill="#707070"/>
    <path id="Path_162" data-name="Path 162" d="M6873.7-1154.793l-.464-34.318,1-.013.464,34.318Z" transform="translate(-6128.094 1513)" fill="#707070"/>
    <path id="Path_982" data-name="Path 982" d="M0,0H59V13H0Z" transform="translate(716.906 325)" fill="#fff"/>
    <path id="Path_983" data-name="Path 983" d="M0,0H48V13H0Z" transform="translate(660.906 427)" fill="#fff"/>
    <path id="Path_984" data-name="Path 984" d="M7.553-3.99A5.277,5.277,0,0,1,7.131-1.8a3.2,3.2,0,0,1-1.2,1.427,3.289,3.289,0,0,1-1.8.492,3.261,3.261,0,0,1-1.787-.5A3.272,3.272,0,0,1,1.134-1.79,5.064,5.064,0,0,1,.691-3.914v-.615A5.215,5.215,0,0,1,1.119-6.7a3.26,3.26,0,0,1,1.21-1.444,3.247,3.247,0,0,1,1.79-.5,3.307,3.307,0,0,1,1.808.5,3.19,3.19,0,0,1,1.2,1.436,5.3,5.3,0,0,1,.422,2.188ZM6.434-4.541A3.825,3.825,0,0,0,5.824-6.87a2.01,2.01,0,0,0-1.705-.812A1.988,1.988,0,0,0,2.44-6.87a3.747,3.747,0,0,0-.63,2.253v.627a3.831,3.831,0,0,0,.618,2.312,2,2,0,0,0,1.7.841,1.989,1.989,0,0,0,1.688-.794,3.809,3.809,0,0,0,.615-2.276Zm5.7-.826a3.248,3.248,0,0,0-.533-.041,1.428,1.428,0,0,0-1.447.908V0H9.07V-6.34h1.055l.018.732a1.688,1.688,0,0,1,1.512-.85,1.107,1.107,0,0,1,.48.082Zm.627,2.145a3.726,3.726,0,0,1,.686-2.358,2.192,2.192,0,0,1,1.816-.876,2.181,2.181,0,0,1,1.811.82l.053-.7h.99V-.152a2.579,2.579,0,0,1-.729,1.939,2.692,2.692,0,0,1-1.96.709A3.261,3.261,0,0,1,14.086,2.2a2.31,2.31,0,0,1-1-.8l.563-.65a2.12,2.12,0,0,0,1.705.861,1.661,1.661,0,0,0,1.233-.445,1.7,1.7,0,0,0,.442-1.254V-.633a2.228,2.228,0,0,1-1.775.75,2.166,2.166,0,0,1-1.8-.9A3.918,3.918,0,0,1,12.762-3.223Zm1.09.123a2.843,2.843,0,0,0,.439,1.685,1.428,1.428,0,0,0,1.23.612,1.588,1.588,0,0,0,1.506-.932V-4.629a1.606,1.606,0,0,0-1.494-.908,1.441,1.441,0,0,0-1.236.615A3.1,3.1,0,0,0,13.852-3.1ZM23.666,0a2.277,2.277,0,0,1-.152-.668,2.419,2.419,0,0,1-1.8.785,2.238,2.238,0,0,1-1.538-.53,1.716,1.716,0,0,1-.6-1.345A1.792,1.792,0,0,1,20.323-3.3a3.55,3.55,0,0,1,2.118-.548H23.5v-.5a1.217,1.217,0,0,0-.34-.905,1.366,1.366,0,0,0-1-.337,1.581,1.581,0,0,0-.973.293.863.863,0,0,0-.393.709H19.7a1.5,1.5,0,0,1,.337-.917,2.3,2.3,0,0,1,.914-.7,3.075,3.075,0,0,1,1.269-.258,2.506,2.506,0,0,1,1.717.548A1.976,1.976,0,0,1,24.58-4.4v2.918A3.567,3.567,0,0,0,24.8-.094V0Zm-1.8-.826a1.905,1.905,0,0,0,.967-.264,1.6,1.6,0,0,0,.662-.686v-1.3h-.85q-1.992,0-1.992,1.166a.987.987,0,0,0,.34.8A1.306,1.306,0,0,0,21.867-.826ZM27.3-6.34l.035.8a2.31,2.31,0,0,1,1.9-.914q2.01,0,2.027,2.268V0H30.182V-4.2a1.459,1.459,0,0,0-.313-1.014,1.256,1.256,0,0,0-.958-.328,1.564,1.564,0,0,0-.926.281,1.91,1.91,0,0,0-.621.738V0H26.279V-6.34ZM34.078,0H32.994V-6.34h1.084ZM32.906-8.021a.647.647,0,0,1,.161-.445.6.6,0,0,1,.478-.182.614.614,0,0,1,.48.182.64.64,0,0,1,.164.445.619.619,0,0,1-.164.439.626.626,0,0,1-.48.176.616.616,0,0,1-.478-.176A.626.626,0,0,1,32.906-8.021Zm6.6,6.34a.8.8,0,0,0-.331-.683,3.187,3.187,0,0,0-1.154-.419,5.457,5.457,0,0,1-1.307-.422A1.859,1.859,0,0,1,36-3.791a1.4,1.4,0,0,1-.231-.809,1.645,1.645,0,0,1,.659-1.318,2.574,2.574,0,0,1,1.685-.539,2.649,2.649,0,0,1,1.749.557,1.768,1.768,0,0,1,.671,1.424h-1.09a.979.979,0,0,0-.378-.768,1.416,1.416,0,0,0-.952-.322,1.482,1.482,0,0,0-.926.258.812.812,0,0,0-.334.674.658.658,0,0,0,.311.592,3.821,3.821,0,0,0,1.122.381,5.847,5.847,0,0,1,1.315.434,1.919,1.919,0,0,1,.747.606,1.491,1.491,0,0,1,.243.864A1.623,1.623,0,0,1,39.908-.4a2.851,2.851,0,0,1-1.764.513A3.193,3.193,0,0,1,36.8-.152a2.192,2.192,0,0,1-.917-.753,1.815,1.815,0,0,1-.331-1.046h1.084a1.122,1.122,0,0,0,.437.864,1.693,1.693,0,0,0,1.075.319,1.748,1.748,0,0,0,.987-.249A.765.765,0,0,0,39.5-1.682ZM45.914,0a2.277,2.277,0,0,1-.152-.668,2.419,2.419,0,0,1-1.8.785,2.238,2.238,0,0,1-1.538-.53,1.716,1.716,0,0,1-.6-1.345A1.792,1.792,0,0,1,42.571-3.3a3.55,3.55,0,0,1,2.118-.548h1.055v-.5a1.217,1.217,0,0,0-.34-.905,1.366,1.366,0,0,0-1-.337,1.581,1.581,0,0,0-.973.293.863.863,0,0,0-.393.709h-1.09a1.5,1.5,0,0,1,.337-.917,2.3,2.3,0,0,1,.914-.7,3.075,3.075,0,0,1,1.269-.258,2.506,2.506,0,0,1,1.717.548A1.976,1.976,0,0,1,46.828-4.4v2.918a3.567,3.567,0,0,0,.223,1.389V0Zm-1.8-.826a1.905,1.905,0,0,0,.967-.264,1.6,1.6,0,0,0,.662-.686v-1.3h-.85Q42.9-3.076,42.9-1.91a.987.987,0,0,0,.34.8A1.306,1.306,0,0,0,44.115-.826ZM50-7.875V-6.34h1.184V-5.5H50v3.937a.88.88,0,0,0,.158.572A.666.666,0,0,0,50.7-.8a2.624,2.624,0,0,0,.516-.07V0a3.161,3.161,0,0,1-.832.116,1.35,1.35,0,0,1-1.1-.439,1.888,1.888,0,0,1-.369-1.248V-5.5H47.76V-6.34h1.154V-7.875ZM53.625,0H52.541V-6.34h1.084ZM52.453-8.021a.647.647,0,0,1,.161-.445.6.6,0,0,1,.478-.182.614.614,0,0,1,.48.182.64.64,0,0,1,.164.445.619.619,0,0,1-.164.439.626.626,0,0,1-.48.176.616.616,0,0,1-.478-.176A.626.626,0,0,1,52.453-8.021Zm2.619,4.793A3.745,3.745,0,0,1,55.438-4.9a2.732,2.732,0,0,1,1.02-1.148,2.775,2.775,0,0,1,1.491-.4,2.674,2.674,0,0,1,2.095.9,3.449,3.449,0,0,1,.8,2.385V-3.1a3.777,3.777,0,0,1-.354,1.661A2.692,2.692,0,0,1,59.476-.293a2.807,2.807,0,0,1-1.515.41,2.667,2.667,0,0,1-2.089-.9,3.432,3.432,0,0,1-.8-2.373Zm1.09.129a2.712,2.712,0,0,0,.489,1.693,1.566,1.566,0,0,0,1.31.639,1.556,1.556,0,0,0,1.313-.647,2.966,2.966,0,0,0,.486-1.813,2.708,2.708,0,0,0-.5-1.69,1.574,1.574,0,0,0-1.315-.647,1.557,1.557,0,0,0-1.295.639A2.944,2.944,0,0,0,56.162-3.1Zm7.066-3.24.035.8a2.31,2.31,0,0,1,1.9-.914q2.01,0,2.027,2.268V0H66.105V-4.2a1.459,1.459,0,0,0-.313-1.014,1.256,1.256,0,0,0-.958-.328,1.564,1.564,0,0,0-.926.281,1.91,1.91,0,0,0-.621.738V0H62.2V-6.34Z" transform="translate(712.706 335.882)" fill="#0c2339"/>
    <path id="Path_985" data-name="Path 985" d="M-56.4.117a2.77,2.77,0,0,1-2.1-.847,3.142,3.142,0,0,1-.809-2.265v-.2a3.8,3.8,0,0,1,.36-1.685,2.811,2.811,0,0,1,1.008-1.16,2.534,2.534,0,0,1,1.4-.419,2.374,2.374,0,0,1,1.922.814,3.526,3.526,0,0,1,.686,2.332v.451h-4.295a2.254,2.254,0,0,0,.548,1.515,1.722,1.722,0,0,0,1.333.577A1.888,1.888,0,0,0-55.371-1a2.444,2.444,0,0,0,.7-.621l.662.516A2.662,2.662,0,0,1-56.4.117Zm-.135-5.684a1.446,1.446,0,0,0-1.1.478,2.321,2.321,0,0,0-.551,1.339h3.176v-.082a2.065,2.065,0,0,0-.445-1.28A1.361,1.361,0,0,0-56.537-5.566Zm6.117,2.385h-2.859v-.885h2.859Zm7.5.475a3.139,3.139,0,0,1-1,2.089,3.274,3.274,0,0,1-2.235.735A3.006,3.006,0,0,1-48.577-.967a4.361,4.361,0,0,1-.911-2.9v-.82a4.861,4.861,0,0,1,.425-2.092,3.173,3.173,0,0,1,1.2-1.386,3.353,3.353,0,0,1,1.8-.483,3.083,3.083,0,0,1,2.18.759,3.176,3.176,0,0,1,.955,2.1h-1.131a2.451,2.451,0,0,0-.636-1.481,1.924,1.924,0,0,0-1.368-.458,2.013,2.013,0,0,0-1.69.8,3.661,3.661,0,0,0-.612,2.269v.827a3.764,3.764,0,0,0,.58,2.211A1.874,1.874,0,0,0-46.154-.8a2.165,2.165,0,0,0,1.438-.425,2.357,2.357,0,0,0,.665-1.479Zm1.078-.521A3.745,3.745,0,0,1-41.476-4.9a2.732,2.732,0,0,1,1.02-1.148,2.775,2.775,0,0,1,1.491-.4,2.674,2.674,0,0,1,2.095.9,3.449,3.449,0,0,1,.8,2.385V-3.1a3.777,3.777,0,0,1-.354,1.661A2.692,2.692,0,0,1-37.438-.293a2.807,2.807,0,0,1-1.515.41,2.667,2.667,0,0,1-2.089-.9,3.432,3.432,0,0,1-.8-2.373Zm1.09.129a2.712,2.712,0,0,0,.489,1.693,1.566,1.566,0,0,0,1.31.639,1.556,1.556,0,0,0,1.313-.647,2.966,2.966,0,0,0,.486-1.813,2.708,2.708,0,0,0-.5-1.69,1.574,1.574,0,0,0-1.315-.647,1.557,1.557,0,0,0-1.295.639A2.944,2.944,0,0,0-40.752-3.1Zm7.061-3.24.029.7a2.341,2.341,0,0,1,1.881-.82,1.813,1.813,0,0,1,1.811,1.02,2.4,2.4,0,0,1,.823-.738,2.431,2.431,0,0,1,1.2-.281q2.086,0,2.121,2.209V0h-1.084V-4.184A1.456,1.456,0,0,0-27.223-5.2a1.368,1.368,0,0,0-1.043-.337,1.437,1.437,0,0,0-1,.36,1.462,1.462,0,0,0-.463.97V0h-1.09V-4.154a1.209,1.209,0,0,0-1.354-1.383,1.45,1.45,0,0,0-1.459.908V0h-1.084V-6.34Zm10.518,0,.029.7a2.341,2.341,0,0,1,1.881-.82,1.813,1.813,0,0,1,1.811,1.02,2.4,2.4,0,0,1,.823-.738,2.431,2.431,0,0,1,1.2-.281q2.086,0,2.121,2.209V0h-1.084V-4.184A1.456,1.456,0,0,0-16.705-5.2a1.368,1.368,0,0,0-1.043-.337,1.437,1.437,0,0,0-1,.36,1.462,1.462,0,0,0-.463.97V0H-20.3V-4.154a1.209,1.209,0,0,0-1.354-1.383,1.45,1.45,0,0,0-1.459.908V0H-24.2V-6.34ZM-11.045.117a2.77,2.77,0,0,1-2.1-.847,3.142,3.142,0,0,1-.809-2.265v-.2a3.8,3.8,0,0,1,.36-1.685,2.811,2.811,0,0,1,1.008-1.16,2.534,2.534,0,0,1,1.4-.419,2.374,2.374,0,0,1,1.922.814,3.526,3.526,0,0,1,.686,2.332v.451h-4.295a2.254,2.254,0,0,0,.548,1.515,1.722,1.722,0,0,0,1.333.577A1.888,1.888,0,0,0-10.014-1a2.444,2.444,0,0,0,.7-.621l.662.516A2.662,2.662,0,0,1-11.045.117Zm-.135-5.684a1.446,1.446,0,0,0-1.1.478,2.321,2.321,0,0,0-.551,1.339h3.176v-.082a2.065,2.065,0,0,0-.445-1.28A1.361,1.361,0,0,0-11.18-5.566Zm6.926.2a3.248,3.248,0,0,0-.533-.041A1.428,1.428,0,0,0-6.234-4.5V0H-7.318V-6.34h1.055l.018.732a1.688,1.688,0,0,1,1.512-.85,1.107,1.107,0,0,1,.48.082Zm3.428,4.6A1.561,1.561,0,0,0,.188-1.119,1.237,1.237,0,0,0,.668-2H1.693A1.966,1.966,0,0,1,1.318-.961,2.47,2.47,0,0,1,.4-.176,2.663,2.663,0,0,1-.826.117a2.612,2.612,0,0,1-2.06-.864A3.442,3.442,0,0,1-3.65-3.111v-.182a3.817,3.817,0,0,1,.34-1.646,2.588,2.588,0,0,1,.976-1.119,2.771,2.771,0,0,1,1.5-.4A2.543,2.543,0,0,1,.94-5.818,2.283,2.283,0,0,1,1.693-4.16H.668A1.494,1.494,0,0,0,.2-5.171a1.449,1.449,0,0,0-1.034-.4,1.517,1.517,0,0,0-1.28.595,2.793,2.793,0,0,0-.454,1.72v.205a2.737,2.737,0,0,0,.451,1.688A1.524,1.524,0,0,0-.826-.768ZM5.543.117a2.77,2.77,0,0,1-2.1-.847,3.142,3.142,0,0,1-.809-2.265v-.2A3.8,3.8,0,0,1,3-4.878,2.811,2.811,0,0,1,4-6.038a2.534,2.534,0,0,1,1.4-.419,2.374,2.374,0,0,1,1.922.814,3.526,3.526,0,0,1,.686,2.332v.451H3.721a2.254,2.254,0,0,0,.548,1.515A1.722,1.722,0,0,0,5.6-.768,1.888,1.888,0,0,0,6.574-1a2.444,2.444,0,0,0,.7-.621l.662.516A2.662,2.662,0,0,1,5.543.117ZM5.408-5.566a1.446,1.446,0,0,0-1.1.478A2.321,2.321,0,0,0,3.756-3.75H6.932v-.082a2.065,2.065,0,0,0-.445-1.28A1.361,1.361,0,0,0,5.408-5.566ZM13.541-.92h4.043V0H12.41V-8.531h1.131ZM18.41-3.229A3.745,3.745,0,0,1,18.776-4.9,2.732,2.732,0,0,1,19.8-6.053a2.775,2.775,0,0,1,1.491-.4,2.674,2.674,0,0,1,2.095.9,3.449,3.449,0,0,1,.8,2.385V-3.1a3.777,3.777,0,0,1-.354,1.661A2.692,2.692,0,0,1,22.813-.293,2.807,2.807,0,0,1,21.3.117a2.667,2.667,0,0,1-2.089-.9,3.432,3.432,0,0,1-.8-2.373ZM19.5-3.1a2.712,2.712,0,0,0,.489,1.693,1.566,1.566,0,0,0,1.31.639,1.556,1.556,0,0,0,1.313-.647A2.966,2.966,0,0,0,23.1-3.229a2.708,2.708,0,0,0-.5-1.69,1.574,1.574,0,0,0-1.315-.647,1.557,1.557,0,0,0-1.295.639A2.944,2.944,0,0,0,19.5-3.1Zm5.783-.123a3.726,3.726,0,0,1,.686-2.358,2.192,2.192,0,0,1,1.816-.876,2.181,2.181,0,0,1,1.811.82l.053-.7h.99V-.152a2.579,2.579,0,0,1-.729,1.939,2.692,2.692,0,0,1-1.96.709A3.261,3.261,0,0,1,26.607,2.2a2.31,2.31,0,0,1-1-.8l.563-.65a2.12,2.12,0,0,0,1.705.861,1.661,1.661,0,0,0,1.233-.445,1.7,1.7,0,0,0,.442-1.254V-.633a2.228,2.228,0,0,1-1.775.75,2.166,2.166,0,0,1-1.8-.9A3.918,3.918,0,0,1,25.283-3.223Zm1.09.123a2.843,2.843,0,0,0,.439,1.685,1.428,1.428,0,0,0,1.23.612,1.588,1.588,0,0,0,1.506-.932V-4.629a1.606,1.606,0,0,0-1.494-.908,1.441,1.441,0,0,0-1.236.615A3.1,3.1,0,0,0,26.373-3.1ZM33.451,0H32.367V-6.34h1.084ZM32.279-8.021a.647.647,0,0,1,.161-.445.6.6,0,0,1,.478-.182.614.614,0,0,1,.48.182.64.64,0,0,1,.164.445.619.619,0,0,1-.164.439.626.626,0,0,1-.48.176.616.616,0,0,1-.478-.176A.626.626,0,0,1,32.279-8.021Zm6.6,6.34a.8.8,0,0,0-.331-.683,3.187,3.187,0,0,0-1.154-.419,5.457,5.457,0,0,1-1.307-.422,1.859,1.859,0,0,1-.715-.586,1.4,1.4,0,0,1-.231-.809A1.645,1.645,0,0,1,35.8-5.918a2.574,2.574,0,0,1,1.685-.539,2.649,2.649,0,0,1,1.749.557A1.768,1.768,0,0,1,39.9-4.477h-1.09a.979.979,0,0,0-.378-.768,1.416,1.416,0,0,0-.952-.322,1.482,1.482,0,0,0-.926.258.812.812,0,0,0-.334.674.658.658,0,0,0,.311.592,3.821,3.821,0,0,0,1.122.381,5.847,5.847,0,0,1,1.315.434,1.919,1.919,0,0,1,.747.606,1.491,1.491,0,0,1,.243.864A1.623,1.623,0,0,1,39.281-.4a2.851,2.851,0,0,1-1.764.513,3.193,3.193,0,0,1-1.348-.27,2.192,2.192,0,0,1-.917-.753,1.815,1.815,0,0,1-.331-1.046h1.084a1.122,1.122,0,0,0,.437.864,1.693,1.693,0,0,0,1.075.319,1.748,1.748,0,0,0,.987-.249A.765.765,0,0,0,38.877-1.682Zm3.967-6.193V-6.34h1.184V-5.5H42.844v3.937A.88.88,0,0,0,43-.993a.666.666,0,0,0,.539.191,2.624,2.624,0,0,0,.516-.07V0a3.161,3.161,0,0,1-.832.116,1.35,1.35,0,0,1-1.1-.439A1.888,1.888,0,0,1,41.76-1.57V-5.5H40.605V-6.34H41.76V-7.875ZM46.471,0H45.387V-6.34h1.084ZM45.3-8.021a.647.647,0,0,1,.161-.445.6.6,0,0,1,.478-.182.614.614,0,0,1,.48.182.64.64,0,0,1,.164.445.619.619,0,0,1-.164.439.626.626,0,0,1-.48.176.616.616,0,0,1-.478-.176A.626.626,0,0,1,45.3-8.021ZM50.748-.768a1.561,1.561,0,0,0,1.014-.352A1.237,1.237,0,0,0,52.242-2h1.025a1.966,1.966,0,0,1-.375,1.037,2.47,2.47,0,0,1-.923.785,2.663,2.663,0,0,1-1.222.293,2.612,2.612,0,0,1-2.06-.864,3.442,3.442,0,0,1-.765-2.364v-.182a3.817,3.817,0,0,1,.34-1.646,2.588,2.588,0,0,1,.976-1.119,2.771,2.771,0,0,1,1.5-.4,2.543,2.543,0,0,1,1.772.639,2.283,2.283,0,0,1,.753,1.658H52.242a1.494,1.494,0,0,0-.466-1.011,1.449,1.449,0,0,0-1.034-.4,1.517,1.517,0,0,0-1.28.595,2.793,2.793,0,0,0-.454,1.72v.205a2.737,2.737,0,0,0,.451,1.688A1.524,1.524,0,0,0,50.748-.768Zm7.43-.914a.8.8,0,0,0-.331-.683,3.187,3.187,0,0,0-1.154-.419,5.457,5.457,0,0,1-1.307-.422,1.859,1.859,0,0,1-.715-.586,1.4,1.4,0,0,1-.231-.809A1.645,1.645,0,0,1,55.1-5.918a2.574,2.574,0,0,1,1.685-.539,2.649,2.649,0,0,1,1.749.557A1.768,1.768,0,0,1,59.2-4.477h-1.09a.979.979,0,0,0-.378-.768,1.416,1.416,0,0,0-.952-.322,1.482,1.482,0,0,0-.926.258.812.812,0,0,0-.334.674.658.658,0,0,0,.311.592,3.821,3.821,0,0,0,1.122.381,5.847,5.847,0,0,1,1.315.434,1.919,1.919,0,0,1,.747.606,1.491,1.491,0,0,1,.243.864A1.623,1.623,0,0,1,58.582-.4a2.851,2.851,0,0,1-1.764.513,3.193,3.193,0,0,1-1.348-.27,2.192,2.192,0,0,1-.917-.753,1.815,1.815,0,0,1-.331-1.046h1.084a1.122,1.122,0,0,0,.437.864,1.693,1.693,0,0,0,1.075.319,1.748,1.748,0,0,0,.987-.249A.765.765,0,0,0,58.178-1.682ZM-19.093,10.2A5.29,5.29,0,0,1-21.2,9.175a1.954,1.954,0,0,1-.659-1.5,2.064,2.064,0,0,1,.806-1.667,3.2,3.2,0,0,1,2.095-.659,3.5,3.5,0,0,1,1.567.34,2.577,2.577,0,0,1,1.066.938,2.4,2.4,0,0,1,.378,1.307h-1.131a1.56,1.56,0,0,0-.492-1.22,2,2,0,0,0-1.389-.444,2.049,2.049,0,0,0-1.3.367,1.224,1.224,0,0,0-.466,1.018,1.1,1.1,0,0,0,.442.883,4.339,4.339,0,0,0,1.506.66,6.987,6.987,0,0,1,1.664.66,2.525,2.525,0,0,1,.891.841,2.146,2.146,0,0,1,.29,1.131,1.993,1.993,0,0,1-.809,1.661,3.448,3.448,0,0,1-2.162.624,4.01,4.01,0,0,1-1.641-.337,2.761,2.761,0,0,1-1.175-.923,2.252,2.252,0,0,1-.413-1.33H-21a1.469,1.469,0,0,0,.571,1.222A2.4,2.4,0,0,0-18.9,13.2a2.211,2.211,0,0,0,1.365-.363,1.18,1.18,0,0,0,.475-.99,1.158,1.158,0,0,0-.439-.97A5.066,5.066,0,0,0-19.093,10.2Zm7.066,3.92a2.77,2.77,0,0,1-2.1-.847,3.142,3.142,0,0,1-.809-2.265v-.2a3.8,3.8,0,0,1,.36-1.685,2.811,2.811,0,0,1,1.008-1.16,2.534,2.534,0,0,1,1.4-.419,2.374,2.374,0,0,1,1.922.814,3.526,3.526,0,0,1,.686,2.332v.451h-4.295a2.254,2.254,0,0,0,.548,1.515,1.722,1.722,0,0,0,1.333.577A1.888,1.888,0,0,0-11,13a2.444,2.444,0,0,0,.7-.621l.662.516A2.662,2.662,0,0,1-12.026,14.117Zm-.135-5.684a1.446,1.446,0,0,0-1.1.478,2.321,2.321,0,0,0-.551,1.339h3.176v-.082a2.065,2.065,0,0,0-.445-1.28A1.361,1.361,0,0,0-12.161,8.434Zm6.926.2a3.248,3.248,0,0,0-.533-.041A1.428,1.428,0,0,0-7.216,9.5V14H-8.3V7.66h1.055l.018.732a1.688,1.688,0,0,1,1.512-.85,1.107,1.107,0,0,1,.48.082Zm3.193,3.9L-.472,7.66H.636L-1.638,14h-.826l-2.3-6.34h1.107ZM2.856,14H1.772V7.66H2.856ZM1.685,5.979a.647.647,0,0,1,.161-.445.6.6,0,0,1,.478-.182.614.614,0,0,1,.48.182.64.64,0,0,1,.164.445.619.619,0,0,1-.164.439.626.626,0,0,1-.48.176.616.616,0,0,1-.478-.176A.626.626,0,0,1,1.685,5.979Zm5.449,7.254a1.561,1.561,0,0,0,1.014-.352A1.237,1.237,0,0,0,8.628,12H9.653a1.966,1.966,0,0,1-.375,1.037,2.47,2.47,0,0,1-.923.785,2.663,2.663,0,0,1-1.222.293,2.612,2.612,0,0,1-2.06-.864,3.442,3.442,0,0,1-.765-2.364v-.182a3.817,3.817,0,0,1,.34-1.646,2.588,2.588,0,0,1,.976-1.119,2.771,2.771,0,0,1,1.5-.4A2.543,2.543,0,0,1,8.9,8.182,2.283,2.283,0,0,1,9.653,9.84H8.628a1.494,1.494,0,0,0-.466-1.011,1.449,1.449,0,0,0-1.034-.4,1.517,1.517,0,0,0-1.28.595,2.793,2.793,0,0,0-.454,1.72v.205a2.737,2.737,0,0,0,.451,1.688A1.524,1.524,0,0,0,7.134,13.232Zm6.369.885a2.77,2.77,0,0,1-2.1-.847,3.142,3.142,0,0,1-.809-2.265v-.2a3.8,3.8,0,0,1,.36-1.685,2.811,2.811,0,0,1,1.008-1.16,2.534,2.534,0,0,1,1.4-.419,2.374,2.374,0,0,1,1.922.814,3.526,3.526,0,0,1,.686,2.332v.451H11.681a2.254,2.254,0,0,0,.548,1.515,1.722,1.722,0,0,0,1.333.577A1.888,1.888,0,0,0,14.534,13a2.444,2.444,0,0,0,.7-.621l.662.516A2.662,2.662,0,0,1,13.5,14.117Zm-.135-5.684a1.446,1.446,0,0,0-1.1.478,2.321,2.321,0,0,0-.551,1.339h3.176v-.082a2.065,2.065,0,0,0-.445-1.28A1.361,1.361,0,0,0,13.368,8.434Zm7.553,3.885a.8.8,0,0,0-.331-.683,3.187,3.187,0,0,0-1.154-.419,5.457,5.457,0,0,1-1.307-.422,1.859,1.859,0,0,1-.715-.586,1.4,1.4,0,0,1-.231-.809,1.645,1.645,0,0,1,.659-1.318,2.574,2.574,0,0,1,1.685-.539,2.649,2.649,0,0,1,1.749.557,1.768,1.768,0,0,1,.671,1.424h-1.09a.979.979,0,0,0-.378-.768,1.416,1.416,0,0,0-.952-.322,1.482,1.482,0,0,0-.926.258.812.812,0,0,0-.334.674.658.658,0,0,0,.311.592,3.821,3.821,0,0,0,1.122.381,5.847,5.847,0,0,1,1.315.434,1.919,1.919,0,0,1,.747.606,1.491,1.491,0,0,1,.243.864,1.623,1.623,0,0,1-.68,1.362,2.851,2.851,0,0,1-1.764.513,3.193,3.193,0,0,1-1.348-.27,2.192,2.192,0,0,1-.917-.753,1.815,1.815,0,0,1-.331-1.046H18.05a1.122,1.122,0,0,0,.437.864,1.693,1.693,0,0,0,1.075.319,1.748,1.748,0,0,0,.987-.249A.765.765,0,0,0,20.921,12.318Z" transform="translate(682.634 436.882)" fill="#0c2339"/>
    <path id="Path_996" data-name="Path 996" d="M-23.977-3.8a5.29,5.29,0,0,1-2.106-1.022,1.954,1.954,0,0,1-.659-1.5,2.064,2.064,0,0,1,.806-1.667,3.2,3.2,0,0,1,2.095-.659,3.5,3.5,0,0,1,1.567.34,2.577,2.577,0,0,1,1.066.938,2.4,2.4,0,0,1,.378,1.307h-1.131a1.56,1.56,0,0,0-.492-1.22,2,2,0,0,0-1.389-.444,2.049,2.049,0,0,0-1.3.367,1.224,1.224,0,0,0-.466,1.018,1.1,1.1,0,0,0,.442.883,4.339,4.339,0,0,0,1.506.66,6.987,6.987,0,0,1,1.664.66A2.525,2.525,0,0,1-21.1-3.3a2.146,2.146,0,0,1,.29,1.131,1.993,1.993,0,0,1-.809,1.661,3.448,3.448,0,0,1-2.162.624A4.01,4.01,0,0,1-25.424-.22,2.761,2.761,0,0,1-26.6-1.143a2.252,2.252,0,0,1-.413-1.33h1.131a1.469,1.469,0,0,0,.571,1.222A2.4,2.4,0,0,0-23.783-.8a2.211,2.211,0,0,0,1.365-.363,1.18,1.18,0,0,0,.475-.99,1.158,1.158,0,0,0-.439-.97A5.066,5.066,0,0,0-23.977-3.8Zm8.35,3.8a2.277,2.277,0,0,1-.152-.668,2.419,2.419,0,0,1-1.8.785,2.238,2.238,0,0,1-1.538-.53,1.716,1.716,0,0,1-.6-1.345A1.792,1.792,0,0,1-18.97-3.3a3.55,3.55,0,0,1,2.118-.548H-15.8v-.5a1.217,1.217,0,0,0-.34-.905,1.366,1.366,0,0,0-1-.337,1.581,1.581,0,0,0-.973.293.863.863,0,0,0-.393.709h-1.09a1.5,1.5,0,0,1,.337-.917,2.3,2.3,0,0,1,.914-.7,3.075,3.075,0,0,1,1.269-.258,2.506,2.506,0,0,1,1.717.548A1.976,1.976,0,0,1-14.713-4.4v2.918A3.567,3.567,0,0,0-14.49-.094V0Zm-1.8-.826a1.905,1.905,0,0,0,.967-.264,1.6,1.6,0,0,0,.662-.686v-1.3h-.85q-1.992,0-1.992,1.166a.987.987,0,0,0,.34.8A1.306,1.306,0,0,0-17.426-.826Zm5.59.826H-12.92V-9h1.084Zm4.365.117a2.77,2.77,0,0,1-2.1-.847,3.142,3.142,0,0,1-.809-2.265v-.2a3.8,3.8,0,0,1,.36-1.685,2.811,2.811,0,0,1,1.008-1.16,2.534,2.534,0,0,1,1.4-.419,2.374,2.374,0,0,1,1.922.814A3.526,3.526,0,0,1-5-3.311v.451H-9.293a2.254,2.254,0,0,0,.548,1.515,1.722,1.722,0,0,0,1.333.577A1.888,1.888,0,0,0-6.439-1a2.444,2.444,0,0,0,.7-.621l.662.516A2.662,2.662,0,0,1-7.471.117Zm-.135-5.684a1.446,1.446,0,0,0-1.1.478A2.321,2.321,0,0,0-9.258-3.75h3.176v-.082a2.065,2.065,0,0,0-.445-1.28A1.361,1.361,0,0,0-7.605-5.566ZM-.053-1.682a.8.8,0,0,0-.331-.683,3.187,3.187,0,0,0-1.154-.419,5.457,5.457,0,0,1-1.307-.422,1.859,1.859,0,0,1-.715-.586A1.4,1.4,0,0,1-3.791-4.6a1.645,1.645,0,0,1,.659-1.318,2.574,2.574,0,0,1,1.685-.539A2.649,2.649,0,0,1,.3-5.9,1.768,1.768,0,0,1,.973-4.477H-.117A.979.979,0,0,0-.5-5.244a1.416,1.416,0,0,0-.952-.322,1.482,1.482,0,0,0-.926.258.812.812,0,0,0-.334.674.658.658,0,0,0,.311.592,3.821,3.821,0,0,0,1.122.381,5.847,5.847,0,0,1,1.315.434,1.919,1.919,0,0,1,.747.606,1.491,1.491,0,0,1,.243.864A1.623,1.623,0,0,1,.352-.4,2.851,2.851,0,0,1-1.412.117,3.193,3.193,0,0,1-2.76-.152a2.192,2.192,0,0,1-.917-.753,1.815,1.815,0,0,1-.331-1.046h1.084a1.122,1.122,0,0,0,.437.864,1.693,1.693,0,0,0,1.075.319,1.748,1.748,0,0,0,.987-.249A.765.765,0,0,0-.053-1.682ZM9.328,0a2.277,2.277,0,0,1-.152-.668,2.419,2.419,0,0,1-1.8.785,2.238,2.238,0,0,1-1.538-.53,1.716,1.716,0,0,1-.6-1.345A1.792,1.792,0,0,1,5.985-3.3,3.55,3.55,0,0,1,8.1-3.844H9.158v-.5a1.217,1.217,0,0,0-.34-.905,1.366,1.366,0,0,0-1-.337,1.581,1.581,0,0,0-.973.293.863.863,0,0,0-.393.709H5.361A1.5,1.5,0,0,1,5.7-5.5a2.3,2.3,0,0,1,.914-.7,3.075,3.075,0,0,1,1.269-.258A2.506,2.506,0,0,1,9.6-5.909,1.976,1.976,0,0,1,10.242-4.4v2.918a3.567,3.567,0,0,0,.223,1.389V0Zm-1.8-.826A1.905,1.905,0,0,0,8.5-1.09a1.6,1.6,0,0,0,.662-.686v-1.3h-.85q-1.992,0-1.992,1.166a.987.987,0,0,0,.34.8A1.306,1.306,0,0,0,7.529-.826ZM12.967-6.34l.035.8a2.31,2.31,0,0,1,1.9-.914q2.01,0,2.027,2.268V0H15.844V-4.2a1.459,1.459,0,0,0-.313-1.014,1.256,1.256,0,0,0-.958-.328,1.564,1.564,0,0,0-.926.281,1.91,1.91,0,0,0-.621.738V0H11.941V-6.34ZM18.3-3.223a3.714,3.714,0,0,1,.691-2.347A2.186,2.186,0,0,1,20.8-6.457a2.2,2.2,0,0,1,1.764.762V-9h1.084V0h-1L22.6-.68a2.208,2.208,0,0,1-1.811.8,2.165,2.165,0,0,1-1.8-.9A3.756,3.756,0,0,1,18.3-3.141Zm1.084.123a2.812,2.812,0,0,0,.445,1.688,1.44,1.44,0,0,0,1.23.609,1.581,1.581,0,0,0,1.506-.926V-4.641a1.593,1.593,0,0,0-1.494-.9,1.446,1.446,0,0,0-1.242.615A3.1,3.1,0,0,0,19.383-3.1ZM-39.378,10.01A5.277,5.277,0,0,1-39.8,12.2,3.2,3.2,0,0,1-41,13.625a3.289,3.289,0,0,1-1.8.492,3.261,3.261,0,0,1-1.787-.5A3.272,3.272,0,0,1-45.8,12.21a5.064,5.064,0,0,1-.442-2.124V9.471A5.215,5.215,0,0,1-45.812,7.3,3.26,3.26,0,0,1-44.6,5.853a3.247,3.247,0,0,1,1.79-.5,3.307,3.307,0,0,1,1.808.5,3.19,3.19,0,0,1,1.2,1.436,5.3,5.3,0,0,1,.422,2.188ZM-40.5,9.459a3.825,3.825,0,0,0-.609-2.329,2.01,2.01,0,0,0-1.705-.812,1.988,1.988,0,0,0-1.679.812,3.747,3.747,0,0,0-.63,2.253v.627a3.831,3.831,0,0,0,.618,2.312,2,2,0,0,0,1.7.841,1.989,1.989,0,0,0,1.688-.794,3.809,3.809,0,0,0,.615-2.276Zm5.7-.826a3.248,3.248,0,0,0-.533-.041,1.428,1.428,0,0,0-1.447.908V14H-37.86V7.66h1.055l.018.732a1.688,1.688,0,0,1,1.512-.85,1.107,1.107,0,0,1,.48.082Zm.621,2.145a3.714,3.714,0,0,1,.691-2.347,2.186,2.186,0,0,1,1.811-.888,2.2,2.2,0,0,1,1.764.762V5h1.084v9h-1l-.053-.68a2.208,2.208,0,0,1-1.811.8,2.165,2.165,0,0,1-1.8-.9,3.756,3.756,0,0,1-.694-2.355Zm1.084.123a2.812,2.812,0,0,0,.445,1.688,1.44,1.44,0,0,0,1.23.609,1.581,1.581,0,0,0,1.506-.926V9.359a1.593,1.593,0,0,0-1.494-.9,1.446,1.446,0,0,0-1.242.615A3.1,3.1,0,0,0-33.091,10.9Zm8.578,3.217a2.77,2.77,0,0,1-2.1-.847,3.142,3.142,0,0,1-.809-2.265v-.2a3.8,3.8,0,0,1,.36-1.685,2.811,2.811,0,0,1,1.008-1.16,2.534,2.534,0,0,1,1.4-.419,2.374,2.374,0,0,1,1.922.814,3.526,3.526,0,0,1,.686,2.332v.451h-4.295a2.254,2.254,0,0,0,.548,1.515,1.722,1.722,0,0,0,1.333.577A1.888,1.888,0,0,0-23.481,13a2.444,2.444,0,0,0,.7-.621l.662.516A2.662,2.662,0,0,1-24.513,14.117Zm-.135-5.684a1.446,1.446,0,0,0-1.1.478A2.321,2.321,0,0,0-26.3,10.25h3.176v-.082a2.065,2.065,0,0,0-.445-1.28A1.361,1.361,0,0,0-24.647,8.434Zm6.926.2a3.248,3.248,0,0,0-.533-.041A1.428,1.428,0,0,0-19.7,9.5V14h-1.084V7.66h1.055l.018.732a1.688,1.688,0,0,1,1.512-.85,1.107,1.107,0,0,1,.48.082ZM-13.585,14V5.469h2.408a3.877,3.877,0,0,1,1.969.492,3.329,3.329,0,0,1,1.321,1.4,4.558,4.558,0,0,1,.472,2.086v.545a4.574,4.574,0,0,1-.466,2.115A3.277,3.277,0,0,1-9.211,13.5a4.124,4.124,0,0,1-2.013.5Zm1.125-7.611V13.08h1.184a2.575,2.575,0,0,0,2.024-.809,3.344,3.344,0,0,0,.724-2.3v-.5a3.4,3.4,0,0,0-.683-2.261,2.429,2.429,0,0,0-1.937-.818ZM-4.708,14H-5.792V7.66h1.084ZM-5.88,5.979a.647.647,0,0,1,.161-.445.6.6,0,0,1,.478-.182.614.614,0,0,1,.48.182.64.64,0,0,1,.164.445.619.619,0,0,1-.164.439.626.626,0,0,1-.48.176.616.616,0,0,1-.478-.176A.626.626,0,0,1-5.88,5.979Zm6.6,6.34a.8.8,0,0,0-.331-.683,3.187,3.187,0,0,0-1.154-.419,5.457,5.457,0,0,1-1.307-.422,1.859,1.859,0,0,1-.715-.586A1.4,1.4,0,0,1-3.021,9.4a1.645,1.645,0,0,1,.659-1.318A2.574,2.574,0,0,1-.677,7.543,2.649,2.649,0,0,1,1.072,8.1a1.768,1.768,0,0,1,.671,1.424H.653a.979.979,0,0,0-.378-.768,1.416,1.416,0,0,0-.952-.322,1.482,1.482,0,0,0-.926.258.812.812,0,0,0-.334.674.658.658,0,0,0,.311.592A3.821,3.821,0,0,0-.5,10.338a5.847,5.847,0,0,1,1.315.434,1.919,1.919,0,0,1,.747.606,1.491,1.491,0,0,1,.243.864,1.623,1.623,0,0,1-.68,1.362,2.851,2.851,0,0,1-1.764.513,3.193,3.193,0,0,1-1.348-.27,2.192,2.192,0,0,1-.917-.753,1.815,1.815,0,0,1-.331-1.046h1.084a1.122,1.122,0,0,0,.437.864,1.693,1.693,0,0,0,1.075.319,1.748,1.748,0,0,0,.987-.249A.765.765,0,0,0,.718,12.318ZM4.685,6.125V7.66H5.868V8.5H4.685v3.937a.88.88,0,0,0,.158.572.666.666,0,0,0,.539.191,2.624,2.624,0,0,0,.516-.07V14a3.161,3.161,0,0,1-.832.116,1.35,1.35,0,0,1-1.1-.439A1.888,1.888,0,0,1,3.6,12.43V8.5H2.446V7.66H3.6V6.125ZM10.2,8.633a3.248,3.248,0,0,0-.533-.041A1.428,1.428,0,0,0,8.218,9.5V14H7.134V7.66H8.188l.018.732a1.688,1.688,0,0,1,1.512-.85,1.107,1.107,0,0,1,.48.082ZM12.372,14H11.288V7.66h1.084ZM11.2,5.979a.647.647,0,0,1,.161-.445.6.6,0,0,1,.478-.182.614.614,0,0,1,.48.182.64.64,0,0,1,.164.445.619.619,0,0,1-.164.439.626.626,0,0,1-.48.176.616.616,0,0,1-.478-.176A.626.626,0,0,1,11.2,5.979ZM19.474,10.9a3.77,3.77,0,0,1-.668,2.335,2.134,2.134,0,0,1-1.793.882,2.21,2.21,0,0,1-1.857-.85L15.1,14h-1V5H15.19V8.357A2.2,2.2,0,0,1,17,7.543a2.147,2.147,0,0,1,1.813.873,3.883,3.883,0,0,1,.659,2.391Zm-1.084-.123a2.929,2.929,0,0,0-.428-1.711,1.416,1.416,0,0,0-1.23-.6,1.591,1.591,0,0,0-1.541,1V12.2a1.636,1.636,0,0,0,1.553,1,1.408,1.408,0,0,0,1.213-.6A3.115,3.115,0,0,0,18.39,10.777Zm6.363,2.6a2.3,2.3,0,0,1-1.857.744,1.971,1.971,0,0,1-1.544-.589,2.549,2.549,0,0,1-.536-1.743V7.66H21.9v4.1q0,1.441,1.172,1.441a1.623,1.623,0,0,0,1.652-.926V7.66h1.084V14H24.776Zm4.172-7.248V7.66h1.184V8.5H28.925v3.937a.88.88,0,0,0,.158.572.666.666,0,0,0,.539.191,2.624,2.624,0,0,0,.516-.07V14a3.161,3.161,0,0,1-.832.116,1.35,1.35,0,0,1-1.1-.439,1.888,1.888,0,0,1-.369-1.248V8.5H26.687V7.66h1.154V6.125ZM32.552,14H31.468V7.66h1.084ZM31.38,5.979a.647.647,0,0,1,.161-.445.6.6,0,0,1,.478-.182.614.614,0,0,1,.48.182.64.64,0,0,1,.164.445.619.619,0,0,1-.164.439.626.626,0,0,1-.48.176.616.616,0,0,1-.478-.176A.626.626,0,0,1,31.38,5.979ZM34,10.771A3.745,3.745,0,0,1,34.365,9.1a2.732,2.732,0,0,1,1.02-1.148,2.775,2.775,0,0,1,1.491-.4,2.674,2.674,0,0,1,2.095.9,3.449,3.449,0,0,1,.8,2.385V10.9a3.777,3.777,0,0,1-.354,1.661A2.692,2.692,0,0,1,38.4,13.707a2.807,2.807,0,0,1-1.515.41,2.667,2.667,0,0,1-2.089-.9,3.432,3.432,0,0,1-.8-2.373Zm1.09.129a2.712,2.712,0,0,0,.489,1.693,1.658,1.658,0,0,0,2.622-.009,2.966,2.966,0,0,0,.486-1.813,2.708,2.708,0,0,0-.5-1.69,1.574,1.574,0,0,0-1.315-.647,1.557,1.557,0,0,0-1.295.639A2.944,2.944,0,0,0,35.089,10.9Zm7.066-3.24.035.8a2.31,2.31,0,0,1,1.9-.914q2.01,0,2.027,2.268V14H45.032V9.8a1.459,1.459,0,0,0-.313-1.014,1.256,1.256,0,0,0-.958-.328,1.564,1.564,0,0,0-.926.281,1.91,1.91,0,0,0-.621.738V14H41.13V7.66Z" transform="translate(946.634 436.882)" fill="#0c2339"/>
    <path id="Path_1000" data-name="Path 1000" d="M-24.609-7.611h-2.742V0h-1.119V-7.611h-2.736v-.92h6.6Zm3.721,2.244a3.248,3.248,0,0,0-.533-.041,1.428,1.428,0,0,0-1.447.908V0h-1.084V-6.34H-22.9l.018.732a1.688,1.688,0,0,1,1.512-.85,1.107,1.107,0,0,1,.48.082ZM-16.213,0a2.277,2.277,0,0,1-.152-.668,2.419,2.419,0,0,1-1.8.785,2.238,2.238,0,0,1-1.538-.53,1.716,1.716,0,0,1-.6-1.345A1.792,1.792,0,0,1-19.556-3.3a3.55,3.55,0,0,1,2.118-.548h1.055v-.5a1.217,1.217,0,0,0-.34-.905,1.366,1.366,0,0,0-1-.337,1.581,1.581,0,0,0-.973.293.863.863,0,0,0-.393.709h-1.09a1.5,1.5,0,0,1,.337-.917,2.3,2.3,0,0,1,.914-.7,3.075,3.075,0,0,1,1.269-.258,2.506,2.506,0,0,1,1.717.548A1.976,1.976,0,0,1-15.3-4.4v2.918a3.567,3.567,0,0,0,.223,1.389V0Zm-1.8-.826a1.905,1.905,0,0,0,.967-.264,1.6,1.6,0,0,0,.662-.686v-1.3h-.85q-1.992,0-1.992,1.166a.987.987,0,0,0,.34.8A1.306,1.306,0,0,0-18.012-.826Zm5.438-5.514.035.8a2.31,2.31,0,0,1,1.9-.914q2.01,0,2.027,2.268V0H-9.7V-4.2a1.459,1.459,0,0,0-.313-1.014,1.256,1.256,0,0,0-.958-.328,1.564,1.564,0,0,0-.926.281,1.91,1.91,0,0,0-.621.738V0H-13.6V-6.34Zm9.287,4.658a.8.8,0,0,0-.331-.683,3.187,3.187,0,0,0-1.154-.419,5.457,5.457,0,0,1-1.307-.422,1.859,1.859,0,0,1-.715-.586A1.4,1.4,0,0,1-7.025-4.6a1.645,1.645,0,0,1,.659-1.318,2.574,2.574,0,0,1,1.685-.539A2.649,2.649,0,0,1-2.933-5.9a1.768,1.768,0,0,1,.671,1.424h-1.09a.979.979,0,0,0-.378-.768,1.416,1.416,0,0,0-.952-.322,1.482,1.482,0,0,0-.926.258.812.812,0,0,0-.334.674.658.658,0,0,0,.311.592,3.821,3.821,0,0,0,1.122.381,5.847,5.847,0,0,1,1.315.434,1.919,1.919,0,0,1,.747.606,1.491,1.491,0,0,1,.243.864A1.623,1.623,0,0,1-2.883-.4,2.851,2.851,0,0,1-4.646.117a3.193,3.193,0,0,1-1.348-.27,2.192,2.192,0,0,1-.917-.753,1.815,1.815,0,0,1-.331-1.046h1.084a1.122,1.122,0,0,0,.437.864,1.693,1.693,0,0,0,1.075.319,1.748,1.748,0,0,0,.987-.249A.765.765,0,0,0-3.287-1.682ZM3.123,0a2.277,2.277,0,0,1-.152-.668,2.419,2.419,0,0,1-1.8.785A2.238,2.238,0,0,1-.372-.413a1.716,1.716,0,0,1-.6-1.345A1.792,1.792,0,0,1-.22-3.3,3.55,3.55,0,0,1,1.9-3.844H2.953v-.5a1.217,1.217,0,0,0-.34-.905,1.366,1.366,0,0,0-1-.337,1.581,1.581,0,0,0-.973.293.863.863,0,0,0-.393.709H-.844A1.5,1.5,0,0,1-.507-5.5a2.3,2.3,0,0,1,.914-.7,3.075,3.075,0,0,1,1.269-.258,2.506,2.506,0,0,1,1.717.548A1.976,1.976,0,0,1,4.037-4.4v2.918A3.567,3.567,0,0,0,4.26-.094V0Zm-1.8-.826a1.905,1.905,0,0,0,.967-.264,1.6,1.6,0,0,0,.662-.686v-1.3H2.1Q.111-3.076.111-1.91a.987.987,0,0,0,.34.8A1.306,1.306,0,0,0,1.324-.826Zm6.955.059a1.561,1.561,0,0,0,1.014-.352A1.237,1.237,0,0,0,9.773-2H10.8a1.966,1.966,0,0,1-.375,1.037A2.47,2.47,0,0,1,9.5-.176,2.663,2.663,0,0,1,8.279.117,2.612,2.612,0,0,1,6.22-.747a3.442,3.442,0,0,1-.765-2.364v-.182a3.817,3.817,0,0,1,.34-1.646,2.588,2.588,0,0,1,.976-1.119,2.771,2.771,0,0,1,1.5-.4,2.543,2.543,0,0,1,1.772.639A2.283,2.283,0,0,1,10.8-4.16H9.773a1.494,1.494,0,0,0-.466-1.011,1.449,1.449,0,0,0-1.034-.4,1.517,1.517,0,0,0-1.28.595,2.793,2.793,0,0,0-.454,1.72v.205A2.737,2.737,0,0,0,6.99-1.359,1.524,1.524,0,0,0,8.279-.768Zm5.209-7.107V-6.34h1.184V-5.5H13.488v3.937a.88.88,0,0,0,.158.572.666.666,0,0,0,.539.191,2.624,2.624,0,0,0,.516-.07V0a3.161,3.161,0,0,1-.832.116,1.35,1.35,0,0,1-1.1-.439A1.888,1.888,0,0,1,12.4-1.57V-5.5H11.25V-6.34H12.4V-7.875ZM17.115,0H16.031V-6.34h1.084ZM15.943-8.021a.647.647,0,0,1,.161-.445.6.6,0,0,1,.478-.182.614.614,0,0,1,.48.182.64.64,0,0,1,.164.445.619.619,0,0,1-.164.439.626.626,0,0,1-.48.176.616.616,0,0,1-.478-.176A.626.626,0,0,1,15.943-8.021Zm2.619,4.793A3.745,3.745,0,0,1,18.929-4.9a2.732,2.732,0,0,1,1.02-1.148,2.775,2.775,0,0,1,1.491-.4,2.674,2.674,0,0,1,2.095.9,3.449,3.449,0,0,1,.8,2.385V-3.1a3.777,3.777,0,0,1-.354,1.661A2.692,2.692,0,0,1,22.966-.293a2.807,2.807,0,0,1-1.515.41,2.667,2.667,0,0,1-2.089-.9,3.432,3.432,0,0,1-.8-2.373Zm1.09.129a2.712,2.712,0,0,0,.489,1.693,1.566,1.566,0,0,0,1.31.639,1.556,1.556,0,0,0,1.313-.647,2.966,2.966,0,0,0,.486-1.813,2.708,2.708,0,0,0-.5-1.69,1.574,1.574,0,0,0-1.315-.647,1.557,1.557,0,0,0-1.295.639A2.944,2.944,0,0,0,19.652-3.1Zm7.066-3.24.035.8a2.31,2.31,0,0,1,1.9-.914q2.01,0,2.027,2.268V0H29.6V-4.2a1.459,1.459,0,0,0-.313-1.014,1.256,1.256,0,0,0-.958-.328,1.564,1.564,0,0,0-.926.281,1.91,1.91,0,0,0-.621.738V0H25.693V-6.34ZM-20.493,14V5.469H-17.7a3.238,3.238,0,0,1,2.089.574,2.07,2.07,0,0,1,.7,1.7,1.733,1.733,0,0,1-.34,1.058,2.2,2.2,0,0,1-.926.712,1.979,1.979,0,0,1,1.093.735,2.11,2.11,0,0,1,.4,1.292,2.282,2.282,0,0,1-.744,1.8,3.077,3.077,0,0,1-2.1.656Zm1.125-3.99v3.07h1.857a1.788,1.788,0,0,0,1.239-.407,1.43,1.43,0,0,0,.454-1.122q0-1.541-1.676-1.541Zm0-.9h1.7a1.781,1.781,0,0,0,1.181-.37,1.24,1.24,0,0,0,.442-1,1.22,1.22,0,0,0-.41-1.025,2.014,2.014,0,0,0-1.248-.32h-1.664ZM-9.278,14a2.277,2.277,0,0,1-.152-.668,2.419,2.419,0,0,1-1.8.785,2.238,2.238,0,0,1-1.538-.53,1.716,1.716,0,0,1-.6-1.345,1.792,1.792,0,0,1,.753-1.538,3.55,3.55,0,0,1,2.118-.548h1.055v-.5a1.217,1.217,0,0,0-.34-.905,1.366,1.366,0,0,0-1-.337,1.581,1.581,0,0,0-.973.293.863.863,0,0,0-.393.709h-1.09a1.5,1.5,0,0,1,.337-.917,2.3,2.3,0,0,1,.914-.7,3.075,3.075,0,0,1,1.269-.258,2.506,2.506,0,0,1,1.717.548A1.976,1.976,0,0,1-8.364,9.6v2.918a3.567,3.567,0,0,0,.223,1.389V14Zm-1.8-.826a1.905,1.905,0,0,0,.967-.264,1.6,1.6,0,0,0,.662-.686v-1.3h-.85q-1.992,0-1.992,1.166a.987.987,0,0,0,.34.8A1.306,1.306,0,0,0-11.077,13.174ZM-5.64,7.66l.035.8a2.31,2.31,0,0,1,1.9-.914q2.01,0,2.027,2.268V14H-2.763V9.8a1.459,1.459,0,0,0-.313-1.014,1.256,1.256,0,0,0-.958-.328,1.564,1.564,0,0,0-.926.281,1.91,1.91,0,0,0-.621.738V14H-6.665V7.66Zm7.365,3.4-.68.709V14H-.038V5H1.046v5.443l.58-.7L3.6,7.66H4.919L2.452,10.309,5.206,14H3.935ZM7.216,14H6.132V7.66H7.216ZM6.044,5.979a.647.647,0,0,1,.161-.445.6.6,0,0,1,.478-.182.614.614,0,0,1,.48.182.64.64,0,0,1,.164.445.619.619,0,0,1-.164.439.626.626,0,0,1-.48.176.616.616,0,0,1-.478-.176A.626.626,0,0,1,6.044,5.979ZM9.976,7.66l.035.8a2.31,2.31,0,0,1,1.9-.914q2.01,0,2.027,2.268V14H12.853V9.8a1.459,1.459,0,0,0-.313-1.014,1.256,1.256,0,0,0-.958-.328,1.564,1.564,0,0,0-.926.281,1.91,1.91,0,0,0-.621.738V14H8.95V7.66Zm5.338,3.117A3.726,3.726,0,0,1,16,8.419a2.363,2.363,0,0,1,3.627-.056l.053-.7h.99v6.188a2.579,2.579,0,0,1-.729,1.939,2.692,2.692,0,0,1-1.96.709,3.261,3.261,0,0,1-1.342-.293,2.31,2.31,0,0,1-1-.8l.563-.65a2.12,2.12,0,0,0,1.705.861,1.661,1.661,0,0,0,1.233-.445,1.7,1.7,0,0,0,.442-1.254v-.545a2.228,2.228,0,0,1-1.775.75,2.166,2.166,0,0,1-1.8-.9A3.918,3.918,0,0,1,15.313,10.777Zm1.09.123a2.843,2.843,0,0,0,.439,1.685,1.428,1.428,0,0,0,1.23.612,1.588,1.588,0,0,0,1.506-.932V9.371a1.606,1.606,0,0,0-1.494-.908,1.441,1.441,0,0,0-1.236.615A3.1,3.1,0,0,0,16.4,10.9Z" transform="translate(1101.634 436.882)" fill="#0c2339"/>
    <path id="Path_1001" data-name="Path 1001" d="M-.855-6.3a1.981,1.981,0,0,1-.337,1.137,2.292,2.292,0,0,1-.911.779,2.445,2.445,0,0,1,1.058.838A2.108,2.108,0,0,1-.656-2.3,2.229,2.229,0,0,1-1.4-.539,2.87,2.87,0,0,1-3.369.117,2.857,2.857,0,0,1-5.341-.542,2.24,2.24,0,0,1-6.082-2.3,2.171,2.171,0,0,1-5.7-3.551a2.352,2.352,0,0,1,1.046-.844,2.236,2.236,0,0,1-.9-.779A2.009,2.009,0,0,1-5.883-6.3a2.205,2.205,0,0,1,.691-1.711,2.594,2.594,0,0,1,1.822-.633,2.6,2.6,0,0,1,1.819.633A2.2,2.2,0,0,1-.855-6.3ZM-1.74-2.326a1.572,1.572,0,0,0-.454-1.166,1.61,1.61,0,0,0-1.187-.451A1.582,1.582,0,0,0-4.556-3.5,1.59,1.59,0,0,0-5-2.326a1.514,1.514,0,0,0,.431,1.143,1.653,1.653,0,0,0,1.2.416,1.648,1.648,0,0,0,1.2-.419A1.511,1.511,0,0,0-1.74-2.326ZM-3.369-7.758a1.4,1.4,0,0,0-1.034.4,1.453,1.453,0,0,0-.4,1.075,1.446,1.446,0,0,0,.39,1.052,1.383,1.383,0,0,0,1.04.4,1.383,1.383,0,0,0,1.04-.4,1.446,1.446,0,0,0,.39-1.052,1.446,1.446,0,0,0-.4-1.061A1.379,1.379,0,0,0-3.369-7.758ZM5.883-6.3a1.981,1.981,0,0,1-.337,1.137,2.292,2.292,0,0,1-.911.779,2.445,2.445,0,0,1,1.058.838A2.108,2.108,0,0,1,6.082-2.3,2.229,2.229,0,0,1,5.335-.539,2.87,2.87,0,0,1,3.369.117,2.857,2.857,0,0,1,1.4-.542,2.24,2.24,0,0,1,.656-2.3a2.171,2.171,0,0,1,.378-1.248A2.352,2.352,0,0,1,2.08-4.395a2.236,2.236,0,0,1-.9-.779A2.009,2.009,0,0,1,.855-6.3a2.205,2.205,0,0,1,.691-1.711,2.594,2.594,0,0,1,1.822-.633,2.6,2.6,0,0,1,1.819.633A2.2,2.2,0,0,1,5.883-6.3ZM5-2.326a1.572,1.572,0,0,0-.454-1.166,1.61,1.61,0,0,0-1.187-.451A1.582,1.582,0,0,0,2.183-3.5,1.59,1.59,0,0,0,1.74-2.326a1.514,1.514,0,0,0,.431,1.143,1.653,1.653,0,0,0,1.2.416,1.648,1.648,0,0,0,1.2-.419A1.511,1.511,0,0,0,5-2.326ZM3.369-7.758a1.4,1.4,0,0,0-1.034.4,1.453,1.453,0,0,0-.4,1.075,1.446,1.446,0,0,0,.39,1.052,1.383,1.383,0,0,0,1.04.4,1.383,1.383,0,0,0,1.04-.4A1.446,1.446,0,0,0,4.8-6.287a1.446,1.446,0,0,0-.4-1.061A1.379,1.379,0,0,0,3.369-7.758Z" transform="translate(1105.634 401.882)" fill="#a1a1a1"/>
    <path id="Path_998" data-name="Path 998" d="M-1.875-3.75a2.652,2.652,0,0,1-.812.65,2.2,2.2,0,0,1-1.034.246,2.273,2.273,0,0,1-1.286-.363,2.362,2.362,0,0,1-.847-1.022,3.486,3.486,0,0,1-.3-1.456,3.551,3.551,0,0,1,.325-1.541A2.389,2.389,0,0,1-4.9-8.285,2.632,2.632,0,0,1-3.51-8.648a2.382,2.382,0,0,1,2,.946A4.128,4.128,0,0,1-.785-5.121V-4.8A5.515,5.515,0,0,1-1.77-1.169,3.782,3.782,0,0,1-4.74.006h-.211v-.92h.229a2.984,2.984,0,0,0,2.063-.7A3,3,0,0,0-1.875-3.75Zm-1.67,0a1.674,1.674,0,0,0,1-.334,1.969,1.969,0,0,0,.671-.826v-.434a2.983,2.983,0,0,0-.463-1.734A1.381,1.381,0,0,0-3.5-7.746,1.392,1.392,0,0,0-4.652-7.2a2.26,2.26,0,0,0-.434,1.444,2.352,2.352,0,0,0,.419,1.438A1.326,1.326,0,0,0-3.545-3.75Zm8.83.885H6.469v.885H5.285V0H4.2V-1.98H.311v-.639l3.82-5.912H5.285Zm-3.744,0H4.2V-7.049l-.129.234Z" transform="translate(945.634 401.882)" fill="#a1a1a1"/>
    <path id="Path_986" data-name="Path 986" d="M-19.588-2.232h-3.574L-23.965,0h-1.16l3.258-8.531h.984L-17.619,0h-1.154Zm-3.234-.92h2.9l-1.453-3.99ZM-14.1-.768a1.561,1.561,0,0,0,1.014-.352A1.237,1.237,0,0,0-12.6-2h1.025a1.966,1.966,0,0,1-.375,1.037,2.47,2.47,0,0,1-.923.785A2.663,2.663,0,0,1-14.1.117a2.612,2.612,0,0,1-2.06-.864,3.442,3.442,0,0,1-.765-2.364v-.182a3.817,3.817,0,0,1,.34-1.646,2.588,2.588,0,0,1,.976-1.119,2.771,2.771,0,0,1,1.5-.4,2.543,2.543,0,0,1,1.772.639,2.283,2.283,0,0,1,.753,1.658H-12.6a1.494,1.494,0,0,0-.466-1.011,1.449,1.449,0,0,0-1.034-.4,1.517,1.517,0,0,0-1.28.595,2.793,2.793,0,0,0-.454,1.72v.205a2.737,2.737,0,0,0,.451,1.688A1.524,1.524,0,0,0-14.1-.768Zm6.281,0A1.561,1.561,0,0,0-6.8-1.119,1.237,1.237,0,0,0-6.322-2H-5.3A1.966,1.966,0,0,1-5.672-.961a2.47,2.47,0,0,1-.923.785A2.663,2.663,0,0,1-7.816.117a2.612,2.612,0,0,1-2.06-.864,3.442,3.442,0,0,1-.765-2.364v-.182a3.817,3.817,0,0,1,.34-1.646,2.588,2.588,0,0,1,.976-1.119,2.771,2.771,0,0,1,1.5-.4,2.543,2.543,0,0,1,1.772.639A2.283,2.283,0,0,1-5.3-4.16H-6.322a1.494,1.494,0,0,0-.466-1.011,1.449,1.449,0,0,0-1.034-.4,1.517,1.517,0,0,0-1.28.595,2.793,2.793,0,0,0-.454,1.72v.205a2.737,2.737,0,0,0,.451,1.688A1.524,1.524,0,0,0-7.816-.768Zm3.451-2.461A3.745,3.745,0,0,1-4-4.9a2.732,2.732,0,0,1,1.02-1.148,2.775,2.775,0,0,1,1.491-.4,2.674,2.674,0,0,1,2.095.9,3.449,3.449,0,0,1,.8,2.385V-3.1a3.777,3.777,0,0,1-.354,1.661A2.692,2.692,0,0,1,.038-.293a2.807,2.807,0,0,1-1.515.41,2.667,2.667,0,0,1-2.089-.9,3.432,3.432,0,0,1-.8-2.373Zm1.09.129a2.712,2.712,0,0,0,.489,1.693,1.566,1.566,0,0,0,1.31.639A1.556,1.556,0,0,0-.164-1.415,2.966,2.966,0,0,0,.322-3.229a2.708,2.708,0,0,0-.5-1.69,1.574,1.574,0,0,0-1.315-.647,1.557,1.557,0,0,0-1.295.639A2.944,2.944,0,0,0-3.275-3.1ZM6.68-.627A2.3,2.3,0,0,1,4.822.117,1.971,1.971,0,0,1,3.278-.472a2.549,2.549,0,0,1-.536-1.743V-6.34H3.826v4.1Q3.826-.8,5-.8A1.623,1.623,0,0,0,6.65-1.729V-6.34H7.734V0H6.7ZM10.406-6.34l.035.8a2.31,2.31,0,0,1,1.9-.914q2.01,0,2.027,2.268V0H13.283V-4.2a1.459,1.459,0,0,0-.313-1.014,1.256,1.256,0,0,0-.958-.328,1.564,1.564,0,0,0-.926.281,1.91,1.91,0,0,0-.621.738V0H9.381V-6.34Zm7.066-1.535V-6.34h1.184V-5.5H17.473v3.937a.88.88,0,0,0,.158.572A.666.666,0,0,0,18.17-.8a2.624,2.624,0,0,0,.516-.07V0a3.161,3.161,0,0,1-.832.116,1.35,1.35,0,0,1-1.1-.439,1.888,1.888,0,0,1-.369-1.248V-5.5H15.234V-6.34h1.154V-7.875Zm6.141,6.193a.8.8,0,0,0-.331-.683,3.187,3.187,0,0,0-1.154-.419,5.457,5.457,0,0,1-1.307-.422,1.859,1.859,0,0,1-.715-.586,1.4,1.4,0,0,1-.231-.809,1.645,1.645,0,0,1,.659-1.318,2.574,2.574,0,0,1,1.685-.539,2.649,2.649,0,0,1,1.749.557,1.768,1.768,0,0,1,.671,1.424h-1.09a.979.979,0,0,0-.378-.768,1.416,1.416,0,0,0-.952-.322,1.482,1.482,0,0,0-.926.258.812.812,0,0,0-.334.674.658.658,0,0,0,.311.592,3.821,3.821,0,0,0,1.122.381,5.847,5.847,0,0,1,1.315.434,1.919,1.919,0,0,1,.747.606,1.491,1.491,0,0,1,.243.864A1.623,1.623,0,0,1,24.018-.4a2.851,2.851,0,0,1-1.764.513,3.193,3.193,0,0,1-1.348-.27,2.192,2.192,0,0,1-.917-.753,1.815,1.815,0,0,1-.331-1.046h1.084a1.122,1.122,0,0,0,.437.864,1.693,1.693,0,0,0,1.075.319,1.748,1.748,0,0,0,.987-.249A.765.765,0,0,0,23.613-1.682ZM-14.47,10.9a3.8,3.8,0,0,1-.662,2.332,2.122,2.122,0,0,1-1.793.885,2.325,2.325,0,0,1-1.816-.732v3.053h-1.084V7.66h.99l.053.7a2.233,2.233,0,0,1,1.84-.82,2.162,2.162,0,0,1,1.808.861,3.838,3.838,0,0,1,.665,2.4Zm-1.084-.123a2.8,2.8,0,0,0-.457-1.693,1.472,1.472,0,0,0-1.254-.621,1.593,1.593,0,0,0-1.477.873v3.029a1.6,1.6,0,0,0,1.488.867,1.465,1.465,0,0,0,1.239-.618A3.058,3.058,0,0,0-15.554,10.777ZM-9.179,14a2.277,2.277,0,0,1-.152-.668,2.419,2.419,0,0,1-1.8.785,2.238,2.238,0,0,1-1.538-.53,1.716,1.716,0,0,1-.6-1.345,1.792,1.792,0,0,1,.753-1.538,3.55,3.55,0,0,1,2.118-.548h1.055v-.5a1.217,1.217,0,0,0-.34-.905,1.366,1.366,0,0,0-1-.337,1.581,1.581,0,0,0-.973.293.863.863,0,0,0-.393.709h-1.09a1.5,1.5,0,0,1,.337-.917,2.3,2.3,0,0,1,.914-.7,3.075,3.075,0,0,1,1.269-.258,2.506,2.506,0,0,1,1.717.548A1.976,1.976,0,0,1-8.265,9.6v2.918a3.567,3.567,0,0,0,.223,1.389V14Zm-1.8-.826a1.905,1.905,0,0,0,.967-.264,1.6,1.6,0,0,0,.662-.686v-1.3h-.85q-1.992,0-1.992,1.166a.987.987,0,0,0,.34.8A1.306,1.306,0,0,0-10.978,13.174Zm6.4-.762L-3.1,7.66h1.16l-2.549,7.318q-.592,1.582-1.881,1.582l-.205-.018-.4-.076v-.879l.293.023a1.442,1.442,0,0,0,.858-.223,1.611,1.611,0,0,0,.507-.814l.24-.645L-7.345,7.66h1.184ZM2.851,14a2.277,2.277,0,0,1-.152-.668,2.419,2.419,0,0,1-1.8.785,2.238,2.238,0,0,1-1.538-.53,1.716,1.716,0,0,1-.6-1.345A1.792,1.792,0,0,1-.492,10.7a3.55,3.55,0,0,1,2.118-.548H2.681v-.5a1.217,1.217,0,0,0-.34-.905,1.366,1.366,0,0,0-1-.337,1.581,1.581,0,0,0-.973.293.863.863,0,0,0-.393.709h-1.09A1.5,1.5,0,0,1-.779,8.5a2.3,2.3,0,0,1,.914-.7A3.075,3.075,0,0,1,1.4,7.543a2.506,2.506,0,0,1,1.717.548A1.976,1.976,0,0,1,3.765,9.6v2.918a3.567,3.567,0,0,0,.223,1.389V14Zm-1.8-.826a1.905,1.905,0,0,0,.967-.264,1.6,1.6,0,0,0,.662-.686v-1.3h-.85q-1.992,0-1.992,1.166a.987.987,0,0,0,.34.8A1.306,1.306,0,0,0,1.052,13.174ZM10.831,10.9a3.77,3.77,0,0,1-.668,2.335,2.134,2.134,0,0,1-1.793.882,2.21,2.21,0,0,1-1.857-.85L6.46,14h-1V5H6.548V8.357a2.2,2.2,0,0,1,1.811-.814,2.147,2.147,0,0,1,1.813.873,3.883,3.883,0,0,1,.659,2.391Zm-1.084-.123a2.929,2.929,0,0,0-.428-1.711,1.416,1.416,0,0,0-1.23-.6,1.591,1.591,0,0,0-1.541,1V12.2a1.636,1.636,0,0,0,1.553,1,1.408,1.408,0,0,0,1.213-.6A3.115,3.115,0,0,0,9.747,10.777ZM13.374,14H12.29V5h1.084Zm4.365.117a2.77,2.77,0,0,1-2.1-.847,3.142,3.142,0,0,1-.809-2.265v-.2a3.8,3.8,0,0,1,.36-1.685A2.811,2.811,0,0,1,16.2,7.962a2.534,2.534,0,0,1,1.4-.419,2.374,2.374,0,0,1,1.922.814,3.526,3.526,0,0,1,.686,2.332v.451H15.917a2.254,2.254,0,0,0,.548,1.515,1.722,1.722,0,0,0,1.333.577A1.888,1.888,0,0,0,18.771,13a2.444,2.444,0,0,0,.7-.621l.662.516A2.662,2.662,0,0,1,17.739,14.117ZM17.6,8.434a1.446,1.446,0,0,0-1.1.478,2.321,2.321,0,0,0-.551,1.339h3.176v-.082a2.065,2.065,0,0,0-.445-1.28A1.361,1.361,0,0,0,17.6,8.434Z" transform="translate(364.239 438)" fill="#0c2339"/>
    <path id="Path_987" data-name="Path 987" d="M-18.873,0V-8.531h2.408a3.877,3.877,0,0,1,1.969.492,3.329,3.329,0,0,1,1.321,1.4A4.558,4.558,0,0,1-12.7-4.553v.545a4.574,4.574,0,0,1-.466,2.115A3.277,3.277,0,0,1-14.5-.5a4.124,4.124,0,0,1-2.013.5Zm1.125-7.611V-.92h1.184a2.575,2.575,0,0,0,2.024-.809,3.344,3.344,0,0,0,.724-2.3v-.5A3.4,3.4,0,0,0-14.5-6.793a2.429,2.429,0,0,0-1.937-.818Zm9.873,4.16h-2V0H-11.01V-8.531h2.824a3.343,3.343,0,0,1,2.218.656,2.361,2.361,0,0,1,.776,1.91,2.3,2.3,0,0,1-.431,1.389,2.571,2.571,0,0,1-1.2.885l2,3.621V0H-6.023Zm-2-.92H-8.15a1.95,1.95,0,0,0,1.333-.434,1.469,1.469,0,0,0,.5-1.162,1.547,1.547,0,0,0-.472-1.215,2,2,0,0,0-1.362-.429H-9.879Zm8.584.123L.932-8.531H2.209L-.732-3.182V0H-1.857V-3.182L-4.8-8.531H-3.51ZM4.318,0H3.234V-6.34H4.318ZM3.146-8.021a.647.647,0,0,1,.161-.445.6.6,0,0,1,.478-.182.614.614,0,0,1,.48.182.64.64,0,0,1,.164.445.619.619,0,0,1-.164.439.626.626,0,0,1-.48.176.616.616,0,0,1-.478-.176A.626.626,0,0,1,3.146-8.021ZM12.5-2.707a3.139,3.139,0,0,1-1,2.089A3.274,3.274,0,0,1,9.264.117,3.006,3.006,0,0,1,6.841-.967a4.361,4.361,0,0,1-.911-2.9v-.82a4.861,4.861,0,0,1,.425-2.092,3.173,3.173,0,0,1,1.2-1.386,3.353,3.353,0,0,1,1.8-.483,3.083,3.083,0,0,1,2.18.759,3.176,3.176,0,0,1,.955,2.1H11.367a2.451,2.451,0,0,0-.636-1.481,1.924,1.924,0,0,0-1.368-.458,2.013,2.013,0,0,0-1.69.8,3.661,3.661,0,0,0-.612,2.269v.827a3.764,3.764,0,0,0,.58,2.211A1.874,1.874,0,0,0,9.264-.8,2.165,2.165,0,0,0,10.7-1.228a2.357,2.357,0,0,0,.665-1.479Zm6.357-1.236h-3.7V-.92h4.295V0h-5.42V-8.531h5.361v.92H15.158v2.748h3.7Z" transform="translate(524.239 438)" fill="#0c2339"/>
    <path id="Path_992" data-name="Path 992" d="M-24.393-3.451h-2V0h-1.131V-8.531H-24.7a3.343,3.343,0,0,1,2.218.656,2.361,2.361,0,0,1,.776,1.91,2.3,2.3,0,0,1-.431,1.389,2.571,2.571,0,0,1-1.2.885l2,3.621V0h-1.207Zm-2-.92h1.729a1.95,1.95,0,0,0,1.333-.434,1.469,1.469,0,0,0,.5-1.162,1.547,1.547,0,0,0-.472-1.215,2,2,0,0,0-1.362-.429H-26.4ZM-17.672.117a2.77,2.77,0,0,1-2.1-.847,3.142,3.142,0,0,1-.809-2.265v-.2a3.8,3.8,0,0,1,.36-1.685,2.811,2.811,0,0,1,1.008-1.16,2.534,2.534,0,0,1,1.4-.419,2.374,2.374,0,0,1,1.922.814A3.526,3.526,0,0,1-15.2-3.311v.451h-4.295a2.254,2.254,0,0,0,.548,1.515,1.722,1.722,0,0,0,1.333.577A1.888,1.888,0,0,0-16.641-1a2.444,2.444,0,0,0,.7-.621l.662.516A2.662,2.662,0,0,1-17.672.117Zm-.135-5.684a1.446,1.446,0,0,0-1.1.478,2.321,2.321,0,0,0-.551,1.339h3.176v-.082a2.065,2.065,0,0,0-.445-1.28A1.361,1.361,0,0,0-17.807-5.566Zm3.6,2.344a3.726,3.726,0,0,1,.686-2.358A2.192,2.192,0,0,1-11.7-6.457a2.181,2.181,0,0,1,1.811.82l.053-.7h.99V-.152a2.579,2.579,0,0,1-.729,1.939,2.692,2.692,0,0,1-1.96.709A3.261,3.261,0,0,1-12.879,2.2a2.31,2.31,0,0,1-1-.8l.563-.65a2.12,2.12,0,0,0,1.705.861,1.661,1.661,0,0,0,1.233-.445A1.7,1.7,0,0,0-9.937-.088V-.633a2.228,2.228,0,0,1-1.775.75,2.166,2.166,0,0,1-1.8-.9A3.918,3.918,0,0,1-14.2-3.223Zm1.09.123a2.843,2.843,0,0,0,.439,1.685,1.428,1.428,0,0,0,1.23.612,1.588,1.588,0,0,0,1.506-.932V-4.629a1.606,1.606,0,0,0-1.494-.908,1.441,1.441,0,0,0-1.236.615A3.1,3.1,0,0,0-13.113-3.1ZM-3.3-.627A2.3,2.3,0,0,1-5.156.117,1.971,1.971,0,0,1-6.7-.472a2.549,2.549,0,0,1-.536-1.743V-6.34h1.084v4.1Q-6.152-.8-4.98-.8a1.623,1.623,0,0,0,1.652-.926V-6.34h1.084V0H-3.275ZM.58,0H-.5V-9H.58ZM6.229,0a2.277,2.277,0,0,1-.152-.668,2.419,2.419,0,0,1-1.8.785,2.238,2.238,0,0,1-1.538-.53,1.716,1.716,0,0,1-.6-1.345A1.792,1.792,0,0,1,2.886-3.3,3.55,3.55,0,0,1,5-3.844H6.059v-.5a1.217,1.217,0,0,0-.34-.905,1.366,1.366,0,0,0-1-.337,1.581,1.581,0,0,0-.973.293.863.863,0,0,0-.393.709H2.262A1.5,1.5,0,0,1,2.6-5.5a2.3,2.3,0,0,1,.914-.7,3.075,3.075,0,0,1,1.269-.258A2.506,2.506,0,0,1,6.5-5.909,1.976,1.976,0,0,1,7.143-4.4v2.918A3.567,3.567,0,0,0,7.365-.094V0ZM4.43-.826A1.905,1.905,0,0,0,5.4-1.09a1.6,1.6,0,0,0,.662-.686v-1.3h-.85q-1.992,0-1.992,1.166a.987.987,0,0,0,.34.8A1.306,1.306,0,0,0,4.43-.826Zm5.883-7.049V-6.34H11.5V-5.5H10.313v3.937a.88.88,0,0,0,.158.572A.666.666,0,0,0,11.01-.8a2.624,2.624,0,0,0,.516-.07V0a3.161,3.161,0,0,1-.832.116A1.35,1.35,0,0,1,9.6-.322,1.888,1.888,0,0,1,9.229-1.57V-5.5H8.074V-6.34H9.229V-7.875Zm2.045,4.646A3.745,3.745,0,0,1,12.724-4.9a2.732,2.732,0,0,1,1.02-1.148,2.775,2.775,0,0,1,1.491-.4,2.674,2.674,0,0,1,2.095.9,3.449,3.449,0,0,1,.8,2.385V-3.1a3.777,3.777,0,0,1-.354,1.661A2.692,2.692,0,0,1,16.761-.293a2.807,2.807,0,0,1-1.515.41,2.667,2.667,0,0,1-2.089-.9,3.432,3.432,0,0,1-.8-2.373Zm1.09.129a2.712,2.712,0,0,0,.489,1.693,1.566,1.566,0,0,0,1.31.639,1.556,1.556,0,0,0,1.313-.647,2.966,2.966,0,0,0,.486-1.813,2.708,2.708,0,0,0-.5-1.69,1.574,1.574,0,0,0-1.315-.647,1.557,1.557,0,0,0-1.295.639A2.944,2.944,0,0,0,13.447-3.1Zm9.105-2.268a3.248,3.248,0,0,0-.533-.041,1.428,1.428,0,0,0-1.447.908V0H19.488V-6.34h1.055l.018.732a1.688,1.688,0,0,1,1.512-.85,1.107,1.107,0,0,1,.48.082Zm3.176,3.779L27.205-6.34h1.16L25.816.979q-.592,1.582-1.881,1.582l-.205-.018-.4-.076V1.588l.293.023a1.442,1.442,0,0,0,.858-.223,1.611,1.611,0,0,0,.507-.814l.24-.645L22.963-6.34h1.184ZM-8.013,10.01A5.277,5.277,0,0,1-8.435,12.2a3.2,3.2,0,0,1-1.2,1.427,3.289,3.289,0,0,1-1.8.492,3.261,3.261,0,0,1-1.787-.5,3.272,3.272,0,0,1-1.21-1.412,5.064,5.064,0,0,1-.442-2.124V9.471A5.215,5.215,0,0,1-14.446,7.3a3.26,3.26,0,0,1,1.21-1.444,3.247,3.247,0,0,1,1.79-.5,3.307,3.307,0,0,1,1.808.5,3.19,3.19,0,0,1,1.2,1.436,5.3,5.3,0,0,1,.422,2.188Zm-1.119-.551A3.825,3.825,0,0,0-9.741,7.13a2.01,2.01,0,0,0-1.705-.812,1.988,1.988,0,0,0-1.679.812,3.747,3.747,0,0,0-.63,2.253v.627a3.831,3.831,0,0,0,.618,2.312,2,2,0,0,0,1.7.841,1.989,1.989,0,0,0,1.688-.794,3.809,3.809,0,0,0,.615-2.276ZM-5.962,14V8.5h-1V7.66h1V7.01a2.159,2.159,0,0,1,.545-1.576,2.058,2.058,0,0,1,1.541-.557,2.862,2.862,0,0,1,.744.1l-.059.874A3.113,3.113,0,0,0-3.776,5.8a1.058,1.058,0,0,0-.814.309,1.252,1.252,0,0,0-.287.885v.67h2.344V7.121a2.2,2.2,0,0,1,.606-1.652A2.352,2.352,0,0,1-.214,4.877a5.187,5.187,0,0,1,1.658.355l-.182.91a3.769,3.769,0,0,0-1.4-.293,1.37,1.37,0,0,0-1,.312,1.3,1.3,0,0,0-.308.946V7.66h1.3V8.5h-1.3V14H-2.534V8.5H-4.878V14Zm7.939,0H.894V7.66H1.978Zm4.313-.768A1.561,1.561,0,0,0,7.3,12.881,1.237,1.237,0,0,0,7.784,12H8.81a1.966,1.966,0,0,1-.375,1.037,2.47,2.47,0,0,1-.923.785,2.663,2.663,0,0,1-1.222.293,2.612,2.612,0,0,1-2.06-.864,3.442,3.442,0,0,1-.765-2.364v-.182a3.817,3.817,0,0,1,.34-1.646,2.588,2.588,0,0,1,.976-1.119,2.771,2.771,0,0,1,1.5-.4,2.543,2.543,0,0,1,1.772.639A2.283,2.283,0,0,1,8.81,9.84H7.784a1.494,1.494,0,0,0-.466-1.011,1.449,1.449,0,0,0-1.034-.4A1.517,1.517,0,0,0,5,9.028a2.793,2.793,0,0,0-.454,1.72v.205A2.737,2.737,0,0,0,5,12.641,1.524,1.524,0,0,0,6.29,13.232Zm6.369.885a2.77,2.77,0,0,1-2.1-.847,3.142,3.142,0,0,1-.809-2.265v-.2a3.8,3.8,0,0,1,.36-1.685,2.811,2.811,0,0,1,1.008-1.16,2.534,2.534,0,0,1,1.4-.419,2.374,2.374,0,0,1,1.922.814,3.526,3.526,0,0,1,.686,2.332v.451H10.837a2.254,2.254,0,0,0,.548,1.515,1.722,1.722,0,0,0,1.333.577A1.888,1.888,0,0,0,13.69,13a2.444,2.444,0,0,0,.7-.621l.662.516A2.662,2.662,0,0,1,12.659,14.117Zm-.135-5.684a1.446,1.446,0,0,0-1.1.478,2.321,2.321,0,0,0-.551,1.339h3.176v-.082a2.065,2.065,0,0,0-.445-1.28A1.361,1.361,0,0,0,12.524,8.434Z" transform="translate(809.206 436.882)" fill="#0c2339"/>
    <path id="Path_988" data-name="Path 988" d="M4.863-3.75a2.652,2.652,0,0,1-.812.65,2.2,2.2,0,0,1-1.034.246,2.273,2.273,0,0,1-1.286-.363A2.362,2.362,0,0,1,.885-4.239,3.486,3.486,0,0,1,.586-5.7,3.551,3.551,0,0,1,.911-7.236a2.389,2.389,0,0,1,.923-1.049,2.632,2.632,0,0,1,1.395-.363,2.382,2.382,0,0,1,2,.946,4.128,4.128,0,0,1,.729,2.581V-4.8a5.515,5.515,0,0,1-.984,3.636A3.782,3.782,0,0,1,2,.006H1.787v-.92h.229a2.984,2.984,0,0,0,2.063-.7A3,3,0,0,0,4.863-3.75Zm-1.67,0a1.674,1.674,0,0,0,1-.334,1.969,1.969,0,0,0,.671-.826v-.434a2.983,2.983,0,0,0-.463-1.734,1.381,1.381,0,0,0-1.172-.668A1.392,1.392,0,0,0,2.086-7.2a2.26,2.26,0,0,0-.434,1.444,2.352,2.352,0,0,0,.419,1.438A1.326,1.326,0,0,0,3.193-3.75ZM11.7-8.537v.92h-.2a2.854,2.854,0,0,0-2.016.75,3.121,3.121,0,0,0-.867,2.045,2.314,2.314,0,0,1,1.84-.773,2.212,2.212,0,0,1,1.778.785A3.028,3.028,0,0,1,12.9-2.783a3.019,3.019,0,0,1-.718,2.109A2.472,2.472,0,0,1,10.26.117a2.435,2.435,0,0,1-1.986-.94,3.727,3.727,0,0,1-.762-2.423v-.416a5.616,5.616,0,0,1,1-3.6,3.691,3.691,0,0,1,2.991-1.274ZM10.277-4.693a1.729,1.729,0,0,0-1.025.334,1.74,1.74,0,0,0-.65.838v.4a2.8,2.8,0,0,0,.475,1.7,1.422,1.422,0,0,0,1.184.645,1.378,1.378,0,0,0,1.151-.539A2.237,2.237,0,0,0,11.83-2.73a2.238,2.238,0,0,0-.425-1.421A1.362,1.362,0,0,0,10.277-4.693Z" transform="translate(675.67 401.882)" fill="#a1a1a1"/>
    <path id="Path_989" data-name="Path 989" d="M5.883-6.3a1.981,1.981,0,0,1-.337,1.137,2.292,2.292,0,0,1-.911.779,2.445,2.445,0,0,1,1.058.838A2.108,2.108,0,0,1,6.082-2.3,2.229,2.229,0,0,1,5.335-.539,2.87,2.87,0,0,1,3.369.117,2.857,2.857,0,0,1,1.4-.542,2.24,2.24,0,0,1,.656-2.3a2.171,2.171,0,0,1,.378-1.248A2.352,2.352,0,0,1,2.08-4.395a2.236,2.236,0,0,1-.9-.779A2.009,2.009,0,0,1,.855-6.3a2.205,2.205,0,0,1,.691-1.711,2.594,2.594,0,0,1,1.822-.633,2.6,2.6,0,0,1,1.819.633A2.2,2.2,0,0,1,5.883-6.3ZM5-2.326a1.572,1.572,0,0,0-.454-1.166,1.61,1.61,0,0,0-1.187-.451A1.582,1.582,0,0,0,2.183-3.5,1.59,1.59,0,0,0,1.74-2.326a1.514,1.514,0,0,0,.431,1.143,1.653,1.653,0,0,0,1.2.416,1.648,1.648,0,0,0,1.2-.419A1.511,1.511,0,0,0,5-2.326ZM3.369-7.758a1.4,1.4,0,0,0-1.034.4,1.453,1.453,0,0,0-.4,1.075,1.446,1.446,0,0,0,.39,1.052,1.383,1.383,0,0,0,1.04.4,1.383,1.383,0,0,0,1.04-.4A1.446,1.446,0,0,0,4.8-6.287a1.446,1.446,0,0,0-.4-1.061A1.379,1.379,0,0,0,3.369-7.758ZM11.7-8.537v.92h-.2a2.854,2.854,0,0,0-2.016.75,3.121,3.121,0,0,0-.867,2.045,2.314,2.314,0,0,1,1.84-.773,2.212,2.212,0,0,1,1.778.785A3.028,3.028,0,0,1,12.9-2.783a3.019,3.019,0,0,1-.718,2.109A2.472,2.472,0,0,1,10.26.117a2.435,2.435,0,0,1-1.986-.94,3.727,3.727,0,0,1-.762-2.423v-.416a5.616,5.616,0,0,1,1-3.6,3.691,3.691,0,0,1,2.991-1.274ZM10.277-4.693a1.729,1.729,0,0,0-1.025.334,1.74,1.74,0,0,0-.65.838v.4a2.8,2.8,0,0,0,.475,1.7,1.422,1.422,0,0,0,1.184.645,1.378,1.378,0,0,0,1.151-.539A2.237,2.237,0,0,0,11.83-2.73a2.238,2.238,0,0,0-.425-1.421A1.362,1.362,0,0,0,10.277-4.693Z" transform="translate(358.67 401.882)" fill="#a1a1a1"/>
    <path id="Path_990" data-name="Path 990" d="M3.076-3.182H.217v-.885H3.076Z" transform="translate(522.67 401.882)" fill="#a1a1a1"/>
    <path id="Path_994" data-name="Path 994" d="M4.963-8.537v.92h-.2a2.854,2.854,0,0,0-2.016.75,3.121,3.121,0,0,0-.867,2.045A2.314,2.314,0,0,1,3.721-5.6,2.212,2.212,0,0,1,5.5-4.811a3.028,3.028,0,0,1,.665,2.027A3.019,3.019,0,0,1,5.446-.674,2.472,2.472,0,0,1,3.521.117a2.435,2.435,0,0,1-1.986-.94A3.727,3.727,0,0,1,.773-3.246v-.416a5.616,5.616,0,0,1,1-3.6A3.691,3.691,0,0,1,4.77-8.537ZM3.539-4.693a1.729,1.729,0,0,0-1.025.334,1.74,1.74,0,0,0-.65.838v.4a2.8,2.8,0,0,0,.475,1.7,1.422,1.422,0,0,0,1.184.645,1.378,1.378,0,0,0,1.151-.539A2.237,2.237,0,0,0,5.092-2.73a2.238,2.238,0,0,0-.425-1.421A1.362,1.362,0,0,0,3.539-4.693Zm9.416-3.229L9.422,0H8.285l3.521-7.641H7.189v-.891h5.766Z" transform="translate(802.206 401.882)" fill="#a1a1a1"/>
    <path id="Path_993" data-name="Path 993" d="M3.076-3.182H.217v-.885H3.076Z" transform="translate(745.438 303.252)" fill="#a1a1a1"/>
    <path id="Path_166" data-name="Path 166" d="M7927.833-1170.915h-1V-1183.3h318.431v1H7927.833Z" transform="translate(-7563.095 1541.4)" fill="#707070"/>
    <g id="Group_156" data-name="Group 156" transform="translate(24.906 67)">
      <g id="Scroll_Group_1" data-name="Scroll Group 1" transform="translate(767.799 291.1)" clip-path="url(#clip-path-8)" style="isolation: isolate">
        <path id="Path_167" data-name="Path 167" d="M7927.333-1182.8h317.932v11.885" transform="translate(-7927.333 1183.3)" fill="none" stroke="#707070" stroke-width="1"/>
      </g>
      <path id="Path_168" data-name="Path 168" d="M8667.73-1170.213h-1V-1182.4h1Z" transform="translate(-7588 1473.536)" fill="#707070"/>
      <path id="Path_169" data-name="Path 169" d="M8667.73-1170.213h-1V-1182.4h1Z" transform="translate(-7747 1473.536)" fill="#707070"/>
      <path id="Path_170" data-name="Path 170" d="M8667.73-1170.213h-1V-1182.4h1Z" transform="translate(-8168.122 1473.536)" fill="#707070"/>
    </g>
  </g>
</svg>
