<svg xmlns="http://www.w3.org/2000/svg" xmlns:xlink="http://www.w3.org/1999/xlink" width="1061.5" height="592.752" viewBox="0 0 1061.5 592.752">
  <defs>
    <clipPath id="clip-path">
      <rect id="Rectangle_89" data-name="Rectangle 89" width="63.472" height="52.882" fill="none" stroke="#a1a1a1" stroke-width="3"/>
    </clipPath>
    <clipPath id="clip-path-2">
      <rect id="Rectangle_89-2" data-name="Rectangle 89" width="63.472" height="52.882" fill="none" stroke="#3cca8e" stroke-width="3"/>
    </clipPath>
  </defs>
  <g id="Group_818" data-name="Group 818" transform="translate(-192 -77)">
    <path id="Move_icon" data-name="Move icon" d="M11.65,7.123,10.257,8.516a.348.348,0,0,1-.492-.492l.8-.8H7.225v3.338l.8-.8a.348.348,0,0,1,.492.492L7.123,11.65a.349.349,0,0,1-.493,0L5.237,10.257a.348.348,0,1,1,.492-.492l.8.8V7.225H3.19l.8.8a.348.348,0,1,1-.492.492L2.1,7.123a.35.35,0,0,1,0-.493L3.5,5.237a.348.348,0,1,1,.492.492l-.8.8H6.528V3.19l-.8.8A.348.348,0,1,1,5.237,3.5L6.63,2.1a.35.35,0,0,1,.493,0L8.516,3.5a.348.348,0,0,1-.493.492l-.8-.8V6.528h3.338l-.8-.8a.348.348,0,1,1,.492-.492L11.65,6.63A.349.349,0,0,1,11.65,7.123Z" transform="translate(189.999 74.998)" fill="#a1a1a1"/>
    <path id="Flow_performance_white_bg" data-name="Flow performance white bg" d="M5,0H1056.5a5,5,0,0,1,5,5V572a5,5,0,0,1-5,5H5a5,5,0,0,1-5-5V5A5,5,0,0,1,5,0Z" transform="translate(192 92.752)" fill="#fff"/>
    <path id="Flow_performance_white_bg_-_Outline" data-name="Flow performance white bg - Outline" d="M5,.5A4.505,4.505,0,0,0,.5,5V572A4.505,4.505,0,0,0,5,576.5H1056.5a4.505,4.505,0,0,0,4.5-4.5V5a4.505,4.505,0,0,0-4.5-4.5H5M5,0H1056.5a5,5,0,0,1,5,5V572a5,5,0,0,1-5,5H5a5,5,0,0,1-5-5V5A5,5,0,0,1,5,0Z" transform="translate(192 92.752)" fill="rgba(165,170,188,0.5)"/>
    <path id="Path_53" data-name="Path 53" d="M1061,.25H0v-.5H1061Z" transform="translate(192.5 136.252)" fill="rgba(165,170,188,0.25)"/>
    <path id="Path_961" data-name="Path 961" d="M7.377-2.777A3.08,3.08,0,0,1,6.369-.647,3.436,3.436,0,0,1,4.031.117a3.327,3.327,0,0,1-1.8-.483,3.173,3.173,0,0,1-1.2-1.374A4.958,4.958,0,0,1,.6-3.809v-.8a4.994,4.994,0,0,1,.428-2.127A3.224,3.224,0,0,1,2.253-8.15a3.424,3.424,0,0,1,1.849-.5,3.3,3.3,0,0,1,2.273.765,3.2,3.2,0,0,1,1,2.165H5.9a2.107,2.107,0,0,0-.536-1.327A1.772,1.772,0,0,0,4.1-7.453a1.731,1.731,0,0,0-1.485.707,3.532,3.532,0,0,0-.53,2.073v.757a3.747,3.747,0,0,0,.5,2.111,1.643,1.643,0,0,0,1.45.727,1.917,1.917,0,0,0,1.313-.393A2.047,2.047,0,0,0,5.9-2.777ZM12.4-.621a2.208,2.208,0,0,1-1.781.738,1.968,1.968,0,0,1-1.562-.6,2.567,2.567,0,0,1-.53-1.746V-6.34H9.955v4.09q0,1.207,1,1.207a1.407,1.407,0,0,0,1.4-.744V-6.34h1.424V0H12.439Zm6.146-4.418a3.523,3.523,0,0,0-.58-.047,1.306,1.306,0,0,0-1.318.75V0H15.229V-6.34h1.359l.035.709a1.6,1.6,0,0,1,1.43-.826,1.333,1.333,0,0,1,.5.082Zm4.219,0a3.523,3.523,0,0,0-.58-.047,1.306,1.306,0,0,0-1.318.75V0H19.447V-6.34h1.359l.035.709a1.6,1.6,0,0,1,1.43-.826,1.333,1.333,0,0,1,.5.082ZM26.35.117a2.946,2.946,0,0,1-2.194-.853,3.093,3.093,0,0,1-.841-2.271v-.176a3.8,3.8,0,0,1,.366-1.7,2.787,2.787,0,0,1,1.028-1.163,2.719,2.719,0,0,1,1.477-.416,2.488,2.488,0,0,1,2,.826,3.494,3.494,0,0,1,.706,2.338v.574H24.75a1.9,1.9,0,0,0,.524,1.242,1.574,1.574,0,0,0,1.157.457,1.928,1.928,0,0,0,1.594-.791l.768.732A2.563,2.563,0,0,1,27.776-.2,3.183,3.183,0,0,1,26.35.117Zm-.17-5.432a1.2,1.2,0,0,0-.946.41,2.126,2.126,0,0,0-.46,1.143h2.713v-.105a1.731,1.731,0,0,0-.381-1.081A1.19,1.19,0,0,0,26.18-5.314ZM31.318-6.34l.041.732a2.28,2.28,0,0,1,1.846-.85q1.98,0,2.016,2.268V0H33.8V-4.107A1.306,1.306,0,0,0,33.536-5a1.1,1.1,0,0,0-.853-.29,1.372,1.372,0,0,0-1.283.779V0H29.977V-6.34Zm7.137-1.541V-6.34h1.119v1.055H38.455v3.539a.779.779,0,0,0,.144.524.666.666,0,0,0,.513.161,2.193,2.193,0,0,0,.5-.059v1.1a3.507,3.507,0,0,1-.937.135q-1.641,0-1.641-1.811V-5.285H35.988V-6.34h1.043V-7.881ZM49.6-7.336h-2.66V0H45.469V-7.336H42.832v-1.2H49.6ZM53.385,0a2.2,2.2,0,0,1-.164-.592,2.216,2.216,0,0,1-1.664.709A2.237,2.237,0,0,1,50-.428a1.743,1.743,0,0,1-.6-1.348,1.8,1.8,0,0,1,.753-1.556A3.649,3.649,0,0,1,52.3-3.873h.873v-.416a1.11,1.11,0,0,0-.275-.788,1.092,1.092,0,0,0-.838-.3,1.254,1.254,0,0,0-.8.243.753.753,0,0,0-.311.618H49.529a1.58,1.58,0,0,1,.346-.976,2.3,2.3,0,0,1,.94-.712,3.3,3.3,0,0,1,1.327-.258,2.66,2.66,0,0,1,1.775.56,2,2,0,0,1,.68,1.573v2.859A3.241,3.241,0,0,0,54.838-.1V0ZM51.82-1.025a1.62,1.62,0,0,0,.794-.205,1.37,1.37,0,0,0,.56-.551v-1.2h-.768a2.1,2.1,0,0,0-1.189.275.892.892,0,0,0-.4.779.832.832,0,0,0,.272.653A1.055,1.055,0,0,0,51.82-1.025Zm7.588-4.014a3.523,3.523,0,0,0-.58-.047,1.306,1.306,0,0,0-1.318.75V0H56.086V-6.34h1.359l.035.709a1.6,1.6,0,0,1,1.43-.826,1.333,1.333,0,0,1,.5.082Zm.539,1.822a3.708,3.708,0,0,1,.694-2.358,2.229,2.229,0,0,1,1.843-.882,2.088,2.088,0,0,1,1.705.756l.064-.639h1.283V-.193a2.555,2.555,0,0,1-.776,1.969,2.957,2.957,0,0,1-2.095.721,3.376,3.376,0,0,1-1.362-.29,2.421,2.421,0,0,1-1.011-.759l.674-.855a2.035,2.035,0,0,0,1.617.779A1.573,1.573,0,0,0,63.7.987a1.471,1.471,0,0,0,.41-1.128V-.568a2.1,2.1,0,0,1-1.641.686,2.223,2.223,0,0,1-1.819-.885A3.828,3.828,0,0,1,59.947-3.217Zm1.418.123a2.552,2.552,0,0,0,.39,1.5,1.253,1.253,0,0,0,1.081.548,1.37,1.37,0,0,0,1.277-.738V-4.57a1.351,1.351,0,0,0-1.266-.721,1.258,1.258,0,0,0-1.093.557A2.858,2.858,0,0,0,61.365-3.094ZM69.791.117A2.946,2.946,0,0,1,67.6-.735a3.093,3.093,0,0,1-.841-2.271v-.176a3.8,3.8,0,0,1,.366-1.7A2.787,2.787,0,0,1,68.15-6.041a2.719,2.719,0,0,1,1.477-.416,2.488,2.488,0,0,1,2,.826,3.494,3.494,0,0,1,.706,2.338v.574H68.191a1.9,1.9,0,0,0,.524,1.242,1.574,1.574,0,0,0,1.157.457,1.928,1.928,0,0,0,1.594-.791l.768.732A2.563,2.563,0,0,1,71.218-.2,3.183,3.183,0,0,1,69.791.117Zm-.17-5.432a1.2,1.2,0,0,0-.946.41,2.126,2.126,0,0,0-.46,1.143h2.713v-.105a1.731,1.731,0,0,0-.381-1.081A1.19,1.19,0,0,0,69.621-5.314Zm5.6-2.566V-6.34h1.119v1.055H75.223v3.539a.779.779,0,0,0,.144.524.666.666,0,0,0,.513.161,2.193,2.193,0,0,0,.5-.059v1.1a3.507,3.507,0,0,1-.937.135Q73.8.117,73.8-1.693V-5.285H72.756V-6.34H73.8V-7.881ZM85.969-3.105A3.775,3.775,0,0,1,85.3-.759a2.139,2.139,0,0,1-1.793.876,2.154,2.154,0,0,1-1.67-.686V2.438H80.414V-6.34h1.313l.059.645a2.091,2.091,0,0,1,1.705-.762,2.161,2.161,0,0,1,1.819.864,3.875,3.875,0,0,1,.659,2.4Zm-1.418-.123a2.644,2.644,0,0,0-.378-1.506,1.229,1.229,0,0,0-1.081-.557,1.31,1.31,0,0,0-1.254.721v2.813A1.322,1.322,0,0,0,83.1-1.02a1.227,1.227,0,0,0,1.063-.548A2.911,2.911,0,0,0,84.551-3.229ZM89.965.117a2.946,2.946,0,0,1-2.194-.853,3.093,3.093,0,0,1-.841-2.271v-.176a3.8,3.8,0,0,1,.366-1.7,2.787,2.787,0,0,1,1.028-1.163A2.719,2.719,0,0,1,89.8-6.457a2.488,2.488,0,0,1,2,.826,3.494,3.494,0,0,1,.706,2.338v.574H88.365a1.9,1.9,0,0,0,.524,1.242,1.574,1.574,0,0,0,1.157.457,1.928,1.928,0,0,0,1.594-.791l.768.732A2.563,2.563,0,0,1,91.392-.2,3.183,3.183,0,0,1,89.965.117Zm-.17-5.432a1.2,1.2,0,0,0-.946.41,2.126,2.126,0,0,0-.46,1.143H91.1v-.105a1.731,1.731,0,0,0-.381-1.081A1.19,1.19,0,0,0,89.795-5.314Zm7.137.275a3.523,3.523,0,0,0-.58-.047,1.306,1.306,0,0,0-1.318.75V0H93.609V-6.34h1.359L95-5.631a1.6,1.6,0,0,1,1.43-.826,1.333,1.333,0,0,1,.5.082ZM98.449,0V-5.285h-.967V-6.34h.967v-.58a2.177,2.177,0,0,1,.586-1.629,2.244,2.244,0,0,1,1.641-.574,3.291,3.291,0,0,1,.8.105L101.438-7.9a2.8,2.8,0,0,0-.545-.047A.914.914,0,0,0,99.873-6.9v.563h1.289v1.055H99.873V0Zm3.486-3.229a3.738,3.738,0,0,1,.369-1.679,2.7,2.7,0,0,1,1.037-1.148,2.922,2.922,0,0,1,1.535-.4,2.769,2.769,0,0,1,2.083.826,3.249,3.249,0,0,1,.864,2.191l.006.334a3.772,3.772,0,0,1-.36,1.676,2.664,2.664,0,0,1-1.031,1.143,2.944,2.944,0,0,1-1.55.4,2.75,2.75,0,0,1-2.147-.894,3.422,3.422,0,0,1-.806-2.382Zm1.424.123a2.555,2.555,0,0,0,.4,1.532,1.314,1.314,0,0,0,1.125.554,1.3,1.3,0,0,0,1.122-.562,2.822,2.822,0,0,0,.4-1.646A2.522,2.522,0,0,0,106-4.752a1.319,1.319,0,0,0-1.122-.562,1.307,1.307,0,0,0-1.107.554A2.768,2.768,0,0,0,103.359-3.105Zm8.994-1.934a3.523,3.523,0,0,0-.58-.047,1.306,1.306,0,0,0-1.318.75V0h-1.424V-6.34h1.359l.035.709a1.6,1.6,0,0,1,1.43-.826,1.333,1.333,0,0,1,.5.082Zm2.238-1.3.041.662a2.281,2.281,0,0,1,1.828-.779,1.753,1.753,0,0,1,1.74.973,2.249,2.249,0,0,1,1.945-.973,1.977,1.977,0,0,1,1.562.58,2.554,2.554,0,0,1,.524,1.711V0h-1.424V-4.125a1.261,1.261,0,0,0-.264-.885,1.154,1.154,0,0,0-.873-.281,1.185,1.185,0,0,0-.794.261,1.375,1.375,0,0,0-.431.683L118.453,0h-1.424V-4.172a1.016,1.016,0,0,0-1.143-1.119,1.253,1.253,0,0,0-1.213.7V0H113.25V-6.34ZM127.482,0a2.2,2.2,0,0,1-.164-.592,2.216,2.216,0,0,1-1.664.709A2.237,2.237,0,0,1,124.1-.428a1.743,1.743,0,0,1-.6-1.348,1.8,1.8,0,0,1,.753-1.556,3.649,3.649,0,0,1,2.153-.542h.873v-.416A1.11,1.11,0,0,0,127-5.077a1.092,1.092,0,0,0-.838-.3,1.254,1.254,0,0,0-.8.243.753.753,0,0,0-.311.618h-1.424a1.58,1.58,0,0,1,.346-.976,2.3,2.3,0,0,1,.94-.712,3.3,3.3,0,0,1,1.327-.258,2.66,2.66,0,0,1,1.775.56,2,2,0,0,1,.68,1.573v2.859a3.241,3.241,0,0,0,.24,1.365V0Zm-1.564-1.025a1.62,1.62,0,0,0,.794-.205,1.37,1.37,0,0,0,.56-.551v-1.2H126.5a2.1,2.1,0,0,0-1.189.275.892.892,0,0,0-.4.779.832.832,0,0,0,.272.653A1.055,1.055,0,0,0,125.918-1.025Zm5.59-5.314.041.732a2.28,2.28,0,0,1,1.846-.85q1.98,0,2.016,2.268V0h-1.424V-4.107A1.306,1.306,0,0,0,133.726-5a1.1,1.1,0,0,0-.853-.29,1.372,1.372,0,0,0-1.283.779V0h-1.424V-6.34Zm7.957,5.32a1.287,1.287,0,0,0,.885-.311,1.061,1.061,0,0,0,.375-.768h1.342a2.091,2.091,0,0,1-.369,1.1,2.421,2.421,0,0,1-.937.812,2.794,2.794,0,0,1-1.277.3,2.7,2.7,0,0,1-2.109-.861,3.416,3.416,0,0,1-.779-2.379V-3.27a3.359,3.359,0,0,1,.773-2.317,2.678,2.678,0,0,1,2.109-.87,2.6,2.6,0,0,1,1.843.659,2.361,2.361,0,0,1,.747,1.731h-1.342a1.3,1.3,0,0,0-.372-.9,1.2,1.2,0,0,0-.888-.352,1.253,1.253,0,0,0-1.066.5,2.556,2.556,0,0,0-.381,1.521v.229a2.6,2.6,0,0,0,.372,1.538A1.252,1.252,0,0,0,139.465-1.02ZM145.934.117a2.946,2.946,0,0,1-2.194-.853,3.093,3.093,0,0,1-.841-2.271v-.176a3.8,3.8,0,0,1,.366-1.7,2.787,2.787,0,0,1,1.028-1.163,2.719,2.719,0,0,1,1.477-.416,2.488,2.488,0,0,1,2,.826,3.494,3.494,0,0,1,.706,2.338v.574h-4.143a1.9,1.9,0,0,0,.524,1.242,1.574,1.574,0,0,0,1.157.457,1.928,1.928,0,0,0,1.594-.791l.768.732A2.563,2.563,0,0,1,147.36-.2,3.183,3.183,0,0,1,145.934.117Zm-.17-5.432a1.2,1.2,0,0,0-.946.41,2.126,2.126,0,0,0-.46,1.143h2.713v-.105a1.731,1.731,0,0,0-.381-1.081A1.19,1.19,0,0,0,145.764-5.314Z" transform="translate(209 119.752)" fill="#0c2339"/>
    <path id="Path_962" data-name="Path 962" d="M6.885-7.611H4.143V0H3.023V-7.611H.287v-.92h6.6ZM11.232,0a2.277,2.277,0,0,1-.152-.668,2.419,2.419,0,0,1-1.8.785,2.238,2.238,0,0,1-1.538-.53,1.716,1.716,0,0,1-.6-1.345A1.792,1.792,0,0,1,7.89-3.3a3.55,3.55,0,0,1,2.118-.548h1.055v-.5a1.217,1.217,0,0,0-.34-.905,1.366,1.366,0,0,0-1-.337,1.581,1.581,0,0,0-.973.293.863.863,0,0,0-.393.709H7.266A1.5,1.5,0,0,1,7.6-5.5a2.3,2.3,0,0,1,.914-.7,3.075,3.075,0,0,1,1.269-.258,2.506,2.506,0,0,1,1.717.548A1.976,1.976,0,0,1,12.146-4.4v2.918a3.567,3.567,0,0,0,.223,1.389V0Zm-1.8-.826A1.905,1.905,0,0,0,10.4-1.09a1.6,1.6,0,0,0,.662-.686v-1.3h-.85q-1.992,0-1.992,1.166a.987.987,0,0,0,.34.8A1.306,1.306,0,0,0,9.434-.826ZM16.91-5.367a3.248,3.248,0,0,0-.533-.041A1.428,1.428,0,0,0,14.93-4.5V0H13.846V-6.34H14.9l.018.732a1.688,1.688,0,0,1,1.512-.85,1.107,1.107,0,0,1,.48.082Zm.627,2.145a3.726,3.726,0,0,1,.686-2.358,2.192,2.192,0,0,1,1.816-.876,2.181,2.181,0,0,1,1.811.82l.053-.7h.99V-.152a2.579,2.579,0,0,1-.729,1.939A2.692,2.692,0,0,1,20.2,2.5,3.261,3.261,0,0,1,18.861,2.2a2.31,2.31,0,0,1-1-.8l.563-.65a2.12,2.12,0,0,0,1.705.861,1.661,1.661,0,0,0,1.233-.445A1.7,1.7,0,0,0,21.8-.088V-.633a2.228,2.228,0,0,1-1.775.75,2.166,2.166,0,0,1-1.8-.9A3.918,3.918,0,0,1,17.537-3.223Zm1.09.123a2.843,2.843,0,0,0,.439,1.685A1.428,1.428,0,0,0,20.3-.8,1.588,1.588,0,0,0,21.8-1.734V-4.629a1.606,1.606,0,0,0-1.494-.908,1.441,1.441,0,0,0-1.236.615A3.1,3.1,0,0,0,18.627-3.1ZM27.158.117a2.77,2.77,0,0,1-2.1-.847,3.142,3.142,0,0,1-.809-2.265v-.2a3.8,3.8,0,0,1,.36-1.685,2.811,2.811,0,0,1,1.008-1.16,2.534,2.534,0,0,1,1.4-.419,2.374,2.374,0,0,1,1.922.814,3.526,3.526,0,0,1,.686,2.332v.451H25.336a2.254,2.254,0,0,0,.548,1.515,1.722,1.722,0,0,0,1.333.577A1.888,1.888,0,0,0,28.189-1a2.444,2.444,0,0,0,.7-.621l.662.516A2.662,2.662,0,0,1,27.158.117Zm-.135-5.684a1.446,1.446,0,0,0-1.1.478,2.321,2.321,0,0,0-.551,1.339h3.176v-.082a2.065,2.065,0,0,0-.445-1.28A1.361,1.361,0,0,0,27.023-5.566Zm5.332-2.309V-6.34h1.184V-5.5H32.355v3.937a.88.88,0,0,0,.158.572.666.666,0,0,0,.539.191,2.624,2.624,0,0,0,.516-.07V0a3.161,3.161,0,0,1-.832.116,1.35,1.35,0,0,1-1.1-.439,1.888,1.888,0,0,1-.369-1.248V-5.5H30.117V-6.34h1.154V-7.875Zm6.891,0V-6.34H40.43V-5.5H39.246v3.937a.88.88,0,0,0,.158.572.666.666,0,0,0,.539.191,2.624,2.624,0,0,0,.516-.07V0a3.161,3.161,0,0,1-.832.116,1.35,1.35,0,0,1-1.1-.439,1.888,1.888,0,0,1-.369-1.248V-5.5H37.008V-6.34h1.154V-7.875ZM43.77-1.588,45.246-6.34h1.16L43.857.979q-.592,1.582-1.881,1.582l-.205-.018-.4-.076V1.588l.293.023a1.442,1.442,0,0,0,.858-.223,1.611,1.611,0,0,0,.507-.814l.24-.645L41-6.34h1.184ZM52.729-3.1a3.8,3.8,0,0,1-.662,2.332,2.122,2.122,0,0,1-1.793.885,2.325,2.325,0,0,1-1.816-.732V2.438H47.373V-6.34h.99l.053.7a2.233,2.233,0,0,1,1.84-.82,2.162,2.162,0,0,1,1.808.861,3.838,3.838,0,0,1,.665,2.4Zm-1.084-.123a2.8,2.8,0,0,0-.457-1.693,1.472,1.472,0,0,0-1.254-.621,1.593,1.593,0,0,0-1.477.873v3.029a1.6,1.6,0,0,0,1.488.867,1.465,1.465,0,0,0,1.239-.618A3.058,3.058,0,0,0,51.645-3.223ZM56.736.117a2.77,2.77,0,0,1-2.1-.847,3.142,3.142,0,0,1-.809-2.265v-.2a3.8,3.8,0,0,1,.36-1.685A2.811,2.811,0,0,1,55.2-6.038a2.534,2.534,0,0,1,1.4-.419,2.374,2.374,0,0,1,1.922.814,3.526,3.526,0,0,1,.686,2.332v.451H54.914a2.254,2.254,0,0,0,.548,1.515,1.722,1.722,0,0,0,1.333.577A1.888,1.888,0,0,0,57.768-1a2.444,2.444,0,0,0,.7-.621l.662.516A2.662,2.662,0,0,1,56.736.117ZM56.6-5.566a1.446,1.446,0,0,0-1.1.478,2.321,2.321,0,0,0-.551,1.339h3.176v-.082a2.065,2.065,0,0,0-.445-1.28A1.361,1.361,0,0,0,56.6-5.566Zm3.826,5a.679.679,0,0,1,.167-.469.636.636,0,0,1,.5-.187.655.655,0,0,1,.507.188.665.665,0,0,1,.173.469.629.629,0,0,1-.173.451A.667.667,0,0,1,61.1.064a.648.648,0,0,1-.5-.182A.641.641,0,0,1,60.428-.568Zm.006-5.174a.679.679,0,0,1,.167-.469.636.636,0,0,1,.5-.187.655.655,0,0,1,.507.188.665.665,0,0,1,.173.469.629.629,0,0,1-.173.451.667.667,0,0,1-.507.182.648.648,0,0,1-.5-.182A.641.641,0,0,1,60.434-5.742ZM5.7,11.768H2.127L1.324,14H.164L3.422,5.469h.984L7.67,14H6.516Zm-3.234-.92h2.9L3.914,6.857Zm5.924-.07a3.726,3.726,0,0,1,.686-2.358,2.192,2.192,0,0,1,1.816-.876,2.181,2.181,0,0,1,1.811.82l.053-.7h.99v6.188a2.579,2.579,0,0,1-.729,1.939,2.692,2.692,0,0,1-1.96.709A3.261,3.261,0,0,1,9.715,16.2a2.31,2.31,0,0,1-1-.8l.563-.65a2.12,2.12,0,0,0,1.705.861,1.661,1.661,0,0,0,1.233-.445,1.7,1.7,0,0,0,.442-1.254v-.545a2.228,2.228,0,0,1-1.775.75,2.166,2.166,0,0,1-1.8-.9A3.918,3.918,0,0,1,8.391,10.777Zm1.09.123a2.843,2.843,0,0,0,.439,1.685,1.428,1.428,0,0,0,1.23.612,1.588,1.588,0,0,0,1.506-.932V9.371a1.606,1.606,0,0,0-1.494-.908,1.441,1.441,0,0,0-1.236.615A3.1,3.1,0,0,0,9.48,10.9Zm5.643-.123a3.726,3.726,0,0,1,.686-2.358,2.363,2.363,0,0,1,3.627-.056l.053-.7h.99v6.188a2.579,2.579,0,0,1-.729,1.939,2.692,2.692,0,0,1-1.96.709,3.261,3.261,0,0,1-1.342-.293,2.31,2.31,0,0,1-1-.8l.563-.65a2.12,2.12,0,0,0,1.705.861,1.661,1.661,0,0,0,1.233-.445,1.7,1.7,0,0,0,.442-1.254v-.545a2.228,2.228,0,0,1-1.775.75,2.166,2.166,0,0,1-1.8-.9A3.918,3.918,0,0,1,15.123,10.777Zm1.09.123a2.843,2.843,0,0,0,.439,1.685,1.428,1.428,0,0,0,1.23.612,1.588,1.588,0,0,0,1.506-.932V9.371a1.606,1.606,0,0,0-1.494-.908,1.441,1.441,0,0,0-1.236.615A3.1,3.1,0,0,0,16.213,10.9Zm8.965-2.268a3.248,3.248,0,0,0-.533-.041A1.428,1.428,0,0,0,23.2,9.5V14H22.113V7.66h1.055l.018.732a1.688,1.688,0,0,1,1.512-.85,1.107,1.107,0,0,1,.48.082Zm3.516,5.484a2.77,2.77,0,0,1-2.1-.847,3.142,3.142,0,0,1-.809-2.265v-.2a3.8,3.8,0,0,1,.36-1.685,2.811,2.811,0,0,1,1.008-1.16,2.534,2.534,0,0,1,1.4-.419,2.374,2.374,0,0,1,1.922.814,3.526,3.526,0,0,1,.686,2.332v.451H26.871a2.254,2.254,0,0,0,.548,1.515,1.722,1.722,0,0,0,1.333.577A1.888,1.888,0,0,0,29.725,13a2.444,2.444,0,0,0,.7-.621l.662.516A2.662,2.662,0,0,1,28.693,14.117Zm-.135-5.684a1.446,1.446,0,0,0-1.1.478,2.321,2.321,0,0,0-.551,1.339h3.176v-.082a2.065,2.065,0,0,0-.445-1.28A1.361,1.361,0,0,0,28.559,8.434Zm3.6,2.344a3.726,3.726,0,0,1,.686-2.358,2.363,2.363,0,0,1,3.627-.056l.053-.7h.99v6.188a2.579,2.579,0,0,1-.729,1.939,2.692,2.692,0,0,1-1.96.709,3.261,3.261,0,0,1-1.342-.293,2.31,2.31,0,0,1-1-.8l.563-.65a2.12,2.12,0,0,0,1.705.861,1.661,1.661,0,0,0,1.233-.445,1.7,1.7,0,0,0,.442-1.254v-.545a2.228,2.228,0,0,1-1.775.75,2.166,2.166,0,0,1-1.8-.9A3.918,3.918,0,0,1,32.162,10.777Zm1.09.123a2.843,2.843,0,0,0,.439,1.685,1.428,1.428,0,0,0,1.23.612,1.588,1.588,0,0,0,1.506-.932V9.371a1.606,1.606,0,0,0-1.494-.908,1.441,1.441,0,0,0-1.236.615A3.1,3.1,0,0,0,33.252,10.9ZM43.066,14a2.277,2.277,0,0,1-.152-.668,2.419,2.419,0,0,1-1.8.785,2.238,2.238,0,0,1-1.538-.53,1.716,1.716,0,0,1-.6-1.345,1.792,1.792,0,0,1,.753-1.538,3.55,3.55,0,0,1,2.118-.548H42.9v-.5a1.217,1.217,0,0,0-.34-.905,1.366,1.366,0,0,0-1-.337,1.581,1.581,0,0,0-.973.293.863.863,0,0,0-.393.709H39.1a1.5,1.5,0,0,1,.337-.917,2.3,2.3,0,0,1,.914-.7,3.075,3.075,0,0,1,1.269-.258,2.506,2.506,0,0,1,1.717.548A1.976,1.976,0,0,1,43.98,9.6v2.918a3.567,3.567,0,0,0,.223,1.389V14Zm-1.8-.826a1.905,1.905,0,0,0,.967-.264,1.6,1.6,0,0,0,.662-.686v-1.3h-.85q-1.992,0-1.992,1.166a.987.987,0,0,0,.34.8A1.306,1.306,0,0,0,41.268,13.174ZM47.15,6.125V7.66h1.184V8.5H47.15v3.937a.88.88,0,0,0,.158.572.666.666,0,0,0,.539.191,2.624,2.624,0,0,0,.516-.07V14a3.161,3.161,0,0,1-.832.116,1.35,1.35,0,0,1-1.1-.439,1.888,1.888,0,0,1-.369-1.248V8.5H44.912V7.66h1.154V6.125Zm5.08,7.992a2.77,2.77,0,0,1-2.1-.847,3.142,3.142,0,0,1-.809-2.265v-.2a3.8,3.8,0,0,1,.36-1.685,2.811,2.811,0,0,1,1.008-1.16,2.534,2.534,0,0,1,1.4-.419,2.374,2.374,0,0,1,1.922.814,3.526,3.526,0,0,1,.686,2.332v.451H50.408a2.254,2.254,0,0,0,.548,1.515,1.722,1.722,0,0,0,1.333.577A1.888,1.888,0,0,0,53.262,13a2.444,2.444,0,0,0,.7-.621l.662.516A2.662,2.662,0,0,1,52.23,14.117ZM52.1,8.434a1.446,1.446,0,0,0-1.1.478,2.321,2.321,0,0,0-.551,1.339h3.176v-.082a2.065,2.065,0,0,0-.445-1.28A1.361,1.361,0,0,0,52.1,8.434Zm3.6,2.344a3.714,3.714,0,0,1,.691-2.347A2.352,2.352,0,0,1,59.959,8.3V5h1.084v9h-1l-.053-.68a2.208,2.208,0,0,1-1.811.8,2.165,2.165,0,0,1-1.8-.9,3.756,3.756,0,0,1-.694-2.355Zm1.084.123a2.812,2.812,0,0,0,.445,1.688,1.44,1.44,0,0,0,1.23.609,1.581,1.581,0,0,0,1.506-.926V9.359a1.593,1.593,0,0,0-1.494-.9,1.446,1.446,0,0,0-1.242.615A3.1,3.1,0,0,0,56.777,10.9Z" transform="translate(857 159.752)" fill="#0c2339"/>
    <path id="Path_963" data-name="Path 963" d="M5.7-3.768H2.115V0H.99V-8.531H6.275v.92H2.115v2.924H5.7ZM8.631,0H7.547V-6.34H8.631ZM7.459-8.021a.647.647,0,0,1,.161-.445A.6.6,0,0,1,8.1-8.648a.614.614,0,0,1,.48.182.64.64,0,0,1,.164.445.619.619,0,0,1-.164.439.626.626,0,0,1-.48.176.616.616,0,0,1-.478-.176A.626.626,0,0,1,7.459-8.021ZM11.543,0H10.459V-9h1.084Zm3.205-7.875V-6.34h1.184V-5.5H14.748v3.937a.88.88,0,0,0,.158.572.666.666,0,0,0,.539.191,2.624,2.624,0,0,0,.516-.07V0a3.161,3.161,0,0,1-.832.116,1.35,1.35,0,0,1-1.1-.439,1.888,1.888,0,0,1-.369-1.248V-5.5H12.51V-6.34h1.154V-7.875ZM19.828.117a2.77,2.77,0,0,1-2.1-.847,3.142,3.142,0,0,1-.809-2.265v-.2a3.8,3.8,0,0,1,.36-1.685,2.811,2.811,0,0,1,1.008-1.16,2.534,2.534,0,0,1,1.4-.419,2.374,2.374,0,0,1,1.922.814A3.526,3.526,0,0,1,22.3-3.311v.451H18.006a2.254,2.254,0,0,0,.548,1.515,1.722,1.722,0,0,0,1.333.577A1.888,1.888,0,0,0,20.859-1a2.444,2.444,0,0,0,.7-.621l.662.516A2.662,2.662,0,0,1,19.828.117Zm-.135-5.684a1.446,1.446,0,0,0-1.1.478,2.321,2.321,0,0,0-.551,1.339h3.176v-.082a2.065,2.065,0,0,0-.445-1.28A1.361,1.361,0,0,0,19.693-5.566Zm6.926.2a3.248,3.248,0,0,0-.533-.041,1.428,1.428,0,0,0-1.447.908V0H23.555V-6.34h1.055l.018.732a1.688,1.688,0,0,1,1.512-.85,1.107,1.107,0,0,1,.48.082ZM35.953-3.1a3.77,3.77,0,0,1-.668,2.335,2.134,2.134,0,0,1-1.793.882,2.21,2.21,0,0,1-1.857-.85L31.582,0h-1V-9H31.67v3.357a2.2,2.2,0,0,1,1.811-.814,2.147,2.147,0,0,1,1.813.873,3.883,3.883,0,0,1,.659,2.391Zm-1.084-.123a2.929,2.929,0,0,0-.428-1.711,1.416,1.416,0,0,0-1.23-.6,1.591,1.591,0,0,0-1.541,1V-1.8a1.636,1.636,0,0,0,1.553,1,1.408,1.408,0,0,0,1.213-.6A3.115,3.115,0,0,0,34.869-3.223Zm4.459,1.635L40.8-6.34h1.16L39.416.979q-.592,1.582-1.881,1.582l-.205-.018-.4-.076V1.588l.293.023a1.442,1.442,0,0,0,.858-.223,1.611,1.611,0,0,0,.507-.814l.24-.645L36.563-6.34h1.184ZM42.9-.568a.679.679,0,0,1,.167-.469.636.636,0,0,1,.5-.187.655.655,0,0,1,.507.188.665.665,0,0,1,.173.469.629.629,0,0,1-.173.451.667.667,0,0,1-.507.182.648.648,0,0,1-.5-.182A.641.641,0,0,1,42.9-.568ZM42.9-5.742a.679.679,0,0,1,.167-.469.636.636,0,0,1,.5-.187.655.655,0,0,1,.507.188.665.665,0,0,1,.173.469.629.629,0,0,1-.173.451.667.667,0,0,1-.507.182.648.648,0,0,1-.5-.182A.641.641,0,0,1,42.9-5.742Z" transform="translate(949 159.752)" fill="#0c2339"/>
    <path id="Path_964" data-name="Path 964" d="M7.289-1.119a2.6,2.6,0,0,1-1.21.929A4.887,4.887,0,0,1,4.271.117,3.506,3.506,0,0,1,2.42-.372,3.26,3.26,0,0,1,1.169-1.764,4.806,4.806,0,0,1,.715-3.855V-4.6a4.487,4.487,0,0,1,.9-2.988A3.134,3.134,0,0,1,4.143-8.648a3.237,3.237,0,0,1,2.15.683,2.974,2.974,0,0,1,1,1.937H6.164a1.86,1.86,0,0,0-2.016-1.7,1.991,1.991,0,0,0-1.714.795,3.88,3.88,0,0,0-.589,2.3v.7A3.636,3.636,0,0,0,2.5-1.65,2.127,2.127,0,0,0,4.277-.8a3.921,3.921,0,0,0,1.107-.14,1.713,1.713,0,0,0,.785-.473V-3.328H4.2v-.92H7.289Zm4.77-4.248a3.248,3.248,0,0,0-.533-.041,1.428,1.428,0,0,0-1.447.908V0H8.994V-6.34h1.055l.018.732a1.688,1.688,0,0,1,1.512-.85,1.107,1.107,0,0,1,.48.082Zm.592,2.139A3.745,3.745,0,0,1,13.017-4.9a2.732,2.732,0,0,1,1.02-1.148,2.775,2.775,0,0,1,1.491-.4,2.674,2.674,0,0,1,2.095.9,3.449,3.449,0,0,1,.8,2.385V-3.1a3.777,3.777,0,0,1-.354,1.661A2.692,2.692,0,0,1,17.054-.293a2.807,2.807,0,0,1-1.515.41,2.667,2.667,0,0,1-2.089-.9,3.432,3.432,0,0,1-.8-2.373Zm1.09.129a2.712,2.712,0,0,0,.489,1.693,1.566,1.566,0,0,0,1.31.639,1.556,1.556,0,0,0,1.313-.647,2.966,2.966,0,0,0,.486-1.813,2.708,2.708,0,0,0-.5-1.69,1.574,1.574,0,0,0-1.315-.647,1.557,1.557,0,0,0-1.295.639A2.944,2.944,0,0,0,13.74-3.1ZM23.7-.627a2.3,2.3,0,0,1-1.857.744,1.971,1.971,0,0,1-1.544-.589,2.549,2.549,0,0,1-.536-1.743V-6.34h1.084v4.1Q20.842-.8,22.014-.8a1.623,1.623,0,0,0,1.652-.926V-6.34H24.75V0H23.719ZM31.752-3.1A3.8,3.8,0,0,1,31.09-.768,2.122,2.122,0,0,1,29.3.117,2.325,2.325,0,0,1,27.48-.615V2.438H26.4V-6.34h.99l.053.7a2.233,2.233,0,0,1,1.84-.82,2.162,2.162,0,0,1,1.808.861,3.838,3.838,0,0,1,.665,2.4Zm-1.084-.123a2.8,2.8,0,0,0-.457-1.693,1.472,1.472,0,0,0-1.254-.621,1.593,1.593,0,0,0-1.477.873v3.029a1.6,1.6,0,0,0,1.488.867,1.465,1.465,0,0,0,1.239-.618A3.058,3.058,0,0,0,30.668-3.223Zm10.8.123A3.77,3.77,0,0,1,40.8-.765a2.134,2.134,0,0,1-1.793.882,2.21,2.21,0,0,1-1.857-.85L37.1,0h-1V-9h1.084v3.357a2.2,2.2,0,0,1,1.811-.814,2.147,2.147,0,0,1,1.813.873,3.883,3.883,0,0,1,.659,2.391Zm-1.084-.123a2.929,2.929,0,0,0-.428-1.711,1.416,1.416,0,0,0-1.23-.6,1.591,1.591,0,0,0-1.541,1V-1.8a1.636,1.636,0,0,0,1.553,1,1.408,1.408,0,0,0,1.213-.6A3.115,3.115,0,0,0,40.383-3.223Zm4.459,1.635L46.318-6.34h1.16L44.93.979q-.592,1.582-1.881,1.582l-.205-.018-.4-.076V1.588l.293.023a1.442,1.442,0,0,0,.858-.223A1.611,1.611,0,0,0,44.1.574l.24-.645L42.076-6.34H43.26ZM48.41-.568a.679.679,0,0,1,.167-.469.636.636,0,0,1,.5-.187.655.655,0,0,1,.507.188.665.665,0,0,1,.173.469.629.629,0,0,1-.173.451.667.667,0,0,1-.507.182.648.648,0,0,1-.5-.182A.641.641,0,0,1,48.41-.568Zm.006-5.174a.679.679,0,0,1,.167-.469.636.636,0,0,1,.5-.187.655.655,0,0,1,.507.188.665.665,0,0,1,.173.469.629.629,0,0,1-.173.451.667.667,0,0,1-.507.182.648.648,0,0,1-.5-.182A.641.641,0,0,1,48.416-5.742ZM7.547,14H6.416L2.121,7.426V14H.99V5.469H2.121l4.307,6.6v-6.6H7.547Zm1.541-3.229A3.745,3.745,0,0,1,9.454,9.1a2.732,2.732,0,0,1,1.02-1.148,2.775,2.775,0,0,1,1.491-.4,2.674,2.674,0,0,1,2.095.9,3.449,3.449,0,0,1,.8,2.385V10.9a3.777,3.777,0,0,1-.354,1.661,2.692,2.692,0,0,1-1.014,1.146,2.807,2.807,0,0,1-1.515.41,2.667,2.667,0,0,1-2.089-.9,3.432,3.432,0,0,1-.8-2.373Zm1.09.129a2.712,2.712,0,0,0,.489,1.693,1.658,1.658,0,0,0,2.622-.009,2.966,2.966,0,0,0,.486-1.813,2.708,2.708,0,0,0-.5-1.69,1.574,1.574,0,0,0-1.315-.647,1.557,1.557,0,0,0-1.295.639A2.944,2.944,0,0,0,10.178,10.9Zm9.105-2.268a3.248,3.248,0,0,0-.533-.041A1.428,1.428,0,0,0,17.3,9.5V14H16.219V7.66h1.055l.018.732a1.688,1.688,0,0,1,1.512-.85,1.107,1.107,0,0,1,.48.082Zm2.76-2.508V7.66h1.184V8.5H22.043v3.937a.88.88,0,0,0,.158.572.666.666,0,0,0,.539.191,2.624,2.624,0,0,0,.516-.07V14a3.161,3.161,0,0,1-.832.116,1.35,1.35,0,0,1-1.1-.439,1.888,1.888,0,0,1-.369-1.248V8.5H19.8V7.66h1.154V6.125Zm3.533,2.3a2.3,2.3,0,0,1,1.875-.885q2.01,0,2.027,2.268V14H28.395V9.8a1.459,1.459,0,0,0-.313-1.014,1.256,1.256,0,0,0-.958-.328,1.564,1.564,0,0,0-.926.281,1.91,1.91,0,0,0-.621.738V14H24.492V5h1.084Zm8.156,5.689a2.77,2.77,0,0,1-2.1-.847,3.142,3.142,0,0,1-.809-2.265v-.2a3.8,3.8,0,0,1,.36-1.685,2.811,2.811,0,0,1,1.008-1.16,2.534,2.534,0,0,1,1.4-.419,2.374,2.374,0,0,1,1.922.814,3.526,3.526,0,0,1,.686,2.332v.451H31.91a2.254,2.254,0,0,0,.548,1.515,1.722,1.722,0,0,0,1.333.577A1.888,1.888,0,0,0,34.764,13a2.444,2.444,0,0,0,.7-.621l.662.516A2.662,2.662,0,0,1,33.732,14.117ZM33.6,8.434a1.446,1.446,0,0,0-1.1.478,2.321,2.321,0,0,0-.551,1.339h3.176v-.082a2.065,2.065,0,0,0-.445-1.28A1.361,1.361,0,0,0,33.6,8.434Zm6.926.2a3.248,3.248,0,0,0-.533-.041,1.428,1.428,0,0,0-1.447.908V14H37.459V7.66h1.055l.018.732a1.688,1.688,0,0,1,1.512-.85,1.107,1.107,0,0,1,.48.082Zm2.021-.973.035.8a2.31,2.31,0,0,1,1.9-.914q2.01,0,2.027,2.268V14H45.422V9.8a1.459,1.459,0,0,0-.313-1.014,1.256,1.256,0,0,0-.958-.328,1.564,1.564,0,0,0-.926.281,1.91,1.91,0,0,0-.621.738V14H41.52V7.66Zm13.447,4.107H52.418L51.615,14h-1.16l3.258-8.531H54.7L57.961,14H56.807Zm-3.234-.92h2.9l-1.453-3.99Zm7.2-3.187.029.7a2.341,2.341,0,0,1,1.881-.82,1.813,1.813,0,0,1,1.811,1.02,2.4,2.4,0,0,1,.823-.738,2.431,2.431,0,0,1,1.2-.281q2.086,0,2.121,2.209V14H66.738V9.816A1.456,1.456,0,0,0,66.428,8.8a1.368,1.368,0,0,0-1.043-.337,1.437,1.437,0,0,0-1,.36,1.462,1.462,0,0,0-.463.97V14H62.83V9.846a1.209,1.209,0,0,0-1.354-1.383,1.45,1.45,0,0,0-1.459.908V14H58.934V7.66Zm12.129,6.457a2.77,2.77,0,0,1-2.1-.847,3.142,3.142,0,0,1-.809-2.265v-.2a3.8,3.8,0,0,1,.36-1.685,2.811,2.811,0,0,1,1.008-1.16,2.534,2.534,0,0,1,1.4-.419,2.374,2.374,0,0,1,1.922.814,3.526,3.526,0,0,1,.686,2.332v.451H70.266a2.254,2.254,0,0,0,.548,1.515,1.722,1.722,0,0,0,1.333.577A1.888,1.888,0,0,0,73.119,13a2.444,2.444,0,0,0,.7-.621l.662.516A2.662,2.662,0,0,1,72.088,14.117Zm-.135-5.684a1.446,1.446,0,0,0-1.1.478A2.321,2.321,0,0,0,70.3,10.25h3.176v-.082a2.065,2.065,0,0,0-.445-1.28A1.361,1.361,0,0,0,71.953,8.434Zm6.926.2a3.248,3.248,0,0,0-.533-.041A1.428,1.428,0,0,0,76.9,9.5V14H75.814V7.66h1.055l.018.732a1.688,1.688,0,0,1,1.512-.85,1.107,1.107,0,0,1,.48.082ZM81.053,14H79.969V7.66h1.084ZM79.881,5.979a.647.647,0,0,1,.161-.445.6.6,0,0,1,.478-.182.614.614,0,0,1,.48.182.64.64,0,0,1,.164.445A.619.619,0,0,1,81,6.418a.626.626,0,0,1-.48.176.616.616,0,0,1-.478-.176A.626.626,0,0,1,79.881,5.979Zm2.93,7.453a.679.679,0,0,1,.167-.469.636.636,0,0,1,.5-.187.655.655,0,0,1,.507.188.665.665,0,0,1,.173.469.629.629,0,0,1-.173.451.667.667,0,0,1-.507.182.6.6,0,0,1-.668-.633Zm3.158,0a.679.679,0,0,1,.167-.469.636.636,0,0,1,.5-.187.655.655,0,0,1,.507.188.665.665,0,0,1,.173.469.629.629,0,0,1-.173.451.667.667,0,0,1-.507.182.6.6,0,0,1-.668-.633Z" transform="translate(1020 159.752)" fill="#0c2339"/>
    <path id="Path_965" data-name="Path 965" d="M6.885-7.611H4.143V0H3.023V-7.611H.287v-.92h6.6ZM9.158,0H8.074V-6.34H9.158ZM7.986-8.021a.647.647,0,0,1,.161-.445.6.6,0,0,1,.478-.182.614.614,0,0,1,.48.182.64.64,0,0,1,.164.445.619.619,0,0,1-.164.439.626.626,0,0,1-.48.176.616.616,0,0,1-.478-.176A.626.626,0,0,1,7.986-8.021ZM11.912-6.34l.029.7a2.341,2.341,0,0,1,1.881-.82,1.813,1.813,0,0,1,1.811,1.02,2.4,2.4,0,0,1,.823-.738,2.431,2.431,0,0,1,1.2-.281q2.086,0,2.121,2.209V0H18.691V-4.184A1.456,1.456,0,0,0,18.381-5.2a1.368,1.368,0,0,0-1.043-.337,1.437,1.437,0,0,0-1,.36,1.462,1.462,0,0,0-.463.97V0h-1.09V-4.154A1.209,1.209,0,0,0,13.43-5.537a1.45,1.45,0,0,0-1.459.908V0H10.887V-6.34ZM24.041.117a2.77,2.77,0,0,1-2.1-.847,3.142,3.142,0,0,1-.809-2.265v-.2a3.8,3.8,0,0,1,.36-1.685A2.811,2.811,0,0,1,22.5-6.038a2.534,2.534,0,0,1,1.4-.419,2.374,2.374,0,0,1,1.922.814,3.526,3.526,0,0,1,.686,2.332v.451H22.219a2.254,2.254,0,0,0,.548,1.515A1.722,1.722,0,0,0,24.1-.768,1.888,1.888,0,0,0,25.072-1a2.444,2.444,0,0,0,.7-.621l.662.516A2.662,2.662,0,0,1,24.041.117Zm-.135-5.684a1.446,1.446,0,0,0-1.1.478,2.321,2.321,0,0,0-.551,1.339H25.43v-.082a2.065,2.065,0,0,0-.445-1.28A1.361,1.361,0,0,0,23.906-5.566ZM32.033-3.34V0H30.908V-8.531h3.146a3.161,3.161,0,0,1,2.194.715,2.423,2.423,0,0,1,.794,1.893,2.391,2.391,0,0,1-.776,1.913,3.3,3.3,0,0,1-2.224.671Zm0-.92h2.021a2.021,2.021,0,0,0,1.383-.426,1.556,1.556,0,0,0,.48-1.23,1.608,1.608,0,0,0-.48-1.221,1.894,1.894,0,0,0-1.318-.475H32.033ZM40.863.117a2.77,2.77,0,0,1-2.1-.847,3.142,3.142,0,0,1-.809-2.265v-.2a3.8,3.8,0,0,1,.36-1.685,2.811,2.811,0,0,1,1.008-1.16,2.534,2.534,0,0,1,1.4-.419,2.374,2.374,0,0,1,1.922.814,3.526,3.526,0,0,1,.686,2.332v.451H39.041a2.254,2.254,0,0,0,.548,1.515,1.722,1.722,0,0,0,1.333.577A1.888,1.888,0,0,0,41.895-1a2.444,2.444,0,0,0,.7-.621l.662.516A2.662,2.662,0,0,1,40.863.117Zm-.135-5.684a1.446,1.446,0,0,0-1.1.478,2.321,2.321,0,0,0-.551,1.339h3.176v-.082a2.065,2.065,0,0,0-.445-1.28A1.361,1.361,0,0,0,40.729-5.566Zm6.926.2a3.248,3.248,0,0,0-.533-.041,1.428,1.428,0,0,0-1.447.908V0H44.59V-6.34h1.055l.018.732a1.688,1.688,0,0,1,1.512-.85,1.107,1.107,0,0,1,.48.082ZM49.828,0H48.744V-6.34h1.084ZM48.656-8.021a.647.647,0,0,1,.161-.445.6.6,0,0,1,.478-.182.614.614,0,0,1,.48.182.64.64,0,0,1,.164.445.619.619,0,0,1-.164.439.626.626,0,0,1-.48.176.616.616,0,0,1-.478-.176A.626.626,0,0,1,48.656-8.021Zm2.619,4.793A3.745,3.745,0,0,1,51.642-4.9a2.732,2.732,0,0,1,1.02-1.148,2.775,2.775,0,0,1,1.491-.4,2.674,2.674,0,0,1,2.095.9,3.449,3.449,0,0,1,.8,2.385V-3.1a3.777,3.777,0,0,1-.354,1.661A2.692,2.692,0,0,1,55.679-.293a2.807,2.807,0,0,1-1.515.41,2.667,2.667,0,0,1-2.089-.9,3.432,3.432,0,0,1-.8-2.373Zm1.09.129a2.712,2.712,0,0,0,.489,1.693,1.566,1.566,0,0,0,1.31.639,1.556,1.556,0,0,0,1.313-.647,2.966,2.966,0,0,0,.486-1.813,2.708,2.708,0,0,0-.5-1.69,1.574,1.574,0,0,0-1.315-.647,1.557,1.557,0,0,0-1.295.639A2.944,2.944,0,0,0,52.365-3.1Zm5.777-.123a3.714,3.714,0,0,1,.691-2.347,2.186,2.186,0,0,1,1.811-.888,2.2,2.2,0,0,1,1.764.762V-9h1.084V0h-1l-.053-.68a2.208,2.208,0,0,1-1.811.8,2.165,2.165,0,0,1-1.8-.9,3.756,3.756,0,0,1-.694-2.355Zm1.084.123a2.812,2.812,0,0,0,.445,1.688A1.44,1.44,0,0,0,60.9-.8a1.581,1.581,0,0,0,1.506-.926V-4.641a1.593,1.593,0,0,0-1.494-.9,1.446,1.446,0,0,0-1.242.615A3.1,3.1,0,0,0,59.227-3.1ZM65.139-.568a.679.679,0,0,1,.167-.469.636.636,0,0,1,.5-.187.655.655,0,0,1,.507.188.665.665,0,0,1,.173.469.629.629,0,0,1-.173.451.667.667,0,0,1-.507.182.648.648,0,0,1-.5-.182A.641.641,0,0,1,65.139-.568Zm.006-5.174a.679.679,0,0,1,.167-.469.636.636,0,0,1,.5-.187.655.655,0,0,1,.507.188.665.665,0,0,1,.173.469.629.629,0,0,1-.173.451.667.667,0,0,1-.507.182.648.648,0,0,1-.5-.182A.641.641,0,0,1,65.145-5.742ZM7.547,14H6.416L2.121,7.426V14H.99V5.469H2.121l4.307,6.6v-6.6H7.547Zm1.541-3.229A3.745,3.745,0,0,1,9.454,9.1a2.732,2.732,0,0,1,1.02-1.148,2.775,2.775,0,0,1,1.491-.4,2.674,2.674,0,0,1,2.095.9,3.449,3.449,0,0,1,.8,2.385V10.9a3.777,3.777,0,0,1-.354,1.661,2.692,2.692,0,0,1-1.014,1.146,2.807,2.807,0,0,1-1.515.41,2.667,2.667,0,0,1-2.089-.9,3.432,3.432,0,0,1-.8-2.373Zm1.09.129a2.712,2.712,0,0,0,.489,1.693,1.658,1.658,0,0,0,2.622-.009,2.966,2.966,0,0,0,.486-1.813,2.708,2.708,0,0,0-.5-1.69,1.574,1.574,0,0,0-1.315-.647,1.557,1.557,0,0,0-1.295.639A2.944,2.944,0,0,0,10.178,10.9Zm11.654,1.605L23.051,7.66h1.084L22.289,14H21.41L19.869,9.2l-1.5,4.8H17.49L15.65,7.66h1.078l1.248,4.746L19.453,7.66h.873Z" transform="translate(1131 159.752)" fill="#0c2339"/>
    <g id="Edit_tools" data-name="Edit tools">
      <path id="divider" d="M.25,19.5h-.5V0h.5Z" transform="translate(1134.5 107.252)" fill="#a5aabc"/>
      <g id="Edit_icon" data-name="Edit icon" transform="translate(75 -251.502)">
        <circle id="Ellipse_31" data-name="Ellipse 31" cx="9.5" cy="9.5" r="9.5" transform="translate(1070 359.254)" fill="#fff"/>
        <path id="Ellipse_31_-_Outline" data-name="Ellipse 31 - Outline" d="M9.5.5a9,9,0,1,0,9,9,9.01,9.01,0,0,0-9-9m0-.5A9.5,9.5,0,1,1,0,9.5,9.5,9.5,0,0,1,9.5,0Z" transform="translate(1070 359.254)" fill="rgba(132,131,131,0.4)"/>
        <path id="dots" d="M15.5,55.15a.75.75,0,1,1-.75-.75A.752.752,0,0,1,15.5,55.15Zm2.25-.75a.75.75,0,1,0,.75.75A.752.752,0,0,0,17.75,54.4Zm3,0a.75.75,0,1,0,.75.75A.752.752,0,0,0,20.75,54.4Z" transform="translate(1061.75 313.854)" fill="#a5aabc"/>
      </g>
      <g id="Refresh_icon" data-name="Refresh icon" transform="translate(75 -251.502)">
        <circle id="Ellipse_32" data-name="Ellipse 32" cx="9.5" cy="9.5" r="9.5" transform="translate(1094 359.254)" fill="#fff"/>
        <path id="Ellipse_32_-_Outline" data-name="Ellipse 32 - Outline" d="M9.5.5a9,9,0,1,0,9,9,9.01,9.01,0,0,0-9-9m0-.5A9.5,9.5,0,1,1,0,9.5,9.5,9.5,0,0,1,9.5,0Z" transform="translate(1094 359.254)" fill="rgba(132,131,131,0.4)"/>
        <g id="Refresh" transform="translate(1154.334 333.881) rotate(60)">
          <g id="_x37__11_" transform="translate(0.001 57.525)">
            <g id="Group_15" data-name="Group 15" transform="translate(0 0)">
              <path id="Path_26" data-name="Path 26" d="M5,65.02a3.438,3.438,0,0,1-3.307-2.5H2.708c.1-.094.147-.22.051-.314L1.585,61.023a.252.252,0,0,0-.349,0L.071,62.208c-.138.162-.046.22.051.314h.931a4.057,4.057,0,0,0,7.4,1.193l-.588-.235A3.436,3.436,0,0,1,5,65.02Zm4.9-4.06H9.01A4.06,4.06,0,0,0,1.4,59.708l.582.233a3.438,3.438,0,0,1,6.4,1.019H7.312c-.1.094-.189.152-.051.314L8.426,62.46a.252.252,0,0,0,.349,0l1.173-1.185C10.045,61.181,9.994,61.054,9.9,60.96Z" transform="translate(-0.001 -57.525)" fill="#a5aabc"/>
            </g>
          </g>
        </g>
      </g>
      <g id="Expand_icon" data-name="Expand icon" transform="translate(75 -251.502)">
        <circle id="Ellipse_34" data-name="Ellipse 34" cx="9.5" cy="9.5" r="9.5" transform="translate(1142 359.254)" fill="#fff"/>
        <path id="Ellipse_34_-_Outline" data-name="Ellipse 34 - Outline" d="M9.5.5a9,9,0,1,0,9,9,9.01,9.01,0,0,0-9-9m0-.5A9.5,9.5,0,1,1,0,9.5,9.5,9.5,0,0,1,9.5,0Z" transform="translate(1142 359.254)" fill="rgba(132,131,131,0.4)"/>
        <g id="expand" transform="translate(1143.625 361.091)">
          <path id="Path_29" data-name="Path 29" d="M14.25,4.125a.375.375,0,0,1,.375-.375h2.25a.375.375,0,0,1,.375.375v2.25a.375.375,0,0,1-.75,0V4.5H14.625A.375.375,0,0,1,14.25,4.125Z" transform="translate(-5.25)" fill="#a5aabc" fill-rule="evenodd"/>
          <path id="Path_30" data-name="Path 30" d="M16.765,3.86a.375.375,0,0,1,0,.53L14.14,7.015a.375.375,0,0,1-.53-.53L16.235,3.86A.375.375,0,0,1,16.765,3.86Z" transform="translate(-4.875 0)" fill="#a5aabc" fill-rule="evenodd"/>
          <path id="Path_31" data-name="Path 31" d="M4.125,14.25a.375.375,0,0,1,.375.375V16.5H6.375a.375.375,0,0,1,0,.75H4.125a.375.375,0,0,1-.375-.375v-2.25A.375.375,0,0,1,4.125,14.25Z" transform="translate(0 -5.25)" fill="#a5aabc" fill-rule="evenodd"/>
          <path id="Path_32" data-name="Path 32" d="M7.015,13.61a.375.375,0,0,1,0,.53L4.39,16.765a.375.375,0,1,1-.53-.53L6.485,13.61A.375.375,0,0,1,7.015,13.61Z" transform="translate(0 -4.875)" fill="#a5aabc" fill-rule="evenodd"/>
        </g>
      </g>
      <g id="Global_icon" data-name="Global icon" transform="translate(75 -251.502)">
        <circle id="Ellipse_33" data-name="Ellipse 33" cx="9.5" cy="9.5" r="9.5" transform="translate(1118 359.254)" fill="#fff"/>
        <path id="Ellipse_33_-_Outline" data-name="Ellipse 33 - Outline" d="M9.5.5a9,9,0,1,0,9,9,9.01,9.01,0,0,0-9-9m0-.5A9.5,9.5,0,1,1,0,9.5,9.5,9.5,0,0,1,9.5,0Z" transform="translate(1118 359.254)" fill="rgba(132,131,131,0.4)"/>
        <g id="earth" transform="translate(1123 364.254)">
          <path id="Path_85" data-name="Path 85" d="M8.173,1.905c-.068-.1-.14-.191-.216-.282A4.492,4.492,0,0,0,4.5,0H4.474A4.493,4.493,0,0,0,1.043,1.623q-.114.137-.216.282a4.484,4.484,0,0,0,0,5.19c.068.1.14.191.216.282A4.493,4.493,0,0,0,4.474,9H4.5A4.492,4.492,0,0,0,7.957,7.377c.076-.091.148-.185.216-.282a4.484,4.484,0,0,0,0-5.19ZM3.185.585A4.21,4.21,0,0,0,2.19,2.267a4.292,4.292,0,0,1-.849-.423A4.142,4.142,0,0,1,3.185.585ZM1.124,2.127a4.74,4.74,0,0,0,.961.485,7.172,7.172,0,0,0-.246,1.85H.37A4.107,4.107,0,0,1,1.124,2.127Zm-.741,2.7H1.846a7.093,7.093,0,0,0,.239,1.557,4.713,4.713,0,0,0-.961.485A4.1,4.1,0,0,1,.384,4.831Zm.958,2.323a4.318,4.318,0,0,1,.848-.422,4.206,4.206,0,0,0,.995,1.682A4.141,4.141,0,0,1,1.342,7.155ZM4.315,8.618c-.758-.1-1.412-.881-1.782-2a6.825,6.825,0,0,1,1.782-.273Zm0-2.642a7.032,7.032,0,0,0-1.886.3,6.846,6.846,0,0,1-.213-1.44h2.1Zm0-1.514H2.208A6.97,6.97,0,0,1,2.431,2.73a7.033,7.033,0,0,0,1.884.3V4.462Zm0-1.806a6.815,6.815,0,0,1-1.781-.273c.371-1.119,1.024-1.9,1.781-2ZM8.63,4.462H7.139A7.169,7.169,0,0,0,6.9,2.619a4.737,4.737,0,0,0,.98-.492A4.107,4.107,0,0,1,8.63,4.462ZM7.659,1.845a4.31,4.31,0,0,1-.868.429A4.2,4.2,0,0,0,5.782.574,4.142,4.142,0,0,1,7.659,1.845ZM4.685.385c.749.116,1.395.892,1.762,2a6.826,6.826,0,0,1-1.762.267Zm0,2.639a7.045,7.045,0,0,0,1.864-.289A6.954,6.954,0,0,1,6.77,4.462H4.685Zm0,1.807H6.763a6.874,6.874,0,0,1-.212,1.434,7.045,7.045,0,0,0-1.865-.289V4.831Zm0,3.784V6.345a6.838,6.838,0,0,1,1.763.267C6.08,7.723,5.434,8.5,4.685,8.615Zm1.1-.189a4.2,4.2,0,0,0,1.009-1.7,4.315,4.315,0,0,1,.867.429A4.143,4.143,0,0,1,5.782,8.426ZM7.876,6.873A4.725,4.725,0,0,0,6.9,6.381a7.091,7.091,0,0,0,.236-1.55H8.616A4.1,4.1,0,0,1,7.876,6.873Z" fill="#a5aabc"/>
        </g>
      </g>
    </g>
    <g id="Group_146" data-name="Group 146" transform="translate(689 204)">
      <g id="Group_126" data-name="Group 126" clip-path="url(#clip-path)">
        <path id="Path_160" data-name="Path 160" d="M18.022,3.5,4.077,26.738,18.022,49.976h28.1L60.064,26.738,46.119,3.5h-28.1m-1.7-3H47.817L63.563,26.738,47.817,52.976H16.324L.578,26.738Z" transform="translate(-0.334 -0.297)" fill="#a1a1a1"/>
      </g>
    </g>
    <g id="Group_147" data-name="Group 147" transform="translate(625.528 303.118)">
      <g id="Group_126-2" data-name="Group 126" clip-path="url(#clip-path-2)">
        <path id="Path_160-2" data-name="Path 160" d="M18.022,3.5,4.077,26.738,18.022,49.976h28.1L60.064,26.738,46.119,3.5h-28.1m-1.7-3H47.817L63.563,26.738,47.817,52.976H16.324L.578,26.738Z" transform="translate(-0.334 -0.297)" fill="#3cca8e"/>
      </g>
    </g>
    <g id="Group_150" data-name="Group 150" transform="translate(562.056 501.355)">
      <g id="Group_126-3" data-name="Group 126" clip-path="url(#clip-path-2)">
        <path id="Path_160-3" data-name="Path 160" d="M18.022,3.5,4.077,26.738,18.022,49.976h28.1L60.064,26.738,46.119,3.5h-28.1m-1.7-3H47.817L63.563,26.738,47.817,52.976H16.324L.578,26.738Z" transform="translate(-0.334 -0.297)" fill="#3cca8e"/>
      </g>
    </g>
    <g id="Group_149" data-name="Group 149" transform="translate(625.528 402.237)">
      <g id="Group_126-4" data-name="Group 126" clip-path="url(#clip-path-2)">
        <path id="Path_160-4" data-name="Path 160" d="M18.022,3.5,4.077,26.738,18.022,49.976h28.1L60.064,26.738,46.119,3.5h-28.1m-1.7-3H47.817L63.563,26.738,47.817,52.976H16.324L.578,26.738Z" transform="translate(-0.334 -0.297)" fill="#3cca8e"/>
      </g>
    </g>
    <g id="Group_148" data-name="Group 148" transform="translate(752.472 303.118)">
      <g id="Group_126-5" data-name="Group 126" clip-path="url(#clip-path-2)">
        <path id="Path_160-5" data-name="Path 160" d="M18.022,3.5,4.077,26.738,18.022,49.976h28.1L60.064,26.738,46.119,3.5h-28.1m-1.7-3H47.817L63.563,26.738,47.817,52.976H16.324L.578,26.738Z" transform="translate(-0.334 -0.297)" fill="#3cca8e"/>
      </g>
    </g>
    <g id="Group_151" data-name="Group 151" transform="translate(689 501.355)">
      <g id="Group_126-6" data-name="Group 126" clip-path="url(#clip-path-2)">
        <path id="Path_160-6" data-name="Path 160" d="M18.022,3.5,4.077,26.738,18.022,49.976h28.1L60.064,26.738,46.119,3.5h-28.1m-1.7-3H47.817L63.563,26.738,47.817,52.976H16.324L.578,26.738Z" transform="translate(-0.334 -0.297)" fill="#3cca8e"/>
      </g>
    </g>
    <path id="Path_161" data-name="Path 161" d="M6937.3-1142.882h-1V-1153.9H6810.764v11.018h-1V-1154.9H6937.3Z" transform="translate(-6153 1446)" fill="#707070"/>
    <path id="Path_164" data-name="Path 164" d="M6937.3-1142.882h-1V-1153.9H6810.764v11.018h-1V-1154.9H6937.3Z" transform="translate(-6216.268 1644.237)" fill="#707070"/>
    <path id="Path_162" data-name="Path 162" d="M6873.7-1154.793l-.464-34.318,1-.013.464,34.318Z" transform="translate(-6153 1446)" fill="#707070"/>
    <path id="Path_966" data-name="Path 966" d="M0,0H59V13H0Z" transform="translate(692 258)" fill="#fff"/>
    <path id="Path_163" data-name="Path 163" d="M6873.7-1142.877l-.464-46.237,1-.01.464,46.237Z" transform="translate(-6216.473 1545.118)" fill="#707070"/>
    <path id="Path_165" data-name="Path 165" d="M6873.7-1153.994l-.463-35.118,1-.013.463,35.118Z" transform="translate(-6216.472 1644.237)" fill="#707070"/>
    <path id="Path_967" data-name="Path 967" d="M0,0H48V13H0Z" transform="translate(636 360)" fill="#fff"/>
    <path id="Path_968" data-name="Path 968" d="M7.289-1.119a2.6,2.6,0,0,1-1.21.929A4.887,4.887,0,0,1,4.271.117,3.506,3.506,0,0,1,2.42-.372,3.26,3.26,0,0,1,1.169-1.764,4.806,4.806,0,0,1,.715-3.855V-4.6a4.487,4.487,0,0,1,.9-2.988A3.134,3.134,0,0,1,4.143-8.648a3.237,3.237,0,0,1,2.15.683,2.974,2.974,0,0,1,1,1.937H6.164a1.86,1.86,0,0,0-2.016-1.7,1.991,1.991,0,0,0-1.714.795,3.88,3.88,0,0,0-.589,2.3v.7A3.636,3.636,0,0,0,2.5-1.65,2.127,2.127,0,0,0,4.277-.8a3.921,3.921,0,0,0,1.107-.14,1.713,1.713,0,0,0,.785-.473V-3.328H4.2v-.92H7.289ZM11.625.117a2.77,2.77,0,0,1-2.1-.847,3.142,3.142,0,0,1-.809-2.265v-.2a3.8,3.8,0,0,1,.36-1.685,2.811,2.811,0,0,1,1.008-1.16,2.534,2.534,0,0,1,1.4-.419,2.374,2.374,0,0,1,1.922.814A3.526,3.526,0,0,1,14.1-3.311v.451H9.8a2.254,2.254,0,0,0,.548,1.515,1.722,1.722,0,0,0,1.333.577A1.888,1.888,0,0,0,12.656-1a2.444,2.444,0,0,0,.7-.621l.662.516A2.662,2.662,0,0,1,11.625.117ZM11.49-5.566a1.446,1.446,0,0,0-1.1.478A2.321,2.321,0,0,0,9.838-3.75h3.176v-.082a2.065,2.065,0,0,0-.445-1.28A1.361,1.361,0,0,0,11.49-5.566Zm3.574,2.338A3.745,3.745,0,0,1,15.431-4.9a2.732,2.732,0,0,1,1.02-1.148,2.775,2.775,0,0,1,1.491-.4,2.674,2.674,0,0,1,2.095.9,3.449,3.449,0,0,1,.8,2.385V-3.1a3.777,3.777,0,0,1-.354,1.661A2.692,2.692,0,0,1,19.468-.293a2.807,2.807,0,0,1-1.515.41,2.667,2.667,0,0,1-2.089-.9,3.432,3.432,0,0,1-.8-2.373Zm1.09.129a2.712,2.712,0,0,0,.489,1.693,1.566,1.566,0,0,0,1.31.639,1.556,1.556,0,0,0,1.313-.647,2.966,2.966,0,0,0,.486-1.813,2.708,2.708,0,0,0-.5-1.69,1.574,1.574,0,0,0-1.315-.647,1.557,1.557,0,0,0-1.295.639A2.944,2.944,0,0,0,16.154-3.1Zm5.783-.123a3.726,3.726,0,0,1,.686-2.358,2.192,2.192,0,0,1,1.816-.876,2.181,2.181,0,0,1,1.811.82l.053-.7h.99V-.152a2.579,2.579,0,0,1-.729,1.939A2.692,2.692,0,0,1,24.6,2.5,3.261,3.261,0,0,1,23.262,2.2a2.31,2.31,0,0,1-1-.8l.563-.65a2.12,2.12,0,0,0,1.705.861,1.661,1.661,0,0,0,1.233-.445A1.7,1.7,0,0,0,26.2-.088V-.633a2.228,2.228,0,0,1-1.775.75,2.166,2.166,0,0,1-1.8-.9A3.918,3.918,0,0,1,21.938-3.223Zm1.09.123a2.843,2.843,0,0,0,.439,1.685A1.428,1.428,0,0,0,24.7-.8,1.588,1.588,0,0,0,26.2-1.734V-4.629a1.606,1.606,0,0,0-1.494-.908,1.441,1.441,0,0,0-1.236.615A3.1,3.1,0,0,0,23.027-3.1Zm8.965-2.268a3.248,3.248,0,0,0-.533-.041,1.428,1.428,0,0,0-1.447.908V0H28.928V-6.34h1.055L30-5.607a1.688,1.688,0,0,1,1.512-.85,1.107,1.107,0,0,1,.48.082ZM36.668,0a2.277,2.277,0,0,1-.152-.668,2.419,2.419,0,0,1-1.8.785,2.238,2.238,0,0,1-1.538-.53,1.716,1.716,0,0,1-.6-1.345A1.792,1.792,0,0,1,33.325-3.3a3.55,3.55,0,0,1,2.118-.548H36.5v-.5a1.217,1.217,0,0,0-.34-.905,1.366,1.366,0,0,0-1-.337,1.581,1.581,0,0,0-.973.293.863.863,0,0,0-.393.709H32.7a1.5,1.5,0,0,1,.337-.917,2.3,2.3,0,0,1,.914-.7,3.075,3.075,0,0,1,1.269-.258,2.506,2.506,0,0,1,1.717.548A1.976,1.976,0,0,1,37.582-4.4v2.918A3.567,3.567,0,0,0,37.8-.094V0Zm-1.8-.826a1.905,1.905,0,0,0,.967-.264,1.6,1.6,0,0,0,.662-.686v-1.3h-.85q-1.992,0-1.992,1.166a.987.987,0,0,0,.34.8A1.306,1.306,0,0,0,34.869-.826ZM44.637-3.1a3.8,3.8,0,0,1-.662,2.332,2.122,2.122,0,0,1-1.793.885,2.325,2.325,0,0,1-1.816-.732V2.438H39.281V-6.34h.99l.053.7a2.233,2.233,0,0,1,1.84-.82,2.162,2.162,0,0,1,1.808.861,3.838,3.838,0,0,1,.665,2.4Zm-1.084-.123A2.8,2.8,0,0,0,43.1-4.916a1.472,1.472,0,0,0-1.254-.621,1.593,1.593,0,0,0-1.477.873v3.029a1.6,1.6,0,0,0,1.488.867,1.465,1.465,0,0,0,1.239-.618A3.058,3.058,0,0,0,43.553-3.223ZM47.1-5.572a2.3,2.3,0,0,1,1.875-.885q2.01,0,2.027,2.268V0H49.916V-4.2A1.459,1.459,0,0,0,49.6-5.209a1.256,1.256,0,0,0-.958-.328,1.564,1.564,0,0,0-.926.281,1.91,1.91,0,0,0-.621.738V0H46.014V-9H47.1Zm7.6,3.984L56.174-6.34h1.16L54.785.979Q54.193,2.561,52.9,2.561L52.7,2.543l-.4-.076V1.588l.293.023a1.442,1.442,0,0,0,.858-.223,1.611,1.611,0,0,0,.507-.814l.24-.645L51.932-6.34h1.184Z" transform="translate(693.8 267.882)" fill="#0c2339"/>
    <path id="Path_969" data-name="Path 969" d="M0,0H48V28H0Z" transform="translate(635 455)" fill="#fff"/>
    <path id="Path_970" data-name="Path 970" d="M5.7-2.232H2.127L1.324,0H.164L3.422-8.531h.984L7.67,0H6.516Zm-3.234-.92h2.9L3.914-7.143Zm7.2-3.187.029.7a2.341,2.341,0,0,1,1.881-.82,1.813,1.813,0,0,1,1.811,1.02,2.4,2.4,0,0,1,.823-.738,2.431,2.431,0,0,1,1.2-.281q2.086,0,2.121,2.209V0H16.447V-4.184A1.456,1.456,0,0,0,16.137-5.2a1.368,1.368,0,0,0-1.043-.337,1.437,1.437,0,0,0-1,.36,1.462,1.462,0,0,0-.463.97V0h-1.09V-4.154a1.209,1.209,0,0,0-1.354-1.383,1.45,1.45,0,0,0-1.459.908V0H8.643V-6.34ZM21.8.117a2.77,2.77,0,0,1-2.1-.847,3.142,3.142,0,0,1-.809-2.265v-.2a3.8,3.8,0,0,1,.36-1.685,2.811,2.811,0,0,1,1.008-1.16,2.534,2.534,0,0,1,1.4-.419,2.374,2.374,0,0,1,1.922.814,3.526,3.526,0,0,1,.686,2.332v.451H19.975a2.254,2.254,0,0,0,.548,1.515,1.722,1.722,0,0,0,1.333.577A1.888,1.888,0,0,0,22.828-1a2.444,2.444,0,0,0,.7-.621l.662.516A2.662,2.662,0,0,1,21.8.117Zm-.135-5.684a1.446,1.446,0,0,0-1.1.478A2.321,2.321,0,0,0,20.01-3.75h3.176v-.082a2.065,2.065,0,0,0-.445-1.28A1.361,1.361,0,0,0,21.662-5.566Zm6.926.2a3.248,3.248,0,0,0-.533-.041,1.428,1.428,0,0,0-1.447.908V0H25.523V-6.34h1.055l.018.732a1.688,1.688,0,0,1,1.512-.85,1.107,1.107,0,0,1,.48.082ZM30.762,0H29.678V-6.34h1.084ZM29.59-8.021a.647.647,0,0,1,.161-.445.6.6,0,0,1,.478-.182.614.614,0,0,1,.48.182.64.64,0,0,1,.164.445.619.619,0,0,1-.164.439.626.626,0,0,1-.48.176.616.616,0,0,1-.478-.176A.626.626,0,0,1,29.59-8.021ZM35.039-.768a1.561,1.561,0,0,0,1.014-.352A1.237,1.237,0,0,0,36.533-2h1.025a1.966,1.966,0,0,1-.375,1.037,2.47,2.47,0,0,1-.923.785,2.663,2.663,0,0,1-1.222.293,2.612,2.612,0,0,1-2.06-.864,3.442,3.442,0,0,1-.765-2.364v-.182a3.817,3.817,0,0,1,.34-1.646,2.588,2.588,0,0,1,.976-1.119,2.771,2.771,0,0,1,1.5-.4,2.543,2.543,0,0,1,1.772.639,2.283,2.283,0,0,1,.753,1.658H36.533a1.494,1.494,0,0,0-.466-1.011,1.449,1.449,0,0,0-1.034-.4,1.517,1.517,0,0,0-1.28.595,2.793,2.793,0,0,0-.454,1.72v.205a2.737,2.737,0,0,0,.451,1.688A1.524,1.524,0,0,0,35.039-.768ZM42.691,0a2.277,2.277,0,0,1-.152-.668,2.419,2.419,0,0,1-1.8.785A2.238,2.238,0,0,1,39.2-.413a1.716,1.716,0,0,1-.6-1.345A1.792,1.792,0,0,1,39.349-3.3a3.55,3.55,0,0,1,2.118-.548h1.055v-.5a1.217,1.217,0,0,0-.34-.905,1.366,1.366,0,0,0-1-.337,1.581,1.581,0,0,0-.973.293.863.863,0,0,0-.393.709h-1.09a1.5,1.5,0,0,1,.337-.917,2.3,2.3,0,0,1,.914-.7,3.075,3.075,0,0,1,1.269-.258,2.506,2.506,0,0,1,1.717.548A1.976,1.976,0,0,1,43.605-4.4v2.918a3.567,3.567,0,0,0,.223,1.389V0Zm-1.8-.826a1.905,1.905,0,0,0,.967-.264,1.6,1.6,0,0,0,.662-.686v-1.3h-.85q-1.992,0-1.992,1.166a.987.987,0,0,0,.34.8A1.306,1.306,0,0,0,40.893-.826Z" transform="translate(635.764 369.882)" fill="#0c2339"/>
    <path id="Path_971" data-name="Path 971" d="M-16.113,0h-1.131l-4.295-6.574V0H-22.67V-8.531h1.131l4.307,6.6v-6.6h1.119Zm1.541-3.229A3.745,3.745,0,0,1-14.206-4.9a2.732,2.732,0,0,1,1.02-1.148,2.775,2.775,0,0,1,1.491-.4,2.674,2.674,0,0,1,2.095.9,3.449,3.449,0,0,1,.8,2.385V-3.1a3.777,3.777,0,0,1-.354,1.661A2.692,2.692,0,0,1-10.169-.293a2.807,2.807,0,0,1-1.515.41,2.667,2.667,0,0,1-2.089-.9,3.432,3.432,0,0,1-.8-2.373Zm1.09.129a2.712,2.712,0,0,0,.489,1.693,1.566,1.566,0,0,0,1.31.639,1.556,1.556,0,0,0,1.313-.647,2.966,2.966,0,0,0,.486-1.813,2.708,2.708,0,0,0-.5-1.69A1.574,1.574,0,0,0-11.7-5.566a1.557,1.557,0,0,0-1.295.639A2.944,2.944,0,0,0-13.482-3.1Zm9.105-2.268a3.248,3.248,0,0,0-.533-.041A1.428,1.428,0,0,0-6.357-4.5V0H-7.441V-6.34h1.055l.018.732a1.688,1.688,0,0,1,1.512-.85,1.107,1.107,0,0,1,.48.082Zm2.76-2.508V-6.34H-.434V-5.5H-1.617v3.937a.88.88,0,0,0,.158.572A.666.666,0,0,0-.92-.8,2.624,2.624,0,0,0-.4-.873V0a3.161,3.161,0,0,1-.832.116,1.35,1.35,0,0,1-1.1-.439A1.888,1.888,0,0,1-2.7-1.57V-5.5H-3.855V-6.34H-2.7V-7.875Zm3.533,2.3a2.3,2.3,0,0,1,1.875-.885q2.01,0,2.027,2.268V0H4.734V-4.2a1.459,1.459,0,0,0-.313-1.014,1.256,1.256,0,0,0-.958-.328,1.564,1.564,0,0,0-.926.281,1.91,1.91,0,0,0-.621.738V0H.832V-9H1.916ZM10.072.117a2.77,2.77,0,0,1-2.1-.847,3.142,3.142,0,0,1-.809-2.265v-.2a3.8,3.8,0,0,1,.36-1.685,2.811,2.811,0,0,1,1.008-1.16,2.534,2.534,0,0,1,1.4-.419,2.374,2.374,0,0,1,1.922.814,3.526,3.526,0,0,1,.686,2.332v.451H8.25A2.254,2.254,0,0,0,8.8-1.345a1.722,1.722,0,0,0,1.333.577A1.888,1.888,0,0,0,11.1-1a2.444,2.444,0,0,0,.7-.621l.662.516A2.662,2.662,0,0,1,10.072.117ZM9.938-5.566a1.446,1.446,0,0,0-1.1.478A2.321,2.321,0,0,0,8.285-3.75h3.176v-.082a2.065,2.065,0,0,0-.445-1.28A1.361,1.361,0,0,0,9.938-5.566Zm6.926.2a3.248,3.248,0,0,0-.533-.041,1.428,1.428,0,0,0-1.447.908V0H13.8V-6.34h1.055l.018.732a1.688,1.688,0,0,1,1.512-.85,1.107,1.107,0,0,1,.48.082Zm2.021-.973.035.8a2.31,2.31,0,0,1,1.9-.914q2.01,0,2.027,2.268V0H21.762V-4.2a1.459,1.459,0,0,0-.313-1.014,1.256,1.256,0,0,0-.958-.328,1.564,1.564,0,0,0-.926.281,1.91,1.91,0,0,0-.621.738V0H17.859V-6.34ZM-16.541,11.768h-3.574l-.8,2.232h-1.16l3.258-8.531h.984L-14.572,14h-1.154Zm-3.234-.92h2.9l-1.453-3.99Zm7.2-3.187.029.7a2.341,2.341,0,0,1,1.881-.82,1.813,1.813,0,0,1,1.811,1.02,2.4,2.4,0,0,1,.823-.738,2.431,2.431,0,0,1,1.2-.281q2.086,0,2.121,2.209V14H-5.795V9.816A1.456,1.456,0,0,0-6.105,8.8a1.368,1.368,0,0,0-1.043-.337,1.437,1.437,0,0,0-1,.36,1.462,1.462,0,0,0-.463.97V14H-9.7V9.846a1.209,1.209,0,0,0-1.354-1.383,1.45,1.45,0,0,0-1.459.908V14H-13.6V7.66ZM-.445,14.117a2.77,2.77,0,0,1-2.1-.847,3.142,3.142,0,0,1-.809-2.265v-.2a3.8,3.8,0,0,1,.36-1.685,2.811,2.811,0,0,1,1.008-1.16,2.534,2.534,0,0,1,1.4-.419,2.374,2.374,0,0,1,1.922.814,3.526,3.526,0,0,1,.686,2.332v.451H-2.268a2.254,2.254,0,0,0,.548,1.515,1.722,1.722,0,0,0,1.333.577A1.888,1.888,0,0,0,.586,13a2.444,2.444,0,0,0,.7-.621l.662.516A2.662,2.662,0,0,1-.445,14.117ZM-.58,8.434a1.446,1.446,0,0,0-1.1.478,2.321,2.321,0,0,0-.551,1.339H.943v-.082A2.065,2.065,0,0,0,.5,8.888,1.361,1.361,0,0,0-.58,8.434Zm6.926.2a3.248,3.248,0,0,0-.533-.041A1.428,1.428,0,0,0,4.365,9.5V14H3.281V7.66H4.336l.018.732a1.688,1.688,0,0,1,1.512-.85,1.107,1.107,0,0,1,.48.082ZM8.52,14H7.436V7.66H8.52ZM7.348,5.979a.647.647,0,0,1,.161-.445.6.6,0,0,1,.478-.182.614.614,0,0,1,.48.182.64.64,0,0,1,.164.445.619.619,0,0,1-.164.439.626.626,0,0,1-.48.176.616.616,0,0,1-.478-.176A.626.626,0,0,1,7.348,5.979ZM12.8,13.232a1.561,1.561,0,0,0,1.014-.352,1.237,1.237,0,0,0,.48-.879h1.025a1.966,1.966,0,0,1-.375,1.037,2.47,2.47,0,0,1-.923.785,2.663,2.663,0,0,1-1.222.293,2.612,2.612,0,0,1-2.06-.864,3.442,3.442,0,0,1-.765-2.364v-.182a3.817,3.817,0,0,1,.34-1.646,2.588,2.588,0,0,1,.976-1.119,2.771,2.771,0,0,1,1.5-.4,2.543,2.543,0,0,1,1.772.639,2.283,2.283,0,0,1,.753,1.658H14.291a1.494,1.494,0,0,0-.466-1.011,1.449,1.449,0,0,0-1.034-.4,1.517,1.517,0,0,0-1.28.595,2.793,2.793,0,0,0-.454,1.72v.205a2.737,2.737,0,0,0,.451,1.688A1.524,1.524,0,0,0,12.8,13.232ZM20.449,14a2.277,2.277,0,0,1-.152-.668,2.419,2.419,0,0,1-1.8.785,2.238,2.238,0,0,1-1.538-.53,1.716,1.716,0,0,1-.6-1.345,1.792,1.792,0,0,1,.753-1.538,3.55,3.55,0,0,1,2.118-.548h1.055v-.5a1.217,1.217,0,0,0-.34-.905,1.366,1.366,0,0,0-1-.337,1.581,1.581,0,0,0-.973.293.863.863,0,0,0-.393.709h-1.09a1.5,1.5,0,0,1,.337-.917,2.3,2.3,0,0,1,.914-.7A3.075,3.075,0,0,1,19,7.543a2.506,2.506,0,0,1,1.717.548A1.976,1.976,0,0,1,21.363,9.6v2.918a3.567,3.567,0,0,0,.223,1.389V14Zm-1.8-.826a1.905,1.905,0,0,0,.967-.264,1.6,1.6,0,0,0,.662-.686v-1.3h-.85q-1.992,0-1.992,1.166a.987.987,0,0,0,.34.8A1.306,1.306,0,0,0,18.65,13.174Z" transform="translate(659.228 466.118)" fill="#0c2339"/>
    <path id="Path_972" data-name="Path 972" d="M-13.125-2.707a3.139,3.139,0,0,1-1,2.089,3.274,3.274,0,0,1-2.235.735A3.006,3.006,0,0,1-18.782-.967a4.361,4.361,0,0,1-.911-2.9v-.82a4.861,4.861,0,0,1,.425-2.092,3.173,3.173,0,0,1,1.2-1.386,3.353,3.353,0,0,1,1.8-.483,3.083,3.083,0,0,1,2.18.759,3.176,3.176,0,0,1,.955,2.1h-1.131a2.451,2.451,0,0,0-.636-1.481,1.924,1.924,0,0,0-1.368-.458,2.013,2.013,0,0,0-1.69.8,3.661,3.661,0,0,0-.612,2.269v.827a3.764,3.764,0,0,0,.58,2.211A1.874,1.874,0,0,0-16.359-.8a2.165,2.165,0,0,0,1.438-.425,2.357,2.357,0,0,0,.665-1.479ZM-7.846,0A2.277,2.277,0,0,1-8-.668,2.419,2.419,0,0,1-9.8.117a2.238,2.238,0,0,1-1.538-.53,1.716,1.716,0,0,1-.6-1.345A1.792,1.792,0,0,1-11.188-3.3,3.55,3.55,0,0,1-9.07-3.844h1.055v-.5a1.217,1.217,0,0,0-.34-.905,1.366,1.366,0,0,0-1-.337,1.581,1.581,0,0,0-.973.293.863.863,0,0,0-.393.709h-1.09a1.5,1.5,0,0,1,.337-.917,2.3,2.3,0,0,1,.914-.7,3.075,3.075,0,0,1,1.269-.258,2.506,2.506,0,0,1,1.717.548A1.976,1.976,0,0,1-6.932-4.4v2.918A3.567,3.567,0,0,0-6.709-.094V0Zm-1.8-.826a1.905,1.905,0,0,0,.967-.264,1.6,1.6,0,0,0,.662-.686v-1.3h-.85q-1.992,0-1.992,1.166a.987.987,0,0,0,.34.8A1.306,1.306,0,0,0-9.645-.826ZM-4.207-6.34l.035.8a2.31,2.31,0,0,1,1.9-.914q2.01,0,2.027,2.268V0H-1.33V-4.2a1.459,1.459,0,0,0-.313-1.014A1.256,1.256,0,0,0-2.6-5.537a1.564,1.564,0,0,0-.926.281,1.91,1.91,0,0,0-.621.738V0H-5.232V-6.34ZM5.3,0A2.277,2.277,0,0,1,5.15-.668a2.419,2.419,0,0,1-1.8.785,2.238,2.238,0,0,1-1.538-.53,1.716,1.716,0,0,1-.6-1.345A1.792,1.792,0,0,1,1.96-3.3a3.55,3.55,0,0,1,2.118-.548H5.133v-.5a1.217,1.217,0,0,0-.34-.905,1.366,1.366,0,0,0-1-.337,1.581,1.581,0,0,0-.973.293.863.863,0,0,0-.393.709H1.336A1.5,1.5,0,0,1,1.673-5.5a2.3,2.3,0,0,1,.914-.7,3.075,3.075,0,0,1,1.269-.258,2.506,2.506,0,0,1,1.717.548A1.976,1.976,0,0,1,6.217-4.4v2.918A3.567,3.567,0,0,0,6.439-.094V0ZM3.5-.826a1.905,1.905,0,0,0,.967-.264,1.6,1.6,0,0,0,.662-.686v-1.3h-.85q-1.992,0-1.992,1.166a.987.987,0,0,0,.34.8A1.306,1.306,0,0,0,3.5-.826Zm4.148-2.4a3.714,3.714,0,0,1,.691-2.347,2.186,2.186,0,0,1,1.811-.888,2.2,2.2,0,0,1,1.764.762V-9H13V0h-1l-.053-.68a2.208,2.208,0,0,1-1.811.8,2.165,2.165,0,0,1-1.8-.9,3.756,3.756,0,0,1-.694-2.355ZM8.736-3.1a2.812,2.812,0,0,0,.445,1.688,1.44,1.44,0,0,0,1.23.609,1.581,1.581,0,0,0,1.506-.926V-4.641a1.593,1.593,0,0,0-1.494-.9,1.446,1.446,0,0,0-1.242.615A3.1,3.1,0,0,0,8.736-3.1ZM18.6,0a2.277,2.277,0,0,1-.152-.668,2.419,2.419,0,0,1-1.8.785A2.238,2.238,0,0,1,15.1-.413a1.716,1.716,0,0,1-.6-1.345A1.792,1.792,0,0,1,15.255-3.3a3.55,3.55,0,0,1,2.118-.548h1.055v-.5a1.217,1.217,0,0,0-.34-.905,1.366,1.366,0,0,0-1-.337,1.581,1.581,0,0,0-.973.293.863.863,0,0,0-.393.709h-1.09a1.5,1.5,0,0,1,.337-.917,2.3,2.3,0,0,1,.914-.7,3.075,3.075,0,0,1,1.269-.258,2.506,2.506,0,0,1,1.717.548A1.976,1.976,0,0,1,19.512-4.4v2.918a3.567,3.567,0,0,0,.223,1.389V0ZM16.8-.826a1.905,1.905,0,0,0,.967-.264,1.6,1.6,0,0,0,.662-.686v-1.3h-.85q-1.992,0-1.992,1.166a.987.987,0,0,0,.34.8A1.306,1.306,0,0,0,16.8-.826Z" transform="translate(592.228 566.237)" fill="#0c2339"/>
    <path id="Path_973" data-name="Path 973" d="M-59.4-8.531v5.8a2.721,2.721,0,0,1-.759,1.975A3.058,3.058,0,0,1-62.2.105l-.3.012a3.193,3.193,0,0,1-2.232-.756,2.7,2.7,0,0,1-.844-2.08V-8.531h1.113v5.777a1.951,1.951,0,0,0,.51,1.438A1.959,1.959,0,0,0-62.5-.8a1.972,1.972,0,0,0,1.462-.51,1.948,1.948,0,0,0,.507-1.436V-8.531Zm2.631,2.191.035.8a2.31,2.31,0,0,1,1.9-.914q2.01,0,2.027,2.268V0h-1.084V-4.2a1.459,1.459,0,0,0-.313-1.014,1.256,1.256,0,0,0-.958-.328,1.564,1.564,0,0,0-.926.281,1.91,1.91,0,0,0-.621.738V0H-57.8V-6.34ZM-50,0h-1.084V-6.34H-50ZM-51.17-8.021a.647.647,0,0,1,.161-.445.6.6,0,0,1,.478-.182.614.614,0,0,1,.48.182.64.64,0,0,1,.164.445.619.619,0,0,1-.164.439.626.626,0,0,1-.48.176.616.616,0,0,1-.478-.176A.626.626,0,0,1-51.17-8.021Zm4.377.146V-6.34h1.184V-5.5h-1.184v3.937a.88.88,0,0,0,.158.572A.666.666,0,0,0-46.1-.8a2.624,2.624,0,0,0,.516-.07V0a3.161,3.161,0,0,1-.832.116,1.35,1.35,0,0,1-1.1-.439,1.888,1.888,0,0,1-.369-1.248V-5.5h-1.154V-6.34h1.154V-7.875Zm5.08,7.992a2.77,2.77,0,0,1-2.1-.847,3.142,3.142,0,0,1-.809-2.265v-.2a3.8,3.8,0,0,1,.36-1.685,2.811,2.811,0,0,1,1.008-1.16,2.534,2.534,0,0,1,1.4-.419,2.374,2.374,0,0,1,1.922.814,3.526,3.526,0,0,1,.686,2.332v.451h-4.295a2.254,2.254,0,0,0,.548,1.515,1.722,1.722,0,0,0,1.333.577A1.888,1.888,0,0,0-40.682-1a2.444,2.444,0,0,0,.7-.621l.662.516A2.662,2.662,0,0,1-41.713.117Zm-.135-5.684a1.446,1.446,0,0,0-1.1.478A2.321,2.321,0,0,0-43.5-3.75h3.176v-.082a2.065,2.065,0,0,0-.445-1.28A1.361,1.361,0,0,0-41.848-5.566Zm3.6,2.344a3.714,3.714,0,0,1,.691-2.347,2.186,2.186,0,0,1,1.811-.888,2.2,2.2,0,0,1,1.764.762V-9H-32.9V0h-1l-.053-.68a2.208,2.208,0,0,1-1.811.8,2.165,2.165,0,0,1-1.8-.9,3.756,3.756,0,0,1-.694-2.355Zm1.084.123a2.812,2.812,0,0,0,.445,1.688A1.44,1.44,0,0,0-35.49-.8a1.581,1.581,0,0,0,1.506-.926V-4.641a1.593,1.593,0,0,0-1.494-.9,1.446,1.446,0,0,0-1.242.615A3.1,3.1,0,0,0-37.166-3.1Zm11.6-.7a5.29,5.29,0,0,1-2.106-1.022,1.954,1.954,0,0,1-.659-1.5,2.064,2.064,0,0,1,.806-1.667,3.2,3.2,0,0,1,2.095-.659,3.5,3.5,0,0,1,1.567.34,2.577,2.577,0,0,1,1.066.938,2.4,2.4,0,0,1,.378,1.307h-1.131a1.56,1.56,0,0,0-.492-1.22,2,2,0,0,0-1.389-.444,2.049,2.049,0,0,0-1.3.367,1.224,1.224,0,0,0-.466,1.018,1.1,1.1,0,0,0,.442.883,4.339,4.339,0,0,0,1.506.66,6.987,6.987,0,0,1,1.664.66,2.525,2.525,0,0,1,.891.841,2.146,2.146,0,0,1,.29,1.131,1.993,1.993,0,0,1-.809,1.661,3.448,3.448,0,0,1-2.162.624A4.01,4.01,0,0,1-27.012-.22a2.761,2.761,0,0,1-1.175-.923,2.252,2.252,0,0,1-.413-1.33h1.131A1.469,1.469,0,0,0-26.9-1.251,2.4,2.4,0,0,0-25.371-.8a2.211,2.211,0,0,0,1.365-.363,1.18,1.18,0,0,0,.475-.99,1.158,1.158,0,0,0-.439-.97A5.066,5.066,0,0,0-25.564-3.8Zm5.906-4.072V-6.34h1.184V-5.5h-1.184v3.937a.88.88,0,0,0,.158.572.666.666,0,0,0,.539.191,2.624,2.624,0,0,0,.516-.07V0a3.161,3.161,0,0,1-.832.116,1.35,1.35,0,0,1-1.1-.439,1.888,1.888,0,0,1-.369-1.248V-5.5H-21.9V-6.34h1.154V-7.875ZM-13.295,0a2.277,2.277,0,0,1-.152-.668,2.419,2.419,0,0,1-1.8.785,2.238,2.238,0,0,1-1.538-.53,1.716,1.716,0,0,1-.6-1.345A1.792,1.792,0,0,1-16.638-3.3a3.55,3.55,0,0,1,2.118-.548h1.055v-.5a1.217,1.217,0,0,0-.34-.905,1.366,1.366,0,0,0-1-.337,1.581,1.581,0,0,0-.973.293.863.863,0,0,0-.393.709h-1.09a1.5,1.5,0,0,1,.337-.917,2.3,2.3,0,0,1,.914-.7,3.075,3.075,0,0,1,1.269-.258,2.506,2.506,0,0,1,1.717.548A1.976,1.976,0,0,1-12.381-4.4v2.918a3.567,3.567,0,0,0,.223,1.389V0Zm-1.8-.826a1.905,1.905,0,0,0,.967-.264,1.6,1.6,0,0,0,.662-.686v-1.3h-.85q-1.992,0-1.992,1.166a.987.987,0,0,0,.34.8A1.306,1.306,0,0,0-15.094-.826Zm5.883-7.049V-6.34h1.184V-5.5H-9.211v3.937a.88.88,0,0,0,.158.572A.666.666,0,0,0-8.514-.8,2.624,2.624,0,0,0-8-.873V0A3.161,3.161,0,0,1-8.83.117a1.35,1.35,0,0,1-1.1-.439,1.888,1.888,0,0,1-.369-1.248V-5.5h-1.154V-6.34h1.154V-7.875ZM-4.131.117a2.77,2.77,0,0,1-2.1-.847,3.142,3.142,0,0,1-.809-2.265v-.2a3.8,3.8,0,0,1,.36-1.685,2.811,2.811,0,0,1,1.008-1.16,2.534,2.534,0,0,1,1.4-.419,2.374,2.374,0,0,1,1.922.814,3.526,3.526,0,0,1,.686,2.332v.451H-5.953a2.254,2.254,0,0,0,.548,1.515,1.722,1.722,0,0,0,1.333.577A1.888,1.888,0,0,0-3.1-1a2.444,2.444,0,0,0,.7-.621l.662.516A2.662,2.662,0,0,1-4.131.117Zm-.135-5.684a1.446,1.446,0,0,0-1.1.478A2.321,2.321,0,0,0-5.918-3.75h3.176v-.082a2.065,2.065,0,0,0-.445-1.28A1.361,1.361,0,0,0-4.266-5.566ZM3.287-1.682a.8.8,0,0,0-.331-.683A3.187,3.187,0,0,0,1.8-2.783,5.457,5.457,0,0,1,.5-3.205,1.859,1.859,0,0,1-.22-3.791,1.4,1.4,0,0,1-.451-4.6,1.645,1.645,0,0,1,.208-5.918a2.574,2.574,0,0,1,1.685-.539A2.649,2.649,0,0,1,3.642-5.9a1.768,1.768,0,0,1,.671,1.424H3.223a.979.979,0,0,0-.378-.768,1.416,1.416,0,0,0-.952-.322,1.482,1.482,0,0,0-.926.258.812.812,0,0,0-.334.674.658.658,0,0,0,.311.592,3.821,3.821,0,0,0,1.122.381,5.847,5.847,0,0,1,1.315.434,1.919,1.919,0,0,1,.747.606,1.491,1.491,0,0,1,.243.864A1.623,1.623,0,0,1,3.691-.4,2.851,2.851,0,0,1,1.928.117,3.193,3.193,0,0,1,.58-.152,2.192,2.192,0,0,1-.337-.905,1.815,1.815,0,0,1-.668-1.951H.416a1.122,1.122,0,0,0,.437.864,1.693,1.693,0,0,0,1.075.319,1.748,1.748,0,0,0,.987-.249A.765.765,0,0,0,3.287-1.682Zm5.18-1.547A3.745,3.745,0,0,1,8.833-4.9a2.732,2.732,0,0,1,1.02-1.148,2.775,2.775,0,0,1,1.491-.4,2.674,2.674,0,0,1,2.095.9,3.449,3.449,0,0,1,.8,2.385V-3.1a3.777,3.777,0,0,1-.354,1.661A2.692,2.692,0,0,1,12.87-.293a2.807,2.807,0,0,1-1.515.41,2.667,2.667,0,0,1-2.089-.9,3.432,3.432,0,0,1-.8-2.373Zm1.09.129a2.712,2.712,0,0,0,.489,1.693,1.566,1.566,0,0,0,1.31.639,1.556,1.556,0,0,0,1.313-.647,2.966,2.966,0,0,0,.486-1.813,2.708,2.708,0,0,0-.5-1.69,1.574,1.574,0,0,0-1.315-.647,1.557,1.557,0,0,0-1.295.639A2.944,2.944,0,0,0,9.557-3.1ZM16.131,0V-5.5h-1V-6.34h1v-.65a2.159,2.159,0,0,1,.545-1.576,2.058,2.058,0,0,1,1.541-.557,2.862,2.862,0,0,1,.744.1L18.9-8.15a3.113,3.113,0,0,0-.586-.053,1.058,1.058,0,0,0-.814.309,1.252,1.252,0,0,0-.287.885v.67h1.354V-5.5H17.215V0ZM27.615-2.232H24.041L23.238,0h-1.16l3.258-8.531h.984L29.584,0H28.43Zm-3.234-.92h2.9l-1.453-3.99Zm7.2-3.187.029.7a2.341,2.341,0,0,1,1.881-.82A1.813,1.813,0,0,1,35.3-5.437a2.4,2.4,0,0,1,.823-.738,2.431,2.431,0,0,1,1.2-.281q2.086,0,2.121,2.209V0H38.361V-4.184A1.456,1.456,0,0,0,38.051-5.2a1.368,1.368,0,0,0-1.043-.337,1.437,1.437,0,0,0-1,.36,1.462,1.462,0,0,0-.463.97V0h-1.09V-4.154A1.209,1.209,0,0,0,33.1-5.537a1.45,1.45,0,0,0-1.459.908V0H30.557V-6.34ZM43.711.117a2.77,2.77,0,0,1-2.1-.847A3.142,3.142,0,0,1,40.8-2.994v-.2a3.8,3.8,0,0,1,.36-1.685,2.811,2.811,0,0,1,1.008-1.16,2.534,2.534,0,0,1,1.4-.419,2.374,2.374,0,0,1,1.922.814,3.526,3.526,0,0,1,.686,2.332v.451H41.889a2.254,2.254,0,0,0,.548,1.515,1.722,1.722,0,0,0,1.333.577A1.888,1.888,0,0,0,44.742-1a2.444,2.444,0,0,0,.7-.621l.662.516A2.662,2.662,0,0,1,43.711.117Zm-.135-5.684a1.446,1.446,0,0,0-1.1.478,2.321,2.321,0,0,0-.551,1.339H45.1v-.082a2.065,2.065,0,0,0-.445-1.28A1.361,1.361,0,0,0,43.576-5.566Zm6.926.2a3.248,3.248,0,0,0-.533-.041,1.428,1.428,0,0,0-1.447.908V0H47.438V-6.34h1.055l.018.732a1.688,1.688,0,0,1,1.512-.85,1.107,1.107,0,0,1,.48.082ZM52.676,0H51.592V-6.34h1.084ZM51.5-8.021a.647.647,0,0,1,.161-.445.6.6,0,0,1,.478-.182.614.614,0,0,1,.48.182.64.64,0,0,1,.164.445.619.619,0,0,1-.164.439.626.626,0,0,1-.48.176.616.616,0,0,1-.478-.176A.626.626,0,0,1,51.5-8.021ZM56.953-.768a1.561,1.561,0,0,0,1.014-.352A1.237,1.237,0,0,0,58.447-2h1.025A1.966,1.966,0,0,1,59.1-.961a2.47,2.47,0,0,1-.923.785,2.663,2.663,0,0,1-1.222.293,2.612,2.612,0,0,1-2.06-.864,3.442,3.442,0,0,1-.765-2.364v-.182a3.817,3.817,0,0,1,.34-1.646,2.588,2.588,0,0,1,.976-1.119,2.771,2.771,0,0,1,1.5-.4,2.543,2.543,0,0,1,1.772.639,2.283,2.283,0,0,1,.753,1.658H58.447a1.494,1.494,0,0,0-.466-1.011,1.449,1.449,0,0,0-1.034-.4,1.517,1.517,0,0,0-1.28.595,2.793,2.793,0,0,0-.454,1.72v.205a2.737,2.737,0,0,0,.451,1.688A1.524,1.524,0,0,0,56.953-.768ZM64.605,0a2.277,2.277,0,0,1-.152-.668,2.419,2.419,0,0,1-1.8.785,2.238,2.238,0,0,1-1.538-.53,1.716,1.716,0,0,1-.6-1.345A1.792,1.792,0,0,1,61.263-3.3a3.55,3.55,0,0,1,2.118-.548h1.055v-.5a1.217,1.217,0,0,0-.34-.905,1.366,1.366,0,0,0-1-.337,1.581,1.581,0,0,0-.973.293.863.863,0,0,0-.393.709h-1.09a1.5,1.5,0,0,1,.337-.917,2.3,2.3,0,0,1,.914-.7,3.075,3.075,0,0,1,1.269-.258,2.506,2.506,0,0,1,1.717.548A1.976,1.976,0,0,1,65.52-4.4v2.918a3.567,3.567,0,0,0,.223,1.389V0Zm-1.8-.826a1.905,1.905,0,0,0,.967-.264,1.6,1.6,0,0,0,.662-.686v-1.3h-.85q-1.992,0-1.992,1.166a.987.987,0,0,0,.34.8A1.306,1.306,0,0,0,62.807-.826Z" transform="translate(720.736 566.237)" fill="#0c2339"/>
    <path id="Path_974" data-name="Path 974" d="M5.813-3.943h-3.7V-.92H6.41V0H.99V-8.531H6.352v.92H2.115v2.748h3.7ZM11.455-.627A2.3,2.3,0,0,1,9.6.117,1.971,1.971,0,0,1,8.054-.472a2.549,2.549,0,0,1-.536-1.743V-6.34H8.6v4.1Q8.6-.8,9.773-.8a1.623,1.623,0,0,0,1.652-.926V-6.34H12.51V0H11.479Zm5.766-4.74a3.248,3.248,0,0,0-.533-.041A1.428,1.428,0,0,0,15.24-4.5V0H14.156V-6.34h1.055l.018.732a1.688,1.688,0,0,1,1.512-.85,1.107,1.107,0,0,1,.48.082Zm.592,2.139A3.745,3.745,0,0,1,18.179-4.9,2.732,2.732,0,0,1,19.2-6.053a2.775,2.775,0,0,1,1.491-.4,2.674,2.674,0,0,1,2.095.9,3.449,3.449,0,0,1,.8,2.385V-3.1a3.777,3.777,0,0,1-.354,1.661A2.692,2.692,0,0,1,22.216-.293,2.807,2.807,0,0,1,20.7.117a2.667,2.667,0,0,1-2.089-.9,3.432,3.432,0,0,1-.8-2.373ZM18.9-3.1a2.712,2.712,0,0,0,.489,1.693,1.566,1.566,0,0,0,1.31.639,1.556,1.556,0,0,0,1.313-.647A2.966,2.966,0,0,0,22.5-3.229a2.708,2.708,0,0,0-.5-1.69,1.574,1.574,0,0,0-1.315-.647,1.557,1.557,0,0,0-1.295.639A2.944,2.944,0,0,0,18.9-3.1Zm11.4,0a3.8,3.8,0,0,1-.662,2.332,2.122,2.122,0,0,1-1.793.885,2.325,2.325,0,0,1-1.816-.732V2.438H24.943V-6.34h.99l.053.7a2.233,2.233,0,0,1,1.84-.82,2.162,2.162,0,0,1,1.808.861A3.838,3.838,0,0,1,30.3-3.2Zm-1.084-.123a2.8,2.8,0,0,0-.457-1.693A1.472,1.472,0,0,0,27.5-5.537a1.593,1.593,0,0,0-1.477.873v3.029a1.6,1.6,0,0,0,1.488.867,1.465,1.465,0,0,0,1.239-.618A3.058,3.058,0,0,0,29.215-3.223ZM34.307.117a2.77,2.77,0,0,1-2.1-.847A3.142,3.142,0,0,1,31.4-2.994v-.2a3.8,3.8,0,0,1,.36-1.685,2.811,2.811,0,0,1,1.008-1.16,2.534,2.534,0,0,1,1.4-.419,2.374,2.374,0,0,1,1.922.814,3.526,3.526,0,0,1,.686,2.332v.451H32.484a2.254,2.254,0,0,0,.548,1.515,1.722,1.722,0,0,0,1.333.577A1.888,1.888,0,0,0,35.338-1a2.444,2.444,0,0,0,.7-.621l.662.516A2.662,2.662,0,0,1,34.307.117Zm-.135-5.684a1.446,1.446,0,0,0-1.1.478A2.321,2.321,0,0,0,32.52-3.75H35.7v-.082a2.065,2.065,0,0,0-.445-1.28A1.361,1.361,0,0,0,34.172-5.566Z" transform="translate(767.3 369.882)" fill="#0c2339"/>
    <path id="Path_975" data-name="Path 975" d="M4.271,0H3.182V-7.225L1-6.422v-.984L4.1-8.572h.17ZM12.8-3.639a4.958,4.958,0,0,1-.65,2.83,2.313,2.313,0,0,1-2.033.926A2.33,2.33,0,0,1,8.092-.788a4.706,4.706,0,0,1-.68-2.7V-4.939a4.847,4.847,0,0,1,.65-2.795A2.331,2.331,0,0,1,10.1-8.648a2.352,2.352,0,0,1,2.027.882A4.678,4.678,0,0,1,12.8-5.045ZM11.713-5.121a3.972,3.972,0,0,0-.387-2.007,1.331,1.331,0,0,0-1.225-.63,1.314,1.314,0,0,0-1.213.627A3.878,3.878,0,0,0,8.5-5.2v1.734a4.036,4.036,0,0,0,.4,2.042,1.329,1.329,0,0,0,1.216.659,1.31,1.31,0,0,0,1.192-.621,3.89,3.89,0,0,0,.407-1.957Zm7.822,1.482a4.958,4.958,0,0,1-.65,2.83,2.313,2.313,0,0,1-2.033.926A2.33,2.33,0,0,1,14.83-.788a4.706,4.706,0,0,1-.68-2.7V-4.939a4.847,4.847,0,0,1,.65-2.795,2.331,2.331,0,0,1,2.039-.914,2.352,2.352,0,0,1,2.027.882,4.678,4.678,0,0,1,.668,2.722ZM18.451-5.121a3.972,3.972,0,0,0-.387-2.007,1.331,1.331,0,0,0-1.225-.63,1.314,1.314,0,0,0-1.213.627A3.878,3.878,0,0,0,15.234-5.2v1.734a4.036,4.036,0,0,0,.4,2.042,1.329,1.329,0,0,0,1.216.659,1.31,1.31,0,0,0,1.192-.621,3.89,3.89,0,0,0,.407-1.957Z" transform="translate(646.264 336.252)" fill="#a1a1a1"/>
    <path id="Path_976" data-name="Path 976" d="M4.271,0H3.182V-7.225L1-6.422v-.984L4.1-8.572h.17ZM12.8-3.639a4.958,4.958,0,0,1-.65,2.83,2.313,2.313,0,0,1-2.033.926A2.33,2.33,0,0,1,8.092-.788a4.706,4.706,0,0,1-.68-2.7V-4.939a4.847,4.847,0,0,1,.65-2.795A2.331,2.331,0,0,1,10.1-8.648a2.352,2.352,0,0,1,2.027.882A4.678,4.678,0,0,1,12.8-5.045ZM11.713-5.121a3.972,3.972,0,0,0-.387-2.007,1.331,1.331,0,0,0-1.225-.63,1.314,1.314,0,0,0-1.213.627A3.878,3.878,0,0,0,8.5-5.2v1.734a4.036,4.036,0,0,0,.4,2.042,1.329,1.329,0,0,0,1.216.659,1.31,1.31,0,0,0,1.192-.621,3.89,3.89,0,0,0,.407-1.957Zm7.822,1.482a4.958,4.958,0,0,1-.65,2.83,2.313,2.313,0,0,1-2.033.926A2.33,2.33,0,0,1,14.83-.788a4.706,4.706,0,0,1-.68-2.7V-4.939a4.847,4.847,0,0,1,.65-2.795,2.331,2.331,0,0,1,2.039-.914,2.352,2.352,0,0,1,2.027.882,4.678,4.678,0,0,1,.668,2.722ZM18.451-5.121a3.972,3.972,0,0,0-.387-2.007,1.331,1.331,0,0,0-1.225-.63,1.314,1.314,0,0,0-1.213.627A3.878,3.878,0,0,0,15.234-5.2v1.734a4.036,4.036,0,0,0,.4,2.042,1.329,1.329,0,0,0,1.216.659,1.31,1.31,0,0,0,1.192-.621,3.89,3.89,0,0,0,.407-1.957Z" transform="translate(773.8 336.252)" fill="#a1a1a1"/>
    <path id="Path_977" data-name="Path 977" d="M4.271,0H3.182V-7.225L1-6.422v-.984L4.1-8.572h.17ZM12.8-3.639a4.958,4.958,0,0,1-.65,2.83,2.313,2.313,0,0,1-2.033.926A2.33,2.33,0,0,1,8.092-.788a4.706,4.706,0,0,1-.68-2.7V-4.939a4.847,4.847,0,0,1,.65-2.795A2.331,2.331,0,0,1,10.1-8.648a2.352,2.352,0,0,1,2.027.882A4.678,4.678,0,0,1,12.8-5.045ZM11.713-5.121a3.972,3.972,0,0,0-.387-2.007,1.331,1.331,0,0,0-1.225-.63,1.314,1.314,0,0,0-1.213.627A3.878,3.878,0,0,0,8.5-5.2v1.734a4.036,4.036,0,0,0,.4,2.042,1.329,1.329,0,0,0,1.216.659,1.31,1.31,0,0,0,1.192-.621,3.89,3.89,0,0,0,.407-1.957Zm7.822,1.482a4.958,4.958,0,0,1-.65,2.83,2.313,2.313,0,0,1-2.033.926A2.33,2.33,0,0,1,14.83-.788a4.706,4.706,0,0,1-.68-2.7V-4.939a4.847,4.847,0,0,1,.65-2.795,2.331,2.331,0,0,1,2.039-.914,2.352,2.352,0,0,1,2.027.882,4.678,4.678,0,0,1,.668,2.722ZM18.451-5.121a3.972,3.972,0,0,0-.387-2.007,1.331,1.331,0,0,0-1.225-.63,1.314,1.314,0,0,0-1.213.627A3.878,3.878,0,0,0,15.234-5.2v1.734a4.036,4.036,0,0,0,.4,2.042,1.329,1.329,0,0,0,1.216.659,1.31,1.31,0,0,0,1.192-.621,3.89,3.89,0,0,0,.407-1.957Z" transform="translate(646.264 433.252)" fill="#a1a1a1"/>
    <path id="Path_978" data-name="Path 978" d="M4.271,0H3.182V-7.225L1-6.422v-.984L4.1-8.572h.17ZM12.8-3.639a4.958,4.958,0,0,1-.65,2.83,2.313,2.313,0,0,1-2.033.926A2.33,2.33,0,0,1,8.092-.788a4.706,4.706,0,0,1-.68-2.7V-4.939a4.847,4.847,0,0,1,.65-2.795A2.331,2.331,0,0,1,10.1-8.648a2.352,2.352,0,0,1,2.027.882A4.678,4.678,0,0,1,12.8-5.045ZM11.713-5.121a3.972,3.972,0,0,0-.387-2.007,1.331,1.331,0,0,0-1.225-.63,1.314,1.314,0,0,0-1.213.627A3.878,3.878,0,0,0,8.5-5.2v1.734a4.036,4.036,0,0,0,.4,2.042,1.329,1.329,0,0,0,1.216.659,1.31,1.31,0,0,0,1.192-.621,3.89,3.89,0,0,0,.407-1.957Zm7.822,1.482a4.958,4.958,0,0,1-.65,2.83,2.313,2.313,0,0,1-2.033.926A2.33,2.33,0,0,1,14.83-.788a4.706,4.706,0,0,1-.68-2.7V-4.939a4.847,4.847,0,0,1,.65-2.795,2.331,2.331,0,0,1,2.039-.914,2.352,2.352,0,0,1,2.027.882,4.678,4.678,0,0,1,.668,2.722ZM18.451-5.121a3.972,3.972,0,0,0-.387-2.007,1.331,1.331,0,0,0-1.225-.63,1.314,1.314,0,0,0-1.213.627A3.878,3.878,0,0,0,15.234-5.2v1.734a4.036,4.036,0,0,0,.4,2.042,1.329,1.329,0,0,0,1.216.659,1.31,1.31,0,0,0,1.192-.621,3.89,3.89,0,0,0,.407-1.957Z" transform="translate(582.228 532.252)" fill="#a1a1a1"/>
    <path id="Path_979" data-name="Path 979" d="M4.863-3.75a2.652,2.652,0,0,1-.812.65,2.2,2.2,0,0,1-1.034.246,2.273,2.273,0,0,1-1.286-.363A2.362,2.362,0,0,1,.885-4.239,3.486,3.486,0,0,1,.586-5.7,3.551,3.551,0,0,1,.911-7.236a2.389,2.389,0,0,1,.923-1.049,2.632,2.632,0,0,1,1.395-.363,2.382,2.382,0,0,1,2,.946,4.128,4.128,0,0,1,.729,2.581V-4.8a5.515,5.515,0,0,1-.984,3.636A3.782,3.782,0,0,1,2,.006H1.787v-.92h.229a2.984,2.984,0,0,0,2.063-.7A3,3,0,0,0,4.863-3.75Zm-1.67,0a1.674,1.674,0,0,0,1-.334,1.969,1.969,0,0,0,.671-.826v-.434a2.983,2.983,0,0,0-.463-1.734,1.381,1.381,0,0,0-1.172-.668A1.392,1.392,0,0,0,2.086-7.2a2.26,2.26,0,0,0-.434,1.444,2.352,2.352,0,0,0,.419,1.438A1.326,1.326,0,0,0,3.193-3.75Zm9.762-4.172L9.422,0H8.285l3.521-7.641H7.189v-.891h5.766Z" transform="translate(715.5 532.955)" fill="#a1a1a1"/>
    <path id="Path_980" data-name="Path 980" d="M3.076-3.182H.217v-.885H3.076Z" transform="translate(720.532 236.252)" fill="#a1a1a1"/>
  </g>
</svg>
