<svg xmlns="http://www.w3.org/2000/svg" width="156.5" height="64.748" viewBox="0 0 156.5 64.748">
  <g id="Group_1127" data-name="Group 1127" transform="translate(-796.371 -461.031)">
    <g id="Group_1126" data-name="Group 1126">
      <g id="Create_flow_bg" data-name="Create flow bg" transform="translate(796.371 461.031)" fill="#e8d3d2">
        <path d="M 151.5 64.247802734375 L 5 64.247802734375 C 2.518699884414673 64.247802734375 0.5 62.22910308837891 0.5 59.747802734375 L 0.5 5.000001430511475 C 0.5 2.518701314926147 2.518699884414673 0.5000013709068298 5 0.5000013709068298 L 151.5 0.5000013709068298 C 153.9812927246094 0.5000013709068298 156 2.518701314926147 156 5.000001430511475 L 156 59.747802734375 C 156 62.22910308837891 153.9812927246094 64.247802734375 151.5 64.247802734375 Z" stroke="none"/>
        <path d="M 5 1 C 2.794403076171875 1 1 2.794403076171875 1 5 L 1 59.747802734375 C 1 61.95339965820312 2.794403076171875 63.747802734375 5 63.747802734375 L 151.5 63.747802734375 C 153.7055969238281 63.747802734375 155.5 61.95339965820312 155.5 59.747802734375 L 155.5 5 C 155.5 2.794403076171875 153.7055969238281 1 151.5 1 L 5 1 M 5 0 L 151.5 0 C 154.2614135742188 0 156.5 2.238582611083984 156.5 5 L 156.5 59.747802734375 C 156.5 62.50922012329102 154.2614135742188 64.747802734375 151.5 64.747802734375 L 5 64.747802734375 C 2.238555908203125 64.747802734375 0 62.50922012329102 0 59.747802734375 L 0 5 C 0 2.238582611083984 2.238555908203125 0 5 0 Z" stroke="none" fill="#fe746e"/>
      </g>
    </g>
    <path id="Path_1651" data-name="Path 1651" d="M3.433-2.876H1.763V0H.82V-7.109H3.174a2.786,2.786,0,0,1,1.848.547,1.968,1.968,0,0,1,.647,1.592A1.914,1.914,0,0,1,5.31-3.813a2.142,2.142,0,0,1-1,.737L5.981-.059V0H4.976Zm-1.67-.767H3.2A1.625,1.625,0,0,0,4.314-4a1.224,1.224,0,0,0,.413-.969,1.289,1.289,0,0,0-.393-1.013A1.664,1.664,0,0,0,3.2-6.343H1.763ZM9.033.1A2.308,2.308,0,0,1,7.285-.608,2.619,2.619,0,0,1,6.611-2.5v-.166a3.17,3.17,0,0,1,.3-1.4,2.343,2.343,0,0,1,.84-.967,2.112,2.112,0,0,1,1.169-.349,1.979,1.979,0,0,1,1.6.679,2.939,2.939,0,0,1,.571,1.943v.376H7.515a1.878,1.878,0,0,0,.457,1.262A1.435,1.435,0,0,0,9.082-.64a1.573,1.573,0,0,0,.811-.2,2.037,2.037,0,0,0,.581-.518l.552.43A2.219,2.219,0,0,1,9.033.1ZM8.921-4.639a1.2,1.2,0,0,0-.918.4,1.934,1.934,0,0,0-.459,1.116H10.19v-.068A1.721,1.721,0,0,0,9.819-4.26,1.134,1.134,0,0,0,8.921-4.639ZM13.12,0h-.9V-7.5h.9Zm3.638.1A2.308,2.308,0,0,1,15.01-.608,2.619,2.619,0,0,1,14.336-2.5v-.166a3.17,3.17,0,0,1,.3-1.4,2.343,2.343,0,0,1,.84-.967,2.112,2.112,0,0,1,1.169-.349,1.979,1.979,0,0,1,1.6.679,2.939,2.939,0,0,1,.571,1.943v.376H15.239A1.878,1.878,0,0,0,15.7-1.121a1.435,1.435,0,0,0,1.111.481,1.573,1.573,0,0,0,.811-.2,2.037,2.037,0,0,0,.581-.518l.552.43A2.219,2.219,0,0,1,16.758.1Zm-.112-4.736a1.2,1.2,0,0,0-.918.4,1.934,1.934,0,0,0-.459,1.116h2.646v-.068a1.721,1.721,0,0,0-.371-1.067A1.134,1.134,0,0,0,16.646-4.639ZM23.125,0A1.9,1.9,0,0,1,23-.557a2.015,2.015,0,0,1-1.5.654,1.865,1.865,0,0,1-1.282-.442,1.43,1.43,0,0,1-.5-1.121,1.494,1.494,0,0,1,.627-1.282A2.958,2.958,0,0,1,22.1-3.2h.879v-.415a1.015,1.015,0,0,0-.283-.754,1.138,1.138,0,0,0-.835-.281,1.317,1.317,0,0,0-.811.244.719.719,0,0,0-.327.591h-.908a1.247,1.247,0,0,1,.281-.764,1.916,1.916,0,0,1,.762-.583,2.563,2.563,0,0,1,1.057-.215,2.089,2.089,0,0,1,1.431.457,1.647,1.647,0,0,1,.537,1.257v2.432a2.973,2.973,0,0,0,.186,1.157V0Zm-1.5-.688a1.588,1.588,0,0,0,.806-.22,1.329,1.329,0,0,0,.552-.571V-2.563h-.708q-1.66,0-1.66.972a.822.822,0,0,0,.283.664A1.089,1.089,0,0,0,21.626-.688ZM28.379-1.4A.665.665,0,0,0,28.1-1.97a2.655,2.655,0,0,0-.962-.349,4.548,4.548,0,0,1-1.089-.352,1.549,1.549,0,0,1-.6-.488,1.168,1.168,0,0,1-.193-.674,1.37,1.37,0,0,1,.549-1.1,2.145,2.145,0,0,1,1.4-.449,2.208,2.208,0,0,1,1.458.464,1.473,1.473,0,0,1,.559,1.187h-.908a.815.815,0,0,0-.315-.64,1.18,1.18,0,0,0-.793-.269,1.235,1.235,0,0,0-.771.215.676.676,0,0,0-.278.562.548.548,0,0,0,.259.493,3.184,3.184,0,0,0,.935.317,4.872,4.872,0,0,1,1.1.361,1.6,1.6,0,0,1,.623.505,1.243,1.243,0,0,1,.2.72A1.352,1.352,0,0,1,28.716-.33,2.376,2.376,0,0,1,27.246.1a2.66,2.66,0,0,1-1.123-.225,1.827,1.827,0,0,1-.764-.627,1.512,1.512,0,0,1-.276-.872h.9a.935.935,0,0,0,.364.72,1.411,1.411,0,0,0,.9.266,1.457,1.457,0,0,0,.823-.208A.638.638,0,0,0,28.379-1.4ZM32.651.1A2.308,2.308,0,0,1,30.9-.608,2.619,2.619,0,0,1,30.229-2.5v-.166a3.17,3.17,0,0,1,.3-1.4,2.343,2.343,0,0,1,.84-.967,2.112,2.112,0,0,1,1.169-.349,1.979,1.979,0,0,1,1.6.679,2.939,2.939,0,0,1,.571,1.943v.376H31.133a1.878,1.878,0,0,0,.457,1.262A1.435,1.435,0,0,0,32.7-.64a1.573,1.573,0,0,0,.811-.2,2.037,2.037,0,0,0,.581-.518l.552.43A2.219,2.219,0,0,1,32.651.1Zm-.112-4.736a1.2,1.2,0,0,0-.918.4,1.934,1.934,0,0,0-.459,1.116h2.646v-.068a1.721,1.721,0,0,0-.371-1.067A1.134,1.134,0,0,0,32.539-4.639Zm5.479,1.953a3.105,3.105,0,0,1,.571-1.965,1.827,1.827,0,0,1,1.514-.73,1.817,1.817,0,0,1,1.509.684l.044-.586h.825V-.127a2.149,2.149,0,0,1-.608,1.616,2.243,2.243,0,0,1-1.633.591,2.717,2.717,0,0,1-1.118-.244,1.925,1.925,0,0,1-.835-.669l.469-.542a1.766,1.766,0,0,0,1.421.718A1.384,1.384,0,0,0,41.2.972a1.418,1.418,0,0,0,.369-1.045V-.527A1.857,1.857,0,0,1,40.093.1a1.8,1.8,0,0,1-1.5-.747A3.265,3.265,0,0,1,38.018-2.686Zm.908.1a2.369,2.369,0,0,0,.366,1.4,1.19,1.19,0,0,0,1.025.51,1.323,1.323,0,0,0,1.255-.776V-3.857a1.339,1.339,0,0,0-1.245-.757A1.2,1.2,0,0,0,39.3-4.1,2.58,2.58,0,0,0,38.926-2.583ZM43.6-2.69a3.121,3.121,0,0,1,.305-1.4,2.277,2.277,0,0,1,.85-.957A2.313,2.313,0,0,1,46-5.381a2.228,2.228,0,0,1,1.746.747,2.874,2.874,0,0,1,.667,1.987v.063a3.148,3.148,0,0,1-.3,1.384,2.243,2.243,0,0,1-.845.955A2.339,2.339,0,0,1,46.011.1,2.222,2.222,0,0,1,44.27-.649,2.86,2.86,0,0,1,43.6-2.627Zm.908.107a2.26,2.26,0,0,0,.408,1.411,1.3,1.3,0,0,0,1.091.532,1.3,1.3,0,0,0,1.094-.54A2.472,2.472,0,0,0,47.51-2.69,2.256,2.256,0,0,0,47.1-4.1a1.312,1.312,0,0,0-1.1-.54,1.3,1.3,0,0,0-1.079.532A2.453,2.453,0,0,0,44.512-2.583Zm4.795-.107a3.121,3.121,0,0,1,.305-1.4,2.277,2.277,0,0,1,.85-.957A2.313,2.313,0,0,1,51.7-5.381a2.228,2.228,0,0,1,1.746.747,2.874,2.874,0,0,1,.667,1.987v.063a3.148,3.148,0,0,1-.3,1.384,2.243,2.243,0,0,1-.845.955A2.339,2.339,0,0,1,51.714.1a2.222,2.222,0,0,1-1.741-.747,2.86,2.86,0,0,1-.667-1.978Zm.908.107a2.26,2.26,0,0,0,.408,1.411,1.3,1.3,0,0,0,1.091.532,1.3,1.3,0,0,0,1.094-.54,2.472,2.472,0,0,0,.405-1.511A2.256,2.256,0,0,0,52.8-4.1a1.312,1.312,0,0,0-1.1-.54,1.3,1.3,0,0,0-1.079.532A2.453,2.453,0,0,0,50.215-2.583Zm4.814-.1a3.1,3.1,0,0,1,.576-1.956,1.822,1.822,0,0,1,1.509-.74,1.832,1.832,0,0,1,1.47.635V-7.5h.9V0h-.83l-.044-.566A1.84,1.84,0,0,1,57.1.1a1.8,1.8,0,0,1-1.5-.752,3.13,3.13,0,0,1-.579-1.963Zm.9.1A2.343,2.343,0,0,0,56.3-1.177a1.2,1.2,0,0,0,1.025.508,1.318,1.318,0,0,0,1.255-.771V-3.867a1.328,1.328,0,0,0-1.245-.747A1.205,1.205,0,0,0,56.3-4.1,2.58,2.58,0,0,0,55.933-2.583ZM63.965-1.4a.665.665,0,0,0-.276-.569,2.655,2.655,0,0,0-.962-.349,4.548,4.548,0,0,1-1.089-.352,1.549,1.549,0,0,1-.6-.488,1.168,1.168,0,0,1-.193-.674,1.37,1.37,0,0,1,.549-1.1,2.145,2.145,0,0,1,1.4-.449,2.208,2.208,0,0,1,1.458.464,1.473,1.473,0,0,1,.559,1.187h-.908a.815.815,0,0,0-.315-.64,1.18,1.18,0,0,0-.793-.269,1.235,1.235,0,0,0-.771.215.676.676,0,0,0-.278.562.548.548,0,0,0,.259.493,3.184,3.184,0,0,0,.935.317,4.872,4.872,0,0,1,1.1.361,1.6,1.6,0,0,1,.623.505,1.243,1.243,0,0,1,.2.72A1.352,1.352,0,0,1,64.3-.33,2.376,2.376,0,0,1,62.832.1a2.66,2.66,0,0,1-1.123-.225,1.827,1.827,0,0,1-.764-.627,1.512,1.512,0,0,1-.276-.872h.9a.935.935,0,0,0,.364.72,1.411,1.411,0,0,0,.9.266,1.457,1.457,0,0,0,.823-.208A.638.638,0,0,0,63.965-1.4Zm5,1.4V-4.585H68.13v-.7h.835v-.542a1.8,1.8,0,0,1,.454-1.313A1.715,1.715,0,0,1,70.7-7.6a2.385,2.385,0,0,1,.62.082l-.049.728a2.594,2.594,0,0,0-.488-.044.881.881,0,0,0-.679.257,1.043,1.043,0,0,0-.239.737v.558H71v.7H69.868V0Zm2.788-2.69a3.121,3.121,0,0,1,.305-1.4,2.277,2.277,0,0,1,.85-.957,2.313,2.313,0,0,1,1.243-.337,2.228,2.228,0,0,1,1.746.747,2.874,2.874,0,0,1,.667,1.987v.063a3.148,3.148,0,0,1-.3,1.384,2.243,2.243,0,0,1-.845.955A2.339,2.339,0,0,1,74.16.1a2.222,2.222,0,0,1-1.741-.747,2.86,2.86,0,0,1-.667-1.978Zm.908.107a2.26,2.26,0,0,0,.408,1.411A1.3,1.3,0,0,0,74.16-.64a1.3,1.3,0,0,0,1.094-.54,2.472,2.472,0,0,0,.405-1.511A2.256,2.256,0,0,0,75.247-4.1a1.312,1.312,0,0,0-1.1-.54,1.3,1.3,0,0,0-1.079.532A2.453,2.453,0,0,0,72.661-2.583Zm7.588-1.89a2.707,2.707,0,0,0-.444-.034A1.19,1.19,0,0,0,78.6-3.75V0h-.9V-5.283h.879l.015.61a1.407,1.407,0,0,1,1.26-.708.923.923,0,0,1,.4.068Zm-75.1,14.89a3.163,3.163,0,0,1-.552,1.943A1.768,1.768,0,0,1,3.1,13.1a1.938,1.938,0,0,1-1.514-.61v2.544h-.9V7.717h.825l.044.586a1.861,1.861,0,0,1,1.533-.684,1.8,1.8,0,0,1,1.506.718,3.2,3.2,0,0,1,.554,2Zm-.9-.1A2.334,2.334,0,0,0,3.862,8.9a1.227,1.227,0,0,0-1.045-.518,1.328,1.328,0,0,0-1.23.728v2.524a1.33,1.33,0,0,0,1.24.723,1.221,1.221,0,0,0,1.033-.515A2.548,2.548,0,0,0,4.243,10.314ZM7.275,13h-.9V7.717h.9ZM6.3,6.315a.539.539,0,0,1,.134-.371.5.5,0,0,1,.4-.151.512.512,0,0,1,.4.151.534.534,0,0,1,.137.371.516.516,0,0,1-.137.366.521.521,0,0,1-.4.146.513.513,0,0,1-.4-.146A.521.521,0,0,1,6.3,6.315ZM10.84,12.36a1.3,1.3,0,0,0,.845-.293,1.031,1.031,0,0,0,.4-.732h.854a1.638,1.638,0,0,1-.312.864,2.058,2.058,0,0,1-.769.654,2.219,2.219,0,0,1-1.018.244,2.176,2.176,0,0,1-1.716-.72,2.869,2.869,0,0,1-.637-1.97v-.151A3.181,3.181,0,0,1,8.77,8.884a2.157,2.157,0,0,1,.813-.933,2.309,2.309,0,0,1,1.252-.332,2.119,2.119,0,0,1,1.477.532,1.9,1.9,0,0,1,.627,1.382h-.854a1.245,1.245,0,0,0-.388-.842,1.208,1.208,0,0,0-.862-.33,1.264,1.264,0,0,0-1.067.5A2.328,2.328,0,0,0,9.39,10.29v.171a2.281,2.281,0,0,0,.376,1.406A1.27,1.27,0,0,0,10.84,12.36Zm4.59-1.807-.566.591V13h-.9V5.5h.9v4.536l.483-.581,1.646-1.738h1.1L16.035,9.924,18.33,13h-1.06ZM20,13h-.9V7.717H20Zm-.977-6.685a.539.539,0,0,1,.134-.371.5.5,0,0,1,.4-.151.512.512,0,0,1,.4.151.534.534,0,0,1,.137.371.516.516,0,0,1-.137.366.521.521,0,0,1-.4.146.513.513,0,0,1-.4-.146A.521.521,0,0,1,19.028,6.315Zm3.276,1.4.029.664a1.925,1.925,0,0,1,1.582-.762q1.675,0,1.689,1.89V13h-.9V9.5a1.216,1.216,0,0,0-.261-.845,1.047,1.047,0,0,0-.8-.273,1.3,1.3,0,0,0-.771.234,1.592,1.592,0,0,0-.518.615V13h-.9V7.717Zm4.448,2.6a3.105,3.105,0,0,1,.571-1.965A1.97,1.97,0,0,1,30.347,8.3l.044-.586h.825v5.156a2.149,2.149,0,0,1-.608,1.616,2.243,2.243,0,0,1-1.633.591,2.717,2.717,0,0,1-1.118-.244,1.925,1.925,0,0,1-.835-.669l.469-.542a1.766,1.766,0,0,0,1.421.718,1.384,1.384,0,0,0,1.028-.371,1.418,1.418,0,0,0,.369-1.045v-.454a1.857,1.857,0,0,1-1.479.625,1.8,1.8,0,0,1-1.5-.747A3.265,3.265,0,0,1,26.753,10.314Zm.908.1a2.369,2.369,0,0,0,.366,1.4,1.19,1.19,0,0,0,1.025.51,1.323,1.323,0,0,0,1.255-.776V9.143a1.339,1.339,0,0,0-1.245-.757,1.2,1.2,0,0,0-1.03.513A2.58,2.58,0,0,0,27.661,10.417Z" transform="translate(819.951 479.502)" fill="#0c2339"/>
    <g id="_3" data-name="3" transform="translate(517.542 149.004)">
      <circle id="Ellipse_55" data-name="Ellipse 55" cx="5.333" cy="5.333" r="5.333" transform="translate(417.333 356.417)" fill="#3cca8e"/>
      <text id="_3-2" data-name="3" transform="translate(421.167 363.75)" fill="#fff" font-size="6" font-family="Roboto-Regular, Roboto"><tspan x="0" y="0">3</tspan></text>
    </g>
    <g id="_3-3" data-name="3" transform="translate(504.542 149.004)">
      <circle id="Ellipse_55-2" data-name="Ellipse 55" cx="5.333" cy="5.333" r="5.333" transform="translate(417.333 356.417)" fill="#fe746e"/>
      <text id="_2" data-name="2" transform="translate(421.167 363.75)" fill="#fff" font-size="6" font-family="Roboto-Regular, Roboto"><tspan x="0" y="0">2</tspan></text>
    </g>
  </g>
</svg>
