<svg xmlns="http://www.w3.org/2000/svg" width="11.267" height="11.267" viewBox="0 0 11.267 11.267">
  <g id="Target_icon" data-name="Target icon" transform="translate(-101.7 -101.7)">
    <path id="Ellipse_4" data-name="Ellipse 4" d="M-5.546-9.5A3.958,3.958,0,0,1-1.592-5.546,3.958,3.958,0,0,1-5.546-1.592,3.958,3.958,0,0,1-9.5-5.546,3.958,3.958,0,0,1-5.546-9.5Zm0,7.214a3.264,3.264,0,0,0,3.26-3.26,3.264,3.264,0,0,0-3.26-3.26,3.264,3.264,0,0,0-3.26,3.26A3.264,3.264,0,0,0-5.546-2.286Z" transform="translate(112.879 112.879)" fill="#fff"/>
    <path id="Ellipse_5" data-name="Ellipse 5" d="M-3.867-9.5A5.64,5.64,0,0,1,1.767-3.867,5.64,5.64,0,0,1-3.867,1.767,5.64,5.64,0,0,1-9.5-3.867,5.64,5.64,0,0,1-3.867-9.5Zm0,10.573a4.945,4.945,0,0,0,4.94-4.94,4.945,4.945,0,0,0-4.94-4.94,4.945,4.945,0,0,0-4.94,4.94A4.945,4.945,0,0,0-3.867,1.073Z" transform="translate(111.2 111.2)" fill="#fff"/>
    <path id="Ellipse_6" data-name="Ellipse 6" d="M-8.076-9.5A1.425,1.425,0,0,1-6.652-8.076,1.425,1.425,0,0,1-8.076-6.652,1.425,1.425,0,0,1-9.5-8.076,1.425,1.425,0,0,1-8.076-9.5Zm0,2.154a.731.731,0,0,0,.73-.73.731.731,0,0,0-.73-.73.731.731,0,0,0-.73.73A.731.731,0,0,0-8.076-7.346Z" transform="translate(115.409 115.409)" fill="#fff"/>
  </g>
</svg>
