<svg xmlns="http://www.w3.org/2000/svg" width="13.583" height="10.083" viewBox="0 0 13.583 10.083">
  <g id="Data_icon" data-name="Data icon" transform="translate(-50.2 -103.1)">
    <path id="Path_5" data-name="Path 5" d="M50.647,248.293h3.01a.447.447,0,1,0,0-.893h-3.01a.447.447,0,1,0,0,.893Z" transform="translate(0 -139.526)" fill="#fff"/>
    <path id="Path_6" data-name="Path 6" d="M199.184,247.4h-7.639c-.357,0-.645.2-.645.447s.288.447.645.447h7.639c.357,0,.645-.2.645-.447S199.538,247.4,199.184,247.4Z" transform="translate(-136.045 -139.526)" fill="#fff"/>
    <path id="Path_7" data-name="Path 7" d="M50.647,315.393H51.93a.447.447,0,0,0,0-.893H50.647a.447.447,0,1,0,0,.893Z" transform="translate(0 -204.407)" fill="#fff"/>
    <path id="Path_8" data-name="Path 8" d="M301.947,314.4a.447.447,0,0,0,0,.893h.781a.447.447,0,0,0,0-.893Z" transform="translate(-242.987 -204.31)" fill="#fff"/>
    <path id="Path_9" data-name="Path 9" d="M141.131,314.847a.447.447,0,0,0-.447-.447h-3.837a.447.447,0,1,0,0,.893h3.837A.443.443,0,0,0,141.131,314.847Z" transform="translate(-83.348 -204.31)" fill="#fff"/>
    <path id="Path_10" data-name="Path 10" d="M367.9,314.847a.528.528,0,0,0,.582.447h1.906a.462.462,0,1,0,0-.893h-1.906A.53.53,0,0,0,367.9,314.847Z" transform="translate(-307.19 -204.31)" fill="#fff"/>
    <path id="Path_11" data-name="Path 11" d="M50.647,103.993h1.542a.447.447,0,1,0,0-.893H50.647a.447.447,0,1,0,0,.893Z" transform="translate(0)" fill="#fff"/>
    <path id="Path_12" data-name="Path 12" d="M149.547,103.993h9.415a.447.447,0,1,0,0-.893h-9.415a.447.447,0,1,0,0,.893Z" transform="translate(-95.628)" fill="#fff"/>
    <path id="Path_13" data-name="Path 13" d="M280.758,172.6h-4.975a.462.462,0,1,0,0,.893h4.972a.53.53,0,0,0,.582-.447A.522.522,0,0,0,280.758,172.6Z" transform="translate(-217.557 -67.201)" fill="#fff"/>
    <path id="Path_14" data-name="Path 14" d="M194.157,172.6h-1.31a.447.447,0,0,0,0,.893h1.31a.447.447,0,0,0,0-.893Z" transform="translate(-137.496 -67.201)" fill="#fff"/>
    <path id="Path_15" data-name="Path 15" d="M50.647,173.493h3.212a.447.447,0,1,0,0-.893H50.647a.447.447,0,1,0,0,.893Z" transform="translate(0 -67.201)" fill="#fff"/>
    <path id="Path_16" data-name="Path 16" d="M165.057,380.9h-3.01a.447.447,0,0,0,0,.893h3.01a.447.447,0,0,0,0-.893Z" transform="translate(-107.715 -268.61)" fill="#fff"/>
    <path id="Path_17" data-name="Path 17" d="M52.962,380.9H50.647a.447.447,0,0,0,0,.893h2.312a.447.447,0,0,0,0-.893Z" transform="translate(0 -268.61)" fill="#fff"/>
    <path id="Path_18" data-name="Path 18" d="M303.566,380.9H299.2a.449.449,0,1,0,0,.893h4.37a.449.449,0,1,0,0-.893Z" transform="translate(-240.279 -268.61)" fill="#fff"/>
  </g>
</svg>
