<svg xmlns="http://www.w3.org/2000/svg" width="10.007" height="9.997" viewBox="0 0 10.007 9.997">
  <g id="Edit" transform="translate(0 -0.246)">
    <path id="Path_23" data-name="Path 23" d="M6.18,82.473.673,87.979a.219.219,0,0,0-.057.1l-.61,2.45a.217.217,0,0,0,.21.269.215.215,0,0,0,.052-.007l2.45-.61a.216.216,0,0,0,.1-.057l5.507-5.506Zm0,0" transform="translate(0 -80.555)" fill="#a1a1a1"/>
    <path id="Path_24" data-name="Path 24" d="M337.225,1.166l-.613-.613a1.11,1.11,0,0,0-1.533,0l-.751.751,2.146,2.146.751-.751a1.084,1.084,0,0,0,0-1.533Zm0,0" transform="translate(-327.535 0)" fill="#a1a1a1"/>
  </g>
</svg>
