<svg xmlns="http://www.w3.org/2000/svg" width="13.583" height="13.583" viewBox="0 0 13.583 13.583">
  <g id="Target_performance_icon" data-name="Target performance icon" transform="translate(-19.5 -19.5)">
    <g id="Group_5" data-name="Group 5" transform="translate(19.5 25.152)">
      <path id="Path_5" data-name="Path 5" d="M20.511,218.577a.215.215,0,0,1-.163-.075l-.8-.922a.215.215,0,0,1,0-.281l.8-.925a.215.215,0,0,1,.327.281L20,217.44l.674.781a.215.215,0,0,1-.163.356Z" transform="translate(-19.5 -216.3)" fill="#fff"/>
      <path id="Line_3" data-name="Line 3" d="M-3.62-7.069H-7.285A.215.215,0,0,1-7.5-7.285.215.215,0,0,1-7.285-7.5H-3.62a.215.215,0,0,1,.215.215A.215.215,0,0,1-3.62-7.069Z" transform="translate(7.698 8.416)" fill="#fff"/>
    </g>
    <g id="Group_6" data-name="Group 6" transform="translate(28.79 25.152)">
      <path id="Path_6" data-name="Path 6" d="M450.015,218.577a.215.215,0,0,1-.163-.356l.675-.787-.674-.779a.215.215,0,1,1,.326-.282l.8.919a.215.215,0,0,1,0,.281l-.8.928A.215.215,0,0,1,450.015,218.577Z" transform="translate(-446.733 -216.3)" fill="#fff"/>
      <path id="Line_4" data-name="Line 4" d="M-3.62-7.069H-7.285A.215.215,0,0,1-7.5-7.285.215.215,0,0,1-7.285-7.5H-3.62a.215.215,0,0,1,.215.215A.215.215,0,0,1-3.62-7.069Z" transform="translate(7.5 8.43)" fill="#fff"/>
    </g>
    <g id="Group_7" data-name="Group 7" transform="translate(25.152 19.5)">
      <path id="Path_7" data-name="Path 7" d="M218.362,20.726a.215.215,0,0,1-.14-.052L217.435,20l-.779.674a.215.215,0,0,1-.282-.326l.919-.8a.215.215,0,0,1,.281,0l.928.8a.215.215,0,0,1-.14.379Z" transform="translate(-216.3 -19.5)" fill="#fff"/>
      <path id="Line_5" data-name="Line 5" d="M-7.285-3.4A.215.215,0,0,1-7.5-3.62V-7.285A.215.215,0,0,1-7.285-7.5a.215.215,0,0,1,.215.215V-3.62A.215.215,0,0,1-7.285-3.4Z" transform="translate(8.43 7.698)" fill="#fff"/>
    </g>
    <g id="Group_8" data-name="Group 8" transform="translate(25.152 28.79)">
      <path id="Path_8" data-name="Path 8" d="M217.44,451.026a.215.215,0,0,1-.14-.052l-.925-.8a.215.215,0,0,1,.281-.327l.784.674.781-.674a.215.215,0,0,1,.281.326l-.922.8A.215.215,0,0,1,217.44,451.026Z" transform="translate(-216.3 -446.733)" fill="#fff"/>
      <path id="Line_6" data-name="Line 6" d="M-7.285-3.4A.215.215,0,0,1-7.5-3.62V-7.285A.215.215,0,0,1-7.285-7.5a.215.215,0,0,1,.215.215V-3.62A.215.215,0,0,1-7.285-3.4Z" transform="translate(8.416 7.5)" fill="#fff"/>
    </g>
    <path id="Ellipse_1" data-name="Ellipse 1" d="M-4.571-7.5A2.932,2.932,0,0,1-1.642-4.571,2.932,2.932,0,0,1-4.571-1.642,2.932,2.932,0,0,1-7.5-4.571,2.932,2.932,0,0,1-4.571-7.5Zm0,5.428a2.5,2.5,0,0,0,2.5-2.5,2.5,2.5,0,0,0-2.5-2.5,2.5,2.5,0,0,0-2.5,2.5A2.5,2.5,0,0,0-4.571-2.072Z" transform="translate(30.862 30.862)" fill="#fff"/>
    <path id="Ellipse_2" data-name="Ellipse 2" d="M-3.126-7.5A4.379,4.379,0,0,1,1.247-3.126,4.379,4.379,0,0,1-3.126,1.247,4.379,4.379,0,0,1-7.5-3.126,4.379,4.379,0,0,1-3.126-7.5Zm0,8.317A3.947,3.947,0,0,0,.817-3.126,3.947,3.947,0,0,0-3.126-7.069,3.947,3.947,0,0,0-7.069-3.126,3.947,3.947,0,0,0-3.126.817Z" transform="translate(29.418 29.418)" fill="#fff"/>
    <circle id="Ellipse_3" data-name="Ellipse 3" cx="0.847" cy="0.847" r="0.847" transform="translate(25.444 25.444)" fill="#fff"/>
  </g>
</svg>
