<svg xmlns="http://www.w3.org/2000/svg" xmlns:xlink="http://www.w3.org/1999/xlink" width="1366" height="768" viewBox="0 0 1366 768">
  <defs>
    <clipPath id="clip-Home_Page">
      <rect width="1366" height="768"/>
    </clipPath>
  </defs>
  <g id="Home_Page" data-name="Home Page" clip-path="url(#clip-Home_Page)">
    <rect width="1366" height="768" fill="#fff"/>
    <g id="Without_Screen" data-name="Without Screen" transform="translate(-11.228 -6.312)">
      <path id="Rectangle_149" data-name="Rectangle 149" d="M0,0H1388V780H0Z" transform="translate(0.228 0.312)" fill="#061d34"/>
      <path id="Welcome_to_DRYiCE_iControl_" data-name="Welcome to DRYiCE iControl " d="M32.711-10.869,37.783-37.68h7.738L37.162,0H29.347L23.213-25.206,17.08,0H9.265L.906-37.68H8.644l5.1,26.759L19.953-37.68h6.573ZM61.307.518A13.746,13.746,0,0,1,51.279-3.261,13.43,13.43,0,0,1,47.41-13.328v-.725a16.915,16.915,0,0,1,1.63-7.544A11.965,11.965,0,0,1,53.66-26.72a12.965,12.965,0,0,1,6.819-1.8A11.621,11.621,0,0,1,69.524-24.9q3.3,3.623,3.3,10.274v3.054H54.993a6.948,6.948,0,0,0,2.187,4.4A6.61,6.61,0,0,0,61.8-5.512a8.073,8.073,0,0,0,6.754-3.131l3.675,4.115A11.227,11.227,0,0,1,67.673-.815,14.943,14.943,0,0,1,61.307.518Zm-.854-23.006a4.673,4.673,0,0,0-3.61,1.508,7.807,7.807,0,0,0-1.773,4.315h10.4v-.6a5.568,5.568,0,0,0-1.346-3.86A4.822,4.822,0,0,0,60.453-22.489ZM84.96,0h-7.5V-39.75h7.5Zm17.8-5.512a4.905,4.905,0,0,0,3.364-1.139,3.99,3.99,0,0,0,1.346-3.028h7.013a9.593,9.593,0,0,1-1.553,5.215,10.246,10.246,0,0,1-4.179,3.675A13.08,13.08,0,0,1,102.895.518,12.156,12.156,0,0,1,93.423-3.3q-3.468-3.817-3.468-10.546v-.492q0-6.47,3.442-10.326t9.446-3.856a11.777,11.777,0,0,1,8.424,2.989,10.583,10.583,0,0,1,3.222,7.958h-7.013a5.139,5.139,0,0,0-1.346-3.551,4.487,4.487,0,0,0-3.416-1.366,4.5,4.5,0,0,0-3.947,1.9q-1.333,1.9-1.333,6.181v.778q0,4.329,1.32,6.221A4.561,4.561,0,0,0,102.765-5.512Zm14.829-8.747a16.606,16.606,0,0,1,1.6-7.427,11.746,11.746,0,0,1,4.619-5.046,13.477,13.477,0,0,1,7-1.786,12.751,12.751,0,0,1,9.252,3.468,13.918,13.918,0,0,1,4,9.42l.052,1.915q0,6.444-3.6,10.339A12.5,12.5,0,0,1,130.87.518,12.566,12.566,0,0,1,121.2-3.364q-3.61-3.882-3.61-10.559Zm7.479.531a10.467,10.467,0,0,0,1.5,6.1,4.951,4.951,0,0,0,4.3,2.112A4.963,4.963,0,0,0,135.114-7.6q1.527-2.086,1.527-6.674a10.362,10.362,0,0,0-1.527-6.065,4.963,4.963,0,0,0-4.3-2.151,4.882,4.882,0,0,0-4.244,2.138Q125.073-18.212,125.073-13.728ZM155.739-28l.233,3.131a9.84,9.84,0,0,1,8.048-3.649q5.409,0,7.427,4.27a9.614,9.614,0,0,1,8.411-4.27q4.555,0,6.78,2.653t2.226,7.984V0h-7.5V-17.856a5.332,5.332,0,0,0-.932-3.481,4.129,4.129,0,0,0-3.287-1.1,4.668,4.668,0,0,0-4.658,3.209L172.509,0H165.03V-17.831a5.267,5.267,0,0,0-.958-3.52,4.169,4.169,0,0,0-3.261-1.087,4.847,4.847,0,0,0-4.606,2.64V0h-7.479V-28ZM207.5.518a13.746,13.746,0,0,1-10.028-3.778A13.43,13.43,0,0,1,193.6-13.328v-.725a16.915,16.915,0,0,1,1.63-7.544,11.965,11.965,0,0,1,4.619-5.124,12.965,12.965,0,0,1,6.819-1.8,11.621,11.621,0,0,1,9.045,3.623q3.3,3.623,3.3,10.274v3.054H201.183a6.948,6.948,0,0,0,2.187,4.4,6.61,6.61,0,0,0,4.619,1.656,8.073,8.073,0,0,0,6.754-3.131l3.675,4.115a11.227,11.227,0,0,1-4.555,3.714A14.943,14.943,0,0,1,207.5.518Zm-.854-23.006a4.673,4.673,0,0,0-3.61,1.508,7.807,7.807,0,0,0-1.773,4.315h10.4v-.6a5.568,5.568,0,0,0-1.346-3.86A4.822,4.822,0,0,0,206.643-22.489Zm38.767-12.4V-28H250.2v5.486H245.41V-8.54a3.337,3.337,0,0,0,.6,2.226,2.989,2.989,0,0,0,2.277.673,11.927,11.927,0,0,0,2.2-.181V-.155a15.4,15.4,0,0,1-4.529.673q-7.867,0-8.022-7.945V-22.515h-4.089V-28h4.089v-6.884Zm7.013,20.625a16.606,16.606,0,0,1,1.6-7.427,11.746,11.746,0,0,1,4.619-5.046,13.477,13.477,0,0,1,7-1.786,12.751,12.751,0,0,1,9.252,3.468,13.917,13.917,0,0,1,4,9.42l.052,1.915q0,6.444-3.6,10.339A12.5,12.5,0,0,1,265.7.518a12.566,12.566,0,0,1-9.666-3.882q-3.61-3.882-3.61-10.559Zm7.479.531a10.467,10.467,0,0,0,1.5,6.1,4.951,4.951,0,0,0,4.3,2.112A4.963,4.963,0,0,0,269.943-7.6q1.527-2.086,1.527-6.674a10.362,10.362,0,0,0-1.527-6.065,4.963,4.963,0,0,0-4.3-2.151,4.882,4.882,0,0,0-4.244,2.138Q259.9-18.212,259.9-13.728ZM3.364,63V25.32H14.958a17.607,17.607,0,0,1,8.889,2.239,15.61,15.61,0,0,1,6.12,6.366,19.636,19.636,0,0,1,2.2,9.381V45.04a19.691,19.691,0,0,1-2.161,9.342,15.476,15.476,0,0,1-6.094,6.34A17.739,17.739,0,0,1,15.036,63Zm7.764-31.391V56.763H14.88a8.431,8.431,0,0,0,6.961-2.976q2.407-2.976,2.458-8.514V43.28q0-5.745-2.381-8.708a8.4,8.4,0,0,0-6.961-2.963Zm40.63,17.6H45.573V63H37.809V25.32h14q6.677,0,10.3,2.976a10.271,10.271,0,0,1,3.623,8.411,11.592,11.592,0,0,1-1.669,6.431A11.384,11.384,0,0,1,59,47.24l8.152,15.4V63H58.823Zm-6.185-6.289h6.263a6.412,6.412,0,0,0,4.529-1.488,5.319,5.319,0,0,0,1.6-4.1,5.693,5.693,0,0,0-1.514-4.192,6.292,6.292,0,0,0-4.645-1.527H45.573ZM83.382,42.3,91.223,25.32h8.488L87.341,49.336V63H79.448V49.336L67.078,25.32h8.514ZM110.555,63h-7.5V35h7.5ZM102.61,27.753a3.683,3.683,0,0,1,1.126-2.769,4.851,4.851,0,0,1,6.12,0,3.952,3.952,0,0,1-.013,5.564,4.8,4.8,0,0,1-6.082,0A3.672,3.672,0,0,1,102.61,27.753Zm44.175,22.7a13.333,13.333,0,0,1-4.49,9.575q-4.05,3.494-10.675,3.494-7.246,0-11.4-4.878t-4.154-13.392v-2.3a22.587,22.587,0,0,1,1.915-9.575,14.351,14.351,0,0,1,5.473-6.353,15.332,15.332,0,0,1,8.268-2.213q6.521,0,10.507,3.494t4.606,9.808h-7.764q-.285-3.649-2.031-5.292t-5.318-1.643a6.6,6.6,0,0,0-5.81,2.782q-1.928,2.782-1.98,8.631v2.847q0,6.107,1.85,8.928a6.474,6.474,0,0,0,5.836,2.821q3.6,0,5.37-1.643a7.422,7.422,0,0,0,2.031-5.085Zm27.768-3.778H159.647V56.763h17.494V63H151.883V25.32h25.206v6.289H159.647v8.98h14.906ZM202.3,63h-7.5V35h7.5Zm-7.945-35.247a3.683,3.683,0,0,1,1.126-2.769,4.851,4.851,0,0,1,6.12,0,3.952,3.952,0,0,1-.013,5.564,4.8,4.8,0,0,1-6.082,0A3.672,3.672,0,0,1,194.351,27.753Zm44.175,22.7a13.333,13.333,0,0,1-4.49,9.575q-4.05,3.494-10.675,3.494-7.246,0-11.4-4.878t-4.154-13.392v-2.3a22.587,22.587,0,0,1,1.915-9.575,14.351,14.351,0,0,1,5.473-6.353,15.332,15.332,0,0,1,8.268-2.213q6.521,0,10.507,3.494t4.606,9.808h-7.764q-.285-3.649-2.031-5.292t-5.318-1.643a6.6,6.6,0,0,0-5.81,2.782q-1.928,2.782-1.98,8.631v2.847q0,6.107,1.85,8.928a6.474,6.474,0,0,0,5.836,2.821q3.6,0,5.37-1.643a7.422,7.422,0,0,0,2.031-5.085Zm3.442-1.708a16.606,16.606,0,0,1,1.6-7.427,11.746,11.746,0,0,1,4.619-5.046,13.477,13.477,0,0,1,7-1.786,12.751,12.751,0,0,1,9.252,3.468,13.917,13.917,0,0,1,4,9.42l.052,1.915q0,6.444-3.6,10.339a13.942,13.942,0,0,1-19.319.013q-3.61-3.882-3.61-10.559Zm7.479.531a10.467,10.467,0,0,0,1.5,6.1,5.392,5.392,0,0,0,8.54.026q1.527-2.086,1.527-6.674a10.362,10.362,0,0,0-1.527-6.065,4.963,4.963,0,0,0-4.3-2.151,4.882,4.882,0,0,0-4.244,2.138Q249.447,44.788,249.447,49.272ZM279.984,35l.233,3.235a9.776,9.776,0,0,1,8.048-3.752q4.451,0,6.625,2.614t2.226,7.815V63h-7.479V45.092a4.852,4.852,0,0,0-1.035-3.455,4.634,4.634,0,0,0-3.442-1.074,5.145,5.145,0,0,0-4.736,2.691V63h-7.479V35Zm31.753-6.884V35h4.788v5.486h-4.788V54.46a3.337,3.337,0,0,0,.6,2.226,2.989,2.989,0,0,0,2.277.673,11.927,11.927,0,0,0,2.2-.181v5.667a15.4,15.4,0,0,1-4.529.673q-7.867,0-8.022-7.945V40.485h-4.089V35h4.089V28.115Zm24.688,13.9a20.319,20.319,0,0,0-2.691-.207q-4.244,0-5.564,2.873V63h-7.479V35h7.065l.207,3.338a6.93,6.93,0,0,1,6.237-3.856,7.837,7.837,0,0,1,2.329.336Zm1.5,6.729a16.606,16.606,0,0,1,1.6-7.427,11.746,11.746,0,0,1,4.619-5.046,13.477,13.477,0,0,1,7-1.786,12.751,12.751,0,0,1,9.252,3.468,13.917,13.917,0,0,1,4,9.42l.052,1.915q0,6.444-3.6,10.339a13.942,13.942,0,0,1-19.319.013q-3.61-3.882-3.61-10.559Zm7.479.531a10.467,10.467,0,0,0,1.5,6.1,5.392,5.392,0,0,0,8.54.026q1.527-2.086,1.527-6.674a10.362,10.362,0,0,0-1.527-6.065,4.963,4.963,0,0,0-4.3-2.151,4.882,4.882,0,0,0-4.244,2.138Q345.406,44.788,345.406,49.272ZM376.952,63h-7.5V23.25h7.5Z" transform="translate(124.228 342.312)" fill="#fff"/>
      <path id="_Interactive_Demo" data-name=" Interactive Demo" d="M21.125,0H18V-36.969h3.123ZM33.338-27.473l.1,4.7A10.909,10.909,0,0,1,37.3-26.647a10.03,10.03,0,0,1,5.1-1.333q4.418,0,6.576,2.488t2.184,7.465V0H48.141V-18.053q-.025-3.682-1.562-5.484t-4.913-1.8a7.685,7.685,0,0,0-4.989,1.765,10.338,10.338,0,0,0-3.212,4.761V0H30.443V-27.473ZM63.73-34.506v7.033h5.688v2.488H63.73V-6.658a5.737,5.737,0,0,0,.825,3.406,3.2,3.2,0,0,0,2.755,1.118,18.9,18.9,0,0,0,2.463-.254L69.9.08a9.932,9.932,0,0,1-3.25.428,5.419,5.419,0,0,1-4.545-1.815,8.546,8.546,0,0,1-1.422-5.345V-24.984H55.631v-2.488h5.053v-7.033ZM86.354.508a11.926,11.926,0,0,1-6.335-1.727A11.767,11.767,0,0,1,75.613-6.03a15,15,0,0,1-1.574-6.919v-1.092a16.166,16.166,0,0,1,1.536-7.135,12.221,12.221,0,0,1,4.278-4.989,10.554,10.554,0,0,1,5.941-1.815,9.92,9.92,0,0,1,7.935,3.415q2.933,3.415,2.933,9.331v1.7h-19.6v.584a11.5,11.5,0,0,0,2.679,7.782,8.522,8.522,0,0,0,6.741,3.11,9.9,9.9,0,0,0,4.3-.889,9.545,9.545,0,0,0,3.39-2.844l1.9,1.447A11.085,11.085,0,0,1,86.354.508Zm-.559-25.9a7.6,7.6,0,0,0-5.776,2.514,11.612,11.612,0,0,0-2.856,6.754H93.641v-.33a10.082,10.082,0,0,0-2.26-6.449A7,7,0,0,0,85.795-25.391Zm29.479.508a11.349,11.349,0,0,0-2.057-.178,7.42,7.42,0,0,0-4.812,1.587,8.692,8.692,0,0,0-2.806,4.608V0h-3.021V-27.473h2.971l.051,4.367a8.08,8.08,0,0,1,7.744-4.875,5,5,0,0,1,2.006.33ZM136.4,0a14.369,14.369,0,0,1-.584-3.834,10.6,10.6,0,0,1-4.075,3.212A12.481,12.481,0,0,1,126.5.508,9.209,9.209,0,0,1,120.085-1.7a7.2,7.2,0,0,1-2.45-5.586,7.353,7.353,0,0,1,3.339-6.348q3.339-2.336,9.306-2.336h5.51v-3.123a6.018,6.018,0,0,0-1.815-4.634,7.5,7.5,0,0,0-5.294-1.688,8.285,8.285,0,0,0-5.256,1.625,4.828,4.828,0,0,0-2.082,3.91l-3.047-.025a7.065,7.065,0,0,1,3.047-5.675,11.732,11.732,0,0,1,7.49-2.4,10.7,10.7,0,0,1,7.249,2.3,8.245,8.245,0,0,1,2.729,6.411v13A16.124,16.124,0,0,0,139.648-.3V0Zm-9.547-2.184A10.2,10.2,0,0,0,132.3-3.656a8.665,8.665,0,0,0,3.491-3.936v-6.043h-5.434a13.615,13.615,0,0,0-7.109,1.663,4.991,4.991,0,0,0-2.564,4.431A4.912,4.912,0,0,0,122.4-3.707,6.457,6.457,0,0,0,126.852-2.184Zm30.215.127a8.023,8.023,0,0,0,5.319-1.79,6.3,6.3,0,0,0,2.323-4.634h2.92A8.6,8.6,0,0,1,166.055-3.9,9.862,9.862,0,0,1,162.208-.66,11.593,11.593,0,0,1,157.066.508,10.613,10.613,0,0,1,148.5-3.25q-3.161-3.758-3.161-10.105v-.914a17.174,17.174,0,0,1,1.422-7.186,10.957,10.957,0,0,1,4.075-4.824,11.25,11.25,0,0,1,6.208-1.7,10.594,10.594,0,0,1,7.452,2.691,9.814,9.814,0,0,1,3.136,7.084h-2.92a7.471,7.471,0,0,0-2.323-5.205,7.523,7.523,0,0,0-5.345-1.98,7.576,7.576,0,0,0-6.386,2.971q-2.272,2.971-2.272,8.328v.889q0,5.256,2.272,8.2A7.628,7.628,0,0,0,157.066-2.057ZM178.42-34.506v7.033h5.688v2.488H178.42V-6.658a5.737,5.737,0,0,0,.825,3.406A3.2,3.2,0,0,0,182-2.133a18.9,18.9,0,0,0,2.463-.254L184.59.08a9.932,9.932,0,0,1-3.25.428,5.419,5.419,0,0,1-4.545-1.815,8.546,8.546,0,0,1-1.422-5.345V-24.984H170.32v-2.488h5.053v-7.033ZM193.807,0H190.76V-27.473h3.047Zm-3.58-35.407a2.037,2.037,0,0,1,.559-1.451,1.992,1.992,0,0,1,1.523-.593,2.034,2.034,0,0,1,1.536.593,2.012,2.012,0,0,1,.571,1.451,1.97,1.97,0,0,1-.571,1.438,2.058,2.058,0,0,1-1.536.58,2.015,2.015,0,0,1-1.523-.58A1.993,1.993,0,0,1,190.227-35.407ZM210.615-4.189l8.354-23.283h3.123L211.834,0h-2.463L199.063-27.473h3.123Zm26.762,4.7a11.926,11.926,0,0,1-6.335-1.727,11.767,11.767,0,0,1-4.405-4.812,15,15,0,0,1-1.574-6.919v-1.092a16.166,16.166,0,0,1,1.536-7.135,12.221,12.221,0,0,1,4.278-4.989,10.554,10.554,0,0,1,5.941-1.815,9.92,9.92,0,0,1,7.935,3.415q2.933,3.415,2.933,9.331v1.7h-19.6v.584a11.5,11.5,0,0,0,2.679,7.782,8.522,8.522,0,0,0,6.741,3.11,9.9,9.9,0,0,0,4.3-.889,9.545,9.545,0,0,0,3.39-2.844l1.9,1.447A11.085,11.085,0,0,1,237.377.508Zm-.559-25.9a7.6,7.6,0,0,0-5.776,2.514,11.612,11.612,0,0,0-2.856,6.754h16.479v-.33A10.082,10.082,0,0,0,242.4-22.9,7,7,0,0,0,236.818-25.391ZM266.957,0V-36.969h10.334a16.077,16.077,0,0,1,8.15,2.069,14.306,14.306,0,0,1,5.624,5.929,18.672,18.672,0,0,1,2.019,8.785v3.4A18.672,18.672,0,0,1,291.078-8a14.272,14.272,0,0,1-5.649,5.916A16.562,16.562,0,0,1,277.063,0Zm3.123-34.328V-2.641h7.008a12.061,12.061,0,0,0,9.369-3.875q3.529-3.875,3.529-10.482v-3.253q0-6.378-3.479-10.215a11.857,11.857,0,0,0-9.166-3.863ZM310.934.508A11.926,11.926,0,0,1,304.6-1.219a11.767,11.767,0,0,1-4.405-4.812,15,15,0,0,1-1.574-6.919v-1.092a16.166,16.166,0,0,1,1.536-7.135,12.221,12.221,0,0,1,4.278-4.989,10.554,10.554,0,0,1,5.941-1.815,9.92,9.92,0,0,1,7.935,3.415q2.933,3.415,2.933,9.331v1.7h-19.6v.584a11.5,11.5,0,0,0,2.679,7.782,8.522,8.522,0,0,0,6.741,3.11,9.9,9.9,0,0,0,4.3-.889,9.545,9.545,0,0,0,3.39-2.844l1.9,1.447A11.085,11.085,0,0,1,310.934.508Zm-.559-25.9a7.6,7.6,0,0,0-5.776,2.514,11.612,11.612,0,0,0-2.856,6.754h16.479v-.33a10.082,10.082,0,0,0-2.26-6.449A7,7,0,0,0,310.375-25.391Zm19.551-2.082.1,4.469a10.169,10.169,0,0,1,3.809-3.732,10.445,10.445,0,0,1,5.078-1.244q6.5,0,8.252,5.332A10.314,10.314,0,0,1,351.1-26.6a10.9,10.9,0,0,1,5.434-1.384q8.836,0,9.014,9.648V0H362.5V-18.1q-.025-3.682-1.587-5.459t-5.091-1.777a8.092,8.092,0,0,0-5.535,2.12,7.492,7.492,0,0,0-2.514,5.04V0h-3.047V-18.332a7.526,7.526,0,0,0-1.663-5.269,6.618,6.618,0,0,0-5.04-1.739A7.664,7.664,0,0,0,333.1-23.7a9.6,9.6,0,0,0-3.047,4.862V0h-3.047V-27.473Zm41.641,13.33a16.166,16.166,0,0,1,1.536-7.135,11.708,11.708,0,0,1,4.342-4.938,11.7,11.7,0,0,1,6.36-1.765,11.3,11.3,0,0,1,8.887,3.847q3.4,3.847,3.4,10.194v.635a16.308,16.308,0,0,1-1.536,7.173,11.47,11.47,0,0,1-4.329,4.913A11.87,11.87,0,0,1,383.855.508a11.311,11.311,0,0,1-8.874-3.847q-3.415-3.847-3.415-10.194Zm3.047.838a12.466,12.466,0,0,0,2.552,8.087,8.184,8.184,0,0,0,6.69,3.161,8.158,8.158,0,0,0,6.665-3.161,12.876,12.876,0,0,0,2.552-8.341v-.584a13.975,13.975,0,0,0-1.168-5.764,9.385,9.385,0,0,0-3.275-4.05,8.369,8.369,0,0,0-4.824-1.435,8.118,8.118,0,0,0-6.627,3.187,12.9,12.9,0,0,0-2.564,8.341Z" transform="translate(108.228 469.312)" fill="#4dc0ed"/>
    </g>
  </g>
</svg>
