<svg xmlns="http://www.w3.org/2000/svg" width="549.5" height="229.5" viewBox="0 0 549.5 229.5">
  <g id="Group_1127" data-name="Group 1127" transform="translate(-215 -416.5)">
    <g id="Group_1029" data-name="Group 1029" transform="translate(-1 -0.5)">
      <g id="Group_1126" data-name="Group 1126">
        <path id="Path_1243" data-name="Path 1243" d="M5,0H544a5,5,0,0,1,5,5V224a5,5,0,0,1-5,5H5a5,5,0,0,1-5-5V5A5,5,0,0,1,5,0Z" transform="translate(216 417)" fill="#fff"/>
      </g>
      <path id="Path_1244" data-name="Path 1244" d="M132.5,0H0" transform="translate(216 490.996)" fill="none" stroke="rgba(165,170,188,0.5)" stroke-width="1"/>
      <path id="Path_1245" data-name="Path 1245" d="M132.5,0H0" transform="translate(216 527.491)" fill="none" stroke="rgba(165,170,188,0.5)" stroke-width="1"/>
      <path id="Path_1246" data-name="Path 1246" d="M6.055-2.256A2.616,2.616,0,0,1,5.222-.515,2.728,2.728,0,0,1,3.359.1a2.505,2.505,0,0,1-2.019-.9A3.634,3.634,0,0,1,.581-3.223v-.684A4.051,4.051,0,0,1,.935-5.649a2.644,2.644,0,0,1,1-1.155,2.794,2.794,0,0,1,1.5-.4,2.569,2.569,0,0,1,1.816.632,2.647,2.647,0,0,1,.8,1.75H5.112a2.043,2.043,0,0,0-.53-1.234,1.6,1.6,0,0,0-1.14-.382,1.677,1.677,0,0,0-1.409.665,3.051,3.051,0,0,0-.51,1.891V-3.2a3.136,3.136,0,0,0,.483,1.842,1.562,1.562,0,0,0,1.353.684,1.8,1.8,0,0,0,1.2-.354,1.964,1.964,0,0,0,.554-1.233Zm5.2-.884H8.271V0H7.334V-7.109h4.4v.767H8.271v2.437h2.983Zm5.527,0H13.8V0h-.937V-7.109h4.4v.767H13.8v2.437h2.983Zm3.345.488H17.744v-.737h2.383Zm5.244-.381a4.131,4.131,0,0,1-.542,2.358A1.928,1.928,0,0,1,23.135.1,1.942,1.942,0,0,1,21.45-.657a3.921,3.921,0,0,1-.566-2.253V-4.116a4.039,4.039,0,0,1,.542-2.329,1.942,1.942,0,0,1,1.7-.762,1.96,1.96,0,0,1,1.689.735A3.9,3.9,0,0,1,25.371-4.2Zm-.9-1.235a3.31,3.31,0,0,0-.322-1.672,1.109,1.109,0,0,0-1.021-.525,1.1,1.1,0,0,0-1.011.522,3.232,3.232,0,0,0-.327,1.606v1.445a3.363,3.363,0,0,0,.334,1.7,1.107,1.107,0,0,0,1.013.549,1.092,1.092,0,0,0,.994-.518,3.241,3.241,0,0,0,.339-1.631Zm6.519,1.235a4.131,4.131,0,0,1-.542,2.358A1.928,1.928,0,0,1,28.75.1a1.942,1.942,0,0,1-1.685-.754A3.921,3.921,0,0,1,26.5-2.91V-4.116a4.039,4.039,0,0,1,.542-2.329,1.942,1.942,0,0,1,1.7-.762,1.96,1.96,0,0,1,1.689.735A3.9,3.9,0,0,1,30.986-4.2Zm-.9-1.235a3.31,3.31,0,0,0-.322-1.672,1.109,1.109,0,0,0-1.021-.525,1.1,1.1,0,0,0-1.011.522A3.232,3.232,0,0,0,27.4-4.336v1.445a3.363,3.363,0,0,0,.334,1.7A1.107,1.107,0,0,0,28.75-.64a1.092,1.092,0,0,0,.994-.518,3.241,3.241,0,0,0,.339-1.631ZM36.6-3.032A4.131,4.131,0,0,1,36.06-.674,1.928,1.928,0,0,1,34.365.1a1.942,1.942,0,0,1-1.685-.754,3.921,3.921,0,0,1-.566-2.253V-4.116a4.039,4.039,0,0,1,.542-2.329,1.942,1.942,0,0,1,1.7-.762,1.96,1.96,0,0,1,1.689.735A3.9,3.9,0,0,1,36.6-4.2Zm-.9-1.235a3.31,3.31,0,0,0-.322-1.672,1.109,1.109,0,0,0-1.021-.525,1.1,1.1,0,0,0-1.011.522,3.232,3.232,0,0,0-.327,1.606v1.445a3.363,3.363,0,0,0,.334,1.7,1.107,1.107,0,0,0,1.013.549,1.092,1.092,0,0,0,.994-.518A3.241,3.241,0,0,0,35.7-2.788Zm6.372-.986a1.651,1.651,0,0,1-.281.947,1.91,1.91,0,0,1-.759.649,2.038,2.038,0,0,1,.881.7,1.757,1.757,0,0,1,.325,1.04,1.858,1.858,0,0,1-.623,1.47A2.392,2.392,0,0,1,39.976.1a2.381,2.381,0,0,1-1.643-.549,1.866,1.866,0,0,1-.618-1.467,1.81,1.81,0,0,1,.315-1.04,1.96,1.96,0,0,1,.872-.7,1.863,1.863,0,0,1-.747-.649,1.674,1.674,0,0,1-.273-.942,1.838,1.838,0,0,1,.576-1.426,2.161,2.161,0,0,1,1.519-.527,2.163,2.163,0,0,1,1.516.527A1.834,1.834,0,0,1,42.07-5.254Zm-.737,3.315a1.31,1.31,0,0,0-.378-.972,1.342,1.342,0,0,0-.989-.376,1.318,1.318,0,0,0-.979.371,1.325,1.325,0,0,0-.369.977,1.262,1.262,0,0,0,.359.952,1.378,1.378,0,0,0,1,.347,1.373,1.373,0,0,0,1-.349A1.259,1.259,0,0,0,41.333-1.938ZM39.976-6.465a1.166,1.166,0,0,0-.862.33,1.211,1.211,0,0,0-.33.9,1.2,1.2,0,0,0,.325.876,1.152,1.152,0,0,0,.867.334,1.152,1.152,0,0,0,.867-.334,1.2,1.2,0,0,0,.325-.876,1.205,1.205,0,0,0-.337-.884A1.149,1.149,0,0,0,39.976-6.465Z" transform="translate(254 441.252)" fill="#0c2339"/>
      <path id="Path_1247" data-name="Path 1247" d="M0,0H131V36H0Z" transform="translate(218 455)" fill="#e5f4ff"/>
      <path id="Path_1248" data-name="Path 1248" d="M6.055-2.256A2.616,2.616,0,0,1,5.222-.515,2.728,2.728,0,0,1,3.359.1a2.505,2.505,0,0,1-2.019-.9A3.634,3.634,0,0,1,.581-3.223v-.684A4.051,4.051,0,0,1,.935-5.649a2.644,2.644,0,0,1,1-1.155,2.794,2.794,0,0,1,1.5-.4,2.569,2.569,0,0,1,1.816.632,2.647,2.647,0,0,1,.8,1.75H5.112a2.043,2.043,0,0,0-.53-1.234,1.6,1.6,0,0,0-1.14-.382,1.677,1.677,0,0,0-1.409.665,3.051,3.051,0,0,0-.51,1.891V-3.2a3.136,3.136,0,0,0,.483,1.842,1.562,1.562,0,0,0,1.353.684,1.8,1.8,0,0,0,1.2-.354,1.964,1.964,0,0,0,.554-1.233Zm5.2-.884H8.271V0H7.334V-7.109h4.4v.767H8.271v2.437h2.983Zm5.527,0H13.8V0h-.937V-7.109h4.4v.767H13.8v2.437h2.983Zm3.345.488H17.744v-.737h2.383Zm5.244-.381a4.131,4.131,0,0,1-.542,2.358A1.928,1.928,0,0,1,23.135.1,1.942,1.942,0,0,1,21.45-.657a3.921,3.921,0,0,1-.566-2.253V-4.116a4.039,4.039,0,0,1,.542-2.329,1.942,1.942,0,0,1,1.7-.762,1.96,1.96,0,0,1,1.689.735A3.9,3.9,0,0,1,25.371-4.2Zm-.9-1.235a3.31,3.31,0,0,0-.322-1.672,1.109,1.109,0,0,0-1.021-.525,1.1,1.1,0,0,0-1.011.522,3.232,3.232,0,0,0-.327,1.606v1.445a3.363,3.363,0,0,0,.334,1.7,1.107,1.107,0,0,0,1.013.549,1.092,1.092,0,0,0,.994-.518,3.241,3.241,0,0,0,.339-1.631Zm6.519,1.235a4.131,4.131,0,0,1-.542,2.358A1.928,1.928,0,0,1,28.75.1a1.942,1.942,0,0,1-1.685-.754A3.921,3.921,0,0,1,26.5-2.91V-4.116a4.039,4.039,0,0,1,.542-2.329,1.942,1.942,0,0,1,1.7-.762,1.96,1.96,0,0,1,1.689.735A3.9,3.9,0,0,1,30.986-4.2Zm-.9-1.235a3.31,3.31,0,0,0-.322-1.672,1.109,1.109,0,0,0-1.021-.525,1.1,1.1,0,0,0-1.011.522A3.232,3.232,0,0,0,27.4-4.336v1.445a3.363,3.363,0,0,0,.334,1.7A1.107,1.107,0,0,0,28.75-.64a1.092,1.092,0,0,0,.994-.518,3.241,3.241,0,0,0,.339-1.631Zm5.874,1.88h.986v.737h-.986V0h-.908V-1.65H31.812v-.532L35-7.109h.962Zm-3.12,0h2.212V-5.874l-.107.2ZM40.728,0h-.908V-6.021L38-5.352v-.82l2.588-.972h.142Z" transform="translate(254 477.748)" fill="#0c2339"/>
      <path id="Path_1249" data-name="Path 1249" d="M6.055-2.256A2.616,2.616,0,0,1,5.222-.515,2.728,2.728,0,0,1,3.359.1a2.505,2.505,0,0,1-2.019-.9A3.634,3.634,0,0,1,.581-3.223v-.684A4.051,4.051,0,0,1,.935-5.649a2.644,2.644,0,0,1,1-1.155,2.794,2.794,0,0,1,1.5-.4,2.569,2.569,0,0,1,1.816.632,2.647,2.647,0,0,1,.8,1.75H5.112a2.043,2.043,0,0,0-.53-1.234,1.6,1.6,0,0,0-1.14-.382,1.677,1.677,0,0,0-1.409.665,3.051,3.051,0,0,0-.51,1.891V-3.2a3.136,3.136,0,0,0,.483,1.842,1.562,1.562,0,0,0,1.353.684,1.8,1.8,0,0,0,1.2-.354,1.964,1.964,0,0,0,.554-1.233Zm5.2-.884H8.271V0H7.334V-7.109h4.4v.767H8.271v2.437h2.983Zm5.527,0H13.8V0h-.937V-7.109h4.4v.767H13.8v2.437h2.983Zm3.345.488H17.744v-.737h2.383Zm5.244-.381a4.131,4.131,0,0,1-.542,2.358A1.928,1.928,0,0,1,23.135.1,1.942,1.942,0,0,1,21.45-.657a3.921,3.921,0,0,1-.566-2.253V-4.116a4.039,4.039,0,0,1,.542-2.329,1.942,1.942,0,0,1,1.7-.762,1.96,1.96,0,0,1,1.689.735A3.9,3.9,0,0,1,25.371-4.2Zm-.9-1.235a3.31,3.31,0,0,0-.322-1.672,1.109,1.109,0,0,0-1.021-.525,1.1,1.1,0,0,0-1.011.522,3.232,3.232,0,0,0-.327,1.606v1.445a3.363,3.363,0,0,0,.334,1.7,1.107,1.107,0,0,0,1.013.549,1.092,1.092,0,0,0,.994-.518,3.241,3.241,0,0,0,.339-1.631Zm6.519,1.235a4.131,4.131,0,0,1-.542,2.358A1.928,1.928,0,0,1,28.75.1a1.942,1.942,0,0,1-1.685-.754A3.921,3.921,0,0,1,26.5-2.91V-4.116a4.039,4.039,0,0,1,.542-2.329,1.942,1.942,0,0,1,1.7-.762,1.96,1.96,0,0,1,1.689.735A3.9,3.9,0,0,1,30.986-4.2Zm-.9-1.235a3.31,3.31,0,0,0-.322-1.672,1.109,1.109,0,0,0-1.021-.525,1.1,1.1,0,0,0-1.011.522A3.232,3.232,0,0,0,27.4-4.336v1.445a3.363,3.363,0,0,0,.334,1.7A1.107,1.107,0,0,0,28.75-.64a1.092,1.092,0,0,0,.994-.518,3.241,3.241,0,0,0,.339-1.631Zm5.874,1.88h.986v.737h-.986V0h-.908V-1.65H31.812v-.532L35-7.109h.962Zm-3.12,0h2.212V-5.874l-.107.2ZM42.417,0H37.759V-.649L40.22-3.384a5.847,5.847,0,0,0,.754-1.008,1.683,1.683,0,0,0,.208-.8,1.276,1.276,0,0,0-.337-.913,1.178,1.178,0,0,0-.9-.356,1.4,1.4,0,0,0-1.047.383,1.464,1.464,0,0,0-.374,1.067h-.9A2.1,2.1,0,0,1,38.254-6.6a2.344,2.344,0,0,1,1.692-.605,2.252,2.252,0,0,1,1.567.52A1.774,1.774,0,0,1,42.09-5.3a4.067,4.067,0,0,1-1.338,2.5l-1.9,2.065h3.569Z" transform="translate(254 514.243)" fill="#0c2339"/>
      <path id="Path_1250" data-name="Path 1250" d="M5.049-3.032A4.131,4.131,0,0,1,4.507-.674,1.928,1.928,0,0,1,2.813.1,1.942,1.942,0,0,1,1.128-.657,3.921,3.921,0,0,1,.562-2.91V-4.116A4.039,4.039,0,0,1,1.1-6.445a1.942,1.942,0,0,1,1.7-.762,1.96,1.96,0,0,1,1.689.735A3.9,3.9,0,0,1,5.049-4.2Zm-.9-1.235A3.31,3.31,0,0,0,3.823-5.94,1.109,1.109,0,0,0,2.8-6.465a1.1,1.1,0,0,0-1.011.522,3.232,3.232,0,0,0-.327,1.606v1.445a3.363,3.363,0,0,0,.334,1.7A1.107,1.107,0,0,0,2.813-.64a1.092,1.092,0,0,0,.994-.518,3.241,3.241,0,0,0,.339-1.631Z" transform="translate(388.25 484.996)" fill="#0c2339"/>
      <path id="Path_1251" data-name="Path 1251" d="M1.9-3.994h.679a1.492,1.492,0,0,0,1.006-.337,1.126,1.126,0,0,0,.366-.884A1.1,1.1,0,0,0,2.71-6.465a1.3,1.3,0,0,0-.935.334,1.171,1.171,0,0,0-.349.886h-.9a1.814,1.814,0,0,1,.618-1.4,2.25,2.25,0,0,1,1.57-.559,2.224,2.224,0,0,1,1.577.532A1.923,1.923,0,0,1,4.858-5.2a1.561,1.561,0,0,1-.3.9,1.813,1.813,0,0,1-.818.649,1.747,1.747,0,0,1,.906.615,1.709,1.709,0,0,1,.32,1.05A1.939,1.939,0,0,1,4.341-.464,2.34,2.34,0,0,1,2.715.1,2.4,2.4,0,0,1,1.086-.444,1.8,1.8,0,0,1,.459-1.875h.908a1.162,1.162,0,0,0,.366.9,1.393,1.393,0,0,0,.981.337,1.367,1.367,0,0,0,1-.342,1.317,1.317,0,0,0,.347-.981,1.2,1.2,0,0,0-.381-.952,1.659,1.659,0,0,0-1.1-.342H1.9Z" transform="translate(410.75 484.996)" fill="#0c2339"/>
      <path id="Path_1252" data-name="Path 1252" d="M4.136-7.114v.767H3.97a2.378,2.378,0,0,0-1.68.625,2.6,2.6,0,0,0-.723,1.7A1.928,1.928,0,0,1,3.1-4.663a1.844,1.844,0,0,1,1.482.654,2.524,2.524,0,0,1,.554,1.689,2.516,2.516,0,0,1-.6,1.758A2.06,2.06,0,0,1,2.935.1,2.029,2.029,0,0,1,1.279-.686,3.106,3.106,0,0,1,.645-2.705v-.347a4.68,4.68,0,0,1,.837-3A3.075,3.075,0,0,1,3.975-7.114Zm-1.187,3.2a1.441,1.441,0,0,0-.854.278,1.45,1.45,0,0,0-.542.7V-2.6a2.332,2.332,0,0,0,.4,1.416,1.185,1.185,0,0,0,.986.537A1.148,1.148,0,0,0,3.894-1.1a1.864,1.864,0,0,0,.349-1.177,1.865,1.865,0,0,0-.354-1.184A1.135,1.135,0,0,0,2.949-3.911Z" transform="translate(433.25 484.996)" fill="#0c2339"/>
      <path id="Path_1270" data-name="Path 1270" d="M4.053-3.125a2.21,2.21,0,0,1-.676.542,1.835,1.835,0,0,1-.862.205,1.894,1.894,0,0,1-1.072-.3,1.968,1.968,0,0,1-.706-.852A2.9,2.9,0,0,1,.488-4.746,2.96,2.96,0,0,1,.759-6.03,1.991,1.991,0,0,1,1.528-6.9a2.193,2.193,0,0,1,1.162-.3,1.985,1.985,0,0,1,1.663.789,3.44,3.44,0,0,1,.608,2.151V-4a4.6,4.6,0,0,1-.82,3.03A3.152,3.152,0,0,1,1.665,0H1.489V-.762h.19A2.487,2.487,0,0,0,3.4-1.344,2.5,2.5,0,0,0,4.053-3.125Zm-1.392,0A1.4,1.4,0,0,0,3.5-3.4a1.641,1.641,0,0,0,.559-.688v-.361A2.486,2.486,0,0,0,3.672-5.9,1.151,1.151,0,0,0,2.7-6.455,1.16,1.16,0,0,0,1.738-6a1.883,1.883,0,0,0-.361,1.2,1.96,1.96,0,0,0,.349,1.2A1.105,1.105,0,0,0,2.661-3.125Z" transform="translate(455.75 484.996)" fill="#0c2339"/>
      <path id="Path_1272" data-name="Path 1272" d="M3.56,0H2.651V-6.021L.83-5.352v-.82l2.588-.972H3.56Zm7.3,0H6.206V-.649L8.667-3.384a5.847,5.847,0,0,0,.754-1.008,1.683,1.683,0,0,0,.208-.8,1.276,1.276,0,0,0-.337-.913,1.178,1.178,0,0,0-.9-.356,1.4,1.4,0,0,0-1.047.383,1.464,1.464,0,0,0-.374,1.067h-.9A2.1,2.1,0,0,1,6.7-6.6a2.344,2.344,0,0,1,1.692-.605,2.252,2.252,0,0,1,1.567.52A1.774,1.774,0,0,1,10.537-5.3,4.067,4.067,0,0,1,9.2-2.8L7.295-.737h3.569Z" transform="translate(475.75 484.996)" fill="#0c2339"/>
      <path id="Path_1273" data-name="Path 1273" d="M3.56,0H2.651V-6.021L.83-5.352v-.82l2.588-.972H3.56ZM6.621-3.564l.361-3.545h3.643v.835H7.749L7.534-4.336a2.294,2.294,0,0,1,1.187-.308A1.961,1.961,0,0,1,10.264-4a2.516,2.516,0,0,1,.571,1.736,2.429,2.429,0,0,1-.593,1.731A2.162,2.162,0,0,1,8.584.1,2.247,2.247,0,0,1,7.046-.425,2.085,2.085,0,0,1,6.367-1.87h.854a1.435,1.435,0,0,0,.435.92,1.351,1.351,0,0,0,.928.31,1.219,1.219,0,0,0,.989-.43,1.8,1.8,0,0,0,.359-1.187A1.649,1.649,0,0,0,9.543-3.4a1.32,1.32,0,0,0-1.033-.432,1.489,1.489,0,0,0-.928.259l-.239.2Z" transform="translate(498.25 484.996)" fill="#0c2339"/>
      <path id="Path_1274" data-name="Path 1274" d="M3.56,0H2.651V-6.021L.83-5.352v-.82l2.588-.972H3.56Zm6.958-5.254a1.651,1.651,0,0,1-.281.947,1.91,1.91,0,0,1-.759.649,2.038,2.038,0,0,1,.881.7,1.757,1.757,0,0,1,.325,1.04,1.858,1.858,0,0,1-.623,1.47A2.392,2.392,0,0,1,8.423.1,2.381,2.381,0,0,1,6.78-.452a1.866,1.866,0,0,1-.618-1.467,1.81,1.81,0,0,1,.315-1.04,1.96,1.96,0,0,1,.872-.7A1.863,1.863,0,0,1,6.6-4.312a1.674,1.674,0,0,1-.273-.942A1.838,1.838,0,0,1,6.9-6.68a2.161,2.161,0,0,1,1.519-.527,2.163,2.163,0,0,1,1.516.527A1.834,1.834,0,0,1,10.518-5.254ZM9.78-1.938A1.31,1.31,0,0,0,9.4-2.91a1.342,1.342,0,0,0-.989-.376,1.318,1.318,0,0,0-.979.371,1.325,1.325,0,0,0-.369.977,1.262,1.262,0,0,0,.359.952,1.378,1.378,0,0,0,1,.347,1.373,1.373,0,0,0,1-.349A1.259,1.259,0,0,0,9.78-1.938ZM8.423-6.465a1.166,1.166,0,0,0-.862.33,1.211,1.211,0,0,0-.33.9,1.2,1.2,0,0,0,.325.876,1.152,1.152,0,0,0,.867.334,1.152,1.152,0,0,0,.867-.334,1.2,1.2,0,0,0,.325-.876,1.205,1.205,0,0,0-.337-.884A1.149,1.149,0,0,0,8.423-6.465Z" transform="translate(520.75 484.996)" fill="#0c2339"/>
      <path id="Path_1282" data-name="Path 1282" d="M5.249,0H.591V-.649L3.052-3.384a5.847,5.847,0,0,0,.754-1.008,1.683,1.683,0,0,0,.208-.8,1.276,1.276,0,0,0-.337-.913,1.178,1.178,0,0,0-.9-.356,1.4,1.4,0,0,0-1.047.383,1.464,1.464,0,0,0-.374,1.067h-.9A2.1,2.1,0,0,1,1.086-6.6a2.344,2.344,0,0,1,1.692-.605,2.252,2.252,0,0,1,1.567.52A1.774,1.774,0,0,1,4.922-5.3,4.067,4.067,0,0,1,3.584-2.8L1.68-.737H5.249ZM9.175,0H8.267V-6.021l-1.821.669v-.82l2.588-.972h.142Z" transform="translate(543.25 484.996)" fill="#0c2339"/>
      <path id="Path_1283" data-name="Path 1283" d="M5.249,0H.591V-.649L3.052-3.384a5.847,5.847,0,0,0,.754-1.008,1.683,1.683,0,0,0,.208-.8,1.276,1.276,0,0,0-.337-.913,1.178,1.178,0,0,0-.9-.356,1.4,1.4,0,0,0-1.047.383,1.464,1.464,0,0,0-.374,1.067h-.9A2.1,2.1,0,0,1,1.086-6.6a2.344,2.344,0,0,1,1.692-.605,2.252,2.252,0,0,1,1.567.52A1.774,1.774,0,0,1,4.922-5.3,4.067,4.067,0,0,1,3.584-2.8L1.68-.737H5.249ZM10.02-2.388h.986v.737H10.02V0H9.111V-1.65H5.874v-.532L9.058-7.109h.962Zm-3.12,0H9.111V-5.874L9-5.679Z" transform="translate(565.75 484.996)" fill="#0c2339"/>
      <path id="Path_1287" data-name="Path 1287" d="M5.249,0H.591V-.649L3.052-3.384a5.847,5.847,0,0,0,.754-1.008,1.683,1.683,0,0,0,.208-.8,1.276,1.276,0,0,0-.337-.913,1.178,1.178,0,0,0-.9-.356,1.4,1.4,0,0,0-1.047.383,1.464,1.464,0,0,0-.374,1.067h-.9A2.1,2.1,0,0,1,1.086-6.6a2.344,2.344,0,0,1,1.692-.605,2.252,2.252,0,0,1,1.567.52A1.774,1.774,0,0,1,4.922-5.3,4.067,4.067,0,0,1,3.584-2.8L1.68-.737H5.249ZM10.8-6.6,7.852,0H6.9L9.839-6.367H5.991v-.742h4.8Z" transform="translate(588.25 484.996)" fill="#0c2339"/>
      <path id="Path_1288" data-name="Path 1288" d="M1.9-3.994h.679a1.492,1.492,0,0,0,1.006-.337,1.126,1.126,0,0,0,.366-.884A1.1,1.1,0,0,0,2.71-6.465a1.3,1.3,0,0,0-.935.334,1.171,1.171,0,0,0-.349.886h-.9a1.814,1.814,0,0,1,.618-1.4,2.25,2.25,0,0,1,1.57-.559,2.224,2.224,0,0,1,1.577.532A1.923,1.923,0,0,1,4.858-5.2a1.561,1.561,0,0,1-.3.9,1.813,1.813,0,0,1-.818.649,1.747,1.747,0,0,1,.906.615,1.709,1.709,0,0,1,.32,1.05A1.939,1.939,0,0,1,4.341-.464,2.34,2.34,0,0,1,2.715.1,2.4,2.4,0,0,1,1.086-.444,1.8,1.8,0,0,1,.459-1.875h.908a1.162,1.162,0,0,0,.366.9,1.393,1.393,0,0,0,.981.337,1.367,1.367,0,0,0,1-.342,1.317,1.317,0,0,0,.347-.981,1.2,1.2,0,0,0-.381-.952,1.659,1.659,0,0,0-1.1-.342H1.9Zm8.76.962a4.131,4.131,0,0,1-.542,2.358A1.928,1.928,0,0,1,8.428.1,1.942,1.942,0,0,1,6.743-.657,3.921,3.921,0,0,1,6.177-2.91V-4.116a4.039,4.039,0,0,1,.542-2.329,1.942,1.942,0,0,1,1.7-.762,1.96,1.96,0,0,1,1.689.735A3.9,3.9,0,0,1,10.664-4.2Zm-.9-1.235A3.31,3.31,0,0,0,9.438-5.94a1.109,1.109,0,0,0-1.021-.525,1.1,1.1,0,0,0-1.011.522A3.232,3.232,0,0,0,7.08-4.336v1.445a3.363,3.363,0,0,0,.334,1.7A1.107,1.107,0,0,0,8.428-.64a1.092,1.092,0,0,0,.994-.518,3.241,3.241,0,0,0,.339-1.631Z" transform="translate(610.75 484.996)" fill="#0c2339"/>
      <path id="Path_1291" data-name="Path 1291" d="M1.9-3.994h.679a1.492,1.492,0,0,0,1.006-.337,1.126,1.126,0,0,0,.366-.884A1.1,1.1,0,0,0,2.71-6.465a1.3,1.3,0,0,0-.935.334,1.171,1.171,0,0,0-.349.886h-.9a1.814,1.814,0,0,1,.618-1.4,2.25,2.25,0,0,1,1.57-.559,2.224,2.224,0,0,1,1.577.532A1.923,1.923,0,0,1,4.858-5.2a1.561,1.561,0,0,1-.3.9,1.813,1.813,0,0,1-.818.649,1.747,1.747,0,0,1,.906.615,1.709,1.709,0,0,1,.32,1.05A1.939,1.939,0,0,1,4.341-.464,2.34,2.34,0,0,1,2.715.1,2.4,2.4,0,0,1,1.086-.444,1.8,1.8,0,0,1,.459-1.875h.908a1.162,1.162,0,0,0,.366.9,1.393,1.393,0,0,0,.981.337,1.367,1.367,0,0,0,1-.342,1.317,1.317,0,0,0,.347-.981,1.2,1.2,0,0,0-.381-.952,1.659,1.659,0,0,0-1.1-.342H1.9Zm5.615,0H8.2A1.492,1.492,0,0,0,9.2-4.331a1.126,1.126,0,0,0,.366-.884,1.1,1.1,0,0,0-1.245-1.25,1.3,1.3,0,0,0-.935.334,1.171,1.171,0,0,0-.349.886h-.9a1.814,1.814,0,0,1,.618-1.4,2.25,2.25,0,0,1,1.57-.559A2.224,2.224,0,0,1,9.9-6.675,1.923,1.923,0,0,1,10.474-5.2a1.561,1.561,0,0,1-.3.9,1.813,1.813,0,0,1-.818.649,1.747,1.747,0,0,1,.906.615,1.709,1.709,0,0,1,.32,1.05A1.939,1.939,0,0,1,9.956-.464,2.34,2.34,0,0,1,8.33.1,2.4,2.4,0,0,1,6.7-.444a1.8,1.8,0,0,1-.627-1.431h.908a1.162,1.162,0,0,0,.366.9A1.393,1.393,0,0,0,8.33-.64a1.367,1.367,0,0,0,1-.342,1.317,1.317,0,0,0,.347-.981A1.2,1.2,0,0,0,9.3-2.915a1.659,1.659,0,0,0-1.1-.342H7.52Z" transform="translate(633.25 484.996)" fill="#0c2339"/>
      <path id="Path_1297" data-name="Path 1297" d="M1.9-3.994h.679a1.492,1.492,0,0,0,1.006-.337,1.126,1.126,0,0,0,.366-.884A1.1,1.1,0,0,0,2.71-6.465a1.3,1.3,0,0,0-.935.334,1.171,1.171,0,0,0-.349.886h-.9a1.814,1.814,0,0,1,.618-1.4,2.25,2.25,0,0,1,1.57-.559,2.224,2.224,0,0,1,1.577.532A1.923,1.923,0,0,1,4.858-5.2a1.561,1.561,0,0,1-.3.9,1.813,1.813,0,0,1-.818.649,1.747,1.747,0,0,1,.906.615,1.709,1.709,0,0,1,.32,1.05A1.939,1.939,0,0,1,4.341-.464,2.34,2.34,0,0,1,2.715.1,2.4,2.4,0,0,1,1.086-.444,1.8,1.8,0,0,1,.459-1.875h.908a1.162,1.162,0,0,0,.366.9,1.393,1.393,0,0,0,.981.337,1.367,1.367,0,0,0,1-.342,1.317,1.317,0,0,0,.347-.981,1.2,1.2,0,0,0-.381-.952,1.659,1.659,0,0,0-1.1-.342H1.9Zm7.847-3.12v.767H9.585a2.378,2.378,0,0,0-1.68.625,2.6,2.6,0,0,0-.723,1.7,1.928,1.928,0,0,1,1.533-.645,1.844,1.844,0,0,1,1.482.654,2.524,2.524,0,0,1,.554,1.689,2.516,2.516,0,0,1-.6,1.758A2.06,2.06,0,0,1,8.55.1,2.029,2.029,0,0,1,6.895-.686,3.106,3.106,0,0,1,6.26-2.705v-.347a4.68,4.68,0,0,1,.837-3A3.075,3.075,0,0,1,9.59-7.114Zm-1.187,3.2a1.441,1.441,0,0,0-.854.278,1.45,1.45,0,0,0-.542.7V-2.6a2.332,2.332,0,0,0,.4,1.416,1.185,1.185,0,0,0,.986.537A1.148,1.148,0,0,0,9.509-1.1a1.864,1.864,0,0,0,.349-1.177A1.865,1.865,0,0,0,9.5-3.459,1.135,1.135,0,0,0,8.564-3.911Z" transform="translate(655.75 484.996)" fill="#0c2339"/>
      <path id="Path_1302" data-name="Path 1302" d="M1.9-3.994h.679a1.492,1.492,0,0,0,1.006-.337,1.126,1.126,0,0,0,.366-.884A1.1,1.1,0,0,0,2.71-6.465a1.3,1.3,0,0,0-.935.334,1.171,1.171,0,0,0-.349.886h-.9a1.814,1.814,0,0,1,.618-1.4,2.25,2.25,0,0,1,1.57-.559,2.224,2.224,0,0,1,1.577.532A1.923,1.923,0,0,1,4.858-5.2a1.561,1.561,0,0,1-.3.9,1.813,1.813,0,0,1-.818.649,1.747,1.747,0,0,1,.906.615,1.709,1.709,0,0,1,.32,1.05A1.939,1.939,0,0,1,4.341-.464,2.34,2.34,0,0,1,2.715.1,2.4,2.4,0,0,1,1.086-.444,1.8,1.8,0,0,1,.459-1.875h.908a1.162,1.162,0,0,0,.366.9,1.393,1.393,0,0,0,.981.337,1.367,1.367,0,0,0,1-.342,1.317,1.317,0,0,0,.347-.981,1.2,1.2,0,0,0-.381-.952,1.659,1.659,0,0,0-1.1-.342H1.9Zm7.764.869a2.21,2.21,0,0,1-.676.542,1.835,1.835,0,0,1-.862.205,1.894,1.894,0,0,1-1.072-.3,1.968,1.968,0,0,1-.706-.852A2.9,2.9,0,0,1,6.1-4.746,2.96,2.96,0,0,1,6.375-6.03,1.991,1.991,0,0,1,7.144-6.9a2.193,2.193,0,0,1,1.162-.3,1.985,1.985,0,0,1,1.663.789,3.44,3.44,0,0,1,.608,2.151V-4a4.6,4.6,0,0,1-.82,3.03A3.152,3.152,0,0,1,7.28,0H7.1V-.762h.19a2.487,2.487,0,0,0,1.719-.582A2.5,2.5,0,0,0,9.668-3.125Zm-1.392,0A1.4,1.4,0,0,0,9.114-3.4a1.641,1.641,0,0,0,.559-.688v-.361A2.486,2.486,0,0,0,9.287-5.9a1.151,1.151,0,0,0-.977-.557A1.16,1.16,0,0,0,7.354-6a1.883,1.883,0,0,0-.361,1.2,1.96,1.96,0,0,0,.349,1.2A1.105,1.105,0,0,0,8.276-3.125Z" transform="translate(678.25 484.996)" fill="#0c2339"/>
      <path id="Path_1303" data-name="Path 1303" d="M4.4-2.388h.986v.737H4.4V0H3.5V-1.65H.259v-.532L3.442-7.109H4.4Zm-3.12,0H3.5V-5.874l-.107.2ZM10.864,0H6.206V-.649L8.667-3.384a5.847,5.847,0,0,0,.754-1.008,1.683,1.683,0,0,0,.208-.8,1.276,1.276,0,0,0-.337-.913,1.178,1.178,0,0,0-.9-.356,1.4,1.4,0,0,0-1.047.383,1.464,1.464,0,0,0-.374,1.067h-.9A2.1,2.1,0,0,1,6.7-6.6a2.344,2.344,0,0,1,1.692-.605,2.252,2.252,0,0,1,1.567.52A1.774,1.774,0,0,1,10.537-5.3,4.067,4.067,0,0,1,9.2-2.8L7.295-.737h3.569Z" transform="translate(700.75 484.996)" fill="#0c2339"/>
      <path id="Path_1309" data-name="Path 1309" d="M4.4-2.388h.986v.737H4.4V0H3.5V-1.65H.259v-.532L3.442-7.109H4.4Zm-3.12,0H3.5V-5.874l-.107.2ZM6.621-3.564l.361-3.545h3.643v.835H7.749L7.534-4.336a2.294,2.294,0,0,1,1.187-.308A1.961,1.961,0,0,1,10.264-4a2.516,2.516,0,0,1,.571,1.736,2.429,2.429,0,0,1-.593,1.731A2.162,2.162,0,0,1,8.584.1,2.247,2.247,0,0,1,7.046-.425,2.085,2.085,0,0,1,6.367-1.87h.854a1.435,1.435,0,0,0,.435.92,1.351,1.351,0,0,0,.928.31,1.219,1.219,0,0,0,.989-.43,1.8,1.8,0,0,0,.359-1.187A1.649,1.649,0,0,0,9.543-3.4a1.32,1.32,0,0,0-1.033-.432,1.489,1.489,0,0,0-.928.259l-.239.2Z" transform="translate(723.25 484.996)" fill="#0c2339"/>
      <path id="Path_1253" data-name="Path 1253" d="M6.147-2.314A2.567,2.567,0,0,1,5.308-.54,2.863,2.863,0,0,1,3.359.1a2.772,2.772,0,0,1-1.5-.4,2.644,2.644,0,0,1-1-1.145A4.132,4.132,0,0,1,.5-3.174v-.664A4.162,4.162,0,0,1,.854-5.61,2.686,2.686,0,0,1,1.877-6.792a2.853,2.853,0,0,1,1.541-.415,2.748,2.748,0,0,1,1.895.637,2.663,2.663,0,0,1,.835,1.8H4.917A1.756,1.756,0,0,0,4.47-5.872a1.477,1.477,0,0,0-1.052-.339,1.442,1.442,0,0,0-1.238.589,2.943,2.943,0,0,0-.442,1.728v.63A3.122,3.122,0,0,0,2.151-1.5,1.369,1.369,0,0,0,3.359-.9a1.6,1.6,0,0,0,1.094-.327,1.706,1.706,0,0,0,.464-1.089Zm5.2-.7H8.486V0H7.251V-7.109h4.517v1H8.486V-4h2.861Zm5.493,0H13.979V0H12.744V-7.109h4.517v1H13.979V-4h2.861Zm3.584.469H17.861V-3.5h2.563Zm5.537-.449a3.877,3.877,0,0,1-.574,2.312A2.026,2.026,0,0,1,23.643.1a2.053,2.053,0,0,1-1.736-.759,3.713,3.713,0,0,1-.6-2.249v-1.23a3.819,3.819,0,0,1,.574-2.3,2.045,2.045,0,0,1,1.75-.767,2.057,2.057,0,0,1,1.741.747,3.7,3.7,0,0,1,.588,2.236ZM24.775-4.321A3.008,3.008,0,0,0,24.5-5.789a.933.933,0,0,0-.869-.466.933.933,0,0,0-.854.442,2.78,2.78,0,0,0-.288,1.379v1.611a3.086,3.086,0,0,0,.278,1.484.935.935,0,0,0,.874.488.918.918,0,0,0,.845-.452,2.9,2.9,0,0,0,.288-1.414Zm6.87,1.328a3.877,3.877,0,0,1-.574,2.312A2.026,2.026,0,0,1,29.326.1,2.053,2.053,0,0,1,27.59-.662a3.713,3.713,0,0,1-.6-2.249v-1.23a3.819,3.819,0,0,1,.574-2.3,2.045,2.045,0,0,1,1.75-.767,2.057,2.057,0,0,1,1.741.747,3.7,3.7,0,0,1,.588,2.236ZM30.459-4.321a3.008,3.008,0,0,0-.273-1.467.933.933,0,0,0-.869-.466.933.933,0,0,0-.854.442,2.78,2.78,0,0,0-.288,1.379v1.611a3.086,3.086,0,0,0,.278,1.484.935.935,0,0,0,.874.488.918.918,0,0,0,.845-.452,2.9,2.9,0,0,0,.288-1.414Zm6.25,1.787h.884v.952h-.884V0H35.522V-1.582H32.451L32.417-2.3l3.066-4.8h1.226Zm-3.047,0h1.86V-5.5l-.088.156ZM41.592,0H40.41V-5.711l-1.743.594v-1L41.44-7.134h.151Zm3.262-1.25a.678.678,0,0,1,.513.188.653.653,0,0,1,.181.471.63.63,0,0,1-.181.461.688.688,0,0,1-.513.183.69.69,0,0,1-.5-.181.619.619,0,0,1-.186-.464.653.653,0,0,1,.181-.471A.671.671,0,0,1,44.854-1.25Zm0-4.146a.678.678,0,0,1,.513.188.653.653,0,0,1,.181.471.63.63,0,0,1-.181.461.688.688,0,0,1-.513.183.69.69,0,0,1-.5-.181.619.619,0,0,1-.186-.464.653.653,0,0,1,.181-.471A.671.671,0,0,1,44.854-5.4Zm9.385-.718H52.021V0H50.8V-6.113H48.6v-1h5.64Zm1.987,1.406a1.857,1.857,0,0,1,1.47-.674q1.689,0,1.714,1.929V0H58.223V-3.408a1.043,1.043,0,0,0-.237-.774.968.968,0,0,0-.7-.227,1.143,1.143,0,0,0-1.064.635V0H55.039V-7.5h1.187ZM62.935.1a2.455,2.455,0,0,1-1.829-.71,2.577,2.577,0,0,1-.7-1.892v-.146a3.17,3.17,0,0,1,.305-1.414,2.323,2.323,0,0,1,.857-.969,2.265,2.265,0,0,1,1.23-.347,2.074,2.074,0,0,1,1.667.688,2.911,2.911,0,0,1,.588,1.948v.479H61.6a1.587,1.587,0,0,0,.437,1.035A1.312,1.312,0,0,0,63-.85a1.607,1.607,0,0,0,1.328-.659l.64.61a2.136,2.136,0,0,1-.847.735A2.652,2.652,0,0,1,62.935.1Zm-.142-4.526A1,1,0,0,0,62-4.087a1.772,1.772,0,0,0-.383.952h2.261v-.088a1.442,1.442,0,0,0-.317-.9A.992.992,0,0,0,62.793-4.429ZM68.242-2.69a3.115,3.115,0,0,1,.308-1.4,2.247,2.247,0,0,1,.864-.957,2.435,2.435,0,0,1,1.279-.334,2.308,2.308,0,0,1,1.736.688,2.708,2.708,0,0,1,.72,1.826l0,.278a3.143,3.143,0,0,1-.3,1.4,2.22,2.22,0,0,1-.859.952A2.453,2.453,0,0,1,70.7.1a2.292,2.292,0,0,1-1.79-.745,2.852,2.852,0,0,1-.671-1.985Zm1.187.1a2.129,2.129,0,0,0,.337,1.277A1.1,1.1,0,0,0,70.7-.85a1.083,1.083,0,0,0,.935-.469,2.351,2.351,0,0,0,.334-1.372,2.1,2.1,0,0,0-.344-1.27,1.1,1.1,0,0,0-.935-.469,1.089,1.089,0,0,0-.923.461A2.307,2.307,0,0,0,69.429-2.588Zm7.5-1.611a2.936,2.936,0,0,0-.483-.039,1.088,1.088,0,0,0-1.1.625V0H74.155V-5.283h1.133l.029.591a1.337,1.337,0,0,1,1.191-.688,1.111,1.111,0,0,1,.42.068Zm.435,1.519a3.141,3.141,0,0,1,.566-1.96,1.815,1.815,0,0,1,1.519-.74,1.724,1.724,0,0,1,1.357.586V-7.5h1.187V0H80.913l-.059-.547A1.749,1.749,0,0,1,79.434.1a1.8,1.8,0,0,1-1.5-.747A3.256,3.256,0,0,1,77.358-2.681Zm1.187.1a2.2,2.2,0,0,0,.31,1.257,1.006,1.006,0,0,0,.881.452A1.121,1.121,0,0,0,80.8-1.519V-3.774a1.1,1.1,0,0,0-1.055-.635,1.013,1.013,0,0,0-.889.457A2.449,2.449,0,0,0,78.545-2.578ZM85.552.1a2.455,2.455,0,0,1-1.829-.71,2.577,2.577,0,0,1-.7-1.892v-.146a3.17,3.17,0,0,1,.305-1.414,2.323,2.323,0,0,1,.857-.969,2.265,2.265,0,0,1,1.23-.347,2.074,2.074,0,0,1,1.667.688,2.911,2.911,0,0,1,.588,1.948v.479H84.219a1.587,1.587,0,0,0,.437,1.035,1.312,1.312,0,0,0,.964.381,1.607,1.607,0,0,0,1.328-.659l.64.61a2.136,2.136,0,0,1-.847.735A2.652,2.652,0,0,1,85.552.1ZM85.41-4.429a1,1,0,0,0-.789.342,1.772,1.772,0,0,0-.383.952H86.5v-.088a1.442,1.442,0,0,0-.317-.9A.992.992,0,0,0,85.41-4.429Zm5.947.229a2.936,2.936,0,0,0-.483-.039,1.088,1.088,0,0,0-1.1.625V0H88.589V-5.283h1.133l.029.591a1.337,1.337,0,0,1,1.191-.688,1.111,1.111,0,0,1,.42.068Zm4.355-1.084.034.552a1.9,1.9,0,0,1,1.523-.649,1.46,1.46,0,0,1,1.45.811,1.874,1.874,0,0,1,1.621-.811,1.647,1.647,0,0,1,1.3.483,2.128,2.128,0,0,1,.437,1.426V0h-1.187V-3.437a1.051,1.051,0,0,0-.22-.737.962.962,0,0,0-.728-.234.988.988,0,0,0-.662.217,1.146,1.146,0,0,0-.359.569l0,3.623H97.744V-3.477a.846.846,0,0,0-.952-.933,1.045,1.045,0,0,0-1.011.581V0H94.595V-5.283ZM106.455,0a1.831,1.831,0,0,1-.137-.493A1.847,1.847,0,0,1,104.932.1a1.864,1.864,0,0,1-1.3-.454,1.453,1.453,0,0,1-.5-1.123,1.5,1.5,0,0,1,.627-1.3,3.041,3.041,0,0,1,1.794-.452h.728v-.347a.925.925,0,0,0-.229-.657.91.91,0,0,0-.7-.247,1.045,1.045,0,0,0-.664.2.627.627,0,0,0-.259.515h-1.187a1.317,1.317,0,0,1,.288-.813,1.919,1.919,0,0,1,.784-.593,2.753,2.753,0,0,1,1.106-.215,2.217,2.217,0,0,1,1.479.466,1.663,1.663,0,0,1,.566,1.311v2.383a2.7,2.7,0,0,0,.2,1.138V0Zm-1.3-.854a1.35,1.35,0,0,0,.662-.171,1.142,1.142,0,0,0,.466-.459v-1h-.64a1.749,1.749,0,0,0-.991.229.743.743,0,0,0-.332.649.693.693,0,0,0,.227.544A.879.879,0,0,0,105.151-.854Zm4.658-4.429.034.61a1.9,1.9,0,0,1,1.538-.708q1.65,0,1.68,1.89V0h-1.187V-3.423a1.088,1.088,0,0,0-.217-.745.914.914,0,0,0-.71-.242,1.143,1.143,0,0,0-1.069.649V0h-1.187V-5.283ZM117.427,0a1.831,1.831,0,0,1-.137-.493A1.847,1.847,0,0,1,115.9.1a1.864,1.864,0,0,1-1.3-.454,1.453,1.453,0,0,1-.5-1.123,1.5,1.5,0,0,1,.627-1.3,3.041,3.041,0,0,1,1.794-.452h.728v-.347a.925.925,0,0,0-.229-.657.91.91,0,0,0-.7-.247,1.045,1.045,0,0,0-.664.2.627.627,0,0,0-.259.515h-1.187a1.317,1.317,0,0,1,.288-.813,1.919,1.919,0,0,1,.784-.593,2.753,2.753,0,0,1,1.106-.215,2.217,2.217,0,0,1,1.479.466,1.663,1.663,0,0,1,.566,1.311v2.383a2.7,2.7,0,0,0,.2,1.138V0Zm-1.3-.854a1.35,1.35,0,0,0,.662-.171,1.142,1.142,0,0,0,.466-.459v-1h-.64a1.749,1.749,0,0,0-.991.229.743.743,0,0,0-.332.649.693.693,0,0,0,.227.544A.879.879,0,0,0,116.123-.854Zm3.35-1.826a3.09,3.09,0,0,1,.579-1.965,1.857,1.857,0,0,1,1.536-.735,1.74,1.74,0,0,1,1.421.63l.054-.532h1.069V-.161a2.129,2.129,0,0,1-.647,1.641,2.464,2.464,0,0,1-1.746.6,2.814,2.814,0,0,1-1.135-.242,2.017,2.017,0,0,1-.842-.632l.562-.713a1.7,1.7,0,0,0,1.348.649,1.311,1.311,0,0,0,.933-.32,1.226,1.226,0,0,0,.342-.94V-.474A1.747,1.747,0,0,1,121.577.1a1.853,1.853,0,0,1-1.516-.737A3.19,3.19,0,0,1,119.473-2.681Zm1.182.1a2.127,2.127,0,0,0,.325,1.252,1.044,1.044,0,0,0,.9.457,1.142,1.142,0,0,0,1.064-.615V-3.809a1.125,1.125,0,0,0-1.055-.6,1.048,1.048,0,0,0-.911.464A2.382,2.382,0,0,0,120.654-2.578ZM127.676.1a2.455,2.455,0,0,1-1.829-.71,2.577,2.577,0,0,1-.7-1.892v-.146a3.17,3.17,0,0,1,.305-1.414,2.323,2.323,0,0,1,.857-.969,2.265,2.265,0,0,1,1.23-.347,2.074,2.074,0,0,1,1.667.688,2.911,2.911,0,0,1,.588,1.948v.479h-3.452a1.587,1.587,0,0,0,.437,1.035,1.312,1.312,0,0,0,.964.381,1.607,1.607,0,0,0,1.328-.659l.64.61a2.136,2.136,0,0,1-.847.735A2.652,2.652,0,0,1,127.676.1Zm-.142-4.526a1,1,0,0,0-.789.342,1.772,1.772,0,0,0-.383.952h2.261v-.088a1.442,1.442,0,0,0-.317-.9A.992.992,0,0,0,127.534-4.429Zm4.3-.854.034.552a1.9,1.9,0,0,1,1.523-.649,1.46,1.46,0,0,1,1.45.811,1.874,1.874,0,0,1,1.621-.811,1.647,1.647,0,0,1,1.3.483,2.128,2.128,0,0,1,.437,1.426V0h-1.187V-3.437a1.051,1.051,0,0,0-.22-.737.962.962,0,0,0-.728-.234.988.988,0,0,0-.662.217,1.146,1.146,0,0,0-.359.569l0,3.623h-1.187V-3.477a.846.846,0,0,0-.952-.933,1.044,1.044,0,0,0-1.011.581V0h-1.187V-5.283ZM141.743.1a2.455,2.455,0,0,1-1.829-.71,2.577,2.577,0,0,1-.7-1.892v-.146a3.17,3.17,0,0,1,.305-1.414,2.323,2.323,0,0,1,.857-.969,2.266,2.266,0,0,1,1.23-.347,2.074,2.074,0,0,1,1.667.688,2.911,2.911,0,0,1,.588,1.948v.479H140.41a1.587,1.587,0,0,0,.437,1.035,1.312,1.312,0,0,0,.964.381,1.607,1.607,0,0,0,1.328-.659l.64.61a2.136,2.136,0,0,1-.847.735A2.652,2.652,0,0,1,141.743.1ZM141.6-4.429a1,1,0,0,0-.789.342,1.772,1.772,0,0,0-.383.952h2.261v-.088a1.442,1.442,0,0,0-.317-.9A.992.992,0,0,0,141.6-4.429Zm4.282-.854.034.61a1.9,1.9,0,0,1,1.538-.708q1.65,0,1.68,1.89V0h-1.187V-3.423a1.088,1.088,0,0,0-.217-.745.914.914,0,0,0-.71-.242,1.143,1.143,0,0,0-1.069.649V0h-1.187V-5.283Zm5.947-1.284v1.284h.933V-4.4h-.933v2.949a.649.649,0,0,0,.12.437.555.555,0,0,0,.427.134,1.828,1.828,0,0,0,.415-.049v.918a2.922,2.922,0,0,1-.781.112q-1.367,0-1.367-1.509V-4.4h-.869v-.879h.869V-6.567Zm7.29,5.132a.538.538,0,0,0-.261-.483,2.778,2.778,0,0,0-.867-.293,4.456,4.456,0,0,1-1.011-.322,1.349,1.349,0,0,1-.889-1.245,1.406,1.406,0,0,1,.576-1.143,2.278,2.278,0,0,1,1.465-.459,2.37,2.37,0,0,1,1.531.469,1.487,1.487,0,0,1,.583,1.216h-1.187a.731.731,0,0,0-.254-.569.973.973,0,0,0-.674-.227,1.051,1.051,0,0,0-.637.181.57.57,0,0,0-.247.483.481.481,0,0,0,.229.425,3.156,3.156,0,0,0,.928.305,4.392,4.392,0,0,1,1.1.366,1.552,1.552,0,0,1,.591.51,1.3,1.3,0,0,1,.193.723A1.377,1.377,0,0,1,159.7-.344,2.519,2.519,0,0,1,158.149.1a2.732,2.732,0,0,1-1.157-.234,1.9,1.9,0,0,1-.791-.645,1.526,1.526,0,0,1-.283-.884h1.152a.836.836,0,0,0,.317.647,1.233,1.233,0,0,0,.776.227,1.2,1.2,0,0,0,.713-.178A.552.552,0,0,0,159.121-1.436Zm4.048-.264,1.074-3.584h1.265L163.408.8a1.707,1.707,0,0,1-1.641,1.333,2.115,2.115,0,0,1-.571-.088V1.123l.225.015A1.155,1.155,0,0,0,162.1.974a1.084,1.084,0,0,0,.359-.549l.171-.454-1.855-5.255h1.279Zm5.981.264a.538.538,0,0,0-.261-.483,2.778,2.778,0,0,0-.867-.293,4.456,4.456,0,0,1-1.011-.322,1.349,1.349,0,0,1-.889-1.245,1.406,1.406,0,0,1,.576-1.143,2.278,2.278,0,0,1,1.465-.459,2.37,2.37,0,0,1,1.531.469,1.487,1.487,0,0,1,.583,1.216h-1.187a.731.731,0,0,0-.254-.569.973.973,0,0,0-.674-.227,1.051,1.051,0,0,0-.637.181.57.57,0,0,0-.247.483.481.481,0,0,0,.229.425,3.156,3.156,0,0,0,.928.305,4.392,4.392,0,0,1,1.1.366,1.552,1.552,0,0,1,.591.51,1.3,1.3,0,0,1,.193.723,1.377,1.377,0,0,1-.591,1.155A2.519,2.519,0,0,1,168.179.1a2.732,2.732,0,0,1-1.157-.234,1.9,1.9,0,0,1-.791-.645,1.526,1.526,0,0,1-.283-.884H167.1a.836.836,0,0,0,.317.647,1.233,1.233,0,0,0,.776.227,1.2,1.2,0,0,0,.713-.178A.552.552,0,0,0,169.15-1.436Zm3.687-5.132v1.284h.933V-4.4h-.933v2.949a.649.649,0,0,0,.12.437.555.555,0,0,0,.427.134,1.828,1.828,0,0,0,.415-.049v.918a2.922,2.922,0,0,1-.781.112q-1.367,0-1.367-1.509V-4.4h-.869v-.879h.869V-6.567ZM177,.1a2.455,2.455,0,0,1-1.829-.71,2.577,2.577,0,0,1-.7-1.892v-.146a3.17,3.17,0,0,1,.305-1.414,2.323,2.323,0,0,1,.857-.969,2.266,2.266,0,0,1,1.23-.347,2.074,2.074,0,0,1,1.667.688,2.911,2.911,0,0,1,.588,1.948v.479h-3.452a1.587,1.587,0,0,0,.437,1.035,1.312,1.312,0,0,0,.964.381,1.607,1.607,0,0,0,1.328-.659l.64.61a2.136,2.136,0,0,1-.847.735A2.652,2.652,0,0,1,177,.1Zm-.142-4.526a1,1,0,0,0-.789.342,1.772,1.772,0,0,0-.383.952h2.261v-.088a1.442,1.442,0,0,0-.317-.9A.992.992,0,0,0,176.86-4.429Zm4.3-.854.034.552a1.9,1.9,0,0,1,1.523-.649,1.46,1.46,0,0,1,1.45.811,1.874,1.874,0,0,1,1.621-.811,1.647,1.647,0,0,1,1.3.483,2.128,2.128,0,0,1,.437,1.426V0h-1.187V-3.437a1.051,1.051,0,0,0-.22-.737.962.962,0,0,0-.728-.234.988.988,0,0,0-.662.217,1.146,1.146,0,0,0-.359.569l0,3.623h-1.187V-3.477a.846.846,0,0,0-.952-.933,1.044,1.044,0,0,0-1.011.581V0h-1.187V-5.283Zm11.191,0,.034.552a1.9,1.9,0,0,1,1.523-.649,1.46,1.46,0,0,1,1.45.811,1.874,1.874,0,0,1,1.621-.811,1.647,1.647,0,0,1,1.3.483,2.128,2.128,0,0,1,.437,1.426V0h-1.187V-3.437a1.051,1.051,0,0,0-.22-.737.962.962,0,0,0-.728-.234.988.988,0,0,0-.662.217,1.146,1.146,0,0,0-.359.569l0,3.623H194.38V-3.477a.846.846,0,0,0-.952-.933,1.044,1.044,0,0,0-1.011.581V0H191.23V-5.283ZM203.135-.518A1.84,1.84,0,0,1,201.65.1a1.64,1.64,0,0,1-1.3-.5,2.139,2.139,0,0,1-.442-1.455V-5.283h1.187v3.408q0,1.006.835,1.006a1.173,1.173,0,0,0,1.167-.62V-5.283h1.187V0h-1.118Zm5.317-.918a.538.538,0,0,0-.261-.483,2.778,2.778,0,0,0-.867-.293,4.456,4.456,0,0,1-1.011-.322,1.349,1.349,0,0,1-.889-1.245A1.406,1.406,0,0,1,206-4.922a2.278,2.278,0,0,1,1.465-.459A2.37,2.37,0,0,1,209-4.912,1.487,1.487,0,0,1,209.58-3.7h-1.187a.731.731,0,0,0-.254-.569.973.973,0,0,0-.674-.227,1.051,1.051,0,0,0-.637.181.57.57,0,0,0-.247.483.481.481,0,0,0,.229.425,3.156,3.156,0,0,0,.928.305,4.392,4.392,0,0,1,1.1.366,1.552,1.552,0,0,1,.591.51,1.3,1.3,0,0,1,.193.723,1.377,1.377,0,0,1-.591,1.155A2.519,2.519,0,0,1,207.48.1a2.732,2.732,0,0,1-1.157-.234,1.9,1.9,0,0,1-.791-.645,1.526,1.526,0,0,1-.283-.884H206.4a.836.836,0,0,0,.317.647,1.233,1.233,0,0,0,.776.227,1.2,1.2,0,0,0,.713-.178A.552.552,0,0,0,208.452-1.436Zm3.687-5.132v1.284h.933V-4.4h-.933v2.949a.649.649,0,0,0,.12.437.555.555,0,0,0,.427.134,1.828,1.828,0,0,0,.415-.049v.918a2.922,2.922,0,0,1-.781.112q-1.367,0-1.367-1.509V-4.4h-.869v-.879h.869V-6.567ZM221.1-2.588a3.174,3.174,0,0,1-.549,1.958A1.789,1.789,0,0,1,219.043.1,1.723,1.723,0,0,1,217.6-.571L217.539,0h-1.074V-7.5h1.187v2.725a1.717,1.717,0,0,1,1.382-.605,1.81,1.81,0,0,1,1.519.718,3.226,3.226,0,0,1,.552,2.007Zm-1.187-.1a2.243,2.243,0,0,0-.3-1.289,1.008,1.008,0,0,0-.879-.43,1.1,1.1,0,0,0-1.084.674v2.178a1.113,1.113,0,0,0,1.094.688,1,1,0,0,0,.859-.415,2.173,2.173,0,0,0,.313-1.255ZM224.424.1a2.455,2.455,0,0,1-1.829-.71,2.577,2.577,0,0,1-.7-1.892v-.146a3.17,3.17,0,0,1,.305-1.414,2.323,2.323,0,0,1,.857-.969,2.266,2.266,0,0,1,1.23-.347,2.074,2.074,0,0,1,1.667.688,2.911,2.911,0,0,1,.588,1.948v.479h-3.452a1.587,1.587,0,0,0,.437,1.035,1.312,1.312,0,0,0,.964.381,1.607,1.607,0,0,0,1.328-.659l.64.61a2.136,2.136,0,0,1-.847.735A2.652,2.652,0,0,1,224.424.1Zm-.142-4.526a1,1,0,0,0-.789.342,1.772,1.772,0,0,0-.383.952h2.261v-.088a1.442,1.442,0,0,0-.317-.9A.992.992,0,0,0,224.282-4.429Zm8.872,3.911A1.84,1.84,0,0,1,231.67.1a1.64,1.64,0,0,1-1.3-.5,2.139,2.139,0,0,1-.442-1.455V-5.283h1.187v3.408q0,1.006.835,1.006a1.173,1.173,0,0,0,1.167-.62V-5.283H234.3V0h-1.118Zm6.982-2.07a3.146,3.146,0,0,1-.557,1.956,1.783,1.783,0,0,1-1.494.73,1.8,1.8,0,0,1-1.392-.571v2.5h-1.187V-5.283H236.6l.049.537a1.743,1.743,0,0,1,1.421-.635,1.8,1.8,0,0,1,1.516.72,3.23,3.23,0,0,1,.549,2Zm-1.182-.1a2.2,2.2,0,0,0-.315-1.255,1.024,1.024,0,0,0-.9-.464,1.092,1.092,0,0,0-1.045.6v2.344a1.1,1.1,0,0,0,1.055.615,1.023,1.023,0,0,0,.886-.457A2.426,2.426,0,0,0,238.955-2.69Z" transform="translate(380.457 441.252)" fill="#0c2339"/>
      <path id="Path_1254" data-name="Path 1254" d="M9.5,0A9.5,9.5,0,1,1,0,9.5,9.5,9.5,0,0,1,9.5,0Z" transform="translate(228.75 428.252)" fill="#4dc0ed"/>
      <path id="Path_1255" data-name="Path 1255" d="M9.5,0A9.5,9.5,0,1,1,0,9.5,9.5,9.5,0,0,1,9.5,0Z" transform="translate(229 465)" fill="#4dc0ed"/>
      <path id="Path_1256" data-name="Path 1256" d="M9.5,0A9.5,9.5,0,1,1,0,9.5,9.5,9.5,0,0,1,9.5,0Z" transform="translate(228.75 501.243)" fill="#4dc0ed"/>
      <path id="Path_1257" data-name="Path 1257" d="M9.5,0A9.5,9.5,0,1,1,0,9.5,9.5,9.5,0,0,1,9.5,0Z" transform="translate(355.979 428.252)" fill="#4dc0ed"/>
      <path id="Path_1258" data-name="Path 1258" d="M9.5,0A9.5,9.5,0,1,1,0,9.5,9.5,9.5,0,0,1,9.5,0Z" transform="translate(312 428.252)" fill="#3cca8e"/>
      <path id="Path_1259" data-name="Path 1259" d="M9.5,0A9.5,9.5,0,1,1,0,9.5,9.5,9.5,0,0,1,9.5,0Z" transform="translate(312 464.748)" fill="#3cca8e"/>
      <path id="Path_1260" data-name="Path 1260" d="M9.5,0A9.5,9.5,0,1,1,0,9.5,9.5,9.5,0,0,1,9.5,0Z" transform="translate(312 501.243)" fill="#3cca8e"/>
      <path id="Path_1261" data-name="Path 1261" d="M1.424,0H1.061V-2.408l-.729.268v-.328l1.035-.389h.057ZM3.09,5H1.227V4.74l.984-1.094a2.339,2.339,0,0,0,.3-.4A.673.673,0,0,0,2.6,2.922a.51.51,0,0,0-.135-.365A.471.471,0,0,0,2.1,2.414a.558.558,0,0,0-.419.153.586.586,0,0,0-.149.427H1.172a.839.839,0,0,1,.253-.635A.938.938,0,0,1,2.1,2.117a.9.9,0,0,1,.627.208.71.71,0,0,1,.23.554,1.627,1.627,0,0,1-.535,1l-.762.826H3.09Zm.643,3.4H4a.6.6,0,0,0,.4-.135.45.45,0,0,0,.146-.354.441.441,0,0,0-.5-.5.518.518,0,0,0-.374.134.468.468,0,0,0-.14.354H3.18a.725.725,0,0,1,.247-.562.9.9,0,0,1,.628-.224.889.889,0,0,1,.631.213.769.769,0,0,1,.229.592.624.624,0,0,1-.12.359.725.725,0,0,1-.327.26.7.7,0,0,1,.362.246.683.683,0,0,1,.128.42.776.776,0,0,1-.25.607.936.936,0,0,1-.65.225.961.961,0,0,1-.651-.217.719.719,0,0,1-.251-.572h.363a.465.465,0,0,0,.146.359.557.557,0,0,0,.393.135.547.547,0,0,0,.4-.137A.527.527,0,0,0,4.6,9.215a.478.478,0,0,0-.152-.381A.664.664,0,0,0,4,8.7H3.732Z" transform="translate(236 435)" fill="#fff"/>
      <g id="Path_1304" data-name="Path 1304" transform="translate(684.75 428)" fill="#fff">
        <path d="M9.5,0A9.5,9.5,0,1,1,0,9.5,9.5,9.5,0,0,1,9.5,0Z" stroke="none"/>
        <path d="M 9.5 0.5 C 4.537380218505859 0.5 0.5 4.537380218505859 0.5 9.5 C 0.5 14.46261978149414 4.537380218505859 18.5 9.5 18.5 C 14.46261978149414 18.5 18.5 14.46261978149414 18.5 9.5 C 18.5 4.537380218505859 14.46261978149414 0.5 9.5 0.5 M 9.5 0 C 14.74670028686523 0 19 4.253299713134766 19 9.5 C 19 14.74670028686523 14.74670028686523 19 9.5 19 C 4.253299713134766 19 0 14.74670028686523 0 9.5 C 0 4.253299713134766 4.253299713134766 0 9.5 0 Z" stroke="none" fill="rgba(132,131,131,0.4)"/>
      </g>
      <g id="Path_1307" data-name="Path 1307" transform="translate(709.75 428)" fill="#fff">
        <path d="M9.5,0A9.5,9.5,0,1,1,0,9.5,9.5,9.5,0,0,1,9.5,0Z" stroke="none"/>
        <path d="M 9.5 0.5 C 4.537380218505859 0.5 0.5 4.537380218505859 0.5 9.5 C 0.5 14.46261978149414 4.537380218505859 18.5 9.5 18.5 C 14.46261978149414 18.5 18.5 14.46261978149414 18.5 9.5 C 18.5 4.537380218505859 14.46261978149414 0.5 9.5 0.5 M 9.5 0 C 14.74670028686523 0 19 4.253299713134766 19 9.5 C 19 14.74670028686523 14.74670028686523 19 9.5 19 C 4.253299713134766 19 0 14.74670028686523 0 9.5 C 0 4.253299713134766 4.253299713134766 0 9.5 0 Z" stroke="none" fill="rgba(132,131,131,0.4)"/>
      </g>
      <path id="Path_26" data-name="Path 26" d="M5,65.02a3.438,3.438,0,0,1-3.307-2.5H2.708c.1-.094.147-.22.051-.314L1.585,61.023a.252.252,0,0,0-.349,0L.071,62.208c-.138.162-.046.22.051.314h.931a4.057,4.057,0,0,0,7.4,1.193l-.588-.235A3.436,3.436,0,0,1,5,65.02Zm4.9-4.06H9.01A4.06,4.06,0,0,0,1.4,59.708l.582.233a3.438,3.438,0,0,1,6.4,1.019H7.312c-.1.094-.189.152-.051.314L8.426,62.46a.252.252,0,0,0,.349,0l1.173-1.185C10.045,61.181,9.994,61.054,9.9,60.96Z" transform="translate(770.084 402.627) rotate(60)" fill="#a5aabc"/>
      <g id="Path_1310" data-name="Path 1310" transform="translate(734.75 428)" fill="#fff">
        <path d="M9.5,0A9.5,9.5,0,1,1,0,9.5,9.5,9.5,0,0,1,9.5,0Z" stroke="none"/>
        <path d="M 9.5 0.5 C 4.537380218505859 0.5 0.5 4.537380218505859 0.5 9.5 C 0.5 14.46261978149414 4.537380218505859 18.5 9.5 18.5 C 14.46261978149414 18.5 18.5 14.46261978149414 18.5 9.5 C 18.5 4.537380218505859 14.46261978149414 0.5 9.5 0.5 M 9.5 0 C 14.74670028686523 0 19 4.253299713134766 19 9.5 C 19 14.74670028686523 14.74670028686523 19 9.5 19 C 4.253299713134766 19 0 14.74670028686523 0 9.5 C 0 4.253299713134766 4.253299713134766 0 9.5 0 Z" stroke="none" fill="rgba(132,131,131,0.4)"/>
      </g>
      <path id="Path_119" data-name="Path 119" d="M7.244,3.316a.335.335,0,0,0-.366-.022Z" transform="translate(356.31 430.701)" fill="#fff"/>
      <path id="Path_120" data-name="Path 120" d="M16.5,3.294a.335.335,0,0,0-.458.125A.448.448,0,0,0,16,3.557l.959.036A4.6,4.6,0,0,0,16.5,3.294Z" transform="translate(351.265 430.701)" fill="#fff"/>
      <path id="Path_121" data-name="Path 121" d="M4.376,3.931A.335.335,0,0,0,4.5,3.474L4.46,3.416l-.05-.046-.366-.022-.027.02A8.037,8.037,0,0,0,2.9,4.275a4.482,4.482,0,0,0-1.147,3,4.584,4.584,0,0,0,9.167,0,4.482,4.482,0,0,0-1.147-3,4.588,4.588,0,0,0-.687-.627l-.959-.036a.336.336,0,0,0,.168.32,3.922,3.922,0,0,1,.978.791,3.811,3.811,0,0,1,.977,2.55,3.913,3.913,0,0,1-7.825,0A3.811,3.811,0,0,1,3.4,4.722a3.922,3.922,0,0,1,.978-.791Z" transform="translate(359.145 430.647)" fill="#fff"/>
      <path id="Path_122" data-name="Path 122" d="M11.585,1.25a.335.335,0,0,1,.335.335V6.057a.335.335,0,0,1-.671,0V1.585A.335.335,0,0,1,11.585,1.25Z" transform="translate(353.893 431.807)" fill="#fff"/>
      <path id="Path_119-2" data-name="Path 119" d="M7.244,3.316a.335.335,0,0,0-.366-.022Z" transform="translate(228.999 503.693)" fill="#fff"/>
      <path id="Path_120-2" data-name="Path 120" d="M16.5,3.294a.335.335,0,0,0-.458.125A.448.448,0,0,0,16,3.557l.959.036A4.6,4.6,0,0,0,16.5,3.294Z" transform="translate(223.955 503.693)" fill="#fff"/>
      <path id="Path_121-2" data-name="Path 121" d="M4.376,3.931A.335.335,0,0,0,4.5,3.474L4.46,3.416l-.05-.046-.366-.022-.027.02A8.037,8.037,0,0,0,2.9,4.275a4.482,4.482,0,0,0-1.147,3,4.584,4.584,0,0,0,9.167,0,4.482,4.482,0,0,0-1.147-3,4.588,4.588,0,0,0-.687-.627l-.959-.036a.336.336,0,0,0,.168.32,3.922,3.922,0,0,1,.978.791,3.811,3.811,0,0,1,.977,2.55,3.913,3.913,0,0,1-7.825,0A3.811,3.811,0,0,1,3.4,4.722a3.922,3.922,0,0,1,.978-.791Z" transform="translate(231.834 503.638)" fill="#fff"/>
      <path id="Path_122-2" data-name="Path 122" d="M11.585,1.25a.335.335,0,0,1,.335.335V6.057a.335.335,0,0,1-.671,0V1.585A.335.335,0,0,1,11.585,1.25Z" transform="translate(226.582 504.798)" fill="#fff"/>
      <path id="Path_119-3" data-name="Path 119" d="M7.244,3.316a.335.335,0,0,0-.366-.022Z" transform="translate(229.416 467.645)" fill="#fff"/>
      <path id="Path_120-3" data-name="Path 120" d="M16.5,3.294a.335.335,0,0,0-.458.125A.448.448,0,0,0,16,3.557l.959.036A4.6,4.6,0,0,0,16.5,3.294Z" transform="translate(224.371 467.645)" fill="#fff"/>
      <path id="Path_121-3" data-name="Path 121" d="M4.376,3.931A.335.335,0,0,0,4.5,3.474L4.46,3.416l-.05-.046-.366-.022-.027.02A8.037,8.037,0,0,0,2.9,4.275a4.482,4.482,0,0,0-1.147,3,4.584,4.584,0,0,0,9.167,0,4.482,4.482,0,0,0-1.147-3,4.588,4.588,0,0,0-.687-.627l-.959-.036a.336.336,0,0,0,.168.32,3.922,3.922,0,0,1,.978.791,3.811,3.811,0,0,1,.977,2.55,3.913,3.913,0,0,1-7.825,0A3.811,3.811,0,0,1,3.4,4.722a3.922,3.922,0,0,1,.978-.791Z" transform="translate(232.25 467.59)" fill="#fff"/>
      <path id="Path_122-3" data-name="Path 122" d="M11.585,1.25a.335.335,0,0,1,.335.335V6.057a.335.335,0,0,1-.671,0V1.585A.335.335,0,0,1,11.585,1.25Z" transform="translate(226.999 468.75)" fill="#fff"/>
      <g id="Path_1292" data-name="Path 1292" transform="translate(631.936 428)" fill="#fff">
        <path d="M9.5,0h18a9.5,9.5,0,0,1,0,19H9.5a9.5,9.5,0,0,1,0-19Z" stroke="none"/>
        <path d="M 9.5 0.5 C 4.537380218505859 0.5 0.5 4.537380218505859 0.5 9.5 C 0.5 14.46261978149414 4.537380218505859 18.5 9.5 18.5 L 27.5 18.5 C 32.46261978149414 18.5 36.5 14.46261978149414 36.5 9.5 C 36.5 4.537380218505859 32.46261978149414 0.5 27.5 0.5 L 9.5 0.5 M 9.5 0 L 27.5 0 C 32.74670028686523 0 37 4.253290176391602 37 9.5 C 37 14.7467098236084 32.74670028686523 19 27.5 19 L 9.5 19 C 4.253299713134766 19 0 14.7467098236084 0 9.5 C 0 4.253290176391602 4.253299713134766 0 9.5 0 Z" stroke="none" fill="rgba(165,170,188,0.5)"/>
      </g>
      <path id="Path_207" data-name="Path 207" d="M9.5,0A9.5,9.5,0,1,1,0,9.5,9.5,9.5,0,0,1,9.5,0Z" transform="translate(628.686 428.252)" fill="#2c70fa"/>
      <path id="Path_119-4" data-name="Path 119" d="M7.244,3.316a.335.335,0,0,0-.366-.022Z" transform="translate(629.017 430.701)" fill="#fff"/>
      <path id="Path_120-4" data-name="Path 120" d="M16.5,3.294a.335.335,0,0,0-.458.125A.448.448,0,0,0,16,3.557l.959.036A4.6,4.6,0,0,0,16.5,3.294Z" transform="translate(623.972 430.701)" fill="#fff"/>
      <path id="Path_121-4" data-name="Path 121" d="M4.376,3.931A.335.335,0,0,0,4.5,3.474L4.46,3.416l-.05-.046-.366-.022-.027.02A8.037,8.037,0,0,0,2.9,4.275a4.482,4.482,0,0,0-1.147,3,4.584,4.584,0,0,0,9.167,0,4.482,4.482,0,0,0-1.147-3,4.588,4.588,0,0,0-.687-.627l-.959-.036a.336.336,0,0,0,.168.32,3.922,3.922,0,0,1,.978.791,3.811,3.811,0,0,1,.977,2.55,3.913,3.913,0,0,1-7.825,0A3.811,3.811,0,0,1,3.4,4.722a3.922,3.922,0,0,1,.978-.791Z" transform="translate(631.852 430.647)" fill="#fff"/>
      <path id="Path_122-4" data-name="Path 122" d="M11.585,1.25a.335.335,0,0,1,.335.335V6.057a.335.335,0,0,1-.671,0V1.585A.335.335,0,0,1,11.585,1.25Z" transform="translate(626.6 431.807)" fill="#fff"/>
      <path id="Path_1295" data-name="Path 1295" d="M0,3,3,0" transform="translate(650.686 435.5)" fill="none" stroke="#a5aabc" stroke-width="0.5"/>
      <path id="Path_1298" data-name="Path 1298" d="M0,3,3,0" transform="translate(663.436 437.75) rotate(180)" fill="none" stroke="#a5aabc" stroke-width="0.5"/>
      <path id="Path_1299" data-name="Path 1299" d="M3,3,0,0" transform="translate(655.436 435.5)" fill="none" stroke="#a5aabc" stroke-width="0.5"/>
      <g id="Path_1296" data-name="Path 1296" transform="translate(653.186 433)" fill="#fff">
        <path d="M 1.5 2.75 C 0.8107500076293945 2.75 0.25 2.189249992370605 0.25 1.5 C 0.25 0.8107500076293945 0.8107500076293945 0.25 1.5 0.25 C 2.189249992370605 0.25 2.75 0.8107500076293945 2.75 1.5 C 2.75 2.189249992370605 2.189249992370605 2.75 1.5 2.75 Z" stroke="none"/>
        <path d="M 1.5 0.5 C 0.9486000537872314 0.5 0.5 0.9486000537872314 0.5 1.5 C 0.5 2.051399946212769 0.9486000537872314 2.5 1.5 2.5 C 2.051399946212769 2.5 2.5 2.051399946212769 2.5 1.5 C 2.5 0.9486000537872314 2.051399946212769 0.5 1.5 0.5 M 1.5 0 C 2.328429937362671 0 3 0.6715700626373291 3 1.5 C 3 2.328429937362671 2.328429937362671 3 1.5 3 C 0.6715700626373291 3 0 2.328429937362671 0 1.5 C 0 0.6715700626373291 0.6715700626373291 0 1.5 0 Z" stroke="none" fill="#a5aabc"/>
      </g>
      <g id="Path_1300" data-name="Path 1300" transform="translate(660.936 440.25) rotate(180)" fill="#fff">
        <path d="M 1.5 2.75 C 0.8107500076293945 2.75 0.25 2.189249992370605 0.25 1.5 C 0.25 0.8107500076293945 0.8107500076293945 0.25 1.5 0.25 C 2.189249992370605 0.25 2.75 0.8107500076293945 2.75 1.5 C 2.75 2.189249992370605 2.189249992370605 2.75 1.5 2.75 Z" stroke="none"/>
        <path d="M 1.5 0.5 C 0.9486000537872314 0.5 0.5 0.9486000537872314 0.5 1.5 C 0.5 2.051399946212769 0.9486000537872314 2.5 1.5 2.5 C 2.051399946212769 2.5 2.5 2.051399946212769 2.5 1.5 C 2.5 0.9486000537872314 2.051399946212769 0.5 1.5 0.5 M 1.5 0 C 2.328429937362671 0 3 0.6715700626373291 3 1.5 C 3 2.328429937362671 2.328429937362671 3 1.5 3 C 0.6715700626373291 3 0 2.328429937362671 0 1.5 C 0 0.6715700626373291 0.6715700626373291 0 1.5 0 Z" stroke="none" fill="#a5aabc"/>
      </g>
      <path id="Path_123" data-name="Path 123" d="M11.551,6.528,8.719,3.7a.311.311,0,0,0-.45,0l-1.03,1.03a.309.309,0,0,0,0,.45l.225.225L6.5,6.367a2.941,2.941,0,0,0-2.51.386.311.311,0,0,0,0,.45L5.824,9.038,3.8,11.065a.311.311,0,0,0,0,.45.342.342,0,0,0,.45,0L6.274,9.488l1.834,1.834a.3.3,0,0,0,.45,0,2.941,2.941,0,0,0,.386-2.51l.965-.965.225.225a.311.311,0,0,0,.45,0l1.03-1.03a.486.486,0,0,0-.064-.515Z" transform="translate(686.571 429.4)" fill="#a1a1a1"/>
      <path id="Path_124" data-name="Path 124" d="M10.674,5.938H9.9V3.49A.491.491,0,0,0,9.406,3H7.448a.491.491,0,0,0-.49.49V5.938H6.18a.491.491,0,0,0-.348.837L8.079,9.022a.488.488,0,0,0,.69,0l2.247-2.247A.49.49,0,0,0,10.674,5.938ZM5,10.833a.491.491,0,0,0,.49.49h5.875a.49.49,0,1,0,0-.979H5.49A.491.491,0,0,0,5,10.833Z" transform="translate(735.823 431.094)" fill="#a1a1a1"/>
      <path id="Path_125" data-name="Path 125" d="M0,0H11.75V11.75H0Z" transform="translate(738.375 432.625)" fill="none"/>
      <path id="Path_1262" data-name="Path 1262" d="M0,0V229" transform="translate(348.75 417.5)" fill="none" stroke="rgba(165,170,188,0.5)" stroke-width="1"/>
      <path id="Path_1305" data-name="Path 1305" d="M0,0V37.5" transform="translate(677.729 417)" fill="none" stroke="rgba(165,170,188,0.5)" stroke-width="1"/>
      <g id="Path_1263" data-name="Path 1263" transform="translate(216 417)" fill="none">
        <path d="M5,0H544a5,5,0,0,1,5,5V224a5,5,0,0,1-5,5H5a5,5,0,0,1-5-5V5A5,5,0,0,1,5,0Z" stroke="none"/>
        <path d="M 5 1 C 2.79437255859375 1 1 2.794357299804688 1 5 L 1 224 C 1 226.2056427001953 2.79437255859375 228 5 228 L 544 228 C 546.2056274414062 228 548 226.2056427001953 548 224 L 548 5 C 548 2.794357299804688 546.2056274414062 1 544 1 L 5 1 M 5 0 L 544 0 C 546.7614135742188 0 549 2.238571166992188 549 5 L 549 224 C 549 226.7614288330078 546.7614135742188 229 544 229 L 5 229 C 2.23858642578125 229 0 226.7614288330078 0 224 L 0 5 C 0 2.238571166992188 2.23858642578125 0 5 0 Z" stroke="none" fill="rgba(165,170,188,0.5)"/>
      </g>
      <path id="Path_1264" data-name="Path 1264" d="M0,0V59" transform="translate(391.25 496.748)" fill="none" stroke="#707070" stroke-width="1"/>
      <path id="Path_1284" data-name="Path 1284" d="M0,0V59" transform="translate(526.25 496.748)" fill="none" stroke="#707070" stroke-width="1"/>
      <path id="Path_1265" data-name="Path 1265" d="M0,0V59" transform="translate(413.75 496.748)" fill="none" stroke="#707070" stroke-width="1"/>
      <path id="Path_1285" data-name="Path 1285" d="M0,0V59" transform="translate(548.75 496.748)" fill="none" stroke="#707070" stroke-width="1"/>
      <path id="Path_1266" data-name="Path 1266" d="M0,0V59" transform="translate(436.25 496.748)" fill="none" stroke="#707070" stroke-width="1"/>
      <path id="Path_1286" data-name="Path 1286" d="M0,0V59" transform="translate(571.25 496.748)" fill="none" stroke="#707070" stroke-width="1"/>
      <path id="Path_1301" data-name="Path 1301" d="M0,0V59" transform="translate(661.25 496.748)" fill="none" stroke="#707070" stroke-width="1"/>
      <path id="Path_1271" data-name="Path 1271" d="M0,0V59" transform="translate(458.75 496.748)" fill="none" stroke="#707070" stroke-width="1"/>
      <path id="Path_1289" data-name="Path 1289" d="M0,0V59" transform="translate(593.75 496.748)" fill="none" stroke="#707070" stroke-width="1"/>
      <path id="Path_1306" data-name="Path 1306" d="M0,0V59" transform="translate(683.75 496.748)" fill="none" stroke="#707070" stroke-width="1"/>
      <path id="Path_1275" data-name="Path 1275" d="M0,0V59" transform="translate(481.25 496.748)" fill="none" stroke="#707070" stroke-width="1"/>
      <path id="Path_1290" data-name="Path 1290" d="M0,0V59" transform="translate(616.25 496.748)" fill="none" stroke="#707070" stroke-width="1"/>
      <path id="Path_1308" data-name="Path 1308" d="M0,0V59" transform="translate(706.25 496.748)" fill="none" stroke="#707070" stroke-width="1"/>
      <path id="Path_1276" data-name="Path 1276" d="M0,0V59" transform="translate(503.75 496.748)" fill="none" stroke="#707070" stroke-width="1"/>
      <path id="Path_1293" data-name="Path 1293" d="M0,0V59" transform="translate(638.75 496.748)" fill="none" stroke="#707070" stroke-width="1"/>
      <path id="Path_1311" data-name="Path 1311" d="M0,0V59" transform="translate(728.75 496.748)" fill="none" stroke="#707070" stroke-width="1"/>
      <g id="Path_1267" data-name="Path 1267" transform="translate(388 494)" fill="none" opacity="0.72">
        <path d="M0,0H353V62H0Z" stroke="none"/>
        <path d="M 3 3 L 3 59 L 350 59 L 350 3 L 3 3 M 0 0 L 353 0 L 353 62 L 0 62 L 0 0 Z" stroke="none" fill="#3cca8e"/>
      </g>
      <path id="Path_1277" data-name="Path 1277" d="M1.5,0A1.5,1.5,0,0,1,3,1.5v23a1.5,1.5,0,0,1-3,0V1.5A1.5,1.5,0,0,1,1.5,0Z" transform="translate(459 515)" fill="#2c70fa"/>
      <path id="Path_1294" data-name="Path 1294" d="M1.5,0A1.5,1.5,0,0,1,3,1.5v23a1.5,1.5,0,0,1-3,0V1.5A1.5,1.5,0,0,1,1.5,0Z" transform="translate(639 516)" fill="#2c70fa"/>
      <path id="Path_1278" data-name="Path 1278" d="M0,0H182V18H0Z" transform="translate(459 520)" fill="#2c70fa" opacity="0.32"/>
      <path id="Path_1279" data-name="Path 1279" d="M2,0A2,2,0,0,1,4,2V70a2,2,0,0,1-4,0V2A2,2,0,0,1,2,0Z" transform="translate(481 492)" fill="#0c2339"/>
      <g id="Path_1280" data-name="Path 1280" transform="translate(464 522)" fill="#fff">
        <path d="M 7 13.75 C 3.278039932250977 13.75 0.25 10.72196006774902 0.25 7 C 0.25 3.278039932250977 3.278039932250977 0.25 7 0.25 C 10.72196006774902 0.25 13.75 3.278039932250977 13.75 7 C 13.75 10.72196006774902 10.72196006774902 13.75 7 13.75 Z" stroke="none"/>
        <path d="M 7 0.5 C 3.415889739990234 0.5 0.5 3.415889739990234 0.5 7 C 0.5 10.58411026000977 3.415889739990234 13.5 7 13.5 C 10.58411026000977 13.5 13.5 10.58411026000977 13.5 7 C 13.5 3.415889739990234 10.58411026000977 0.5 7 0.5 M 7 0 C 10.86598968505859 0 14 3.134010314941406 14 7 C 14 10.86598968505859 10.86598968505859 14 7 14 C 3.134010314941406 14 0 10.86598968505859 0 7 C 0 3.134010314941406 3.134010314941406 0 7 0 Z" stroke="none" fill="#1f6cb6"/>
      </g>
      <path id="path9421" d="M3.608,290.916a.337.337,0,0,0-.234.1L1.691,292.7a.337.337,0,1,0,.475.477l1.107-1.107,0,5.917a.337.337,0,1,0,.674,0l0-5.923,1.111,1.113a.338.338,0,0,0,.478-.477l-1.684-1.684a.337.337,0,0,0-.243-.1Z" transform="translate(467.576 234.38)" fill="#1f6cb6"/>
      <path id="Path_1281" data-name="Path 1281" d="M-7.488-11.417H-11.6V0H-13.28V-11.417h-4.1V-12.8h9.9Zm5.581,3.366a4.873,4.873,0,0,0-.8-.062A2.143,2.143,0,0,0-4.878-6.75V0H-6.5V-9.51h1.582l.026,1.1A2.532,2.532,0,0,1-2.628-9.686a1.661,1.661,0,0,1,.721.123ZM5.458-.94A3.454,3.454,0,0,1,2.672.176,2.956,2.956,0,0,1,.356-.708a3.823,3.823,0,0,1-.8-2.615V-9.51H1.178v6.144Q1.178-1.2,2.936-1.2A2.434,2.434,0,0,0,5.414-2.593V-9.51H7.04V0H5.493Zm8,1.116a4.155,4.155,0,0,1-3.146-1.27A4.714,4.714,0,0,1,9.1-4.491v-.3a5.707,5.707,0,0,1,.541-2.527,4.217,4.217,0,0,1,1.512-1.74,3.8,3.8,0,0,1,2.1-.628,3.562,3.562,0,0,1,2.883,1.222,5.289,5.289,0,0,1,1.028,3.5v.677H10.723a3.38,3.38,0,0,0,.822,2.272,2.583,2.583,0,0,0,2,.866A2.832,2.832,0,0,0,15-1.5a3.666,3.666,0,0,0,1.046-.932l.993.773A3.993,3.993,0,0,1,13.456.176Zm-.2-8.525a2.169,2.169,0,0,0-1.652.716,3.482,3.482,0,0,0-.826,2.008h4.764v-.123a3.1,3.1,0,0,0-.668-1.92A2.042,2.042,0,0,0,13.254-8.35ZM-43.137,22h-1.7l-6.442-9.861V22h-1.7V9.2h1.7l6.46,9.905V9.2h1.679Zm2.312-4.843a5.617,5.617,0,0,1,.549-2.514,4.1,4.1,0,0,1,1.529-1.723,4.163,4.163,0,0,1,2.237-.606,4.01,4.01,0,0,1,3.142,1.345,5.174,5.174,0,0,1,1.2,3.577v.114a5.666,5.666,0,0,1-.532,2.492,4.038,4.038,0,0,1-1.521,1.718,4.211,4.211,0,0,1-2.272.615,4,4,0,0,1-3.133-1.345,5.147,5.147,0,0,1-1.2-3.56Zm1.635.193a4.068,4.068,0,0,0,.734,2.54,2.349,2.349,0,0,0,1.964.958,2.335,2.335,0,0,0,1.969-.971,4.449,4.449,0,0,0,.729-2.72,4.061,4.061,0,0,0-.743-2.536,2.361,2.361,0,0,0-1.973-.971,2.335,2.335,0,0,0-1.942.958A4.416,4.416,0,0,0-39.19,17.351Zm11.268-7.163v2.3h1.775v1.257h-1.775v5.9a1.32,1.32,0,0,0,.237.858,1,1,0,0,0,.809.286,3.937,3.937,0,0,0,.773-.105V22a4.742,4.742,0,0,1-1.248.175A2.025,2.025,0,0,1-29,21.517a2.832,2.832,0,0,1-.554-1.872v-5.9H-31.28V12.49h1.731v-2.3ZM-19.538,22V9.2h4.184a4.856,4.856,0,0,1,3.133.861,3.1,3.1,0,0,1,1.05,2.549,2.6,2.6,0,0,1-.51,1.586,3.3,3.3,0,0,1-1.389,1.068,2.968,2.968,0,0,1,1.639,1.1,3.166,3.166,0,0,1,.6,1.938,3.423,3.423,0,0,1-1.116,2.707A4.616,4.616,0,0,1-15.1,22Zm1.688-5.985V20.62h2.786a2.683,2.683,0,0,0,1.859-.611,2.145,2.145,0,0,0,.681-1.683q0-2.312-2.514-2.312Zm0-1.354H-15.3a2.672,2.672,0,0,0,1.771-.555,1.86,1.86,0,0,0,.664-1.506,1.829,1.829,0,0,0-.615-1.537,3.021,3.021,0,0,0-1.872-.48h-2.5Zm13.86-.712a4.873,4.873,0,0,0-.8-.062A2.143,2.143,0,0,0-6.961,15.25V22H-8.587V12.49H-7l.026,1.1a2.532,2.532,0,0,1,2.268-1.274,1.661,1.661,0,0,1,.721.123Zm5.273,8.227a4.155,4.155,0,0,1-3.146-1.27,4.714,4.714,0,0,1-1.213-3.4v-.3a5.707,5.707,0,0,1,.541-2.527,4.217,4.217,0,0,1,1.512-1.74,3.8,3.8,0,0,1,2.1-.628,3.562,3.562,0,0,1,2.883,1.222,5.289,5.289,0,0,1,1.028,3.5v.677H-1.45a3.38,3.38,0,0,0,.822,2.272,2.583,2.583,0,0,0,2,.866A2.832,2.832,0,0,0,2.83,20.5a3.666,3.666,0,0,0,1.046-.932l.993.773A3.993,3.993,0,0,1,1.283,22.176Zm-.2-8.525a2.169,2.169,0,0,0-1.652.716A3.482,3.482,0,0,0-1.4,16.375H3.366v-.123a3.1,3.1,0,0,0-.668-1.92A2.042,2.042,0,0,0,1.081,13.65ZM12.744,22a3.416,3.416,0,0,1-.229-1,3.628,3.628,0,0,1-2.707,1.178,3.357,3.357,0,0,1-2.307-.8,2.573,2.573,0,0,1-.9-2.017A2.688,2.688,0,0,1,7.73,17.056a5.325,5.325,0,0,1,3.177-.822h1.582v-.747a1.826,1.826,0,0,0-.51-1.358,2.049,2.049,0,0,0-1.5-.505,2.371,2.371,0,0,0-1.459.439,1.3,1.3,0,0,0-.589,1.063H6.794A2.244,2.244,0,0,1,7.3,13.751,3.449,3.449,0,0,1,8.67,12.7a4.613,4.613,0,0,1,1.9-.387,3.759,3.759,0,0,1,2.575.822,2.964,2.964,0,0,1,.967,2.263v4.377a5.351,5.351,0,0,0,.334,2.083V22Zm-2.7-1.239a2.858,2.858,0,0,0,1.45-.4,2.392,2.392,0,0,0,.993-1.028V17.386H11.215q-2.988,0-2.988,1.749a1.48,1.48,0,0,0,.51,1.2A1.959,1.959,0,0,0,10.046,20.761Zm10.433.088A2.342,2.342,0,0,0,22,20.321,1.855,1.855,0,0,0,22.72,19h1.538a2.949,2.949,0,0,1-.562,1.556,3.7,3.7,0,0,1-1.384,1.178,3.994,3.994,0,0,1-1.833.439,3.918,3.918,0,0,1-3.089-1.3,5.163,5.163,0,0,1-1.147-3.546v-.272a5.725,5.725,0,0,1,.51-2.47,3.883,3.883,0,0,1,1.463-1.679,4.157,4.157,0,0,1,2.254-.6,3.814,3.814,0,0,1,2.659.958,3.424,3.424,0,0,1,1.129,2.487H22.72a2.241,2.241,0,0,0-.7-1.516,2.174,2.174,0,0,0-1.551-.593,2.276,2.276,0,0,0-1.92.892,4.19,4.19,0,0,0-.681,2.58v.308a4.106,4.106,0,0,0,.677,2.531A2.287,2.287,0,0,0,20.479,20.849Zm7.233-7.207a3.457,3.457,0,0,1,2.813-1.327q3.015,0,3.041,3.4V22H31.939V15.707a2.189,2.189,0,0,0-.47-1.521,1.884,1.884,0,0,0-1.437-.492,2.347,2.347,0,0,0-1.389.422,2.865,2.865,0,0,0-.932,1.107V22H26.086V8.5h1.626Zm12.234,8.534a4.155,4.155,0,0,1-3.146-1.27,4.714,4.714,0,0,1-1.213-3.4v-.3a5.707,5.707,0,0,1,.541-2.527,4.217,4.217,0,0,1,1.512-1.74,3.8,3.8,0,0,1,2.1-.628,3.562,3.562,0,0,1,2.883,1.222,5.289,5.289,0,0,1,1.028,3.5v.677H37.213a3.38,3.38,0,0,0,.822,2.272,2.583,2.583,0,0,0,2,.866,2.832,2.832,0,0,0,1.459-.352,3.666,3.666,0,0,0,1.046-.932l.993.773A3.993,3.993,0,0,1,39.946,22.176Zm-.2-8.525a2.169,2.169,0,0,0-1.652.716,3.482,3.482,0,0,0-.826,2.008h4.764v-.123a3.1,3.1,0,0,0-.668-1.92A2.042,2.042,0,0,0,39.744,13.65Zm5.4,3.516a5.571,5.571,0,0,1,1.037-3.52,3.529,3.529,0,0,1,5.361-.189V8.5h1.626V22H51.671l-.079-1.02a3.311,3.311,0,0,1-2.716,1.2,3.248,3.248,0,0,1-2.694-1.354,5.634,5.634,0,0,1-1.042-3.533Zm1.626.185a4.218,4.218,0,0,0,.668,2.531,2.159,2.159,0,0,0,1.846.914,2.372,2.372,0,0,0,2.259-1.389V15.039A2.39,2.39,0,0,0,49.3,13.694a2.17,2.17,0,0,0-1.863.923A4.644,4.644,0,0,0,46.767,17.351Z" transform="translate(549 587)" fill="#3cca8e"/>
      <path id="Path_1312" data-name="Path 1312" d="M-101.785-.767h3.369V0h-4.312V-7.109h.942ZM-94.226,0a1.9,1.9,0,0,1-.127-.557,2.016,2.016,0,0,1-1.5.654,1.865,1.865,0,0,1-1.282-.442,1.43,1.43,0,0,1-.5-1.121,1.494,1.494,0,0,1,.627-1.282A2.958,2.958,0,0,1-95.247-3.2h.879v-.415a1.015,1.015,0,0,0-.283-.754,1.138,1.138,0,0,0-.835-.281,1.317,1.317,0,0,0-.811.244.719.719,0,0,0-.327.591h-.908a1.247,1.247,0,0,1,.281-.764,1.916,1.916,0,0,1,.762-.583,2.563,2.563,0,0,1,1.057-.215A2.089,2.089,0,0,1-94-4.924a1.647,1.647,0,0,1,.537,1.257v2.432a2.973,2.973,0,0,0,.186,1.157V0Zm-1.5-.688a1.588,1.588,0,0,0,.806-.22,1.329,1.329,0,0,0,.552-.571V-2.563h-.708q-1.66,0-1.66.972a.822.822,0,0,0,.283.664A1.089,1.089,0,0,0-95.725-.688Zm6.753-.713a.665.665,0,0,0-.276-.569,2.655,2.655,0,0,0-.962-.349A4.548,4.548,0,0,1-91.3-2.671a1.549,1.549,0,0,1-.6-.488,1.168,1.168,0,0,1-.193-.674,1.37,1.37,0,0,1,.549-1.1,2.145,2.145,0,0,1,1.4-.449,2.208,2.208,0,0,1,1.458.464,1.473,1.473,0,0,1,.559,1.187h-.908a.815.815,0,0,0-.315-.64,1.18,1.18,0,0,0-.793-.269,1.235,1.235,0,0,0-.771.215.676.676,0,0,0-.278.562.548.548,0,0,0,.259.493,3.184,3.184,0,0,0,.935.317,4.872,4.872,0,0,1,1.1.361,1.6,1.6,0,0,1,.623.505,1.243,1.243,0,0,1,.2.72A1.352,1.352,0,0,1-88.635-.33,2.376,2.376,0,0,1-90.1.1a2.66,2.66,0,0,1-1.123-.225,1.827,1.827,0,0,1-.764-.627,1.512,1.512,0,0,1-.276-.872h.9A.935.935,0,0,0-91-.906a1.411,1.411,0,0,0,.9.266,1.457,1.457,0,0,0,.823-.208A.638.638,0,0,0-88.972-1.4Zm3.306-5.161v1.279h.986v.7h-.986V-1.3a.733.733,0,0,0,.132.477.555.555,0,0,0,.449.159,2.187,2.187,0,0,0,.43-.059V0a2.634,2.634,0,0,1-.693.1,1.125,1.125,0,0,1-.913-.366,1.573,1.573,0,0,1-.308-1.04V-4.585h-.962v-.7h.962V-6.562ZM-75.54-3.325A4.4,4.4,0,0,1-75.891-1.5a2.663,2.663,0,0,1-1,1.189,2.741,2.741,0,0,1-1.5.41A2.717,2.717,0,0,1-79.88-.315a2.727,2.727,0,0,1-1.008-1.177,4.22,4.22,0,0,1-.369-1.77v-.513A4.346,4.346,0,0,1-80.9-5.586a2.717,2.717,0,0,1,1.008-1.2A2.706,2.706,0,0,1-78.4-7.207a2.756,2.756,0,0,1,1.506.413,2.658,2.658,0,0,1,1,1.2,4.419,4.419,0,0,1,.352,1.824Zm-.933-.459a3.188,3.188,0,0,0-.508-1.941A1.675,1.675,0,0,0-78.4-6.4a1.657,1.657,0,0,0-1.4.676,3.122,3.122,0,0,0-.525,1.877v.522A3.192,3.192,0,0,0-79.81-1.4a1.664,1.664,0,0,0,1.418.7,1.657,1.657,0,0,0,1.406-.662,3.174,3.174,0,0,0,.513-1.9Zm6.67,1.2a3.141,3.141,0,0,1-.557,1.946A1.779,1.779,0,0,1-71.853.1,1.842,1.842,0,0,1-73.4-.61l-.044.61h-.83V-7.5h.9v2.8a1.831,1.831,0,0,1,1.509-.679,1.789,1.789,0,0,1,1.511.728A3.236,3.236,0,0,1-69.8-2.661Zm-.9-.1a2.441,2.441,0,0,0-.356-1.426,1.18,1.18,0,0,0-1.025-.5,1.326,1.326,0,0,0-1.284.83V-1.5a1.363,1.363,0,0,0,1.294.83,1.173,1.173,0,0,0,1.011-.5A2.6,2.6,0,0,0-70.706-2.686ZM-65.588-1.4a.665.665,0,0,0-.276-.569,2.655,2.655,0,0,0-.962-.349,4.548,4.548,0,0,1-1.089-.352,1.549,1.549,0,0,1-.6-.488,1.168,1.168,0,0,1-.193-.674,1.37,1.37,0,0,1,.549-1.1,2.145,2.145,0,0,1,1.4-.449,2.208,2.208,0,0,1,1.458.464,1.473,1.473,0,0,1,.559,1.187h-.908a.815.815,0,0,0-.315-.64,1.18,1.18,0,0,0-.793-.269,1.235,1.235,0,0,0-.771.215.676.676,0,0,0-.278.562.548.548,0,0,0,.259.493,3.184,3.184,0,0,0,.935.317,4.872,4.872,0,0,1,1.1.361,1.6,1.6,0,0,1,.623.505,1.243,1.243,0,0,1,.2.72A1.352,1.352,0,0,1-65.251-.33,2.376,2.376,0,0,1-66.721.1a2.66,2.66,0,0,1-1.123-.225,1.827,1.827,0,0,1-.764-.627,1.512,1.512,0,0,1-.276-.872h.9a.935.935,0,0,0,.364.72,1.411,1.411,0,0,0,.9.266A1.457,1.457,0,0,0-65.9-.847.638.638,0,0,0-65.588-1.4ZM-61.316.1a2.308,2.308,0,0,1-1.748-.706A2.619,2.619,0,0,1-63.738-2.5v-.166a3.17,3.17,0,0,1,.3-1.4,2.343,2.343,0,0,1,.84-.967,2.112,2.112,0,0,1,1.169-.349,1.979,1.979,0,0,1,1.6.679,2.939,2.939,0,0,1,.571,1.943v.376h-3.579a1.878,1.878,0,0,0,.457,1.262,1.435,1.435,0,0,0,1.111.481,1.573,1.573,0,0,0,.811-.2,2.037,2.037,0,0,0,.581-.518l.552.43A2.219,2.219,0,0,1-61.316.1Zm-.112-4.736a1.2,1.2,0,0,0-.918.4,1.934,1.934,0,0,0-.459,1.116h2.646v-.068A1.721,1.721,0,0,0-60.53-4.26,1.134,1.134,0,0,0-61.428-4.639Zm5.771.166a2.707,2.707,0,0,0-.444-.034,1.19,1.19,0,0,0-1.206.757V0h-.9V-5.283h.879l.015.61a1.407,1.407,0,0,1,1.26-.708.923.923,0,0,1,.4.068ZM-53-1.226l1.309-4.058h.923L-52.659,0h-.688l-1.914-5.283h.923ZM-47.766.1a2.308,2.308,0,0,1-1.748-.706A2.619,2.619,0,0,1-50.188-2.5v-.166a3.17,3.17,0,0,1,.3-1.4,2.343,2.343,0,0,1,.84-.967,2.112,2.112,0,0,1,1.169-.349,1.979,1.979,0,0,1,1.6.679,2.939,2.939,0,0,1,.571,1.943v.376h-3.579a1.878,1.878,0,0,0,.457,1.262,1.435,1.435,0,0,0,1.111.481,1.573,1.573,0,0,0,.811-.2,2.037,2.037,0,0,0,.581-.518l.552.43A2.219,2.219,0,0,1-47.766.1Zm-.112-4.736a1.2,1.2,0,0,0-.918.4,1.934,1.934,0,0,0-.459,1.116h2.646v-.068A1.721,1.721,0,0,0-46.98-4.26,1.134,1.134,0,0,0-47.878-4.639Zm3,1.953A3.1,3.1,0,0,1-44.3-4.641a1.822,1.822,0,0,1,1.509-.74,1.832,1.832,0,0,1,1.47.635V-7.5h.9V0h-.83L-41.3-.566A1.84,1.84,0,0,1-42.805.1a1.8,1.8,0,0,1-1.5-.752,3.13,3.13,0,0,1-.579-1.963Zm.9.1a2.343,2.343,0,0,0,.371,1.406,1.2,1.2,0,0,0,1.025.508,1.318,1.318,0,0,0,1.255-.771V-3.867a1.328,1.328,0,0,0-1.245-.747,1.205,1.205,0,0,0-1.035.513A2.58,2.58,0,0,0-43.977-2.583ZM-39.05-.474a.566.566,0,0,1,.139-.391.53.53,0,0,1,.417-.156.546.546,0,0,1,.422.156.554.554,0,0,1,.144.391.524.524,0,0,1-.144.376.556.556,0,0,1-.422.151A.54.54,0,0,1-38.911-.1.535.535,0,0,1-39.05-.474Zm0-4.312a.566.566,0,0,1,.139-.391.53.53,0,0,1,.417-.156.546.546,0,0,1,.422.156.554.554,0,0,1,.144.391.524.524,0,0,1-.144.376.556.556,0,0,1-.422.151.54.54,0,0,1-.417-.151A.535.535,0,0,1-39.045-4.785Zm2.412,1.9A7.549,7.549,0,0,1-36.338-5a6.156,6.156,0,0,1,.881-1.846,3.749,3.749,0,0,1,1.216-1.172l.186.6a3.889,3.889,0,0,0-1.169,1.67,7.239,7.239,0,0,0-.5,2.515l0,.415A7.277,7.277,0,0,0-35.042.444a3.907,3.907,0,0,0,.986,1.3l-.186.552a3.87,3.87,0,0,1-1.24-1.211A6.787,6.787,0,0,1-36.633-2.886Zm5.688-.283A4.408,4.408,0,0,1-32.7-4.021a1.628,1.628,0,0,1-.549-1.248,1.72,1.72,0,0,1,.671-1.389,2.668,2.668,0,0,1,1.746-.549,2.913,2.913,0,0,1,1.306.283,2.148,2.148,0,0,1,.889.781,2,2,0,0,1,.315,1.089h-.942a1.3,1.3,0,0,0-.41-1.017,1.668,1.668,0,0,0-1.157-.37,1.708,1.708,0,0,0-1.082.306,1.02,1.02,0,0,0-.388.849.918.918,0,0,0,.369.736A3.616,3.616,0,0,0-30.679-4a5.822,5.822,0,0,1,1.387.55,2.1,2.1,0,0,1,.742.7,1.788,1.788,0,0,1,.242.942,1.661,1.661,0,0,1-.674,1.384,2.873,2.873,0,0,1-1.8.52,3.342,3.342,0,0,1-1.367-.281,2.3,2.3,0,0,1-.979-.769,1.877,1.877,0,0,1-.344-1.108h.942a1.224,1.224,0,0,0,.476,1.018,2,2,0,0,0,1.272.374,1.843,1.843,0,0,0,1.138-.3.983.983,0,0,0,.4-.825.965.965,0,0,0-.366-.808A4.222,4.222,0,0,0-30.945-3.169ZM-25.056.1A2.308,2.308,0,0,1-26.8-.608,2.619,2.619,0,0,1-27.478-2.5v-.166a3.17,3.17,0,0,1,.3-1.4,2.343,2.343,0,0,1,.84-.967,2.112,2.112,0,0,1,1.169-.349,1.979,1.979,0,0,1,1.6.679A2.939,2.939,0,0,1-23-2.759v.376h-3.579a1.878,1.878,0,0,0,.457,1.262,1.435,1.435,0,0,0,1.111.481,1.573,1.573,0,0,0,.811-.2,2.037,2.037,0,0,0,.581-.518l.552.43A2.219,2.219,0,0,1-25.056.1Zm-.112-4.736a1.2,1.2,0,0,0-.918.4,1.934,1.934,0,0,0-.459,1.116H-23.9v-.068A1.721,1.721,0,0,0-24.27-4.26,1.134,1.134,0,0,0-25.168-4.639Zm7.681,2.056A3.163,3.163,0,0,1-18.04-.64,1.768,1.768,0,0,1-19.534.1a1.938,1.938,0,0,1-1.514-.61V2.031h-.9V-5.283h.825l.044.586a1.861,1.861,0,0,1,1.533-.684,1.8,1.8,0,0,1,1.506.718,3.2,3.2,0,0,1,.554,2Zm-.9-.1A2.334,2.334,0,0,0-18.772-4.1a1.227,1.227,0,0,0-1.045-.518,1.328,1.328,0,0,0-1.23.728v2.524a1.33,1.33,0,0,0,1.24.723,1.221,1.221,0,0,0,1.033-.515A2.548,2.548,0,0,0-18.391-2.686Zm3.276-3.877v1.279h.986v.7h-.986V-1.3a.733.733,0,0,0,.132.477.555.555,0,0,0,.449.159,2.187,2.187,0,0,0,.43-.059V0A2.634,2.634,0,0,1-14.8.1a1.125,1.125,0,0,1-.913-.366,1.573,1.573,0,0,1-.308-1.04V-4.585h-.962v-.7h.962V-6.562ZM-10.881.1a2.308,2.308,0,0,1-1.748-.706A2.619,2.619,0,0,1-13.3-2.5v-.166a3.17,3.17,0,0,1,.3-1.4,2.343,2.343,0,0,1,.84-.967,2.112,2.112,0,0,1,1.169-.349,1.979,1.979,0,0,1,1.6.679,2.939,2.939,0,0,1,.571,1.943v.376H-12.4a1.878,1.878,0,0,0,.457,1.262,1.435,1.435,0,0,0,1.111.481,1.573,1.573,0,0,0,.811-.2,2.037,2.037,0,0,0,.581-.518l.552.43A2.219,2.219,0,0,1-10.881.1Zm-.112-4.736a1.2,1.2,0,0,0-.918.4,1.934,1.934,0,0,0-.459,1.116h2.646v-.068A1.721,1.721,0,0,0-10.1-4.26,1.134,1.134,0,0,0-10.994-4.639Zm4.067-.645L-6.9-4.7a1.951,1.951,0,0,1,1.567-.684,1.51,1.51,0,0,1,1.509.85,2,2,0,0,1,.686-.615,2.026,2.026,0,0,1,1-.234Q-.4-5.381-.374-3.54V0h-.9V-3.486a1.213,1.213,0,0,0-.259-.847A1.14,1.14,0,0,0-2.4-4.614a1.2,1.2,0,0,0-.835.3,1.218,1.218,0,0,0-.386.808V0h-.908V-3.462A1.008,1.008,0,0,0-5.662-4.614a1.209,1.209,0,0,0-1.216.757V0h-.9V-5.283Zm12.388,2.7A3.141,3.141,0,0,1,4.9-.637,1.779,1.779,0,0,1,3.411.1,1.842,1.842,0,0,1,1.863-.61L1.819,0H.989V-7.5h.9v2.8A1.831,1.831,0,0,1,3.4-5.381a1.789,1.789,0,0,1,1.511.728,3.236,3.236,0,0,1,.549,1.992Zm-.9-.1A2.441,2.441,0,0,0,4.2-4.111a1.18,1.18,0,0,0-1.025-.5,1.326,1.326,0,0,0-1.284.83V-1.5a1.363,1.363,0,0,0,1.294.83,1.173,1.173,0,0,0,1.011-.5A2.6,2.6,0,0,0,4.558-2.686ZM8.792.1A2.308,2.308,0,0,1,7.043-.608,2.619,2.619,0,0,1,6.37-2.5v-.166a3.17,3.17,0,0,1,.3-1.4,2.343,2.343,0,0,1,.84-.967,2.112,2.112,0,0,1,1.169-.349,1.979,1.979,0,0,1,1.6.679,2.939,2.939,0,0,1,.571,1.943v.376H7.273a1.878,1.878,0,0,0,.457,1.262A1.435,1.435,0,0,0,8.84-.64a1.573,1.573,0,0,0,.811-.2,2.037,2.037,0,0,0,.581-.518l.552.43A2.219,2.219,0,0,1,8.792.1ZM8.679-4.639a1.2,1.2,0,0,0-.918.4A1.934,1.934,0,0,0,7.3-3.125H9.949v-.068A1.721,1.721,0,0,0,9.578-4.26,1.134,1.134,0,0,0,8.679-4.639Zm5.771.166a2.707,2.707,0,0,0-.444-.034A1.19,1.19,0,0,0,12.8-3.75V0h-.9V-5.283h.879l.015.61a1.407,1.407,0,0,1,1.26-.708.923.923,0,0,1,.4.068ZM20.632,0h-.908V-6.021L17.9-5.352v-.82l2.588-.972h.142Zm6.46-2.388h.986v.737h-.986V0h-.908V-1.65H22.947v-.532L26.13-7.109h.962Zm-3.12,0h2.212V-5.874l-.107.2Zm4.985,3.8-.513-.352a2.356,2.356,0,0,0,.479-1.318v-.815h.884v.708a2.224,2.224,0,0,1-.242.986A2.309,2.309,0,0,1,28.958,1.416ZM37.991,0H33.333V-.649l2.461-2.734a5.847,5.847,0,0,0,.754-1.008,1.683,1.683,0,0,0,.208-.8,1.276,1.276,0,0,0-.337-.913,1.178,1.178,0,0,0-.9-.356,1.4,1.4,0,0,0-1.047.383A1.464,1.464,0,0,0,34.1-5.015h-.9A2.1,2.1,0,0,1,33.828-6.6a2.344,2.344,0,0,1,1.692-.605,2.252,2.252,0,0,1,1.567.52A1.774,1.774,0,0,1,37.664-5.3a4.067,4.067,0,0,1-1.338,2.5l-1.9,2.065h3.569Zm5.415-3.032a4.131,4.131,0,0,1-.542,2.358A1.928,1.928,0,0,1,41.169.1a1.942,1.942,0,0,1-1.685-.754,3.921,3.921,0,0,1-.566-2.253V-4.116a4.039,4.039,0,0,1,.542-2.329,1.942,1.942,0,0,1,1.7-.762,1.96,1.96,0,0,1,1.689.735A3.9,3.9,0,0,1,43.406-4.2Zm-.9-1.235A3.31,3.31,0,0,0,42.18-5.94a1.109,1.109,0,0,0-1.021-.525,1.1,1.1,0,0,0-1.011.522,3.232,3.232,0,0,0-.327,1.606v1.445a3.363,3.363,0,0,0,.334,1.7,1.107,1.107,0,0,0,1.013.549,1.092,1.092,0,0,0,.994-.518A3.241,3.241,0,0,0,42.5-2.788ZM49.221,0H44.563V-.649l2.461-2.734a5.847,5.847,0,0,0,.754-1.008,1.683,1.683,0,0,0,.208-.8,1.276,1.276,0,0,0-.337-.913,1.178,1.178,0,0,0-.9-.356,1.4,1.4,0,0,0-1.047.383,1.464,1.464,0,0,0-.374,1.067h-.9A2.1,2.1,0,0,1,45.059-6.6a2.344,2.344,0,0,1,1.692-.605,2.252,2.252,0,0,1,1.567.52A1.774,1.774,0,0,1,48.894-5.3a4.067,4.067,0,0,1-1.338,2.5l-1.9,2.065h3.569Zm5.615,0H50.178V-.649l2.461-2.734a5.847,5.847,0,0,0,.754-1.008,1.683,1.683,0,0,0,.208-.8,1.276,1.276,0,0,0-.337-.913,1.178,1.178,0,0,0-.9-.356,1.4,1.4,0,0,0-1.047.383,1.464,1.464,0,0,0-.374,1.067h-.9A2.1,2.1,0,0,1,50.674-6.6a2.344,2.344,0,0,1,1.692-.605,2.252,2.252,0,0,1,1.567.52A1.774,1.774,0,0,1,54.509-5.3a4.067,4.067,0,0,1-1.338,2.5l-1.9,2.065h3.569Zm6.4,0H60.33V-6.021l-1.821.669v-.82L61.1-7.144h.142Zm7.3,0H63.884V-.649l2.461-2.734A5.846,5.846,0,0,0,67.1-4.392a1.683,1.683,0,0,0,.208-.8,1.276,1.276,0,0,0-.337-.913,1.178,1.178,0,0,0-.9-.356,1.4,1.4,0,0,0-1.047.383,1.464,1.464,0,0,0-.374,1.067h-.9A2.1,2.1,0,0,1,64.38-6.6a2.344,2.344,0,0,1,1.692-.605,2.252,2.252,0,0,1,1.567.52A1.774,1.774,0,0,1,68.215-5.3a4.067,4.067,0,0,1-1.338,2.5l-1.9,2.065h3.569Zm1.021-.474A.566.566,0,0,1,69.7-.864a.53.53,0,0,1,.417-.156.546.546,0,0,1,.422.156.554.554,0,0,1,.144.391.524.524,0,0,1-.144.376.556.556,0,0,1-.422.151A.54.54,0,0,1,69.7-.1.535.535,0,0,1,69.563-.474Zm0-4.312a.566.566,0,0,1,.139-.391.53.53,0,0,1,.417-.156.546.546,0,0,1,.422.156.554.554,0,0,1,.144.391.524.524,0,0,1-.144.376.556.556,0,0,1-.422.151.54.54,0,0,1-.417-.151A.535.535,0,0,1,69.568-4.785ZM76.58,0H71.921V-.649l2.461-2.734a5.846,5.846,0,0,0,.754-1.008,1.683,1.683,0,0,0,.208-.8,1.276,1.276,0,0,0-.337-.913,1.178,1.178,0,0,0-.9-.356,1.4,1.4,0,0,0-1.047.383,1.464,1.464,0,0,0-.374,1.067h-.9A2.1,2.1,0,0,1,72.417-6.6a2.344,2.344,0,0,1,1.692-.605,2.252,2.252,0,0,1,1.567.52A1.774,1.774,0,0,1,76.252-5.3a4.067,4.067,0,0,1-1.338,2.5L73.01-.737H76.58ZM81.35-2.388h.986v.737H81.35V0h-.908V-1.65H77.2v-.532l3.184-4.927h.962Zm-3.12,0h2.212V-5.874l-.107.2Zm8.569-.4V0h-.937V-7.109h2.622a2.634,2.634,0,0,1,1.829.6,2.02,2.02,0,0,1,.662,1.577,1.993,1.993,0,0,1-.647,1.594,2.752,2.752,0,0,1-1.853.559Zm0-.767h1.685A1.684,1.684,0,0,0,89.636-3.9a1.3,1.3,0,0,0,.4-1.025,1.34,1.34,0,0,0-.4-1.017,1.578,1.578,0,0,0-1.1-.4H86.8Zm6.582-3.56,2.324,5.8,2.324-5.8h1.216V0h-.937V-2.769L98.4-5.757,96.062,0h-.718L93.015-5.742l.093,2.974V0H92.17V-7.109Zm9.463,4.272a7.553,7.553,0,0,1-.286,2.087,6.172,6.172,0,0,1-.874,1.843,3.829,3.829,0,0,1-1.233,1.2l-.19-.552a3.925,3.925,0,0,0,1.208-1.79,7.742,7.742,0,0,0,.466-2.693V-2.9a8.038,8.038,0,0,0-.215-1.907,6.435,6.435,0,0,0-.6-1.58,3.648,3.648,0,0,0-.862-1.089l.19-.552a3.814,3.814,0,0,1,1.228,1.191,6.186,6.186,0,0,1,.874,1.841A7.727,7.727,0,0,1,102.844-2.837Z" transform="translate(549 628)" fill="#a1a1a1"/>
      <path id="Path_1268" data-name="Path 1268" d="M549.5,0H0" transform="translate(216 454.5)" fill="none" stroke="rgba(165,170,188,0.5)" stroke-width="1"/>
      <g id="Path_1269" data-name="Path 1269" transform="translate(216 417)" fill="none">
        <path d="M5,0H544a5,5,0,0,1,5,5V224a5,5,0,0,1-5,5H5a5,5,0,0,1-5-5V5A5,5,0,0,1,5,0Z" stroke="none"/>
        <path d="M 5 1 C 2.79437255859375 1 1 2.794357299804688 1 5 L 1 224 C 1 226.2056427001953 2.79437255859375 228 5 228 L 544 228 C 546.2056274414062 228 548 226.2056427001953 548 224 L 548 5 C 548 2.794357299804688 546.2056274414062 1 544 1 L 5 1 M 5 0 L 544 0 C 546.7614135742188 0 549 2.238571166992188 549 5 L 549 224 C 549 226.7614288330078 546.7614135742188 229 544 229 L 5 229 C 2.23858642578125 229 0 226.7614288330078 0 224 L 0 5 C 0 2.238571166992188 2.23858642578125 0 5 0 Z" stroke="none" fill="rgba(165,170,188,0.5)"/>
      </g>
    </g>
  </g>
</svg>
