<svg xmlns="http://www.w3.org/2000/svg" xmlns:xlink="http://www.w3.org/1999/xlink" width="981.5" height="409" viewBox="0 0 981.5 409">
  <defs>
    <filter id="Current_target_performance_card" x="26" y="152.248" width="362.5" height="173" filterUnits="userSpaceOnUse">
      <feOffset dy="3" input="SourceAlpha"/>
      <feGaussianBlur stdDeviation="3" result="blur"/>
      <feFlood flood-opacity="0.102"/>
      <feComposite operator="in" in2="blur"/>
      <feComposite in="SourceGraphic"/>
    </filter>
    <clipPath id="clip-path">
      <g transform="matrix(1, 0, 0, 1, 0, 0)" filter="url(#Current_target_performance_card)">
        <rect id="Current_target_performance_card-2" data-name="Current target performance card" width="344.5" height="155" rx="5" transform="translate(227 189.5)" fill="#fff" stroke="rgba(165,170,188,0.5)" stroke-width="0.5"/>
      </g>
    </clipPath>
    <filter id="Current_target_performance_card-3" x="26" y="152.248" width="362.5" height="173" filterUnits="userSpaceOnUse">
      <feOffset dy="3" input="SourceAlpha"/>
      <feGaussianBlur stdDeviation="3" result="blur-2"/>
      <feFlood flood-opacity="0.102"/>
      <feComposite operator="in" in2="blur-2"/>
      <feComposite in="SourceGraphic"/>
    </filter>
  </defs>
  <g id="Group_1126" data-name="Group 1126" transform="translate(-192 -31.252)">
    <g id="Group_1004" data-name="Group 1004">
      <g id="Create_flow_bg" data-name="Create flow bg" transform="translate(192 31.252)" fill="#fff">
        <path d="M5,0H976.5a5,5,0,0,1,5,5V404a5,5,0,0,1-5,5H5a5,5,0,0,1-5-5V5A5,5,0,0,1,5,0Z" stroke="none"/>
        <path d="M 5 0.5 C 2.51873779296875 0.5 0.5 2.51873779296875 0.5 5 L 0.5 404 C 0.5 406.4812622070312 2.51873779296875 408.5 5 408.5 L 976.5 408.5 C 978.9812622070312 408.5 981 406.4812622070312 981 404 L 981 5 C 981 2.51873779296875 978.9812622070312 0.5 976.5 0.5 L 5 0.5 M 5 0 L 976.5 0 C 979.2613525390625 0 981.5 2.238616943359375 981.5 5 L 981.5 404 C 981.5 406.7613830566406 979.2613525390625 409 976.5 409 L 5 409 C 2.2386474609375 409 0 406.7613830566406 0 404 L 0 5 C 0 2.238616943359375 2.2386474609375 0 5 0 Z" stroke="none" fill="rgba(165,170,188,0.5)"/>
      </g>
      <path id="Path_53" data-name="Path 53" d="M0,0H981" transform="translate(192.5 74.752)" fill="none" stroke="rgba(165,170,188,0.25)" stroke-width="0.5"/>
      <path id="Create_flow_color" data-name="Create flow color" d="M5,0H976.5a5,5,0,0,1,5,5V43.5H0V5A5,5,0,0,1,5,0Z" transform="translate(192 31.252)" fill="#071d34"/>
      <path id="Path_880" data-name="Path 880" d="M7.266-2.707a3.139,3.139,0,0,1-1,2.089A3.274,3.274,0,0,1,4.031.117,3.006,3.006,0,0,1,1.608-.967,4.361,4.361,0,0,1,.7-3.867v-.82a4.861,4.861,0,0,1,.425-2.092,3.173,3.173,0,0,1,1.2-1.386,3.353,3.353,0,0,1,1.8-.483,3.083,3.083,0,0,1,2.18.759,3.176,3.176,0,0,1,.955,2.1H6.135A2.451,2.451,0,0,0,5.5-7.27a1.924,1.924,0,0,0-1.368-.458,2.013,2.013,0,0,0-1.69.8,3.661,3.661,0,0,0-.612,2.269v.827a3.764,3.764,0,0,0,.58,2.211A1.874,1.874,0,0,0,4.031-.8,2.165,2.165,0,0,0,5.47-1.228a2.357,2.357,0,0,0,.665-1.479Zm4.43-2.66a3.248,3.248,0,0,0-.533-.041A1.428,1.428,0,0,0,9.715-4.5V0H8.631V-6.34H9.686l.018.732a1.688,1.688,0,0,1,1.512-.85,1.107,1.107,0,0,1,.48.082ZM15.211.117a2.77,2.77,0,0,1-2.1-.847A3.142,3.142,0,0,1,12.3-2.994v-.2a3.8,3.8,0,0,1,.36-1.685,2.811,2.811,0,0,1,1.008-1.16,2.534,2.534,0,0,1,1.4-.419A2.374,2.374,0,0,1,17-5.643a3.526,3.526,0,0,1,.686,2.332v.451H13.389a2.254,2.254,0,0,0,.548,1.515,1.722,1.722,0,0,0,1.333.577A1.888,1.888,0,0,0,16.242-1a2.444,2.444,0,0,0,.7-.621l.662.516A2.662,2.662,0,0,1,15.211.117Zm-.135-5.684a1.446,1.446,0,0,0-1.1.478,2.321,2.321,0,0,0-.551,1.339H16.6v-.082a2.065,2.065,0,0,0-.445-1.28A1.361,1.361,0,0,0,15.076-5.566ZM22.852,0A2.277,2.277,0,0,1,22.7-.668a2.419,2.419,0,0,1-1.8.785,2.238,2.238,0,0,1-1.538-.53,1.716,1.716,0,0,1-.6-1.345A1.792,1.792,0,0,1,19.509-3.3a3.55,3.55,0,0,1,2.118-.548h1.055v-.5a1.217,1.217,0,0,0-.34-.905,1.366,1.366,0,0,0-1-.337,1.581,1.581,0,0,0-.973.293.863.863,0,0,0-.393.709h-1.09a1.5,1.5,0,0,1,.337-.917,2.3,2.3,0,0,1,.914-.7A3.075,3.075,0,0,1,21.4-6.457a2.506,2.506,0,0,1,1.717.548A1.976,1.976,0,0,1,23.766-4.4v2.918a3.567,3.567,0,0,0,.223,1.389V0Zm-1.8-.826a1.905,1.905,0,0,0,.967-.264,1.6,1.6,0,0,0,.662-.686v-1.3h-.85q-1.992,0-1.992,1.166a.987.987,0,0,0,.34.8A1.306,1.306,0,0,0,21.053-.826Zm5.883-7.049V-6.34h1.184V-5.5H26.936v3.937a.88.88,0,0,0,.158.572.666.666,0,0,0,.539.191,2.624,2.624,0,0,0,.516-.07V0a3.161,3.161,0,0,1-.832.116,1.35,1.35,0,0,1-1.1-.439,1.888,1.888,0,0,1-.369-1.248V-5.5H24.7V-6.34h1.154V-7.875ZM32.016.117a2.77,2.77,0,0,1-2.1-.847,3.142,3.142,0,0,1-.809-2.265v-.2a3.8,3.8,0,0,1,.36-1.685,2.811,2.811,0,0,1,1.008-1.16,2.534,2.534,0,0,1,1.4-.419,2.374,2.374,0,0,1,1.922.814,3.526,3.526,0,0,1,.686,2.332v.451H30.193a2.254,2.254,0,0,0,.548,1.515,1.722,1.722,0,0,0,1.333.577A1.888,1.888,0,0,0,33.047-1a2.444,2.444,0,0,0,.7-.621l.662.516A2.662,2.662,0,0,1,32.016.117Zm-.135-5.684a1.446,1.446,0,0,0-1.1.478,2.321,2.321,0,0,0-.551,1.339H33.4v-.082a2.065,2.065,0,0,0-.445-1.28A1.361,1.361,0,0,0,31.881-5.566Zm11.707,1.8h-3.58V0H38.883V-8.531h5.285v.92h-4.16v2.924h3.58ZM46.523,0H45.439V-9h1.084Zm1.447-3.229A3.745,3.745,0,0,1,48.337-4.9a2.732,2.732,0,0,1,1.02-1.148,2.775,2.775,0,0,1,1.491-.4,2.674,2.674,0,0,1,2.095.9,3.449,3.449,0,0,1,.8,2.385V-3.1a3.777,3.777,0,0,1-.354,1.661A2.692,2.692,0,0,1,52.374-.293a2.807,2.807,0,0,1-1.515.41,2.667,2.667,0,0,1-2.089-.9,3.432,3.432,0,0,1-.8-2.373Zm1.09.129a2.712,2.712,0,0,0,.489,1.693,1.566,1.566,0,0,0,1.31.639,1.556,1.556,0,0,0,1.313-.647,2.966,2.966,0,0,0,.486-1.813,2.708,2.708,0,0,0-.5-1.69,1.574,1.574,0,0,0-1.315-.647,1.557,1.557,0,0,0-1.295.639A2.944,2.944,0,0,0,49.061-3.1ZM60.715-1.494,61.934-6.34h1.084L61.172,0h-.879L58.752-4.8,57.252,0h-.879l-1.84-6.34h1.078l1.248,4.746L58.336-6.34h.873Z" transform="translate(227 58.252)" fill="#fff"/>
      <g id="Current_target_performance_card-4" data-name="Current target performance card" transform="translate(227 88.252)" fill="#fff">
        <path d="M5,0H125a5,5,0,0,1,5,5V22a5,5,0,0,1-5,5H5a5,5,0,0,1-5-5V5A5,5,0,0,1,5,0Z" stroke="none"/>
        <path d="M 5 0.5 C 2.518684387207031 0.5 0.5 2.518682479858398 0.5 5 L 0.5 22 C 0.5 24.48131561279297 2.518684387207031 26.5 5 26.5 L 125 26.5 C 127.481315612793 26.5 129.5 24.48131561279297 129.5 22 L 129.5 5 C 129.5 2.518682479858398 127.481315612793 0.5 125 0.5 L 5 0.5 M 5 0 L 125 0 C 127.7614135742188 0 130 2.238582611083984 130 5 L 130 22 C 130 24.76141738891602 127.7614135742188 27 125 27 L 5 27 C 2.23858642578125 27 0 24.76141738891602 0 22 L 0 5 C 0 2.238582611083984 2.23858642578125 0 5 0 Z" stroke="none" fill="rgba(165,170,188,0.5)"/>
      </g>
      <path id="Path_881" data-name="Path 881" d="M7.547,0H6.416L2.121-6.574V0H.99V-8.531H2.121l4.307,6.6v-6.6H7.547Zm4.459.117a2.77,2.77,0,0,1-2.1-.847A3.142,3.142,0,0,1,9.1-2.994v-.2a3.8,3.8,0,0,1,.36-1.685,2.811,2.811,0,0,1,1.008-1.16,2.534,2.534,0,0,1,1.4-.419,2.374,2.374,0,0,1,1.922.814,3.526,3.526,0,0,1,.686,2.332v.451H10.184a2.254,2.254,0,0,0,.548,1.515,1.722,1.722,0,0,0,1.333.577A1.888,1.888,0,0,0,13.037-1a2.444,2.444,0,0,0,.7-.621l.662.516A2.662,2.662,0,0,1,12.006.117Zm-.135-5.684a1.446,1.446,0,0,0-1.1.478,2.321,2.321,0,0,0-.551,1.339h3.176v-.082a2.065,2.065,0,0,0-.445-1.28A1.361,1.361,0,0,0,11.871-5.566Zm9.475,4.072L22.564-6.34h1.084L21.8,0h-.879L19.383-4.8,17.883,0H17l-1.84-6.34h1.078L17.49-1.594,18.967-6.34h.873ZM27.68-3.463a9.059,9.059,0,0,1,.354-2.543,7.387,7.387,0,0,1,1.058-2.215,4.5,4.5,0,0,1,1.459-1.406l.223.715a4.667,4.667,0,0,0-1.4,2,8.687,8.687,0,0,0-.6,3.018l-.006.5A8.733,8.733,0,0,0,29.59.533a4.689,4.689,0,0,0,1.184,1.559l-.223.662A4.644,4.644,0,0,1,29.063,1.3,8.144,8.144,0,0,1,27.68-3.463Zm9.135-.48h-3.7V-.92h4.295V0h-5.42V-8.531h5.361v.92H33.117v2.748h3.7Zm2.848-2.4.029.7a2.341,2.341,0,0,1,1.881-.82,1.813,1.813,0,0,1,1.811,1.02,2.4,2.4,0,0,1,.823-.738,2.431,2.431,0,0,1,1.2-.281q2.086,0,2.121,2.209V0H46.441V-4.184A1.456,1.456,0,0,0,46.131-5.2a1.368,1.368,0,0,0-1.043-.337,1.437,1.437,0,0,0-1,.36,1.462,1.462,0,0,0-.463.97V0h-1.09V-4.154A1.209,1.209,0,0,0,41.18-5.537a1.45,1.45,0,0,0-1.459.908V0H38.637V-6.34ZM54.516-3.1a3.8,3.8,0,0,1-.662,2.332,2.122,2.122,0,0,1-1.793.885,2.325,2.325,0,0,1-1.816-.732V2.438H49.16V-6.34h.99l.053.7a2.233,2.233,0,0,1,1.84-.82,2.162,2.162,0,0,1,1.808.861,3.838,3.838,0,0,1,.665,2.4Zm-1.084-.123a2.8,2.8,0,0,0-.457-1.693,1.472,1.472,0,0,0-1.254-.621,1.593,1.593,0,0,0-1.477.873v3.029a1.6,1.6,0,0,0,1.488.867,1.465,1.465,0,0,0,1.239-.618A3.058,3.058,0,0,0,53.432-3.223Zm3.932-4.652V-6.34h1.184V-5.5H57.363v3.937a.88.88,0,0,0,.158.572.666.666,0,0,0,.539.191,2.624,2.624,0,0,0,.516-.07V0a3.161,3.161,0,0,1-.832.116,1.35,1.35,0,0,1-1.1-.439,1.888,1.888,0,0,1-.369-1.248V-5.5H55.125V-6.34h1.154V-7.875Zm4.523,6.287L63.363-6.34h1.16L61.975.979q-.592,1.582-1.881,1.582l-.205-.018-.4-.076V1.588l.293.023a1.442,1.442,0,0,0,.858-.223,1.611,1.611,0,0,0,.507-.814l.24-.645L59.121-6.34H60.3ZM67.992-3.4a9.063,9.063,0,0,1-.343,2.5A7.407,7.407,0,0,1,66.6,1.313a4.6,4.6,0,0,1-1.479,1.441l-.229-.662a4.711,4.711,0,0,0,1.45-2.147,9.29,9.29,0,0,0,.56-3.231v-.187a9.646,9.646,0,0,0-.258-2.288,7.722,7.722,0,0,0-.718-1.9,4.378,4.378,0,0,0-1.034-1.307l.229-.662A4.577,4.577,0,0,1,66.595-8.2a7.423,7.423,0,0,1,1.049,2.209A9.273,9.273,0,0,1,67.992-3.4Zm9.516-.363h-3.58V0H72.8V-8.531h5.285v.92h-4.16v2.924h3.58ZM80.443,0H79.359V-9h1.084Zm1.447-3.229A3.745,3.745,0,0,1,82.257-4.9a2.732,2.732,0,0,1,1.02-1.148,2.775,2.775,0,0,1,1.491-.4,2.674,2.674,0,0,1,2.095.9,3.449,3.449,0,0,1,.8,2.385V-3.1a3.777,3.777,0,0,1-.354,1.661A2.692,2.692,0,0,1,86.294-.293a2.807,2.807,0,0,1-1.515.41,2.667,2.667,0,0,1-2.089-.9,3.432,3.432,0,0,1-.8-2.373Zm1.09.129a2.712,2.712,0,0,0,.489,1.693,1.566,1.566,0,0,0,1.31.639,1.556,1.556,0,0,0,1.313-.647,2.966,2.966,0,0,0,.486-1.813,2.708,2.708,0,0,0-.5-1.69,1.574,1.574,0,0,0-1.315-.647,1.557,1.557,0,0,0-1.295.639A2.944,2.944,0,0,0,82.98-3.1ZM94.635-1.494,95.854-6.34h1.084L95.092,0h-.879L92.672-4.8,91.172,0h-.879l-1.84-6.34h1.078l1.248,4.746L92.256-6.34h.873Z" transform="translate(252 106)" fill="#0c2339"/>
      <path id="Path_882" data-name="Path 882" d="M3.5-3.8A5.29,5.29,0,0,1,1.4-4.825a1.954,1.954,0,0,1-.659-1.5,2.064,2.064,0,0,1,.806-1.667,3.2,3.2,0,0,1,2.095-.659,3.5,3.5,0,0,1,1.567.34,2.577,2.577,0,0,1,1.066.938A2.4,2.4,0,0,1,6.65-6.064H5.52a1.56,1.56,0,0,0-.492-1.22,2,2,0,0,0-1.389-.444,2.049,2.049,0,0,0-1.3.367,1.224,1.224,0,0,0-.466,1.018,1.1,1.1,0,0,0,.442.883,4.339,4.339,0,0,0,1.506.66,6.987,6.987,0,0,1,1.664.66,2.525,2.525,0,0,1,.891.841,2.146,2.146,0,0,1,.29,1.131A1.993,1.993,0,0,1,5.859-.507,3.448,3.448,0,0,1,3.7.117,4.01,4.01,0,0,1,2.057-.22,2.761,2.761,0,0,1,.882-1.143a2.252,2.252,0,0,1-.413-1.33H1.6a1.469,1.469,0,0,0,.571,1.222A2.4,2.4,0,0,0,3.7-.8a2.211,2.211,0,0,0,1.365-.363,1.18,1.18,0,0,0,.475-.99,1.158,1.158,0,0,0-.439-.97A5.066,5.066,0,0,0,3.5-3.8ZM10.57.117a2.77,2.77,0,0,1-2.1-.847,3.142,3.142,0,0,1-.809-2.265v-.2a3.8,3.8,0,0,1,.36-1.685,2.811,2.811,0,0,1,1.008-1.16,2.534,2.534,0,0,1,1.4-.419,2.374,2.374,0,0,1,1.922.814,3.526,3.526,0,0,1,.686,2.332v.451H8.748A2.254,2.254,0,0,0,9.3-1.345a1.722,1.722,0,0,0,1.333.577A1.888,1.888,0,0,0,11.6-1a2.444,2.444,0,0,0,.7-.621l.662.516A2.662,2.662,0,0,1,10.57.117Zm-.135-5.684a1.446,1.446,0,0,0-1.1.478A2.321,2.321,0,0,0,8.783-3.75h3.176v-.082a2.065,2.065,0,0,0-.445-1.28A1.361,1.361,0,0,0,10.436-5.566ZM15.475,0H14.391V-9h1.084ZM19.84.117a2.77,2.77,0,0,1-2.1-.847,3.142,3.142,0,0,1-.809-2.265v-.2a3.8,3.8,0,0,1,.36-1.685A2.811,2.811,0,0,1,18.3-6.038a2.534,2.534,0,0,1,1.4-.419,2.374,2.374,0,0,1,1.922.814,3.526,3.526,0,0,1,.686,2.332v.451H18.018a2.254,2.254,0,0,0,.548,1.515A1.722,1.722,0,0,0,19.9-.768,1.888,1.888,0,0,0,20.871-1a2.444,2.444,0,0,0,.7-.621l.662.516A2.662,2.662,0,0,1,19.84.117Zm-.135-5.684a1.446,1.446,0,0,0-1.1.478,2.321,2.321,0,0,0-.551,1.339h3.176v-.082a2.065,2.065,0,0,0-.445-1.28A1.361,1.361,0,0,0,19.705-5.566Zm6.4,4.8a1.561,1.561,0,0,0,1.014-.352A1.237,1.237,0,0,0,27.6-2h1.025a1.966,1.966,0,0,1-.375,1.037,2.47,2.47,0,0,1-.923.785,2.663,2.663,0,0,1-1.222.293,2.612,2.612,0,0,1-2.06-.864,3.442,3.442,0,0,1-.765-2.364v-.182a3.817,3.817,0,0,1,.34-1.646A2.588,2.588,0,0,1,24.6-6.059a2.771,2.771,0,0,1,1.5-.4,2.543,2.543,0,0,1,1.772.639,2.283,2.283,0,0,1,.753,1.658H27.6a1.494,1.494,0,0,0-.466-1.011,1.449,1.449,0,0,0-1.034-.4,1.517,1.517,0,0,0-1.28.595,2.793,2.793,0,0,0-.454,1.72v.205a2.737,2.737,0,0,0,.451,1.688A1.524,1.524,0,0,0,26.109-.768Zm5.209-7.107V-6.34H32.5V-5.5H31.318v3.937a.88.88,0,0,0,.158.572.666.666,0,0,0,.539.191,2.624,2.624,0,0,0,.516-.07V0A3.161,3.161,0,0,1,31.7.117a1.35,1.35,0,0,1-1.1-.439,1.888,1.888,0,0,1-.369-1.248V-5.5H29.08V-6.34h1.154V-7.875ZM40.652,0A2.277,2.277,0,0,1,40.5-.668a2.419,2.419,0,0,1-1.8.785,2.238,2.238,0,0,1-1.538-.53,1.716,1.716,0,0,1-.6-1.345A1.792,1.792,0,0,1,37.31-3.3a3.55,3.55,0,0,1,2.118-.548h1.055v-.5a1.217,1.217,0,0,0-.34-.905,1.366,1.366,0,0,0-1-.337,1.581,1.581,0,0,0-.973.293.863.863,0,0,0-.393.709h-1.09a1.5,1.5,0,0,1,.337-.917,2.3,2.3,0,0,1,.914-.7,3.075,3.075,0,0,1,1.269-.258,2.506,2.506,0,0,1,1.717.548A1.976,1.976,0,0,1,41.566-4.4v2.918a3.567,3.567,0,0,0,.223,1.389V0Zm-1.8-.826a1.905,1.905,0,0,0,.967-.264,1.6,1.6,0,0,0,.662-.686v-1.3h-.85q-1.992,0-1.992,1.166a.987.987,0,0,0,.34.8A1.306,1.306,0,0,0,38.854-.826ZM44.291-6.34l.035.8a2.31,2.31,0,0,1,1.9-.914q2.01,0,2.027,2.268V0H47.168V-4.2a1.459,1.459,0,0,0-.313-1.014,1.256,1.256,0,0,0-.958-.328,1.564,1.564,0,0,0-.926.281,1.91,1.91,0,0,0-.621.738V0H43.266V-6.34ZM54.035,0H52.951V-6.34h1.084ZM52.863-8.021a.647.647,0,0,1,.161-.445.6.6,0,0,1,.478-.182.614.614,0,0,1,.48.182.64.64,0,0,1,.164.445.619.619,0,0,1-.164.439.626.626,0,0,1-.48.176.616.616,0,0,1-.478-.176A.626.626,0,0,1,52.863-8.021ZM56.795-6.34l.035.8a2.31,2.31,0,0,1,1.9-.914q2.01,0,2.027,2.268V0H59.672V-4.2a1.459,1.459,0,0,0-.313-1.014,1.256,1.256,0,0,0-.958-.328,1.564,1.564,0,0,0-.926.281,1.91,1.91,0,0,0-.621.738V0H55.77V-6.34Zm5.332,3.117a3.714,3.714,0,0,1,.691-2.347,2.186,2.186,0,0,1,1.811-.888,2.2,2.2,0,0,1,1.764.762V-9h1.084V0h-1l-.053-.68a2.208,2.208,0,0,1-1.811.8,2.165,2.165,0,0,1-1.8-.9,3.756,3.756,0,0,1-.694-2.355Zm1.084.123a2.812,2.812,0,0,0,.445,1.688,1.44,1.44,0,0,0,1.23.609,1.581,1.581,0,0,0,1.506-.926V-4.641a1.593,1.593,0,0,0-1.494-.9,1.446,1.446,0,0,0-1.242.615A3.1,3.1,0,0,0,63.211-3.1ZM73.072-.627a2.3,2.3,0,0,1-1.857.744,1.971,1.971,0,0,1-1.544-.589,2.549,2.549,0,0,1-.536-1.743V-6.34h1.084v4.1Q70.219-.8,71.391-.8a1.623,1.623,0,0,0,1.652-.926V-6.34h1.084V0H73.1Zm6.393-1.055a.8.8,0,0,0-.331-.683,3.187,3.187,0,0,0-1.154-.419,5.457,5.457,0,0,1-1.307-.422,1.859,1.859,0,0,1-.715-.586,1.4,1.4,0,0,1-.231-.809,1.645,1.645,0,0,1,.659-1.318,2.574,2.574,0,0,1,1.685-.539,2.649,2.649,0,0,1,1.749.557,1.768,1.768,0,0,1,.671,1.424H79.4a.979.979,0,0,0-.378-.768,1.416,1.416,0,0,0-.952-.322,1.482,1.482,0,0,0-.926.258.812.812,0,0,0-.334.674.658.658,0,0,0,.311.592,3.821,3.821,0,0,0,1.122.381,5.847,5.847,0,0,1,1.315.434,1.919,1.919,0,0,1,.747.606,1.491,1.491,0,0,1,.243.864A1.623,1.623,0,0,1,79.869-.4a2.851,2.851,0,0,1-1.764.513,3.193,3.193,0,0,1-1.348-.27,2.192,2.192,0,0,1-.917-.753,1.815,1.815,0,0,1-.331-1.046h1.084a1.122,1.122,0,0,0,.437.864,1.693,1.693,0,0,0,1.075.319,1.748,1.748,0,0,0,.987-.249A.765.765,0,0,0,79.465-1.682Zm3.967-6.193V-6.34h1.184V-5.5H83.432v3.937a.88.88,0,0,0,.158.572.666.666,0,0,0,.539.191,2.624,2.624,0,0,0,.516-.07V0a3.161,3.161,0,0,1-.832.116,1.35,1.35,0,0,1-1.1-.439,1.888,1.888,0,0,1-.369-1.248V-5.5H81.193V-6.34h1.154V-7.875Zm5.514,2.508a3.248,3.248,0,0,0-.533-.041,1.428,1.428,0,0,0-1.447.908V0H85.881V-6.34h1.055l.018.732a1.688,1.688,0,0,1,1.512-.85,1.107,1.107,0,0,1,.48.082Zm3.176,3.779L93.6-6.34h1.16L92.209.979q-.592,1.582-1.881,1.582l-.205-.018-.4-.076V1.588l.293.023a1.442,1.442,0,0,0,.858-.223,1.611,1.611,0,0,0,.507-.814l.24-.645L89.355-6.34h1.184Z" transform="translate(227 146)" fill="#0c2339"/>
      <path id="Path_86" data-name="Path 86" d="M5,0a5,5,0,1,0,5,5A5.006,5.006,0,0,0,5,0ZM5,0" transform="translate(235 97)" fill="#fff" stroke="rgba(165,170,188,0.5)" stroke-width="0.5"/>
      <path id="Path_884" data-name="Path 884" d="M5.7-2.232H2.127L1.324,0H.164L3.422-8.531h.984L7.67,0H6.516Zm-3.234-.92h2.9L3.914-7.143ZM11.279.117a2.77,2.77,0,0,1-2.1-.847,3.142,3.142,0,0,1-.809-2.265v-.2a3.8,3.8,0,0,1,.36-1.685,2.811,2.811,0,0,1,1.008-1.16,2.534,2.534,0,0,1,1.4-.419,2.374,2.374,0,0,1,1.922.814,3.526,3.526,0,0,1,.686,2.332v.451H9.457A2.254,2.254,0,0,0,10-1.345a1.722,1.722,0,0,0,1.333.577A1.888,1.888,0,0,0,12.311-1a2.444,2.444,0,0,0,.7-.621l.662.516A2.662,2.662,0,0,1,11.279.117Zm-.135-5.684a1.446,1.446,0,0,0-1.1.478A2.321,2.321,0,0,0,9.492-3.75h3.176v-.082a2.065,2.065,0,0,0-.445-1.28A1.361,1.361,0,0,0,11.145-5.566Zm6.926.2a3.248,3.248,0,0,0-.533-.041A1.428,1.428,0,0,0,16.09-4.5V0H15.006V-6.34h1.055l.018.732a1.688,1.688,0,0,1,1.512-.85,1.107,1.107,0,0,1,.48.082Zm.592,2.139A3.745,3.745,0,0,1,19.028-4.9a2.732,2.732,0,0,1,1.02-1.148,2.775,2.775,0,0,1,1.491-.4,2.674,2.674,0,0,1,2.095.9,3.449,3.449,0,0,1,.8,2.385V-3.1a3.777,3.777,0,0,1-.354,1.661A2.692,2.692,0,0,1,23.065-.293a2.807,2.807,0,0,1-1.515.41,2.667,2.667,0,0,1-2.089-.9,3.432,3.432,0,0,1-.8-2.373Zm1.09.129a2.712,2.712,0,0,0,.489,1.693,1.566,1.566,0,0,0,1.31.639,1.556,1.556,0,0,0,1.313-.647,2.966,2.966,0,0,0,.486-1.813,2.708,2.708,0,0,0-.5-1.69,1.574,1.574,0,0,0-1.315-.647,1.557,1.557,0,0,0-1.295.639A2.944,2.944,0,0,0,19.752-3.1Zm9.732,1.418a.8.8,0,0,0-.331-.683A3.187,3.187,0,0,0,28-2.783a5.457,5.457,0,0,1-1.307-.422,1.859,1.859,0,0,1-.715-.586,1.4,1.4,0,0,1-.231-.809,1.645,1.645,0,0,1,.659-1.318,2.574,2.574,0,0,1,1.685-.539,2.649,2.649,0,0,1,1.749.557,1.768,1.768,0,0,1,.671,1.424H29.42a.979.979,0,0,0-.378-.768,1.416,1.416,0,0,0-.952-.322,1.482,1.482,0,0,0-.926.258.812.812,0,0,0-.334.674.658.658,0,0,0,.311.592,3.821,3.821,0,0,0,1.122.381,5.847,5.847,0,0,1,1.315.434,1.919,1.919,0,0,1,.747.606,1.491,1.491,0,0,1,.243.864A1.623,1.623,0,0,1,29.889-.4a2.851,2.851,0,0,1-1.764.513,3.193,3.193,0,0,1-1.348-.27,2.192,2.192,0,0,1-.917-.753,1.815,1.815,0,0,1-.331-1.046h1.084a1.122,1.122,0,0,0,.437.864,1.693,1.693,0,0,0,1.075.319,1.748,1.748,0,0,0,.987-.249A.765.765,0,0,0,29.484-1.682ZM37.336-3.1a3.8,3.8,0,0,1-.662,2.332,2.122,2.122,0,0,1-1.793.885,2.325,2.325,0,0,1-1.816-.732V2.438H31.98V-6.34h.99l.053.7a2.233,2.233,0,0,1,1.84-.82,2.162,2.162,0,0,1,1.808.861,3.838,3.838,0,0,1,.665,2.4Zm-1.084-.123a2.8,2.8,0,0,0-.457-1.693,1.472,1.472,0,0,0-1.254-.621,1.593,1.593,0,0,0-1.477.873v3.029a1.6,1.6,0,0,0,1.488.867,1.465,1.465,0,0,0,1.239-.618A3.058,3.058,0,0,0,36.252-3.223ZM42.627,0a2.277,2.277,0,0,1-.152-.668,2.419,2.419,0,0,1-1.8.785,2.238,2.238,0,0,1-1.538-.53,1.716,1.716,0,0,1-.6-1.345A1.792,1.792,0,0,1,39.284-3.3,3.55,3.55,0,0,1,41.4-3.844h1.055v-.5a1.217,1.217,0,0,0-.34-.905,1.366,1.366,0,0,0-1-.337,1.581,1.581,0,0,0-.973.293.863.863,0,0,0-.393.709H38.66A1.5,1.5,0,0,1,39-5.5a2.3,2.3,0,0,1,.914-.7,3.075,3.075,0,0,1,1.269-.258,2.506,2.506,0,0,1,1.717.548A1.976,1.976,0,0,1,43.541-4.4v2.918a3.567,3.567,0,0,0,.223,1.389V0Zm-1.8-.826a1.905,1.905,0,0,0,.967-.264,1.6,1.6,0,0,0,.662-.686v-1.3h-.85q-1.992,0-1.992,1.166a.987.987,0,0,0,.34.8A1.306,1.306,0,0,0,40.828-.826Zm6.955.059A1.561,1.561,0,0,0,48.8-1.119,1.237,1.237,0,0,0,49.277-2H50.3a1.966,1.966,0,0,1-.375,1.037A2.47,2.47,0,0,1,49-.176a2.663,2.663,0,0,1-1.222.293,2.612,2.612,0,0,1-2.06-.864,3.442,3.442,0,0,1-.765-2.364v-.182a3.817,3.817,0,0,1,.34-1.646,2.588,2.588,0,0,1,.976-1.119,2.771,2.771,0,0,1,1.5-.4,2.543,2.543,0,0,1,1.772.639A2.283,2.283,0,0,1,50.3-4.16H49.277a1.494,1.494,0,0,0-.466-1.011,1.449,1.449,0,0,0-1.034-.4,1.517,1.517,0,0,0-1.28.595,2.793,2.793,0,0,0-.454,1.72v.205a2.737,2.737,0,0,0,.451,1.688A1.524,1.524,0,0,0,47.783-.768Zm6.369.885a2.77,2.77,0,0,1-2.1-.847,3.142,3.142,0,0,1-.809-2.265v-.2a3.8,3.8,0,0,1,.36-1.685,2.811,2.811,0,0,1,1.008-1.16,2.534,2.534,0,0,1,1.4-.419,2.374,2.374,0,0,1,1.922.814,3.526,3.526,0,0,1,.686,2.332v.451H52.33a2.254,2.254,0,0,0,.548,1.515,1.722,1.722,0,0,0,1.333.577A1.888,1.888,0,0,0,55.184-1a2.444,2.444,0,0,0,.7-.621l.662.516A2.662,2.662,0,0,1,54.152.117Zm-.135-5.684a1.446,1.446,0,0,0-1.1.478,2.321,2.321,0,0,0-.551,1.339h3.176v-.082a2.065,2.065,0,0,0-.445-1.28A1.361,1.361,0,0,0,54.018-5.566ZM64.764,0a2.277,2.277,0,0,1-.152-.668,2.419,2.419,0,0,1-1.8.785,2.238,2.238,0,0,1-1.538-.53,1.716,1.716,0,0,1-.6-1.345A1.792,1.792,0,0,1,61.421-3.3a3.55,3.55,0,0,1,2.118-.548h1.055v-.5a1.217,1.217,0,0,0-.34-.905,1.366,1.366,0,0,0-1-.337,1.581,1.581,0,0,0-.973.293.863.863,0,0,0-.393.709H60.8a1.5,1.5,0,0,1,.337-.917,2.3,2.3,0,0,1,.914-.7,3.075,3.075,0,0,1,1.269-.258,2.506,2.506,0,0,1,1.717.548A1.976,1.976,0,0,1,65.678-4.4v2.918A3.567,3.567,0,0,0,65.9-.094V0Zm-1.8-.826a1.905,1.905,0,0,0,.967-.264,1.6,1.6,0,0,0,.662-.686v-1.3h-.85q-1.992,0-1.992,1.166a.987.987,0,0,0,.34.8A1.306,1.306,0,0,0,62.965-.826ZM68.4-6.34l.035.8a2.31,2.31,0,0,1,1.9-.914q2.01,0,2.027,2.268V0H71.279V-4.2a1.459,1.459,0,0,0-.313-1.014,1.256,1.256,0,0,0-.958-.328,1.564,1.564,0,0,0-.926.281,1.91,1.91,0,0,0-.621.738V0H67.377V-6.34Zm5.332,3.117a3.714,3.714,0,0,1,.691-2.347,2.186,2.186,0,0,1,1.811-.888A2.2,2.2,0,0,1,78-5.7V-9h1.084V0h-1l-.053-.68a2.208,2.208,0,0,1-1.811.8,2.165,2.165,0,0,1-1.8-.9,3.756,3.756,0,0,1-.694-2.355Zm1.084.123a2.812,2.812,0,0,0,.445,1.688,1.44,1.44,0,0,0,1.23.609A1.581,1.581,0,0,0,78-1.729V-4.641a1.593,1.593,0,0,0-1.494-.9,1.446,1.446,0,0,0-1.242.615A3.1,3.1,0,0,0,74.818-3.1ZM83.906,0V-8.531h2.408a3.877,3.877,0,0,1,1.969.492,3.329,3.329,0,0,1,1.321,1.4,4.558,4.558,0,0,1,.472,2.086v.545a4.574,4.574,0,0,1-.466,2.115A3.277,3.277,0,0,1,88.28-.5a4.124,4.124,0,0,1-2.013.5Zm1.125-7.611V-.92h1.184a2.575,2.575,0,0,0,2.024-.809,3.344,3.344,0,0,0,.724-2.3v-.5a3.4,3.4,0,0,0-.683-2.261,2.429,2.429,0,0,0-1.937-.818ZM94.236.117a2.77,2.77,0,0,1-2.1-.847,3.142,3.142,0,0,1-.809-2.265v-.2a3.8,3.8,0,0,1,.36-1.685A2.811,2.811,0,0,1,92.7-6.038a2.534,2.534,0,0,1,1.4-.419,2.374,2.374,0,0,1,1.922.814,3.526,3.526,0,0,1,.686,2.332v.451H92.414a2.254,2.254,0,0,0,.548,1.515,1.722,1.722,0,0,0,1.333.577A1.888,1.888,0,0,0,95.268-1a2.444,2.444,0,0,0,.7-.621l.662.516A2.662,2.662,0,0,1,94.236.117ZM94.1-5.566a1.446,1.446,0,0,0-1.1.478,2.321,2.321,0,0,0-.551,1.339h3.176v-.082a2.065,2.065,0,0,0-.445-1.28A1.361,1.361,0,0,0,94.1-5.566ZM98.5,0V-5.5h-1V-6.34h1v-.65a2.159,2.159,0,0,1,.545-1.576,2.058,2.058,0,0,1,1.541-.557,2.862,2.862,0,0,1,.744.1l-.059.874a3.113,3.113,0,0,0-.586-.053,1.058,1.058,0,0,0-.814.309,1.252,1.252,0,0,0-.287.885v.67h1.354V-5.5H99.58V0Zm6.123.117a2.77,2.77,0,0,1-2.1-.847,3.142,3.142,0,0,1-.809-2.265v-.2a3.8,3.8,0,0,1,.36-1.685,2.811,2.811,0,0,1,1.008-1.16,2.534,2.534,0,0,1,1.4-.419,2.374,2.374,0,0,1,1.922.814,3.526,3.526,0,0,1,.686,2.332v.451H102.8a2.254,2.254,0,0,0,.548,1.515,1.722,1.722,0,0,0,1.333.577A1.888,1.888,0,0,0,105.65-1a2.444,2.444,0,0,0,.7-.621l.662.516A2.662,2.662,0,0,1,104.619.117Zm-.135-5.684a1.446,1.446,0,0,0-1.1.478,2.321,2.321,0,0,0-.551,1.339h3.176v-.082a2.065,2.065,0,0,0-.445-1.28A1.361,1.361,0,0,0,104.484-5.566Zm4.887-.773.035.8a2.31,2.31,0,0,1,1.9-.914q2.01,0,2.027,2.268V0h-1.084V-4.2a1.459,1.459,0,0,0-.313-1.014,1.256,1.256,0,0,0-.958-.328,1.564,1.564,0,0,0-.926.281,1.91,1.91,0,0,0-.621.738V0h-1.084V-6.34ZM117.51-.768a1.561,1.561,0,0,0,1.014-.352A1.237,1.237,0,0,0,119-2h1.025a1.966,1.966,0,0,1-.375,1.037,2.47,2.47,0,0,1-.923.785,2.663,2.663,0,0,1-1.222.293,2.612,2.612,0,0,1-2.06-.864,3.442,3.442,0,0,1-.765-2.364v-.182a3.817,3.817,0,0,1,.34-1.646A2.588,2.588,0,0,1,116-6.059a2.771,2.771,0,0,1,1.5-.4,2.543,2.543,0,0,1,1.772.639,2.283,2.283,0,0,1,.753,1.658H119a1.494,1.494,0,0,0-.466-1.011,1.449,1.449,0,0,0-1.034-.4,1.517,1.517,0,0,0-1.28.595,2.793,2.793,0,0,0-.454,1.72v.205a2.737,2.737,0,0,0,.451,1.688A1.524,1.524,0,0,0,117.51-.768Zm6.369.885a2.77,2.77,0,0,1-2.1-.847,3.142,3.142,0,0,1-.809-2.265v-.2a3.8,3.8,0,0,1,.36-1.685,2.811,2.811,0,0,1,1.008-1.16,2.534,2.534,0,0,1,1.4-.419,2.374,2.374,0,0,1,1.922.814,3.526,3.526,0,0,1,.686,2.332v.451h-4.295a2.254,2.254,0,0,0,.548,1.515,1.722,1.722,0,0,0,1.333.577A1.888,1.888,0,0,0,124.91-1a2.444,2.444,0,0,0,.7-.621l.662.516A2.662,2.662,0,0,1,123.879.117Zm-.135-5.684a1.446,1.446,0,0,0-1.1.478,2.321,2.321,0,0,0-.551,1.339h3.176v-.082a2.065,2.065,0,0,0-.445-1.28A1.361,1.361,0,0,0,123.744-5.566Z" transform="translate(241 208)" fill="#0c2339"/>
      <g id="Mask_Group_1" data-name="Mask Group 1" clip-path="url(#clip-path)">
        <rect id="Rectangle_26" data-name="Rectangle 26" width="357" height="21" transform="translate(227 219)" fill="#f8fbff"/>
      </g>
      <path id="Path_885" data-name="Path 885" d="M5.7-3.768H2.115V0H.99V-8.531H6.275v.92H2.115v2.924H5.7ZM8.631,0H7.547V-6.34H8.631ZM7.459-8.021a.647.647,0,0,1,.161-.445A.6.6,0,0,1,8.1-8.648a.614.614,0,0,1,.48.182.64.64,0,0,1,.164.445.619.619,0,0,1-.164.439.626.626,0,0,1-.48.176.616.616,0,0,1-.478-.176A.626.626,0,0,1,7.459-8.021ZM11.391-6.34l.035.8a2.31,2.31,0,0,1,1.9-.914q2.01,0,2.027,2.268V0H14.268V-4.2a1.459,1.459,0,0,0-.313-1.014A1.256,1.256,0,0,0,13-5.537a1.564,1.564,0,0,0-.926.281,1.91,1.91,0,0,0-.621.738V0H10.365V-6.34ZM20.9,0a2.277,2.277,0,0,1-.152-.668,2.419,2.419,0,0,1-1.8.785,2.238,2.238,0,0,1-1.538-.53,1.716,1.716,0,0,1-.6-1.345A1.792,1.792,0,0,1,17.558-3.3a3.55,3.55,0,0,1,2.118-.548H20.73v-.5a1.217,1.217,0,0,0-.34-.905,1.366,1.366,0,0,0-1-.337,1.581,1.581,0,0,0-.973.293.863.863,0,0,0-.393.709h-1.09a1.5,1.5,0,0,1,.337-.917,2.3,2.3,0,0,1,.914-.7,3.075,3.075,0,0,1,1.269-.258,2.506,2.506,0,0,1,1.717.548A1.976,1.976,0,0,1,21.814-4.4v2.918a3.567,3.567,0,0,0,.223,1.389V0ZM19.1-.826a1.905,1.905,0,0,0,.967-.264,1.6,1.6,0,0,0,.662-.686v-1.3h-.85q-1.992,0-1.992,1.166a.987.987,0,0,0,.34.8A1.306,1.306,0,0,0,19.1-.826ZM24.539-6.34l.035.8a2.31,2.31,0,0,1,1.9-.914q2.01,0,2.027,2.268V0H27.416V-4.2A1.459,1.459,0,0,0,27.1-5.209a1.256,1.256,0,0,0-.958-.328,1.564,1.564,0,0,0-.926.281,1.91,1.91,0,0,0-.621.738V0H23.514V-6.34ZM32.678-.768a1.561,1.561,0,0,0,1.014-.352A1.237,1.237,0,0,0,34.172-2H35.2a1.966,1.966,0,0,1-.375,1.037,2.47,2.47,0,0,1-.923.785,2.663,2.663,0,0,1-1.222.293,2.612,2.612,0,0,1-2.06-.864,3.442,3.442,0,0,1-.765-2.364v-.182a3.817,3.817,0,0,1,.34-1.646,2.588,2.588,0,0,1,.976-1.119,2.771,2.771,0,0,1,1.5-.4,2.543,2.543,0,0,1,1.772.639A2.283,2.283,0,0,1,35.2-4.16H34.172a1.494,1.494,0,0,0-.466-1.011,1.449,1.449,0,0,0-1.034-.4,1.517,1.517,0,0,0-1.28.595,2.793,2.793,0,0,0-.454,1.72v.205a2.737,2.737,0,0,0,.451,1.688A1.524,1.524,0,0,0,32.678-.768ZM37.594,0H36.51V-6.34h1.084ZM36.422-8.021a.647.647,0,0,1,.161-.445.6.6,0,0,1,.478-.182.614.614,0,0,1,.48.182.64.64,0,0,1,.164.445.619.619,0,0,1-.164.439.626.626,0,0,1-.48.176.616.616,0,0,1-.478-.176A.626.626,0,0,1,36.422-8.021ZM43.242,0a2.277,2.277,0,0,1-.152-.668,2.419,2.419,0,0,1-1.8.785,2.238,2.238,0,0,1-1.538-.53,1.716,1.716,0,0,1-.6-1.345A1.792,1.792,0,0,1,39.9-3.3a3.55,3.55,0,0,1,2.118-.548h1.055v-.5a1.217,1.217,0,0,0-.34-.905,1.366,1.366,0,0,0-1-.337,1.581,1.581,0,0,0-.973.293.863.863,0,0,0-.393.709h-1.09a1.5,1.5,0,0,1,.337-.917,2.3,2.3,0,0,1,.914-.7,3.075,3.075,0,0,1,1.269-.258,2.506,2.506,0,0,1,1.717.548A1.976,1.976,0,0,1,44.156-4.4v2.918a3.567,3.567,0,0,0,.223,1.389V0Zm-1.8-.826a1.905,1.905,0,0,0,.967-.264,1.6,1.6,0,0,0,.662-.686v-1.3h-.85q-1.992,0-1.992,1.166a.987.987,0,0,0,.34.8A1.306,1.306,0,0,0,41.443-.826ZM47.033,0H45.949V-9h1.084Zm7.389-3.8a5.29,5.29,0,0,1-2.106-1.022,1.954,1.954,0,0,1-.659-1.5,2.064,2.064,0,0,1,.806-1.667,3.2,3.2,0,0,1,2.095-.659,3.5,3.5,0,0,1,1.567.34,2.577,2.577,0,0,1,1.066.938,2.4,2.4,0,0,1,.378,1.307H56.438a1.56,1.56,0,0,0-.492-1.22,2,2,0,0,0-1.389-.444,2.049,2.049,0,0,0-1.3.367,1.224,1.224,0,0,0-.466,1.018,1.1,1.1,0,0,0,.442.883,4.339,4.339,0,0,0,1.506.66,6.987,6.987,0,0,1,1.664.66A2.525,2.525,0,0,1,57.3-3.3a2.146,2.146,0,0,1,.29,1.131,1.993,1.993,0,0,1-.809,1.661,3.448,3.448,0,0,1-2.162.624A4.01,4.01,0,0,1,52.975-.22,2.761,2.761,0,0,1,51.8-1.143a2.252,2.252,0,0,1-.413-1.33h1.131a1.469,1.469,0,0,0,.571,1.222A2.4,2.4,0,0,0,54.615-.8a2.211,2.211,0,0,0,1.365-.363,1.18,1.18,0,0,0,.475-.99,1.158,1.158,0,0,0-.439-.97A5.066,5.066,0,0,0,54.422-3.8ZM61.488.117a2.77,2.77,0,0,1-2.1-.847,3.142,3.142,0,0,1-.809-2.265v-.2a3.8,3.8,0,0,1,.36-1.685,2.811,2.811,0,0,1,1.008-1.16,2.534,2.534,0,0,1,1.4-.419,2.374,2.374,0,0,1,1.922.814,3.526,3.526,0,0,1,.686,2.332v.451H59.666a2.254,2.254,0,0,0,.548,1.515,1.722,1.722,0,0,0,1.333.577A1.888,1.888,0,0,0,62.52-1a2.444,2.444,0,0,0,.7-.621l.662.516A2.662,2.662,0,0,1,61.488.117Zm-.135-5.684a1.446,1.446,0,0,0-1.1.478A2.321,2.321,0,0,0,59.7-3.75h3.176v-.082a2.065,2.065,0,0,0-.445-1.28A1.361,1.361,0,0,0,61.354-5.566Zm6.926.2a3.248,3.248,0,0,0-.533-.041A1.428,1.428,0,0,0,66.3-4.5V0H65.215V-6.34H66.27l.018.732a1.688,1.688,0,0,1,1.512-.85,1.107,1.107,0,0,1,.48.082Zm3.193,3.9,1.57-4.869H74.15L71.877,0h-.826l-2.3-6.34h1.107ZM76.371,0H75.287V-6.34h1.084ZM75.2-8.021a.647.647,0,0,1,.161-.445.6.6,0,0,1,.478-.182.614.614,0,0,1,.48.182.64.64,0,0,1,.164.445.619.619,0,0,1-.164.439.626.626,0,0,1-.48.176.616.616,0,0,1-.478-.176A.626.626,0,0,1,75.2-8.021ZM80.648-.768a1.561,1.561,0,0,0,1.014-.352A1.237,1.237,0,0,0,82.143-2h1.025a1.966,1.966,0,0,1-.375,1.037,2.47,2.47,0,0,1-.923.785,2.663,2.663,0,0,1-1.222.293,2.612,2.612,0,0,1-2.06-.864,3.442,3.442,0,0,1-.765-2.364v-.182a3.817,3.817,0,0,1,.34-1.646,2.588,2.588,0,0,1,.976-1.119,2.771,2.771,0,0,1,1.5-.4,2.543,2.543,0,0,1,1.772.639,2.283,2.283,0,0,1,.753,1.658H82.143a1.494,1.494,0,0,0-.466-1.011,1.449,1.449,0,0,0-1.034-.4,1.517,1.517,0,0,0-1.28.595,2.793,2.793,0,0,0-.454,1.72v.205a2.737,2.737,0,0,0,.451,1.688A1.524,1.524,0,0,0,80.648-.768Zm6.369.885a2.77,2.77,0,0,1-2.1-.847,3.142,3.142,0,0,1-.809-2.265v-.2a3.8,3.8,0,0,1,.36-1.685,2.811,2.811,0,0,1,1.008-1.16,2.534,2.534,0,0,1,1.4-.419,2.374,2.374,0,0,1,1.922.814,3.526,3.526,0,0,1,.686,2.332v.451H85.2a2.254,2.254,0,0,0,.548,1.515,1.722,1.722,0,0,0,1.333.577A1.888,1.888,0,0,0,88.049-1a2.444,2.444,0,0,0,.7-.621l.662.516A2.662,2.662,0,0,1,87.018.117Zm-.135-5.684a1.446,1.446,0,0,0-1.1.478A2.321,2.321,0,0,0,85.23-3.75h3.176v-.082a2.065,2.065,0,0,0-.445-1.28A1.361,1.361,0,0,0,86.883-5.566Zm7.553,3.885a.8.8,0,0,0-.331-.683,3.187,3.187,0,0,0-1.154-.419,5.457,5.457,0,0,1-1.307-.422,1.859,1.859,0,0,1-.715-.586A1.4,1.4,0,0,1,90.7-4.6a1.645,1.645,0,0,1,.659-1.318,2.574,2.574,0,0,1,1.685-.539A2.649,2.649,0,0,1,94.79-5.9a1.768,1.768,0,0,1,.671,1.424h-1.09a.979.979,0,0,0-.378-.768,1.416,1.416,0,0,0-.952-.322,1.482,1.482,0,0,0-.926.258.812.812,0,0,0-.334.674.658.658,0,0,0,.311.592,3.821,3.821,0,0,0,1.122.381,5.847,5.847,0,0,1,1.315.434,1.919,1.919,0,0,1,.747.606,1.491,1.491,0,0,1,.243.864A1.623,1.623,0,0,1,94.84-.4a2.851,2.851,0,0,1-1.764.513,3.193,3.193,0,0,1-1.348-.27,2.192,2.192,0,0,1-.917-.753,1.815,1.815,0,0,1-.331-1.046h1.084A1.122,1.122,0,0,0,92-1.087a1.693,1.693,0,0,0,1.075.319,1.748,1.748,0,0,0,.987-.249A.765.765,0,0,0,94.436-1.682ZM96.9-.568a.679.679,0,0,1,.167-.469.636.636,0,0,1,.5-.187.655.655,0,0,1,.507.188.665.665,0,0,1,.173.469.629.629,0,0,1-.173.451.667.667,0,0,1-.507.182.648.648,0,0,1-.5-.182A.641.641,0,0,1,96.9-.568ZM96.9-5.742a.679.679,0,0,1,.167-.469.636.636,0,0,1,.5-.187.655.655,0,0,1,.507.188.665.665,0,0,1,.173.469.629.629,0,0,1-.173.451.667.667,0,0,1-.507.182.648.648,0,0,1-.5-.182A.641.641,0,0,1,96.9-5.742Zm9.205,2.291h-2V0h-1.131V-8.531H105.8a3.343,3.343,0,0,1,2.218.656,2.361,2.361,0,0,1,.776,1.91,2.3,2.3,0,0,1-.431,1.389,2.571,2.571,0,0,1-1.2.885l2,3.621V0h-1.207Zm-2-.92h1.729a1.95,1.95,0,0,0,1.333-.434,1.469,1.469,0,0,0,.5-1.162,1.547,1.547,0,0,0-.472-1.215,2,2,0,0,0-1.362-.429H104.1ZM112.828.117a2.77,2.77,0,0,1-2.1-.847,3.142,3.142,0,0,1-.809-2.265v-.2a3.8,3.8,0,0,1,.36-1.685,2.811,2.811,0,0,1,1.008-1.16,2.534,2.534,0,0,1,1.4-.419,2.374,2.374,0,0,1,1.922.814,3.526,3.526,0,0,1,.686,2.332v.451h-4.295a2.254,2.254,0,0,0,.548,1.515,1.722,1.722,0,0,0,1.333.577A1.888,1.888,0,0,0,113.859-1a2.444,2.444,0,0,0,.7-.621l.662.516A2.662,2.662,0,0,1,112.828.117Zm-.135-5.684a1.446,1.446,0,0,0-1.1.478,2.321,2.321,0,0,0-.551,1.339h3.176v-.082a2.065,2.065,0,0,0-.445-1.28A1.361,1.361,0,0,0,112.693-5.566Zm5.332-2.309V-6.34h1.184V-5.5h-1.184v3.937a.88.88,0,0,0,.158.572.666.666,0,0,0,.539.191,2.624,2.624,0,0,0,.516-.07V0a3.161,3.161,0,0,1-.832.116,1.35,1.35,0,0,1-1.1-.439,1.888,1.888,0,0,1-.369-1.248V-5.5h-1.154V-6.34h1.154V-7.875ZM124.389,0a2.277,2.277,0,0,1-.152-.668,2.419,2.419,0,0,1-1.8.785,2.238,2.238,0,0,1-1.538-.53,1.716,1.716,0,0,1-.6-1.345,1.792,1.792,0,0,1,.753-1.538,3.55,3.55,0,0,1,2.118-.548h1.055v-.5a1.217,1.217,0,0,0-.34-.905,1.366,1.366,0,0,0-1-.337,1.581,1.581,0,0,0-.973.293.863.863,0,0,0-.393.709h-1.09a1.5,1.5,0,0,1,.337-.917,2.3,2.3,0,0,1,.914-.7,3.075,3.075,0,0,1,1.269-.258,2.506,2.506,0,0,1,1.717.548A1.976,1.976,0,0,1,125.3-4.4v2.918a3.567,3.567,0,0,0,.223,1.389V0Zm-1.8-.826a1.905,1.905,0,0,0,.967-.264,1.6,1.6,0,0,0,.662-.686v-1.3h-.85q-1.992,0-1.992,1.166a.987.987,0,0,0,.34.8A1.306,1.306,0,0,0,122.59-.826ZM128.18,0H127.1V-6.34h1.084Zm-1.172-8.021a.647.647,0,0,1,.161-.445.6.6,0,0,1,.478-.182.614.614,0,0,1,.48.182.64.64,0,0,1,.164.445.619.619,0,0,1-.164.439.626.626,0,0,1-.48.176.616.616,0,0,1-.478-.176A.626.626,0,0,1,127.008-8.021ZM131.092,0h-1.084V-9h1.084Zm8.619,0a2.277,2.277,0,0,1-.152-.668,2.419,2.419,0,0,1-1.8.785,2.238,2.238,0,0,1-1.538-.53,1.716,1.716,0,0,1-.6-1.345,1.792,1.792,0,0,1,.753-1.538,3.55,3.55,0,0,1,2.118-.548h1.055v-.5a1.217,1.217,0,0,0-.34-.905,1.366,1.366,0,0,0-1-.337,1.581,1.581,0,0,0-.973.293.863.863,0,0,0-.393.709h-1.09a1.5,1.5,0,0,1,.337-.917A2.3,2.3,0,0,1,137-6.2a3.075,3.075,0,0,1,1.269-.258,2.506,2.506,0,0,1,1.717.548,1.976,1.976,0,0,1,.645,1.509v2.918a3.567,3.567,0,0,0,.223,1.389V0Zm-1.8-.826a1.905,1.905,0,0,0,.967-.264,1.6,1.6,0,0,0,.662-.686v-1.3h-.85q-1.992,0-1.992,1.166a.987.987,0,0,0,.34.8A1.306,1.306,0,0,0,137.912-.826ZM143.35-6.34l.035.8a2.31,2.31,0,0,1,1.9-.914q2.01,0,2.027,2.268V0h-1.084V-4.2a1.459,1.459,0,0,0-.313-1.014,1.256,1.256,0,0,0-.958-.328,1.564,1.564,0,0,0-.926.281,1.91,1.91,0,0,0-.621.738V0h-1.084V-6.34Zm5.332,3.117a3.714,3.714,0,0,1,.691-2.347,2.186,2.186,0,0,1,1.811-.888,2.2,2.2,0,0,1,1.764.762V-9h1.084V0h-1l-.053-.68a2.208,2.208,0,0,1-1.811.8,2.165,2.165,0,0,1-1.8-.9,3.756,3.756,0,0,1-.694-2.355Zm1.084.123a2.812,2.812,0,0,0,.445,1.688,1.44,1.44,0,0,0,1.23.609,1.581,1.581,0,0,0,1.506-.926V-4.641a1.593,1.593,0,0,0-1.494-.9,1.446,1.446,0,0,0-1.242.615A3.1,3.1,0,0,0,149.766-3.1Zm15.363.393a3.139,3.139,0,0,1-1,2.089,3.274,3.274,0,0,1-2.235.735,3.006,3.006,0,0,1-2.423-1.084,4.361,4.361,0,0,1-.911-2.9v-.82a4.861,4.861,0,0,1,.425-2.092,3.173,3.173,0,0,1,1.2-1.386,3.353,3.353,0,0,1,1.8-.483,3.083,3.083,0,0,1,2.18.759,3.176,3.176,0,0,1,.955,2.1H164a2.451,2.451,0,0,0-.636-1.481,1.924,1.924,0,0,0-1.368-.458,2.013,2.013,0,0,0-1.69.8,3.661,3.661,0,0,0-.612,2.269v.827a3.764,3.764,0,0,0,.58,2.211,1.874,1.874,0,0,0,1.623.821,2.165,2.165,0,0,0,1.438-.425A2.357,2.357,0,0,0,164-2.707Zm1.078-.521a3.745,3.745,0,0,1,.366-1.676,2.732,2.732,0,0,1,1.02-1.148,2.775,2.775,0,0,1,1.491-.4,2.674,2.674,0,0,1,2.095.9,3.449,3.449,0,0,1,.8,2.385V-3.1a3.777,3.777,0,0,1-.354,1.661A2.692,2.692,0,0,1,170.61-.293a2.807,2.807,0,0,1-1.515.41,2.667,2.667,0,0,1-2.089-.9,3.432,3.432,0,0,1-.8-2.373Zm1.09.129a2.712,2.712,0,0,0,.489,1.693,1.566,1.566,0,0,0,1.31.639,1.556,1.556,0,0,0,1.313-.647,2.966,2.966,0,0,0,.486-1.813,2.708,2.708,0,0,0-.5-1.69,1.574,1.574,0,0,0-1.315-.647,1.557,1.557,0,0,0-1.295.639A2.944,2.944,0,0,0,167.3-3.1ZM176.4-5.367a3.248,3.248,0,0,0-.533-.041,1.428,1.428,0,0,0-1.447.908V0h-1.084V-6.34h1.055l.018.732a1.688,1.688,0,0,1,1.512-.85,1.107,1.107,0,0,1,.48.082ZM182.754-3.1a3.8,3.8,0,0,1-.662,2.332A2.122,2.122,0,0,1,180.3.117a2.325,2.325,0,0,1-1.816-.732V2.438H177.4V-6.34h.99l.053.7a2.233,2.233,0,0,1,1.84-.82,2.162,2.162,0,0,1,1.808.861,3.838,3.838,0,0,1,.665,2.4Zm-1.084-.123a2.8,2.8,0,0,0-.457-1.693,1.472,1.472,0,0,0-1.254-.621,1.593,1.593,0,0,0-1.477.873v3.029a1.6,1.6,0,0,0,1.488.867,1.465,1.465,0,0,0,1.239-.618A3.058,3.058,0,0,0,181.67-3.223Zm2.174-.006A3.745,3.745,0,0,1,184.21-4.9a2.732,2.732,0,0,1,1.02-1.148,2.775,2.775,0,0,1,1.491-.4,2.674,2.674,0,0,1,2.095.9,3.449,3.449,0,0,1,.8,2.385V-3.1a3.777,3.777,0,0,1-.354,1.661,2.692,2.692,0,0,1-1.014,1.146,2.807,2.807,0,0,1-1.515.41,2.667,2.667,0,0,1-2.089-.9,3.432,3.432,0,0,1-.8-2.373Zm1.09.129a2.712,2.712,0,0,0,.489,1.693,1.566,1.566,0,0,0,1.31.639,1.556,1.556,0,0,0,1.313-.647,2.966,2.966,0,0,0,.486-1.813,2.708,2.708,0,0,0-.5-1.69,1.574,1.574,0,0,0-1.315-.647,1.557,1.557,0,0,0-1.295.639A2.944,2.944,0,0,0,184.934-3.1Zm9.105-2.268a3.248,3.248,0,0,0-.533-.041,1.428,1.428,0,0,0-1.447.908V0h-1.084V-6.34h1.055l.018.732a1.688,1.688,0,0,1,1.512-.85,1.107,1.107,0,0,1,.48.082ZM198.715,0a2.277,2.277,0,0,1-.152-.668,2.419,2.419,0,0,1-1.8.785,2.238,2.238,0,0,1-1.538-.53,1.716,1.716,0,0,1-.6-1.345,1.792,1.792,0,0,1,.753-1.538,3.55,3.55,0,0,1,2.118-.548h1.055v-.5a1.217,1.217,0,0,0-.34-.905,1.366,1.366,0,0,0-1-.337,1.581,1.581,0,0,0-.973.293.863.863,0,0,0-.393.709h-1.09a1.5,1.5,0,0,1,.337-.917A2.3,2.3,0,0,1,196-6.2a3.075,3.075,0,0,1,1.269-.258,2.506,2.506,0,0,1,1.717.548,1.976,1.976,0,0,1,.645,1.509v2.918a3.567,3.567,0,0,0,.223,1.389V0Zm-1.8-.826a1.905,1.905,0,0,0,.967-.264,1.6,1.6,0,0,0,.662-.686v-1.3h-.85q-1.992,0-1.992,1.166a.987.987,0,0,0,.34.8A1.306,1.306,0,0,0,196.916-.826ZM202.8-7.875V-6.34h1.184V-5.5H202.8v3.937a.88.88,0,0,0,.158.572A.666.666,0,0,0,203.5-.8a2.624,2.624,0,0,0,.516-.07V0a3.161,3.161,0,0,1-.832.116,1.35,1.35,0,0,1-1.1-.439,1.888,1.888,0,0,1-.369-1.248V-5.5h-1.154V-6.34h1.154V-7.875Zm5.08,7.992a2.77,2.77,0,0,1-2.1-.847,3.142,3.142,0,0,1-.809-2.265v-.2a3.8,3.8,0,0,1,.36-1.685,2.811,2.811,0,0,1,1.008-1.16,2.534,2.534,0,0,1,1.4-.419,2.374,2.374,0,0,1,1.922.814,3.526,3.526,0,0,1,.686,2.332v.451h-4.295a2.254,2.254,0,0,0,.548,1.515,1.722,1.722,0,0,0,1.333.577A1.888,1.888,0,0,0,208.91-1a2.444,2.444,0,0,0,.7-.621l.662.516A2.662,2.662,0,0,1,207.879.117Zm-.135-5.684a1.446,1.446,0,0,0-1.1.478,2.321,2.321,0,0,0-.551,1.339h3.176v-.082a2.065,2.065,0,0,0-.445-1.28A1.361,1.361,0,0,0,207.744-5.566Zm7,5.566V-8.531h2.789a3.238,3.238,0,0,1,2.089.574,2.07,2.07,0,0,1,.7,1.7,1.733,1.733,0,0,1-.34,1.058,2.2,2.2,0,0,1-.926.712,1.979,1.979,0,0,1,1.093.735,2.11,2.11,0,0,1,.4,1.292,2.282,2.282,0,0,1-.744,1.8,3.077,3.077,0,0,1-2.1.656Zm1.125-3.99V-.92h1.857a1.788,1.788,0,0,0,1.239-.407,1.43,1.43,0,0,0,.454-1.122q0-1.541-1.676-1.541Zm0-.9h1.7a1.781,1.781,0,0,0,1.181-.37,1.24,1.24,0,0,0,.442-1,1.22,1.22,0,0,0-.41-1.025,2.014,2.014,0,0,0-1.248-.32h-1.664ZM225.961,0a2.277,2.277,0,0,1-.152-.668,2.419,2.419,0,0,1-1.8.785,2.238,2.238,0,0,1-1.538-.53,1.716,1.716,0,0,1-.6-1.345,1.792,1.792,0,0,1,.753-1.538,3.55,3.55,0,0,1,2.118-.548h1.055v-.5a1.217,1.217,0,0,0-.34-.905,1.366,1.366,0,0,0-1-.337,1.581,1.581,0,0,0-.973.293.863.863,0,0,0-.393.709h-1.09a1.5,1.5,0,0,1,.337-.917,2.3,2.3,0,0,1,.914-.7,3.075,3.075,0,0,1,1.269-.258,2.506,2.506,0,0,1,1.717.548,1.976,1.976,0,0,1,.645,1.509v2.918A3.567,3.567,0,0,0,227.1-.094V0Zm-1.8-.826a1.905,1.905,0,0,0,.967-.264,1.6,1.6,0,0,0,.662-.686v-1.3h-.85q-1.992,0-1.992,1.166a.987.987,0,0,0,.34.8A1.306,1.306,0,0,0,224.162-.826ZM229.6-6.34l.035.8a2.31,2.31,0,0,1,1.9-.914q2.01,0,2.027,2.268V0h-1.084V-4.2a1.459,1.459,0,0,0-.313-1.014,1.256,1.256,0,0,0-.958-.328,1.564,1.564,0,0,0-.926.281,1.91,1.91,0,0,0-.621.738V0h-1.084V-6.34Zm7.365,3.4-.68.709V0H235.2V-9h1.084v5.443l.58-.7L238.84-6.34h1.318l-2.467,2.648L240.445,0h-1.271ZM242.455,0h-1.084V-6.34h1.084Zm-1.172-8.021a.647.647,0,0,1,.161-.445.6.6,0,0,1,.478-.182.614.614,0,0,1,.48.182.64.64,0,0,1,.164.445.619.619,0,0,1-.164.439.626.626,0,0,1-.48.176.616.616,0,0,1-.478-.176A.626.626,0,0,1,241.283-8.021Zm3.932,1.682.035.8a2.31,2.31,0,0,1,1.9-.914q2.01,0,2.027,2.268V0h-1.084V-4.2a1.459,1.459,0,0,0-.313-1.014,1.256,1.256,0,0,0-.958-.328,1.564,1.564,0,0,0-.926.281,1.91,1.91,0,0,0-.621.738V0h-1.084V-6.34Zm5.338,3.117a3.726,3.726,0,0,1,.686-2.358,2.192,2.192,0,0,1,1.816-.876,2.181,2.181,0,0,1,1.811.82l.053-.7h.99V-.152a2.579,2.579,0,0,1-.729,1.939,2.692,2.692,0,0,1-1.96.709,3.261,3.261,0,0,1-1.342-.293,2.31,2.31,0,0,1-1-.8l.563-.65a2.12,2.12,0,0,0,1.705.861,1.661,1.661,0,0,0,1.233-.445,1.7,1.7,0,0,0,.442-1.254V-.633a2.228,2.228,0,0,1-1.775.75,2.166,2.166,0,0,1-1.8-.9A3.918,3.918,0,0,1,250.553-3.223Zm1.09.123a2.843,2.843,0,0,0,.439,1.685,1.428,1.428,0,0,0,1.23.612,1.588,1.588,0,0,0,1.506-.932V-4.629a1.606,1.606,0,0,0-1.494-.908,1.441,1.441,0,0,0-1.236.615A3.1,3.1,0,0,0,251.643-3.1Z" transform="translate(241 256)" fill="#0c2339"/>
      <path id="Path_886" data-name="Path 886" d="M5.7-3.768H2.115V0H.99V-8.531H6.275v.92H2.115v2.924H5.7ZM8.631,0H7.547V-6.34H8.631ZM7.459-8.021a.647.647,0,0,1,.161-.445A.6.6,0,0,1,8.1-8.648a.614.614,0,0,1,.48.182.64.64,0,0,1,.164.445.619.619,0,0,1-.164.439.626.626,0,0,1-.48.176.616.616,0,0,1-.478-.176A.626.626,0,0,1,7.459-8.021ZM11.391-6.34l.035.8a2.31,2.31,0,0,1,1.9-.914q2.01,0,2.027,2.268V0H14.268V-4.2a1.459,1.459,0,0,0-.313-1.014A1.256,1.256,0,0,0,13-5.537a1.564,1.564,0,0,0-.926.281,1.91,1.91,0,0,0-.621.738V0H10.365V-6.34ZM20.9,0a2.277,2.277,0,0,1-.152-.668,2.419,2.419,0,0,1-1.8.785,2.238,2.238,0,0,1-1.538-.53,1.716,1.716,0,0,1-.6-1.345A1.792,1.792,0,0,1,17.558-3.3a3.55,3.55,0,0,1,2.118-.548H20.73v-.5a1.217,1.217,0,0,0-.34-.905,1.366,1.366,0,0,0-1-.337,1.581,1.581,0,0,0-.973.293.863.863,0,0,0-.393.709h-1.09a1.5,1.5,0,0,1,.337-.917,2.3,2.3,0,0,1,.914-.7,3.075,3.075,0,0,1,1.269-.258,2.506,2.506,0,0,1,1.717.548A1.976,1.976,0,0,1,21.814-4.4v2.918a3.567,3.567,0,0,0,.223,1.389V0ZM19.1-.826a1.905,1.905,0,0,0,.967-.264,1.6,1.6,0,0,0,.662-.686v-1.3h-.85q-1.992,0-1.992,1.166a.987.987,0,0,0,.34.8A1.306,1.306,0,0,0,19.1-.826ZM24.539-6.34l.035.8a2.31,2.31,0,0,1,1.9-.914q2.01,0,2.027,2.268V0H27.416V-4.2A1.459,1.459,0,0,0,27.1-5.209a1.256,1.256,0,0,0-.958-.328,1.564,1.564,0,0,0-.926.281,1.91,1.91,0,0,0-.621.738V0H23.514V-6.34ZM32.678-.768a1.561,1.561,0,0,0,1.014-.352A1.237,1.237,0,0,0,34.172-2H35.2a1.966,1.966,0,0,1-.375,1.037,2.47,2.47,0,0,1-.923.785,2.663,2.663,0,0,1-1.222.293,2.612,2.612,0,0,1-2.06-.864,3.442,3.442,0,0,1-.765-2.364v-.182a3.817,3.817,0,0,1,.34-1.646,2.588,2.588,0,0,1,.976-1.119,2.771,2.771,0,0,1,1.5-.4,2.543,2.543,0,0,1,1.772.639A2.283,2.283,0,0,1,35.2-4.16H34.172a1.494,1.494,0,0,0-.466-1.011,1.449,1.449,0,0,0-1.034-.4,1.517,1.517,0,0,0-1.28.595,2.793,2.793,0,0,0-.454,1.72v.205a2.737,2.737,0,0,0,.451,1.688A1.524,1.524,0,0,0,32.678-.768ZM37.594,0H36.51V-6.34h1.084ZM36.422-8.021a.647.647,0,0,1,.161-.445.6.6,0,0,1,.478-.182.614.614,0,0,1,.48.182.64.64,0,0,1,.164.445.619.619,0,0,1-.164.439.626.626,0,0,1-.48.176.616.616,0,0,1-.478-.176A.626.626,0,0,1,36.422-8.021ZM43.242,0a2.277,2.277,0,0,1-.152-.668,2.419,2.419,0,0,1-1.8.785,2.238,2.238,0,0,1-1.538-.53,1.716,1.716,0,0,1-.6-1.345A1.792,1.792,0,0,1,39.9-3.3a3.55,3.55,0,0,1,2.118-.548h1.055v-.5a1.217,1.217,0,0,0-.34-.905,1.366,1.366,0,0,0-1-.337,1.581,1.581,0,0,0-.973.293.863.863,0,0,0-.393.709h-1.09a1.5,1.5,0,0,1,.337-.917,2.3,2.3,0,0,1,.914-.7,3.075,3.075,0,0,1,1.269-.258,2.506,2.506,0,0,1,1.717.548A1.976,1.976,0,0,1,44.156-4.4v2.918a3.567,3.567,0,0,0,.223,1.389V0Zm-1.8-.826a1.905,1.905,0,0,0,.967-.264,1.6,1.6,0,0,0,.662-.686v-1.3h-.85q-1.992,0-1.992,1.166a.987.987,0,0,0,.34.8A1.306,1.306,0,0,0,41.443-.826ZM47.033,0H45.949V-9h1.084Zm7.389-3.8a5.29,5.29,0,0,1-2.106-1.022,1.954,1.954,0,0,1-.659-1.5,2.064,2.064,0,0,1,.806-1.667,3.2,3.2,0,0,1,2.095-.659,3.5,3.5,0,0,1,1.567.34,2.577,2.577,0,0,1,1.066.938,2.4,2.4,0,0,1,.378,1.307H56.438a1.56,1.56,0,0,0-.492-1.22,2,2,0,0,0-1.389-.444,2.049,2.049,0,0,0-1.3.367,1.224,1.224,0,0,0-.466,1.018,1.1,1.1,0,0,0,.442.883,4.339,4.339,0,0,0,1.506.66,6.987,6.987,0,0,1,1.664.66A2.525,2.525,0,0,1,57.3-3.3a2.146,2.146,0,0,1,.29,1.131,1.993,1.993,0,0,1-.809,1.661,3.448,3.448,0,0,1-2.162.624A4.01,4.01,0,0,1,52.975-.22,2.761,2.761,0,0,1,51.8-1.143a2.252,2.252,0,0,1-.413-1.33h1.131a1.469,1.469,0,0,0,.571,1.222A2.4,2.4,0,0,0,54.615-.8a2.211,2.211,0,0,0,1.365-.363,1.18,1.18,0,0,0,.475-.99,1.158,1.158,0,0,0-.439-.97A5.066,5.066,0,0,0,54.422-3.8ZM61.488.117a2.77,2.77,0,0,1-2.1-.847,3.142,3.142,0,0,1-.809-2.265v-.2a3.8,3.8,0,0,1,.36-1.685,2.811,2.811,0,0,1,1.008-1.16,2.534,2.534,0,0,1,1.4-.419,2.374,2.374,0,0,1,1.922.814,3.526,3.526,0,0,1,.686,2.332v.451H59.666a2.254,2.254,0,0,0,.548,1.515,1.722,1.722,0,0,0,1.333.577A1.888,1.888,0,0,0,62.52-1a2.444,2.444,0,0,0,.7-.621l.662.516A2.662,2.662,0,0,1,61.488.117Zm-.135-5.684a1.446,1.446,0,0,0-1.1.478A2.321,2.321,0,0,0,59.7-3.75h3.176v-.082a2.065,2.065,0,0,0-.445-1.28A1.361,1.361,0,0,0,61.354-5.566Zm6.926.2a3.248,3.248,0,0,0-.533-.041A1.428,1.428,0,0,0,66.3-4.5V0H65.215V-6.34H66.27l.018.732a1.688,1.688,0,0,1,1.512-.85,1.107,1.107,0,0,1,.48.082Zm3.193,3.9,1.57-4.869H74.15L71.877,0h-.826l-2.3-6.34h1.107ZM76.371,0H75.287V-6.34h1.084ZM75.2-8.021a.647.647,0,0,1,.161-.445.6.6,0,0,1,.478-.182.614.614,0,0,1,.48.182.64.64,0,0,1,.164.445.619.619,0,0,1-.164.439.626.626,0,0,1-.48.176.616.616,0,0,1-.478-.176A.626.626,0,0,1,75.2-8.021ZM80.648-.768a1.561,1.561,0,0,0,1.014-.352A1.237,1.237,0,0,0,82.143-2h1.025a1.966,1.966,0,0,1-.375,1.037,2.47,2.47,0,0,1-.923.785,2.663,2.663,0,0,1-1.222.293,2.612,2.612,0,0,1-2.06-.864,3.442,3.442,0,0,1-.765-2.364v-.182a3.817,3.817,0,0,1,.34-1.646,2.588,2.588,0,0,1,.976-1.119,2.771,2.771,0,0,1,1.5-.4,2.543,2.543,0,0,1,1.772.639,2.283,2.283,0,0,1,.753,1.658H82.143a1.494,1.494,0,0,0-.466-1.011,1.449,1.449,0,0,0-1.034-.4,1.517,1.517,0,0,0-1.28.595,2.793,2.793,0,0,0-.454,1.72v.205a2.737,2.737,0,0,0,.451,1.688A1.524,1.524,0,0,0,80.648-.768Zm6.369.885a2.77,2.77,0,0,1-2.1-.847,3.142,3.142,0,0,1-.809-2.265v-.2a3.8,3.8,0,0,1,.36-1.685,2.811,2.811,0,0,1,1.008-1.16,2.534,2.534,0,0,1,1.4-.419,2.374,2.374,0,0,1,1.922.814,3.526,3.526,0,0,1,.686,2.332v.451H85.2a2.254,2.254,0,0,0,.548,1.515,1.722,1.722,0,0,0,1.333.577A1.888,1.888,0,0,0,88.049-1a2.444,2.444,0,0,0,.7-.621l.662.516A2.662,2.662,0,0,1,87.018.117Zm-.135-5.684a1.446,1.446,0,0,0-1.1.478A2.321,2.321,0,0,0,85.23-3.75h3.176v-.082a2.065,2.065,0,0,0-.445-1.28A1.361,1.361,0,0,0,86.883-5.566Zm7.553,3.885a.8.8,0,0,0-.331-.683,3.187,3.187,0,0,0-1.154-.419,5.457,5.457,0,0,1-1.307-.422,1.859,1.859,0,0,1-.715-.586A1.4,1.4,0,0,1,90.7-4.6a1.645,1.645,0,0,1,.659-1.318,2.574,2.574,0,0,1,1.685-.539A2.649,2.649,0,0,1,94.79-5.9a1.768,1.768,0,0,1,.671,1.424h-1.09a.979.979,0,0,0-.378-.768,1.416,1.416,0,0,0-.952-.322,1.482,1.482,0,0,0-.926.258.812.812,0,0,0-.334.674.658.658,0,0,0,.311.592,3.821,3.821,0,0,0,1.122.381,5.847,5.847,0,0,1,1.315.434,1.919,1.919,0,0,1,.747.606,1.491,1.491,0,0,1,.243.864A1.623,1.623,0,0,1,94.84-.4a2.851,2.851,0,0,1-1.764.513,3.193,3.193,0,0,1-1.348-.27,2.192,2.192,0,0,1-.917-.753,1.815,1.815,0,0,1-.331-1.046h1.084A1.122,1.122,0,0,0,92-1.087a1.693,1.693,0,0,0,1.075.319,1.748,1.748,0,0,0,.987-.249A.765.765,0,0,0,94.436-1.682ZM96.9-.568a.679.679,0,0,1,.167-.469.636.636,0,0,1,.5-.187.655.655,0,0,1,.507.188.665.665,0,0,1,.173.469.629.629,0,0,1-.173.451.667.667,0,0,1-.507.182.648.648,0,0,1-.5-.182A.641.641,0,0,1,96.9-.568ZM96.9-5.742a.679.679,0,0,1,.167-.469.636.636,0,0,1,.5-.187.655.655,0,0,1,.507.188.665.665,0,0,1,.173.469.629.629,0,0,1-.173.451.667.667,0,0,1-.507.182.648.648,0,0,1-.5-.182A.641.641,0,0,1,96.9-5.742ZM104.186,0h-1.125V-8.531h1.125ZM107.1-6.34l.035.8a2.31,2.31,0,0,1,1.9-.914q2.01,0,2.027,2.268V0h-1.084V-4.2a1.459,1.459,0,0,0-.313-1.014,1.256,1.256,0,0,0-.958-.328,1.564,1.564,0,0,0-.926.281,1.91,1.91,0,0,0-.621.738V0h-1.084V-6.34Zm7.688,4.869,1.57-4.869h1.107L115.189,0h-.826l-2.3-6.34h1.107ZM121.061.117a2.77,2.77,0,0,1-2.1-.847,3.142,3.142,0,0,1-.809-2.265v-.2a3.8,3.8,0,0,1,.36-1.685,2.811,2.811,0,0,1,1.008-1.16,2.534,2.534,0,0,1,1.4-.419,2.374,2.374,0,0,1,1.922.814,3.526,3.526,0,0,1,.686,2.332v.451h-4.295a2.254,2.254,0,0,0,.548,1.515,1.722,1.722,0,0,0,1.333.577A1.888,1.888,0,0,0,122.092-1a2.444,2.444,0,0,0,.7-.621l.662.516A2.662,2.662,0,0,1,121.061.117Zm-.135-5.684a1.446,1.446,0,0,0-1.1.478,2.321,2.321,0,0,0-.551,1.339h3.176v-.082A2.065,2.065,0,0,0,122-5.112,1.361,1.361,0,0,0,120.926-5.566Zm7.553,3.885a.8.8,0,0,0-.331-.683,3.187,3.187,0,0,0-1.154-.419,5.457,5.457,0,0,1-1.307-.422,1.859,1.859,0,0,1-.715-.586,1.4,1.4,0,0,1-.231-.809,1.645,1.645,0,0,1,.659-1.318,2.574,2.574,0,0,1,1.685-.539,2.649,2.649,0,0,1,1.749.557,1.768,1.768,0,0,1,.671,1.424h-1.09a.979.979,0,0,0-.378-.768,1.416,1.416,0,0,0-.952-.322,1.482,1.482,0,0,0-.926.258.812.812,0,0,0-.334.674.658.658,0,0,0,.311.592,3.821,3.821,0,0,0,1.122.381,5.847,5.847,0,0,1,1.315.434,1.919,1.919,0,0,1,.747.606,1.491,1.491,0,0,1,.243.864,1.623,1.623,0,0,1-.68,1.362,2.851,2.851,0,0,1-1.764.513,3.193,3.193,0,0,1-1.348-.27,2.192,2.192,0,0,1-.917-.753,1.815,1.815,0,0,1-.331-1.046h1.084a1.122,1.122,0,0,0,.437.864,1.693,1.693,0,0,0,1.075.319,1.748,1.748,0,0,0,.987-.249A.765.765,0,0,0,128.479-1.682Zm3.967-6.193V-6.34h1.184V-5.5h-1.184v3.937a.88.88,0,0,0,.158.572.666.666,0,0,0,.539.191,2.624,2.624,0,0,0,.516-.07V0a3.161,3.161,0,0,1-.832.116,1.35,1.35,0,0,1-1.1-.439,1.888,1.888,0,0,1-.369-1.248V-5.5h-1.154V-6.34h1.154V-7.875Zm3.469,1.535.029.7a2.341,2.341,0,0,1,1.881-.82,1.813,1.813,0,0,1,1.811,1.02,2.4,2.4,0,0,1,.823-.738,2.431,2.431,0,0,1,1.2-.281q2.086,0,2.121,2.209V0h-1.084V-4.184a1.456,1.456,0,0,0-.311-1.017,1.368,1.368,0,0,0-1.043-.337,1.437,1.437,0,0,0-1,.36,1.462,1.462,0,0,0-.463.97V0h-1.09V-4.154a1.209,1.209,0,0,0-1.354-1.383,1.45,1.45,0,0,0-1.459.908V0h-1.084V-6.34ZM148.043.117a2.77,2.77,0,0,1-2.1-.847,3.142,3.142,0,0,1-.809-2.265v-.2a3.8,3.8,0,0,1,.36-1.685,2.811,2.811,0,0,1,1.008-1.16,2.534,2.534,0,0,1,1.4-.419,2.374,2.374,0,0,1,1.922.814,3.526,3.526,0,0,1,.686,2.332v.451h-4.295a2.254,2.254,0,0,0,.548,1.515,1.722,1.722,0,0,0,1.333.577A1.888,1.888,0,0,0,149.074-1a2.444,2.444,0,0,0,.7-.621l.662.516A2.662,2.662,0,0,1,148.043.117Zm-.135-5.684a1.446,1.446,0,0,0-1.1.478,2.321,2.321,0,0,0-.551,1.339h3.176v-.082a2.065,2.065,0,0,0-.445-1.28A1.361,1.361,0,0,0,147.908-5.566Zm4.887-.773.035.8a2.31,2.31,0,0,1,1.9-.914q2.01,0,2.027,2.268V0h-1.084V-4.2a1.459,1.459,0,0,0-.313-1.014,1.256,1.256,0,0,0-.958-.328,1.564,1.564,0,0,0-.926.281,1.91,1.91,0,0,0-.621.738V0H151.77V-6.34Zm7.066-1.535V-6.34h1.184V-5.5h-1.184v3.937a.88.88,0,0,0,.158.572.666.666,0,0,0,.539.191,2.624,2.624,0,0,0,.516-.07V0a3.161,3.161,0,0,1-.832.116,1.35,1.35,0,0,1-1.1-.439,1.888,1.888,0,0,1-.369-1.248V-5.5h-1.154V-6.34h1.154V-7.875ZM165.451,0V-8.531h2.789a3.238,3.238,0,0,1,2.089.574,2.07,2.07,0,0,1,.7,1.7,1.733,1.733,0,0,1-.34,1.058,2.2,2.2,0,0,1-.926.712,1.979,1.979,0,0,1,1.093.735,2.11,2.11,0,0,1,.4,1.292,2.282,2.282,0,0,1-.744,1.8,3.077,3.077,0,0,1-2.1.656Zm1.125-3.99V-.92h1.857a1.788,1.788,0,0,0,1.239-.407,1.43,1.43,0,0,0,.454-1.122q0-1.541-1.676-1.541Zm0-.9h1.7a1.781,1.781,0,0,0,1.181-.37,1.24,1.24,0,0,0,.442-1,1.22,1.22,0,0,0-.41-1.025,2.014,2.014,0,0,0-1.248-.32h-1.664ZM176.666,0a2.277,2.277,0,0,1-.152-.668,2.419,2.419,0,0,1-1.8.785,2.238,2.238,0,0,1-1.538-.53,1.716,1.716,0,0,1-.6-1.345,1.792,1.792,0,0,1,.753-1.538,3.55,3.55,0,0,1,2.118-.548H176.5v-.5a1.217,1.217,0,0,0-.34-.905,1.366,1.366,0,0,0-1-.337,1.581,1.581,0,0,0-.973.293.863.863,0,0,0-.393.709H172.7a1.5,1.5,0,0,1,.337-.917,2.3,2.3,0,0,1,.914-.7,3.075,3.075,0,0,1,1.269-.258,2.506,2.506,0,0,1,1.717.548A1.976,1.976,0,0,1,177.58-4.4v2.918A3.567,3.567,0,0,0,177.8-.094V0Zm-1.8-.826a1.905,1.905,0,0,0,.967-.264,1.6,1.6,0,0,0,.662-.686v-1.3h-.85q-1.992,0-1.992,1.166a.987.987,0,0,0,.34.8A1.306,1.306,0,0,0,174.867-.826ZM180.3-6.34l.035.8a2.31,2.31,0,0,1,1.9-.914q2.01,0,2.027,2.268V0h-1.084V-4.2a1.459,1.459,0,0,0-.313-1.014,1.256,1.256,0,0,0-.958-.328,1.564,1.564,0,0,0-.926.281,1.91,1.91,0,0,0-.621.738V0h-1.084V-6.34Zm7.365,3.4-.68.709V0h-1.084V-9h1.084v5.443l.58-.7,1.975-2.086h1.318L188.4-3.691,191.15,0h-1.271ZM193.16,0h-1.084V-6.34h1.084Zm-1.172-8.021a.647.647,0,0,1,.161-.445.6.6,0,0,1,.478-.182.614.614,0,0,1,.48.182.64.64,0,0,1,.164.445.619.619,0,0,1-.164.439.626.626,0,0,1-.48.176.616.616,0,0,1-.478-.176A.626.626,0,0,1,191.988-8.021ZM195.92-6.34l.035.8a2.31,2.31,0,0,1,1.9-.914q2.01,0,2.027,2.268V0H198.8V-4.2a1.459,1.459,0,0,0-.313-1.014,1.256,1.256,0,0,0-.958-.328,1.564,1.564,0,0,0-.926.281,1.91,1.91,0,0,0-.621.738V0h-1.084V-6.34Zm5.338,3.117a3.726,3.726,0,0,1,.686-2.358,2.192,2.192,0,0,1,1.816-.876,2.181,2.181,0,0,1,1.811.82l.053-.7h.99V-.152a2.579,2.579,0,0,1-.729,1.939,2.692,2.692,0,0,1-1.96.709,3.261,3.261,0,0,1-1.342-.293,2.31,2.31,0,0,1-1-.8l.563-.65a2.12,2.12,0,0,0,1.705.861,1.661,1.661,0,0,0,1.233-.445,1.7,1.7,0,0,0,.442-1.254V-.633a2.228,2.228,0,0,1-1.775.75,2.166,2.166,0,0,1-1.8-.9A3.918,3.918,0,0,1,201.258-3.223Zm1.09.123a2.843,2.843,0,0,0,.439,1.685,1.428,1.428,0,0,0,1.23.612,1.588,1.588,0,0,0,1.506-.932V-4.629a1.606,1.606,0,0,0-1.494-.908,1.441,1.441,0,0,0-1.236.615A3.1,3.1,0,0,0,202.348-3.1Z" transform="translate(241 232)" fill="#0c2339"/>
      <path id="Path_887" data-name="Path 887" d="M5.7-3.768H2.115V0H.99V-8.531H6.275v.92H2.115v2.924H5.7ZM8.631,0H7.547V-6.34H8.631ZM7.459-8.021a.647.647,0,0,1,.161-.445A.6.6,0,0,1,8.1-8.648a.614.614,0,0,1,.48.182.64.64,0,0,1,.164.445.619.619,0,0,1-.164.439.626.626,0,0,1-.48.176.616.616,0,0,1-.478-.176A.626.626,0,0,1,7.459-8.021ZM11.391-6.34l.035.8a2.31,2.31,0,0,1,1.9-.914q2.01,0,2.027,2.268V0H14.268V-4.2a1.459,1.459,0,0,0-.313-1.014A1.256,1.256,0,0,0,13-5.537a1.564,1.564,0,0,0-.926.281,1.91,1.91,0,0,0-.621.738V0H10.365V-6.34ZM20.9,0a2.277,2.277,0,0,1-.152-.668,2.419,2.419,0,0,1-1.8.785,2.238,2.238,0,0,1-1.538-.53,1.716,1.716,0,0,1-.6-1.345A1.792,1.792,0,0,1,17.558-3.3a3.55,3.55,0,0,1,2.118-.548H20.73v-.5a1.217,1.217,0,0,0-.34-.905,1.366,1.366,0,0,0-1-.337,1.581,1.581,0,0,0-.973.293.863.863,0,0,0-.393.709h-1.09a1.5,1.5,0,0,1,.337-.917,2.3,2.3,0,0,1,.914-.7,3.075,3.075,0,0,1,1.269-.258,2.506,2.506,0,0,1,1.717.548A1.976,1.976,0,0,1,21.814-4.4v2.918a3.567,3.567,0,0,0,.223,1.389V0ZM19.1-.826a1.905,1.905,0,0,0,.967-.264,1.6,1.6,0,0,0,.662-.686v-1.3h-.85q-1.992,0-1.992,1.166a.987.987,0,0,0,.34.8A1.306,1.306,0,0,0,19.1-.826ZM24.539-6.34l.035.8a2.31,2.31,0,0,1,1.9-.914q2.01,0,2.027,2.268V0H27.416V-4.2A1.459,1.459,0,0,0,27.1-5.209a1.256,1.256,0,0,0-.958-.328,1.564,1.564,0,0,0-.926.281,1.91,1.91,0,0,0-.621.738V0H23.514V-6.34ZM32.678-.768a1.561,1.561,0,0,0,1.014-.352A1.237,1.237,0,0,0,34.172-2H35.2a1.966,1.966,0,0,1-.375,1.037,2.47,2.47,0,0,1-.923.785,2.663,2.663,0,0,1-1.222.293,2.612,2.612,0,0,1-2.06-.864,3.442,3.442,0,0,1-.765-2.364v-.182a3.817,3.817,0,0,1,.34-1.646,2.588,2.588,0,0,1,.976-1.119,2.771,2.771,0,0,1,1.5-.4,2.543,2.543,0,0,1,1.772.639A2.283,2.283,0,0,1,35.2-4.16H34.172a1.494,1.494,0,0,0-.466-1.011,1.449,1.449,0,0,0-1.034-.4,1.517,1.517,0,0,0-1.28.595,2.793,2.793,0,0,0-.454,1.72v.205a2.737,2.737,0,0,0,.451,1.688A1.524,1.524,0,0,0,32.678-.768ZM37.594,0H36.51V-6.34h1.084ZM36.422-8.021a.647.647,0,0,1,.161-.445.6.6,0,0,1,.478-.182.614.614,0,0,1,.48.182.64.64,0,0,1,.164.445.619.619,0,0,1-.164.439.626.626,0,0,1-.48.176.616.616,0,0,1-.478-.176A.626.626,0,0,1,36.422-8.021ZM43.242,0a2.277,2.277,0,0,1-.152-.668,2.419,2.419,0,0,1-1.8.785,2.238,2.238,0,0,1-1.538-.53,1.716,1.716,0,0,1-.6-1.345A1.792,1.792,0,0,1,39.9-3.3a3.55,3.55,0,0,1,2.118-.548h1.055v-.5a1.217,1.217,0,0,0-.34-.905,1.366,1.366,0,0,0-1-.337,1.581,1.581,0,0,0-.973.293.863.863,0,0,0-.393.709h-1.09a1.5,1.5,0,0,1,.337-.917,2.3,2.3,0,0,1,.914-.7,3.075,3.075,0,0,1,1.269-.258,2.506,2.506,0,0,1,1.717.548A1.976,1.976,0,0,1,44.156-4.4v2.918a3.567,3.567,0,0,0,.223,1.389V0Zm-1.8-.826a1.905,1.905,0,0,0,.967-.264,1.6,1.6,0,0,0,.662-.686v-1.3h-.85q-1.992,0-1.992,1.166a.987.987,0,0,0,.34.8A1.306,1.306,0,0,0,41.443-.826ZM47.033,0H45.949V-9h1.084Zm7.389-3.8a5.29,5.29,0,0,1-2.106-1.022,1.954,1.954,0,0,1-.659-1.5,2.064,2.064,0,0,1,.806-1.667,3.2,3.2,0,0,1,2.095-.659,3.5,3.5,0,0,1,1.567.34,2.577,2.577,0,0,1,1.066.938,2.4,2.4,0,0,1,.378,1.307H56.438a1.56,1.56,0,0,0-.492-1.22,2,2,0,0,0-1.389-.444,2.049,2.049,0,0,0-1.3.367,1.224,1.224,0,0,0-.466,1.018,1.1,1.1,0,0,0,.442.883,4.339,4.339,0,0,0,1.506.66,6.987,6.987,0,0,1,1.664.66A2.525,2.525,0,0,1,57.3-3.3a2.146,2.146,0,0,1,.29,1.131,1.993,1.993,0,0,1-.809,1.661,3.448,3.448,0,0,1-2.162.624A4.01,4.01,0,0,1,52.975-.22,2.761,2.761,0,0,1,51.8-1.143a2.252,2.252,0,0,1-.413-1.33h1.131a1.469,1.469,0,0,0,.571,1.222A2.4,2.4,0,0,0,54.615-.8a2.211,2.211,0,0,0,1.365-.363,1.18,1.18,0,0,0,.475-.99,1.158,1.158,0,0,0-.439-.97A5.066,5.066,0,0,0,54.422-3.8ZM61.488.117a2.77,2.77,0,0,1-2.1-.847,3.142,3.142,0,0,1-.809-2.265v-.2a3.8,3.8,0,0,1,.36-1.685,2.811,2.811,0,0,1,1.008-1.16,2.534,2.534,0,0,1,1.4-.419,2.374,2.374,0,0,1,1.922.814,3.526,3.526,0,0,1,.686,2.332v.451H59.666a2.254,2.254,0,0,0,.548,1.515,1.722,1.722,0,0,0,1.333.577A1.888,1.888,0,0,0,62.52-1a2.444,2.444,0,0,0,.7-.621l.662.516A2.662,2.662,0,0,1,61.488.117Zm-.135-5.684a1.446,1.446,0,0,0-1.1.478A2.321,2.321,0,0,0,59.7-3.75h3.176v-.082a2.065,2.065,0,0,0-.445-1.28A1.361,1.361,0,0,0,61.354-5.566Zm6.926.2a3.248,3.248,0,0,0-.533-.041A1.428,1.428,0,0,0,66.3-4.5V0H65.215V-6.34H66.27l.018.732a1.688,1.688,0,0,1,1.512-.85,1.107,1.107,0,0,1,.48.082Zm3.193,3.9,1.57-4.869H74.15L71.877,0h-.826l-2.3-6.34h1.107ZM76.371,0H75.287V-6.34h1.084ZM75.2-8.021a.647.647,0,0,1,.161-.445.6.6,0,0,1,.478-.182.614.614,0,0,1,.48.182.64.64,0,0,1,.164.445.619.619,0,0,1-.164.439.626.626,0,0,1-.48.176.616.616,0,0,1-.478-.176A.626.626,0,0,1,75.2-8.021ZM80.648-.768a1.561,1.561,0,0,0,1.014-.352A1.237,1.237,0,0,0,82.143-2h1.025a1.966,1.966,0,0,1-.375,1.037,2.47,2.47,0,0,1-.923.785,2.663,2.663,0,0,1-1.222.293,2.612,2.612,0,0,1-2.06-.864,3.442,3.442,0,0,1-.765-2.364v-.182a3.817,3.817,0,0,1,.34-1.646,2.588,2.588,0,0,1,.976-1.119,2.771,2.771,0,0,1,1.5-.4,2.543,2.543,0,0,1,1.772.639,2.283,2.283,0,0,1,.753,1.658H82.143a1.494,1.494,0,0,0-.466-1.011,1.449,1.449,0,0,0-1.034-.4,1.517,1.517,0,0,0-1.28.595,2.793,2.793,0,0,0-.454,1.72v.205a2.737,2.737,0,0,0,.451,1.688A1.524,1.524,0,0,0,80.648-.768Zm6.369.885a2.77,2.77,0,0,1-2.1-.847,3.142,3.142,0,0,1-.809-2.265v-.2a3.8,3.8,0,0,1,.36-1.685,2.811,2.811,0,0,1,1.008-1.16,2.534,2.534,0,0,1,1.4-.419,2.374,2.374,0,0,1,1.922.814,3.526,3.526,0,0,1,.686,2.332v.451H85.2a2.254,2.254,0,0,0,.548,1.515,1.722,1.722,0,0,0,1.333.577A1.888,1.888,0,0,0,88.049-1a2.444,2.444,0,0,0,.7-.621l.662.516A2.662,2.662,0,0,1,87.018.117Zm-.135-5.684a1.446,1.446,0,0,0-1.1.478A2.321,2.321,0,0,0,85.23-3.75h3.176v-.082a2.065,2.065,0,0,0-.445-1.28A1.361,1.361,0,0,0,86.883-5.566Zm7.553,3.885a.8.8,0,0,0-.331-.683,3.187,3.187,0,0,0-1.154-.419,5.457,5.457,0,0,1-1.307-.422,1.859,1.859,0,0,1-.715-.586A1.4,1.4,0,0,1,90.7-4.6a1.645,1.645,0,0,1,.659-1.318,2.574,2.574,0,0,1,1.685-.539A2.649,2.649,0,0,1,94.79-5.9a1.768,1.768,0,0,1,.671,1.424h-1.09a.979.979,0,0,0-.378-.768,1.416,1.416,0,0,0-.952-.322,1.482,1.482,0,0,0-.926.258.812.812,0,0,0-.334.674.658.658,0,0,0,.311.592,3.821,3.821,0,0,0,1.122.381,5.847,5.847,0,0,1,1.315.434,1.919,1.919,0,0,1,.747.606,1.491,1.491,0,0,1,.243.864A1.623,1.623,0,0,1,94.84-.4a2.851,2.851,0,0,1-1.764.513,3.193,3.193,0,0,1-1.348-.27,2.192,2.192,0,0,1-.917-.753,1.815,1.815,0,0,1-.331-1.046h1.084A1.122,1.122,0,0,0,92-1.087a1.693,1.693,0,0,0,1.075.319,1.748,1.748,0,0,0,.987-.249A.765.765,0,0,0,94.436-1.682ZM96.9-.568a.679.679,0,0,1,.167-.469.636.636,0,0,1,.5-.187.655.655,0,0,1,.507.188.665.665,0,0,1,.173.469.629.629,0,0,1-.173.451.667.667,0,0,1-.507.182.648.648,0,0,1-.5-.182A.641.641,0,0,1,96.9-.568ZM96.9-5.742a.679.679,0,0,1,.167-.469.636.636,0,0,1,.5-.187.655.655,0,0,1,.507.188.665.665,0,0,1,.173.469.629.629,0,0,1-.173.451.667.667,0,0,1-.507.182.648.648,0,0,1-.5-.182A.641.641,0,0,1,96.9-5.742Zm11.736-1.869H105.9V0h-1.119V-7.611h-2.736v-.92h6.6Zm3.721,2.244a3.248,3.248,0,0,0-.533-.041,1.428,1.428,0,0,0-1.447.908V0h-1.084V-6.34h1.055l.018.732a1.688,1.688,0,0,1,1.512-.85,1.107,1.107,0,0,1,.48.082ZM117.035,0a2.277,2.277,0,0,1-.152-.668,2.419,2.419,0,0,1-1.8.785,2.238,2.238,0,0,1-1.538-.53,1.716,1.716,0,0,1-.6-1.345,1.792,1.792,0,0,1,.753-1.538,3.55,3.55,0,0,1,2.118-.548h1.055v-.5a1.217,1.217,0,0,0-.34-.905,1.366,1.366,0,0,0-1-.337,1.581,1.581,0,0,0-.973.293.863.863,0,0,0-.393.709h-1.09a1.5,1.5,0,0,1,.337-.917,2.3,2.3,0,0,1,.914-.7,3.075,3.075,0,0,1,1.269-.258,2.506,2.506,0,0,1,1.717.548,1.976,1.976,0,0,1,.645,1.509v2.918a3.567,3.567,0,0,0,.223,1.389V0Zm-1.8-.826a1.905,1.905,0,0,0,.967-.264,1.6,1.6,0,0,0,.662-.686v-1.3h-.85q-1.992,0-1.992,1.166a.987.987,0,0,0,.34.8A1.306,1.306,0,0,0,115.236-.826Zm5.438-5.514.035.8a2.31,2.31,0,0,1,1.9-.914q2.01,0,2.027,2.268V0h-1.084V-4.2a1.459,1.459,0,0,0-.313-1.014,1.256,1.256,0,0,0-.958-.328,1.564,1.564,0,0,0-.926.281,1.91,1.91,0,0,0-.621.738V0h-1.084V-6.34Zm9.287,4.658a.8.8,0,0,0-.331-.683,3.187,3.187,0,0,0-1.154-.419,5.457,5.457,0,0,1-1.307-.422,1.859,1.859,0,0,1-.715-.586,1.4,1.4,0,0,1-.231-.809,1.645,1.645,0,0,1,.659-1.318,2.574,2.574,0,0,1,1.685-.539,2.649,2.649,0,0,1,1.749.557,1.768,1.768,0,0,1,.671,1.424H129.9a.979.979,0,0,0-.378-.768,1.416,1.416,0,0,0-.952-.322,1.482,1.482,0,0,0-.926.258.812.812,0,0,0-.334.674.658.658,0,0,0,.311.592,3.821,3.821,0,0,0,1.122.381,5.847,5.847,0,0,1,1.315.434,1.919,1.919,0,0,1,.747.606,1.491,1.491,0,0,1,.243.864,1.623,1.623,0,0,1-.68,1.362A2.851,2.851,0,0,1,128.6.117a3.193,3.193,0,0,1-1.348-.27,2.192,2.192,0,0,1-.917-.753,1.815,1.815,0,0,1-.331-1.046h1.084a1.122,1.122,0,0,0,.437.864,1.693,1.693,0,0,0,1.075.319,1.748,1.748,0,0,0,.987-.249A.765.765,0,0,0,129.961-1.682ZM136.371,0a2.277,2.277,0,0,1-.152-.668,2.419,2.419,0,0,1-1.8.785,2.238,2.238,0,0,1-1.538-.53,1.716,1.716,0,0,1-.6-1.345,1.792,1.792,0,0,1,.753-1.538,3.55,3.55,0,0,1,2.118-.548H136.2v-.5a1.217,1.217,0,0,0-.34-.905,1.366,1.366,0,0,0-1-.337,1.581,1.581,0,0,0-.973.293.863.863,0,0,0-.393.709H132.4a1.5,1.5,0,0,1,.337-.917,2.3,2.3,0,0,1,.914-.7,3.075,3.075,0,0,1,1.269-.258,2.506,2.506,0,0,1,1.717.548,1.976,1.976,0,0,1,.645,1.509v2.918a3.567,3.567,0,0,0,.223,1.389V0Zm-1.8-.826a1.905,1.905,0,0,0,.967-.264,1.6,1.6,0,0,0,.662-.686v-1.3h-.85q-1.992,0-1.992,1.166a.987.987,0,0,0,.34.8A1.306,1.306,0,0,0,134.572-.826Zm6.955.059a1.561,1.561,0,0,0,1.014-.352,1.237,1.237,0,0,0,.48-.879h1.025a1.966,1.966,0,0,1-.375,1.037,2.47,2.47,0,0,1-.923.785,2.663,2.663,0,0,1-1.222.293,2.612,2.612,0,0,1-2.06-.864,3.442,3.442,0,0,1-.765-2.364v-.182a3.817,3.817,0,0,1,.34-1.646,2.588,2.588,0,0,1,.976-1.119,2.771,2.771,0,0,1,1.5-.4,2.543,2.543,0,0,1,1.772.639,2.283,2.283,0,0,1,.753,1.658h-1.025a1.494,1.494,0,0,0-.466-1.011,1.449,1.449,0,0,0-1.034-.4,1.517,1.517,0,0,0-1.28.595,2.793,2.793,0,0,0-.454,1.72v.205a2.737,2.737,0,0,0,.451,1.688A1.524,1.524,0,0,0,141.527-.768Zm5.209-7.107V-6.34h1.184V-5.5h-1.184v3.937a.88.88,0,0,0,.158.572.666.666,0,0,0,.539.191,2.624,2.624,0,0,0,.516-.07V0a3.161,3.161,0,0,1-.832.116,1.35,1.35,0,0,1-1.1-.439,1.888,1.888,0,0,1-.369-1.248V-5.5H144.5V-6.34h1.154V-7.875ZM150.363,0h-1.084V-6.34h1.084Zm-1.172-8.021a.647.647,0,0,1,.161-.445.6.6,0,0,1,.478-.182.614.614,0,0,1,.48.182.64.64,0,0,1,.164.445.619.619,0,0,1-.164.439.626.626,0,0,1-.48.176.616.616,0,0,1-.478-.176A.626.626,0,0,1,149.191-8.021Zm2.619,4.793a3.745,3.745,0,0,1,.366-1.676,2.732,2.732,0,0,1,1.02-1.148,2.775,2.775,0,0,1,1.491-.4,2.674,2.674,0,0,1,2.095.9,3.449,3.449,0,0,1,.8,2.385V-3.1a3.777,3.777,0,0,1-.354,1.661,2.692,2.692,0,0,1-1.014,1.146,2.807,2.807,0,0,1-1.515.41,2.667,2.667,0,0,1-2.089-.9,3.432,3.432,0,0,1-.8-2.373Zm1.09.129a2.712,2.712,0,0,0,.489,1.693,1.566,1.566,0,0,0,1.31.639,1.556,1.556,0,0,0,1.313-.647,2.966,2.966,0,0,0,.486-1.813,2.708,2.708,0,0,0-.5-1.69,1.574,1.574,0,0,0-1.315-.647,1.557,1.557,0,0,0-1.295.639A2.944,2.944,0,0,0,152.9-3.1Zm7.066-3.24.035.8a2.31,2.31,0,0,1,1.9-.914q2.01,0,2.027,2.268V0h-1.084V-4.2a1.459,1.459,0,0,0-.313-1.014,1.256,1.256,0,0,0-.958-.328,1.564,1.564,0,0,0-.926.281,1.91,1.91,0,0,0-.621.738V0h-1.084V-6.34ZM168.7,0V-8.531h2.789a3.238,3.238,0,0,1,2.089.574,2.07,2.07,0,0,1,.7,1.7,1.733,1.733,0,0,1-.34,1.058,2.2,2.2,0,0,1-.926.712,1.979,1.979,0,0,1,1.093.735,2.11,2.11,0,0,1,.4,1.292,2.282,2.282,0,0,1-.744,1.8,3.077,3.077,0,0,1-2.1.656Zm1.125-3.99V-.92h1.857a1.788,1.788,0,0,0,1.239-.407,1.43,1.43,0,0,0,.454-1.122q0-1.541-1.676-1.541Zm0-.9h1.7a1.781,1.781,0,0,0,1.181-.37,1.24,1.24,0,0,0,.442-1,1.22,1.22,0,0,0-.41-1.025,2.014,2.014,0,0,0-1.248-.32h-1.664ZM179.918,0a2.277,2.277,0,0,1-.152-.668,2.419,2.419,0,0,1-1.8.785,2.238,2.238,0,0,1-1.538-.53,1.716,1.716,0,0,1-.6-1.345,1.792,1.792,0,0,1,.753-1.538,3.55,3.55,0,0,1,2.118-.548h1.055v-.5a1.217,1.217,0,0,0-.34-.905,1.366,1.366,0,0,0-1-.337,1.581,1.581,0,0,0-.973.293.863.863,0,0,0-.393.709h-1.09a1.5,1.5,0,0,1,.337-.917,2.3,2.3,0,0,1,.914-.7,3.075,3.075,0,0,1,1.269-.258,2.506,2.506,0,0,1,1.717.548,1.976,1.976,0,0,1,.645,1.509v2.918a3.567,3.567,0,0,0,.223,1.389V0Zm-1.8-.826a1.905,1.905,0,0,0,.967-.264,1.6,1.6,0,0,0,.662-.686v-1.3h-.85q-1.992,0-1.992,1.166a.987.987,0,0,0,.34.8A1.306,1.306,0,0,0,178.119-.826Zm5.438-5.514.035.8a2.31,2.31,0,0,1,1.9-.914q2.01,0,2.027,2.268V0h-1.084V-4.2a1.459,1.459,0,0,0-.313-1.014,1.256,1.256,0,0,0-.958-.328,1.564,1.564,0,0,0-.926.281,1.91,1.91,0,0,0-.621.738V0h-1.084V-6.34Zm7.365,3.4-.68.709V0h-1.084V-9h1.084v5.443l.58-.7L192.8-6.34h1.318l-2.467,2.648L194.4,0h-1.271ZM196.412,0h-1.084V-6.34h1.084ZM195.24-8.021a.647.647,0,0,1,.161-.445.6.6,0,0,1,.478-.182.614.614,0,0,1,.48.182.64.64,0,0,1,.164.445.619.619,0,0,1-.164.439.626.626,0,0,1-.48.176.616.616,0,0,1-.478-.176A.626.626,0,0,1,195.24-8.021Zm3.932,1.682.035.8a2.31,2.31,0,0,1,1.9-.914q2.01,0,2.027,2.268V0h-1.084V-4.2a1.459,1.459,0,0,0-.313-1.014,1.256,1.256,0,0,0-.958-.328,1.564,1.564,0,0,0-.926.281,1.91,1.91,0,0,0-.621.738V0h-1.084V-6.34Zm5.338,3.117a3.726,3.726,0,0,1,.686-2.358,2.192,2.192,0,0,1,1.816-.876,2.181,2.181,0,0,1,1.811.82l.053-.7h.99V-.152a2.579,2.579,0,0,1-.729,1.939,2.692,2.692,0,0,1-1.96.709,3.261,3.261,0,0,1-1.342-.293,2.31,2.31,0,0,1-1-.8l.563-.65a2.12,2.12,0,0,0,1.705.861,1.661,1.661,0,0,0,1.233-.445,1.7,1.7,0,0,0,.442-1.254V-.633A2.228,2.228,0,0,1,207,.117a2.166,2.166,0,0,1-1.8-.9A3.918,3.918,0,0,1,204.51-3.223Zm1.09.123a2.843,2.843,0,0,0,.439,1.685,1.428,1.428,0,0,0,1.23.612,1.588,1.588,0,0,0,1.506-.932V-4.629a1.606,1.606,0,0,0-1.494-.908,1.441,1.441,0,0,0-1.236.615A3.1,3.1,0,0,0,205.6-3.1Z" transform="translate(241 281)" fill="#0c2339"/>
      <path id="Path_888" data-name="Path 888" d="M7.547,0H6.416V-3.943h-4.3V0H.99V-8.531H2.115v3.668h4.3V-8.531H7.547Zm4.459.117a2.77,2.77,0,0,1-2.1-.847A3.142,3.142,0,0,1,9.1-2.994v-.2a3.8,3.8,0,0,1,.36-1.685,2.811,2.811,0,0,1,1.008-1.16,2.534,2.534,0,0,1,1.4-.419,2.374,2.374,0,0,1,1.922.814,3.526,3.526,0,0,1,.686,2.332v.451H10.184a2.254,2.254,0,0,0,.548,1.515,1.722,1.722,0,0,0,1.333.577A1.888,1.888,0,0,0,13.037-1a2.444,2.444,0,0,0,.7-.621l.662.516A2.662,2.662,0,0,1,12.006.117Zm-.135-5.684a1.446,1.446,0,0,0-1.1.478,2.321,2.321,0,0,0-.551,1.339h3.176v-.082a2.065,2.065,0,0,0-.445-1.28A1.361,1.361,0,0,0,11.871-5.566ZM19.646,0a2.277,2.277,0,0,1-.152-.668,2.419,2.419,0,0,1-1.8.785,2.238,2.238,0,0,1-1.538-.53,1.716,1.716,0,0,1-.6-1.345A1.792,1.792,0,0,1,16.3-3.3a3.55,3.55,0,0,1,2.118-.548h1.055v-.5a1.217,1.217,0,0,0-.34-.905,1.366,1.366,0,0,0-1-.337,1.581,1.581,0,0,0-.973.293.863.863,0,0,0-.393.709H15.68a1.5,1.5,0,0,1,.337-.917,2.3,2.3,0,0,1,.914-.7A3.075,3.075,0,0,1,18.2-6.457a2.506,2.506,0,0,1,1.717.548A1.976,1.976,0,0,1,20.561-4.4v2.918a3.567,3.567,0,0,0,.223,1.389V0Zm-1.8-.826a1.905,1.905,0,0,0,.967-.264,1.6,1.6,0,0,0,.662-.686v-1.3h-.85q-1.992,0-1.992,1.166a.987.987,0,0,0,.34.8A1.306,1.306,0,0,0,17.848-.826ZM23.438,0H22.354V-9h1.084Zm3.205-7.875V-6.34h1.184V-5.5H26.643v3.937a.88.88,0,0,0,.158.572A.666.666,0,0,0,27.34-.8a2.624,2.624,0,0,0,.516-.07V0a3.161,3.161,0,0,1-.832.116,1.35,1.35,0,0,1-1.1-.439,1.888,1.888,0,0,1-.369-1.248V-5.5H24.4V-6.34h1.154V-7.875Zm3.533,2.3a2.3,2.3,0,0,1,1.875-.885q2.01,0,2.027,2.268V0H32.994V-4.2a1.459,1.459,0,0,0-.313-1.014,1.256,1.256,0,0,0-.958-.328,1.564,1.564,0,0,0-.926.281,1.91,1.91,0,0,0-.621.738V0H29.092V-9h1.084Zm8.068,4.8a1.561,1.561,0,0,0,1.014-.352A1.237,1.237,0,0,0,39.738-2h1.025a1.966,1.966,0,0,1-.375,1.037,2.47,2.47,0,0,1-.923.785,2.663,2.663,0,0,1-1.222.293,2.612,2.612,0,0,1-2.06-.864,3.442,3.442,0,0,1-.765-2.364v-.182a3.817,3.817,0,0,1,.34-1.646,2.588,2.588,0,0,1,.976-1.119,2.771,2.771,0,0,1,1.5-.4,2.543,2.543,0,0,1,1.772.639,2.283,2.283,0,0,1,.753,1.658H39.738a1.494,1.494,0,0,0-.466-1.011,1.449,1.449,0,0,0-1.034-.4,1.517,1.517,0,0,0-1.28.595,2.793,2.793,0,0,0-.454,1.72v.205a2.737,2.737,0,0,0,.451,1.688A1.524,1.524,0,0,0,38.244-.768ZM45.9,0a2.277,2.277,0,0,1-.152-.668,2.419,2.419,0,0,1-1.8.785A2.238,2.238,0,0,1,42.4-.413a1.716,1.716,0,0,1-.6-1.345A1.792,1.792,0,0,1,42.554-3.3a3.55,3.55,0,0,1,2.118-.548h1.055v-.5a1.217,1.217,0,0,0-.34-.905,1.366,1.366,0,0,0-1-.337,1.581,1.581,0,0,0-.973.293.863.863,0,0,0-.393.709H41.93a1.5,1.5,0,0,1,.337-.917,2.3,2.3,0,0,1,.914-.7,3.075,3.075,0,0,1,1.269-.258,2.506,2.506,0,0,1,1.717.548A1.976,1.976,0,0,1,46.811-4.4v2.918a3.567,3.567,0,0,0,.223,1.389V0ZM44.1-.826a1.905,1.905,0,0,0,.967-.264,1.6,1.6,0,0,0,.662-.686v-1.3h-.85q-1.992,0-1.992,1.166a.987.987,0,0,0,.34.8A1.306,1.306,0,0,0,44.1-.826Zm7.477-4.541a3.248,3.248,0,0,0-.533-.041,1.428,1.428,0,0,0-1.447.908V0H48.51V-6.34h1.055l.018.732a1.688,1.688,0,0,1,1.512-.85,1.107,1.107,0,0,1,.48.082ZM55.09.117a2.77,2.77,0,0,1-2.1-.847,3.142,3.142,0,0,1-.809-2.265v-.2a3.8,3.8,0,0,1,.36-1.685,2.811,2.811,0,0,1,1.008-1.16,2.534,2.534,0,0,1,1.4-.419,2.374,2.374,0,0,1,1.922.814,3.526,3.526,0,0,1,.686,2.332v.451H53.268a2.254,2.254,0,0,0,.548,1.515,1.722,1.722,0,0,0,1.333.577A1.888,1.888,0,0,0,56.121-1a2.444,2.444,0,0,0,.7-.621l.662.516A2.662,2.662,0,0,1,55.09.117Zm-.135-5.684a1.446,1.446,0,0,0-1.1.478A2.321,2.321,0,0,0,53.3-3.75h3.176v-.082a2.065,2.065,0,0,0-.445-1.28A1.361,1.361,0,0,0,54.955-5.566Z" transform="translate(241 305)" fill="#0c2339"/>
      <path id="Path_889" data-name="Path 889" d="M2.2,0H1.072V-8.531H2.2ZM5.109-6.34l.035.8a2.31,2.31,0,0,1,1.9-.914q2.01,0,2.027,2.268V0H7.986V-4.2a1.459,1.459,0,0,0-.313-1.014,1.256,1.256,0,0,0-.958-.328,1.564,1.564,0,0,0-.926.281,1.91,1.91,0,0,0-.621.738V0H4.084V-6.34ZM11.238,0V-5.5h-1V-6.34h1v-.65a2.159,2.159,0,0,1,.545-1.576,2.058,2.058,0,0,1,1.541-.557,2.862,2.862,0,0,1,.744.1l-.059.874a3.113,3.113,0,0,0-.586-.053,1.058,1.058,0,0,0-.814.309,1.252,1.252,0,0,0-.287.885v.67h1.354V-5.5H12.322V0Zm3.346-3.229A3.745,3.745,0,0,1,14.95-4.9a2.732,2.732,0,0,1,1.02-1.148,2.775,2.775,0,0,1,1.491-.4,2.674,2.674,0,0,1,2.095.9,3.449,3.449,0,0,1,.8,2.385V-3.1A3.777,3.777,0,0,1,20-1.438,2.692,2.692,0,0,1,18.987-.293a2.807,2.807,0,0,1-1.515.41,2.667,2.667,0,0,1-2.089-.9,3.432,3.432,0,0,1-.8-2.373Zm1.09.129a2.712,2.712,0,0,0,.489,1.693,1.566,1.566,0,0,0,1.31.639,1.556,1.556,0,0,0,1.313-.647,2.966,2.966,0,0,0,.486-1.813,2.708,2.708,0,0,0-.5-1.69,1.574,1.574,0,0,0-1.315-.647,1.557,1.557,0,0,0-1.295.639A2.944,2.944,0,0,0,15.674-3.1Zm9.105-2.268a3.248,3.248,0,0,0-.533-.041A1.428,1.428,0,0,0,22.8-4.5V0H21.715V-6.34H22.77l.018.732a1.688,1.688,0,0,1,1.512-.85,1.107,1.107,0,0,1,.48.082Zm2.016-.973.029.7a2.341,2.341,0,0,1,1.881-.82,1.813,1.813,0,0,1,1.811,1.02,2.4,2.4,0,0,1,.823-.738,2.431,2.431,0,0,1,1.2-.281q2.086,0,2.121,2.209V0H33.574V-4.184A1.456,1.456,0,0,0,33.264-5.2a1.368,1.368,0,0,0-1.043-.337,1.437,1.437,0,0,0-1,.36,1.462,1.462,0,0,0-.463.97V0h-1.09V-4.154a1.209,1.209,0,0,0-1.354-1.383,1.45,1.45,0,0,0-1.459.908V0H25.77V-6.34ZM40.207,0a2.277,2.277,0,0,1-.152-.668,2.419,2.419,0,0,1-1.8.785,2.238,2.238,0,0,1-1.538-.53,1.716,1.716,0,0,1-.6-1.345A1.792,1.792,0,0,1,36.864-3.3a3.55,3.55,0,0,1,2.118-.548h1.055v-.5a1.217,1.217,0,0,0-.34-.905,1.366,1.366,0,0,0-1-.337,1.581,1.581,0,0,0-.973.293.863.863,0,0,0-.393.709H36.24a1.5,1.5,0,0,1,.337-.917,2.3,2.3,0,0,1,.914-.7,3.075,3.075,0,0,1,1.269-.258,2.506,2.506,0,0,1,1.717.548A1.976,1.976,0,0,1,41.121-4.4v2.918a3.567,3.567,0,0,0,.223,1.389V0Zm-1.8-.826a1.905,1.905,0,0,0,.967-.264,1.6,1.6,0,0,0,.662-.686v-1.3h-.85Q37.2-3.076,37.2-1.91a.987.987,0,0,0,.34.8A1.306,1.306,0,0,0,38.408-.826Zm5.883-7.049V-6.34h1.184V-5.5H44.291v3.937a.88.88,0,0,0,.158.572.666.666,0,0,0,.539.191,2.624,2.624,0,0,0,.516-.07V0a3.161,3.161,0,0,1-.832.116,1.35,1.35,0,0,1-1.1-.439,1.888,1.888,0,0,1-.369-1.248V-5.5H42.053V-6.34h1.154V-7.875ZM47.918,0H46.834V-6.34h1.084ZM46.746-8.021a.647.647,0,0,1,.161-.445.6.6,0,0,1,.478-.182.614.614,0,0,1,.48.182.64.64,0,0,1,.164.445.619.619,0,0,1-.164.439.626.626,0,0,1-.48.176.616.616,0,0,1-.478-.176A.626.626,0,0,1,46.746-8.021Zm2.619,4.793A3.745,3.745,0,0,1,49.731-4.9a2.732,2.732,0,0,1,1.02-1.148,2.775,2.775,0,0,1,1.491-.4,2.674,2.674,0,0,1,2.095.9,3.449,3.449,0,0,1,.8,2.385V-3.1a3.777,3.777,0,0,1-.354,1.661A2.692,2.692,0,0,1,53.769-.293a2.807,2.807,0,0,1-1.515.41,2.667,2.667,0,0,1-2.089-.9,3.432,3.432,0,0,1-.8-2.373Zm1.09.129a2.712,2.712,0,0,0,.489,1.693,1.566,1.566,0,0,0,1.31.639,1.556,1.556,0,0,0,1.313-.647,2.966,2.966,0,0,0,.486-1.813,2.708,2.708,0,0,0-.5-1.69,1.574,1.574,0,0,0-1.315-.647,1.557,1.557,0,0,0-1.295.639A2.944,2.944,0,0,0,50.455-3.1Zm7.066-3.24.035.8a2.31,2.31,0,0,1,1.9-.914q2.01,0,2.027,2.268V0H60.4V-4.2a1.459,1.459,0,0,0-.313-1.014,1.256,1.256,0,0,0-.958-.328,1.564,1.564,0,0,0-.926.281,1.91,1.91,0,0,0-.621.738V0H56.5V-6.34Zm14.4-1.271H69.176V0H68.057V-7.611H65.32v-.92h6.6ZM75.064.117a2.77,2.77,0,0,1-2.1-.847,3.142,3.142,0,0,1-.809-2.265v-.2a3.8,3.8,0,0,1,.36-1.685,2.811,2.811,0,0,1,1.008-1.16,2.534,2.534,0,0,1,1.4-.419,2.374,2.374,0,0,1,1.922.814,3.526,3.526,0,0,1,.686,2.332v.451H73.242a2.254,2.254,0,0,0,.548,1.515,1.722,1.722,0,0,0,1.333.577A1.888,1.888,0,0,0,76.1-1a2.444,2.444,0,0,0,.7-.621l.662.516A2.662,2.662,0,0,1,75.064.117ZM74.93-5.566a1.446,1.446,0,0,0-1.1.478,2.321,2.321,0,0,0-.551,1.339h3.176v-.082a2.065,2.065,0,0,0-.445-1.28A1.361,1.361,0,0,0,74.93-5.566Zm6.4,4.8a1.561,1.561,0,0,0,1.014-.352A1.237,1.237,0,0,0,82.828-2h1.025a1.966,1.966,0,0,1-.375,1.037,2.47,2.47,0,0,1-.923.785,2.663,2.663,0,0,1-1.222.293,2.612,2.612,0,0,1-2.06-.864,3.442,3.442,0,0,1-.765-2.364v-.182a3.817,3.817,0,0,1,.34-1.646,2.588,2.588,0,0,1,.976-1.119,2.771,2.771,0,0,1,1.5-.4,2.543,2.543,0,0,1,1.772.639,2.283,2.283,0,0,1,.753,1.658H82.828a1.494,1.494,0,0,0-.466-1.011,1.449,1.449,0,0,0-1.034-.4,1.517,1.517,0,0,0-1.28.595,2.793,2.793,0,0,0-.454,1.72v.205a2.737,2.737,0,0,0,.451,1.688A1.524,1.524,0,0,0,81.334-.768Zm4.822-4.8a2.3,2.3,0,0,1,1.875-.885q2.01,0,2.027,2.268V0H88.975V-4.2a1.459,1.459,0,0,0-.313-1.014,1.256,1.256,0,0,0-.958-.328,1.564,1.564,0,0,0-.926.281,1.91,1.91,0,0,0-.621.738V0H85.072V-9h1.084Zm6.551-.768.035.8a2.31,2.31,0,0,1,1.9-.914q2.01,0,2.027,2.268V0H95.584V-4.2a1.459,1.459,0,0,0-.313-1.014,1.256,1.256,0,0,0-.958-.328,1.564,1.564,0,0,0-.926.281,1.91,1.91,0,0,0-.621.738V0H91.682V-6.34Zm5.309,3.111A3.745,3.745,0,0,1,98.382-4.9,2.732,2.732,0,0,1,99.4-6.053a2.775,2.775,0,0,1,1.491-.4,2.674,2.674,0,0,1,2.095.9,3.449,3.449,0,0,1,.8,2.385V-3.1a3.777,3.777,0,0,1-.354,1.661,2.692,2.692,0,0,1-1.014,1.146,2.807,2.807,0,0,1-1.515.41,2.667,2.667,0,0,1-2.089-.9,3.432,3.432,0,0,1-.8-2.373Zm1.09.129a2.712,2.712,0,0,0,.489,1.693,1.566,1.566,0,0,0,1.31.639,1.556,1.556,0,0,0,1.313-.647,2.966,2.966,0,0,0,.486-1.813,2.708,2.708,0,0,0-.5-1.69,1.574,1.574,0,0,0-1.315-.647,1.557,1.557,0,0,0-1.295.639A2.944,2.944,0,0,0,99.105-3.1ZM106.324,0H105.24V-9h1.084Zm1.447-3.229a3.745,3.745,0,0,1,.366-1.676,2.732,2.732,0,0,1,1.02-1.148,2.775,2.775,0,0,1,1.491-.4,2.674,2.674,0,0,1,2.095.9,3.449,3.449,0,0,1,.8,2.385V-3.1a3.777,3.777,0,0,1-.354,1.661,2.692,2.692,0,0,1-1.014,1.146,2.807,2.807,0,0,1-1.515.41,2.667,2.667,0,0,1-2.089-.9,3.432,3.432,0,0,1-.8-2.373Zm1.09.129a2.712,2.712,0,0,0,.489,1.693,1.566,1.566,0,0,0,1.31.639,1.556,1.556,0,0,0,1.313-.647,2.966,2.966,0,0,0,.486-1.813,2.708,2.708,0,0,0-.5-1.69,1.574,1.574,0,0,0-1.315-.647,1.557,1.557,0,0,0-1.295.639A2.944,2.944,0,0,0,108.861-3.1Zm5.783-.123a3.726,3.726,0,0,1,.686-2.358,2.192,2.192,0,0,1,1.816-.876,2.181,2.181,0,0,1,1.811.82l.053-.7H120V-.152a2.579,2.579,0,0,1-.729,1.939,2.692,2.692,0,0,1-1.96.709,3.261,3.261,0,0,1-1.342-.293,2.31,2.31,0,0,1-1-.8l.563-.65a2.12,2.12,0,0,0,1.705.861,1.661,1.661,0,0,0,1.233-.445,1.7,1.7,0,0,0,.442-1.254V-.633a2.228,2.228,0,0,1-1.775.75,2.166,2.166,0,0,1-1.8-.9A3.918,3.918,0,0,1,114.645-3.223Zm1.09.123a2.843,2.843,0,0,0,.439,1.685A1.428,1.428,0,0,0,117.4-.8a1.588,1.588,0,0,0,1.506-.932V-4.629a1.606,1.606,0,0,0-1.494-.908,1.441,1.441,0,0,0-1.236.615A3.1,3.1,0,0,0,115.734-3.1Zm7.975,1.512,1.477-4.752h1.16L123.8.979q-.592,1.582-1.881,1.582l-.205-.018-.4-.076V1.588l.293.023a1.442,1.442,0,0,0,.858-.223,1.611,1.611,0,0,0,.507-.814l.24-.645-2.262-6.27h1.184Z" transform="translate(241 329)" fill="#0c2339"/>
      <g id="Please_select_field" data-name="Please select field">
        <g id="Current_target_performance_card-5" data-name="Current target performance card" transform="translate(227 162.5)" fill="#f8fbff" stroke="rgba(165,170,188,0.5)" stroke-width="0.5">
          <rect width="344.5" height="27" rx="5" stroke="none"/>
          <rect x="0.25" y="0.25" width="344" height="26.5" rx="4.75" fill="none"/>
        </g>
        <text id="Please_select_an_option" data-name="Please select an option" transform="translate(241 180.248)" fill="#0c2339" font-size="12" font-family="Roboto-Regular, Roboto" opacity="0.2"><tspan x="0" y="0">Please select an option</tspan></text>
        <text id="_" data-name="|" transform="translate(241 180.248)" fill="#0c2339" font-size="12" font-family="Roboto-Regular, Roboto"><tspan x="0" y="0">|</tspan></text>
      </g>
      <g transform="matrix(1, 0, 0, 1, 192, 31.25)" filter="url(#Current_target_performance_card-3)">
        <g id="Current_target_performance_card-6" data-name="Current target performance card" transform="translate(35 158.25)" fill="none">
          <path d="M5,0H339.5a5,5,0,0,1,5,5V150a5,5,0,0,1-5,5H5a5,5,0,0,1-5-5V5A5,5,0,0,1,5,0Z" stroke="none"/>
          <path d="M 5 0.5 C 2.5186767578125 0.5 0.5 2.5186767578125 0.5 5 L 0.5 150 C 0.5 152.4813232421875 2.5186767578125 154.5 5 154.5 L 339.5 154.5 C 341.9813232421875 154.5 344 152.4813232421875 344 150 L 344 5 C 344 2.5186767578125 341.9813232421875 0.5 339.5 0.5 L 5 0.5 M 5 0 L 339.5 0 C 342.2614135742188 0 344.5 2.23858642578125 344.5 5 L 344.5 150 C 344.5 152.7614135742188 342.2614135742188 155 339.5 155 L 5 155 C 2.23858642578125 155 0 152.7614135742188 0 150 L 0 5 C 0 2.23858642578125 2.23858642578125 0 5 0 Z" stroke="none" fill="rgba(165,170,188,0.5)"/>
        </g>
      </g>
      <path id="Path_89" data-name="Path 89" d="M183.56,182.416l-2.428-2.472-2.428,2.471a.388.388,0,0,1-.556-.542l2.423-2.51-2.421-2.482a.387.387,0,0,1,.553-.542l2.429,2.472,2.429-2.5a.39.39,0,1,1,.559.544l-2.437,2.506,2.436,2.506a.391.391,0,0,1-.559.547Z" transform="translate(978.438 -134.945)" fill="#fff"/>
    </g>
  </g>
</svg>
