<svg xmlns="http://www.w3.org/2000/svg" width="168.5" height="27" viewBox="0 0 168.5 27">
  <g id="Group_1127" data-name="Group 1127" transform="translate(-588.75 -15.5)">
    <g id="Selection_Bar_3" data-name="Selection Bar 3" transform="translate(588.75 15.5)" fill="#e8f7fd">
      <path d="M 163.5 26.75 L 5 26.75 C 2.380833387374878 26.75 0.25 24.61916732788086 0.25 22 L 0.25 5 C 0.25 2.380833387374878 2.380833387374878 0.25 5 0.25 L 163.5 0.25 C 166.1191711425781 0.25 168.25 2.380833387374878 168.25 5 L 168.25 22 C 168.25 24.61916732788086 166.1191711425781 26.75 163.5 26.75 Z" stroke="none"/>
      <path d="M 5 0.5 C 2.518692016601562 0.5 0.5 2.518688201904297 0.5 5 L 0.5 22 C 0.5 24.4813117980957 2.518692016601562 26.5 5 26.5 L 163.5 26.5 C 165.9813079833984 26.5 168 24.4813117980957 168 22 L 168 5 C 168 2.518688201904297 165.9813079833984 0.5 163.5 0.5 L 5 0.5 M 5 0 L 163.5 0 C 166.2614135742188 0 168.5 2.238582611083984 168.5 5 L 168.5 22 C 168.5 24.76141738891602 166.2614135742188 27 163.5 27 L 5 27 C 2.238555908203125 27 0 24.76141738891602 0 22 L 0 5 C 0 2.238582611083984 2.238555908203125 0 5 0 Z" stroke="none" fill="#4dc0ed"/>
    </g>
    <path id="Path_3385" data-name="Path 3385" d="M2.358-2.241,2.5-1.3l.2-.845L4.1-7.109h.791L6.265-2.148l.2.859.151-.957,1.1-4.863h.942L6.934,0H6.079L4.614-5.181,4.5-5.723l-.112.542L2.871,0H2.017L.3-7.109h.938ZM11.6.1A2.308,2.308,0,0,1,9.849-.608,2.619,2.619,0,0,1,9.175-2.5v-.166a3.17,3.17,0,0,1,.3-1.4,2.343,2.343,0,0,1,.84-.967,2.112,2.112,0,0,1,1.169-.349,1.979,1.979,0,0,1,1.6.679,2.939,2.939,0,0,1,.571,1.943v.376H10.078a1.878,1.878,0,0,0,.457,1.262,1.435,1.435,0,0,0,1.111.481,1.573,1.573,0,0,0,.811-.2,2.037,2.037,0,0,0,.581-.518l.552.43A2.219,2.219,0,0,1,11.6.1Zm-.112-4.736a1.2,1.2,0,0,0-.918.4,1.934,1.934,0,0,0-.459,1.116h2.646v-.068a1.721,1.721,0,0,0-.371-1.067A1.134,1.134,0,0,0,11.484-4.639ZM15.684,0h-.9V-5.283h.9Zm-.977-6.685a.539.539,0,0,1,.134-.371.5.5,0,0,1,.4-.151.512.512,0,0,1,.4.151.534.534,0,0,1,.137.371.516.516,0,0,1-.137.366.521.521,0,0,1-.4.146.513.513,0,0,1-.4-.146A.521.521,0,0,1,14.707-6.685Zm2.207,4a3.105,3.105,0,0,1,.571-1.965A1.827,1.827,0,0,1,19-5.381a1.817,1.817,0,0,1,1.509.684l.044-.586h.825V-.127a2.149,2.149,0,0,1-.608,1.616,2.243,2.243,0,0,1-1.633.591,2.717,2.717,0,0,1-1.118-.244,1.925,1.925,0,0,1-.835-.669l.469-.542a1.766,1.766,0,0,0,1.421.718A1.384,1.384,0,0,0,20.1.972a1.418,1.418,0,0,0,.369-1.045V-.527A1.857,1.857,0,0,1,18.989.1a1.8,1.8,0,0,1-1.5-.747A3.265,3.265,0,0,1,16.914-2.686Zm.908.1a2.369,2.369,0,0,0,.366,1.4,1.19,1.19,0,0,0,1.025.51,1.323,1.323,0,0,0,1.255-.776V-3.857a1.339,1.339,0,0,0-1.245-.757,1.2,1.2,0,0,0-1.03.513A2.58,2.58,0,0,0,17.822-2.583Zm5.82-2.061a1.921,1.921,0,0,1,1.563-.737q1.675,0,1.689,1.89V0h-.9V-3.5a1.216,1.216,0,0,0-.261-.845,1.047,1.047,0,0,0-.8-.273,1.3,1.3,0,0,0-.771.234,1.592,1.592,0,0,0-.518.615V0h-.9V-7.5h.9Zm5.83-1.919v1.279h.986v.7h-.986V-1.3a.733.733,0,0,0,.132.477.555.555,0,0,0,.449.159,2.187,2.187,0,0,0,.43-.059V0a2.634,2.634,0,0,1-.693.1,1.125,1.125,0,0,1-.913-.366,1.573,1.573,0,0,1-.308-1.04V-4.585h-.962v-.7h.962V-6.562ZM33.706.1a2.308,2.308,0,0,1-1.748-.706A2.619,2.619,0,0,1,31.284-2.5v-.166a3.17,3.17,0,0,1,.3-1.4,2.343,2.343,0,0,1,.84-.967,2.112,2.112,0,0,1,1.169-.349,1.979,1.979,0,0,1,1.6.679,2.939,2.939,0,0,1,.571,1.943v.376H32.188a1.878,1.878,0,0,0,.457,1.262,1.435,1.435,0,0,0,1.111.481,1.573,1.573,0,0,0,.811-.2,2.037,2.037,0,0,0,.581-.518l.552.43A2.219,2.219,0,0,1,33.706.1Zm-.112-4.736a1.2,1.2,0,0,0-.918.4,1.934,1.934,0,0,0-.459,1.116h2.646v-.068a1.721,1.721,0,0,0-.371-1.067A1.134,1.134,0,0,0,33.594-4.639Zm3,1.953a3.1,3.1,0,0,1,.576-1.956,1.822,1.822,0,0,1,1.509-.74,1.832,1.832,0,0,1,1.47.635V-7.5h.9V0h-.83l-.044-.566A1.84,1.84,0,0,1,38.667.1a1.8,1.8,0,0,1-1.5-.752,3.13,3.13,0,0,1-.579-1.963Zm.9.1a2.343,2.343,0,0,0,.371,1.406,1.2,1.2,0,0,0,1.025.508,1.318,1.318,0,0,0,1.255-.771V-3.867A1.328,1.328,0,0,0,38.9-4.614a1.205,1.205,0,0,0-1.035.513A2.58,2.58,0,0,0,37.5-2.583Zm8.511-.2V0h-.937V-7.109H47.69a2.634,2.634,0,0,1,1.829.6,2.02,2.02,0,0,1,.662,1.577,1.993,1.993,0,0,1-.647,1.594,2.752,2.752,0,0,1-1.853.559Zm0-.767H47.69A1.684,1.684,0,0,0,48.843-3.9a1.3,1.3,0,0,0,.4-1.025,1.34,1.34,0,0,0-.4-1.017,1.578,1.578,0,0,0-1.1-.4H46.006ZM53.364.1a2.308,2.308,0,0,1-1.748-.706A2.619,2.619,0,0,1,50.942-2.5v-.166a3.17,3.17,0,0,1,.3-1.4,2.343,2.343,0,0,1,.84-.967,2.112,2.112,0,0,1,1.169-.349,1.979,1.979,0,0,1,1.6.679,2.939,2.939,0,0,1,.571,1.943v.376H51.846A1.878,1.878,0,0,0,52.3-1.121a1.435,1.435,0,0,0,1.111.481,1.573,1.573,0,0,0,.811-.2,2.037,2.037,0,0,0,.581-.518l.552.43A2.219,2.219,0,0,1,53.364.1Zm-.112-4.736a1.2,1.2,0,0,0-.918.4,1.934,1.934,0,0,0-.459,1.116h2.646v-.068A1.721,1.721,0,0,0,54.15-4.26,1.134,1.134,0,0,0,53.252-4.639Zm5.771.166a2.707,2.707,0,0,0-.444-.034,1.19,1.19,0,0,0-1.206.757V0h-.9V-5.283h.879l.015.61a1.407,1.407,0,0,1,1.26-.708.923.923,0,0,1,.4.068ZM60.371,0V-4.585h-.835v-.7h.835v-.542a1.8,1.8,0,0,1,.454-1.313A1.715,1.715,0,0,1,62.109-7.6a2.385,2.385,0,0,1,.62.082l-.049.728a2.594,2.594,0,0,0-.488-.044.881.881,0,0,0-.679.257,1.043,1.043,0,0,0-.239.737v.558H62.4v.7H61.274V0Zm2.788-2.69a3.121,3.121,0,0,1,.305-1.4,2.277,2.277,0,0,1,.85-.957,2.313,2.313,0,0,1,1.243-.337,2.228,2.228,0,0,1,1.746.747,2.874,2.874,0,0,1,.667,1.987v.063a3.148,3.148,0,0,1-.3,1.384,2.243,2.243,0,0,1-.845.955A2.339,2.339,0,0,1,65.566.1a2.222,2.222,0,0,1-1.741-.747,2.86,2.86,0,0,1-.667-1.978Zm.908.107a2.26,2.26,0,0,0,.408,1.411,1.3,1.3,0,0,0,1.091.532,1.3,1.3,0,0,0,1.094-.54,2.472,2.472,0,0,0,.405-1.511A2.256,2.256,0,0,0,66.653-4.1a1.312,1.312,0,0,0-1.1-.54,1.3,1.3,0,0,0-1.079.532A2.453,2.453,0,0,0,64.067-2.583Zm7.588-1.89a2.707,2.707,0,0,0-.444-.034A1.19,1.19,0,0,0,70-3.75V0h-.9V-5.283h.879l.015.61a1.407,1.407,0,0,1,1.26-.708.923.923,0,0,1,.4.068Zm1.68-.811.024.586a1.951,1.951,0,0,1,1.567-.684,1.51,1.51,0,0,1,1.509.85,2,2,0,0,1,.686-.615,2.026,2.026,0,0,1,1-.234q1.738,0,1.768,1.841V0h-.9V-3.486a1.213,1.213,0,0,0-.259-.847,1.14,1.14,0,0,0-.869-.281,1.2,1.2,0,0,0-.835.3,1.218,1.218,0,0,0-.386.808V0h-.908V-3.462A1.008,1.008,0,0,0,74.6-4.614a1.209,1.209,0,0,0-1.216.757V0h-.9V-5.283ZM84.512,0a1.9,1.9,0,0,1-.127-.557,2.016,2.016,0,0,1-1.5.654A1.865,1.865,0,0,1,81.6-.344a1.43,1.43,0,0,1-.5-1.121,1.494,1.494,0,0,1,.627-1.282A2.958,2.958,0,0,1,83.491-3.2h.879v-.415a1.015,1.015,0,0,0-.283-.754,1.138,1.138,0,0,0-.835-.281,1.317,1.317,0,0,0-.811.244.719.719,0,0,0-.327.591h-.908a1.247,1.247,0,0,1,.281-.764,1.916,1.916,0,0,1,.762-.583,2.563,2.563,0,0,1,1.057-.215,2.089,2.089,0,0,1,1.431.457,1.647,1.647,0,0,1,.537,1.257v2.432a2.973,2.973,0,0,0,.186,1.157V0Zm-1.5-.688a1.588,1.588,0,0,0,.806-.22,1.329,1.329,0,0,0,.552-.571V-2.563h-.708q-1.66,0-1.66.972a.822.822,0,0,0,.283.664A1.089,1.089,0,0,0,83.013-.688Zm4.531-4.595.029.664a1.925,1.925,0,0,1,1.582-.762q1.675,0,1.689,1.89V0h-.9V-3.5a1.216,1.216,0,0,0-.261-.845,1.047,1.047,0,0,0-.8-.273,1.3,1.3,0,0,0-.771.234,1.592,1.592,0,0,0-.518.615V0h-.9V-5.283ZM94.326-.64a1.3,1.3,0,0,0,.845-.293,1.031,1.031,0,0,0,.4-.732h.854a1.638,1.638,0,0,1-.312.864,2.058,2.058,0,0,1-.769.654A2.219,2.219,0,0,1,94.326.1a2.176,2.176,0,0,1-1.716-.72,2.869,2.869,0,0,1-.637-1.97v-.151a3.181,3.181,0,0,1,.283-1.372,2.157,2.157,0,0,1,.813-.933,2.309,2.309,0,0,1,1.252-.332,2.119,2.119,0,0,1,1.477.532,1.9,1.9,0,0,1,.627,1.382h-.854a1.245,1.245,0,0,0-.388-.842,1.208,1.208,0,0,0-.862-.33,1.264,1.264,0,0,0-1.067.5,2.328,2.328,0,0,0-.378,1.433v.171a2.281,2.281,0,0,0,.376,1.406A1.27,1.27,0,0,0,94.326-.64ZM99.634.1a2.308,2.308,0,0,1-1.748-.706A2.619,2.619,0,0,1,97.212-2.5v-.166a3.17,3.17,0,0,1,.3-1.4,2.342,2.342,0,0,1,.84-.967,2.112,2.112,0,0,1,1.169-.349,1.979,1.979,0,0,1,1.6.679,2.939,2.939,0,0,1,.571,1.943v.376H98.115a1.878,1.878,0,0,0,.457,1.262,1.435,1.435,0,0,0,1.111.481,1.573,1.573,0,0,0,.811-.2,2.037,2.037,0,0,0,.581-.518l.552.43A2.219,2.219,0,0,1,99.634.1Zm-.112-4.736a1.2,1.2,0,0,0-.918.4,1.934,1.934,0,0,0-.459,1.116h2.646v-.068a1.721,1.721,0,0,0-.371-1.067A1.134,1.134,0,0,0,99.521-4.639Z" transform="translate(645.75 32.5)" fill="#0c2339"/>
    <g id="Group_125" data-name="Group 125" transform="translate(183.75 -1)">
      <circle id="Ellipse_118" data-name="Ellipse 118" cx="4.5" cy="4.5" r="4.5" transform="translate(413 25.5)" fill="#4dc0ed"/>
      <path id="Path_158" data-name="Path 158" d="M3403.136,1329.557l1.837,1.575,2.737-3.763" transform="translate(-2988 -1299.5)" fill="none" stroke="#fff" stroke-linecap="round" stroke-width="0.5"/>
    </g>
  </g>
</svg>
