<?xml version="1.0" encoding="UTF-8" standalone="no"?>
<svg
   width="1352"
   height="59"
   viewBox="0 0 1352 59"
   version="1.1"
   id="svg10"
   sodipodi:docname="slider7-head.svg"
   xmlns:inkscape="http://www.inkscape.org/namespaces/inkscape"
   xmlns:sodipodi="http://sodipodi.sourceforge.net/DTD/sodipodi-0.dtd"
   xmlns="http://www.w3.org/2000/svg"
   xmlns:svg="http://www.w3.org/2000/svg">
  <defs
     id="defs14" />
  <sodipodi:namedview
     id="namedview12"
     pagecolor="#ffffff"
     bordercolor="#666666"
     borderopacity="1.0"
     inkscape:pageshadow="2"
     inkscape:pageopacity="0.0"
     inkscape:pagecheckerboard="0" />
  <g
     transform="translate(-67.733)"
     id="g8">
    <path
       id="rect2"
       transform="translate(67.733)"
       style="fill:#ffffff"
       d="M 0,0 H 1352 V 59 H 0 Z" />
    <g
       aria-label="Flow Designer (1 total)"
       transform="translate(83.733,35)"
       id="text6"
       style="font-weight:500;font-size:14px;font-family:Roboto-Medium, Roboto;fill:#0c2339">
      <path
         d="M 6.7470703,-4.2177734 H 2.7412109 V 0 H 1.0117187 v -9.953125 h 6.3232422 v 1.3945312 h -4.59375 v 2.959961 h 4.0058594 z"
         id="path17" />
      <path
         d="M 10.308594,0 H 8.6474609 v -10.5 h 1.6611331 z"
         id="path19" />
      <path
         d="m 11.805664,-3.7666016 q 0,-1.086914 0.430664,-1.9550781 0.430664,-0.875 1.209961,-1.3398437 0.779297,-0.4716797 1.791016,-0.4716797 1.49707,0 2.426757,0.9638672 0.936524,0.9638672 1.011719,2.5566406 l 0.0068,0.3896484 q 0,1.09375 -0.423828,1.9550782 -0.416992,0.86132807 -1.203125,1.33300776 -0.779297,0.47167969 -1.804687,0.47167969 -1.56543,0 -2.508789,-1.0390625 -0.936524,-1.04589845 -0.936524,-2.78222655 z m 1.661133,0.1435547 q 0,1.1416016 0.47168,1.7910157 0.471679,0.6425781 1.3125,0.6425781 0.84082,0 1.305664,-0.65625 0.471679,-0.65625 0.471679,-1.9208985 0,-1.1210937 -0.485351,-1.7773437 -0.478516,-0.65625 -1.305664,-0.65625 -0.813477,0 -1.291992,0.6494141 -0.478516,0.6425781 -0.478516,1.9277343 z"
         id="path21" />
      <path
         d="m 26.584961,-2.2900391 1.175781,-5.1064453 h 1.620117 L 27.364258,0 H 25.99707 L 24.411133,-5.0791016 22.852539,0 h -1.367187 l -2.023438,-7.3964844 h 1.620117 l 1.196289,5.0517578 1.517578,-5.0517578 h 1.250977 z"
         id="path23" />
      <path
         d="m 34.138672,0 v -9.953125 h 2.939453 q 1.319336,0 2.337891,0.5878906 1.02539,0.5878906 1.585937,1.6679688 0.560547,1.0800781 0.560547,2.4746094 v 0.4990234 q 0,1.415039 -0.567383,2.4882812 -0.560547,1.0732422 -1.606445,1.65429691 Q 38.349609,0 37.00293,0 Z m 1.729492,-8.5585938 v 7.1777344 h 1.12793 q 1.360351,0 2.084961,-0.8476562 0.731445,-0.8544922 0.745117,-2.4472656 v -0.553711 q 0,-1.6201172 -0.704102,-2.4746094 -0.704101,-0.8544922 -2.043945,-0.8544922 z"
         id="path25" />
      <path
         d="m 46.381836,0.13671875 q -1.579102,0 -2.563477,-0.99121094 Q 42.84082,-1.8525391 42.84082,-3.5068359 v -0.2050782 q 0,-1.1074218 0.423828,-1.9755859 0.430664,-0.875 1.203125,-1.3603516 0.772461,-0.4853515 1.722657,-0.4853515 1.510742,0 2.331054,0.9638672 0.827149,0.9638672 0.827149,2.727539 v 0.6699219 h -4.833008 q 0.0752,0.9160156 0.608398,1.4492188 0.540039,0.5332031 1.353516,0.5332031 1.141602,0 1.859375,-0.9228516 l 0.895508,0.8544922 q -0.444336,0.66308594 -1.189453,1.03222656 -0.738282,0.36230469 -1.661133,0.36230469 z M 46.183594,-6.2001953 q -0.683594,0 -1.107422,0.4785156 -0.416992,0.4785156 -0.533203,1.3330078 h 3.165039 v -0.1230468 q -0.05469,-0.8339844 -0.444336,-1.2578125 -0.389649,-0.4306641 -1.080078,-0.4306641 z"
         id="path27" />
      <path
         d="m 54.783203,-2.0097656 q 0,-0.444336 -0.369141,-0.6767578 -0.362304,-0.2324219 -1.20996,-0.4101563 -0.847657,-0.1777344 -1.41504,-0.4511719 -1.24414,-0.6015625 -1.24414,-1.743164 0,-0.9570313 0.80664,-1.5996094 0.806641,-0.6425781 2.050782,-0.6425781 1.326172,0 2.139648,0.65625 0.820313,0.65625 0.820313,1.7021484 h -1.661133 q 0,-0.4785156 -0.355469,-0.7929687 -0.355469,-0.3212891 -0.943359,-0.3212891 -0.546875,0 -0.895508,0.2529297 -0.341797,0.2529297 -0.341797,0.6767578 0,0.3828125 0.321289,0.5947266 0.321289,0.211914 1.298828,0.430664 0.977539,0.2119141 1.53125,0.5126953 0.560547,0.2939453 0.827149,0.7109375 0.273437,0.4169922 0.273437,1.0117188 0,0.9980469 -0.827148,1.62011717 -0.827149,0.61523438 -2.166992,0.61523438 -0.90918,0 -1.620118,-0.328125 -0.710937,-0.328125 -1.107422,-0.90234375 -0.396484,-0.5742187 -0.396484,-1.2373047 h 1.613281 q 0.03418,0.5878906 0.444336,0.9091797 0.410157,0.3144531 1.086914,0.3144531 0.65625,0 0.998047,-0.2460937 0.341797,-0.2529297 0.341797,-0.65625 z"
         id="path29" />
      <path
         d="M 59.629883,0 H 57.96875 v -7.3964844 h 1.661133 z m -1.763672,-9.3173828 q 0,-0.3828125 0.239258,-0.6357422 0.246093,-0.25293 0.697265,-0.25293 0.451172,0 0.697266,0.25293 0.246094,0.2529297 0.246094,0.6357422 0,0.3759765 -0.246094,0.6289062 -0.246094,0.2460938 -0.697266,0.2460938 -0.451172,0 -0.697265,-0.2460938 -0.239258,-0.2529297 -0.239258,-0.6289062 z"
         id="path31" />
      <path
         d="m 61.147461,-3.7529297 q 0,-1.7226562 0.806641,-2.7480469 0.813476,-1.0322265 2.15332,-1.0322265 1.264648,0 1.989258,0.8818359 l 0.07519,-0.7451172 h 1.49707 v 7.17089846 q 0,1.45605464 -0.909179,2.29687504 -0.902344,0.8408203 -2.44043,0.8408203 -0.813477,0 -1.592774,-0.3417969 -0.77246,-0.3349609 -1.175781,-0.8818359 l 0.786133,-0.99804691 q 0.765625,0.90917971 1.886719,0.90917971 0.827148,0 1.305664,-0.4511719 0.478515,-0.44433594 0.478515,-1.3125 v -0.49902344 q -0.717773,0.79980469 -1.914062,0.79980469 -1.298828,0 -2.125977,-1.03222656 -0.820312,-1.03222659 -0.820312,-2.85742189 z m 1.654297,0.1435547 q 0,1.1142578 0.451172,1.7568359 0.458007,0.6357422 1.264648,0.6357422 1.004883,0 1.490234,-0.8613281 v -3.2539062 q -0.471679,-0.8408204 -1.476562,-0.8408204 -0.820313,0 -1.27832,0.6494141 -0.451172,0.6494141 -0.451172,1.9140625 z"
         id="path33" />
      <path
         d="m 70.916016,-7.3964844 0.04785,0.8544922 q 0.820313,-0.9912109 2.15332,-0.9912109 2.310547,0 2.351563,2.6455078 V 0 h -1.661133 v -4.7919922 q 0,-0.7041015 -0.307617,-1.0390625 -0.300781,-0.3417969 -0.991211,-0.3417969 -1.004883,0 -1.49707,0.9091797 V 0 h -1.661133 v -7.3964844 z"
         id="path35" />
      <path
         d="m 80.417969,0.13671875 q -1.579102,0 -2.563477,-0.99121094 -0.977539,-0.99804691 -0.977539,-2.65234371 v -0.2050782 q 0,-1.1074218 0.423828,-1.9755859 0.430664,-0.875 1.203125,-1.3603516 0.772461,-0.4853515 1.722656,-0.4853515 1.510743,0 2.331055,0.9638672 0.827149,0.9638672 0.827149,2.727539 v 0.6699219 h -4.833008 q 0.07519,0.9160156 0.608398,1.4492188 0.540039,0.5332031 1.353516,0.5332031 1.141601,0 1.859375,-0.9228516 l 0.895508,0.8544922 q -0.444336,0.66308594 -1.189453,1.03222656 -0.738282,0.36230469 -1.661133,0.36230469 z M 80.219727,-6.2001953 q -0.683594,0 -1.107422,0.4785156 -0.416993,0.4785156 -0.533203,1.3330078 h 3.165039 v -0.1230468 q -0.05469,-0.8339844 -0.444336,-1.2578125 -0.389649,-0.4306641 -1.080078,-0.4306641 z"
         id="path37" />
      <path
         d="m 88.545898,-5.8789062 q -0.328125,-0.054687 -0.676757,-0.054687 -1.141602,0 -1.538086,0.875 V 0 h -1.661133 v -7.3964844 h 1.585937 l 0.04102,0.8271485 q 0.601562,-0.9638672 1.667969,-0.9638672 0.355468,0 0.58789,0.095703 z"
         id="path39" />
      <path
         d="m 93.105469,-4.046875 q 0,-1.5791016 0.423828,-2.9941406 0.423828,-1.421875 1.24414,-2.5361328 0.820313,-1.1210936 1.736329,-1.5722656 l 0.328125,0.970703 q -0.963868,0.7314454 -1.56543,2.2353516 -0.594727,1.4970703 -0.649414,3.4316407 l -0.0068,0.5878906 q 0,2.071289 0.581055,3.69824216 0.58789,1.62011714 1.640625,2.46777344 L 96.509766,3.1650391 Q 95.59375,2.7138672 94.766602,1.5859375 93.946289,0.46484375 93.522461,-0.94335938 93.105469,-2.3583984 93.105469,-4.046875 Z"
         id="path41" />
      <path
         d="m 102.35449,0 h -1.65429 v -7.9912109 l -2.440434,0.8339843 v -1.4013672 l 3.882814,-1.4287109 h 0.21191 z"
         id="path43" />
      <path
         d="m 111.4873,-9.1943359 v 1.7978515 h 1.30567 v 1.2304688 h -1.30567 v 4.1289062 q 0,0.4238282 0.16407,0.6152344 0.1709,0.1845703 0.60156,0.1845703 0.28711,0 0.58105,-0.068359 v 1.28515629 q -0.56738,0.15722656 -1.09375,0.15722656 -1.91406,0 -1.91406,-2.11230465 v -4.1904297 h -1.21679 v -1.2304688 h 1.21679 v -1.7978515 z"
         id="path45" />
      <path
         d="m 113.54492,-3.7666016 q 0,-1.086914 0.43067,-1.9550781 0.43066,-0.875 1.20996,-1.3398437 0.77929,-0.4716797 1.79101,-0.4716797 1.49707,0 2.42676,0.9638672 0.93652,0.9638672 1.01172,2.5566406 l 0.007,0.3896484 q 0,1.09375 -0.42383,1.9550782 -0.417,0.86132807 -1.20313,1.33300776 -0.77929,0.47167969 -1.80469,0.47167969 -1.56543,0 -2.50878,-1.0390625 -0.93653,-1.04589845 -0.93653,-2.78222655 z m 1.66113,0.1435547 q 0,1.1416016 0.47168,1.7910157 0.47168,0.6425781 1.3125,0.6425781 0.84082,0 1.30567,-0.65625 0.47168,-0.65625 0.47168,-1.9208985 0,-1.1210937 -0.48535,-1.7773437 -0.47852,-0.65625 -1.30567,-0.65625 -0.81347,0 -1.29199,0.6494141 -0.47852,0.6425781 -0.47852,1.9277343 z"
         id="path47" />
      <path
         d="m 123.9082,-9.1943359 v 1.7978515 h 1.30567 v 1.2304688 h -1.30567 v 4.1289062 q 0,0.4238282 0.16407,0.6152344 0.17089,0.1845703 0.60156,0.1845703 0.28711,0 0.58105,-0.068359 v 1.28515629 q -0.56738,0.15722656 -1.09375,0.15722656 -1.91406,0 -1.91406,-2.11230465 v -4.1904297 h -1.2168 v -1.2304688 h 1.2168 v -1.7978515 z"
         id="path49" />
      <path
         d="m 130.90137,0 q -0.10938,-0.21191406 -0.19141,-0.69042969 -0.79297,0.82714844 -1.94141,0.82714844 -1.11425,0 -1.81835,-0.63574219 -0.70411,-0.63574216 -0.70411,-1.57226566 0,-1.1826172 0.875,-1.8115234 0.88184,-0.6357422 2.51563,-0.6357422 h 1.01855 v -0.4853515 q 0,-0.5742188 -0.32129,-0.9160157 -0.32128,-0.3486328 -0.97753,-0.3486328 -0.56739,0 -0.92969,0.2871094 -0.36231,0.2802734 -0.36231,0.7177734 h -1.66113 q 0,-0.6083984 0.40332,-1.1347656 0.40332,-0.5332031 1.09375,-0.8339844 0.69727,-0.3007812 1.55176,-0.3007812 1.29883,0 2.07129,0.65625 0.77246,0.649414 0.79297,1.8320312 v 3.3359375 q 0,0.9980469 0.28027,1.59277346 V 0 Z m -1.8252,-1.1962891 q 0.49219,0 0.92285,-0.2392578 0.4375,-0.2392578 0.65625,-0.6425781 v -1.3945313 h -0.8955 q -0.92286,0 -1.3877,0.3212891 -0.46484,0.3212891 -0.46484,0.9091797 0,0.4785156 0.31445,0.765625 0.32129,0.2802734 0.85449,0.2802734 z"
         id="path51" />
      <path
         d="m 135.82324,0 h -1.66113 v -10.5 h 1.66113 z"
         id="path53" />
      <path
         d="m 140.83398,-3.9375 q 0,1.5175781 -0.41699,2.9326172 -0.41699,1.40820311 -1.26465,2.5634765 -0.84765,1.1621094 -1.7705,1.6064454 l -0.32813,-0.9228516 q 1.02539,-0.7929688 1.62012,-2.41992187 0.60156,-1.63378903 0.60156,-3.72558593 v -0.1572266 q 0,-1.9003906 -0.51953,-3.4589843 -0.51953,-1.5654297 -1.49024,-2.5087888 l -0.21191,-0.191407 0.32813,-0.929687 q 0.875,0.423828 1.69531,1.5039062 0.82031,1.0800781 1.25781,2.4199219 0.4375,1.3330078 0.49219,2.7548828 z"
         id="path55" />
    </g>
  </g>
</svg>
