<svg xmlns="http://www.w3.org/2000/svg" width="1312" height="59" viewBox="0 0 1312 59"><g transform="translate(-54)"><path d="M0,0H1312V59H0Z" transform="translate(54)" fill="#fff"/><path d="M6.747-4.218H2.741V0H1.012V-9.953H7.335v1.395H2.741V-5.6H6.747ZM10.309,0H8.647V-10.5h1.661Zm1.5-3.767a4.361,4.361,0,0,1,.431-1.958,3.145,3.145,0,0,1,1.21-1.34,3.409,3.409,0,0,1,1.791-.468,3.231,3.231,0,0,1,2.43.964,3.791,3.791,0,0,1,1.008,2.557l.007.39a4.4,4.4,0,0,1-.42,1.955,3.108,3.108,0,0,1-1.2,1.333,3.434,3.434,0,0,1-1.808.472A3.209,3.209,0,0,1,12.746-.906a3.993,3.993,0,0,1-.94-2.779Zm1.661.144a2.98,2.98,0,0,0,.472,1.788,1.533,1.533,0,0,0,1.313.646,1.517,1.517,0,0,0,1.309-.656,3.292,3.292,0,0,0,.468-1.921,2.942,2.942,0,0,0-.482-1.777A1.539,1.539,0,0,0,15.237-6.2a1.525,1.525,0,0,0-1.292.646A3.23,3.23,0,0,0,13.467-3.623ZM26.585-2.29,27.761-7.4h1.62L27.364,0H26L24.411-5.079,22.853,0H21.485L19.462-7.4h1.62l1.2,5.052L23.8-7.4h1.251ZM34.139,0V-9.953h2.939a4.61,4.61,0,0,1,2.341.588A4.009,4.009,0,0,1,41-7.7a5.3,5.3,0,0,1,.561,2.475v.5A5.273,5.273,0,0,1,41-2.235,3.96,3.96,0,0,1,39.392-.581,4.824,4.824,0,0,1,37,0Zm1.729-8.559v7.178H37a2.6,2.6,0,0,0,2.088-.851,3.707,3.707,0,0,0,.742-2.444v-.554a3.8,3.8,0,0,0-.7-2.475,2.5,2.5,0,0,0-2.044-.854ZM46.382.137a3.437,3.437,0,0,1-2.56-.995,3.608,3.608,0,0,1-.981-2.649v-.205a4.438,4.438,0,0,1,.427-1.979,3.252,3.252,0,0,1,1.2-1.357,3.172,3.172,0,0,1,1.723-.485,2.9,2.9,0,0,1,2.334.964,4.076,4.076,0,0,1,.824,2.728v.67H44.516a2.221,2.221,0,0,0,.612,1.449,1.837,1.837,0,0,0,1.35.533,2.249,2.249,0,0,0,1.859-.923l.9.854A2.99,2.99,0,0,1,48.046-.229,3.713,3.713,0,0,1,46.382.137Zm-.2-6.337a1.4,1.4,0,0,0-1.1.479,2.48,2.48,0,0,0-.537,1.333h3.165v-.123a2.019,2.019,0,0,0-.444-1.261A1.388,1.388,0,0,0,46.184-6.2Zm8.6,4.19a.753.753,0,0,0-.366-.677A3.89,3.89,0,0,0,53.2-3.1a6.237,6.237,0,0,1-1.415-.451,1.889,1.889,0,0,1-1.244-1.743,1.969,1.969,0,0,1,.807-1.6A3.189,3.189,0,0,1,53.4-7.533a3.318,3.318,0,0,1,2.143.656,2.082,2.082,0,0,1,.817,1.7H54.7a1.024,1.024,0,0,0-.355-.8,1.362,1.362,0,0,0-.943-.318,1.472,1.472,0,0,0-.892.253.8.8,0,0,0-.345.677.673.673,0,0,0,.321.595,4.418,4.418,0,0,0,1.3.427,6.148,6.148,0,0,1,1.535.513,2.173,2.173,0,0,1,.827.714,1.822,1.822,0,0,1,.27,1.012A1.927,1.927,0,0,1,55.59-.482a3.527,3.527,0,0,1-2.167.619A3.825,3.825,0,0,1,51.8-.191a2.666,2.666,0,0,1-1.107-.9,2.136,2.136,0,0,1-.4-1.237h1.613a1.17,1.17,0,0,0,.444.906,1.727,1.727,0,0,0,1.087.318,1.68,1.68,0,0,0,1-.25A.772.772,0,0,0,54.783-2.01ZM59.63,0H57.969V-7.4H59.63ZM57.866-9.317a.882.882,0,0,1,.243-.636.917.917,0,0,1,.694-.253.928.928,0,0,1,.7.253.875.875,0,0,1,.246.636.855.855,0,0,1-.246.625.935.935,0,0,1-.7.25.924.924,0,0,1-.694-.25A.861.861,0,0,1,57.866-9.317Zm3.281,5.564a4.326,4.326,0,0,1,.81-2.751,2.6,2.6,0,0,1,2.15-1.029,2.436,2.436,0,0,1,1.989.882l.075-.745h1.5V-.226a2.981,2.981,0,0,1-.906,2.3,3.45,3.45,0,0,1-2.444.841,3.939,3.939,0,0,1-1.589-.338,2.824,2.824,0,0,1-1.179-.885l.786-1a2.374,2.374,0,0,0,1.887.909,1.835,1.835,0,0,0,1.306-.448,1.716,1.716,0,0,0,.479-1.316v-.5a2.446,2.446,0,0,1-1.914.8A2.594,2.594,0,0,1,61.971-.9,4.466,4.466,0,0,1,61.147-3.753Zm1.654.144a2.978,2.978,0,0,0,.455,1.753,1.462,1.462,0,0,0,1.261.639,1.6,1.6,0,0,0,1.49-.861V-5.332a1.576,1.576,0,0,0-1.477-.841,1.467,1.467,0,0,0-1.275.649A3.334,3.334,0,0,0,62.8-3.609ZM70.916-7.4l.048.854a2.659,2.659,0,0,1,2.153-.991q2.311,0,2.352,2.646V0H73.808V-4.792a1.523,1.523,0,0,0-.3-1.042,1.28,1.28,0,0,0-.995-.338,1.6,1.6,0,0,0-1.5.909V0H69.351V-7.4Zm9.5,7.533a3.437,3.437,0,0,1-2.56-.995,3.608,3.608,0,0,1-.981-2.649v-.205A4.438,4.438,0,0,1,77.3-5.691a3.252,3.252,0,0,1,1.2-1.357,3.172,3.172,0,0,1,1.723-.485,2.9,2.9,0,0,1,2.334.964,4.076,4.076,0,0,1,.824,2.728v.67H78.552a2.221,2.221,0,0,0,.612,1.449,1.837,1.837,0,0,0,1.35.533,2.249,2.249,0,0,0,1.859-.923l.9.854A2.99,2.99,0,0,1,82.083-.229,3.713,3.713,0,0,1,80.418.137ZM80.22-6.2a1.4,1.4,0,0,0-1.1.479,2.48,2.48,0,0,0-.537,1.333h3.165v-.123A2.019,2.019,0,0,0,81.3-5.773,1.388,1.388,0,0,0,80.22-6.2Zm8.326.321a4.111,4.111,0,0,0-.677-.055,1.524,1.524,0,0,0-1.538.875V0H84.67V-7.4h1.586l.041.827a1.872,1.872,0,0,1,1.668-.964,1.555,1.555,0,0,1,.588.1Zm4.56,1.832a10.417,10.417,0,0,1,.424-3,8.228,8.228,0,0,1,1.244-2.536,4.94,4.94,0,0,1,1.736-1.569l.328.971a5.074,5.074,0,0,0-1.562,2.232,10,10,0,0,0-.653,3.435l-.007.588A10.867,10.867,0,0,0,95.2-.229a5.446,5.446,0,0,0,1.637,2.471l-.328.923a4.948,4.948,0,0,1-1.74-1.576A8.226,8.226,0,0,1,93.526-.947,10.828,10.828,0,0,1,93.105-4.047ZM102.354,0H100.7V-8l-2.44.832V-8.559l3.883-1.429h.212Zm9.133-9.194v1.8h1.306v1.23h-1.306v4.129a.909.909,0,0,0,.167.612.777.777,0,0,0,.6.188,2.559,2.559,0,0,0,.581-.068V-.021a4.091,4.091,0,0,1-1.094.157q-1.914,0-1.914-2.112v-4.19h-1.217V-7.4h1.217v-1.8Zm2.058,5.428a4.361,4.361,0,0,1,.431-1.958,3.145,3.145,0,0,1,1.21-1.34,3.409,3.409,0,0,1,1.791-.468,3.231,3.231,0,0,1,2.43.964,3.791,3.791,0,0,1,1.008,2.557l.007.39A4.4,4.4,0,0,1,120-1.668a3.108,3.108,0,0,1-1.2,1.333,3.434,3.434,0,0,1-1.808.472,3.209,3.209,0,0,1-2.505-1.042,3.993,3.993,0,0,1-.94-2.779Zm1.661.144a2.98,2.98,0,0,0,.472,1.788,1.533,1.533,0,0,0,1.313.646,1.517,1.517,0,0,0,1.309-.656,3.292,3.292,0,0,0,.468-1.921,2.942,2.942,0,0,0-.482-1.777,1.539,1.539,0,0,0-1.309-.656,1.525,1.525,0,0,0-1.292.646A3.23,3.23,0,0,0,115.206-3.623Zm8.7-5.571v1.8h1.306v1.23h-1.306v4.129a.909.909,0,0,0,.167.612.777.777,0,0,0,.6.188,2.559,2.559,0,0,0,.581-.068V-.021a4.091,4.091,0,0,1-1.094.157q-1.914,0-1.914-2.112v-4.19H121.03V-7.4h1.217v-1.8ZM130.9,0a2.563,2.563,0,0,1-.191-.69,2.586,2.586,0,0,1-1.941.827A2.61,2.61,0,0,1,126.95-.5a2.034,2.034,0,0,1-.7-1.572,2.1,2.1,0,0,1,.878-1.815,4.257,4.257,0,0,1,2.512-.632h1.019V-5a1.3,1.3,0,0,0-.321-.919,1.274,1.274,0,0,0-.978-.345,1.463,1.463,0,0,0-.93.284.878.878,0,0,0-.362.721H126.4a1.844,1.844,0,0,1,.4-1.138,2.687,2.687,0,0,1,1.1-.831,3.854,3.854,0,0,1,1.548-.3,3.1,3.1,0,0,1,2.071.653,2.328,2.328,0,0,1,.793,1.835v3.336a3.781,3.781,0,0,0,.28,1.593V0Zm-1.825-1.2A1.89,1.89,0,0,0,130-1.436a1.6,1.6,0,0,0,.653-.643V-3.473h-.9a2.449,2.449,0,0,0-1.388.321,1.041,1.041,0,0,0-.465.909.971.971,0,0,0,.318.762A1.231,1.231,0,0,0,129.076-1.2ZM135.823,0h-1.661V-10.5h1.661Zm5.011-3.937a10.285,10.285,0,0,1-.417,2.929,8.3,8.3,0,0,1-1.265,2.57,4.952,4.952,0,0,1-1.771,1.6l-.328-.923a5.253,5.253,0,0,0,1.624-2.423,10.765,10.765,0,0,0,.6-3.722v-.157a10.923,10.923,0,0,0-.52-3.462,6.107,6.107,0,0,0-1.49-2.505l-.212-.191.328-.93a4.9,4.9,0,0,1,1.7,1.5,8.16,8.16,0,0,1,1.258,2.417,10.065,10.065,0,0,1,.492,2.758Z" transform="translate(70 35)" fill="#0c2339"/><path d="M11.324,1.016H10.156V.406a.406.406,0,0,0-.812,0v.609H3.656V.406a.406.406,0,0,0-.812,0v.609H1.676A1.678,1.678,0,0,0,0,2.691v8.633A1.678,1.678,0,0,0,1.676,13h9.648A1.678,1.678,0,0,0,13,11.324V2.691A1.678,1.678,0,0,0,11.324,1.016Zm.863,10.309a.863.863,0,0,1-.863.863H1.676a.863.863,0,0,1-.863-.863V4.6a.127.127,0,0,1,.127-.127H12.061a.127.127,0,0,1,.127.127Z" transform="translate(1312 23)" fill="#a5aabc"/></g></svg>