<svg xmlns="http://www.w3.org/2000/svg" width="53.733" height="38.741" viewBox="0 0 53.733 38.741">
  <g id="Group_1093" data-name="Group 1093" transform="translate(-190 -279)">
    <path id="Create_flow_bg" data-name="Create flow bg" d="M5,0H48.733a5,5,0,0,1,5,5V33.741a5,5,0,0,1-5,5H5a5,5,0,0,1-5-5V5A5,5,0,0,1,5,0Z" transform="translate(190 279)" fill="#f9e6e6"/>
    <path id="Create_flow_bg_-_Outline" data-name="Create flow bg - Outline" d="M5,.5A4.505,4.505,0,0,0,.5,5V33.741a4.505,4.505,0,0,0,4.5,4.5H48.733a4.505,4.505,0,0,0,4.5-4.5V5a4.505,4.505,0,0,0-4.5-4.5H5M5,0H48.733a5,5,0,0,1,5,5V33.741a5,5,0,0,1-5,5H5a5,5,0,0,1-5-5V5A5,5,0,0,1,5,0Z" transform="translate(190 279)" fill="#fe746e"/>
    <path id="Path_1115" data-name="Path 1115" d="M2.869-3.171H1.726V0H1.26V-3.171H.12v-.383H2.869ZM4.68,0a.949.949,0,0,1-.063-.278,1.008,1.008,0,0,1-.752.327.932.932,0,0,1-.641-.221.715.715,0,0,1-.25-.56.747.747,0,0,1,.314-.641A1.479,1.479,0,0,1,4.17-1.6h.439v-.208a.507.507,0,0,0-.142-.377.569.569,0,0,0-.417-.14.659.659,0,0,0-.405.122.36.36,0,0,0-.164.3H3.027a.623.623,0,0,1,.14-.382.958.958,0,0,1,.381-.292,1.281,1.281,0,0,1,.529-.107,1.044,1.044,0,0,1,.715.228.823.823,0,0,1,.269.629V-.618a1.486,1.486,0,0,0,.093.579V0Zm-.75-.344a.794.794,0,0,0,.4-.11A.665.665,0,0,0,4.609-.74v-.542H4.255q-.83,0-.83.486a.411.411,0,0,0,.142.332A.544.544,0,0,0,3.931-.344Zm2.576-.879-.283.3V0H5.771V-3.75h.452v2.268l.242-.291.823-.869h.549l-1.028,1.1L7.957,0h-.53ZM9.351.049A1.154,1.154,0,0,1,8.477-.3a1.309,1.309,0,0,1-.337-.944v-.083a1.585,1.585,0,0,1,.15-.7,1.171,1.171,0,0,1,.42-.483,1.056,1.056,0,0,1,.585-.175.989.989,0,0,1,.8.339,1.469,1.469,0,0,1,.286.972v.188H8.591A.939.939,0,0,0,8.82-.56a.718.718,0,0,0,.555.24.787.787,0,0,0,.405-.1,1.018,1.018,0,0,0,.291-.259l.276.215A1.109,1.109,0,0,1,9.351.049ZM9.294-2.319a.6.6,0,0,0-.459.2.967.967,0,0,0-.229.558H9.929V-1.6a.86.86,0,0,0-.186-.533A.567.567,0,0,0,9.294-2.319Zm3.271-.322.012.293a.976.976,0,0,1,.784-.342.755.755,0,0,1,.754.425,1,1,0,0,1,.343-.308,1.013,1.013,0,0,1,.5-.117q.869,0,.884.92V0h-.452V-1.743a.607.607,0,0,0-.129-.424.57.57,0,0,0-.435-.14.6.6,0,0,0-.417.15.609.609,0,0,0-.193.4V0h-.454V-1.731a.5.5,0,0,0-.564-.576.6.6,0,0,0-.608.378V0h-.452V-2.642ZM17.62.049A1.154,1.154,0,0,1,16.746-.3a1.309,1.309,0,0,1-.337-.944v-.083a1.585,1.585,0,0,1,.15-.7,1.171,1.171,0,0,1,.42-.483,1.056,1.056,0,0,1,.585-.175.989.989,0,0,1,.8.339,1.469,1.469,0,0,1,.286.972v.188H16.86a.939.939,0,0,0,.228.631.718.718,0,0,0,.555.24.787.787,0,0,0,.405-.1,1.018,1.018,0,0,0,.291-.259l.276.215A1.109,1.109,0,0,1,17.62.049Zm-.056-2.368a.6.6,0,0,0-.459.2.967.967,0,0,0-.229.558H18.2V-1.6a.86.86,0,0,0-.186-.533A.567.567,0,0,0,17.563-2.319Zm2.222-.962v.64h.493v.349h-.493v1.64a.367.367,0,0,0,.066.238.277.277,0,0,0,.225.079,1.094,1.094,0,0,0,.215-.029V0a1.317,1.317,0,0,1-.347.049.562.562,0,0,1-.457-.183.787.787,0,0,1-.154-.52V-2.292h-.481v-.349h.481v-.64ZM21.9.049A1.154,1.154,0,0,1,21.028-.3a1.309,1.309,0,0,1-.337-.944v-.083a1.585,1.585,0,0,1,.15-.7,1.171,1.171,0,0,1,.42-.483,1.056,1.056,0,0,1,.585-.175.989.989,0,0,1,.8.339,1.469,1.469,0,0,1,.286.972v.188h-1.79a.939.939,0,0,0,.228.631.718.718,0,0,0,.555.24.787.787,0,0,0,.405-.1,1.018,1.018,0,0,0,.291-.259l.276.215A1.109,1.109,0,0,1,21.9.049Zm-.056-2.368a.6.6,0,0,0-.459.2.967.967,0,0,0-.229.558H22.48V-1.6a.86.86,0,0,0-.186-.533A.567.567,0,0,0,21.846-2.319Zm2.886.083a1.354,1.354,0,0,0-.222-.017.6.6,0,0,0-.6.378V0h-.452V-2.642h.439l.007.305a.7.7,0,0,1,.63-.354.461.461,0,0,1,.2.034Zm2.93,0a1.354,1.354,0,0,0-.222-.017.6.6,0,0,0-.6.378V0h-.452V-2.642h.439l.007.305a.7.7,0,0,1,.63-.354.461.461,0,0,1,.2.034ZM29.126.049A1.154,1.154,0,0,1,28.252-.3a1.309,1.309,0,0,1-.337-.944v-.083a1.585,1.585,0,0,1,.15-.7,1.171,1.171,0,0,1,.42-.483,1.056,1.056,0,0,1,.585-.175.989.989,0,0,1,.8.339,1.469,1.469,0,0,1,.286.972v.188h-1.79a.939.939,0,0,0,.228.631.718.718,0,0,0,.555.24.787.787,0,0,0,.405-.1,1.018,1.018,0,0,0,.291-.259l.276.215A1.109,1.109,0,0,1,29.126.049ZM29.07-2.319a.6.6,0,0,0-.459.2.967.967,0,0,0-.229.558H29.7V-1.6a.86.86,0,0,0-.186-.533A.567.567,0,0,0,29.07-2.319ZM32.31,0a.949.949,0,0,1-.063-.278,1.008,1.008,0,0,1-.752.327.932.932,0,0,1-.641-.221.715.715,0,0,1-.25-.56.747.747,0,0,1,.314-.641A1.479,1.479,0,0,1,31.8-1.6h.439v-.208a.507.507,0,0,0-.142-.377.569.569,0,0,0-.417-.14.659.659,0,0,0-.405.122.36.36,0,0,0-.164.3h-.454a.623.623,0,0,1,.14-.382.958.958,0,0,1,.381-.292,1.281,1.281,0,0,1,.529-.107,1.044,1.044,0,0,1,.715.228.823.823,0,0,1,.269.629V-.618a1.486,1.486,0,0,0,.093.579V0Zm-.75-.344a.794.794,0,0,0,.4-.11.665.665,0,0,0,.276-.286v-.542h-.354q-.83,0-.83.486a.411.411,0,0,0,.142.332A.544.544,0,0,0,31.56-.344Zm1.729-1a1.547,1.547,0,0,1,.288-.978.911.911,0,0,1,.754-.37.916.916,0,0,1,.735.317V-3.75h.452V0H35.1l-.022-.283a.92.92,0,0,1-.754.332.9.9,0,0,1-.748-.376,1.565,1.565,0,0,1-.289-.981Zm.452.051a1.172,1.172,0,0,0,.186.7.6.6,0,0,0,.513.254.659.659,0,0,0,.627-.386V-1.934a.664.664,0,0,0-.623-.374.6.6,0,0,0-.518.256A1.29,1.29,0,0,0,33.74-1.292ZM36.709,0h-.452V-2.642h.452Zm-.488-3.342a.27.27,0,0,1,.067-.186.252.252,0,0,1,.2-.076.256.256,0,0,1,.2.076.267.267,0,0,1,.068.186.258.258,0,0,1-.068.183.261.261,0,0,1-.2.073.257.257,0,0,1-.2-.073A.261.261,0,0,1,36.221-3.342Zm1.638.7.015.332a.963.963,0,0,1,.791-.381q.837,0,.845.945V0h-.452V-1.748a.608.608,0,0,0-.131-.422.523.523,0,0,0-.4-.137.652.652,0,0,0-.386.117.8.8,0,0,0-.259.308V0h-.452V-2.642Zm2.224,1.3a1.553,1.553,0,0,1,.286-.983.914.914,0,0,1,.757-.365.909.909,0,0,1,.754.342l.022-.293h.413V-.063a1.075,1.075,0,0,1-.3.808,1.122,1.122,0,0,1-.817.3,1.359,1.359,0,0,1-.559-.122.962.962,0,0,1-.417-.334l.234-.271a.883.883,0,0,0,.71.359.692.692,0,0,0,.514-.186.709.709,0,0,0,.184-.522V-.264a.928.928,0,0,1-.74.313.9.9,0,0,1-.751-.374A1.632,1.632,0,0,1,40.083-1.343Zm.454.051a1.184,1.184,0,0,0,.183.7.6.6,0,0,0,.513.255.662.662,0,0,0,.627-.388V-1.929a.669.669,0,0,0-.623-.378.6.6,0,0,0-.515.256A1.29,1.29,0,0,0,40.537-1.292ZM1.973,6a.949.949,0,0,1-.063-.278,1.008,1.008,0,0,1-.752.327.932.932,0,0,1-.641-.221.715.715,0,0,1-.25-.56A.747.747,0,0,1,.58,4.627,1.479,1.479,0,0,1,1.462,4.4H1.9V4.191a.507.507,0,0,0-.142-.377.569.569,0,0,0-.417-.14A.659.659,0,0,0,.938,3.8a.36.36,0,0,0-.164.3H.32a.623.623,0,0,1,.14-.382.958.958,0,0,1,.381-.292A1.281,1.281,0,0,1,1.37,3.31a1.044,1.044,0,0,1,.715.228.823.823,0,0,1,.269.629V5.382a1.486,1.486,0,0,0,.093.579V6Zm-.75-.344a.794.794,0,0,0,.4-.11A.665.665,0,0,0,1.9,5.26V4.718H1.548q-.83,0-.83.486a.411.411,0,0,0,.142.332A.544.544,0,0,0,1.223,5.656Zm2.266-2.3L3.5,3.69a.963.963,0,0,1,.791-.381q.837,0,.845.945V6H4.688V4.252a.608.608,0,0,0-.131-.422.523.523,0,0,0-.4-.137.652.652,0,0,0-.386.117.8.8,0,0,0-.259.308V6H3.062V3.358Zm2.222,1.3A1.547,1.547,0,0,1,6,3.679a.98.98,0,0,1,1.489-.052V2.25h.452V6H7.524L7.5,5.717a.92.92,0,0,1-.754.332A.9.9,0,0,1,6,5.673a1.565,1.565,0,0,1-.289-.981Zm.452.051a1.172,1.172,0,0,0,.186.7.6.6,0,0,0,.513.254.659.659,0,0,0,.627-.386V4.066a.664.664,0,0,0-.623-.374.6.6,0,0,0-.518.256A1.29,1.29,0,0,0,6.162,4.708Zm5.347,1.03a.959.959,0,0,1-.774.31.821.821,0,0,1-.643-.245,1.062,1.062,0,0,1-.223-.726V3.358h.452V5.065q0,.6.488.6A.676.676,0,0,0,11.5,5.28V3.358h.452V6h-.43Zm3.357-1.03a1.582,1.582,0,0,1-.276.972.884.884,0,0,1-.747.369.969.969,0,0,1-.757-.305V7.016h-.452V3.358h.413l.022.293a.93.93,0,0,1,.767-.342.9.9,0,0,1,.753.359,1.6,1.6,0,0,1,.277,1Zm-.452-.051a1.167,1.167,0,0,0-.19-.706.613.613,0,0,0-.522-.259.664.664,0,0,0-.615.364V5.319a.665.665,0,0,0,.62.361.611.611,0,0,0,.516-.258A1.274,1.274,0,0,0,14.414,4.657ZM15.93,6h-.452V2.25h.452Zm.6-1.345a1.56,1.56,0,0,1,.153-.7,1.138,1.138,0,0,1,.425-.479,1.156,1.156,0,0,1,.621-.168,1.114,1.114,0,0,1,.873.374,1.437,1.437,0,0,1,.333.994v.032a1.574,1.574,0,0,1-.148.692,1.122,1.122,0,0,1-.422.477,1.17,1.17,0,0,1-.631.171,1.111,1.111,0,0,1-.87-.374,1.43,1.43,0,0,1-.333-.989Zm.454.054a1.13,1.13,0,0,0,.2.706.691.691,0,0,0,1.093,0,1.236,1.236,0,0,0,.2-.756,1.128,1.128,0,0,0-.206-.7.656.656,0,0,0-.548-.27.649.649,0,0,0-.54.266A1.227,1.227,0,0,0,16.987,4.708ZM21.135,6a.949.949,0,0,1-.063-.278,1.008,1.008,0,0,1-.752.327.932.932,0,0,1-.641-.221.715.715,0,0,1-.25-.56.747.747,0,0,1,.314-.641,1.479,1.479,0,0,1,.883-.228h.439V4.191a.507.507,0,0,0-.142-.377.569.569,0,0,0-.417-.14A.659.659,0,0,0,20.1,3.8a.36.36,0,0,0-.164.3h-.454a.623.623,0,0,1,.14-.382A.958.958,0,0,1,20,3.417a1.281,1.281,0,0,1,.529-.107,1.044,1.044,0,0,1,.715.228.823.823,0,0,1,.269.629V5.382a1.486,1.486,0,0,0,.093.579V6Zm-.75-.344a.794.794,0,0,0,.4-.11.665.665,0,0,0,.276-.286V4.718H20.71q-.83,0-.83.486a.411.411,0,0,0,.142.332A.544.544,0,0,0,20.386,5.656Zm1.729-1a1.547,1.547,0,0,1,.288-.978.98.98,0,0,1,1.489-.052V2.25h.452V6h-.415l-.022-.283a.92.92,0,0,1-.754.332.9.9,0,0,1-.748-.376,1.565,1.565,0,0,1-.289-.981Zm.452.051a1.172,1.172,0,0,0,.186.7.6.6,0,0,0,.513.254.659.659,0,0,0,.627-.386V4.066a.664.664,0,0,0-.623-.374.6.6,0,0,0-.518.256A1.29,1.29,0,0,0,22.566,4.708Zm4.329-1.99v.64h.493v.349h-.493v1.64a.367.367,0,0,0,.066.238.277.277,0,0,0,.225.079,1.094,1.094,0,0,0,.215-.029V6a1.317,1.317,0,0,1-.347.049.562.562,0,0,1-.457-.183.787.787,0,0,1-.154-.52V3.708h-.481V3.358h.481v-.64Zm.852,1.936a1.56,1.56,0,0,1,.153-.7,1.138,1.138,0,0,1,.425-.479,1.156,1.156,0,0,1,.621-.168,1.114,1.114,0,0,1,.873.374,1.437,1.437,0,0,1,.333.994v.032A1.574,1.574,0,0,1,30,5.4a1.122,1.122,0,0,1-.422.477,1.17,1.17,0,0,1-.631.171,1.111,1.111,0,0,1-.87-.374,1.43,1.43,0,0,1-.333-.989Zm.454.054a1.13,1.13,0,0,0,.2.706.691.691,0,0,0,1.093,0,1.236,1.236,0,0,0,.2-.756,1.128,1.128,0,0,0-.206-.7.656.656,0,0,0-.548-.27.649.649,0,0,0-.54.266A1.227,1.227,0,0,0,28.2,4.708Z" transform="translate(192.09 290.116)" fill="#0c2339"/>
    <path id="Path_1056" data-name="Path 1056" d="M4.159,0A4.159,4.159,0,1,1,0,4.159,4.159,4.159,0,0,1,4.159,0Z" transform="translate(221.95 307)" fill="#fe746e"/>
    <path id="Path_1057" data-name="Path 1057" d="M1.424,0H1.061V-2.408l-.729.268v-.328l1.035-.389h.057Z" transform="translate(224.809 312.3)" fill="#fff"/>
    <path id="Path_1058" data-name="Path 1058" d="M4.159,0A4.159,4.159,0,1,1,0,4.159,4.159,4.159,0,0,1,4.159,0Z" transform="translate(233.596 307)" fill="#3cca8e"/>
    <path id="Path_1059" data-name="Path 1059" d="M1.762-.955h.395V-.66H1.762V0H1.4V-.66H.1V-.873L1.377-2.844h.385Zm-1.248,0H1.4V-2.35l-.043.078Z" transform="translate(236.456 312.3)" fill="#fff"/>
  </g>
</svg>
