<?xml version="1.0" encoding="UTF-8" standalone="no"?>
<svg
   width="1319"
   height="678.743"
   viewBox="0 0 1319 678.743"
   version="1.1"
   id="svg244"
   sodipodi:docname="slide7.svg"
   xmlns:inkscape="http://www.inkscape.org/namespaces/inkscape"
   xmlns:sodipodi="http://sodipodi.sourceforge.net/DTD/sodipodi-0.dtd"
   xmlns="http://www.w3.org/2000/svg"
   xmlns:svg="http://www.w3.org/2000/svg">
  <defs
     id="defs248" />
  <sodipodi:namedview
     id="namedview246"
     pagecolor="#ffffff"
     bordercolor="#666666"
     borderopacity="1.0"
     inkscape:pageshadow="2"
     inkscape:pageopacity="0.0"
     inkscape:pagecheckerboard="0" />
  <g
     transform="translate(-47.5,-73)"
     id="g242">
    <path
       id="rect2"
       transform="translate(54,120)"
       style="fill:#f8fafb"
       d="M 0,0 H 1312 V 587 H 0 Z" />
    <path
       id="line4"
       transform="translate(47.5,706.5)"
       style="fill:none;stroke:#dfe2e8"
       d="M 0,0 H 1319" />
    <path
       id="rect6"
       transform="translate(49,99)"
       style="fill:#ffffff"
       d="M 0,0 H 1317 V 21 H 0 Z" />
    <g
       aria-label="Start"
       transform="translate(146,147)"
       id="text10"
       style="font-size:14px;font-family:Roboto-Regular, Roboto;fill:#0c2339">
      <path
         d="M 4.0878906,-4.4365234 Q 2.3994141,-4.921875 1.6269531,-5.6259766 q -0.76562497,-0.7109375 -0.76562497,-1.75 0,-1.1757812 0.93652347,-1.9414062 0.9433593,-0.7724612 2.4472656,-0.7724612 1.0253906,0 1.8251953,0.3964846 0.8066406,0.3964844 1.2441406,1.09375 0.444336,0.6972657 0.444336,1.5244141 h -1.319336 q 0,-0.9023438 -0.5742187,-1.4150391 -0.5742188,-0.5195312 -1.6201172,-0.5195312 -0.9707031,0 -1.5175781,0.430664 Q 2.1875,-8.1552734 2.1875,-7.3964844 q 0,0.6083985 0.5126953,1.0322266 0.5195313,0.4169922 1.7568359,0.765625 1.2441407,0.3486328 1.9414063,0.7724609 0.7041016,0.4169922 1.0390625,0.9775391 0.3417969,0.5605469 0.3417969,1.3193359 0,1.209961 -0.9433594,1.94140628 -0.9433594,0.72460937 -2.5224609,0.72460937 -1.0253907,0 -1.9140625,-0.38964844 Q 1.5107422,-0.64941406 1.0253906,-1.3330078 0.546875,-2.0166016 0.546875,-2.8847656 h 1.3193359 q 0,0.9023437 0.663086,1.4287109 0.6699219,0.51953126 1.7841797,0.51953126 1.0390625,0 1.5927734,-0.42382816 0.5537109,-0.4238281 0.5537109,-1.1552734 0,-0.7314453 -0.5126953,-1.1279297 -0.5126953,-0.4033203 -1.859375,-0.7929687 z"
         id="path253" />
      <path
         d="m 10.978516,-9.1875 v 1.7910156 h 1.380859 v 0.9775391 h -1.380859 v 4.5869141 q 0,0.4443359 0.18457,0.6699218 0.18457,0.21875002 0.628906,0.21875002 0.21875,0 0.601563,-0.0820312 V 0 q -0.499024,0.13671875 -0.970703,0.13671875 -0.847657,0 -1.278321,-0.51269531 Q 9.7138672,-0.88867188 9.7138672,-1.8320312 V -6.4189453 H 8.3671875 V -7.3964844 H 9.7138672 V -9.1875 Z"
         id="path255" />
      <path
         d="m 18.402344,0 q -0.109375,-0.21875 -0.177735,-0.77929687 -0.881836,0.91601562 -2.105468,0.91601562 -1.09375,0 -1.797852,-0.61523438 -0.697266,-0.62207027 -0.697266,-1.57226567 0,-1.1552734 0.875,-1.7910156 0.881836,-0.6425781 2.47461,-0.6425781 h 1.230469 v -0.5810547 q 0,-0.6630859 -0.396485,-1.0527344 -0.396484,-0.3964843 -1.168945,-0.3964843 -0.676758,0 -1.134766,0.3417968 -0.458008,0.3417969 -0.458008,0.8271485 h -1.271484 q 0,-0.553711 0.389649,-1.0664063 0.396484,-0.5195312 1.066406,-0.8203125 0.676758,-0.3007812 1.483398,-0.3007812 1.27832,0 2.00293,0.6425781 0.724609,0.6357422 0.751953,1.7568359 v 3.4042969 q 0,1.0185547 0.259766,1.6201172 V 0 Z m -2.098633,-0.96386719 q 0.594726,0 1.12793,-0.30761721 0.533203,-0.3076172 0.772461,-0.7998047 v -1.5175781 h -0.991211 q -2.324219,0 -2.324219,1.3603516 0,0.5947265 0.396484,0.9296875 0.396485,0.33496091 1.018555,0.33496091 z"
         id="path257" />
      <path
         d="m 25.026367,-6.2617187 q -0.287109,-0.047852 -0.62207,-0.047852 -1.244141,0 -1.688477,1.0595703 V 0 h -1.264648 v -7.3964844 h 1.230469 l 0.02051,0.8544922 q 0.622071,-0.9912109 1.763672,-0.9912109 0.369141,0 0.560547,0.095703 z"
         id="path259" />
      <path
         d="m 28.246094,-9.1875 v 1.7910156 h 1.380859 v 0.9775391 h -1.380859 v 4.5869141 q 0,0.4443359 0.18457,0.6699218 0.18457,0.21875002 0.628906,0.21875002 0.21875,0 0.601563,-0.0820312 V 0 q -0.499024,0.13671875 -0.970703,0.13671875 -0.847657,0 -1.278321,-0.51269531 -0.430664,-0.51269532 -0.430664,-1.45605464 v -4.5869141 h -1.346679 v -0.9775391 h 1.346679 V -9.1875 Z"
         id="path261" />
    </g>
    <g
       aria-label="New Lane"
       transform="translate(569,147)"
       id="text14"
       style="font-size:14px;font-family:Roboto-Regular, Roboto;fill:#0c2339">
      <path
         d="M 8.8046875,0 H 7.4853516 L 2.4746094,-7.6699219 V 0 h -1.319336 v -9.953125 h 1.319336 l 5.024414,7.7041016 V -9.953125 h 1.3056641 z"
         id="path264" />
      <path
         d="m 14.006836,0.13671875 q -1.503906,0 -2.447266,-0.984375 -0.943359,-0.99121095 -0.943359,-2.64550785 v -0.2324218 q 0,-1.100586 0.416992,-1.9619141 0.423828,-0.8681641 1.175781,-1.3535156 0.758789,-0.4921875 1.640625,-0.4921875 1.442383,0 2.242188,0.9501953 0.799805,0.9501953 0.799805,2.7207031 v 0.5263672 h -5.010743 q 0.02734,1.09375 0.635743,1.7705078 0.615234,0.66992189 1.558593,0.66992189 0.669922,0 1.134766,-0.27343749 0.464844,-0.2734375 0.813476,-0.7246094 l 0.772461,0.6015625 Q 15.866211,0.13671875 14.006836,0.13671875 Z M 13.849609,-6.4941406 q -0.765625,0 -1.285156,0.5605469 -0.519531,0.5537109 -0.642578,1.5585937 h 3.705078 v -0.095703 q -0.05469,-0.9638672 -0.519531,-1.4902344 -0.464844,-0.5332031 -1.257813,-0.5332031 z"
         id="path266" />
      <path
         d="m 24.90332,-1.7431641 1.421875,-5.6533203 h 1.264649 L 25.436523,0 h -1.02539 L 22.613281,-5.6054687 20.863281,0 h -1.02539 l -2.146485,-7.3964844 h 1.257813 l 1.456054,5.5371094 1.722657,-5.5371094 h 1.018554 z"
         id="path268" />
      <path
         d="m 33.858398,-1.0732422 h 4.716797 V 0 h -6.036133 v -9.953125 h 1.319336 z"
         id="path270" />
      <path
         d="m 44.44043,0 q -0.109375,-0.21875 -0.177735,-0.77929687 -0.881836,0.91601562 -2.105468,0.91601562 -1.09375,0 -1.797852,-0.61523438 -0.697266,-0.62207027 -0.697266,-1.57226567 0,-1.1552734 0.875,-1.7910156 0.881836,-0.6425781 2.47461,-0.6425781 h 1.230468 v -0.5810547 q 0,-0.6630859 -0.396484,-1.0527344 -0.396484,-0.3964843 -1.168945,-0.3964843 -0.676758,0 -1.134766,0.3417968 -0.458008,0.3417969 -0.458008,0.8271485 H 39.8125 q 0,-0.553711 0.389648,-1.0664063 0.396485,-0.5195312 1.066407,-0.8203125 0.676757,-0.3007812 1.483398,-0.3007812 1.27832,0 2.00293,0.6425781 0.724609,0.6357422 0.751953,1.7568359 v 3.4042969 q 0,1.0185547 0.259766,1.6201172 V 0 Z m -2.098633,-0.96386719 q 0.594726,0 1.12793,-0.30761721 0.533203,-0.3076172 0.77246,-0.7998047 v -1.5175781 h -0.99121 q -2.324219,0 -2.324219,1.3603516 0,0.5947265 0.396484,0.9296875 0.396485,0.33496091 1.018555,0.33496091 z"
         id="path272" />
      <path
         d="m 48.685547,-7.3964844 0.04102,0.9296875 q 0.847657,-1.0664062 2.214844,-1.0664062 2.344727,0 2.365235,2.6455078 V 0 h -1.264649 v -4.8945312 q -0.0068,-0.7998047 -0.36914,-1.1826172 -0.355469,-0.3828125 -1.114258,-0.3828125 -0.615235,0 -1.080078,0.328125 -0.464844,0.328125 -0.72461,0.8613281 V 0 h -1.264648 v -7.3964844 z"
         id="path274" />
      <path
         d="m 58.283203,0.13671875 q -1.503906,0 -2.447266,-0.984375 -0.943359,-0.99121095 -0.943359,-2.64550785 v -0.2324218 q 0,-1.100586 0.416992,-1.9619141 0.423828,-0.8681641 1.175782,-1.3535156 0.758789,-0.4921875 1.640625,-0.4921875 1.442382,0 2.242187,0.9501953 0.799805,0.9501953 0.799805,2.7207031 v 0.5263672 h -5.010742 q 0.02734,1.09375 0.635742,1.7705078 0.615234,0.66992189 1.558593,0.66992189 0.669922,0 1.134766,-0.27343749 0.464844,-0.2734375 0.813477,-0.7246094 l 0.772461,0.6015625 Q 60.142578,0.13671875 58.283203,0.13671875 Z M 58.125977,-6.4941406 q -0.765625,0 -1.285157,0.5605469 -0.519531,0.5537109 -0.642578,1.5585937 h 3.705078 v -0.095703 q -0.05469,-0.9638672 -0.519531,-1.4902344 -0.464844,-0.5332031 -1.257812,-0.5332031 z"
         id="path276" />
    </g>
    <g
       aria-label="New Lane"
       transform="translate(353,147)"
       id="text18"
       style="font-size:14px;font-family:Roboto-Regular, Roboto;fill:#0c2339">
      <path
         d="M 8.8046875,0 H 7.4853516 L 2.4746094,-7.6699219 V 0 h -1.319336 v -9.953125 h 1.319336 l 5.024414,7.7041016 V -9.953125 h 1.3056641 z"
         id="path279" />
      <path
         d="m 14.006836,0.13671875 q -1.503906,0 -2.447266,-0.984375 -0.943359,-0.99121095 -0.943359,-2.64550785 v -0.2324218 q 0,-1.100586 0.416992,-1.9619141 0.423828,-0.8681641 1.175781,-1.3535156 0.758789,-0.4921875 1.640625,-0.4921875 1.442383,0 2.242188,0.9501953 0.799805,0.9501953 0.799805,2.7207031 v 0.5263672 h -5.010743 q 0.02734,1.09375 0.635743,1.7705078 0.615234,0.66992189 1.558593,0.66992189 0.669922,0 1.134766,-0.27343749 0.464844,-0.2734375 0.813476,-0.7246094 l 0.772461,0.6015625 Q 15.866211,0.13671875 14.006836,0.13671875 Z M 13.849609,-6.4941406 q -0.765625,0 -1.285156,0.5605469 -0.519531,0.5537109 -0.642578,1.5585937 h 3.705078 v -0.095703 q -0.05469,-0.9638672 -0.519531,-1.4902344 -0.464844,-0.5332031 -1.257813,-0.5332031 z"
         id="path281" />
      <path
         d="m 24.90332,-1.7431641 1.421875,-5.6533203 h 1.264649 L 25.436523,0 h -1.02539 L 22.613281,-5.6054687 20.863281,0 h -1.02539 l -2.146485,-7.3964844 h 1.257813 l 1.456054,5.5371094 1.722657,-5.5371094 h 1.018554 z"
         id="path283" />
      <path
         d="m 33.858398,-1.0732422 h 4.716797 V 0 h -6.036133 v -9.953125 h 1.319336 z"
         id="path285" />
      <path
         d="m 44.44043,0 q -0.109375,-0.21875 -0.177735,-0.77929687 -0.881836,0.91601562 -2.105468,0.91601562 -1.09375,0 -1.797852,-0.61523438 -0.697266,-0.62207027 -0.697266,-1.57226567 0,-1.1552734 0.875,-1.7910156 0.881836,-0.6425781 2.47461,-0.6425781 h 1.230468 v -0.5810547 q 0,-0.6630859 -0.396484,-1.0527344 -0.396484,-0.3964843 -1.168945,-0.3964843 -0.676758,0 -1.134766,0.3417968 -0.458008,0.3417969 -0.458008,0.8271485 H 39.8125 q 0,-0.553711 0.389648,-1.0664063 0.396485,-0.5195312 1.066407,-0.8203125 0.676757,-0.3007812 1.483398,-0.3007812 1.27832,0 2.00293,0.6425781 0.724609,0.6357422 0.751953,1.7568359 v 3.4042969 q 0,1.0185547 0.259766,1.6201172 V 0 Z m -2.098633,-0.96386719 q 0.594726,0 1.12793,-0.30761721 0.533203,-0.3076172 0.77246,-0.7998047 v -1.5175781 h -0.99121 q -2.324219,0 -2.324219,1.3603516 0,0.5947265 0.396484,0.9296875 0.396485,0.33496091 1.018555,0.33496091 z"
         id="path287" />
      <path
         d="m 48.685547,-7.3964844 0.04102,0.9296875 q 0.847657,-1.0664062 2.214844,-1.0664062 2.344727,0 2.365235,2.6455078 V 0 h -1.264649 v -4.8945312 q -0.0068,-0.7998047 -0.36914,-1.1826172 -0.355469,-0.3828125 -1.114258,-0.3828125 -0.615235,0 -1.080078,0.328125 -0.464844,0.328125 -0.72461,0.8613281 V 0 h -1.264648 v -7.3964844 z"
         id="path289" />
      <path
         d="m 58.283203,0.13671875 q -1.503906,0 -2.447266,-0.984375 -0.943359,-0.99121095 -0.943359,-2.64550785 v -0.2324218 q 0,-1.100586 0.416992,-1.9619141 0.423828,-0.8681641 1.175782,-1.3535156 0.758789,-0.4921875 1.640625,-0.4921875 1.442382,0 2.242187,0.9501953 0.799805,0.9501953 0.799805,2.7207031 v 0.5263672 h -5.010742 q 0.02734,1.09375 0.635742,1.7705078 0.615234,0.66992189 1.558593,0.66992189 0.669922,0 1.134766,-0.27343749 0.464844,-0.2734375 0.813477,-0.7246094 l 0.772461,0.6015625 Q 60.142578,0.13671875 58.283203,0.13671875 Z M 58.125977,-6.4941406 q -0.765625,0 -1.285157,0.5605469 -0.519531,0.5537109 -0.642578,1.5585937 h 3.705078 v -0.095703 q -0.05469,-0.9638672 -0.519531,-1.4902344 -0.464844,-0.5332031 -1.257812,-0.5332031 z"
         id="path291" />
    </g>
    <g
       aria-label="New Lane"
       transform="translate(793,147)"
       id="text22"
       style="font-size:14px;font-family:Roboto-Regular, Roboto;fill:#0c2339">
      <path
         d="M 8.8046875,0 H 7.4853516 L 2.4746094,-7.6699219 V 0 h -1.319336 v -9.953125 h 1.319336 l 5.024414,7.7041016 V -9.953125 h 1.3056641 z"
         id="path294" />
      <path
         d="m 14.006836,0.13671875 q -1.503906,0 -2.447266,-0.984375 -0.943359,-0.99121095 -0.943359,-2.64550785 v -0.2324218 q 0,-1.100586 0.416992,-1.9619141 0.423828,-0.8681641 1.175781,-1.3535156 0.758789,-0.4921875 1.640625,-0.4921875 1.442383,0 2.242188,0.9501953 0.799805,0.9501953 0.799805,2.7207031 v 0.5263672 h -5.010743 q 0.02734,1.09375 0.635743,1.7705078 0.615234,0.66992189 1.558593,0.66992189 0.669922,0 1.134766,-0.27343749 0.464844,-0.2734375 0.813476,-0.7246094 l 0.772461,0.6015625 Q 15.866211,0.13671875 14.006836,0.13671875 Z M 13.849609,-6.4941406 q -0.765625,0 -1.285156,0.5605469 -0.519531,0.5537109 -0.642578,1.5585937 h 3.705078 v -0.095703 q -0.05469,-0.9638672 -0.519531,-1.4902344 -0.464844,-0.5332031 -1.257813,-0.5332031 z"
         id="path296" />
      <path
         d="m 24.90332,-1.7431641 1.421875,-5.6533203 h 1.264649 L 25.436523,0 h -1.02539 L 22.613281,-5.6054687 20.863281,0 h -1.02539 l -2.146485,-7.3964844 h 1.257813 l 1.456054,5.5371094 1.722657,-5.5371094 h 1.018554 z"
         id="path298" />
      <path
         d="m 33.858398,-1.0732422 h 4.716797 V 0 h -6.036133 v -9.953125 h 1.319336 z"
         id="path300" />
      <path
         d="m 44.44043,0 q -0.109375,-0.21875 -0.177735,-0.77929687 -0.881836,0.91601562 -2.105468,0.91601562 -1.09375,0 -1.797852,-0.61523438 -0.697266,-0.62207027 -0.697266,-1.57226567 0,-1.1552734 0.875,-1.7910156 0.881836,-0.6425781 2.47461,-0.6425781 h 1.230468 v -0.5810547 q 0,-0.6630859 -0.396484,-1.0527344 -0.396484,-0.3964843 -1.168945,-0.3964843 -0.676758,0 -1.134766,0.3417968 -0.458008,0.3417969 -0.458008,0.8271485 H 39.8125 q 0,-0.553711 0.389648,-1.0664063 0.396485,-0.5195312 1.066407,-0.8203125 0.676757,-0.3007812 1.483398,-0.3007812 1.27832,0 2.00293,0.6425781 0.724609,0.6357422 0.751953,1.7568359 v 3.4042969 q 0,1.0185547 0.259766,1.6201172 V 0 Z m -2.098633,-0.96386719 q 0.594726,0 1.12793,-0.30761721 0.533203,-0.3076172 0.77246,-0.7998047 v -1.5175781 h -0.99121 q -2.324219,0 -2.324219,1.3603516 0,0.5947265 0.396484,0.9296875 0.396485,0.33496091 1.018555,0.33496091 z"
         id="path302" />
      <path
         d="m 48.685547,-7.3964844 0.04102,0.9296875 q 0.847657,-1.0664062 2.214844,-1.0664062 2.344727,0 2.365235,2.6455078 V 0 h -1.264649 v -4.8945312 q -0.0068,-0.7998047 -0.36914,-1.1826172 -0.355469,-0.3828125 -1.114258,-0.3828125 -0.615235,0 -1.080078,0.328125 -0.464844,0.328125 -0.72461,0.8613281 V 0 h -1.264648 v -7.3964844 z"
         id="path304" />
      <path
         d="m 58.283203,0.13671875 q -1.503906,0 -2.447266,-0.984375 -0.943359,-0.99121095 -0.943359,-2.64550785 v -0.2324218 q 0,-1.100586 0.416992,-1.9619141 0.423828,-0.8681641 1.175782,-1.3535156 0.758789,-0.4921875 1.640625,-0.4921875 1.442382,0 2.242187,0.9501953 0.799805,0.9501953 0.799805,2.7207031 v 0.5263672 h -5.010742 q 0.02734,1.09375 0.635742,1.7705078 0.615234,0.66992189 1.558593,0.66992189 0.669922,0 1.134766,-0.27343749 0.464844,-0.2734375 0.813477,-0.7246094 l 0.772461,0.6015625 Q 60.142578,0.13671875 58.283203,0.13671875 Z M 58.125977,-6.4941406 q -0.765625,0 -1.285157,0.5605469 -0.519531,0.5537109 -0.642578,1.5585937 h 3.705078 v -0.095703 q -0.05469,-0.9638672 -0.519531,-1.4902344 -0.464844,-0.5332031 -1.257812,-0.5332031 z"
         id="path306" />
    </g>
    <g
       aria-label="New Lane"
       transform="translate(1001,147)"
       id="text26"
       style="font-size:14px;font-family:Roboto-Regular, Roboto;fill:#0c2339">
      <path
         d="M 8.8046875,0 H 7.4853516 L 2.4746094,-7.6699219 V 0 h -1.319336 v -9.953125 h 1.319336 l 5.024414,7.7041016 V -9.953125 h 1.3056641 z"
         id="path309" />
      <path
         d="m 14.006836,0.13671875 q -1.503906,0 -2.447266,-0.984375 -0.943359,-0.99121095 -0.943359,-2.64550785 v -0.2324218 q 0,-1.100586 0.416992,-1.9619141 0.423828,-0.8681641 1.175781,-1.3535156 0.758789,-0.4921875 1.640625,-0.4921875 1.442383,0 2.242188,0.9501953 0.799805,0.9501953 0.799805,2.7207031 v 0.5263672 h -5.010743 q 0.02734,1.09375 0.635743,1.7705078 0.615234,0.66992189 1.558593,0.66992189 0.669922,0 1.134766,-0.27343749 0.464844,-0.2734375 0.813476,-0.7246094 l 0.772461,0.6015625 Q 15.866211,0.13671875 14.006836,0.13671875 Z M 13.849609,-6.4941406 q -0.765625,0 -1.285156,0.5605469 -0.519531,0.5537109 -0.642578,1.5585937 h 3.705078 v -0.095703 q -0.05469,-0.9638672 -0.519531,-1.4902344 -0.464844,-0.5332031 -1.257813,-0.5332031 z"
         id="path311" />
      <path
         d="m 24.90332,-1.7431641 1.421875,-5.6533203 h 1.264649 L 25.436523,0 h -1.02539 L 22.613281,-5.6054687 20.863281,0 h -1.02539 l -2.146485,-7.3964844 h 1.257813 l 1.456054,5.5371094 1.722657,-5.5371094 h 1.018554 z"
         id="path313" />
      <path
         d="m 33.858398,-1.0732422 h 4.716797 V 0 h -6.036133 v -9.953125 h 1.319336 z"
         id="path315" />
      <path
         d="m 44.44043,0 q -0.109375,-0.21875 -0.177735,-0.77929687 -0.881836,0.91601562 -2.105468,0.91601562 -1.09375,0 -1.797852,-0.61523438 -0.697266,-0.62207027 -0.697266,-1.57226567 0,-1.1552734 0.875,-1.7910156 0.881836,-0.6425781 2.47461,-0.6425781 h 1.230468 v -0.5810547 q 0,-0.6630859 -0.396484,-1.0527344 -0.396484,-0.3964843 -1.168945,-0.3964843 -0.676758,0 -1.134766,0.3417968 -0.458008,0.3417969 -0.458008,0.8271485 H 39.8125 q 0,-0.553711 0.389648,-1.0664063 0.396485,-0.5195312 1.066407,-0.8203125 0.676757,-0.3007812 1.483398,-0.3007812 1.27832,0 2.00293,0.6425781 0.724609,0.6357422 0.751953,1.7568359 v 3.4042969 q 0,1.0185547 0.259766,1.6201172 V 0 Z m -2.098633,-0.96386719 q 0.594726,0 1.12793,-0.30761721 0.533203,-0.3076172 0.77246,-0.7998047 v -1.5175781 h -0.99121 q -2.324219,0 -2.324219,1.3603516 0,0.5947265 0.396484,0.9296875 0.396485,0.33496091 1.018555,0.33496091 z"
         id="path317" />
      <path
         d="m 48.685547,-7.3964844 0.04102,0.9296875 q 0.847657,-1.0664062 2.214844,-1.0664062 2.344727,0 2.365235,2.6455078 V 0 h -1.264649 v -4.8945312 q -0.0068,-0.7998047 -0.36914,-1.1826172 -0.355469,-0.3828125 -1.114258,-0.3828125 -0.615235,0 -1.080078,0.328125 -0.464844,0.328125 -0.72461,0.8613281 V 0 h -1.264648 v -7.3964844 z"
         id="path319" />
      <path
         d="m 58.283203,0.13671875 q -1.503906,0 -2.447266,-0.984375 -0.943359,-0.99121095 -0.943359,-2.64550785 v -0.2324218 q 0,-1.100586 0.416992,-1.9619141 0.423828,-0.8681641 1.175782,-1.3535156 0.758789,-0.4921875 1.640625,-0.4921875 1.442382,0 2.242187,0.9501953 0.799805,0.9501953 0.799805,2.7207031 v 0.5263672 h -5.010742 q 0.02734,1.09375 0.635742,1.7705078 0.615234,0.66992189 1.558593,0.66992189 0.669922,0 1.134766,-0.27343749 0.464844,-0.2734375 0.813477,-0.7246094 l 0.772461,0.6015625 Q 60.142578,0.13671875 58.283203,0.13671875 Z M 58.125977,-6.4941406 q -0.765625,0 -1.285157,0.5605469 -0.519531,0.5537109 -0.642578,1.5585937 h 3.705078 v -0.095703 q -0.05469,-0.9638672 -0.519531,-1.4902344 -0.464844,-0.5332031 -1.257812,-0.5332031 z"
         id="path321" />
    </g>
    <g
       aria-label="test1"
       transform="translate(667,114)"
       id="text30"
       style="font-weight:500;font-size:14px;font-family:Roboto-Medium, Roboto;fill:#1f6cb6">
      <path
         d="m 2.9326172,-9.1943359 v 1.7978515 h 1.305664 v 1.2304688 h -1.305664 v 4.1289062 q 0,0.4238282 0.1640625,0.6152344 0.1708984,0.1845703 0.6015625,0.1845703 0.2871094,0 0.5810547,-0.068359 v 1.28515629 q -0.5673828,0.15722656 -1.09375,0.15722656 -1.9140625,0 -1.9140625,-2.11230465 V -6.1660156 H 0.0546875 v -1.2304688 h 1.2167969 v -1.7978515 z"
         id="path324" />
      <path
         d="m 8.7636719,0.13671875 q -1.5791016,0 -2.5634766,-0.99121094 Q 5.2226562,-1.8525391 5.2226562,-3.5068359 v -0.2050782 q 0,-1.1074218 0.4238282,-1.9755859 0.430664,-0.875 1.203125,-1.3603516 0.7724609,-0.4853515 1.7226562,-0.4853515 1.5107424,0 2.3310544,0.9638672 0.827149,0.9638672 0.827149,2.727539 V -3.171875 H 6.8974609 q 0.075195,0.9160156 0.6083985,1.4492188 0.540039,0.5332031 1.3535156,0.5332031 1.141602,0 1.859375,-0.9228516 l 0.895508,0.8544922 Q 11.169922,-0.59472656 10.424805,-0.22558594 9.6865234,0.13671875 8.7636719,0.13671875 Z M 8.5654297,-6.2001953 q -0.6835938,0 -1.1074219,0.4785156 -0.4169922,0.4785156 -0.5332031,1.3330078 H 10.089844 V -4.5117187 Q 10.035156,-5.3457031 9.6455078,-5.7695312 9.2558594,-6.2001953 8.5654297,-6.2001953 Z"
         id="path326" />
      <path
         d="m 17.165039,-2.0097656 q 0,-0.444336 -0.369141,-0.6767578 -0.362304,-0.2324219 -1.20996,-0.4101563 -0.847657,-0.1777344 -1.41504,-0.4511719 -1.24414,-0.6015625 -1.24414,-1.743164 0,-0.9570313 0.80664,-1.5996094 0.806641,-0.6425781 2.050782,-0.6425781 1.326172,0 2.139648,0.65625 0.820313,0.65625 0.820313,1.7021484 h -1.661133 q 0,-0.4785156 -0.355469,-0.7929687 -0.355469,-0.3212891 -0.943359,-0.3212891 -0.546875,0 -0.895508,0.2529297 -0.341797,0.2529297 -0.341797,0.6767578 0,0.3828125 0.321289,0.5947266 0.321289,0.211914 1.298828,0.430664 0.977539,0.2119141 1.53125,0.5126953 0.560547,0.2939453 0.827149,0.7109375 0.273437,0.4169922 0.273437,1.0117188 0,0.9980469 -0.827148,1.62011717 -0.827149,0.61523438 -2.166992,0.61523438 -0.90918,0 -1.620118,-0.328125 -0.710937,-0.328125 -1.107422,-0.90234375 -0.396484,-0.5742187 -0.396484,-1.2373047 h 1.613281 q 0.03418,0.5878906 0.444336,0.9091797 0.410157,0.3144531 1.086914,0.3144531 0.65625,0 0.998047,-0.2460937 0.341797,-0.2529297 0.341797,-0.65625 z"
         id="path328" />
      <path
         d="m 22.326172,-9.1943359 v 1.7978515 h 1.305664 v 1.2304688 h -1.305664 v 4.1289062 q 0,0.4238282 0.164062,0.6152344 0.170899,0.1845703 0.601563,0.1845703 0.287109,0 0.581055,-0.068359 v 1.28515629 q -0.567383,0.15722656 -1.09375,0.15722656 -1.914063,0 -1.914063,-2.11230465 v -4.1904297 h -1.216797 v -1.2304688 h 1.216797 v -1.7978515 z"
         id="path330" />
      <path
         d="m 29.291992,0 h -1.654297 v -7.9912109 l -2.440429,0.8339843 v -1.4013672 l 3.882812,-1.4287109 h 0.211914 z"
         id="path332" />
    </g>
    <g
       aria-label="Flows"
       transform="translate(70,86)"
       id="text34"
       style="font-weight:500;font-size:14px;font-family:Roboto-Medium, Roboto;fill:#0c2339">
      <path
         d="M 6.7470703,-4.2177734 H 2.7412109 V 0 H 1.0117187 v -9.953125 h 6.3232422 v 1.3945312 h -4.59375 v 2.959961 h 4.0058594 z"
         id="path335" />
      <path
         d="M 10.308594,0 H 8.6474609 v -10.5 h 1.6611331 z"
         id="path337" />
      <path
         d="m 11.805664,-3.7666016 q 0,-1.086914 0.430664,-1.9550781 0.430664,-0.875 1.209961,-1.3398437 0.779297,-0.4716797 1.791016,-0.4716797 1.49707,0 2.426757,0.9638672 0.936524,0.9638672 1.011719,2.5566406 l 0.0068,0.3896484 q 0,1.09375 -0.423828,1.9550782 -0.416992,0.86132807 -1.203125,1.33300776 -0.779297,0.47167969 -1.804687,0.47167969 -1.56543,0 -2.508789,-1.0390625 -0.936524,-1.04589845 -0.936524,-2.78222655 z m 1.661133,0.1435547 q 0,1.1416016 0.47168,1.7910157 0.471679,0.6425781 1.3125,0.6425781 0.84082,0 1.305664,-0.65625 0.471679,-0.65625 0.471679,-1.9208985 0,-1.1210937 -0.485351,-1.7773437 -0.478516,-0.65625 -1.305664,-0.65625 -0.813477,0 -1.291992,0.6494141 -0.478516,0.6425781 -0.478516,1.9277343 z"
         id="path339" />
      <path
         d="m 26.584961,-2.2900391 1.175781,-5.1064453 h 1.620117 L 27.364258,0 H 25.99707 L 24.411133,-5.0791016 22.852539,0 h -1.367187 l -2.023438,-7.3964844 h 1.620117 l 1.196289,5.0517578 1.517578,-5.0517578 h 1.250977 z"
         id="path341" />
      <path
         d="m 34.637695,-2.0097656 q 0,-0.444336 -0.36914,-0.6767578 -0.362305,-0.2324219 -1.209961,-0.4101563 -0.847657,-0.1777344 -1.415039,-0.4511719 -1.244141,-0.6015625 -1.244141,-1.743164 0,-0.9570313 0.806641,-1.5996094 0.80664,-0.6425781 2.050781,-0.6425781 1.326172,0 2.139648,0.65625 0.820313,0.65625 0.820313,1.7021484 h -1.661133 q 0,-0.4785156 -0.355469,-0.7929687 -0.355468,-0.3212891 -0.943359,-0.3212891 -0.546875,0 -0.895508,0.2529297 -0.341797,0.2529297 -0.341797,0.6767578 0,0.3828125 0.321289,0.5947266 0.321289,0.211914 1.298828,0.430664 0.977539,0.2119141 1.53125,0.5126953 0.560547,0.2939453 0.827149,0.7109375 0.273437,0.4169922 0.273437,1.0117188 0,0.9980469 -0.827148,1.62011717 -0.827149,0.61523438 -2.166992,0.61523438 -0.90918,0 -1.620117,-0.328125 Q 30.946289,-0.51953125 30.549805,-1.09375 30.15332,-1.6679687 30.15332,-2.3310547 h 1.613282 q 0.03418,0.5878906 0.444335,0.9091797 0.410157,0.3144531 1.086915,0.3144531 0.65625,0 0.998046,-0.2460937 0.341797,-0.2529297 0.341797,-0.65625 z"
         id="path343" />
    </g>
    <g
       aria-label="test1"
       transform="translate(129,86)"
       id="text38"
       style="font-weight:500;font-size:14px;font-family:Roboto-Medium, Roboto;fill:#0c2339">
      <path
         d="m 2.9326172,-9.1943359 v 1.7978515 h 1.305664 v 1.2304688 h -1.305664 v 4.1289062 q 0,0.4238282 0.1640625,0.6152344 0.1708984,0.1845703 0.6015625,0.1845703 0.2871094,0 0.5810547,-0.068359 v 1.28515629 q -0.5673828,0.15722656 -1.09375,0.15722656 -1.9140625,0 -1.9140625,-2.11230465 V -6.1660156 H 0.0546875 v -1.2304688 h 1.2167969 v -1.7978515 z"
         id="path346" />
      <path
         d="m 8.7636719,0.13671875 q -1.5791016,0 -2.5634766,-0.99121094 Q 5.2226562,-1.8525391 5.2226562,-3.5068359 v -0.2050782 q 0,-1.1074218 0.4238282,-1.9755859 0.430664,-0.875 1.203125,-1.3603516 0.7724609,-0.4853515 1.7226562,-0.4853515 1.5107424,0 2.3310544,0.9638672 0.827149,0.9638672 0.827149,2.727539 V -3.171875 H 6.8974609 q 0.075195,0.9160156 0.6083985,1.4492188 0.540039,0.5332031 1.3535156,0.5332031 1.141602,0 1.859375,-0.9228516 l 0.895508,0.8544922 Q 11.169922,-0.59472656 10.424805,-0.22558594 9.6865234,0.13671875 8.7636719,0.13671875 Z M 8.5654297,-6.2001953 q -0.6835938,0 -1.1074219,0.4785156 -0.4169922,0.4785156 -0.5332031,1.3330078 H 10.089844 V -4.5117187 Q 10.035156,-5.3457031 9.6455078,-5.7695312 9.2558594,-6.2001953 8.5654297,-6.2001953 Z"
         id="path348" />
      <path
         d="m 17.165039,-2.0097656 q 0,-0.444336 -0.369141,-0.6767578 -0.362304,-0.2324219 -1.20996,-0.4101563 -0.847657,-0.1777344 -1.41504,-0.4511719 -1.24414,-0.6015625 -1.24414,-1.743164 0,-0.9570313 0.80664,-1.5996094 0.806641,-0.6425781 2.050782,-0.6425781 1.326172,0 2.139648,0.65625 0.820313,0.65625 0.820313,1.7021484 h -1.661133 q 0,-0.4785156 -0.355469,-0.7929687 -0.355469,-0.3212891 -0.943359,-0.3212891 -0.546875,0 -0.895508,0.2529297 -0.341797,0.2529297 -0.341797,0.6767578 0,0.3828125 0.321289,0.5947266 0.321289,0.211914 1.298828,0.430664 0.977539,0.2119141 1.53125,0.5126953 0.560547,0.2939453 0.827149,0.7109375 0.273437,0.4169922 0.273437,1.0117188 0,0.9980469 -0.827148,1.62011717 -0.827149,0.61523438 -2.166992,0.61523438 -0.90918,0 -1.620118,-0.328125 -0.710937,-0.328125 -1.107422,-0.90234375 -0.396484,-0.5742187 -0.396484,-1.2373047 h 1.613281 q 0.03418,0.5878906 0.444336,0.9091797 0.410157,0.3144531 1.086914,0.3144531 0.65625,0 0.998047,-0.2460937 0.341797,-0.2529297 0.341797,-0.65625 z"
         id="path350" />
      <path
         d="m 22.326172,-9.1943359 v 1.7978515 h 1.305664 v 1.2304688 h -1.305664 v 4.1289062 q 0,0.4238282 0.164062,0.6152344 0.170899,0.1845703 0.601563,0.1845703 0.287109,0 0.581055,-0.068359 v 1.28515629 q -0.567383,0.15722656 -1.09375,0.15722656 -1.914063,0 -1.914063,-2.11230465 v -4.1904297 h -1.216797 v -1.2304688 h 1.216797 v -1.7978515 z"
         id="path352" />
      <path
         d="m 29.291992,0 h -1.654297 v -7.9912109 l -2.440429,0.8339843 v -1.4013672 l 3.882812,-1.4287109 h 0.211914 z"
         id="path354" />
    </g>
    <g
       aria-label="Edit"
       transform="translate(183,86)"
       id="text42"
       style="font-weight:500;font-size:14px;font-family:Roboto-Medium, Roboto;fill:#0c2339">
      <path
         d="M 6.8291016,-4.4433594 H 2.7412109 v 3.0625 H 7.5195312 V 0 H 1.0117187 v -9.953125 h 6.459961 v 1.3945312 H 2.7412109 v 2.7480469 h 4.0878907 z"
         id="path357" />
      <path
         d="m 8.3261719,-3.7529297 q 0,-1.7089844 0.7929687,-2.7412109 0.7929688,-1.0390625 2.1259764,-1.0390625 1.175781,0 1.900391,0.8203125 V -10.5 h 1.661133 V 0 h -1.503907 l -0.08203,-0.765625 q -0.745117,0.90234375 -1.989258,0.90234375 -1.2988278,0 -2.1054684,-1.04589844 Q 8.3261719,-1.9550781 8.3261719,-3.7529297 Z m 1.6611328,0.1435547 q 0,1.1279297 0.4306643,1.7636719 0.4375,0.6289062 1.237304,0.6289062 1.018555,0 1.490235,-0.9091797 v -3.1582031 q -0.458008,-0.8886719 -1.476563,-0.8886719 -0.80664,0 -1.24414,0.6425782 -0.4375003,0.6357422 -0.4375003,1.9208984 z"
         id="path359" />
      <path
         d="m 18.306641,0 h -1.661133 v -7.3964844 h 1.661133 z m -1.763672,-9.3173828 q 0,-0.3828125 0.239258,-0.6357422 0.246093,-0.25293 0.697265,-0.25293 0.451172,0 0.697266,0.25293 0.246094,0.2529297 0.246094,0.6357422 0,0.3759765 -0.246094,0.6289062 -0.246094,0.2460938 -0.697266,0.2460938 -0.451172,0 -0.697265,-0.2460938 -0.239258,-0.2529297 -0.239258,-0.6289062 z"
         id="path361" />
      <path
         d="m 22.196289,-9.1943359 v 1.7978515 h 1.305664 v 1.2304688 h -1.305664 v 4.1289062 q 0,0.4238282 0.164063,0.6152344 0.170898,0.1845703 0.601562,0.1845703 0.287109,0 0.581055,-0.068359 v 1.28515629 q -0.567383,0.15722656 -1.09375,0.15722656 -1.914063,0 -1.914063,-2.11230465 v -4.1904297 h -1.216797 v -1.2304688 h 1.216797 v -1.7978515 z"
         id="path363" />
    </g>
    <g
       transform="translate(61.804,78.379)"
       id="g46">
      <path
         d="M 57.845,3.233 54.714,0.1 a 0.35355339,0.35355339 0 1 0 -0.5,0.5 L 57.1,3.481 54.216,6.362 a 0.35355339,0.35355339 0 1 0 0.5,0.5 l 3.131,-3.13 A 0.355,0.355 0 0 0 57.845,3.233 Z"
         id="path44" />
    </g>
    <g
       transform="translate(115.804,78.379)"
       id="g50">
      <path
         d="M 57.845,3.233 54.714,0.1 a 0.35355339,0.35355339 0 1 0 -0.5,0.5 L 57.1,3.481 54.216,6.362 a 0.35355339,0.35355339 0 1 0 0.5,0.5 l 3.131,-3.13 A 0.355,0.355 0 0 0 57.845,3.233 Z"
         id="path48" />
    </g>
    <path
       d="M 0,0 H 1312"
       transform="translate(54,99.341)"
       fill="none"
       stroke="rgba(165,170,188,0.25)"
       stroke-width="0.5"
       id="path52" />
    <g
       transform="translate(222.625)"
       id="g64">
      <g
         transform="translate(88,180.341)"
         fill="#ffffff"
         stroke="rgba(165,170,188,0.5)"
         stroke-width="0.5"
         id="g58">
        <path
           id="rect54"
           d="m 5,0 h 136.75 c 2.77,0 5,2.23 5,5 v 47 c 0,2.77 -2.23,5 -5,5 H 5 C 2.23,57 0,54.77 0,52 V 5 C 0,2.23 2.23,0 5,0 Z" />
        <path
           id="rect56"
           style="fill:none"
           d="m 5,0.25 h 136.75 c 2.6315,0 4.75,2.1185 4.75,4.75 v 47 c 0,2.6315 -2.1185,4.75 -4.75,4.75 H 5 C 2.3685,56.75 0.25,54.6315 0.25,52 V 5 C 0.25,2.3685 2.3685,0.25 5,0.25 Z" />
      </g>
      <g
         aria-label="Step 2"
         transform="translate(95,197)"
         id="text62"
         style="font-size:11px;font-family:Roboto-Regular, Roboto;fill:#0c2339">
        <path
           d="m 3.2119141,-3.4858398 q -1.3266602,-0.3813477 -1.9335938,-0.9345704 -0.60156249,-0.5585937 -0.60156249,-1.375 0,-0.9238281 0.73583989,-1.5253906 0.7412109,-0.6069336 1.9228515,-0.6069336 0.8056641,0 1.434082,0.3115235 0.6337891,0.3115234 0.9775391,0.859375 0.3491211,0.5478515 0.3491211,1.1977539 H 5.0595703 q 0,-0.7089844 -0.4511719,-1.1118164 -0.4511718,-0.4082032 -1.2729492,-0.4082032 -0.7626953,0 -1.1923828,0.3383789 -0.4243164,0.3330079 -0.4243164,0.9291993 0,0.4780273 0.402832,0.8110351 0.4082032,0.3276367 1.3803711,0.6015625 0.9775391,0.2739258 1.5253906,0.6069336 0.5532227,0.3276367 0.8164063,0.7680664 0.2685547,0.4404297 0.2685547,1.0366211 0,0.9506836 -0.741211,1.52539064 -0.7412109,0.56933593 -1.9819335,0.56933593 -0.8056641,0 -1.5039063,-0.30615234 Q 1.1870117,-0.51025391 0.80566406,-1.0473633 0.4296875,-1.5844727 0.4296875,-2.2666016 h 1.0366211 q 0,0.7089844 0.5209961,1.1225586 0.5263672,0.40820316 1.4018555,0.40820316 0.8164062,0 1.2514648,-0.33300786 0.4350586,-0.3330078 0.4350586,-0.9077148 0,-0.574707 -0.402832,-0.8862305 -0.4028321,-0.3168945 -1.4609375,-0.6230468 z"
           id="path368" />
        <path
           d="m 8.6259766,-7.21875 v 1.4072266 H 9.7109375 V -5.043457 H 8.6259766 v 3.6040039 q 0,0.3491211 0.1450195,0.52636716 0.1450195,0.171875 0.4941406,0.171875 0.171875,0 0.4726563,-0.0644531 V 0 q -0.3920899,0.10742187 -0.7626953,0.10742187 -0.6660157,0 -1.0043946,-0.40283203 Q 7.6323242,-0.69824219 7.6323242,-1.4394531 V -5.043457 H 6.5742187 V -5.8115234 H 7.6323242 V -7.21875 Z"
           id="path370" />
        <path
           d="m 13.282715,0.10742187 q -1.181641,0 -1.922852,-0.77343749 -0.741211,-0.77880858 -0.741211,-2.07861328 v -0.1826172 q 0,-0.8647461 0.327637,-1.5415039 0.333008,-0.6821289 0.923828,-1.0634766 0.596192,-0.3867187 1.289063,-0.3867187 1.1333,0 1.761718,0.746582 0.628418,0.7465821 0.628418,2.1376953 v 0.4135742 h -3.937011 q 0.02148,0.8593751 0.499511,1.3911133 0.483399,0.52636722 1.22461,0.52636722 0.526367,0 0.891601,-0.21484375 0.365235,-0.21484377 0.639161,-0.56933597 l 0.606933,0.4726563 Q 14.743652,0.10742187 13.282715,0.10742187 Z M 13.15918,-5.1025391 q -0.601563,0 -1.009766,0.4404297 -0.408203,0.4350586 -0.504883,1.2246094 h 2.911133 v -0.075195 q -0.04297,-0.7573242 -0.408203,-1.1708984 -0.365234,-0.4189454 -0.988281,-0.4189454 z"
           id="path372" />
        <path
           d="m 21.60791,-2.8413086 q 0,1.3266602 -0.606933,2.13769532 -0.606934,0.81103515 -1.643555,0.81103515 -1.058106,0 -1.665039,-0.67138671 V 2.234375 H 16.69873 v -8.0458984 h 0.907715 l 0.04834,0.6445312 q 0.606934,-0.7519531 1.686524,-0.7519531 1.047363,0 1.654296,0.7895508 0.612305,0.7895508 0.612305,2.1967773 z m -0.993652,-0.112793 q 0,-0.9829101 -0.418946,-1.5522461 -0.418945,-0.5693359 -1.149414,-0.5693359 -0.902343,0 -1.353515,0.800293 v 2.7768554 q 0.445801,0.79492192 1.364258,0.79492192 0.714355,0 1.1333,-0.56396482 0.424317,-0.569336 0.424317,-1.6865235 z"
           id="path374" />
        <path
           d="M 30.615234,0 H 25.491211 V -0.71435547 L 28.198242,-3.722168 q 0.601563,-0.6821289 0.827149,-1.1064453 0.230957,-0.4296875 0.230957,-0.8862304 0,-0.6123047 -0.370606,-1.0043946 -0.370605,-0.3920898 -0.988281,-0.3920898 -0.741211,0 -1.154785,0.4243164 -0.408203,0.4189453 -0.408203,1.1708984 H 25.34082 q 0,-1.0795898 0.692871,-1.7456054 0.698243,-0.6660157 1.86377,-0.6660157 1.090332,0 1.724121,0.5747071 0.633789,0.5693359 0.633789,1.5200195 0,1.1547851 -1.47168,2.75 l -2.094726,2.27197264 h 3.926269 z"
           id="path376" />
      </g>
    </g>
    <g
       transform="translate(438.625)"
       id="g76">
      <g
         transform="translate(88,180.341)"
         fill="#ffffff"
         stroke="rgba(165,170,188,0.5)"
         stroke-width="0.5"
         id="g70">
        <path
           id="rect66"
           d="m 5,0 h 136.75 c 2.77,0 5,2.23 5,5 v 47 c 0,2.77 -2.23,5 -5,5 H 5 C 2.23,57 0,54.77 0,52 V 5 C 0,2.23 2.23,0 5,0 Z" />
        <path
           id="rect68"
           style="fill:none"
           d="m 5,0.25 h 136.75 c 2.6315,0 4.75,2.1185 4.75,4.75 v 47 c 0,2.6315 -2.1185,4.75 -4.75,4.75 H 5 C 2.3685,56.75 0.25,54.6315 0.25,52 V 5 C 0.25,2.3685 2.3685,0.25 5,0.25 Z" />
      </g>
      <g
         aria-label="Step 4"
         transform="translate(95,197)"
         id="text74"
         style="font-size:11px;font-family:Roboto-Regular, Roboto;fill:#0c2339">
        <path
           d="m 3.2119141,-3.4858398 q -1.3266602,-0.3813477 -1.9335938,-0.9345704 -0.60156249,-0.5585937 -0.60156249,-1.375 0,-0.9238281 0.73583989,-1.5253906 0.7412109,-0.6069336 1.9228515,-0.6069336 0.8056641,0 1.434082,0.3115235 0.6337891,0.3115234 0.9775391,0.859375 0.3491211,0.5478515 0.3491211,1.1977539 H 5.0595703 q 0,-0.7089844 -0.4511719,-1.1118164 -0.4511718,-0.4082032 -1.2729492,-0.4082032 -0.7626953,0 -1.1923828,0.3383789 -0.4243164,0.3330079 -0.4243164,0.9291993 0,0.4780273 0.402832,0.8110351 0.4082032,0.3276367 1.3803711,0.6015625 0.9775391,0.2739258 1.5253906,0.6069336 0.5532227,0.3276367 0.8164063,0.7680664 0.2685547,0.4404297 0.2685547,1.0366211 0,0.9506836 -0.741211,1.52539064 -0.7412109,0.56933593 -1.9819335,0.56933593 -0.8056641,0 -1.5039063,-0.30615234 Q 1.1870117,-0.51025391 0.80566406,-1.0473633 0.4296875,-1.5844727 0.4296875,-2.2666016 h 1.0366211 q 0,0.7089844 0.5209961,1.1225586 0.5263672,0.40820316 1.4018555,0.40820316 0.8164062,0 1.2514648,-0.33300786 0.4350586,-0.3330078 0.4350586,-0.9077148 0,-0.574707 -0.402832,-0.8862305 -0.4028321,-0.3168945 -1.4609375,-0.6230468 z"
           id="path381" />
        <path
           d="m 8.6259766,-7.21875 v 1.4072266 H 9.7109375 V -5.043457 H 8.6259766 v 3.6040039 q 0,0.3491211 0.1450195,0.52636716 0.1450195,0.171875 0.4941406,0.171875 0.171875,0 0.4726563,-0.0644531 V 0 q -0.3920899,0.10742187 -0.7626953,0.10742187 -0.6660157,0 -1.0043946,-0.40283203 Q 7.6323242,-0.69824219 7.6323242,-1.4394531 V -5.043457 H 6.5742187 V -5.8115234 H 7.6323242 V -7.21875 Z"
           id="path383" />
        <path
           d="m 13.282715,0.10742187 q -1.181641,0 -1.922852,-0.77343749 -0.741211,-0.77880858 -0.741211,-2.07861328 v -0.1826172 q 0,-0.8647461 0.327637,-1.5415039 0.333008,-0.6821289 0.923828,-1.0634766 0.596192,-0.3867187 1.289063,-0.3867187 1.1333,0 1.761718,0.746582 0.628418,0.7465821 0.628418,2.1376953 v 0.4135742 h -3.937011 q 0.02148,0.8593751 0.499511,1.3911133 0.483399,0.52636722 1.22461,0.52636722 0.526367,0 0.891601,-0.21484375 0.365235,-0.21484377 0.639161,-0.56933597 l 0.606933,0.4726563 Q 14.743652,0.10742187 13.282715,0.10742187 Z M 13.15918,-5.1025391 q -0.601563,0 -1.009766,0.4404297 -0.408203,0.4350586 -0.504883,1.2246094 h 2.911133 v -0.075195 q -0.04297,-0.7573242 -0.408203,-1.1708984 -0.365234,-0.4189454 -0.988281,-0.4189454 z"
           id="path385" />
        <path
           d="m 21.60791,-2.8413086 q 0,1.3266602 -0.606933,2.13769532 -0.606934,0.81103515 -1.643555,0.81103515 -1.058106,0 -1.665039,-0.67138671 V 2.234375 H 16.69873 v -8.0458984 h 0.907715 l 0.04834,0.6445312 q 0.606934,-0.7519531 1.686524,-0.7519531 1.047363,0 1.654296,0.7895508 0.612305,0.7895508 0.612305,2.1967773 z m -0.993652,-0.112793 q 0,-0.9829101 -0.418946,-1.5522461 -0.418945,-0.5693359 -1.149414,-0.5693359 -0.902343,0 -1.353515,0.800293 v 2.7768554 q 0.445801,0.79492192 1.364258,0.79492192 0.714355,0 1.1333,-0.56396482 0.424317,-0.569336 0.424317,-1.6865235 z"
           id="path387" />
        <path
           d="m 29.686035,-2.6264648 h 1.084961 v 0.8110351 H 29.686035 V 0 h -0.999023 v -1.8154297 h -3.561035 v -0.5854492 l 3.501953,-5.4194336 h 1.058105 z m -3.432129,0 h 2.433106 v -3.834961 l -0.118164,0.2148438 z"
           id="path389" />
      </g>
    </g>
    <g
       transform="translate(662.625)"
       id="g88">
      <g
         transform="translate(88,180.341)"
         fill="#ffffff"
         stroke="rgba(165,170,188,0.5)"
         stroke-width="0.5"
         id="g82">
        <path
           id="rect78"
           d="m 5,0 h 136.75 c 2.77,0 5,2.23 5,5 v 47 c 0,2.77 -2.23,5 -5,5 H 5 C 2.23,57 0,54.77 0,52 V 5 C 0,2.23 2.23,0 5,0 Z" />
        <path
           id="rect80"
           style="fill:none"
           d="m 5,0.25 h 136.75 c 2.6315,0 4.75,2.1185 4.75,4.75 v 47 c 0,2.6315 -2.1185,4.75 -4.75,4.75 H 5 C 2.3685,56.75 0.25,54.6315 0.25,52 V 5 C 0.25,2.3685 2.3685,0.25 5,0.25 Z" />
      </g>
      <g
         aria-label="Step 5"
         transform="translate(95,197)"
         id="text86"
         style="font-size:11px;font-family:Roboto-Regular, Roboto;fill:#0c2339">
        <path
           d="m 3.2119141,-3.4858398 q -1.3266602,-0.3813477 -1.9335938,-0.9345704 -0.60156249,-0.5585937 -0.60156249,-1.375 0,-0.9238281 0.73583989,-1.5253906 0.7412109,-0.6069336 1.9228515,-0.6069336 0.8056641,0 1.434082,0.3115235 0.6337891,0.3115234 0.9775391,0.859375 0.3491211,0.5478515 0.3491211,1.1977539 H 5.0595703 q 0,-0.7089844 -0.4511719,-1.1118164 -0.4511718,-0.4082032 -1.2729492,-0.4082032 -0.7626953,0 -1.1923828,0.3383789 -0.4243164,0.3330079 -0.4243164,0.9291993 0,0.4780273 0.402832,0.8110351 0.4082032,0.3276367 1.3803711,0.6015625 0.9775391,0.2739258 1.5253906,0.6069336 0.5532227,0.3276367 0.8164063,0.7680664 0.2685547,0.4404297 0.2685547,1.0366211 0,0.9506836 -0.741211,1.52539064 -0.7412109,0.56933593 -1.9819335,0.56933593 -0.8056641,0 -1.5039063,-0.30615234 Q 1.1870117,-0.51025391 0.80566406,-1.0473633 0.4296875,-1.5844727 0.4296875,-2.2666016 h 1.0366211 q 0,0.7089844 0.5209961,1.1225586 0.5263672,0.40820316 1.4018555,0.40820316 0.8164062,0 1.2514648,-0.33300786 0.4350586,-0.3330078 0.4350586,-0.9077148 0,-0.574707 -0.402832,-0.8862305 -0.4028321,-0.3168945 -1.4609375,-0.6230468 z"
           id="path394" />
        <path
           d="m 8.6259766,-7.21875 v 1.4072266 H 9.7109375 V -5.043457 H 8.6259766 v 3.6040039 q 0,0.3491211 0.1450195,0.52636716 0.1450195,0.171875 0.4941406,0.171875 0.171875,0 0.4726563,-0.0644531 V 0 q -0.3920899,0.10742187 -0.7626953,0.10742187 -0.6660157,0 -1.0043946,-0.40283203 Q 7.6323242,-0.69824219 7.6323242,-1.4394531 V -5.043457 H 6.5742187 V -5.8115234 H 7.6323242 V -7.21875 Z"
           id="path396" />
        <path
           d="m 13.282715,0.10742187 q -1.181641,0 -1.922852,-0.77343749 -0.741211,-0.77880858 -0.741211,-2.07861328 v -0.1826172 q 0,-0.8647461 0.327637,-1.5415039 0.333008,-0.6821289 0.923828,-1.0634766 0.596192,-0.3867187 1.289063,-0.3867187 1.1333,0 1.761718,0.746582 0.628418,0.7465821 0.628418,2.1376953 v 0.4135742 h -3.937011 q 0.02148,0.8593751 0.499511,1.3911133 0.483399,0.52636722 1.22461,0.52636722 0.526367,0 0.891601,-0.21484375 0.365235,-0.21484377 0.639161,-0.56933597 l 0.606933,0.4726563 Q 14.743652,0.10742187 13.282715,0.10742187 Z M 13.15918,-5.1025391 q -0.601563,0 -1.009766,0.4404297 -0.408203,0.4350586 -0.504883,1.2246094 h 2.911133 v -0.075195 q -0.04297,-0.7573242 -0.408203,-1.1708984 -0.365234,-0.4189454 -0.988281,-0.4189454 z"
           id="path398" />
        <path
           d="m 21.60791,-2.8413086 q 0,1.3266602 -0.606933,2.13769532 -0.606934,0.81103515 -1.643555,0.81103515 -1.058106,0 -1.665039,-0.67138671 V 2.234375 H 16.69873 v -8.0458984 h 0.907715 l 0.04834,0.6445312 q 0.606934,-0.7519531 1.686524,-0.7519531 1.047363,0 1.654296,0.7895508 0.612305,0.7895508 0.612305,2.1967773 z m -0.993652,-0.112793 q 0,-0.9829101 -0.418946,-1.5522461 -0.418945,-0.5693359 -1.149414,-0.5693359 -0.902343,0 -1.353515,0.800293 v 2.7768554 q 0.445801,0.79492192 1.364258,0.79492192 0.714355,0 1.1333,-0.56396482 0.424317,-0.569336 0.424317,-1.6865235 z"
           id="path400" />
        <path
           d="m 25.947754,-3.9208984 0.397461,-3.8994141 h 4.006836 v 0.918457 h -3.163574 l -0.236329,2.1323243 q 0.574707,-0.338379 1.305176,-0.338379 1.068848,0 1.697266,0.7089844 0.628418,0.7036133 0.628418,1.9067383 0,1.2084961 -0.655274,1.90673828 -0.649902,0.69287109 -1.8208,0.69287109 -1.036622,0 -1.691895,-0.57470703 -0.655273,-0.57470704 -0.746582,-1.58984374 h 0.939941 q 0.09131,0.6713867 0.478028,1.0151367 0.386719,0.33837892 1.020508,0.33837892 0.692871,0 1.084961,-0.47265622 0.39746,-0.4726563 0.39746,-1.3051758 0,-0.7841797 -0.429687,-1.256836 -0.424316,-0.4780273 -1.133301,-0.4780273 -0.649902,0 -1.020508,0.284668 l -0.263183,0.2148437 z"
           id="path402" />
      </g>
    </g>
    <g
       transform="translate(870.625)"
       id="g100">
      <g
         transform="translate(88,180.341)"
         fill="#ffffff"
         stroke="rgba(165,170,188,0.5)"
         stroke-width="0.5"
         id="g94">
        <path
           id="rect90"
           d="m 5,0 h 136.75 c 2.77,0 5,2.23 5,5 v 47 c 0,2.77 -2.23,5 -5,5 H 5 C 2.23,57 0,54.77 0,52 V 5 C 0,2.23 2.23,0 5,0 Z" />
        <path
           id="rect92"
           style="fill:none"
           d="m 5,0.25 h 136.75 c 2.6315,0 4.75,2.1185 4.75,4.75 v 47 c 0,2.6315 -2.1185,4.75 -4.75,4.75 H 5 C 2.3685,56.75 0.25,54.6315 0.25,52 V 5 C 0.25,2.3685 2.3685,0.25 5,0.25 Z" />
      </g>
      <g
         aria-label="Step 6"
         transform="translate(95,197)"
         id="text98"
         style="font-size:11px;font-family:Roboto-Regular, Roboto;fill:#0c2339">
        <path
           d="m 3.2119141,-3.4858398 q -1.3266602,-0.3813477 -1.9335938,-0.9345704 -0.60156249,-0.5585937 -0.60156249,-1.375 0,-0.9238281 0.73583989,-1.5253906 0.7412109,-0.6069336 1.9228515,-0.6069336 0.8056641,0 1.434082,0.3115235 0.6337891,0.3115234 0.9775391,0.859375 0.3491211,0.5478515 0.3491211,1.1977539 H 5.0595703 q 0,-0.7089844 -0.4511719,-1.1118164 -0.4511718,-0.4082032 -1.2729492,-0.4082032 -0.7626953,0 -1.1923828,0.3383789 -0.4243164,0.3330079 -0.4243164,0.9291993 0,0.4780273 0.402832,0.8110351 0.4082032,0.3276367 1.3803711,0.6015625 0.9775391,0.2739258 1.5253906,0.6069336 0.5532227,0.3276367 0.8164063,0.7680664 0.2685547,0.4404297 0.2685547,1.0366211 0,0.9506836 -0.741211,1.52539064 -0.7412109,0.56933593 -1.9819335,0.56933593 -0.8056641,0 -1.5039063,-0.30615234 Q 1.1870117,-0.51025391 0.80566406,-1.0473633 0.4296875,-1.5844727 0.4296875,-2.2666016 h 1.0366211 q 0,0.7089844 0.5209961,1.1225586 0.5263672,0.40820316 1.4018555,0.40820316 0.8164062,0 1.2514648,-0.33300786 0.4350586,-0.3330078 0.4350586,-0.9077148 0,-0.574707 -0.402832,-0.8862305 -0.4028321,-0.3168945 -1.4609375,-0.6230468 z"
           id="path407" />
        <path
           d="m 8.6259766,-7.21875 v 1.4072266 H 9.7109375 V -5.043457 H 8.6259766 v 3.6040039 q 0,0.3491211 0.1450195,0.52636716 0.1450195,0.171875 0.4941406,0.171875 0.171875,0 0.4726563,-0.0644531 V 0 q -0.3920899,0.10742187 -0.7626953,0.10742187 -0.6660157,0 -1.0043946,-0.40283203 Q 7.6323242,-0.69824219 7.6323242,-1.4394531 V -5.043457 H 6.5742187 V -5.8115234 H 7.6323242 V -7.21875 Z"
           id="path409" />
        <path
           d="m 13.282715,0.10742187 q -1.181641,0 -1.922852,-0.77343749 -0.741211,-0.77880858 -0.741211,-2.07861328 v -0.1826172 q 0,-0.8647461 0.327637,-1.5415039 0.333008,-0.6821289 0.923828,-1.0634766 0.596192,-0.3867187 1.289063,-0.3867187 1.1333,0 1.761718,0.746582 0.628418,0.7465821 0.628418,2.1376953 v 0.4135742 h -3.937011 q 0.02148,0.8593751 0.499511,1.3911133 0.483399,0.52636722 1.22461,0.52636722 0.526367,0 0.891601,-0.21484375 0.365235,-0.21484377 0.639161,-0.56933597 l 0.606933,0.4726563 Q 14.743652,0.10742187 13.282715,0.10742187 Z M 13.15918,-5.1025391 q -0.601563,0 -1.009766,0.4404297 -0.408203,0.4350586 -0.504883,1.2246094 h 2.911133 v -0.075195 q -0.04297,-0.7573242 -0.408203,-1.1708984 -0.365234,-0.4189454 -0.988281,-0.4189454 z"
           id="path411" />
        <path
           d="m 21.60791,-2.8413086 q 0,1.3266602 -0.606933,2.13769532 -0.606934,0.81103515 -1.643555,0.81103515 -1.058106,0 -1.665039,-0.67138671 V 2.234375 H 16.69873 v -8.0458984 h 0.907715 l 0.04834,0.6445312 q 0.606934,-0.7519531 1.686524,-0.7519531 1.047363,0 1.654296,0.7895508 0.612305,0.7895508 0.612305,2.1967773 z m -0.993652,-0.112793 q 0,-0.9829101 -0.418946,-1.5522461 -0.418945,-0.5693359 -1.149414,-0.5693359 -0.902343,0 -1.353515,0.800293 v 2.7768554 q 0.445801,0.79492192 1.364258,0.79492192 0.714355,0 1.1333,-0.56396482 0.424317,-0.569336 0.424317,-1.6865235 z"
           id="path413" />
        <path
           d="m 29.390625,-7.8256836 v 0.8432617 h -0.182617 q -1.160156,0.021484 -1.847656,0.6875 -0.6875,0.6660157 -0.794922,1.8745117 0.617675,-0.7089843 1.686523,-0.7089843 1.020508,0 1.627442,0.7197265 0.612304,0.7197266 0.612304,1.8583985 0,1.2084961 -0.660644,1.93359372 -0.655274,0.72509765 -1.761719,0.72509765 -1.122559,0 -1.820801,-0.85937499 -0.698242,-0.86474608 -0.698242,-2.22363278 v -0.3813477 q 0,-2.1591797 0.918457,-3.2978516 0.923828,-1.1440429 2.744629,-1.1708984 z m -1.305176,3.5234375 q -0.510254,0 -0.939941,0.3061523 -0.429688,0.3061524 -0.596192,0.7680665 v 0.3652343 q 0,0.9667969 0.435059,1.5576172 0.435059,0.59082033 1.084961,0.59082033 0.671387,0 1.052734,-0.49414063 0.386719,-0.4941406 0.386719,-1.2944336 0,-0.8056641 -0.39209,-1.2998047 -0.386719,-0.4995117 -1.03125,-0.4995117 z"
           id="path415" />
      </g>
    </g>
    <g
       transform="translate(222.625,74)"
       id="g112">
      <g
         transform="translate(88,180.341)"
         fill="#ffffff"
         stroke="rgba(165,170,188,0.5)"
         stroke-width="0.5"
         id="g106">
        <path
           id="rect102"
           d="m 5,0 h 136.75 c 2.77,0 5,2.23 5,5 v 47 c 0,2.77 -2.23,5 -5,5 H 5 C 2.23,57 0,54.77 0,52 V 5 C 0,2.23 2.23,0 5,0 Z" />
        <path
           id="rect104"
           style="fill:none"
           d="m 5,0.25 h 136.75 c 2.6315,0 4.75,2.1185 4.75,4.75 v 47 c 0,2.6315 -2.1185,4.75 -4.75,4.75 H 5 C 2.3685,56.75 0.25,54.6315 0.25,52 V 5 C 0.25,2.3685 2.3685,0.25 5,0.25 Z" />
      </g>
      <g
         aria-label="Step 3"
         transform="translate(95,197)"
         id="text110"
         style="font-size:11px;font-family:Roboto-Regular, Roboto;fill:#0c2339">
        <path
           d="m 3.2119141,-3.4858398 q -1.3266602,-0.3813477 -1.9335938,-0.9345704 -0.60156249,-0.5585937 -0.60156249,-1.375 0,-0.9238281 0.73583989,-1.5253906 0.7412109,-0.6069336 1.9228515,-0.6069336 0.8056641,0 1.434082,0.3115235 0.6337891,0.3115234 0.9775391,0.859375 0.3491211,0.5478515 0.3491211,1.1977539 H 5.0595703 q 0,-0.7089844 -0.4511719,-1.1118164 -0.4511718,-0.4082032 -1.2729492,-0.4082032 -0.7626953,0 -1.1923828,0.3383789 -0.4243164,0.3330079 -0.4243164,0.9291993 0,0.4780273 0.402832,0.8110351 0.4082032,0.3276367 1.3803711,0.6015625 0.9775391,0.2739258 1.5253906,0.6069336 0.5532227,0.3276367 0.8164063,0.7680664 0.2685547,0.4404297 0.2685547,1.0366211 0,0.9506836 -0.741211,1.52539064 -0.7412109,0.56933593 -1.9819335,0.56933593 -0.8056641,0 -1.5039063,-0.30615234 Q 1.1870117,-0.51025391 0.80566406,-1.0473633 0.4296875,-1.5844727 0.4296875,-2.2666016 h 1.0366211 q 0,0.7089844 0.5209961,1.1225586 0.5263672,0.40820316 1.4018555,0.40820316 0.8164062,0 1.2514648,-0.33300786 0.4350586,-0.3330078 0.4350586,-0.9077148 0,-0.574707 -0.402832,-0.8862305 -0.4028321,-0.3168945 -1.4609375,-0.6230468 z"
           id="path420" />
        <path
           d="m 8.6259766,-7.21875 v 1.4072266 H 9.7109375 V -5.043457 H 8.6259766 v 3.6040039 q 0,0.3491211 0.1450195,0.52636716 0.1450195,0.171875 0.4941406,0.171875 0.171875,0 0.4726563,-0.0644531 V 0 q -0.3920899,0.10742187 -0.7626953,0.10742187 -0.6660157,0 -1.0043946,-0.40283203 Q 7.6323242,-0.69824219 7.6323242,-1.4394531 V -5.043457 H 6.5742187 V -5.8115234 H 7.6323242 V -7.21875 Z"
           id="path422" />
        <path
           d="m 13.282715,0.10742187 q -1.181641,0 -1.922852,-0.77343749 -0.741211,-0.77880858 -0.741211,-2.07861328 v -0.1826172 q 0,-0.8647461 0.327637,-1.5415039 0.333008,-0.6821289 0.923828,-1.0634766 0.596192,-0.3867187 1.289063,-0.3867187 1.1333,0 1.761718,0.746582 0.628418,0.7465821 0.628418,2.1376953 v 0.4135742 h -3.937011 q 0.02148,0.8593751 0.499511,1.3911133 0.483399,0.52636722 1.22461,0.52636722 0.526367,0 0.891601,-0.21484375 0.365235,-0.21484377 0.639161,-0.56933597 l 0.606933,0.4726563 Q 14.743652,0.10742187 13.282715,0.10742187 Z M 13.15918,-5.1025391 q -0.601563,0 -1.009766,0.4404297 -0.408203,0.4350586 -0.504883,1.2246094 h 2.911133 v -0.075195 q -0.04297,-0.7573242 -0.408203,-1.1708984 -0.365234,-0.4189454 -0.988281,-0.4189454 z"
           id="path424" />
        <path
           d="m 21.60791,-2.8413086 q 0,1.3266602 -0.606933,2.13769532 -0.606934,0.81103515 -1.643555,0.81103515 -1.058106,0 -1.665039,-0.67138671 V 2.234375 H 16.69873 v -8.0458984 h 0.907715 l 0.04834,0.6445312 q 0.606934,-0.7519531 1.686524,-0.7519531 1.047363,0 1.654296,0.7895508 0.612305,0.7895508 0.612305,2.1967773 z m -0.993652,-0.112793 q 0,-0.9829101 -0.418946,-1.5522461 -0.418945,-0.5693359 -1.149414,-0.5693359 -0.902343,0 -1.353515,0.800293 v 2.7768554 q 0.445801,0.79492192 1.364258,0.79492192 0.714355,0 1.1333,-0.56396482 0.424317,-0.569336 0.424317,-1.6865235 z"
           id="path426" />
        <path
           d="m 26.936035,-4.3935547 h 0.746582 q 0.703613,-0.010742 1.106445,-0.3706055 0.402833,-0.3598632 0.402833,-0.9721679 0,-1.375 -1.369629,-1.375 -0.644532,0 -1.03125,0.3706054 -0.381348,0.3652344 -0.381348,0.972168 h -0.993652 q 0,-0.9291992 0.676757,-1.5415039 0.682129,-0.6176758 1.729493,-0.6176758 1.106445,0 1.734863,0.5854492 0.628418,0.5854493 0.628418,1.6274415 0,0.5102539 -0.333008,0.9882812 -0.327637,0.4780273 -0.896973,0.7143555 0.644532,0.2041015 0.993653,0.6767578 0.354492,0.4726562 0.354492,1.1547851 0,1.0527344 -0.6875,1.67041019 -0.6875,0.61767578 -1.788574,0.61767578 -1.101075,0 -1.793946,-0.5961914 -0.6875,-0.59619137 -0.6875,-1.57373047 h 0.999024 q 0,0.6176758 0.402832,0.9882813 0.402832,0.37060542 1.07959,0.37060542 0.719726,0 1.101074,-0.37597652 0.381348,-0.3759766 0.381348,-1.0795899 0,-0.6821289 -0.418946,-1.0473633 -0.418945,-0.3652343 -1.208496,-0.3759765 h -0.746582 z"
           id="path428" />
      </g>
    </g>
    <path
       d="M 0,0 H 1312"
       transform="translate(54,120.341)"
       fill="none"
       stroke="#1f6cb6"
       stroke-width="0.5"
       id="path114" />
    <g
       transform="translate(88,180.341)"
       fill="#ffffff"
       stroke="rgba(165,170,188,0.5)"
       stroke-width="0.5"
       id="g120">
      <path
         id="rect116"
         d="m 5,0 h 136.75 c 2.77,0 5,2.23 5,5 v 47 c 0,2.77 -2.23,5 -5,5 H 5 C 2.23,57 0,54.77 0,52 V 5 C 0,2.23 2.23,0 5,0 Z" />
      <path
         id="rect118"
         style="fill:none"
         d="m 5,0.25 h 136.75 c 2.6315,0 4.75,2.1185 4.75,4.75 v 47 c 0,2.6315 -2.1185,4.75 -4.75,4.75 H 5 C 2.3685,56.75 0.25,54.6315 0.25,52 V 5 C 0.25,2.3685 2.3685,0.25 5,0.25 Z" />
    </g>
    <g
       aria-label="Step 1"
       transform="translate(95,197)"
       id="text124"
       style="font-size:11px;font-family:Roboto-Regular, Roboto;fill:#0c2339">
      <path
         d="m 3.2119141,-3.4858398 q -1.3266602,-0.3813477 -1.9335938,-0.9345704 -0.60156249,-0.5585937 -0.60156249,-1.375 0,-0.9238281 0.73583989,-1.5253906 0.7412109,-0.6069336 1.9228515,-0.6069336 0.8056641,0 1.434082,0.3115235 0.6337891,0.3115234 0.9775391,0.859375 0.3491211,0.5478515 0.3491211,1.1977539 H 5.0595703 q 0,-0.7089844 -0.4511719,-1.1118164 -0.4511718,-0.4082032 -1.2729492,-0.4082032 -0.7626953,0 -1.1923828,0.3383789 -0.4243164,0.3330079 -0.4243164,0.9291993 0,0.4780273 0.402832,0.8110351 0.4082032,0.3276367 1.3803711,0.6015625 0.9775391,0.2739258 1.5253906,0.6069336 0.5532227,0.3276367 0.8164063,0.7680664 0.2685547,0.4404297 0.2685547,1.0366211 0,0.9506836 -0.741211,1.52539064 -0.7412109,0.56933593 -1.9819335,0.56933593 -0.8056641,0 -1.5039063,-0.30615234 Q 1.1870117,-0.51025391 0.80566406,-1.0473633 0.4296875,-1.5844727 0.4296875,-2.2666016 h 1.0366211 q 0,0.7089844 0.5209961,1.1225586 0.5263672,0.40820316 1.4018555,0.40820316 0.8164062,0 1.2514648,-0.33300786 0.4350586,-0.3330078 0.4350586,-0.9077148 0,-0.574707 -0.402832,-0.8862305 -0.4028321,-0.3168945 -1.4609375,-0.6230468 z"
         id="path433" />
      <path
         d="m 8.6259766,-7.21875 v 1.4072266 H 9.7109375 V -5.043457 H 8.6259766 v 3.6040039 q 0,0.3491211 0.1450195,0.52636716 0.1450195,0.171875 0.4941406,0.171875 0.171875,0 0.4726563,-0.0644531 V 0 q -0.3920899,0.10742187 -0.7626953,0.10742187 -0.6660157,0 -1.0043946,-0.40283203 Q 7.6323242,-0.69824219 7.6323242,-1.4394531 V -5.043457 H 6.5742187 V -5.8115234 H 7.6323242 V -7.21875 Z"
         id="path435" />
      <path
         d="m 13.282715,0.10742187 q -1.181641,0 -1.922852,-0.77343749 -0.741211,-0.77880858 -0.741211,-2.07861328 v -0.1826172 q 0,-0.8647461 0.327637,-1.5415039 0.333008,-0.6821289 0.923828,-1.0634766 0.596192,-0.3867187 1.289063,-0.3867187 1.1333,0 1.761718,0.746582 0.628418,0.7465821 0.628418,2.1376953 v 0.4135742 h -3.937011 q 0.02148,0.8593751 0.499511,1.3911133 0.483399,0.52636722 1.22461,0.52636722 0.526367,0 0.891601,-0.21484375 0.365235,-0.21484377 0.639161,-0.56933597 l 0.606933,0.4726563 Q 14.743652,0.10742187 13.282715,0.10742187 Z M 13.15918,-5.1025391 q -0.601563,0 -1.009766,0.4404297 -0.408203,0.4350586 -0.504883,1.2246094 h 2.911133 v -0.075195 q -0.04297,-0.7573242 -0.408203,-1.1708984 -0.365234,-0.4189454 -0.988281,-0.4189454 z"
         id="path437" />
      <path
         d="m 21.60791,-2.8413086 q 0,1.3266602 -0.606933,2.13769532 -0.606934,0.81103515 -1.643555,0.81103515 -1.058106,0 -1.665039,-0.67138671 V 2.234375 H 16.69873 v -8.0458984 h 0.907715 l 0.04834,0.6445312 q 0.606934,-0.7519531 1.686524,-0.7519531 1.047363,0 1.654296,0.7895508 0.612305,0.7895508 0.612305,2.1967773 z m -0.993652,-0.112793 q 0,-0.9829101 -0.418946,-1.5522461 -0.418945,-0.5693359 -1.149414,-0.5693359 -0.902343,0 -1.353515,0.800293 v 2.7768554 q 0.445801,0.79492192 1.364258,0.79492192 0.714355,0 1.1333,-0.56396482 0.424317,-0.569336 0.424317,-1.6865235 z"
         id="path439" />
      <path
         d="m 28.756836,0 h -0.999024 v -6.6225586 l -2.003417,0.7358399 v -0.9023438 l 2.846679,-1.0688477 h 0.155762 z"
         id="path441" />
    </g>
    <path
       d="M 0,0 H 1312"
       transform="translate(54,159.341)"
       fill="none"
       stroke="rgba(165,170,188,0.5)"
       stroke-width="0.5"
       id="path126" />
    <path
       d="M 0,0 H 586.659"
       transform="rotate(90,78.0795,198.4205)"
       fill="none"
       stroke="rgba(165,170,188,0.5)"
       stroke-width="0.5"
       id="path128" />
    <path
       d="M 0,0 H 586.659"
       transform="rotate(90,294.0795,414.4205)"
       fill="none"
       stroke="rgba(165,170,188,0.5)"
       stroke-width="0.5"
       id="path130" />
    <path
       d="M 0,0 H 586.659"
       transform="rotate(90,186.0795,306.4205)"
       fill="none"
       stroke="rgba(165,170,188,0.5)"
       stroke-width="0.5"
       id="path132" />
    <path
       d="M 0,0 H 586.659"
       transform="rotate(90,402.0795,522.4205)"
       fill="none"
       stroke="rgba(165,170,188,0.5)"
       stroke-width="0.5"
       id="path134" />
    <path
       d="M 0,0 H 586.659"
       transform="rotate(90,510.5795,630.9205)"
       fill="none"
       stroke="rgba(165,170,188,0.5)"
       stroke-width="0.5"
       id="path136" />
    <path
       id="line138"
       transform="translate(234.75,207.841)"
       style="fill:none;stroke:#a1a1a1"
       d="M 0,0 H 82" />
    <path
       id="circle140"
       transform="translate(232,205.841)"
       style="fill:#a1a1a1"
       d="M 4,2 A 2,2 0 0 1 2,4 2,2 0 0 1 0,2 2,2 0 0 1 2,0 2,2 0 0 1 4,2 Z" />
    <path
       d="M 2,0 4,4 H 0 Z"
       transform="rotate(90,56.5,262.5)"
       fill="#a1a1a1"
       id="path142" />
    <path
       id="line144"
       transform="translate(673.75,207.841)"
       style="fill:none;stroke:#a1a1a1"
       d="M 0,0 H 82" />
    <path
       id="circle146"
       transform="translate(671,205.841)"
       style="fill:#a1a1a1"
       d="M 4,2 A 2,2 0 0 1 2,4 2,2 0 0 1 0,2 2,2 0 0 1 2,0 2,2 0 0 1 4,2 Z" />
    <path
       d="M 2,0 4,4 H 0 Z"
       transform="rotate(90,276,482)"
       fill="#a1a1a1"
       id="path148" />
    <path
       id="line150"
       transform="translate(897.75,207.841)"
       style="fill:none;stroke:#a1a1a1"
       d="M 0,0 H 82" />
    <path
       id="circle152"
       transform="translate(895,205.841)"
       style="fill:#a1a1a1"
       d="M 4,2 A 2,2 0 0 1 2,4 2,2 0 0 1 0,2 2,2 0 0 1 2,0 2,2 0 0 1 4,2 Z" />
    <path
       d="M 2,0 4,4 H 0 Z"
       transform="rotate(90,388,594)"
       fill="#a1a1a1"
       id="path154" />
    <path
       id="line156"
       transform="rotate(90,72.79,311.29)"
       style="fill:none;stroke:#a1a1a1"
       d="M 0,0 H 16.75" />
    <path
       id="circle158"
       transform="rotate(90,75.165,310.915)"
       style="fill:#a1a1a1"
       d="M 4,2 A 2,2 0 0 1 2,4 2,2 0 0 1 0,2 2,2 0 0 1 2,0 2,2 0 0 1 4,2 Z" />
    <path
       d="M 2,0 4,4 H 0 Z"
       transform="rotate(180,192.96,128.75)"
       fill="#a1a1a1"
       id="path160" />
    <path
       id="circle162"
       transform="translate(455.125,284.545)"
       style="fill:#a1a1a1"
       d="M 4,2 A 2,2 0 0 1 2,4 2,2 0 0 1 0,2 2,2 0 0 1 2,0 2,2 0 0 1 4,2 Z" />
    <path
       d="M 2,0 4,4 H 0 Z"
       transform="rotate(90,161.892,367.733)"
       fill="#a1a1a1"
       id="path164" />
    <path
       d="m 4780.375,286.545 h 8.875 V 208 h 60.083"
       transform="translate(-4323)"
       fill="none"
       stroke="#a1a1a1"
       stroke-width="1"
       id="path166" />
    <path
       id="circle168"
       transform="translate(822,177.841)"
       style="fill:#a1a1a1"
       d="M 4,2 A 2,2 0 0 1 2,4 2,2 0 0 1 0,2 2,2 0 0 1 2,0 2,2 0 0 1 4,2 Z" />
    <path
       d="M 2,0 4,4 H 0 Z"
       transform="rotate(180,192.96,91.25)"
       fill="#a1a1a1"
       id="path170" />
    <path
       d="m 4706.92,178.5 v -5.167 H 5147 v 5.167"
       transform="translate(-4323)"
       fill="none"
       stroke="#a1a1a1"
       stroke-width="1"
       id="path172" />
    <g
       transform="rotate(180,602.96,207.341)"
       id="g180">
      <path
         d="M 1.757,0 3.514,4 H 0 Z"
         transform="rotate(180,192.717,91.25)"
         fill="#a1a1a1"
         id="path174" />
      <path
         d="M 1.757,0 3.514,4 H 0 Z"
         transform="rotate(180,307,91.25)"
         fill="#a1a1a1"
         id="path176" />
      <path
         d="m 4706.92,178.5 v -5.167 h 228.566 v 5.167"
         transform="translate(-4323.243)"
         fill="none"
         stroke="#a1a1a1"
         stroke-width="1"
         id="path178" />
    </g>
    <g
       transform="translate(1171,715.743)"
       fill="#1f6cb6"
       stroke="rgba(165,170,188,0.5)"
       stroke-width="0.5"
       id="g186">
      <path
         id="rect182"
         d="m 5,0 h 88.5 c 2.77,0 5,2.23 5,5 v 26 c 0,2.77 -2.23,5 -5,5 H 5 C 2.23,36 0,33.77 0,31 V 5 C 0,2.23 2.23,0 5,0 Z" />
      <path
         id="rect184"
         style="fill:none"
         d="m 5,0.25 h 88.5 c 2.6315,0 4.75,2.1185 4.75,4.75 v 26 c 0,2.6315 -2.1185,4.75 -4.75,4.75 H 5 C 2.3685,35.75 0.25,33.6315 0.25,31 V 5 C 0.25,2.3685 2.3685,0.25 5,0.25 Z" />
    </g>
    <g
       aria-label="Save"
       transform="translate(1207,737.743)"
       id="text190"
       style="font-size:12px;font-family:Roboto-Regular, Roboto;fill:#ffffff">
      <path
         d="M 3.5039063,-3.8027344 Q 2.0566406,-4.21875 1.3945312,-4.8222656 q -0.65624995,-0.609375 -0.65624995,-1.5 0,-1.0078125 0.80273435,-1.6640625 0.8085938,-0.6621094 2.0976563,-0.6621094 0.8789062,0 1.5644531,0.3398437 0.6914062,0.3398438 1.0664062,0.9375001 0.3808594,0.5976562 0.3808594,1.3066406 H 5.5195312 q 0,-0.7734375 -0.4921875,-1.2128906 -0.4921875,-0.4453125 -1.3886718,-0.4453125 -0.8320313,0 -1.3007813,0.3691406 Q 1.875,-6.9902344 1.875,-6.3398437 q 0,0.5214843 0.4394531,0.8847656 0.4453125,0.3574219 1.5058594,0.65625 Q 4.8867187,-4.5 5.484375,-4.1367187 6.0878906,-3.7792969 6.375,-3.2988281 q 0.2929687,0.4804687 0.2929687,1.1308593 0,1.0371094 -0.8085937,1.66406255 -0.8085938,0.62109375 -2.1621094,0.62109375 -0.8789062,0 -1.640625,-0.33398438 Q 1.2949219,-0.55664062 0.87890625,-1.1425781 0.46875,-1.7285156 0.46875,-2.4726563 h 1.1308594 q 0,0.7734376 0.5683594,1.2246094 0.5742187,0.44531252 1.5292968,0.44531252 0.890625,0 1.3652344,-0.36328122 0.4746094,-0.3632813 0.4746094,-0.9902344 0,-0.6269531 -0.4394532,-0.9667969 Q 4.6582031,-3.46875 3.5039063,-3.8027344 Z"
         id="path456" />
      <path
         d="m 11.853516,0 q -0.09375,-0.1875 -0.152344,-0.66796875 -0.755859,0.78515625 -1.8046876,0.78515625 -0.9375,0 -1.5410156,-0.52734375 -0.5976563,-0.53320313 -0.5976563,-1.34765625 0,-0.9902344 0.75,-1.5351563 Q 9.2636719,-3.84375 10.628906,-3.84375 h 1.054688 v -0.4980469 q 0,-0.5683593 -0.339844,-0.9023437 -0.339844,-0.3398438 -1.001953,-0.3398438 -0.5800782,0 -0.9726564,0.2929688 -0.3925781,0.2929687 -0.3925781,0.7089844 H 7.8867187 q 0,-0.4746094 0.3339844,-0.9140625 0.3398438,-0.4453125 0.9140625,-0.703125 0.5800782,-0.2578125 1.2714844,-0.2578125 1.095703,0 1.716797,0.5507812 0.621094,0.5449219 0.644531,1.5058594 v 2.9179687 q 0,0.8730469 0.222656,1.3886719 V 0 Z m -1.798828,-0.82617188 q 0.509765,0 0.966796,-0.26367182 0.457032,-0.2636719 0.66211,-0.6855469 v -1.3007813 h -0.84961 q -1.9921871,0 -1.9921871,1.1660157 0,0.5097656 0.3398437,0.796875 0.3398438,0.28710932 0.8730474,0.28710932 z"
         id="path458" />
      <path
         d="m 16.470703,-1.4707031 1.570313,-4.8691406 h 1.107421 L 16.875,0 h -0.826172 l -2.296875,-6.3398437 h 1.107422 z"
         id="path460" />
      <path
         d="m 22.746094,0.1171875 q -1.289063,0 -2.097657,-0.84375 -0.808593,-0.8496094 -0.808593,-2.2675781 v -0.1992188 q 0,-0.9433593 0.357422,-1.6816406 0.363281,-0.7441406 1.007812,-1.1601562 0.650391,-0.421875 1.40625,-0.421875 1.236328,0 1.921875,0.8144531 0.685547,0.8144531 0.685547,2.3320312 v 0.4511719 h -4.294922 q 0.02344,0.9375 0.544922,1.5175781 0.527344,0.57421878 1.335937,0.57421878 0.574219,0 0.972657,-0.23437498 0.398437,-0.234375 0.697265,-0.6210938 l 0.66211,0.515625 q -0.796875,1.2246094 -2.390625,1.2246094 z m -0.134766,-5.6835937 q -0.65625,0 -1.101562,0.4804687 Q 21.064453,-4.6113281 20.958984,-3.75 h 3.175782 v -0.082031 q -0.04687,-0.8261718 -0.445313,-1.2773437 -0.398437,-0.4570312 -1.078125,-0.4570312 z"
         id="path462" />
    </g>
    <g
       transform="translate(1032,715.743)"
       fill="#ffffff"
       stroke="#1f6cb6"
       stroke-width="0.5"
       id="g196">
      <path
         id="rect192"
         style="stroke:none"
         d="m 5,0 h 112.625 c 2.77,0 5,2.23 5,5 v 26 c 0,2.77 -2.23,5 -5,5 H 5 C 2.23,36 0,33.77 0,31 V 5 C 0,2.23 2.23,0 5,0 Z" />
      <path
         id="rect194"
         style="fill:none"
         d="m 5,0.25 h 112.625 c 2.6315,0 4.75,2.1185 4.75,4.75 v 26 c 0,2.6315 -2.1185,4.75 -4.75,4.75 H 5 C 2.3685,35.75 0.25,33.6315 0.25,31 V 5 C 0.25,2.3685 2.3685,0.25 5,0.25 Z" />
    </g>
    <g
       transform="translate(0.628)"
       id="g208">
      <g
         aria-label="Flow Properties"
         transform="translate(1059.375,737.743)"
         id="text200"
         style="font-size:12px;font-family:Roboto-Regular, Roboto;fill:#1f6cb6">
        <path
           d="M 5.6953125,-3.7675781 H 2.1152344 V 0 H 0.99023438 V -8.53125 H 6.2753906 v 0.9257813 H 2.1152344 V -4.6875 h 3.5800781 z"
           id="path467" />
        <path
           d="M 8.6308594,0 H 7.546875 v -9 h 1.0839844 z"
           id="path469" />
        <path
           d="m 10.078125,-3.2285156 q 0,-0.9316406 0.363281,-1.6757813 0.369141,-0.7441406 1.019532,-1.1484375 0.65625,-0.4042968 1.49414,-0.4042968 1.294922,0 2.091797,0.8964843 0.802734,0.8964844 0.802734,2.3847656 v 0.076172 q 0,0.9257813 -0.357421,1.6640625 -0.351563,0.7324219 -1.013672,1.14257815 -0.65625,0.41015625 -1.511719,0.41015625 -1.289063,0 -2.091797,-0.89648437 -0.796875,-0.89648433 -0.796875,-2.37304693 z m 1.089844,0.1289062 q 0,1.0546875 0.486328,1.6933594 0.492187,0.63867188 1.3125,0.63867188 0.826172,0 1.3125,-0.64453128 0.486328,-0.6503906 0.486328,-1.8164062 0,-1.0429688 -0.498047,-1.6875 -0.492187,-0.6503906 -1.3125,-0.6503906 -0.802734,0 -1.294922,0.6386718 -0.492187,0.6386719 -0.492187,1.828125 z"
           id="path471" />
        <path
           d="m 22.822266,-1.4941406 1.21875,-4.8457031 H 25.125 L 23.279297,0 H 22.400391 L 20.859375,-4.8046875 19.359375,0 h -0.878906 l -1.839844,-6.3398437 h 1.078125 l 1.248047,4.7460937 1.476562,-4.7460937 h 0.873047 z"
           id="path473" />
        <path
           d="M 30.492187,-3.3398438 V 0 h -1.125 v -8.53125 h 3.146485 q 1.40039,0 2.191406,0.7148438 0.796875,0.7148437 0.796875,1.8925781 0,1.2421875 -0.779297,1.9160156 -0.773437,0.6679687 -2.220703,0.6679687 z m 0,-0.9199218 h 2.021485 q 0.902344,0 1.382812,-0.421875 0.480469,-0.4277344 0.480469,-1.2304688 0,-0.7617187 -0.480469,-1.21875 -0.480468,-0.4570312 -1.318359,-0.4746093 h -2.085938 z"
           id="path475" />
        <path
           d="m 39.832031,-5.3671875 q -0.246094,-0.041016 -0.533203,-0.041016 -1.066406,0 -1.447266,0.9082031 V 0 h -1.083984 v -6.3398437 h 1.054688 l 0.01758,0.7324218 q 0.533203,-0.8496093 1.511718,-0.8496093 0.316407,0 0.480469,0.082031 z"
           id="path477" />
        <path
           d="m 40.423828,-3.2285156 q 0,-0.9316406 0.363281,-1.6757813 0.369141,-0.7441406 1.019532,-1.1484375 0.65625,-0.4042968 1.49414,-0.4042968 1.294922,0 2.091797,0.8964843 0.802734,0.8964844 0.802734,2.3847656 v 0.076172 q 0,0.9257813 -0.357421,1.6640625 -0.351563,0.7324219 -1.013672,1.14257815 -0.65625,0.41015625 -1.511719,0.41015625 -1.289063,0 -2.091797,-0.89648437 -0.796875,-0.89648433 -0.796875,-2.37304693 z m 1.089844,0.1289062 q 0,1.0546875 0.486328,1.6933594 0.492187,0.63867188 1.3125,0.63867188 0.826172,0 1.3125,-0.64453128 0.486328,-0.6503906 0.486328,-1.8164062 0,-1.0429688 -0.498047,-1.6875 -0.492187,-0.6503906 -1.3125,-0.6503906 -0.802734,0 -1.294922,0.6386718 -0.492187,0.6386719 -0.492187,1.828125 z"
           id="path479" />
        <path
           d="m 52.910156,-3.0996094 q 0,1.4472657 -0.662109,2.33203128 -0.66211,0.88476562 -1.792969,0.88476562 -1.154297,0 -1.816406,-0.73242187 V 2.4375 h -1.083985 v -8.7773437 h 0.990235 l 0.05273,0.703125 q 0.66211,-0.8203125 1.839844,-0.8203125 1.142578,0 1.804687,0.8613281 0.667969,0.8613281 0.667969,2.3964843 z m -1.083984,-0.1230469 q 0,-1.0722656 -0.457031,-1.6933593 -0.457032,-0.6210938 -1.253907,-0.6210938 -0.984375,0 -1.476562,0.8730469 v 3.0292969 q 0.486328,0.86718748 1.488281,0.86718748 0.779297,0 1.236328,-0.61523438 0.462891,-0.6210938 0.462891,-1.8398438 z"
           id="path481" />
        <path
           d="m 56.917969,0.1171875 q -1.289063,0 -2.097657,-0.84375 -0.808593,-0.8496094 -0.808593,-2.2675781 v -0.1992188 q 0,-0.9433593 0.357422,-1.6816406 0.363281,-0.7441406 1.007812,-1.1601562 0.650391,-0.421875 1.40625,-0.421875 1.236328,0 1.921875,0.8144531 0.685547,0.8144531 0.685547,2.3320312 v 0.4511719 h -4.294922 q 0.02344,0.9375 0.544922,1.5175781 0.527344,0.57421878 1.335937,0.57421878 0.574219,0 0.972657,-0.23437498 0.398437,-0.234375 0.697265,-0.6210938 l 0.66211,0.515625 q -0.796875,1.2246094 -2.390625,1.2246094 z m -0.134766,-5.6835937 q -0.65625,0 -1.101562,0.4804687 Q 55.236328,-4.6113281 55.130859,-3.75 h 3.175782 v -0.082031 q -0.04687,-0.8261718 -0.445313,-1.2773437 -0.398437,-0.4570312 -1.078125,-0.4570312 z"
           id="path483" />
        <path
           d="m 63.708984,-5.3671875 q -0.246093,-0.041016 -0.533203,-0.041016 -1.066406,0 -1.447265,0.9082031 V 0 h -1.083985 v -6.3398437 h 1.054688 l 0.01758,0.7324218 q 0.533203,-0.8496093 1.511719,-0.8496093 0.316406,0 0.480468,0.082031 z"
           id="path485" />
        <path
           d="m 66.46875,-7.875 v 1.5351563 h 1.183594 v 0.8378906 H 66.46875 v 3.9316406 q 0,0.3808594 0.158203,0.57421875 0.158203,0.1875 0.539063,0.1875 0.1875,0 0.515625,-0.0703125 V 0 q -0.427735,0.1171875 -0.832032,0.1171875 -0.726562,0 -1.095703,-0.43945313 -0.36914,-0.43945312 -0.36914,-1.24804687 v -3.9316406 h -1.154297 v -0.8378906 h 1.154297 V -7.875 Z"
           id="path487" />
        <path
           d="m 70.095703,0 h -1.083984 v -6.3398437 h 1.083984 z m -1.171875,-8.0214844 q 0,-0.2636719 0.158203,-0.4453125 0.164063,-0.1816406 0.480469,-0.1816406 0.316406,0 0.480469,0.1816406 0.164062,0.1816406 0.164062,0.4453125 0,0.2636719 -0.164062,0.4394532 -0.164063,0.1757812 -0.480469,0.1757812 -0.316406,0 -0.480469,-0.1757812 -0.158203,-0.1757813 -0.158203,-0.4394532 z"
           id="path489" />
        <path
           d="m 74.460937,0.1171875 q -1.289062,0 -2.097656,-0.84375 -0.808594,-0.8496094 -0.808594,-2.2675781 v -0.1992188 q 0,-0.9433593 0.357422,-1.6816406 0.363282,-0.7441406 1.007813,-1.1601562 0.65039,-0.421875 1.40625,-0.421875 1.236328,0 1.921875,0.8144531 0.685547,0.8144531 0.685547,2.3320312 v 0.4511719 h -4.294922 q 0.02344,0.9375 0.544922,1.5175781 0.527343,0.57421878 1.335937,0.57421878 0.574219,0 0.972656,-0.23437498 0.398438,-0.234375 0.697266,-0.6210938 l 0.662109,0.515625 q -0.796875,1.2246094 -2.390625,1.2246094 z m -0.134765,-5.6835937 q -0.65625,0 -1.101563,0.4804687 Q 72.779297,-4.6113281 72.673828,-3.75 h 3.175781 v -0.082031 q -0.04687,-0.8261718 -0.445312,-1.2773437 -0.398438,-0.4570312 -1.078125,-0.4570312 z"
           id="path491" />
        <path
           d="m 81.878906,-1.6816406 q 0,-0.4394532 -0.333984,-0.6796875 -0.328125,-0.2460938 -1.154297,-0.421875 -0.820313,-0.1757813 -1.306641,-0.421875 -0.480468,-0.2460938 -0.714843,-0.5859375 -0.228516,-0.3398438 -0.228516,-0.8085938 0,-0.7792968 0.65625,-1.3183593 0.662109,-0.5390625 1.6875,-0.5390625 1.078125,0 1.746094,0.5566406 0.673828,0.5566406 0.673828,1.4238281 h -1.089844 q 0,-0.4453125 -0.380859,-0.7675781 -0.375,-0.3222656 -0.949219,-0.3222656 -0.591797,0 -0.925781,0.2578125 -0.333985,0.2578125 -0.333985,0.6738281 0,0.3925781 0.310547,0.5917969 0.310547,0.1992187 1.119141,0.3808593 0.814453,0.1816406 1.318359,0.4335938 0.503906,0.2519531 0.744141,0.609375 0.246094,0.3515625 0.246094,0.8613281 0,0.84960937 -0.679688,1.36523437 -0.679687,0.50976563 -1.763672,0.50976563 -0.761719,0 -1.347656,-0.26953125 -0.585938,-0.26953125 -0.919922,-0.75 -0.328125,-0.48632815 -0.328125,-1.04882815 h 1.083984 q 0.0293,0.5449219 0.433594,0.8671875 0.410156,0.31640628 1.078125,0.31640628 0.615235,0 0.984375,-0.24609378 0.375,-0.2519531 0.375,-0.6679687 z"
           id="path493" />
      </g>
      <g
         transform="translate(1041.372,728.498)"
         id="g206">
        <path
           d="m 6.18,82.473 -5.507,5.506 a 0.219,0.219 0 0 0 -0.057,0.1 l -0.61,2.45 a 0.217,0.217 0 0 0 0.21,0.269 0.215,0.215 0 0 0 0.052,-0.007 l 2.45,-0.61 a 0.216,0.216 0 0 0 0.1,-0.057 l 5.507,-5.506 z m 0,0"
           transform="translate(0,-80.555)"
           fill="#1f6cb6"
           id="path202" />
        <path
           d="m 337.225,1.166 -0.613,-0.613 a 1.11,1.11 0 0 0 -1.533,0 l -0.751,0.751 2.146,2.146 0.751,-0.751 a 1.084,1.084 0 0 0 0,-1.533 z m 0,0"
           transform="translate(-327.535)"
           fill="#1f6cb6"
           id="path204" />
      </g>
    </g>
    <g
       transform="translate(75,715.743)"
       fill="#ffffff"
       stroke="#1f6cb6"
       stroke-width="0.5"
       id="g214">
      <path
         id="rect210"
         style="stroke:none"
         d="m 5,0 h 137.5 c 2.77,0 5,2.23 5,5 v 26 c 0,2.77 -2.23,5 -5,5 H 5 C 2.23,36 0,33.77 0,31 V 5 C 0,2.23 2.23,0 5,0 Z" />
      <path
         id="rect212"
         style="fill:none"
         d="m 5,0.25 h 137.5 c 2.6315,0 4.75,2.1185 4.75,4.75 v 26 c 0,2.6315 -2.1185,4.75 -4.75,4.75 H 5 C 2.3685,35.75 0.25,33.6315 0.25,31 V 5 C 0.25,2.3685 2.3685,0.25 5,0.25 Z" />
    </g>
    <g
       aria-label="Common Targets:"
       transform="translate(87,737.743)"
       id="text218"
       style="font-size:12px;font-family:Roboto-Regular, Roboto;fill:#0c2339">
      <path
         d="M 7.265625,-2.7070313 Q 7.1074219,-1.3535156 6.2636719,-0.61523437 5.4257812,0.1171875 4.03125,0.1171875 q -1.5117187,0 -2.4257813,-1.08398438 Q 0.69726562,-2.0507813 0.69726562,-3.8671875 V -4.6875 q 0,-1.1894531 0.42187498,-2.0917969 0.4277344,-0.9023437 1.2070313,-1.3828125 0.7792969,-0.4863281 1.8046875,-0.4863281 1.359375,0 2.1796875,0.7617188 0.8203125,0.7558593 0.9550781,2.0976562 H 6.1347656 Q 5.9882812,-6.8085937 5.4960937,-7.265625 5.0097656,-7.7226562 4.1308594,-7.7226562 q -1.078125,0 -1.6933594,0.796875 -0.609375,0.796875 -0.609375,2.2675781 v 0.8261718 q 0,1.3886719 0.5800781,2.2089844 0.5800782,0.82031252 1.6230469,0.82031252 0.9375,0 1.4355469,-0.42187502 0.5039062,-0.4277343 0.6679687,-1.4824219 z"
         id="path498" />
      <path
         d="m 8.34375,-3.2285156 q 0,-0.9316406 0.3632813,-1.6757813 0.3691406,-0.7441406 1.0195312,-1.1484375 0.6562505,-0.4042968 1.4941405,-0.4042968 1.294922,0 2.091797,0.8964843 0.802734,0.8964844 0.802734,2.3847656 v 0.076172 q 0,0.9257813 -0.357421,1.6640625 -0.351563,0.7324219 -1.013672,1.14257815 -0.65625,0.41015625 -1.511719,0.41015625 -1.2890626,0 -2.091797,-0.89648437 Q 8.34375,-1.6757812 8.34375,-3.1523438 Z m 1.0898438,0.1289062 q 0,1.0546875 0.4863281,1.6933594 0.4921871,0.63867188 1.3125001,0.63867188 0.826172,0 1.3125,-0.64453128 0.486328,-0.6503906 0.486328,-1.8164062 0,-1.0429688 -0.498047,-1.6875 -0.492187,-0.6503906 -1.3125,-0.6503906 -0.802734,0 -1.2949217,0.6386718 -0.4921875,0.6386719 -0.4921875,1.828125 z"
         id="path500" />
      <path
         d="m 16.494141,-6.3398437 0.0293,0.703125 q 0.697266,-0.8203125 1.88086,-0.8203125 1.330078,0 1.810547,1.0195312 0.316406,-0.4570312 0.820312,-0.7382812 0.509766,-0.28125 1.201172,-0.28125 2.085938,0 2.121094,2.2089843 V 0 h -1.083985 v -4.1835937 q 0,-0.6796875 -0.310546,-1.0136719 -0.310547,-0.3398438 -1.042969,-0.3398438 -0.603516,0 -1.001953,0.3632813 -0.398438,0.3574219 -0.462891,0.9667969 V 0 h -1.089844 v -4.1542969 q 0,-1.3828125 -1.353515,-1.3828125 -1.066407,0 -1.458985,0.9082032 V 0 H 15.46875 v -6.3398437 z"
         id="path502" />
      <path
         d="m 27.011719,-6.3398437 0.0293,0.703125 q 0.697265,-0.8203125 1.880859,-0.8203125 1.330078,0 1.810547,1.0195312 0.316406,-0.4570312 0.820312,-0.7382812 0.509766,-0.28125 1.201172,-0.28125 2.085938,0 2.121094,2.2089843 V 0 h -1.083984 v -4.1835937 q 0,-0.6796875 -0.310547,-1.0136719 -0.310547,-0.3398438 -1.042969,-0.3398438 -0.603516,0 -1.001953,0.3632813 -0.398438,0.3574219 -0.462891,0.9667969 V 0 h -1.089844 v -4.1542969 q 0,-1.3828125 -1.353515,-1.3828125 -1.066406,0 -1.458985,0.9082032 V 0 h -1.083984 v -6.3398437 z"
         id="path504" />
      <path
         d="m 36.222656,-3.2285156 q 0,-0.9316406 0.363281,-1.6757813 0.369141,-0.7441406 1.019532,-1.1484375 0.65625,-0.4042968 1.49414,-0.4042968 1.294922,0 2.091797,0.8964843 0.802735,0.8964844 0.802735,2.3847656 v 0.076172 q 0,0.9257813 -0.357422,1.6640625 -0.351563,0.7324219 -1.013672,1.14257815 -0.65625,0.41015625 -1.511719,0.41015625 -1.289062,0 -2.091797,-0.89648437 -0.796875,-0.89648433 -0.796875,-2.37304693 z m 1.089844,0.1289062 q 0,1.0546875 0.486328,1.6933594 0.492188,0.63867188 1.3125,0.63867188 0.826172,0 1.3125,-0.64453128 0.486328,-0.6503906 0.486328,-1.8164062 0,-1.0429688 -0.498047,-1.6875 -0.492187,-0.6503906 -1.3125,-0.6503906 -0.802734,0 -1.294922,0.6386718 -0.492187,0.6386719 -0.492187,1.828125 z"
         id="path506" />
      <path
         d="m 44.378906,-6.3398437 0.03516,0.796875 q 0.726563,-0.9140625 1.898438,-0.9140625 2.009766,0 2.027344,2.2675781 V 0 h -1.083985 v -4.1953125 q -0.0059,-0.6855469 -0.316406,-1.0136719 -0.304687,-0.328125 -0.955078,-0.328125 -0.527344,0 -0.925781,0.28125 -0.398438,0.28125 -0.621094,0.7382813 V 0 h -1.083984 v -6.3398437 z"
         id="path508" />
      <path
         d="M 58.775391,-7.6054687 H 56.033203 V 0 H 54.914062 V -7.6054687 H 52.177734 V -8.53125 h 6.597657 z"
         id="path510" />
      <path
         d="m 63.123047,0 q -0.09375,-0.1875 -0.152344,-0.66796875 -0.755859,0.78515625 -1.804687,0.78515625 -0.9375,0 -1.541016,-0.52734375 -0.597656,-0.53320313 -0.597656,-1.34765625 0,-0.9902344 0.75,-1.5351563 0.755859,-0.5507812 2.121093,-0.5507812 h 1.054688 v -0.4980469 q 0,-0.5683593 -0.339844,-0.9023437 -0.339844,-0.3398438 -1.001953,-0.3398438 -0.580078,0 -0.972656,0.2929688 -0.392578,0.2929687 -0.392578,0.7089844 H 59.15625 q 0,-0.4746094 0.333984,-0.9140625 0.339844,-0.4453125 0.914063,-0.703125 0.580078,-0.2578125 1.271484,-0.2578125 1.095703,0 1.716797,0.5507812 0.621094,0.5449219 0.644531,1.5058594 v 2.9179687 q 0,0.8730469 0.222657,1.3886719 V 0 Z m -1.798828,-0.82617188 q 0.509765,0 0.966797,-0.26367182 0.457031,-0.2636719 0.662109,-0.6855469 v -1.3007813 h -0.849609 q -1.992188,0 -1.992188,1.1660157 0,0.5097656 0.339844,0.796875 0.339844,0.28710932 0.873047,0.28710932 z"
         id="path512" />
      <path
         d="m 68.800781,-5.3671875 q -0.246094,-0.041016 -0.533203,-0.041016 -1.066406,0 -1.447266,0.9082031 V 0 h -1.083984 v -6.3398437 h 1.054688 l 0.01758,0.7324218 q 0.533203,-0.8496093 1.511718,-0.8496093 0.316407,0 0.480469,0.082031 z"
         id="path514" />
      <path
         d="m 69.427734,-3.2226563 q 0,-1.4824218 0.685547,-2.3554687 0.685547,-0.8789062 1.816406,-0.8789062 1.160157,0 1.810547,0.8203125 l 0.05273,-0.703125 h 0.990234 v 6.18749995 q 0,1.23046875 -0.732422,1.93945315 -0.726562,0.7089844 -1.957031,0.7089844 -0.685547,0 -1.341797,-0.2929688 Q 70.095703,1.9101562 69.75,1.4003906 L 70.3125,0.75 q 0.697266,0.8613281 1.705078,0.8613281 0.791016,0 1.230469,-0.4453125 0.445312,-0.44531248 0.445312,-1.25390622 V -0.6328125 q -0.65039,0.75 -1.77539,0.75 -1.113282,0 -1.804688,-0.89648437 -0.685547,-0.89648433 -0.685547,-2.44335943 z m 1.089844,0.1230469 q 0,1.0722656 0.439453,1.6875 0.439453,0.60937502 1.230469,0.60937502 1.025391,0 1.505859,-0.93164062 v -2.8945312 q -0.498047,-0.9082032 -1.49414,-0.9082032 -0.791016,0 -1.236328,0.6152344 -0.445313,0.6152344 -0.445313,1.8222656 z"
         id="path516" />
      <path
         d="m 79.048828,0.1171875 q -1.289062,0 -2.097656,-0.84375 -0.808594,-0.8496094 -0.808594,-2.2675781 v -0.1992188 q 0,-0.9433593 0.357422,-1.6816406 0.363281,-0.7441406 1.007812,-1.1601562 0.650391,-0.421875 1.40625,-0.421875 1.236329,0 1.921875,0.8144531 0.685547,0.8144531 0.685547,2.3320312 v 0.4511719 h -4.294922 q 0.02344,0.9375 0.544922,1.5175781 0.527344,0.57421878 1.335938,0.57421878 0.574219,0 0.972656,-0.23437498 0.398438,-0.234375 0.697266,-0.6210938 l 0.662109,0.515625 q -0.796875,1.2246094 -2.390625,1.2246094 z m -0.134766,-5.6835937 q -0.65625,0 -1.101562,0.4804687 Q 77.367187,-4.6113281 77.261719,-3.75 H 80.4375 v -0.082031 Q 80.390625,-4.6582031 79.992187,-5.109375 79.59375,-5.5664062 78.914062,-5.5664062 Z"
         id="path518" />
      <path
         d="m 84.246094,-7.875 v 1.5351563 h 1.183593 v 0.8378906 h -1.183593 v 3.9316406 q 0,0.3808594 0.158203,0.57421875 0.158203,0.1875 0.539062,0.1875 0.1875,0 0.515625,-0.0703125 V 0 q -0.427734,0.1171875 -0.832031,0.1171875 -0.726562,0 -1.095703,-0.43945313 -0.369141,-0.43945312 -0.369141,-1.24804687 v -3.9316406 h -1.154297 v -0.8378906 h 1.154297 V -7.875 Z"
         id="path520" />
      <path
         d="m 90.386719,-1.6816406 q 0,-0.4394532 -0.333985,-0.6796875 -0.328125,-0.2460938 -1.154297,-0.421875 -0.820312,-0.1757813 -1.30664,-0.421875 -0.480469,-0.2460938 -0.714844,-0.5859375 -0.228516,-0.3398438 -0.228516,-0.8085938 0,-0.7792968 0.65625,-1.3183593 0.66211,-0.5390625 1.6875,-0.5390625 1.078125,0 1.746094,0.5566406 0.673828,0.5566406 0.673828,1.4238281 h -1.089843 q 0,-0.4453125 -0.38086,-0.7675781 -0.375,-0.3222656 -0.949219,-0.3222656 -0.591796,0 -0.925781,0.2578125 -0.333984,0.2578125 -0.333984,0.6738281 0,0.3925781 0.310547,0.5917969 0.310547,0.1992187 1.11914,0.3808593 0.814453,0.1816406 1.31836,0.4335938 0.503906,0.2519531 0.74414,0.609375 0.246094,0.3515625 0.246094,0.8613281 0,0.84960937 -0.679687,1.36523437 -0.679688,0.50976563 -1.763672,0.50976563 -0.761719,0 -1.347657,-0.26953125 -0.585937,-0.26953125 -0.919921,-0.75 -0.328125,-0.48632815 -0.328125,-1.04882815 h 1.083984 q 0.0293,0.5449219 0.433594,0.8671875 0.410156,0.31640628 1.078125,0.31640628 0.615234,0 0.984375,-0.24609378 0.375,-0.2519531 0.375,-0.6679687 z"
         id="path522" />
      <path
         d="m 92.847656,-0.56835937 q 0,-0.28125001 0.164063,-0.46875003 0.169922,-0.1875 0.503906,-0.1875 0.333984,0 0.503906,0.1875 0.175781,0.18750002 0.175781,0.46875003 0,0.26953124 -0.175781,0.45117187 -0.169922,0.18164062 -0.503906,0.18164062 -0.333984,0 -0.503906,-0.18164062 -0.164063,-0.18164063 -0.164063,-0.45117187 z m 0.0059,-5.17382813 q 0,-0.28125 0.164062,-0.46875 0.169922,-0.1875 0.503906,-0.1875 0.333985,0 0.503907,0.1875 0.175781,0.1875 0.175781,0.46875 0,0.2695313 -0.175781,0.4511719 -0.169922,0.1816406 -0.503907,0.1816406 -0.333984,0 -0.503906,-0.1816406 -0.164062,-0.1816406 -0.164062,-0.4511719 z"
         id="path524" />
    </g>
    <path
       id="circle220"
       transform="translate(191,724.243)"
       style="fill:#4dc0ed"
       d="M 19,9.5 A 9.5,9.5 0 0 1 9.5,19 9.5,9.5 0 0 1 0,9.5 9.5,9.5 0 0 1 9.5,0 9.5,9.5 0 0 1 19,9.5 Z" />
    <g
       aria-label="0"
       transform="translate(197.5,737.243)"
       id="text224"
       style="font-size:10px;font-family:Roboto-Regular, Roboto;fill:#ffffff">
      <path
         d="m 5.0488281,-3.0322266 q 0,1.5869141 -0.5419922,2.35839848 Q 3.9648438,0.09765625 2.8125,0.09765625 q -1.1376953,0 -1.6845703,-0.75195312 Q 0.58105469,-1.4111328 0.56152344,-2.9101563 v -1.2060546 q 0,-1.5673828 0.54199216,-2.3291016 0.5419922,-0.7617187 1.6992188,-0.7617187 1.1474609,0 1.6894531,0.7373046 0.5419922,0.7324219 0.5566406,2.265625 z M 4.1455078,-4.2675781 q 0,-1.147461 -0.3222656,-1.6699219 -0.3222656,-0.5273437 -1.0205078,-0.5273437 -0.6933594,0 -1.0107422,0.5224609 -0.3173828,0.5224609 -0.3271485,1.6064453 v 1.4453125 q 0,1.1523438 0.3320313,1.7041016 0.3369141,0.54687496 1.015625,0.54687496 0.6689453,0 0.9912109,-0.51757816 0.3271485,-0.5175781 0.3417969,-1.6308593 z"
         id="path528" />
    </g>
    <g
       transform="translate(229,715.743)"
       fill="#ffffff"
       stroke="#1f6cb6"
       stroke-width="0.5"
       id="g230">
      <path
         id="rect226"
         style="stroke:none"
         d="m 5,0 h 120.5 c 2.77,0 5,2.23 5,5 v 26 c 0,2.77 -2.23,5 -5,5 H 5 C 2.23,36 0,33.77 0,31 V 5 C 0,2.23 2.23,0 5,0 Z" />
      <path
         id="rect228"
         style="fill:none"
         d="m 5,0.25 h 120.5 c 2.6315,0 4.75,2.1185 4.75,4.75 v 26 c 0,2.6315 -2.1185,4.75 -4.75,4.75 H 5 C 2.3685,35.75 0.25,33.6315 0.25,31 V 5 C 0.25,2.3685 2.3685,0.25 5,0.25 Z" />
    </g>
    <g
       aria-label="Linked Flows:"
       transform="translate(241,737.743)"
       id="text234"
       style="font-size:12px;font-family:Roboto-Regular, Roboto;fill:#0c2339">
      <path
         d="M 2.1210938,-0.91992188 H 6.1640625 V 0 H 0.99023438 V -8.53125 H 2.1210938 Z"
         id="path533" />
      <path
         d="M 8.4550781,0 H 7.3710937 v -6.3398437 h 1.0839844 z m -1.171875,-8.0214844 q 0,-0.2636719 0.1582031,-0.4453125 0.1640625,-0.1816406 0.4804688,-0.1816406 0.3164063,0 0.4804688,0.1816406 0.1640625,0.1816406 0.1640625,0.4453125 0,0.2636719 -0.1640625,0.4394532 Q 8.2382813,-7.40625 7.921875,-7.40625 q -0.3164063,0 -0.4804688,-0.1757812 -0.1582031,-0.1757813 -0.1582031,-0.4394532 z"
         id="path535" />
      <path
         d="m 11.214844,-6.3398437 0.03516,0.796875 q 0.726563,-0.9140625 1.898438,-0.9140625 2.009765,0 2.027343,2.2675781 V 0 h -1.083984 v -4.1953125 q -0.0059,-0.6855469 -0.316406,-1.0136719 -0.304688,-0.328125 -0.955078,-0.328125 -0.527344,0 -0.925782,0.28125 -0.398437,0.28125 -0.621093,0.7382813 V 0 h -1.083985 v -6.3398437 z"
         id="path537" />
      <path
         d="m 18.580078,-2.9355469 -0.679687,0.7089844 V 0 h -1.083985 v -9 h 1.083985 v 5.4433594 l 0.580078,-0.6972656 1.974609,-2.0859375 h 1.318359 L 19.306641,-3.6914063 22.060547,0 h -1.271485 z"
         id="path539" />
      <path
         d="m 25.40625,0.1171875 q -1.289063,0 -2.097656,-0.84375 Q 22.5,-1.5761719 22.5,-2.9941406 v -0.1992188 q 0,-0.9433593 0.357422,-1.6816406 0.363281,-0.7441406 1.007812,-1.1601562 0.650391,-0.421875 1.40625,-0.421875 1.236328,0 1.921875,0.8144531 0.685547,0.8144531 0.685547,2.3320312 v 0.4511719 h -4.294922 q 0.02344,0.9375 0.544922,1.5175781 0.527344,0.57421878 1.335938,0.57421878 0.574218,0 0.972656,-0.23437498 0.398437,-0.234375 0.697266,-0.6210938 l 0.662109,0.515625 Q 27,0.1171875 25.40625,0.1171875 Z m -0.134766,-5.6835937 q -0.65625,0 -1.101562,0.4804687 Q 23.724609,-4.6113281 23.619141,-3.75 h 3.175781 v -0.082031 q -0.04687,-0.8261718 -0.445313,-1.2773437 -0.398437,-0.4570312 -1.078125,-0.4570312 z"
         id="path541" />
      <path
         d="m 28.869141,-3.2226563 q 0,-1.4589843 0.691406,-2.3437499 0.691406,-0.890625 1.810547,-0.890625 1.113281,0 1.763672,0.7617187 V -9 h 1.083984 v 9 h -0.996094 l -0.05273,-0.6796875 q -0.650391,0.796875 -1.810547,0.796875 -1.101563,0 -1.798828,-0.90234375 Q 28.869141,-1.6875 28.869141,-3.140625 Z m 1.083984,0.1230469 q 0,1.078125 0.445312,1.6875 0.445313,0.60937502 1.230469,0.60937502 1.03125,0 1.50586,-0.92578122 V -4.640625 q -0.486329,-0.8964844 -1.494141,-0.8964844 -0.796875,0 -1.242188,0.6152344 -0.445312,0.6152344 -0.445312,1.8222656 z"
         id="path543" />
      <path
         d="M 43.746094,-3.7675781 H 40.166016 V 0 h -1.125 v -8.53125 h 5.285156 v 0.9257813 H 40.166016 V -4.6875 h 3.580078 z"
         id="path545" />
      <path
         d="m 46.681641,0 h -1.083985 v -9 h 1.083985 z"
         id="path547" />
      <path
         d="m 48.128906,-3.2285156 q 0,-0.9316406 0.363281,-1.6757813 0.369141,-0.7441406 1.019532,-1.1484375 0.65625,-0.4042968 1.49414,-0.4042968 1.294922,0 2.091797,0.8964843 0.802735,0.8964844 0.802735,2.3847656 v 0.076172 q 0,0.9257813 -0.357422,1.6640625 -0.351563,0.7324219 -1.013672,1.14257815 -0.65625,0.41015625 -1.511719,0.41015625 -1.289062,0 -2.091797,-0.89648437 -0.796875,-0.89648433 -0.796875,-2.37304693 z m 1.089844,0.1289062 q 0,1.0546875 0.486328,1.6933594 0.492188,0.63867188 1.3125,0.63867188 0.826172,0 1.3125,-0.64453128 0.486328,-0.6503906 0.486328,-1.8164062 0,-1.0429688 -0.498047,-1.6875 -0.492187,-0.6503906 -1.3125,-0.6503906 -0.802734,0 -1.294922,0.6386718 -0.492187,0.6386719 -0.492187,1.828125 z"
         id="path549" />
      <path
         d="m 60.873047,-1.4941406 1.21875,-4.8457031 h 1.083984 L 61.330078,0 H 60.451172 L 58.910156,-4.8046875 57.410156,0 H 56.53125 l -1.839844,-6.3398437 h 1.078125 l 1.248047,4.7460937 1.476563,-4.7460937 h 0.873046 z"
         id="path551" />
      <path
         d="m 67.96875,-1.6816406 q 0,-0.4394532 -0.333984,-0.6796875 -0.328125,-0.2460938 -1.154297,-0.421875 -0.820313,-0.1757813 -1.306641,-0.421875 -0.480469,-0.2460938 -0.714844,-0.5859375 -0.228515,-0.3398438 -0.228515,-0.8085938 0,-0.7792968 0.65625,-1.3183593 0.662109,-0.5390625 1.6875,-0.5390625 1.078125,0 1.746093,0.5566406 0.673829,0.5566406 0.673829,1.4238281 h -1.089844 q 0,-0.4453125 -0.38086,-0.7675781 -0.375,-0.3222656 -0.949218,-0.3222656 -0.591797,0 -0.925782,0.2578125 -0.333984,0.2578125 -0.333984,0.6738281 0,0.3925781 0.310547,0.5917969 0.310547,0.1992187 1.119141,0.3808593 0.814453,0.1816406 1.318359,0.4335938 0.503906,0.2519531 0.744141,0.609375 0.246093,0.3515625 0.246093,0.8613281 0,0.84960937 -0.679687,1.36523437 -0.679688,0.50976563 -1.763672,0.50976563 -0.761719,0 -1.347656,-0.26953125 -0.585938,-0.26953125 -0.919922,-0.75 -0.328125,-0.48632815 -0.328125,-1.04882815 h 1.083984 q 0.0293,0.5449219 0.433594,0.8671875 0.410156,0.31640628 1.078125,0.31640628 0.615234,0 0.984375,-0.24609378 0.375,-0.2519531 0.375,-0.6679687 z"
         id="path553" />
      <path
         d="m 70.429687,-0.56835937 q 0,-0.28125001 0.164063,-0.46875003 0.169922,-0.1875 0.503906,-0.1875 0.333985,0 0.503906,0.1875 0.175782,0.18750002 0.175782,0.46875003 0,0.26953124 -0.175782,0.45117187 -0.169921,0.18164062 -0.503906,0.18164062 -0.333984,0 -0.503906,-0.18164062 -0.164063,-0.18164063 -0.164063,-0.45117187 z m 0.0059,-5.17382813 q 0,-0.28125 0.164062,-0.46875 0.169922,-0.1875 0.503907,-0.1875 0.333984,0 0.503906,0.1875 0.175781,0.1875 0.175781,0.46875 0,0.2695313 -0.175781,0.4511719 -0.169922,0.1816406 -0.503906,0.1816406 -0.333985,0 -0.503907,-0.1816406 -0.164062,-0.1816406 -0.164062,-0.4511719 z"
         id="path555" />
    </g>
    <path
       id="rect236"
       transform="translate(322,723)"
       style="fill:#1f6cb6"
       d="m 5,0 h 15 c 2.77,0 5,2.23 5,5 v 12 c 0,2.77 -2.23,5 -5,5 H 5 C 2.23,22 0,19.77 0,17 V 5 C 0,2.23 2.23,0 5,0 Z" />
    <g
       aria-label="0"
       transform="translate(331.5,737.243)"
       id="text240"
       style="font-size:10px;font-family:Roboto-Regular, Roboto;fill:#ffffff">
      <path
         d="m 5.0488281,-3.0322266 q 0,1.5869141 -0.5419922,2.35839848 Q 3.9648438,0.09765625 2.8125,0.09765625 q -1.1376953,0 -1.6845703,-0.75195312 Q 0.58105469,-1.4111328 0.56152344,-2.9101563 v -1.2060546 q 0,-1.5673828 0.54199216,-2.3291016 0.5419922,-0.7617187 1.6992188,-0.7617187 1.1474609,0 1.6894531,0.7373046 0.5419922,0.7324219 0.5566406,2.265625 z M 4.1455078,-4.2675781 q 0,-1.147461 -0.3222656,-1.6699219 -0.3222656,-0.5273437 -1.0205078,-0.5273437 -0.6933594,0 -1.0107422,0.5224609 -0.3173828,0.5224609 -0.3271485,1.6064453 v 1.4453125 q 0,1.1523438 0.3320313,1.7041016 0.3369141,0.54687496 1.015625,0.54687496 0.6689453,0 0.9912109,-0.51757816 0.3271485,-0.5175781 0.3417969,-1.6308593 z"
         id="path559" />
    </g>
  </g>
</svg>
