<svg xmlns="http://www.w3.org/2000/svg" width="53.733" height="38.741" viewBox="0 0 53.733 38.741">
  <g id="Group_1095" data-name="Group 1095" transform="translate(-845.055 -279)">
    <path id="Create_flow_bg" data-name="Create flow bg" d="M5,0H48.733a5,5,0,0,1,5,5V33.741a5,5,0,0,1-5,5H5a5,5,0,0,1-5-5V5A5,5,0,0,1,5,0Z" transform="translate(845.055 279)" fill="#f9e6e6"/>
    <path id="Create_flow_bg_-_Outline" data-name="Create flow bg - Outline" d="M5,.5A4.505,4.505,0,0,0,.5,5V33.741a4.505,4.505,0,0,0,4.5,4.5H48.733a4.505,4.505,0,0,0,4.5-4.5V5a4.505,4.505,0,0,0-4.5-4.5H5M5,0H48.733a5,5,0,0,1,5,5V33.741a5,5,0,0,1-5,5H5a5,5,0,0,1-5-5V5A5,5,0,0,1,5,0Z" transform="translate(845.055 279)" fill="#fe746e"/>
    <path id="Path_1121" data-name="Path 1121" d="M1.46-1.584A2.2,2.2,0,0,1,.582-2.01a.814.814,0,0,1-.275-.624.86.86,0,0,1,.336-.695A1.334,1.334,0,0,1,1.516-3.6a1.456,1.456,0,0,1,.653.142,1.074,1.074,0,0,1,.444.391,1,1,0,0,1,.157.544H2.3a.65.65,0,0,0-.205-.508.834.834,0,0,0-.579-.185.854.854,0,0,0-.541.153.51.51,0,0,0-.194.424.459.459,0,0,0,.184.368A1.808,1.808,0,0,0,1.593-2a2.911,2.911,0,0,1,.693.275,1.052,1.052,0,0,1,.371.35A.894.894,0,0,1,2.778-.9a.831.831,0,0,1-.337.692,1.437,1.437,0,0,1-.9.26,1.671,1.671,0,0,1-.684-.14,1.15,1.15,0,0,1-.49-.385A.938.938,0,0,1,.2-1.03H.667A.612.612,0,0,0,.9-.521a1,1,0,0,0,.636.187.921.921,0,0,0,.569-.151.492.492,0,0,0,.2-.413.483.483,0,0,0-.183-.4A2.111,2.111,0,0,0,1.46-1.584ZM4.4.049A1.154,1.154,0,0,1,3.53-.3a1.309,1.309,0,0,1-.337-.944v-.083a1.585,1.585,0,0,1,.15-.7,1.171,1.171,0,0,1,.42-.483,1.056,1.056,0,0,1,.585-.175.989.989,0,0,1,.8.339,1.469,1.469,0,0,1,.286.972v.188H3.645a.939.939,0,0,0,.228.631.718.718,0,0,0,.555.24.787.787,0,0,0,.405-.1,1.018,1.018,0,0,0,.291-.259L5.4-.461A1.109,1.109,0,0,1,4.4.049ZM4.348-2.319a.6.6,0,0,0-.459.2.967.967,0,0,0-.229.558H4.983V-1.6A.86.86,0,0,0,4.8-2.13.567.567,0,0,0,4.348-2.319Zm2.036-.322L6.4-2.31A.963.963,0,0,1,7.19-2.69q.837,0,.845.945V0H7.583V-1.748a.608.608,0,0,0-.131-.422.523.523,0,0,0-.4-.137.652.652,0,0,0-.386.117.8.8,0,0,0-.259.308V0H5.957V-2.642Zm2.222,1.3a1.547,1.547,0,0,1,.288-.978.911.911,0,0,1,.754-.37.916.916,0,0,1,.735.317V-3.75h.452V0H10.42L10.4-.283a.92.92,0,0,1-.754.332A.9.9,0,0,1,8.9-.327a1.565,1.565,0,0,1-.289-.981Zm.452.051a1.172,1.172,0,0,0,.186.7.6.6,0,0,0,.513.254.659.659,0,0,0,.627-.386V-1.934a.664.664,0,0,0-.623-.374.6.6,0,0,0-.518.256A1.29,1.29,0,0,0,9.058-1.292Zm4.834-.293a2.2,2.2,0,0,1-.878-.426.814.814,0,0,1-.275-.624.86.86,0,0,1,.336-.695,1.334,1.334,0,0,1,.873-.275,1.456,1.456,0,0,1,.653.142,1.074,1.074,0,0,1,.444.391,1,1,0,0,1,.157.544h-.471a.65.65,0,0,0-.205-.508.834.834,0,0,0-.579-.185.854.854,0,0,0-.541.153.51.51,0,0,0-.194.424.459.459,0,0,0,.184.368A1.808,1.808,0,0,0,14.025-2a2.911,2.911,0,0,1,.693.275,1.052,1.052,0,0,1,.371.35A.894.894,0,0,1,15.21-.9a.831.831,0,0,1-.337.692,1.437,1.437,0,0,1-.9.26,1.671,1.671,0,0,1-.684-.14,1.15,1.15,0,0,1-.49-.385.938.938,0,0,1-.172-.554H13.1a.612.612,0,0,0,.238.509,1,1,0,0,0,.636.187.921.921,0,0,0,.569-.151.492.492,0,0,0,.2-.413.483.483,0,0,0-.183-.4A2.111,2.111,0,0,0,13.892-1.584Zm2.524-1.97,1.162,2.9,1.162-2.9h.608V0h-.469V-1.384l.044-1.494L17.756,0H17.4L16.233-2.871l.046,1.487V0h-.469V-3.555Zm4.807,1.97a2.2,2.2,0,0,1-.878-.426.814.814,0,0,1-.275-.624.86.86,0,0,1,.336-.695,1.334,1.334,0,0,1,.873-.275,1.456,1.456,0,0,1,.653.142,1.074,1.074,0,0,1,.444.391,1,1,0,0,1,.157.544h-.471a.65.65,0,0,0-.205-.508.834.834,0,0,0-.579-.185.854.854,0,0,0-.541.153.51.51,0,0,0-.194.424.459.459,0,0,0,.184.368A1.808,1.808,0,0,0,21.356-2a2.911,2.911,0,0,1,.693.275,1.052,1.052,0,0,1,.371.35.894.894,0,0,1,.121.471.831.831,0,0,1-.337.692,1.437,1.437,0,0,1-.9.26,1.671,1.671,0,0,1-.684-.14,1.15,1.15,0,0,1-.49-.385.938.938,0,0,1-.172-.554h.471a.612.612,0,0,0,.238.509,1,1,0,0,0,.636.187.921.921,0,0,0,.569-.151.492.492,0,0,0,.2-.413.483.483,0,0,0-.183-.4A2.111,2.111,0,0,0,21.223-1.584ZM24.4.305h-.388L25.5-3.555h.386Zm5.288-1.948H28.147v1.26h1.79V0H27.678V-3.555h2.234v.383H28.147v1.145h1.541Zm1.7.317H30.2v-.369h1.191Zm2.1-1.316.012.293a.976.976,0,0,1,.784-.342.755.755,0,0,1,.754.425,1,1,0,0,1,.343-.308,1.013,1.013,0,0,1,.5-.117q.869,0,.884.92V0h-.452V-1.743a.607.607,0,0,0-.129-.424.57.57,0,0,0-.435-.14.6.6,0,0,0-.417.15.609.609,0,0,0-.193.4V0h-.454V-1.731a.5.5,0,0,0-.564-.576.6.6,0,0,0-.608.378V0h-.452V-2.642ZM39.08,0a.949.949,0,0,1-.063-.278,1.008,1.008,0,0,1-.752.327.932.932,0,0,1-.641-.221.715.715,0,0,1-.25-.56.747.747,0,0,1,.314-.641,1.479,1.479,0,0,1,.883-.228h.439v-.208a.507.507,0,0,0-.142-.377.569.569,0,0,0-.417-.14.659.659,0,0,0-.405.122.36.36,0,0,0-.164.3h-.454a.623.623,0,0,1,.14-.382.958.958,0,0,1,.381-.292,1.281,1.281,0,0,1,.529-.107,1.044,1.044,0,0,1,.715.228.823.823,0,0,1,.269.629V-.618a1.486,1.486,0,0,0,.093.579V0Zm-.75-.344a.794.794,0,0,0,.4-.11.665.665,0,0,0,.276-.286v-.542h-.354q-.83,0-.83.486a.411.411,0,0,0,.142.332A.544.544,0,0,0,38.33-.344ZM40.659,0h-.452V-2.642h.452Zm-.488-3.342a.27.27,0,0,1,.067-.186.252.252,0,0,1,.2-.076.256.256,0,0,1,.2.076.267.267,0,0,1,.068.186.258.258,0,0,1-.068.183.261.261,0,0,1-.2.073.257.257,0,0,1-.2-.073A.261.261,0,0,1,40.171-3.342ZM41.873,0h-.452V-3.75h.452ZM.955,2.719v.64h.493v.349H.955v1.64a.367.367,0,0,0,.066.238.277.277,0,0,0,.225.079,1.094,1.094,0,0,0,.215-.029V6a1.317,1.317,0,0,1-.347.049.562.562,0,0,1-.457-.183A.787.787,0,0,1,.5,5.346V3.708H.022V3.358H.5v-.64Zm.852,1.936a1.56,1.56,0,0,1,.153-.7,1.138,1.138,0,0,1,.425-.479,1.156,1.156,0,0,1,.621-.168,1.114,1.114,0,0,1,.873.374,1.437,1.437,0,0,1,.333.994v.032a1.574,1.574,0,0,1-.148.692,1.122,1.122,0,0,1-.422.477,1.17,1.17,0,0,1-.631.171,1.111,1.111,0,0,1-.87-.374,1.43,1.43,0,0,1-.333-.989Zm.454.054a1.13,1.13,0,0,0,.2.706.652.652,0,0,0,.546.266.648.648,0,0,0,.547-.27,1.236,1.236,0,0,0,.2-.756,1.128,1.128,0,0,0-.206-.7.656.656,0,0,0-.548-.27.649.649,0,0,0-.54.266A1.227,1.227,0,0,0,2.261,4.708Zm4.814.972A.651.651,0,0,0,7.5,5.534a.515.515,0,0,0,.2-.366h.427a.819.819,0,0,1-.156.432,1.029,1.029,0,0,1-.385.327,1.11,1.11,0,0,1-.509.122,1.088,1.088,0,0,1-.858-.36A1.434,1.434,0,0,1,5.9,4.7V4.628a1.59,1.59,0,0,1,.142-.686,1.079,1.079,0,0,1,.406-.466,1.155,1.155,0,0,1,.626-.166,1.059,1.059,0,0,1,.739.266.951.951,0,0,1,.314.691H7.7A.622.622,0,0,0,7.5,3.845a.6.6,0,0,0-.431-.165.632.632,0,0,0-.533.248,1.164,1.164,0,0,0-.189.717V4.73a1.141,1.141,0,0,0,.188.7A.635.635,0,0,0,7.075,5.68Zm3.188.059a.959.959,0,0,1-.774.31A.821.821,0,0,1,8.846,5.8a1.062,1.062,0,0,1-.223-.726V3.358h.452V5.065q0,.6.488.6a.676.676,0,0,0,.688-.386V3.358H10.7V6h-.43ZM12.927,5.3a.332.332,0,0,0-.138-.284,1.328,1.328,0,0,0-.481-.175,2.274,2.274,0,0,1-.544-.176.775.775,0,0,1-.3-.244.584.584,0,0,1-.1-.337.685.685,0,0,1,.275-.549,1.073,1.073,0,0,1,.7-.225,1.1,1.1,0,0,1,.729.232.737.737,0,0,1,.28.593H12.9a.408.408,0,0,0-.157-.32.59.59,0,0,0-.4-.134.618.618,0,0,0-.386.107.338.338,0,0,0-.139.281.274.274,0,0,0,.129.247,1.592,1.592,0,0,0,.468.159,2.436,2.436,0,0,1,.548.181.8.8,0,0,1,.311.253.621.621,0,0,1,.1.36.676.676,0,0,1-.283.568,1.188,1.188,0,0,1-.735.214,1.33,1.33,0,0,1-.562-.112.913.913,0,0,1-.382-.314.756.756,0,0,1-.138-.436h.452a.468.468,0,0,0,.182.36.706.706,0,0,0,.448.133.728.728,0,0,0,.411-.1A.319.319,0,0,0,12.927,5.3ZM14.58,2.719v.64h.493v.349H14.58v1.64a.367.367,0,0,0,.066.238.277.277,0,0,0,.225.079,1.094,1.094,0,0,0,.215-.029V6a1.317,1.317,0,0,1-.347.049.562.562,0,0,1-.457-.183.787.787,0,0,1-.154-.52V3.708h-.481V3.358h.481v-.64Zm.852,1.936a1.56,1.56,0,0,1,.153-.7,1.138,1.138,0,0,1,.425-.479,1.156,1.156,0,0,1,.621-.168,1.114,1.114,0,0,1,.873.374,1.437,1.437,0,0,1,.333.994v.032a1.574,1.574,0,0,1-.148.692,1.122,1.122,0,0,1-.422.477,1.17,1.17,0,0,1-.631.171,1.111,1.111,0,0,1-.87-.374,1.43,1.43,0,0,1-.333-.989Zm.454.054a1.13,1.13,0,0,0,.2.706.691.691,0,0,0,1.093,0,1.236,1.236,0,0,0,.2-.756,1.128,1.128,0,0,0-.206-.7.656.656,0,0,0-.548-.27.649.649,0,0,0-.54.266A1.227,1.227,0,0,0,15.886,4.708Zm2.942-1.35.012.293a.976.976,0,0,1,.784-.342.755.755,0,0,1,.754.425,1,1,0,0,1,.343-.308,1.013,1.013,0,0,1,.5-.117q.869,0,.884.92V6h-.452V4.257a.607.607,0,0,0-.129-.424.57.57,0,0,0-.435-.14.6.6,0,0,0-.417.15.609.609,0,0,0-.193.4V6h-.454V4.269a.5.5,0,0,0-.564-.576.6.6,0,0,0-.608.378V6H18.4V3.358Zm5.054,2.69a1.154,1.154,0,0,1-.874-.353,1.309,1.309,0,0,1-.337-.944V4.669a1.585,1.585,0,0,1,.15-.7,1.171,1.171,0,0,1,.42-.483,1.056,1.056,0,0,1,.585-.175.989.989,0,0,1,.8.339,1.469,1.469,0,0,1,.286.972v.188h-1.79a.939.939,0,0,0,.228.631.718.718,0,0,0,.555.24.787.787,0,0,0,.405-.1,1.018,1.018,0,0,0,.291-.259l.276.215A1.109,1.109,0,0,1,23.882,6.049Zm-.056-2.368a.6.6,0,0,0-.459.2.967.967,0,0,0-.229.558H24.46V4.4a.86.86,0,0,0-.186-.533A.567.567,0,0,0,23.826,3.681Zm2.886.083a1.354,1.354,0,0,0-.222-.017.6.6,0,0,0-.6.378V6h-.452V3.358h.439l.007.305a.7.7,0,0,1,.63-.354.461.461,0,0,1,.2.034Z" transform="translate(847.805 289.116)" fill="#0c2339"/>
    <path id="Path_1052" data-name="Path 1052" d="M4.159,0A4.159,4.159,0,1,1,0,4.159,4.159,4.159,0,0,1,4.159,0Z" transform="translate(875.863 307.241)" fill="#fe746e"/>
    <path id="Path_1053" data-name="Path 1053" d="M2.1,0H.236V-.26l.984-1.094a2.339,2.339,0,0,0,.3-.4.673.673,0,0,0,.083-.321.51.51,0,0,0-.135-.365.471.471,0,0,0-.359-.143.558.558,0,0,0-.419.153.586.586,0,0,0-.149.427H.182a.839.839,0,0,1,.253-.635.938.938,0,0,1,.677-.242.9.9,0,0,1,.627.208.71.71,0,0,1,.23.554,1.627,1.627,0,0,1-.535,1L.672-.295H2.1Z" transform="translate(878.723 312.54)" fill="#fff"/>
    <path id="Path_1054" data-name="Path 1054" d="M4.159,0A4.159,4.159,0,1,1,0,4.159,4.159,4.159,0,0,1,4.159,0Z" transform="translate(887.649 307.241)" fill="#3cca8e"/>
    <path id="Path_1055" data-name="Path 1055" d="M1.424,0H1.061V-2.408l-.729.268v-.328l1.035-.389h.057Z" transform="translate(890.509 312.54)" fill="#fff"/>
  </g>
</svg>
