<svg xmlns="http://www.w3.org/2000/svg" width="168.5" height="27" viewBox="0 0 168.5 27">
  <g id="Group_1128" data-name="Group 1128" transform="translate(-409 -16.5)">
    <g id="Group_1127" data-name="Group 1127" transform="translate(4)">
      <g id="Group_1074" data-name="Group 1074">
        <g id="Selection_Bar_3" data-name="Selection Bar 3" transform="translate(405 16.5)" fill="rgba(77,192,237,0.13)">
          <path d="M 163.5 26.75 L 5 26.75 C 2.380833387374878 26.75 0.25 24.61916732788086 0.25 22 L 0.25 5 C 0.25 2.380833387374878 2.380833387374878 0.25 5 0.25 L 163.5 0.25 C 166.1191711425781 0.25 168.25 2.380833387374878 168.25 5 L 168.25 22 C 168.25 24.61916732788086 166.1191711425781 26.75 163.5 26.75 Z" stroke="none"/>
          <path d="M 5 0.5 C 2.518692016601562 0.5 0.5 2.518688201904297 0.5 5 L 0.5 22 C 0.5 24.4813117980957 2.518692016601562 26.5 5 26.5 L 163.5 26.5 C 165.9813079833984 26.5 168 24.4813117980957 168 22 L 168 5 C 168 2.518688201904297 165.9813079833984 0.5 163.5 0.5 L 5 0.5 M 5 0 L 163.5 0 C 166.2614135742188 0 168.5 2.238582611083984 168.5 5 L 168.5 22 C 168.5 24.76141738891602 166.2614135742188 27 163.5 27 L 5 27 C 2.238555908203125 27 0 24.76141738891602 0 22 L 0 5 C 0 2.238582611083984 2.238555908203125 0 5 0 Z" stroke="none" fill="#4dc0ed"/>
        </g>
        <path id="Path_3037" data-name="Path 3037" d="M3.433-2.876H1.763V0H.82V-7.109H3.174a2.786,2.786,0,0,1,1.848.547,1.968,1.968,0,0,1,.647,1.592A1.914,1.914,0,0,1,5.31-3.813a2.142,2.142,0,0,1-1,.737L5.981-.059V0H4.976Zm-1.67-.767H3.2A1.625,1.625,0,0,0,4.314-4a1.224,1.224,0,0,0,.413-.969,1.289,1.289,0,0,0-.393-1.013A1.664,1.664,0,0,0,3.2-6.343H1.763ZM9.033.1A2.308,2.308,0,0,1,7.285-.608,2.619,2.619,0,0,1,6.611-2.5v-.166a3.17,3.17,0,0,1,.3-1.4,2.343,2.343,0,0,1,.84-.967,2.112,2.112,0,0,1,1.169-.349,1.979,1.979,0,0,1,1.6.679,2.939,2.939,0,0,1,.571,1.943v.376H7.515a1.878,1.878,0,0,0,.457,1.262A1.435,1.435,0,0,0,9.082-.64a1.573,1.573,0,0,0,.811-.2,2.037,2.037,0,0,0,.581-.518l.552.43A2.219,2.219,0,0,1,9.033.1ZM8.921-4.639a1.2,1.2,0,0,0-.918.4,1.934,1.934,0,0,0-.459,1.116H10.19v-.068A1.721,1.721,0,0,0,9.819-4.26,1.134,1.134,0,0,0,8.921-4.639Zm3,1.953A3.105,3.105,0,0,1,12.5-4.651a1.827,1.827,0,0,1,1.514-.73,1.817,1.817,0,0,1,1.509.684l.044-.586h.825V-.127a2.149,2.149,0,0,1-.608,1.616,2.243,2.243,0,0,1-1.633.591,2.717,2.717,0,0,1-1.118-.244,1.925,1.925,0,0,1-.835-.669l.469-.542a1.766,1.766,0,0,0,1.421.718A1.384,1.384,0,0,0,15.11.972a1.418,1.418,0,0,0,.369-1.045V-.527A1.857,1.857,0,0,1,14,.1a1.8,1.8,0,0,1-1.5-.747A3.265,3.265,0,0,1,11.924-2.686Zm.908.1a2.369,2.369,0,0,0,.366,1.4,1.19,1.19,0,0,0,1.025.51,1.323,1.323,0,0,0,1.255-.776V-3.857a1.339,1.339,0,0,0-1.245-.757A1.2,1.2,0,0,0,13.2-4.1,2.58,2.58,0,0,0,12.832-2.583ZM21.011-.522A1.919,1.919,0,0,1,19.463.1a1.642,1.642,0,0,1-1.287-.491,2.124,2.124,0,0,1-.447-1.453V-5.283h.9V-1.87q0,1.2.977,1.2a1.352,1.352,0,0,0,1.377-.771V-5.283h.9V0H21.03ZM24.243,0h-.9V-7.5h.9ZM28.95,0a1.9,1.9,0,0,1-.127-.557,2.015,2.015,0,0,1-1.5.654,1.865,1.865,0,0,1-1.282-.442,1.43,1.43,0,0,1-.5-1.121,1.494,1.494,0,0,1,.627-1.282A2.958,2.958,0,0,1,27.93-3.2h.879v-.415a1.015,1.015,0,0,0-.283-.754,1.138,1.138,0,0,0-.835-.281,1.317,1.317,0,0,0-.811.244.719.719,0,0,0-.327.591h-.908a1.247,1.247,0,0,1,.281-.764,1.916,1.916,0,0,1,.762-.583,2.563,2.563,0,0,1,1.057-.215,2.089,2.089,0,0,1,1.431.457,1.647,1.647,0,0,1,.537,1.257v2.432A2.973,2.973,0,0,0,29.9-.078V0Zm-1.5-.688a1.588,1.588,0,0,0,.806-.22,1.329,1.329,0,0,0,.552-.571V-2.563H28.1q-1.66,0-1.66.972a.822.822,0,0,0,.283.664A1.089,1.089,0,0,0,27.451-.688Zm6.23-3.784a2.707,2.707,0,0,0-.444-.034,1.19,1.19,0,0,0-1.206.757V0h-.9V-5.283h.879l.015.61a1.407,1.407,0,0,1,1.26-.708.923.923,0,0,1,.4.068Zm4.385,1.689V0h-.937V-7.109h2.622a2.634,2.634,0,0,1,1.829.6,2.02,2.02,0,0,1,.662,1.577,1.993,1.993,0,0,1-.647,1.594,2.752,2.752,0,0,1-1.853.559Zm0-.767h1.685A1.684,1.684,0,0,0,40.9-3.9a1.3,1.3,0,0,0,.4-1.025,1.34,1.34,0,0,0-.4-1.017,1.578,1.578,0,0,0-1.1-.4H38.066ZM45.425.1a2.308,2.308,0,0,1-1.748-.706A2.619,2.619,0,0,1,43-2.5v-.166a3.17,3.17,0,0,1,.3-1.4,2.343,2.343,0,0,1,.84-.967,2.112,2.112,0,0,1,1.169-.349,1.979,1.979,0,0,1,1.6.679,2.939,2.939,0,0,1,.571,1.943v.376H43.906a1.878,1.878,0,0,0,.457,1.262,1.435,1.435,0,0,0,1.111.481,1.573,1.573,0,0,0,.811-.2,2.037,2.037,0,0,0,.581-.518l.552.43A2.219,2.219,0,0,1,45.425.1Zm-.112-4.736a1.2,1.2,0,0,0-.918.4,1.934,1.934,0,0,0-.459,1.116h2.646v-.068a1.721,1.721,0,0,0-.371-1.067A1.134,1.134,0,0,0,45.313-4.639Zm5.771.166a2.707,2.707,0,0,0-.444-.034,1.19,1.19,0,0,0-1.206.757V0h-.9V-5.283h.879l.015.61a1.407,1.407,0,0,1,1.26-.708.923.923,0,0,1,.4.068ZM52.432,0V-4.585H51.6v-.7h.835v-.542a1.8,1.8,0,0,1,.454-1.313A1.715,1.715,0,0,1,54.17-7.6a2.385,2.385,0,0,1,.62.082l-.049.728a2.594,2.594,0,0,0-.488-.044.881.881,0,0,0-.679.257,1.043,1.043,0,0,0-.239.737v.558h1.128v.7H53.335V0ZM55.22-2.69a3.121,3.121,0,0,1,.305-1.4,2.277,2.277,0,0,1,.85-.957,2.313,2.313,0,0,1,1.243-.337,2.228,2.228,0,0,1,1.746.747,2.874,2.874,0,0,1,.667,1.987v.063a3.148,3.148,0,0,1-.3,1.384,2.243,2.243,0,0,1-.845.955A2.339,2.339,0,0,1,57.627.1a2.222,2.222,0,0,1-1.741-.747,2.86,2.86,0,0,1-.667-1.978Zm.908.107a2.26,2.26,0,0,0,.408,1.411,1.3,1.3,0,0,0,1.091.532,1.3,1.3,0,0,0,1.094-.54,2.472,2.472,0,0,0,.405-1.511A2.256,2.256,0,0,0,58.713-4.1a1.312,1.312,0,0,0-1.1-.54,1.3,1.3,0,0,0-1.079.532A2.453,2.453,0,0,0,56.128-2.583Zm7.588-1.89a2.707,2.707,0,0,0-.444-.034,1.19,1.19,0,0,0-1.206.757V0h-.9V-5.283h.879l.015.61a1.407,1.407,0,0,1,1.26-.708.923.923,0,0,1,.4.068Zm1.68-.811.024.586a1.951,1.951,0,0,1,1.567-.684,1.51,1.51,0,0,1,1.509.85,2,2,0,0,1,.686-.615,2.026,2.026,0,0,1,1-.234q1.738,0,1.768,1.841V0h-.9V-3.486a1.213,1.213,0,0,0-.259-.847,1.14,1.14,0,0,0-.869-.281,1.2,1.2,0,0,0-.835.3,1.218,1.218,0,0,0-.386.808V0h-.908V-3.462A1.008,1.008,0,0,0,66.66-4.614a1.209,1.209,0,0,0-1.216.757V0h-.9V-5.283ZM76.572,0a1.9,1.9,0,0,1-.127-.557,2.016,2.016,0,0,1-1.5.654A1.865,1.865,0,0,1,73.66-.344a1.43,1.43,0,0,1-.5-1.121,1.494,1.494,0,0,1,.627-1.282A2.958,2.958,0,0,1,75.552-3.2h.879v-.415a1.015,1.015,0,0,0-.283-.754,1.138,1.138,0,0,0-.835-.281,1.317,1.317,0,0,0-.811.244.719.719,0,0,0-.327.591h-.908a1.247,1.247,0,0,1,.281-.764,1.916,1.916,0,0,1,.762-.583,2.563,2.563,0,0,1,1.057-.215,2.089,2.089,0,0,1,1.431.457,1.647,1.647,0,0,1,.537,1.257v2.432A2.973,2.973,0,0,0,77.52-.078V0Zm-1.5-.688a1.588,1.588,0,0,0,.806-.22,1.329,1.329,0,0,0,.552-.571V-2.563h-.708q-1.66,0-1.66.972a.822.822,0,0,0,.283.664A1.089,1.089,0,0,0,75.073-.688ZM79.6-5.283l.029.664a1.925,1.925,0,0,1,1.582-.762q1.675,0,1.689,1.89V0H82V-3.5a1.216,1.216,0,0,0-.261-.845,1.047,1.047,0,0,0-.8-.273,1.3,1.3,0,0,0-.771.234,1.592,1.592,0,0,0-.518.615V0h-.9V-5.283ZM86.387-.64a1.3,1.3,0,0,0,.845-.293,1.031,1.031,0,0,0,.4-.732h.854a1.638,1.638,0,0,1-.312.864,2.058,2.058,0,0,1-.769.654A2.219,2.219,0,0,1,86.387.1a2.176,2.176,0,0,1-1.716-.72,2.869,2.869,0,0,1-.637-1.97v-.151a3.181,3.181,0,0,1,.283-1.372,2.157,2.157,0,0,1,.813-.933,2.309,2.309,0,0,1,1.252-.332,2.119,2.119,0,0,1,1.477.532,1.9,1.9,0,0,1,.627,1.382h-.854a1.245,1.245,0,0,0-.388-.842,1.208,1.208,0,0,0-.862-.33,1.264,1.264,0,0,0-1.067.5,2.328,2.328,0,0,0-.378,1.433v.171a2.281,2.281,0,0,0,.376,1.406A1.27,1.27,0,0,0,86.387-.64ZM91.694.1a2.308,2.308,0,0,1-1.748-.706A2.619,2.619,0,0,1,89.272-2.5v-.166a3.17,3.17,0,0,1,.3-1.4,2.342,2.342,0,0,1,.84-.967,2.112,2.112,0,0,1,1.169-.349,1.979,1.979,0,0,1,1.6.679,2.939,2.939,0,0,1,.571,1.943v.376H90.176a1.878,1.878,0,0,0,.457,1.262,1.435,1.435,0,0,0,1.111.481,1.573,1.573,0,0,0,.811-.2,2.037,2.037,0,0,0,.581-.518l.552.43A2.219,2.219,0,0,1,91.694.1Zm-.112-4.736a1.2,1.2,0,0,0-.918.4,1.934,1.934,0,0,0-.459,1.116h2.646v-.068A1.721,1.721,0,0,0,92.48-4.26,1.134,1.134,0,0,0,91.582-4.639Z" transform="translate(466 32.5)" fill="#0c2339"/>
      </g>
      <path id="Path_3038" data-name="Path 3038" d="M4.5,0A4.5,4.5,0,1,1,0,4.5,4.5,4.5,0,0,1,4.5,0Z" transform="translate(413 25.5)" fill="#4dc0ed"/>
    </g>
    <path id="Path_158" data-name="Path 158" d="M3403.136,1329.557l1.837,1.575,2.737-3.763" transform="translate(-2984 -1299.5)" fill="none" stroke="#fff" stroke-linecap="round" stroke-width="0.5"/>
  </g>
</svg>
