<svg xmlns="http://www.w3.org/2000/svg" xmlns:xlink="http://www.w3.org/1999/xlink" width="549" height="229.5" viewBox="0 0 549 229.5">
  <defs>
    <clipPath id="clip-path">
      <path id="Path_125" data-name="Path 125" d="M0,0H11.75V11.75H0Z" fill="none"/>
    </clipPath>
    <clipPath id="clip-path-2">
      <rect id="Rectangle_45" data-name="Rectangle 45" width="549" height="229" rx="5" transform="translate(393 373)" fill="none" stroke="rgba(165,170,188,0.5)" stroke-width="1"/>
    </clipPath>
  </defs>
  <g id="Group_1042" data-name="Group 1042" transform="translate(-6894 1820)">
    <path id="Path_1173" data-name="Path 1173" d="M5,0H544a5,5,0,0,1,5,5V224a5,5,0,0,1-5,5H5a5,5,0,0,1-5-5V5A5,5,0,0,1,5,0Z" transform="translate(6894 -1820)" fill="#fff"/>
    <path id="Path_1174" data-name="Path 1174" d="M132.5,0H0" transform="translate(6894 -1746.004)" fill="none" stroke="rgba(165,170,188,0.5)" stroke-width="1"/>
    <path id="Path_1175" data-name="Path 1175" d="M2.036-7.109l2.324,5.8,2.324-5.8H7.9V0H6.963V-2.769l.088-2.988L4.717,0H4L1.67-5.742l.093,2.974V0H.825V-7.109Zm12.29.767H12.041V0h-.933V-6.343H8.828v-.767h5.5Zm6.147,4.087a2.616,2.616,0,0,1-.833,1.741A2.728,2.728,0,0,1,17.778.1a2.505,2.505,0,0,1-2.019-.9A3.634,3.634,0,0,1,15-3.223v-.684a4.051,4.051,0,0,1,.354-1.743,2.644,2.644,0,0,1,1-1.155,2.794,2.794,0,0,1,1.5-.4,2.569,2.569,0,0,1,1.816.632,2.647,2.647,0,0,1,.8,1.75h-.942A2.043,2.043,0,0,0,19-6.058a1.6,1.6,0,0,0-1.14-.382,1.677,1.677,0,0,0-1.409.665,3.051,3.051,0,0,0-.51,1.891V-3.2a3.136,3.136,0,0,0,.483,1.842,1.562,1.562,0,0,0,1.353.684,1.8,1.8,0,0,0,1.2-.354,1.964,1.964,0,0,0,.554-1.233Zm3.018-.4H21.108v-.737h2.383Zm5.244-.381a4.131,4.131,0,0,1-.542,2.358A1.928,1.928,0,0,1,26.5.1a1.942,1.942,0,0,1-1.685-.754,3.921,3.921,0,0,1-.566-2.253V-4.116a4.039,4.039,0,0,1,.542-2.329,1.942,1.942,0,0,1,1.7-.762,1.96,1.96,0,0,1,1.689.735A3.9,3.9,0,0,1,28.735-4.2Zm-.9-1.235A3.31,3.31,0,0,0,27.51-5.94a1.109,1.109,0,0,0-1.021-.525,1.1,1.1,0,0,0-1.011.522,3.232,3.232,0,0,0-.327,1.606v1.445a3.363,3.363,0,0,0,.334,1.7A1.107,1.107,0,0,0,26.5-.64a1.092,1.092,0,0,0,.994-.518,3.241,3.241,0,0,0,.339-1.631Zm6.519,1.235a4.131,4.131,0,0,1-.542,2.358A1.928,1.928,0,0,1,32.114.1,1.942,1.942,0,0,1,30.43-.657a3.921,3.921,0,0,1-.566-2.253V-4.116a4.039,4.039,0,0,1,.542-2.329,1.942,1.942,0,0,1,1.7-.762,1.96,1.96,0,0,1,1.689.735A3.9,3.9,0,0,1,34.351-4.2Zm-.9-1.235a3.31,3.31,0,0,0-.322-1.672A1.109,1.109,0,0,0,32.1-6.465a1.1,1.1,0,0,0-1.011.522,3.232,3.232,0,0,0-.327,1.606v1.445a3.363,3.363,0,0,0,.334,1.7,1.107,1.107,0,0,0,1.013.549,1.092,1.092,0,0,0,.994-.518,3.241,3.241,0,0,0,.339-1.631ZM38.477,0h-.908V-6.021l-1.821.669v-.82l2.588-.972h.142Zm3.96-3.994h.679a1.492,1.492,0,0,0,1.006-.337,1.126,1.126,0,0,0,.366-.884,1.1,1.1,0,0,0-1.245-1.25,1.3,1.3,0,0,0-.935.334,1.171,1.171,0,0,0-.349.886h-.9a1.814,1.814,0,0,1,.618-1.4,2.25,2.25,0,0,1,1.57-.559,2.224,2.224,0,0,1,1.577.532A1.923,1.923,0,0,1,45.391-5.2a1.561,1.561,0,0,1-.3.9,1.813,1.813,0,0,1-.818.649,1.747,1.747,0,0,1,.906.615,1.709,1.709,0,0,1,.32,1.05,1.939,1.939,0,0,1-.625,1.519A2.34,2.34,0,0,1,43.247.1a2.4,2.4,0,0,1-1.628-.542,1.8,1.8,0,0,1-.627-1.431H41.9a1.162,1.162,0,0,0,.366.9,1.393,1.393,0,0,0,.981.337,1.367,1.367,0,0,0,1-.342,1.317,1.317,0,0,0,.347-.981,1.2,1.2,0,0,0-.381-.952,1.659,1.659,0,0,0-1.1-.342h-.679Z" transform="translate(6932 -1795.748)" fill="#0c2339"/>
    <path id="Path_1176" data-name="Path 1176" d="M2.036-7.109l2.324,5.8,2.324-5.8H7.9V0H6.963V-2.769l.088-2.988L4.717,0H4L1.67-5.742l.093,2.974V0H.825V-7.109Zm12.29.767H12.041V0h-.933V-6.343H8.828v-.767h5.5Zm6.147,4.087a2.616,2.616,0,0,1-.833,1.741A2.728,2.728,0,0,1,17.778.1a2.505,2.505,0,0,1-2.019-.9A3.634,3.634,0,0,1,15-3.223v-.684a4.051,4.051,0,0,1,.354-1.743,2.644,2.644,0,0,1,1-1.155,2.794,2.794,0,0,1,1.5-.4,2.569,2.569,0,0,1,1.816.632,2.647,2.647,0,0,1,.8,1.75h-.942A2.043,2.043,0,0,0,19-6.058a1.6,1.6,0,0,0-1.14-.382,1.677,1.677,0,0,0-1.409.665,3.051,3.051,0,0,0-.51,1.891V-3.2a3.136,3.136,0,0,0,.483,1.842,1.562,1.562,0,0,0,1.353.684,1.8,1.8,0,0,0,1.2-.354,1.964,1.964,0,0,0,.554-1.233Zm3.018-.4H21.108v-.737h2.383Zm5.244-.381a4.131,4.131,0,0,1-.542,2.358A1.928,1.928,0,0,1,26.5.1a1.942,1.942,0,0,1-1.685-.754,3.921,3.921,0,0,1-.566-2.253V-4.116a4.039,4.039,0,0,1,.542-2.329,1.942,1.942,0,0,1,1.7-.762,1.96,1.96,0,0,1,1.689.735A3.9,3.9,0,0,1,28.735-4.2Zm-.9-1.235A3.31,3.31,0,0,0,27.51-5.94a1.109,1.109,0,0,0-1.021-.525,1.1,1.1,0,0,0-1.011.522,3.232,3.232,0,0,0-.327,1.606v1.445a3.363,3.363,0,0,0,.334,1.7A1.107,1.107,0,0,0,26.5-.64a1.092,1.092,0,0,0,.994-.518,3.241,3.241,0,0,0,.339-1.631Zm6.519,1.235a4.131,4.131,0,0,1-.542,2.358A1.928,1.928,0,0,1,32.114.1,1.942,1.942,0,0,1,30.43-.657a3.921,3.921,0,0,1-.566-2.253V-4.116a4.039,4.039,0,0,1,.542-2.329,1.942,1.942,0,0,1,1.7-.762,1.96,1.96,0,0,1,1.689.735A3.9,3.9,0,0,1,34.351-4.2Zm-.9-1.235a3.31,3.31,0,0,0-.322-1.672A1.109,1.109,0,0,0,32.1-6.465a1.1,1.1,0,0,0-1.011.522,3.232,3.232,0,0,0-.327,1.606v1.445a3.363,3.363,0,0,0,.334,1.7,1.107,1.107,0,0,0,1.013.549,1.092,1.092,0,0,0,.994-.518,3.241,3.241,0,0,0,.339-1.631ZM38.477,0h-.908V-6.021l-1.821.669v-.82l2.588-.972h.142Zm6.46-2.388h.986v.737h-.986V0h-.908V-1.65H40.791v-.532l3.184-4.927h.962Zm-3.12,0h2.212V-5.874l-.107.2Z" transform="translate(6932 -1759.748)" fill="#0c2339"/>
    <path id="Path_1177" data-name="Path 1177" d="M2.324-7.109,4.375-1.66,6.421-7.109h1.6V0H6.787V-2.344l.122-3.135L4.81,0H3.926L1.831-5.474l.122,3.13V0H.723V-7.109Zm12.148,1H12.256V0H11.03V-6.113h-2.2v-1h5.64Zm6.221,3.8a2.567,2.567,0,0,1-.84,1.775A2.863,2.863,0,0,1,17.905.1a2.772,2.772,0,0,1-1.5-.4,2.644,2.644,0,0,1-1-1.145,4.132,4.132,0,0,1-.366-1.724v-.664A4.162,4.162,0,0,1,15.4-5.61a2.686,2.686,0,0,1,1.023-1.182,2.853,2.853,0,0,1,1.541-.415,2.748,2.748,0,0,1,1.895.637,2.663,2.663,0,0,1,.835,1.8h-1.23a1.756,1.756,0,0,0-.447-1.106,1.477,1.477,0,0,0-1.052-.339,1.442,1.442,0,0,0-1.238.589,2.943,2.943,0,0,0-.442,1.728v.63A3.122,3.122,0,0,0,16.7-1.5,1.369,1.369,0,0,0,17.905-.9,1.6,1.6,0,0,0,19-1.226a1.706,1.706,0,0,0,.464-1.089Zm3.291-.229H21.421V-3.5h2.563Zm5.537-.449a3.877,3.877,0,0,1-.574,2.312A2.026,2.026,0,0,1,27.2.1a2.053,2.053,0,0,1-1.736-.759,3.713,3.713,0,0,1-.6-2.249v-1.23a3.819,3.819,0,0,1,.574-2.3,2.045,2.045,0,0,1,1.75-.767,2.057,2.057,0,0,1,1.741.747,3.7,3.7,0,0,1,.588,2.236ZM28.335-4.321a3.008,3.008,0,0,0-.273-1.467.933.933,0,0,0-.869-.466.933.933,0,0,0-.854.442,2.78,2.78,0,0,0-.288,1.379v1.611a3.086,3.086,0,0,0,.278,1.484A.935.935,0,0,0,27.2-.85a.918.918,0,0,0,.845-.452,2.9,2.9,0,0,0,.288-1.414Zm6.87,1.328a3.877,3.877,0,0,1-.574,2.312A2.026,2.026,0,0,1,32.886.1,2.053,2.053,0,0,1,31.15-.662a3.713,3.713,0,0,1-.6-2.249v-1.23a3.819,3.819,0,0,1,.574-2.3,2.045,2.045,0,0,1,1.75-.767,2.057,2.057,0,0,1,1.741.747,3.7,3.7,0,0,1,.588,2.236ZM34.019-4.321a3.008,3.008,0,0,0-.273-1.467.933.933,0,0,0-.869-.466.933.933,0,0,0-.854.442,2.78,2.78,0,0,0-.288,1.379v1.611a3.086,3.086,0,0,0,.278,1.484.935.935,0,0,0,.874.488A.918.918,0,0,0,33.73-1.3a2.9,2.9,0,0,0,.288-1.414ZM39.468,0H38.286V-5.711l-1.743.594v-1l2.773-1.021h.151Zm3.843-4.1h.723A1.293,1.293,0,0,0,44.9-4.38a1.01,1.01,0,0,0,.32-.806,1.1,1.1,0,0,0-.266-.789,1.071,1.071,0,0,0-.813-.281,1.133,1.133,0,0,0-.786.276.922.922,0,0,0-.308.72H41.86a1.8,1.8,0,0,1,.291-1,1.952,1.952,0,0,1,.811-.7,2.64,2.64,0,0,1,1.165-.251,2.445,2.445,0,0,1,1.672.535,1.876,1.876,0,0,1,.608,1.487,1.511,1.511,0,0,1-.305.9,1.914,1.914,0,0,1-.789.637,1.744,1.744,0,0,1,.891.63,1.725,1.725,0,0,1,.305,1.025,1.909,1.909,0,0,1-.657,1.523A2.55,2.55,0,0,1,44.126.1a2.531,2.531,0,0,1-1.68-.547A1.8,1.8,0,0,1,41.792-1.9h1.187a.993.993,0,0,0,.315.762,1.194,1.194,0,0,0,.847.293,1.232,1.232,0,0,0,.869-.293,1.1,1.1,0,0,0,.317-.85A1.11,1.11,0,0,0,45-2.856a1.42,1.42,0,0,0-.986-.3h-.7Zm5.1,2.847a.678.678,0,0,1,.513.188.653.653,0,0,1,.181.471.63.63,0,0,1-.181.461.688.688,0,0,1-.513.183.69.69,0,0,1-.5-.181.619.619,0,0,1-.186-.464.653.653,0,0,1,.181-.471A.671.671,0,0,1,48.413-1.25Zm0-4.146a.678.678,0,0,1,.513.188.653.653,0,0,1,.181.471.63.63,0,0,1-.181.461.688.688,0,0,1-.513.183.69.69,0,0,1-.5-.181.619.619,0,0,1-.186-.464.653.653,0,0,1,.181-.471A.671.671,0,0,1,48.413-5.4Zm1.812-.347A1.427,1.427,0,0,1,50.64-6.8a1.477,1.477,0,0,1,1.089-.413,1.482,1.482,0,0,1,1.1.413,1.463,1.463,0,0,1,.413,1.082v.352a1.417,1.417,0,0,1-.413,1.05,1.474,1.474,0,0,1-1.086.41,1.52,1.52,0,0,1-1.086-.4A1.422,1.422,0,0,1,50.225-5.4Zm.83.374a.783.783,0,0,0,.188.546.636.636,0,0,0,.5.208.623.623,0,0,0,.488-.208.819.819,0,0,0,.186-.565v-.357a.792.792,0,0,0-.188-.548.632.632,0,0,0-.5-.21.614.614,0,0,0-.491.213.83.83,0,0,0-.183.561Zm2.588,3.625a1.4,1.4,0,0,1,.425-1.06,1.507,1.507,0,0,1,1.084-.405,1.5,1.5,0,0,1,1.086.405,1.445,1.445,0,0,1,.422,1.094v.347a1.428,1.428,0,0,1-.408,1.047A1.465,1.465,0,0,1,55.161.1a1.508,1.508,0,0,1-1.1-.408,1.437,1.437,0,0,1-.417-1.077Zm.83.376a.779.779,0,0,0,.193.544.639.639,0,0,0,.5.212.62.62,0,0,0,.491-.2.833.833,0,0,0,.178-.569v-.366a.772.772,0,0,0-.19-.547.637.637,0,0,0-.488-.205.635.635,0,0,0-.491.205.807.807,0,0,0-.188.566Zm-2.49.835-.61-.352L54.844-6.44l.61.352ZM59.961-2.69a3.115,3.115,0,0,1,.308-1.4,2.247,2.247,0,0,1,.864-.957,2.435,2.435,0,0,1,1.279-.334,2.308,2.308,0,0,1,1.736.688,2.708,2.708,0,0,1,.72,1.826l0,.278a3.143,3.143,0,0,1-.3,1.4,2.22,2.22,0,0,1-.859.952A2.453,2.453,0,0,1,62.422.1a2.292,2.292,0,0,1-1.79-.745,2.852,2.852,0,0,1-.671-1.985Zm1.187.1a2.129,2.129,0,0,0,.337,1.277,1.1,1.1,0,0,0,.938.461,1.083,1.083,0,0,0,.935-.469,2.351,2.351,0,0,0,.334-1.372,2.1,2.1,0,0,0-.344-1.27,1.1,1.1,0,0,0-.935-.469,1.089,1.089,0,0,0-.923.461A2.307,2.307,0,0,0,61.147-2.588ZM66.294,0V-4.4h-.806v-.879h.806v-.483a1.815,1.815,0,0,1,.488-1.357A1.87,1.87,0,0,1,68.149-7.6a2.742,2.742,0,0,1,.664.088l-.029.928a2.337,2.337,0,0,0-.454-.039.762.762,0,0,0-.85.874v.469h1.074V-4.4H67.48V0Zm7.788-.85a1.073,1.073,0,0,0,.737-.259.884.884,0,0,0,.313-.64H76.25a1.743,1.743,0,0,1-.308.92,2.018,2.018,0,0,1-.781.676A2.328,2.328,0,0,1,74.1.1,2.253,2.253,0,0,1,72.339-.62,2.847,2.847,0,0,1,71.689-2.6v-.122a2.8,2.8,0,0,1,.645-1.931,2.232,2.232,0,0,1,1.758-.725,2.171,2.171,0,0,1,1.536.549,1.968,1.968,0,0,1,.623,1.443H75.132a1.087,1.087,0,0,0-.31-.747,1,1,0,0,0-.74-.293,1.044,1.044,0,0,0-.889.417,2.13,2.13,0,0,0-.317,1.267v.19a2.166,2.166,0,0,0,.31,1.282A1.043,1.043,0,0,0,74.082-.85Zm6.265.332A1.84,1.84,0,0,1,78.862.1a1.64,1.64,0,0,1-1.3-.5,2.14,2.14,0,0,1-.442-1.455V-5.283h1.187v3.408q0,1.006.835,1.006a1.173,1.173,0,0,0,1.167-.62V-5.283h1.187V0H80.376Zm5.317-.918a.538.538,0,0,0-.261-.483,2.778,2.778,0,0,0-.867-.293,4.455,4.455,0,0,1-1.011-.322,1.349,1.349,0,0,1-.889-1.245,1.406,1.406,0,0,1,.576-1.143,2.278,2.278,0,0,1,1.465-.459,2.37,2.37,0,0,1,1.531.469A1.487,1.487,0,0,1,86.792-3.7H85.605a.731.731,0,0,0-.254-.569.973.973,0,0,0-.674-.227,1.051,1.051,0,0,0-.637.181.57.57,0,0,0-.247.483.481.481,0,0,0,.229.425,3.156,3.156,0,0,0,.928.305,4.392,4.392,0,0,1,1.1.366,1.552,1.552,0,0,1,.591.51,1.3,1.3,0,0,1,.193.723A1.377,1.377,0,0,1,86.24-.344,2.519,2.519,0,0,1,84.692.1a2.732,2.732,0,0,1-1.157-.234,1.9,1.9,0,0,1-.791-.645,1.526,1.526,0,0,1-.283-.884h1.152a.836.836,0,0,0,.317.647,1.233,1.233,0,0,0,.776.227,1.2,1.2,0,0,0,.713-.178A.552.552,0,0,0,85.664-1.436Zm3.687-5.132v1.284h.933V-4.4h-.933v2.949a.65.65,0,0,0,.12.437.555.555,0,0,0,.427.134,1.828,1.828,0,0,0,.415-.049v.918A2.922,2.922,0,0,1,89.531.1q-1.367,0-1.367-1.509V-4.4h-.869v-.879h.869V-6.567ZM90.82-2.69a3.115,3.115,0,0,1,.308-1.4,2.247,2.247,0,0,1,.864-.957,2.435,2.435,0,0,1,1.279-.334,2.308,2.308,0,0,1,1.736.688,2.708,2.708,0,0,1,.72,1.826l0,.278a3.143,3.143,0,0,1-.3,1.4,2.22,2.22,0,0,1-.859.952A2.453,2.453,0,0,1,93.281.1a2.292,2.292,0,0,1-1.79-.745,2.852,2.852,0,0,1-.671-1.985Zm1.187.1a2.129,2.129,0,0,0,.337,1.277,1.1,1.1,0,0,0,.938.461,1.083,1.083,0,0,0,.935-.469,2.351,2.351,0,0,0,.334-1.372,2.1,2.1,0,0,0-.344-1.27,1.1,1.1,0,0,0-.935-.469,1.089,1.089,0,0,0-.923.461A2.307,2.307,0,0,0,92.007-2.588Zm5.845-2.7.034.552a1.9,1.9,0,0,1,1.523-.649,1.46,1.46,0,0,1,1.45.811,1.874,1.874,0,0,1,1.621-.811,1.647,1.647,0,0,1,1.3.483,2.128,2.128,0,0,1,.437,1.426V0h-1.187V-3.437a1.051,1.051,0,0,0-.22-.737.962.962,0,0,0-.728-.234.988.988,0,0,0-.662.217,1.146,1.146,0,0,0-.359.569l0,3.623H99.883V-3.477a.846.846,0,0,0-.952-.933,1.045,1.045,0,0,0-1.011.581V0H96.733V-5.283ZM107.764.1a2.455,2.455,0,0,1-1.829-.71,2.577,2.577,0,0,1-.7-1.892v-.146a3.17,3.17,0,0,1,.305-1.414,2.323,2.323,0,0,1,.857-.969,2.265,2.265,0,0,1,1.23-.347,2.074,2.074,0,0,1,1.667.688,2.911,2.911,0,0,1,.588,1.948v.479h-3.452a1.587,1.587,0,0,0,.437,1.035,1.312,1.312,0,0,0,.964.381,1.607,1.607,0,0,0,1.328-.659l.64.61a2.136,2.136,0,0,1-.847.735A2.652,2.652,0,0,1,107.764.1Zm-.142-4.526a1,1,0,0,0-.789.342,1.772,1.772,0,0,0-.383.952h2.261v-.088a1.442,1.442,0,0,0-.317-.9A.992.992,0,0,0,107.622-4.429Zm5.947.229a2.936,2.936,0,0,0-.483-.039,1.088,1.088,0,0,0-1.1.625V0H110.8V-5.283h1.133l.029.591a1.337,1.337,0,0,1,1.191-.688,1.111,1.111,0,0,1,.42.068Zm3.711,2.764a.538.538,0,0,0-.261-.483,2.778,2.778,0,0,0-.867-.293,4.455,4.455,0,0,1-1.011-.322,1.349,1.349,0,0,1-.889-1.245,1.406,1.406,0,0,1,.576-1.143,2.278,2.278,0,0,1,1.465-.459,2.37,2.37,0,0,1,1.531.469,1.487,1.487,0,0,1,.583,1.216h-1.187a.731.731,0,0,0-.254-.569.973.973,0,0,0-.674-.227,1.051,1.051,0,0,0-.637.181.57.57,0,0,0-.247.483.481.481,0,0,0,.229.425,3.156,3.156,0,0,0,.928.305,4.392,4.392,0,0,1,1.1.366,1.552,1.552,0,0,1,.591.51,1.3,1.3,0,0,1,.193.723,1.377,1.377,0,0,1-.591,1.155A2.519,2.519,0,0,1,116.309.1a2.732,2.732,0,0,1-1.157-.234,1.9,1.9,0,0,1-.791-.645,1.526,1.526,0,0,1-.283-.884h1.152a.836.836,0,0,0,.317.647,1.233,1.233,0,0,0,.776.227,1.2,1.2,0,0,0,.713-.178A.552.552,0,0,0,117.28-1.436Zm9.331-.2.84-3.647h1.157L127.168,0h-.977l-1.133-3.628L123.945,0h-.977l-1.445-5.283h1.157l.854,3.608,1.084-3.608h.894Zm3.96-3.071a1.857,1.857,0,0,1,1.47-.674q1.689,0,1.714,1.929V0h-1.187V-3.408a1.043,1.043,0,0,0-.237-.774.968.968,0,0,0-.7-.227,1.143,1.143,0,0,0-1.064.635V0h-1.187V-7.5h1.187Zm4.16,2.017a3.115,3.115,0,0,1,.308-1.4,2.247,2.247,0,0,1,.864-.957,2.435,2.435,0,0,1,1.279-.334,2.308,2.308,0,0,1,1.736.688,2.708,2.708,0,0,1,.72,1.826l0,.278a3.143,3.143,0,0,1-.3,1.4,2.22,2.22,0,0,1-.859.952A2.453,2.453,0,0,1,137.192.1a2.292,2.292,0,0,1-1.79-.745,2.852,2.852,0,0,1-.671-1.985Zm1.187.1a2.129,2.129,0,0,0,.337,1.277,1.1,1.1,0,0,0,.938.461,1.083,1.083,0,0,0,.935-.469,2.351,2.351,0,0,0,.334-1.372,2.1,2.1,0,0,0-.344-1.27,1.1,1.1,0,0,0-.935-.469,1.089,1.089,0,0,0-.923.461A2.307,2.307,0,0,0,135.918-2.588Zm5.845-2.7.034.552a1.9,1.9,0,0,1,1.523-.649,1.46,1.46,0,0,1,1.45.811,1.874,1.874,0,0,1,1.621-.811,1.647,1.647,0,0,1,1.3.483,2.128,2.128,0,0,1,.437,1.426V0h-1.187V-3.437a1.051,1.051,0,0,0-.22-.737A.962.962,0,0,0,146-4.409a.988.988,0,0,0-.662.217,1.146,1.146,0,0,0-.359.569l0,3.623h-1.187V-3.477a.846.846,0,0,0-.952-.933,1.044,1.044,0,0,0-1.011.581V0h-1.187V-5.283Zm13.906,3.452a.858.858,0,0,0-.33-.723,3.965,3.965,0,0,0-1.189-.513,5.741,5.741,0,0,1-1.367-.576,1.824,1.824,0,0,1-.972-1.592,1.732,1.732,0,0,1,.7-1.416,2.836,2.836,0,0,1,1.819-.557,3.072,3.072,0,0,1,1.323.273,2.172,2.172,0,0,1,.913.779,2,2,0,0,1,.332,1.121h-1.23a1.114,1.114,0,0,0-.349-.872,1.441,1.441,0,0,0-1-.315,1.5,1.5,0,0,0-.94.259.862.862,0,0,0-.334.723.78.78,0,0,0,.361.652,4.163,4.163,0,0,0,1.191.508,5.48,5.48,0,0,1,1.333.562,2.12,2.12,0,0,1,.737.723,1.882,1.882,0,0,1,.234.955,1.692,1.692,0,0,1-.681,1.414A2.955,2.955,0,0,1,154.375.1a3.473,3.473,0,0,1-1.418-.286,2.383,2.383,0,0,1-1.006-.789,1.965,1.965,0,0,1-.359-1.172h1.235a1.15,1.15,0,0,0,.4.938,1.753,1.753,0,0,0,1.147.332,1.523,1.523,0,0,0,.969-.261A.843.843,0,0,0,155.669-1.831Zm3.921-5.278,2.051,5.449,2.046-5.449h1.6V0h-1.23V-2.344l.122-3.135L162.075,0h-.884L159.1-5.474l.122,3.13V0h-1.23V-7.109Zm10.869,5.278a.858.858,0,0,0-.33-.723,3.965,3.965,0,0,0-1.189-.513,5.741,5.741,0,0,1-1.367-.576,1.824,1.824,0,0,1-.972-1.592,1.732,1.732,0,0,1,.7-1.416,2.836,2.836,0,0,1,1.819-.557,3.072,3.072,0,0,1,1.323.273,2.172,2.172,0,0,1,.913.779,2,2,0,0,1,.332,1.121h-1.23a1.114,1.114,0,0,0-.349-.872,1.441,1.441,0,0,0-1-.315,1.5,1.5,0,0,0-.94.259.862.862,0,0,0-.334.723.78.78,0,0,0,.361.652,4.163,4.163,0,0,0,1.191.508,5.48,5.48,0,0,1,1.333.562,2.12,2.12,0,0,1,.737.723,1.882,1.882,0,0,1,.234.955,1.692,1.692,0,0,1-.681,1.414A2.955,2.955,0,0,1,169.165.1a3.473,3.473,0,0,1-1.418-.286,2.383,2.383,0,0,1-1.006-.789,1.965,1.965,0,0,1-.359-1.172h1.235a1.15,1.15,0,0,0,.4.938,1.753,1.753,0,0,0,1.147.332,1.523,1.523,0,0,0,.969-.261A.843.843,0,0,0,170.459-1.831Zm7.656.4a.538.538,0,0,0-.261-.483,2.778,2.778,0,0,0-.867-.293,4.456,4.456,0,0,1-1.011-.322,1.349,1.349,0,0,1-.889-1.245,1.406,1.406,0,0,1,.576-1.143,2.278,2.278,0,0,1,1.465-.459,2.37,2.37,0,0,1,1.531.469,1.487,1.487,0,0,1,.583,1.216h-1.187a.731.731,0,0,0-.254-.569.973.973,0,0,0-.674-.227,1.051,1.051,0,0,0-.637.181.57.57,0,0,0-.247.483.481.481,0,0,0,.229.425,3.156,3.156,0,0,0,.928.305,4.392,4.392,0,0,1,1.1.366,1.552,1.552,0,0,1,.591.51,1.3,1.3,0,0,1,.193.723,1.377,1.377,0,0,1-.591,1.155A2.519,2.519,0,0,1,177.144.1a2.732,2.732,0,0,1-1.157-.234,1.9,1.9,0,0,1-.791-.645,1.526,1.526,0,0,1-.283-.884h1.152a.836.836,0,0,0,.317.647,1.233,1.233,0,0,0,.776.227,1.2,1.2,0,0,0,.713-.178A.552.552,0,0,0,178.115-1.436ZM182.642.1a2.455,2.455,0,0,1-1.829-.71,2.577,2.577,0,0,1-.7-1.892v-.146a3.17,3.17,0,0,1,.305-1.414,2.323,2.323,0,0,1,.857-.969,2.266,2.266,0,0,1,1.23-.347,2.074,2.074,0,0,1,1.667.688,2.911,2.911,0,0,1,.588,1.948v.479h-3.452a1.587,1.587,0,0,0,.437,1.035,1.312,1.312,0,0,0,.964.381,1.607,1.607,0,0,0,1.328-.659l.64.61a2.136,2.136,0,0,1-.847.735A2.652,2.652,0,0,1,182.642.1ZM182.5-4.429a1,1,0,0,0-.789.342,1.772,1.772,0,0,0-.383.952h2.261v-.088a1.442,1.442,0,0,0-.317-.9A.992.992,0,0,0,182.5-4.429Zm5.947.229a2.936,2.936,0,0,0-.483-.039,1.088,1.088,0,0,0-1.1.625V0h-1.187V-5.283h1.133l.029.591a1.337,1.337,0,0,1,1.191-.688,1.111,1.111,0,0,1,.42.068Zm2.7,2.7,1.118-3.779h1.226L191.66,0h-1.03l-1.846-5.283h1.23ZM195.493,0h-1.187V-5.283h1.187Zm-1.26-6.655a.63.63,0,0,1,.173-.454.655.655,0,0,1,.5-.181.663.663,0,0,1,.5.181.625.625,0,0,1,.176.454.61.61,0,0,1-.176.447.668.668,0,0,1-.5.178.66.66,0,0,1-.5-.178A.615.615,0,0,1,194.233-6.655Zm5.513,5.22a.538.538,0,0,0-.261-.483,2.778,2.778,0,0,0-.867-.293,4.456,4.456,0,0,1-1.011-.322,1.349,1.349,0,0,1-.889-1.245,1.406,1.406,0,0,1,.576-1.143,2.278,2.278,0,0,1,1.465-.459,2.37,2.37,0,0,1,1.531.469,1.487,1.487,0,0,1,.583,1.216h-1.187a.731.731,0,0,0-.254-.569.973.973,0,0,0-.674-.227,1.051,1.051,0,0,0-.637.181.57.57,0,0,0-.247.483.481.481,0,0,0,.229.425,3.156,3.156,0,0,0,.928.305,4.392,4.392,0,0,1,1.1.366,1.552,1.552,0,0,1,.591.51,1.3,1.3,0,0,1,.193.723,1.377,1.377,0,0,1-.591,1.155A2.519,2.519,0,0,1,198.774.1a2.732,2.732,0,0,1-1.157-.234,1.9,1.9,0,0,1-.791-.645,1.526,1.526,0,0,1-.283-.884H197.7a.836.836,0,0,0,.317.647,1.233,1.233,0,0,0,.776.227,1.2,1.2,0,0,0,.713-.178A.552.552,0,0,0,199.746-1.436ZM204.272.1a2.455,2.455,0,0,1-1.829-.71,2.577,2.577,0,0,1-.7-1.892v-.146a3.17,3.17,0,0,1,.305-1.414,2.323,2.323,0,0,1,.857-.969,2.266,2.266,0,0,1,1.23-.347,2.074,2.074,0,0,1,1.667.688,2.911,2.911,0,0,1,.588,1.948v.479h-3.452a1.587,1.587,0,0,0,.437,1.035,1.312,1.312,0,0,0,.964.381,1.607,1.607,0,0,0,1.328-.659l.64.61a2.136,2.136,0,0,1-.847.735A2.652,2.652,0,0,1,204.272.1Zm-.142-4.526a1,1,0,0,0-.789.342,1.772,1.772,0,0,0-.383.952h2.261v-.088a1.442,1.442,0,0,0-.317-.9A.992.992,0,0,0,204.131-4.429Z" transform="translate(7058.457 -1795.748)" fill="#0c2339"/>
    <path id="Path_1178" data-name="Path 1178" d="M9.5,0A9.5,9.5,0,1,1,0,9.5,9.5,9.5,0,0,1,9.5,0Z" transform="translate(6906.75 -1808.748)" fill="#4dc0ed"/>
    <path id="Path_1179" data-name="Path 1179" d="M9.5,0A9.5,9.5,0,1,1,0,9.5,9.5,9.5,0,0,1,9.5,0Z" transform="translate(6906.75 -1772.252)" fill="#4dc0ed"/>
    <path id="Path_1180" data-name="Path 1180" d="M9.5,0A9.5,9.5,0,1,1,0,9.5,9.5,9.5,0,0,1,9.5,0Z" transform="translate(7033.979 -1808.748)" fill="#4dc0ed"/>
    <path id="Path_1181" data-name="Path 1181" d="M9.5,0A9.5,9.5,0,1,1,0,9.5,9.5,9.5,0,0,1,9.5,0Z" transform="translate(6990 -1808.748)" fill="#fe746e"/>
    <path id="Path_1182" data-name="Path 1182" d="M9.5,0A9.5,9.5,0,1,1,0,9.5,9.5,9.5,0,0,1,9.5,0Z" transform="translate(6990 -1772.252)" fill="#fe746e"/>
    <path id="Path_1183" data-name="Path 1183" d="M1.424,0H1.061V-2.408l-.729.268v-.328l1.035-.389h.057ZM3.09,5H1.227V4.74l.984-1.094a2.339,2.339,0,0,0,.3-.4A.673.673,0,0,0,2.6,2.922a.51.51,0,0,0-.135-.365A.471.471,0,0,0,2.1,2.414a.558.558,0,0,0-.419.153.586.586,0,0,0-.149.427H1.172a.839.839,0,0,1,.253-.635A.938.938,0,0,1,2.1,2.117a.9.9,0,0,1,.627.208.71.71,0,0,1,.23.554,1.627,1.627,0,0,1-.535,1l-.762.826H3.09Zm.643,3.4H4a.6.6,0,0,0,.4-.135.45.45,0,0,0,.146-.354.441.441,0,0,0-.5-.5.518.518,0,0,0-.374.134.468.468,0,0,0-.14.354H3.18a.725.725,0,0,1,.247-.562.9.9,0,0,1,.628-.224.889.889,0,0,1,.631.213.769.769,0,0,1,.229.592.624.624,0,0,1-.12.359.725.725,0,0,1-.327.26.7.7,0,0,1,.362.246.683.683,0,0,1,.128.42.776.776,0,0,1-.25.607.936.936,0,0,1-.65.225.961.961,0,0,1-.651-.217.719.719,0,0,1-.251-.572h.363a.465.465,0,0,0,.146.359.557.557,0,0,0,.393.135.547.547,0,0,0,.4-.137A.527.527,0,0,0,4.6,9.215a.478.478,0,0,0-.152-.381A.664.664,0,0,0,4,8.7H3.732Z" transform="translate(6914 -1765.504)" fill="#fff"/>
    <path id="Path_1184" data-name="Path 1184" d="M1.424,0H1.061V-2.408l-.729.268v-.328l1.035-.389h.057ZM3.09,5H1.227V4.74l.984-1.094a2.339,2.339,0,0,0,.3-.4A.673.673,0,0,0,2.6,2.922a.51.51,0,0,0-.135-.365A.471.471,0,0,0,2.1,2.414a.558.558,0,0,0-.419.153.586.586,0,0,0-.149.427H1.172a.839.839,0,0,1,.253-.635A.938.938,0,0,1,2.1,2.117a.9.9,0,0,1,.627.208.71.71,0,0,1,.23.554,1.627,1.627,0,0,1-.535,1l-.762.826H3.09Zm.643,3.4H4a.6.6,0,0,0,.4-.135.45.45,0,0,0,.146-.354.441.441,0,0,0-.5-.5.518.518,0,0,0-.374.134.468.468,0,0,0-.14.354H3.18a.725.725,0,0,1,.247-.562.9.9,0,0,1,.628-.224.889.889,0,0,1,.631.213.769.769,0,0,1,.229.592.624.624,0,0,1-.12.359.725.725,0,0,1-.327.26.7.7,0,0,1,.362.246.683.683,0,0,1,.128.42.776.776,0,0,1-.25.607.936.936,0,0,1-.65.225.961.961,0,0,1-.651-.217.719.719,0,0,1-.251-.572h.363a.465.465,0,0,0,.146.359.557.557,0,0,0,.393.135.547.547,0,0,0,.4-.137A.527.527,0,0,0,4.6,9.215a.478.478,0,0,0-.152-.381A.664.664,0,0,0,4,8.7H3.732Z" transform="translate(6914 -1802.748)" fill="#fff"/>
    <path id="Path_1185" data-name="Path 1185" d="M1.424,0H1.061V-2.408l-.729.268v-.328l1.035-.389h.057ZM3.09,5H1.227V4.74l.984-1.094a2.339,2.339,0,0,0,.3-.4A.673.673,0,0,0,2.6,2.922a.51.51,0,0,0-.135-.365A.471.471,0,0,0,2.1,2.414a.558.558,0,0,0-.419.153.586.586,0,0,0-.149.427H1.172a.839.839,0,0,1,.253-.635A.938.938,0,0,1,2.1,2.117a.9.9,0,0,1,.627.208.71.71,0,0,1,.23.554,1.627,1.627,0,0,1-.535,1l-.762.826H3.09Zm.643,3.4H4a.6.6,0,0,0,.4-.135.45.45,0,0,0,.146-.354.441.441,0,0,0-.5-.5.518.518,0,0,0-.374.134.468.468,0,0,0-.14.354H3.18a.725.725,0,0,1,.247-.562.9.9,0,0,1,.628-.224.889.889,0,0,1,.631.213.769.769,0,0,1,.229.592.624.624,0,0,1-.12.359.725.725,0,0,1-.327.26.7.7,0,0,1,.362.246.683.683,0,0,1,.128.42.776.776,0,0,1-.25.607.936.936,0,0,1-.65.225.961.961,0,0,1-.651-.217.719.719,0,0,1-.251-.572h.363a.465.465,0,0,0,.146.359.557.557,0,0,0,.393.135.547.547,0,0,0,.4-.137A.527.527,0,0,0,4.6,9.215a.478.478,0,0,0-.152-.381A.664.664,0,0,0,4,8.7H3.732Z" transform="translate(7041.936 -1802.748)" fill="#fff"/>
    <g id="Refresh_icon" data-name="Refresh icon" transform="translate(6268.75 -2168.254)">
      <g id="Ellipse_32" data-name="Ellipse 32" transform="translate(1094 359.254)" fill="#fff" stroke="rgba(132,131,131,0.4)" stroke-width="0.5">
        <circle cx="9.5" cy="9.5" r="9.5" stroke="none"/>
        <circle cx="9.5" cy="9.5" r="9.25" fill="none"/>
      </g>
    </g>
    <g id="Refresh_icon-2" data-name="Refresh icon" transform="translate(6293.75 -2168.254)">
      <g id="Ellipse_32-2" data-name="Ellipse 32" transform="translate(1094 359.254)" fill="#fff" stroke="rgba(132,131,131,0.4)" stroke-width="0.5">
        <circle cx="9.5" cy="9.5" r="9.5" stroke="none"/>
        <circle cx="9.5" cy="9.5" r="9.25" fill="none"/>
      </g>
      <g id="Refresh" transform="translate(1154.334 333.881) rotate(60)">
        <g id="_x37__11_" transform="translate(0.001 57.525)">
          <g id="Group_15" data-name="Group 15" transform="translate(0 0)">
            <path id="Path_26" data-name="Path 26" d="M5,65.02a3.438,3.438,0,0,1-3.307-2.5H2.708c.1-.094.147-.22.051-.314L1.585,61.023a.252.252,0,0,0-.349,0L.071,62.208c-.138.162-.046.22.051.314h.931a4.057,4.057,0,0,0,7.4,1.193l-.588-.235A3.436,3.436,0,0,1,5,65.02Zm4.9-4.06H9.01A4.06,4.06,0,0,0,1.4,59.708l.582.233a3.438,3.438,0,0,1,6.4,1.019H7.312c-.1.094-.189.152-.051.314L8.426,62.46a.252.252,0,0,0,.349,0l1.173-1.185C10.045,61.181,9.994,61.054,9.9,60.96Z" transform="translate(-0.001 -57.525)" fill="#a5aabc"/>
          </g>
        </g>
      </g>
    </g>
    <g id="Path_1186" data-name="Path 1186" transform="translate(7412.75 -1809)" fill="#fff">
      <path d="M9.5,0A9.5,9.5,0,1,1,0,9.5,9.5,9.5,0,0,1,9.5,0Z" stroke="none"/>
      <path d="M 9.5 0.5 C 4.537380218505859 0.5 0.5 4.537380218505859 0.5 9.5 C 0.5 14.46261978149414 4.537380218505859 18.5 9.5 18.5 C 14.46261978149414 18.5 18.5 14.46261978149414 18.5 9.5 C 18.5 4.537380218505859 14.46261978149414 0.5 9.5 0.5 M 9.5 0 C 14.74670028686523 0 19 4.253299713134766 19 9.5 C 19 14.74670028686523 14.74670028686523 19 9.5 19 C 4.253299713134766 19 0 14.74670028686523 0 9.5 C 0 4.253299713134766 4.253299713134766 0 9.5 0 Z" stroke="none" fill="rgba(132,131,131,0.4)"/>
    </g>
    <g id="Path_1187" data-name="Path 1187" transform="translate(7290.25 -1809)" fill="#fff">
      <path d="M9.5,0H47.186a9.5,9.5,0,0,1,0,19H9.5a9.5,9.5,0,0,1,0-19Z" stroke="none"/>
      <path d="M 9.500003814697266 0.5 C 4.537384033203125 0.5 0.5000038146972656 4.537380218505859 0.5000038146972656 9.5 C 0.5000038146972656 14.46261978149414 4.537384033203125 18.5 9.500003814697266 18.5 L 47.18554306030273 18.5 C 52.14816284179688 18.5 56.18554306030273 14.46261978149414 56.18554306030273 9.5 C 56.18554306030273 4.537380218505859 52.14816284179688 0.5 47.18554306030273 0.5 L 9.500003814697266 0.5 M 9.500003814697266 0 L 47.18554306030273 0 C 52.43225479125977 0 56.68554306030273 4.253290176391602 56.68554306030273 9.5 C 56.68554306030273 14.7467098236084 52.43225479125977 19 47.18554306030273 19 L 9.500003814697266 19 C 4.253292083740234 19 3.814697265625e-06 14.7467098236084 3.814697265625e-06 9.5 C 3.814697265625e-06 4.253290176391602 4.253292083740234 0 9.500003814697266 0 Z" stroke="none" fill="rgba(165,170,188,0.5)"/>
    </g>
    <g id="Group_116" data-name="Group 116" transform="translate(6474.5 -2193)">
      <circle id="Ellipse_107" data-name="Ellipse 107" cx="9.5" cy="9.5" r="9.5" transform="translate(815.75 384.252)" fill="#1f6cb6"/>
    </g>
    <g id="Group_126" data-name="Group 126" transform="translate(6483.564 -2193)">
      <line id="Line_21" data-name="Line 21" y1="3" x2="3" transform="translate(827.686 391.5)" fill="none" stroke="#a5aabc" stroke-width="0.5"/>
      <line id="Line_23" data-name="Line 23" y1="3" x2="3" transform="translate(840.436 393.75) rotate(180)" fill="none" stroke="#a5aabc" stroke-width="0.5"/>
      <line id="Line_22" data-name="Line 22" x1="3" y1="3" transform="translate(832.436 391.5)" fill="none" stroke="#a5aabc" stroke-width="0.5"/>
      <g id="Ellipse_108" data-name="Ellipse 108" transform="translate(830.186 389)" fill="#fff" stroke="#a5aabc" stroke-width="0.5">
        <circle cx="1.5" cy="1.5" r="1.5" stroke="none"/>
        <circle cx="1.5" cy="1.5" r="1.25" fill="none"/>
      </g>
      <g id="Ellipse_109" data-name="Ellipse 109" transform="translate(837.936 396.25) rotate(180)" fill="#fff" stroke="#a5aabc" stroke-width="0.5">
        <circle cx="1.5" cy="1.5" r="1.5" stroke="none"/>
        <circle cx="1.5" cy="1.5" r="1.25" fill="none"/>
      </g>
    </g>
    <g id="_x31_6-thumbtack" transform="translate(7364.571 -1807.6)">
      <path id="Path_123" data-name="Path 123" d="M11.551,6.528,8.719,3.7a.311.311,0,0,0-.45,0l-1.03,1.03a.309.309,0,0,0,0,.45l.225.225L6.5,6.367a2.941,2.941,0,0,0-2.51.386.311.311,0,0,0,0,.45L5.824,9.038,3.8,11.065a.311.311,0,0,0,0,.45.342.342,0,0,0,.45,0L6.274,9.488l1.834,1.834a.3.3,0,0,0,.45,0,2.941,2.941,0,0,0,.386-2.51l.965-.965.225.225a.311.311,0,0,0,.45,0l1.03-1.03a.486.486,0,0,0-.064-.515Z" transform="translate(0 0)" fill="#a1a1a1"/>
    </g>
    <g id="apps" transform="translate(7416.375 -1804.375)" clip-path="url(#clip-path)">
      <path id="Path_124" data-name="Path 124" d="M10.674,5.938H9.9V3.49A.491.491,0,0,0,9.406,3H7.448a.491.491,0,0,0-.49.49V5.938H6.18a.491.491,0,0,0-.348.837L8.079,9.022a.488.488,0,0,0,.69,0l2.247-2.247A.49.49,0,0,0,10.674,5.938ZM5,10.833a.491.491,0,0,0,.49.49h5.875a.49.49,0,1,0,0-.979H5.49A.491.491,0,0,0,5,10.833Z" transform="translate(-2.552 -1.531)" fill="#a1a1a1"/>
    </g>
    <path id="Path_1188" data-name="Path 1188" d="M0,0V229" transform="translate(7026.75 -1819.5)" fill="none" stroke="rgba(165,170,188,0.5)" stroke-width="1"/>
    <path id="Path_1189" data-name="Path 1189" d="M0,0V37.5" transform="translate(7355.729 -1820)" fill="none" stroke="rgba(165,170,188,0.5)" stroke-width="1"/>
    <g id="Path_1190" data-name="Path 1190" transform="translate(6894 -1820)" fill="none">
      <path d="M5,0H544a5,5,0,0,1,5,5V224a5,5,0,0,1-5,5H5a5,5,0,0,1-5-5V5A5,5,0,0,1,5,0Z" stroke="none"/>
      <path d="M 5 1 C 2.79437255859375 1 1 2.794357299804688 1 5 L 1 224 C 1 226.2056427001953 2.79437255859375 228 5 228 L 544 228 C 546.2056274414062 228 548 226.2056427001953 548 224 L 548 5 C 548 2.794357299804688 546.2056274414062 1 544 1 L 5 1 M 5 0 L 544 0 C 546.7614135742188 0 549 2.238571166992188 549 5 L 549 224 C 549 226.7614288330078 546.7614135742188 229 544 229 L 5 229 C 2.23858642578125 229 0 226.7614288330078 0 224 L 0 5 C 0 2.238571166992188 2.23858642578125 0 5 0 Z" stroke="none" fill="rgba(165,170,188,0.5)"/>
    </g>
    <path id="Path_1191" data-name="Path 1191" d="M-3.7,0H-5.335V-10.837l-3.278,1.2v-1.477l4.658-1.749H-3.7ZM8.824-9.457a2.972,2.972,0,0,1-.505,1.705A3.439,3.439,0,0,1,6.952-6.583,3.668,3.668,0,0,1,8.539-5.326a3.163,3.163,0,0,1,.584,1.872A3.344,3.344,0,0,1,8-.809,4.305,4.305,0,0,1,5.054.176,4.286,4.286,0,0,1,2.1-.813,3.36,3.36,0,0,1,.984-3.454a3.257,3.257,0,0,1,.567-1.872A3.528,3.528,0,0,1,3.12-6.592,3.354,3.354,0,0,1,1.775-7.761a3.014,3.014,0,0,1-.492-1.7A3.308,3.308,0,0,1,2.32-12.023a3.89,3.89,0,0,1,2.733-.949,3.894,3.894,0,0,1,2.729.949A3.3,3.3,0,0,1,8.824-9.457ZM7.5-3.489a2.359,2.359,0,0,0-.681-1.749,2.416,2.416,0,0,0-1.78-.677,2.373,2.373,0,0,0-1.762.668A2.385,2.385,0,0,0,2.61-3.489a2.271,2.271,0,0,0,.646,1.714,2.48,2.48,0,0,0,1.8.624A2.472,2.472,0,0,0,6.847-1.78,2.266,2.266,0,0,0,7.5-3.489ZM5.054-11.637a2.1,2.1,0,0,0-1.551.593,2.179,2.179,0,0,0-.593,1.613,2.169,2.169,0,0,0,.584,1.578,2.074,2.074,0,0,0,1.56.6,2.074,2.074,0,0,0,1.56-.6A2.169,2.169,0,0,0,7.2-9.431a2.17,2.17,0,0,0-.606-1.591A2.068,2.068,0,0,0,5.054-11.637ZM-36.255,22V9.2h4.184a4.856,4.856,0,0,1,3.133.861,3.1,3.1,0,0,1,1.05,2.549A2.6,2.6,0,0,1-28.4,14.2a3.3,3.3,0,0,1-1.389,1.068,2.968,2.968,0,0,1,1.639,1.1,3.166,3.166,0,0,1,.6,1.938,3.423,3.423,0,0,1-1.116,2.707A4.616,4.616,0,0,1-31.816,22Zm1.688-5.985V20.62h2.786a2.683,2.683,0,0,0,1.859-.611,2.145,2.145,0,0,0,.681-1.683q0-2.312-2.514-2.312Zm0-1.354h2.549a2.672,2.672,0,0,0,1.771-.555,1.86,1.86,0,0,0,.664-1.506,1.829,1.829,0,0,0-.615-1.537,3.021,3.021,0,0,0-1.872-.48h-2.5Zm13.86-.712a4.873,4.873,0,0,0-.8-.062,2.143,2.143,0,0,0-2.171,1.362V22H-25.3V12.49h1.582l.026,1.1a2.532,2.532,0,0,1,2.268-1.274,1.661,1.661,0,0,1,.721.123Zm5.273,8.227a4.155,4.155,0,0,1-3.146-1.27,4.714,4.714,0,0,1-1.213-3.4v-.3a5.707,5.707,0,0,1,.541-2.527,4.217,4.217,0,0,1,1.512-1.74,3.8,3.8,0,0,1,2.1-.628,3.562,3.562,0,0,1,2.883,1.222,5.289,5.289,0,0,1,1.028,3.5v.677h-6.442a3.38,3.38,0,0,0,.822,2.272,2.583,2.583,0,0,0,2,.866,2.832,2.832,0,0,0,1.459-.352,3.666,3.666,0,0,0,1.046-.932l.993.773A3.993,3.993,0,0,1-15.434,22.176Zm-.2-8.525a2.169,2.169,0,0,0-1.652.716,3.482,3.482,0,0,0-.826,2.008h4.764v-.123a3.1,3.1,0,0,0-.668-1.92A2.042,2.042,0,0,0-15.636,13.65ZM-3.973,22A3.416,3.416,0,0,1-4.2,21a3.628,3.628,0,0,1-2.707,1.178,3.357,3.357,0,0,1-2.307-.8,2.573,2.573,0,0,1-.9-2.017,2.688,2.688,0,0,1,1.129-2.307,5.325,5.325,0,0,1,3.177-.822h1.582v-.747a1.826,1.826,0,0,0-.51-1.358,2.049,2.049,0,0,0-1.5-.505,2.371,2.371,0,0,0-1.459.439,1.3,1.3,0,0,0-.589,1.063H-9.923a2.244,2.244,0,0,1,.505-1.375A3.449,3.449,0,0,1-8.046,12.7a4.613,4.613,0,0,1,1.9-.387,3.759,3.759,0,0,1,2.575.822A2.964,2.964,0,0,1-2.6,15.4v4.377a5.351,5.351,0,0,0,.334,2.083V22Zm-2.7-1.239a2.858,2.858,0,0,0,1.45-.4,2.392,2.392,0,0,0,.993-1.028V17.386H-5.5q-2.988,0-2.988,1.749a1.48,1.48,0,0,0,.51,1.2A1.959,1.959,0,0,0-6.671,20.761Zm10.433.088a2.342,2.342,0,0,0,1.521-.527A1.855,1.855,0,0,0,6,19H7.541a2.949,2.949,0,0,1-.562,1.556,3.7,3.7,0,0,1-1.384,1.178,3.994,3.994,0,0,1-1.833.439,3.918,3.918,0,0,1-3.089-1.3A5.163,5.163,0,0,1-.475,17.333v-.272a5.725,5.725,0,0,1,.51-2.47A3.883,3.883,0,0,1,1.5,12.912a4.157,4.157,0,0,1,2.254-.6,3.814,3.814,0,0,1,2.659.958A3.424,3.424,0,0,1,7.541,15.76H6a2.241,2.241,0,0,0-.7-1.516,2.174,2.174,0,0,0-1.551-.593,2.276,2.276,0,0,0-1.92.892,4.19,4.19,0,0,0-.681,2.58v.308a4.106,4.106,0,0,0,.677,2.531A2.287,2.287,0,0,0,3.762,20.849ZM11,13.642a3.457,3.457,0,0,1,2.813-1.327q3.015,0,3.041,3.4V22H15.223V15.707a2.189,2.189,0,0,0-.47-1.521,1.884,1.884,0,0,0-1.437-.492,2.347,2.347,0,0,0-1.389.422A2.865,2.865,0,0,0,11,15.224V22H9.369V8.5H11Zm12.234,8.534a4.155,4.155,0,0,1-3.146-1.27,4.714,4.714,0,0,1-1.213-3.4v-.3a5.707,5.707,0,0,1,.541-2.527,4.217,4.217,0,0,1,1.512-1.74,3.8,3.8,0,0,1,2.1-.628,3.562,3.562,0,0,1,2.883,1.222,5.289,5.289,0,0,1,1.028,3.5v.677H20.5a3.38,3.38,0,0,0,.822,2.272,2.583,2.583,0,0,0,2,.866,2.832,2.832,0,0,0,1.459-.352,3.666,3.666,0,0,0,1.046-.932l.993.773A3.993,3.993,0,0,1,23.229,22.176Zm-.2-8.525a2.169,2.169,0,0,0-1.652.716,3.482,3.482,0,0,0-.826,2.008h4.764v-.123a3.1,3.1,0,0,0-.668-1.92A2.042,2.042,0,0,0,23.027,13.65Zm5.4,3.516a5.571,5.571,0,0,1,1.037-3.52,3.529,3.529,0,0,1,5.361-.189V8.5h1.626V22H34.954l-.079-1.02a3.311,3.311,0,0,1-2.716,1.2,3.248,3.248,0,0,1-2.694-1.354,5.634,5.634,0,0,1-1.042-3.533Zm1.626.185a4.218,4.218,0,0,0,.668,2.531,2.159,2.159,0,0,0,1.846.914,2.372,2.372,0,0,0,2.259-1.389V15.039a2.39,2.39,0,0,0-2.241-1.345,2.17,2.17,0,0,0-1.863.923A4.644,4.644,0,0,0,30.05,17.351Z" transform="translate(7337 -1699)" fill="#ff443b"/>
    <path id="Path_1192" data-name="Path 1192" d="M-99.917-2.886A7.549,7.549,0,0,1-99.622-5a6.156,6.156,0,0,1,.881-1.846,3.749,3.749,0,0,1,1.216-1.172l.186.6a3.889,3.889,0,0,0-1.169,1.67,7.239,7.239,0,0,0-.5,2.515l0,.415A7.277,7.277,0,0,0-98.325.444a3.907,3.907,0,0,0,.986,1.3l-.186.552a3.87,3.87,0,0,1-1.24-1.211A6.787,6.787,0,0,1-99.917-2.886Zm4.536,2.119h3.369V0h-4.312V-7.109h.942ZM-87.822,0a1.9,1.9,0,0,1-.127-.557,2.016,2.016,0,0,1-1.5.654,1.865,1.865,0,0,1-1.282-.442,1.43,1.43,0,0,1-.5-1.121,1.494,1.494,0,0,1,.627-1.282A2.958,2.958,0,0,1-88.843-3.2h.879v-.415a1.015,1.015,0,0,0-.283-.754,1.138,1.138,0,0,0-.835-.281,1.317,1.317,0,0,0-.811.244.719.719,0,0,0-.327.591h-.908a1.247,1.247,0,0,1,.281-.764,1.916,1.916,0,0,1,.762-.583,2.563,2.563,0,0,1,1.057-.215,2.089,2.089,0,0,1,1.431.457,1.647,1.647,0,0,1,.537,1.257v2.432a2.973,2.973,0,0,0,.186,1.157V0Zm-1.5-.688a1.588,1.588,0,0,0,.806-.22,1.329,1.329,0,0,0,.552-.571V-2.563h-.708q-1.66,0-1.66.972a.822.822,0,0,0,.283.664A1.089,1.089,0,0,0-89.321-.688Zm6.753-.713a.665.665,0,0,0-.276-.569,2.655,2.655,0,0,0-.962-.349A4.548,4.548,0,0,1-84.9-2.671a1.549,1.549,0,0,1-.6-.488,1.168,1.168,0,0,1-.193-.674,1.37,1.37,0,0,1,.549-1.1,2.145,2.145,0,0,1,1.4-.449,2.208,2.208,0,0,1,1.458.464,1.473,1.473,0,0,1,.559,1.187h-.908a.815.815,0,0,0-.315-.64,1.18,1.18,0,0,0-.793-.269,1.235,1.235,0,0,0-.771.215.676.676,0,0,0-.278.562.548.548,0,0,0,.259.493,3.184,3.184,0,0,0,.935.317,4.872,4.872,0,0,1,1.1.361,1.6,1.6,0,0,1,.623.505,1.243,1.243,0,0,1,.2.72A1.352,1.352,0,0,1-82.231-.33,2.376,2.376,0,0,1-83.7.1a2.66,2.66,0,0,1-1.123-.225,1.827,1.827,0,0,1-.764-.627,1.512,1.512,0,0,1-.276-.872h.9a.935.935,0,0,0,.364.72,1.411,1.411,0,0,0,.9.266,1.457,1.457,0,0,0,.823-.208A.638.638,0,0,0-82.568-1.4Zm3.306-5.161v1.279h.986v.7h-.986V-1.3a.733.733,0,0,0,.132.477.555.555,0,0,0,.449.159,2.187,2.187,0,0,0,.43-.059V0a2.634,2.634,0,0,1-.693.1,1.125,1.125,0,0,1-.913-.366,1.573,1.573,0,0,1-.308-1.04V-4.585h-.962v-.7h.962V-6.562Zm10.127,3.237A4.4,4.4,0,0,1-69.487-1.5a2.663,2.663,0,0,1-1,1.189,2.741,2.741,0,0,1-1.5.41,2.717,2.717,0,0,1-1.489-.413,2.727,2.727,0,0,1-1.008-1.177,4.22,4.22,0,0,1-.369-1.77v-.513A4.346,4.346,0,0,1-74.5-5.586a2.717,2.717,0,0,1,1.008-1.2A2.706,2.706,0,0,1-72-7.207a2.756,2.756,0,0,1,1.506.413,2.658,2.658,0,0,1,1,1.2,4.419,4.419,0,0,1,.352,1.824Zm-.933-.459a3.188,3.188,0,0,0-.508-1.941A1.675,1.675,0,0,0-72-6.4a1.657,1.657,0,0,0-1.4.676,3.122,3.122,0,0,0-.525,1.877v.522A3.192,3.192,0,0,0-73.406-1.4a1.664,1.664,0,0,0,1.418.7,1.657,1.657,0,0,0,1.406-.662,3.174,3.174,0,0,0,.513-1.9Zm6.67,1.2a3.141,3.141,0,0,1-.557,1.946A1.779,1.779,0,0,1-65.449.1,1.842,1.842,0,0,1-67-.61l-.044.61h-.83V-7.5h.9v2.8a1.831,1.831,0,0,1,1.509-.679,1.789,1.789,0,0,1,1.511.728A3.236,3.236,0,0,1-63.4-2.661Zm-.9-.1a2.441,2.441,0,0,0-.356-1.426,1.18,1.18,0,0,0-1.025-.5,1.326,1.326,0,0,0-1.284.83V-1.5a1.363,1.363,0,0,0,1.294.83,1.173,1.173,0,0,0,1.011-.5A2.6,2.6,0,0,0-64.3-2.686ZM-59.185-1.4a.665.665,0,0,0-.276-.569,2.655,2.655,0,0,0-.962-.349,4.548,4.548,0,0,1-1.089-.352,1.549,1.549,0,0,1-.6-.488,1.168,1.168,0,0,1-.193-.674,1.37,1.37,0,0,1,.549-1.1,2.145,2.145,0,0,1,1.4-.449,2.208,2.208,0,0,1,1.458.464A1.473,1.473,0,0,1-58.33-3.73h-.908a.815.815,0,0,0-.315-.64,1.18,1.18,0,0,0-.793-.269,1.235,1.235,0,0,0-.771.215.676.676,0,0,0-.278.562.548.548,0,0,0,.259.493,3.184,3.184,0,0,0,.935.317,4.872,4.872,0,0,1,1.1.361,1.6,1.6,0,0,1,.623.505,1.243,1.243,0,0,1,.2.72A1.352,1.352,0,0,1-58.848-.33,2.376,2.376,0,0,1-60.317.1,2.66,2.66,0,0,1-61.44-.127,1.827,1.827,0,0,1-62.2-.754a1.512,1.512,0,0,1-.276-.872h.9a.935.935,0,0,0,.364.72,1.411,1.411,0,0,0,.9.266,1.457,1.457,0,0,0,.823-.208A.638.638,0,0,0-59.185-1.4ZM-54.912.1A2.308,2.308,0,0,1-56.66-.608,2.619,2.619,0,0,1-57.334-2.5v-.166a3.17,3.17,0,0,1,.3-1.4,2.343,2.343,0,0,1,.84-.967,2.112,2.112,0,0,1,1.169-.349,1.979,1.979,0,0,1,1.6.679,2.939,2.939,0,0,1,.571,1.943v.376h-3.579a1.878,1.878,0,0,0,.457,1.262,1.435,1.435,0,0,0,1.111.481,1.573,1.573,0,0,0,.811-.2,2.037,2.037,0,0,0,.581-.518l.552.43A2.219,2.219,0,0,1-54.912.1Zm-.112-4.736a1.2,1.2,0,0,0-.918.4A1.934,1.934,0,0,0-56.4-3.125h2.646v-.068a1.721,1.721,0,0,0-.371-1.067A1.134,1.134,0,0,0-55.024-4.639Zm5.771.166a2.707,2.707,0,0,0-.444-.034A1.19,1.19,0,0,0-50.9-3.75V0h-.9V-5.283h.879l.015.61a1.407,1.407,0,0,1,1.26-.708.923.923,0,0,1,.4.068Zm2.661,3.247,1.309-4.058h.923L-46.255,0h-.688l-1.914-5.283h.923ZM-41.362.1A2.308,2.308,0,0,1-43.11-.608,2.619,2.619,0,0,1-43.784-2.5v-.166a3.17,3.17,0,0,1,.3-1.4,2.343,2.343,0,0,1,.84-.967,2.112,2.112,0,0,1,1.169-.349,1.979,1.979,0,0,1,1.6.679A2.939,2.939,0,0,1-39.3-2.759v.376h-3.579a1.878,1.878,0,0,0,.457,1.262,1.435,1.435,0,0,0,1.111.481,1.573,1.573,0,0,0,.811-.2,2.037,2.037,0,0,0,.581-.518l.552.43A2.219,2.219,0,0,1-41.362.1Zm-.112-4.736a1.2,1.2,0,0,0-.918.4,1.934,1.934,0,0,0-.459,1.116h2.646v-.068a1.721,1.721,0,0,0-.371-1.067A1.134,1.134,0,0,0-41.475-4.639Zm3,1.953A3.1,3.1,0,0,1-37.9-4.641a1.822,1.822,0,0,1,1.509-.74,1.832,1.832,0,0,1,1.47.635V-7.5h.9V0h-.83l-.044-.566A1.84,1.84,0,0,1-36.4.1a1.8,1.8,0,0,1-1.5-.752,3.13,3.13,0,0,1-.579-1.963Zm.9.1A2.343,2.343,0,0,0-37.2-1.177a1.2,1.2,0,0,0,1.025.508,1.318,1.318,0,0,0,1.255-.771V-3.867a1.328,1.328,0,0,0-1.245-.747A1.205,1.205,0,0,0-37.2-4.1,2.58,2.58,0,0,0-37.573-2.583Zm4.927,2.109a.566.566,0,0,1,.139-.391.53.53,0,0,1,.417-.156.546.546,0,0,1,.422.156.554.554,0,0,1,.144.391.524.524,0,0,1-.144.376.556.556,0,0,1-.422.151A.54.54,0,0,1-32.507-.1.535.535,0,0,1-32.646-.474Zm0-4.312a.566.566,0,0,1,.139-.391.53.53,0,0,1,.417-.156.546.546,0,0,1,.422.156.554.554,0,0,1,.144.391.524.524,0,0,1-.144.376.556.556,0,0,1-.422.151.54.54,0,0,1-.417-.151A.535.535,0,0,1-32.642-4.785ZM-23.154,0h-4.658V-.649l2.461-2.734A5.846,5.846,0,0,0-24.6-4.392a1.683,1.683,0,0,0,.208-.8,1.276,1.276,0,0,0-.337-.913,1.178,1.178,0,0,0-.9-.356,1.4,1.4,0,0,0-1.047.383,1.464,1.464,0,0,0-.374,1.067h-.9A2.1,2.1,0,0,1-27.317-6.6a2.344,2.344,0,0,1,1.692-.605,2.252,2.252,0,0,1,1.567.52A1.774,1.774,0,0,1-23.481-5.3a4.067,4.067,0,0,1-1.338,2.5l-1.9,2.065h3.569Zm5.415-3.032a4.131,4.131,0,0,1-.542,2.358A1.928,1.928,0,0,1-19.976.1,1.942,1.942,0,0,1-21.66-.657a3.921,3.921,0,0,1-.566-2.253V-4.116a4.039,4.039,0,0,1,.542-2.329,1.942,1.942,0,0,1,1.7-.762,1.96,1.96,0,0,1,1.689.735A3.9,3.9,0,0,1-17.739-4.2Zm-.9-1.235a3.31,3.31,0,0,0-.322-1.672,1.109,1.109,0,0,0-1.021-.525A1.1,1.1,0,0,0-21-5.942a3.232,3.232,0,0,0-.327,1.606v1.445a3.363,3.363,0,0,0,.334,1.7,1.107,1.107,0,0,0,1.013.549,1.092,1.092,0,0,0,.994-.518,3.241,3.241,0,0,0,.339-1.631ZM-11.924,0h-4.658V-.649l2.461-2.734a5.847,5.847,0,0,0,.754-1.008,1.683,1.683,0,0,0,.208-.8,1.276,1.276,0,0,0-.337-.913,1.178,1.178,0,0,0-.9-.356,1.4,1.4,0,0,0-1.047.383,1.464,1.464,0,0,0-.374,1.067h-.9A2.1,2.1,0,0,1-16.086-6.6a2.344,2.344,0,0,1,1.692-.605,2.252,2.252,0,0,1,1.567.52A1.774,1.774,0,0,1-12.251-5.3a4.067,4.067,0,0,1-1.338,2.5l-1.9,2.065h3.569Zm5.615,0h-4.658V-.649l2.461-2.734a5.847,5.847,0,0,0,.754-1.008,1.683,1.683,0,0,0,.208-.8,1.276,1.276,0,0,0-.337-.913,1.178,1.178,0,0,0-.9-.356,1.4,1.4,0,0,0-1.047.383A1.464,1.464,0,0,0-10.2-5.015h-.9A2.1,2.1,0,0,1-10.471-6.6a2.344,2.344,0,0,1,1.692-.605,2.252,2.252,0,0,1,1.567.52A1.774,1.774,0,0,1-6.636-5.3,4.067,4.067,0,0,1-7.974-2.8l-1.9,2.065h3.569Zm2.93-2.651H-5.762v-.737h2.383Zm5.244-.381A4.131,4.131,0,0,1,1.323-.674,1.928,1.928,0,0,1-.371.1,1.942,1.942,0,0,1-2.056-.657,3.921,3.921,0,0,1-2.622-2.91V-4.116A4.039,4.039,0,0,1-2.08-6.445a1.942,1.942,0,0,1,1.7-.762,1.96,1.96,0,0,1,1.689.735A3.9,3.9,0,0,1,1.865-4.2Zm-.9-1.235A3.31,3.31,0,0,0,.64-5.94,1.109,1.109,0,0,0-.381-6.465a1.1,1.1,0,0,0-1.011.522,3.232,3.232,0,0,0-.327,1.606v1.445a3.363,3.363,0,0,0,.334,1.7A1.107,1.107,0,0,0-.371-.64a1.092,1.092,0,0,0,.994-.518A3.241,3.241,0,0,0,.962-2.788ZM6.484-3.125a2.21,2.21,0,0,1-.676.542,1.835,1.835,0,0,1-.862.205,1.894,1.894,0,0,1-1.072-.3,1.968,1.968,0,0,1-.706-.852A2.9,2.9,0,0,1,2.92-4.746,2.96,2.96,0,0,1,3.191-6.03,1.991,1.991,0,0,1,3.96-6.9a2.193,2.193,0,0,1,1.162-.3,1.985,1.985,0,0,1,1.663.789,3.44,3.44,0,0,1,.608,2.151V-4a4.6,4.6,0,0,1-.82,3.03A3.152,3.152,0,0,1,4.1,0H3.921V-.762h.19A2.487,2.487,0,0,0,5.83-1.344,2.5,2.5,0,0,0,6.484-3.125Zm-1.392,0A1.4,1.4,0,0,0,5.93-3.4a1.641,1.641,0,0,0,.559-.688v-.361A2.486,2.486,0,0,0,6.1-5.9a1.151,1.151,0,0,0-.977-.557A1.16,1.16,0,0,0,4.17-6a1.883,1.883,0,0,0-.361,1.2,1.96,1.96,0,0,0,.349,1.2A1.105,1.105,0,0,0,5.093-3.125Zm5.518.474H8.228v-.737H10.61ZM14.365,0h-.908V-6.021l-1.821.669v-.82l2.588-.972h.142Zm6.46-2.388h.986v.737h-.986V0h-.908V-1.65H16.68v-.532l3.184-4.927h.962Zm-3.12,0h2.212V-5.874l-.107.2ZM27.773-6.343H25.488V0h-.933V-6.343h-2.28v-.767h5.5ZM31.563,0h-.908V-6.021l-1.821.669v-.82l2.588-.972h.142Zm7.3,0H34.209V-.649L36.67-3.384a5.847,5.847,0,0,0,.754-1.008,1.683,1.683,0,0,0,.208-.8,1.276,1.276,0,0,0-.337-.913,1.178,1.178,0,0,0-.9-.356,1.4,1.4,0,0,0-1.047.383,1.464,1.464,0,0,0-.374,1.067h-.9A2.1,2.1,0,0,1,34.7-6.6,2.344,2.344,0,0,1,36.4-7.207a2.252,2.252,0,0,1,1.567.52A1.774,1.774,0,0,1,38.54-5.3,4.067,4.067,0,0,1,37.2-2.8L35.3-.737h3.569Zm1.021-.474a.566.566,0,0,1,.139-.391.53.53,0,0,1,.417-.156.546.546,0,0,1,.422.156.554.554,0,0,1,.144.391.524.524,0,0,1-.144.376.556.556,0,0,1-.422.151A.54.54,0,0,1,40.027-.1.535.535,0,0,1,39.888-.474Zm0-4.312a.566.566,0,0,1,.139-.391.53.53,0,0,1,.417-.156.546.546,0,0,1,.422.156.554.554,0,0,1,.144.391.524.524,0,0,1-.144.376.556.556,0,0,1-.422.151.54.54,0,0,1-.417-.151A.535.535,0,0,1,39.893-4.785ZM46.9,0H42.246V-.649l2.461-2.734a5.847,5.847,0,0,0,.754-1.008,1.683,1.683,0,0,0,.208-.8,1.276,1.276,0,0,0-.337-.913,1.178,1.178,0,0,0-.9-.356,1.4,1.4,0,0,0-1.047.383,1.464,1.464,0,0,0-.374,1.067h-.9A2.1,2.1,0,0,1,42.742-6.6a2.344,2.344,0,0,1,1.692-.605A2.252,2.252,0,0,1,46-6.687,1.774,1.774,0,0,1,46.577-5.3a4.067,4.067,0,0,1-1.338,2.5l-1.9,2.065H46.9Zm4.771-2.388h.986v.737h-.986V0h-.908V-1.65H47.529v-.532l3.184-4.927h.962Zm-3.12,0h2.212V-5.874l-.107.2ZM53.54-.474a.566.566,0,0,1,.139-.391.53.53,0,0,1,.417-.156.546.546,0,0,1,.422.156.554.554,0,0,1,.144.391.524.524,0,0,1-.144.376A.556.556,0,0,1,54.1.054.54.54,0,0,1,53.679-.1.535.535,0,0,1,53.54-.474Zm0-4.312a.566.566,0,0,1,.139-.391.53.53,0,0,1,.417-.156.546.546,0,0,1,.422.156.554.554,0,0,1,.144.391.524.524,0,0,1-.144.376.556.556,0,0,1-.422.151.54.54,0,0,1-.417-.151A.535.535,0,0,1,53.545-4.785Zm2.769,1.221.361-3.545h3.643v.835H57.441l-.215,1.938a2.294,2.294,0,0,1,1.187-.308A1.961,1.961,0,0,1,59.956-4a2.516,2.516,0,0,1,.571,1.736,2.429,2.429,0,0,1-.593,1.731A2.162,2.162,0,0,1,58.276.1a2.247,2.247,0,0,1-1.538-.522A2.085,2.085,0,0,1,56.06-1.87h.854a1.435,1.435,0,0,0,.435.92,1.351,1.351,0,0,0,.928.31,1.219,1.219,0,0,0,.989-.43,1.8,1.8,0,0,0,.359-1.187A1.649,1.649,0,0,0,59.236-3.4,1.32,1.32,0,0,0,58.2-3.833a1.489,1.489,0,0,0-.928.259l-.239.2Zm8.745-3.55v.767h-.166a2.378,2.378,0,0,0-1.68.625,2.6,2.6,0,0,0-.723,1.7,1.928,1.928,0,0,1,1.533-.645,1.844,1.844,0,0,1,1.482.654,2.524,2.524,0,0,1,.554,1.689,2.516,2.516,0,0,1-.6,1.758,2.06,2.06,0,0,1-1.6.659A2.029,2.029,0,0,1,62.2-.686a3.106,3.106,0,0,1-.635-2.019v-.347a4.68,4.68,0,0,1,.837-3A3.076,3.076,0,0,1,64.9-7.114Zm-1.187,3.2a1.441,1.441,0,0,0-.854.278,1.45,1.45,0,0,0-.542.7V-2.6a2.332,2.332,0,0,0,.4,1.416,1.185,1.185,0,0,0,.986.537,1.148,1.148,0,0,0,.959-.449,1.864,1.864,0,0,0,.349-1.177,1.865,1.865,0,0,0-.354-1.184A1.135,1.135,0,0,0,63.872-3.911Zm5.938.1h1.982v.854H69.81V-.713H68.9V-2.959H66.919v-.854H68.9V-5.889h.908Zm7.446.781a4.131,4.131,0,0,1-.542,2.358A1.928,1.928,0,0,1,75.02.1a1.942,1.942,0,0,1-1.685-.754,3.921,3.921,0,0,1-.566-2.253V-4.116a4.039,4.039,0,0,1,.542-2.329,1.942,1.942,0,0,1,1.7-.762,1.96,1.96,0,0,1,1.689.735A3.9,3.9,0,0,1,77.256-4.2Zm-.9-1.235A3.31,3.31,0,0,0,76.03-5.94a1.109,1.109,0,0,0-1.021-.525A1.1,1.1,0,0,0,74-5.942a3.232,3.232,0,0,0-.327,1.606v1.445a3.363,3.363,0,0,0,.334,1.7A1.107,1.107,0,0,0,75.02-.64a1.092,1.092,0,0,0,.994-.518,3.241,3.241,0,0,0,.339-1.631Zm6.519,1.235a4.131,4.131,0,0,1-.542,2.358A1.928,1.928,0,0,1,80.635.1,1.942,1.942,0,0,1,78.95-.657a3.921,3.921,0,0,1-.566-2.253V-4.116a4.039,4.039,0,0,1,.542-2.329,1.942,1.942,0,0,1,1.7-.762,1.96,1.96,0,0,1,1.689.735A3.9,3.9,0,0,1,82.871-4.2Zm-.9-1.235a3.31,3.31,0,0,0-.322-1.672,1.109,1.109,0,0,0-1.021-.525,1.1,1.1,0,0,0-1.011.522,3.232,3.232,0,0,0-.327,1.606v1.445a3.363,3.363,0,0,0,.334,1.7,1.107,1.107,0,0,0,1.013.549,1.092,1.092,0,0,0,.994-.518,3.241,3.241,0,0,0,.339-1.631ZM84.092-.474a.566.566,0,0,1,.139-.391.53.53,0,0,1,.417-.156.546.546,0,0,1,.422.156.554.554,0,0,1,.144.391.524.524,0,0,1-.144.376.556.556,0,0,1-.422.151A.54.54,0,0,1,84.231-.1.535.535,0,0,1,84.092-.474Zm0-4.312a.566.566,0,0,1,.139-.391.53.53,0,0,1,.417-.156.546.546,0,0,1,.422.156.554.554,0,0,1,.144.391.524.524,0,0,1-.144.376.556.556,0,0,1-.422.151.54.54,0,0,1-.417-.151A.535.535,0,0,1,84.1-4.785Zm6.812,1.753a4.131,4.131,0,0,1-.542,2.358A1.928,1.928,0,0,1,88.672.1a1.942,1.942,0,0,1-1.685-.754,3.921,3.921,0,0,1-.566-2.253V-4.116a4.039,4.039,0,0,1,.542-2.329,1.942,1.942,0,0,1,1.7-.762,1.96,1.96,0,0,1,1.689.735A3.9,3.9,0,0,1,90.908-4.2ZM90-4.268a3.31,3.31,0,0,0-.322-1.672,1.109,1.109,0,0,0-1.021-.525,1.1,1.1,0,0,0-1.011.522,3.232,3.232,0,0,0-.327,1.606v1.445a3.363,3.363,0,0,0,.334,1.7,1.107,1.107,0,0,0,1.013.549,1.092,1.092,0,0,0,.994-.518A3.241,3.241,0,0,0,90-2.788Zm6.519,1.235a4.131,4.131,0,0,1-.542,2.358A1.928,1.928,0,0,1,94.287.1,1.942,1.942,0,0,1,92.6-.657a3.921,3.921,0,0,1-.566-2.253V-4.116a4.039,4.039,0,0,1,.542-2.329,1.942,1.942,0,0,1,1.7-.762,1.96,1.96,0,0,1,1.689.735A3.9,3.9,0,0,1,96.523-4.2Zm-.9-1.235A3.31,3.31,0,0,0,95.3-5.94a1.109,1.109,0,0,0-1.021-.525,1.1,1.1,0,0,0-1.011.522,3.232,3.232,0,0,0-.327,1.606v1.445a3.363,3.363,0,0,0,.334,1.7,1.107,1.107,0,0,0,1.013.549,1.092,1.092,0,0,0,.994-.518,3.241,3.241,0,0,0,.339-1.631Zm4.238,1.431A7.553,7.553,0,0,1,99.573-.75,6.172,6.172,0,0,1,98.7,1.094a3.829,3.829,0,0,1-1.233,1.2l-.19-.552a3.925,3.925,0,0,0,1.208-1.79,7.742,7.742,0,0,0,.466-2.693V-2.9A8.038,8.038,0,0,0,98.735-4.8a6.435,6.435,0,0,0-.6-1.58,3.648,3.648,0,0,0-.862-1.089l.19-.552a3.814,3.814,0,0,1,1.228,1.191,6.186,6.186,0,0,1,.874,1.841A7.727,7.727,0,0,1,99.858-2.837Z" transform="translate(7227 -1609)" fill="#a1a1a1"/>
    <path id="Path_1193" data-name="Path 1193" d="M2.241-3.032A4.131,4.131,0,0,1,1.7-.674,1.928,1.928,0,0,1,0,.1,1.942,1.942,0,0,1-1.68-.657,3.921,3.921,0,0,1-2.246-2.91V-4.116A4.039,4.039,0,0,1-1.7-6.445,1.942,1.942,0,0,1,0-7.207a1.96,1.96,0,0,1,1.689.735A3.9,3.9,0,0,1,2.241-4.2Zm-.9-1.235A3.31,3.31,0,0,0,1.016-5.94,1.109,1.109,0,0,0,0-6.465a1.1,1.1,0,0,0-1.011.522,3.232,3.232,0,0,0-.327,1.606v1.445a3.363,3.363,0,0,0,.334,1.7A1.107,1.107,0,0,0,0-.64,1.092,1.092,0,0,0,1-1.157a3.241,3.241,0,0,0,.339-1.631Z" transform="translate(7179 -1695)" fill="#0c2339"/>
    <path id="Path_1194" data-name="Path 1194" d="M-5.632-2.886A7.549,7.549,0,0,1-5.337-5a6.156,6.156,0,0,1,.881-1.846A3.749,3.749,0,0,1-3.24-8.022l.186.6a3.889,3.889,0,0,0-1.169,1.67,7.239,7.239,0,0,0-.5,2.515l0,.415A7.277,7.277,0,0,0-4.041.444a3.907,3.907,0,0,0,.986,1.3l-.186.552A3.87,3.87,0,0,1-4.48,1.084,6.787,6.787,0,0,1-5.632-2.886Zm6.04-.928H2.39v.854H.408V-.713H-.5V-2.959H-2.483v-.854H-.5V-5.889H.408Zm5.166.977A7.553,7.553,0,0,1,5.288-.75a6.172,6.172,0,0,1-.874,1.843,3.829,3.829,0,0,1-1.233,1.2l-.19-.552A3.925,3.925,0,0,0,4.2-.046a7.742,7.742,0,0,0,.466-2.693V-2.9A8.038,8.038,0,0,0,4.451-4.8a6.435,6.435,0,0,0-.6-1.58,3.648,3.648,0,0,0-.862-1.089l.19-.552A3.814,3.814,0,0,1,4.409-6.831,6.186,6.186,0,0,1,5.283-4.99,7.727,7.727,0,0,1,5.574-2.837Z" transform="translate(7179 -1759)" fill="#0c2339"/>
    <path id="Path_1195" data-name="Path 1195" d="M-4.177-2.886A7.549,7.549,0,0,1-3.882-5,6.156,6.156,0,0,1-3-6.851,3.749,3.749,0,0,1-1.785-8.022l.186.6a3.889,3.889,0,0,0-1.169,1.67,7.239,7.239,0,0,0-.5,2.515l0,.415A7.277,7.277,0,0,0-2.585.444a3.907,3.907,0,0,0,.986,1.3l-.186.552a3.87,3.87,0,0,1-1.24-1.211A6.787,6.787,0,0,1-4.177-2.886Zm5.332.234H-1.228v-.737H1.155Zm2.964-.186A7.553,7.553,0,0,1,3.833-.75a6.172,6.172,0,0,1-.874,1.843,3.829,3.829,0,0,1-1.233,1.2l-.19-.552A3.925,3.925,0,0,0,2.744-.046,7.742,7.742,0,0,0,3.21-2.739V-2.9A8.038,8.038,0,0,0,3-4.8a6.435,6.435,0,0,0-.6-1.58,3.648,3.648,0,0,0-.862-1.089l.19-.552A3.814,3.814,0,0,1,2.954-6.831,6.186,6.186,0,0,1,3.828-4.99,7.727,7.727,0,0,1,4.119-2.837Z" transform="translate(7179 -1631)" fill="#0c2339"/>
    <g id="Mask_Group_3" data-name="Mask Group 3" transform="translate(6501 -2193)" clip-path="url(#clip-path-2)">
      <line id="Line_19" data-name="Line 19" x1="549.5" transform="translate(393 410.5)" fill="none" stroke="rgba(165,170,188,0.5)" stroke-width="1"/>
    </g>
    <path id="Path_1196" data-name="Path 1196" d="M1.424,0H1.061V-2.408l-.729.268v-.328l1.035-.389h.057ZM3.09,5H1.227V4.74l.984-1.094a2.339,2.339,0,0,0,.3-.4A.673.673,0,0,0,2.6,2.922a.51.51,0,0,0-.135-.365A.471.471,0,0,0,2.1,2.414a.558.558,0,0,0-.419.153.586.586,0,0,0-.149.427H1.172a.839.839,0,0,1,.253-.635A.938.938,0,0,1,2.1,2.117a.9.9,0,0,1,.627.208.71.71,0,0,1,.23.554,1.627,1.627,0,0,1-.535,1l-.762.826H3.09Zm.643,3.4H4a.6.6,0,0,0,.4-.135.45.45,0,0,0,.146-.354.441.441,0,0,0-.5-.5.518.518,0,0,0-.374.134.468.468,0,0,0-.14.354H3.18a.725.725,0,0,1,.247-.562.9.9,0,0,1,.628-.224.889.889,0,0,1,.631.213.769.769,0,0,1,.229.592.624.624,0,0,1-.12.359.725.725,0,0,1-.327.26.7.7,0,0,1,.362.246.683.683,0,0,1,.128.42.776.776,0,0,1-.25.607.936.936,0,0,1-.65.225.961.961,0,0,1-.651-.217.719.719,0,0,1-.251-.572h.363a.465.465,0,0,0,.146.359.557.557,0,0,0,.393.135.547.547,0,0,0,.4-.137A.527.527,0,0,0,4.6,9.215a.478.478,0,0,0-.152-.381A.664.664,0,0,0,4,8.7H3.732Z" transform="translate(7297.564 -1803)" fill="#fff"/>
    <g id="plus-minus" transform="translate(7182.412 -1975.2)">
      <path id="Path_126" data-name="Path 126" d="M182.063,170.582v1.946h2.34a.358.358,0,0,1,0,.716h-2.34v2.006a.382.382,0,1,1-.764,0v-2.006h-2.34a.358.358,0,0,1,0-.716h2.34v-1.946a.382.382,0,0,1,.764,0Z" transform="translate(-30.342)" fill="#a1a1a1"/>
      <path id="Path_127" data-name="Path 127" d="M155.318,329.716h-7.96a.359.359,0,0,1-.358-.358h0a.357.357,0,0,1,.358-.358h7.96a.357.357,0,0,1,.358.358h0A.357.357,0,0,1,155.318,329.716Z" transform="translate(0 -152.48)" fill="#a1a1a1"/>
      <path id="Path_128" data-name="Path 128" d="M201.058,391.716h-4a.359.359,0,0,1-.358-.358h0a.359.359,0,0,1,.358-.358h4a.357.357,0,0,1,.358.358h0A.357.357,0,0,1,201.058,391.716Z" transform="translate(-47.722 -212.012)" fill="#a1a1a1"/>
    </g>
    <g id="Path_1197" data-name="Path 1197" transform="translate(7184 -1777)" fill="#fff">
      <path d="M 87 151 L 1 151 L 1 1 L 87 1 L 87 151 Z" stroke="none"/>
      <path d="M 2 2 L 2 150 L 86 150 L 86 2 L 2 2 M 0 0 L 88 0 L 88 152 L 0 152 L 0 0 Z" stroke="none" fill="#4dc0ed"/>
    </g>
    <path id="Path_1198" data-name="Path 1198" d="M0,0H69V129H0Z" transform="translate(7193 -1763)" fill="#ff443b"/>
    <path id="Path_1199" data-name="Path 1199" d="M2.5,0A2.5,2.5,0,0,1,5,2.5v74a2.5,2.5,0,0,1-5,0V2.5A2.5,2.5,0,0,1,2.5,0Z" transform="translate(7267 -1765) rotate(90)" fill="#0c2339"/>
    <path id="Path_1200" data-name="Path 1200" d="M2.5,0A2.5,2.5,0,0,1,5,2.5v74a2.5,2.5,0,0,1-5,0V2.5A2.5,2.5,0,0,1,2.5,0Z" transform="translate(7267 -1701) rotate(90)" fill="#3cca8e"/>
  </g>
</svg>
