<svg xmlns="http://www.w3.org/2000/svg" width="53.733" height="38.741" viewBox="0 0 53.733 38.741">
  <g id="Group_1094" data-name="Group 1094" transform="translate(-683.941 -279)">
    <path id="Create_flow_bg" data-name="Create flow bg" d="M5,0H48.733a5,5,0,0,1,5,5V33.741a5,5,0,0,1-5,5H5a5,5,0,0,1-5-5V5A5,5,0,0,1,5,0Z" transform="translate(683.941 279)" fill="#f9e6e6"/>
    <path id="Create_flow_bg_-_Outline" data-name="Create flow bg - Outline" d="M5,.5A4.505,4.505,0,0,0,.5,5V33.741a4.505,4.505,0,0,0,4.5,4.5H48.733a4.505,4.505,0,0,0,4.5-4.5V5a4.505,4.505,0,0,0-4.5-4.5H5M5,0H48.733a5,5,0,0,1,5,5V33.741a5,5,0,0,1-5,5H5a5,5,0,0,1-5-5V5A5,5,0,0,1,5,0Z" transform="translate(683.941 279)" fill="#fe746e"/>
    <path id="Path_1118" data-name="Path 1118" d="M1.716-1.438H.881V0H.41V-3.555H1.587a1.393,1.393,0,0,1,.924.273.984.984,0,0,1,.323.8.957.957,0,0,1-.179.579,1.071,1.071,0,0,1-.5.369L2.991-.029V0h-.5ZM.881-1.821H1.6A.812.812,0,0,0,2.157-2a.612.612,0,0,0,.206-.484.644.644,0,0,0-.2-.506A.832.832,0,0,0,1.6-3.171H.881ZM4.517.049A1.154,1.154,0,0,1,3.643-.3a1.309,1.309,0,0,1-.337-.944v-.083a1.585,1.585,0,0,1,.15-.7,1.171,1.171,0,0,1,.42-.483A1.056,1.056,0,0,1,4.46-2.69a.989.989,0,0,1,.8.339,1.469,1.469,0,0,1,.286.972v.188H3.757a.939.939,0,0,0,.228.631.718.718,0,0,0,.555.24.787.787,0,0,0,.405-.1,1.018,1.018,0,0,0,.291-.259l.276.215A1.109,1.109,0,0,1,4.517.049ZM4.46-2.319A.6.6,0,0,0,4-2.12a.967.967,0,0,0-.229.558H5.1V-1.6A.86.86,0,0,0,4.91-2.13.567.567,0,0,0,4.46-2.319ZM6.909-.613l.654-2.029h.461L7.078,0H6.733L5.776-2.642h.461ZM8.95,0H8.5V-2.642H8.95ZM8.462-3.342a.27.27,0,0,1,.067-.186.252.252,0,0,1,.2-.076.256.256,0,0,1,.2.076A.267.267,0,0,1,9-3.342a.258.258,0,0,1-.068.183.261.261,0,0,1-.2.073.257.257,0,0,1-.2-.073A.261.261,0,0,1,8.462-3.342ZM10.769.049A1.154,1.154,0,0,1,9.9-.3a1.309,1.309,0,0,1-.337-.944v-.083a1.585,1.585,0,0,1,.15-.7,1.171,1.171,0,0,1,.42-.483,1.056,1.056,0,0,1,.585-.175.989.989,0,0,1,.8.339,1.469,1.469,0,0,1,.286.972v.188H10.01a.939.939,0,0,0,.228.631.718.718,0,0,0,.555.24.787.787,0,0,0,.405-.1,1.018,1.018,0,0,0,.291-.259l.276.215A1.109,1.109,0,0,1,10.769.049Zm-.056-2.368a.6.6,0,0,0-.459.2.967.967,0,0,0-.229.558h1.323V-1.6a.86.86,0,0,0-.186-.533A.567.567,0,0,0,10.713-2.319Zm3.948,1.7.508-2.019h.452L14.851,0h-.366l-.642-2-.625,2h-.366l-.767-2.642h.449l.52,1.978.615-1.978h.364ZM18.948,0a.949.949,0,0,1-.063-.278,1.008,1.008,0,0,1-.752.327.932.932,0,0,1-.641-.221.715.715,0,0,1-.25-.56.747.747,0,0,1,.314-.641,1.479,1.479,0,0,1,.883-.228h.439v-.208a.507.507,0,0,0-.142-.377.569.569,0,0,0-.417-.14.659.659,0,0,0-.405.122.36.36,0,0,0-.164.3h-.454a.623.623,0,0,1,.14-.382.958.958,0,0,1,.381-.292,1.281,1.281,0,0,1,.529-.107,1.044,1.044,0,0,1,.715.228.823.823,0,0,1,.269.629V-.618a1.486,1.486,0,0,0,.093.579V0ZM18.2-.344a.794.794,0,0,0,.4-.11.665.665,0,0,0,.276-.286v-.542h-.354q-.83,0-.83.486a.411.411,0,0,0,.142.332A.544.544,0,0,0,18.2-.344Zm2.266-2.3.015.332a.963.963,0,0,1,.791-.381q.837,0,.845.945V0h-.452V-1.748a.608.608,0,0,0-.131-.422.523.523,0,0,0-.4-.137.652.652,0,0,0-.386.117.8.8,0,0,0-.259.308V0h-.452V-2.642Zm2.222,1.3a1.547,1.547,0,0,1,.288-.978.911.911,0,0,1,.754-.37.916.916,0,0,1,.735.317V-3.75h.452V0H24.5l-.022-.283a.92.92,0,0,1-.754.332.9.9,0,0,1-.748-.376,1.565,1.565,0,0,1-.289-.981Zm.452.051a1.172,1.172,0,0,0,.186.7.6.6,0,0,0,.513.254.659.659,0,0,0,.627-.386V-1.934a.664.664,0,0,0-.623-.374.6.6,0,0,0-.518.256A1.29,1.29,0,0,0,23.137-1.292ZM28.484,0a.949.949,0,0,1-.063-.278,1.008,1.008,0,0,1-.752.327.932.932,0,0,1-.641-.221.715.715,0,0,1-.25-.56.747.747,0,0,1,.314-.641,1.479,1.479,0,0,1,.883-.228h.439v-.208a.507.507,0,0,0-.142-.377.569.569,0,0,0-.417-.14.659.659,0,0,0-.405.122.36.36,0,0,0-.164.3h-.454a.623.623,0,0,1,.14-.382.958.958,0,0,1,.381-.292,1.281,1.281,0,0,1,.529-.107,1.044,1.044,0,0,1,.715.228.823.823,0,0,1,.269.629V-.618a1.486,1.486,0,0,0,.093.579V0Zm-.75-.344a.794.794,0,0,0,.4-.11.665.665,0,0,0,.276-.286v-.542h-.354q-.83,0-.83.486a.411.411,0,0,0,.142.332A.544.544,0,0,0,27.734-.344Zm1.729-1a1.547,1.547,0,0,1,.288-.978.911.911,0,0,1,.754-.37.916.916,0,0,1,.735.317V-3.75h.452V0h-.415l-.022-.283A.92.92,0,0,1,30.5.049a.9.9,0,0,1-.748-.376,1.565,1.565,0,0,1-.289-.981Zm.452.051a1.172,1.172,0,0,0,.186.7.6.6,0,0,0,.513.254A.659.659,0,0,0,31.24-.72V-1.934a.664.664,0,0,0-.623-.374.6.6,0,0,0-.518.256A1.29,1.29,0,0,0,29.915-1.292Zm2.368-.051a1.547,1.547,0,0,1,.288-.978.911.911,0,0,1,.754-.37.916.916,0,0,1,.735.317V-3.75h.452V0H34.1l-.022-.283a.92.92,0,0,1-.754.332.9.9,0,0,1-.748-.376,1.565,1.565,0,0,1-.289-.981Zm.452.051a1.172,1.172,0,0,0,.186.7.6.6,0,0,0,.513.254A.659.659,0,0,0,34.06-.72V-1.934a.664.664,0,0,0-.623-.374.6.6,0,0,0-.518.256A1.29,1.29,0,0,0,32.734-1.292Zm5.952,0a1.571,1.571,0,0,1-.278.973.889.889,0,0,1-.747.367.921.921,0,0,1-.774-.354L36.865,0H36.45V-3.75H36.9v1.4a.916.916,0,0,1,.754-.339.9.9,0,0,1,.756.364,1.618,1.618,0,0,1,.275,1Zm-.452-.051a1.22,1.22,0,0,0-.178-.713.59.59,0,0,0-.513-.251.663.663,0,0,0-.642.415V-.75a.682.682,0,0,0,.647.415.587.587,0,0,0,.505-.251A1.3,1.3,0,0,0,38.235-1.343ZM39.746,0h-.452V-2.642h.452Zm-.488-3.342a.27.27,0,0,1,.067-.186.252.252,0,0,1,.2-.076.256.256,0,0,1,.2.076.267.267,0,0,1,.068.186.258.258,0,0,1-.068.183.261.261,0,0,1-.2.073.257.257,0,0,1-.2-.073A.261.261,0,0,1,39.258-3.342ZM40.959,0h-.452V-3.75h.452Zm1.213,0h-.452V-3.75h.452ZM1.973,6a.949.949,0,0,1-.063-.278,1.008,1.008,0,0,1-.752.327.932.932,0,0,1-.641-.221.715.715,0,0,1-.25-.56A.747.747,0,0,1,.58,4.627,1.479,1.479,0,0,1,1.462,4.4H1.9V4.191a.507.507,0,0,0-.142-.377.569.569,0,0,0-.417-.14A.659.659,0,0,0,.938,3.8a.36.36,0,0,0-.164.3H.32a.623.623,0,0,1,.14-.382.958.958,0,0,1,.381-.292A1.281,1.281,0,0,1,1.37,3.31a1.044,1.044,0,0,1,.715.228.823.823,0,0,1,.269.629V5.382a1.486,1.486,0,0,0,.093.579V6Zm-.75-.344a.794.794,0,0,0,.4-.11A.665.665,0,0,0,1.9,5.26V4.718H1.548q-.83,0-.83.486a.411.411,0,0,0,.142.332A.544.544,0,0,0,1.223,5.656Zm1.729-1a1.547,1.547,0,0,1,.288-.978.911.911,0,0,1,.754-.37.916.916,0,0,1,.735.317V2.25h.452V6H4.766l-.022-.283a.92.92,0,0,1-.754.332.9.9,0,0,1-.748-.376,1.565,1.565,0,0,1-.289-.981Zm.452.051a1.172,1.172,0,0,0,.186.7.6.6,0,0,0,.513.254.659.659,0,0,0,.627-.386V4.066a.664.664,0,0,0-.623-.374.6.6,0,0,0-.518.256A1.29,1.29,0,0,0,3.4,4.708Zm2.944-1.35V6.305q0,.762-.691.762a.843.843,0,0,1-.276-.044V6.664a.873.873,0,0,0,.205.02A.307.307,0,0,0,5.817,6.6.4.4,0,0,0,5.9,6.317V3.358Zm-.5-.7a.271.271,0,0,1,.067-.184.247.247,0,0,1,.2-.077.256.256,0,0,1,.2.076.267.267,0,0,1,.068.186.258.258,0,0,1-.068.183.261.261,0,0,1-.2.073.253.253,0,0,1-.2-.073A.264.264,0,0,1,5.85,2.658ZM8.706,5.739a.959.959,0,0,1-.774.31A.821.821,0,0,1,7.289,5.8a1.062,1.062,0,0,1-.223-.726V3.358h.452V5.065q0,.6.488.6a.676.676,0,0,0,.688-.386V3.358h.452V6h-.43ZM11.37,5.3a.332.332,0,0,0-.138-.284,1.328,1.328,0,0,0-.481-.175,2.274,2.274,0,0,1-.544-.176.775.775,0,0,1-.3-.244.584.584,0,0,1-.1-.337.685.685,0,0,1,.275-.549,1.073,1.073,0,0,1,.7-.225,1.1,1.1,0,0,1,.729.232.737.737,0,0,1,.28.593h-.454a.408.408,0,0,0-.157-.32.59.59,0,0,0-.4-.134.618.618,0,0,0-.386.107.338.338,0,0,0-.139.281.274.274,0,0,0,.129.247,1.592,1.592,0,0,0,.468.159,2.436,2.436,0,0,1,.548.181.8.8,0,0,1,.311.253.621.621,0,0,1,.1.36.676.676,0,0,1-.283.568,1.188,1.188,0,0,1-.735.214,1.33,1.33,0,0,1-.562-.112.913.913,0,0,1-.382-.314.756.756,0,0,1-.138-.436h.452a.468.468,0,0,0,.182.36.706.706,0,0,0,.448.133.728.728,0,0,0,.411-.1A.319.319,0,0,0,11.37,5.3Zm1.653-2.581v.64h.493v.349h-.493v1.64a.367.367,0,0,0,.066.238.277.277,0,0,0,.225.079,1.094,1.094,0,0,0,.215-.029V6a1.317,1.317,0,0,1-.347.049.562.562,0,0,1-.457-.183.787.787,0,0,1-.154-.52V3.708H12.09V3.358h.481v-.64Zm1.445.64.012.293a.976.976,0,0,1,.784-.342.755.755,0,0,1,.754.425,1,1,0,0,1,.343-.308,1.013,1.013,0,0,1,.5-.117q.869,0,.884.92V6h-.452V4.257a.607.607,0,0,0-.129-.424.57.57,0,0,0-.435-.14.6.6,0,0,0-.417.15.609.609,0,0,0-.193.4V6h-.454V4.269a.5.5,0,0,0-.564-.576.6.6,0,0,0-.608.378V6h-.452V3.358Zm5.054,2.69a1.154,1.154,0,0,1-.874-.353,1.309,1.309,0,0,1-.337-.944V4.669a1.585,1.585,0,0,1,.15-.7,1.171,1.171,0,0,1,.42-.483,1.056,1.056,0,0,1,.585-.175.989.989,0,0,1,.8.339,1.469,1.469,0,0,1,.286.972v.188h-1.79a.939.939,0,0,0,.228.631.718.718,0,0,0,.555.24.787.787,0,0,0,.405-.1,1.018,1.018,0,0,0,.291-.259l.276.215A1.109,1.109,0,0,1,19.521,6.049Zm-.056-2.368a.6.6,0,0,0-.459.2.967.967,0,0,0-.229.558H20.1V4.4a.86.86,0,0,0-.186-.533A.567.567,0,0,0,19.465,3.681ZM21.5,3.358l.015.332a.963.963,0,0,1,.791-.381q.837,0,.845.945V6H22.7V4.252a.608.608,0,0,0-.131-.422.523.523,0,0,0-.4-.137.652.652,0,0,0-.386.117.8.8,0,0,0-.259.308V6h-.452V3.358Zm2.944-.64v.64h.493v.349h-.493v1.64a.367.367,0,0,0,.066.238.277.277,0,0,0,.225.079,1.094,1.094,0,0,0,.215-.029V6a1.317,1.317,0,0,1-.347.049.562.562,0,0,1-.457-.183.787.787,0,0,1-.154-.52V3.708h-.481V3.358h.481v-.64Zm1.111,3.586h-.388l1.484-3.86h.386Z" transform="translate(686.691 289.116)" fill="#0c2339"/>
    <path id="Path_1032" data-name="Path 1032" d="M4.159,0A4.159,4.159,0,1,1,0,4.159,4.159,4.159,0,0,1,4.159,0Z" transform="translate(726.535 307.241)" fill="#fe746e"/>
    <path id="Path_1033" data-name="Path 1033" d="M1.424,0H1.061V-2.408l-.729.268v-.328l1.035-.389h.057Z" transform="translate(729.395 312.54)" fill="#fff"/>
  </g>
</svg>
