<svg xmlns="http://www.w3.org/2000/svg" xmlns:xlink="http://www.w3.org/1999/xlink" width="105" height="136" viewBox="0 0 105 136"><defs><clipPath id="a"><rect width="57.326" height="65.07" fill="#fff"/></clipPath></defs><g transform="translate(-427 -339)"><g transform="translate(427 339)" fill="#0c2339" stroke="#fff" stroke-width="1"><circle cx="52.5" cy="52.5" r="52.5" stroke="none"/><circle cx="52.5" cy="52.5" r="52" fill="none"/></g><circle cx="14.5" cy="14.5" r="14.5" transform="translate(466 374)" fill="#4dc0ed"/><g transform="translate(451 359)"><g clip-path="url(#a)"><path d="M30.351,345.73q-5.412-1.456-10.823-2.913c-1.286-.347-2.567-.709-3.849-1.07a3.8,3.8,0,0,0-2.891.311c-.375.2-.731.434-1.119.6-.682.287-1.171.62-1.107,1.512a.916.916,0,0,1-1.047.952c-2.795-.055-5.59-.12-8.384-.213-.8-.027-1.152-.47-1.13-1.306q.2-7.493.419-14.986c.029-1.037.047-2.075.079-3.112.029-.935.408-1.3,1.346-1.276q3.907.089,7.813.194c1.164.032,1.488.4,1.442,1.578-.015.4,0,.8,0,1.2.913-.321,1.807-.7,2.735-.952a12.994,12.994,0,0,1,9.69.907,13.04,13.04,0,0,0,6.206,1.523c1.947-.01,3.9.108,5.843.141a6.791,6.791,0,0,1,5.986,3.328c.044.07.1.135.176.243.574-.267,1.145-.53,1.713-.8,2.276-1.074,4.54-2.173,6.829-3.219a5.363,5.363,0,0,1,6.684,1.888c.582.867.483,1.4-.382,1.962q-9.248,5.983-18.506,11.952a11.209,11.209,0,0,1-4.439,1.427c-.206.032-.408.086-.612.129Zm9.907-11.043a4.582,4.582,0,0,0-4.168-3.7c-1.353-.068-2.709-.085-4.064-.13-1.566-.051-3.135-.067-4.7-.173a13.888,13.888,0,0,1-4.822-1.666,11.526,11.526,0,0,0-10.961.465.971.971,0,0,0-.575.938c-.075,3.3-.18,6.6-.273,9.905a3.579,3.579,0,0,0,.038.378c.256-.124.466-.206.657-.32a6.318,6.318,0,0,1,5.256-.6q3.041.9,6.1,1.724c2.508.681,5,1.482,7.545,1.952a9.408,9.408,0,0,0,6.855-1.238c5.68-3.608,11.309-7.3,16.958-10.952.184-.119.361-.247.558-.381A3.183,3.183,0,0,0,51,330.38c-2.393,1.122-4.779,2.26-7.168,3.391l-1.393.66c.034.433.083.79.087,1.147.009.848-.4,1.281-1.228,1.26q-6.192-.155-12.384-.34c-.777-.023-1.235-.467-1.212-1.094s.506-1.029,1.278-1.015c1.334.025,2.668.064,4,.1l7.276.2M2.615,326.5c-.149,5.4-.3,10.838-.451,16.372H8.5c.149-5.413.3-10.839.45-16.372Z" transform="translate(0 -280.66)" fill="#fff"/><path d="M118.541,136.812a15.462,15.462,0,1,1,15.491-15.455,15.476,15.476,0,0,1-15.491,15.455m-.021-2.12A13.335,13.335,0,1,0,105.2,121.279a13.354,13.354,0,0,0,13.316,13.413" transform="translate(-89.213 -91.66)" fill="#fff"/><path d="M210.407,6.174c0-1.672-.017-3.345.007-5.017a1.02,1.02,0,0,1,1.553-.982,1.332,1.332,0,0,1,.527.925c.038,3.365.03,6.731.017,10.1a1.048,1.048,0,1,1-2.094-.006c-.02-1.672-.007-3.344-.007-5.016h0" transform="translate(-182.131 0)" fill="#fff"/><path d="M272.079,43.258c0,.783.013,1.566,0,2.349a1.055,1.055,0,1,1-2.1,0q-.026-2.317,0-4.635a1.056,1.056,0,1,1,2.1,0c.018.761,0,1.524,0,2.286" transform="translate(-233.686 -34.478)" fill="#fff"/><path d="M150.835,43.3c0-.762-.012-1.524,0-2.285a1.059,1.059,0,1,1,2.106,0q.023,2.285,0,4.571a1.059,1.059,0,1,1-2.106,0c-.016-.761,0-1.524,0-2.285" transform="translate(-130.564 -34.483)" fill="#fff"/><path d="M193.46,159.345a4.581,4.581,0,0,1-3.112,4.456c-.416.141-.593.326-.533.758a1.981,1.981,0,0,1-.018.569,1.009,1.009,0,0,1-.994.9.93.93,0,0,1-1.046-.881c.093-1-.417-1.374-1.218-1.791a4.21,4.21,0,0,1-2.179-3.389c-.114-.856.265-1.456.948-1.523.659-.064,1.093.4,1.178,1.262a2.42,2.42,0,1,0,3.238-2.467,4.083,4.083,0,0,0-1.058-.175,4.541,4.541,0,0,1-1.484-8.745c.4-.162.59-.346.524-.775a1.925,1.925,0,0,1,0-.444,1.067,1.067,0,0,1,1.034-1.075,1,1,0,0,1,1.054,1.1c-.059.723.23.977.876,1.24a4.363,4.363,0,0,1,2.773,3.859,1.126,1.126,0,0,1-.994,1.368c-.617.043-1.068-.423-1.137-1.176a2.419,2.419,0,1,0-2.607,2.533,8.1,8.1,0,0,1,2.476.659,4.252,4.252,0,0,1,2.276,3.738" transform="translate(-159.564 -126.406)" fill="#0c2339"/></g></g><text transform="translate(460 471)" fill="#fff" font-size="16" font-family="Roboto-Bold, Roboto" font-weight="700" letter-spacing="-0.013em"><tspan x="0" y="0">BFSI</tspan></text></g></svg>