<svg xmlns="http://www.w3.org/2000/svg" width="105" height="136" viewBox="0 0 105 136"><g transform="translate(-628 -339)"><text transform="translate(638 471)" fill="#fff" font-size="16" font-family="Roboto-Bold, Roboto" font-weight="700" letter-spacing="-0.013em"><tspan x="0" y="0">Retail &amp; CPG</tspan></text><g transform="translate(628 339)" fill="#0c2339" stroke="#fff" stroke-width="1"><circle cx="52.5" cy="52.5" r="52.5" stroke="none"/><circle cx="52.5" cy="52.5" r="52" fill="none"/></g><path d="M-16116.362-2044l-8.728,17.563s.219,5.673,5.019,6.764,8.511-3.709,8.946-5.237.873,4.364,6.109,5.237,7.418-4.364,7.637-5.237,1.964,5.237,8.292,5.237,6.328-6.764,6.328-6.764a7.435,7.435,0,0,0,6.546,6.764c6.327,1.091,7.2-6.764,7.2-6.764l-8.51-17.563Z" transform="translate(16778 2409)" fill="#4dc0ed"/><path d="M57.934,16.881v1.465a1.968,1.968,0,0,0-.107.309,7.654,7.654,0,0,1-2.751,4.773,1.082,1.082,0,0,0-.425.953q.014,13.125.007,26.251c0,1.142-.238,1.378-1.4,1.378H4.671c-1.158,0-1.4-.235-1.4-1.379q0-13.1.01-26.194a1.185,1.185,0,0,0-.471-1.044,7.617,7.617,0,0,1-2.586-4.13c-.077-.305-.152-.611-.228-.916V16.881c.112-.191.235-.377.333-.574Q4.188,8.576,8.028.837A1.345,1.345,0,0,1,9.4,0Q28.967.015,48.534,0a1.345,1.345,0,0,1,1.372.838q3.145,6.387,6.34,12.749c.551,1.1,1.125,2.2,1.688,3.294M11.764,50.172v-.71q0-7.24,0-14.479c0-1.18.221-1.4,1.431-1.4H24.567c1.17,0,1.4.222,1.4,1.378q0,7.24,0,14.48v.733H52.816V24.818c-4.189,1.194-7.461-.049-9.837-3.689A8,8,0,0,1,28.962,21.1a8.021,8.021,0,0,1-14.035.059c-2.363,3.613-5.622,4.841-9.814,3.648v25.36Zm16.265-33.9V1.842H18.2L16,16.269Zm13.912,0L39.727,1.839H29.906V16.27ZM24.115,50.175c.015-.19.038-.353.038-.516,0-4.577-.006-9.155.012-13.732,0-.477-.182-.548-.6-.546-3.146.014-6.292.007-9.438.009-.165,0-.33.017-.522.027V50.175ZM14.163,16.267,16.376,1.809c-2.118,0-4.132.016-6.145-.012a.881.881,0,0,0-.945.57c-2.189,4.442-4.4,8.871-6.61,13.3-.089.179-.168.364-.274.6Zm41.354.007a2.582,2.582,0,0,0-.093-.282Q51.974,9.065,48.507,2.148a.811.811,0,0,0-.611-.324c-1.545-.027-3.091-.015-4.637-.015h-1.7l2.216,14.465ZM1.91,18.13c.107,2.859,3.016,5.4,6.072,5.343,3.077-.059,5.9-2.584,5.941-5.343Zm14.054,0c-.065,2.714,2.954,5.382,6.023,5.349s6.093-2.734,5.941-5.349Zm26.007.015H29.965a6.054,6.054,0,0,0,6.152,5.328c3.084-.118,5.919-2.694,5.853-5.328m2.023-.017a6.055,6.055,0,0,0,6.216,5.34c3.073-.155,5.882-2.735,5.788-5.34Z" transform="translate(652 365.001)" fill="#fff"/><path d="M246.039,194.3c0,1.407,0,2.814,0,4.22,0,.871-.314,1.176-1.2,1.177q-4.068,0-8.137,0c-.85,0-1.171-.311-1.172-1.144q-.005-4.277,0-8.553c0-.8.325-1.117,1.139-1.118q4.1,0,8.193,0c.872,0,1.173.309,1.175,1.2,0,1.407,0,2.814,0,4.22m-1.836-3.585h-6.825v7.148H244.2Z" transform="translate(449.404 211.668)" fill="#fff"/></g></svg>