<svg xmlns="http://www.w3.org/2000/svg" xmlns:xlink="http://www.w3.org/1999/xlink" width="120" height="133" viewBox="0 0 120 133"><defs><clipPath id="a"><rect width="63.477" height="63.498" fill="#fff"/></clipPath><clipPath id="b"><rect width="63.477" height="63.477" fill="#fff"/></clipPath></defs><g transform="translate(-423 -534)"><text transform="translate(423 663)" fill="#fff" font-size="16" font-family="Roboto-Bold, Roboto" font-weight="700" letter-spacing="-0.013em"><tspan x="0" y="0">Energy &amp; Utilities</tspan></text><g transform="translate(427 534)" fill="#0c2339" stroke="#fff" stroke-width="1"><circle cx="52.5" cy="52.5" r="52.5" stroke="none"/><circle cx="52.5" cy="52.5" r="52" fill="none"/></g><path d="M-16314.034-1799.717c1.433-.179,39.4,0,39.4,0a2.1,2.1,0,0,0,1.97-2.686c-.537-2.507-5.372-17.908-5.372-17.908h-30.98l-5.014,17.012Z" transform="translate(16778 2409)" fill="#4dc0ed"/><circle cx="6.5" cy="6.5" r="6.5" transform="translate(485 562)" fill="#4dc0ed"/><g transform="translate(443.85 553.115)"><g clip-path="url(#a)"><path d="M589.362,49.171a1.24,1.24,0,0,1-.877-2.116l2.172-2.172a1.24,1.24,0,0,1,1.753,1.753l-2.172,2.172a1.236,1.236,0,0,1-.877.363" transform="translate(-533.436 -40.38)" fill="#fff"/><path d="M399.932,49.172a1.236,1.236,0,0,1-.877-.363l-2.172-2.172a1.24,1.24,0,1,1,1.753-1.753l2.172,2.172a1.24,1.24,0,0,1-.877,2.116" transform="translate(-359.651 -40.38)" fill="#fff"/></g><g transform="translate(0 0.021)"><g clip-path="url(#b)"><path d="M445.71,101.052a7.343,7.343,0,1,1,7.343-7.343,7.351,7.351,0,0,1-7.343,7.343m0-12.206a4.863,4.863,0,1,0,4.863,4.863,4.869,4.869,0,0,0-4.863-4.863" transform="translate(-397.606 -78.357)" fill="#fff"/><path d="M591.534,240.773a1.236,1.236,0,0,1-.877-.363l-2.172-2.172a1.24,1.24,0,1,1,1.753-1.753l2.172,2.172a1.24,1.24,0,0,1-.877,2.116" transform="translate(-533.437 -214.187)" fill="#fff"/><path d="M397.761,240.772a1.24,1.24,0,0,1-.877-2.116l2.172-2.172a1.24,1.24,0,1,1,1.753,1.753l-2.172,2.172a1.236,1.236,0,0,1-.877.363" transform="translate(-359.651 -214.186)" fill="#fff"/><path d="M627.278,154.48h-3.072a1.24,1.24,0,0,1,0-2.48h3.072a1.24,1.24,0,0,1,0,2.48" transform="translate(-565.041 -137.887)" fill="#fff"/><path d="M505.24,5.551A1.24,1.24,0,0,1,504,4.311V1.24a1.24,1.24,0,1,1,2.479,0V4.311a1.24,1.24,0,0,1-1.24,1.24" transform="translate(-457.136 -0.021)" fill="#fff"/><path d="M505.24,276.517a1.24,1.24,0,0,1-1.24-1.24v-3.072a1.24,1.24,0,1,1,2.479,0v3.072a1.24,1.24,0,0,1-1.24,1.24" transform="translate(-457.136 -245.792)" fill="#fff"/><path d="M356.311,154.48H353.24a1.24,1.24,0,0,1,0-2.48h3.072a1.24,1.24,0,0,1,0,2.48" transform="translate(-319.27 -137.887)" fill="#fff"/><path d="M145.892,262.6a1.24,1.24,0,0,1-1.24-1.24V247.907a1.24,1.24,0,0,1,2.48,0v13.452a1.24,1.24,0,0,1-1.24,1.24" transform="translate(-131.202 -223.752)" fill="#fff"/><path d="M150.851,287.208h-4.959a1.24,1.24,0,0,1-1.24-1.24V272.516a1.24,1.24,0,0,1,2.48,0v12.212h2.48V247.907a1.24,1.24,0,0,1,2.48,0v38.061a1.24,1.24,0,0,1-1.24,1.24" transform="translate(-131.202 -223.752)" fill="#fff"/><path d="M143.035,173.728a4.266,4.266,0,1,1,4.266-4.266,4.271,4.271,0,0,1-4.266,4.266m0-6.053a1.787,1.787,0,1,0,1.787,1.787,1.789,1.789,0,0,0-1.787-1.787" transform="translate(-125.866 -149.856)" fill="#fff"/><path d="M149.766,19.26a1.24,1.24,0,0,1-1.24-1.24V7.482a7.519,7.519,0,0,0-1.353-4.323A7.628,7.628,0,0,0,145.8,7.507V18.021a1.24,1.24,0,0,1-2.48,0V7.507A10.117,10.117,0,0,1,146.3.359a1.24,1.24,0,0,1,1.748,0,9.991,9.991,0,0,1,2.954,7.119V18.021a1.24,1.24,0,0,1-1.24,1.24" transform="translate(-129.993 -0.022)" fill="#fff"/><path d="M3.552,195.558A9.994,9.994,0,0,1,.912,195.2a1.24,1.24,0,0,1-.867-1.529,9.983,9.983,0,0,1,4.684-6.105l9.127-5.269a1.24,1.24,0,1,1,1.24,2.147l-9.127,5.269A7.518,7.518,0,0,0,2.9,193.051a7.621,7.621,0,0,0,4.453-.983l9.105-5.257a1.24,1.24,0,0,1,1.24,2.147l-9.105,5.257a10.108,10.108,0,0,1-5.043,1.343" transform="translate(0 -165.221)" fill="#fff"/><path d="M187.424,195.558a10.107,10.107,0,0,1-5.043-1.343l-9.105-5.257a1.24,1.24,0,0,1,1.24-2.147l9.105,5.257a7.628,7.628,0,0,0,4.453.983,7.518,7.518,0,0,0-3.068-3.333l-9.126-5.269a1.24,1.24,0,1,1,1.24-2.147l9.126,5.269a9.985,9.985,0,0,1,4.685,6.108,1.246,1.246,0,0,1-.867,1.526,10,10,0,0,1-2.639.353" transform="translate(-156.602 -165.221)" fill="#fff"/><path d="M62.237,658.48h-61a1.24,1.24,0,1,1,0-2.479h61a1.24,1.24,0,0,1,0,2.479" transform="translate(0 -595.025)" fill="#fff"/><path d="M392.535,600.431h-6.943a1.24,1.24,0,0,1-1.24-1.24v-5.951a1.24,1.24,0,0,1,1.24-1.24h6.943a1.24,1.24,0,0,1,1.24,1.24v5.951a1.24,1.24,0,0,1-1.24,1.24m-5.7-2.48H391.3V594.48h-4.463Z" transform="translate(-348.615 -536.976)" fill="#fff"/><path d="M422.977,391.309a1.24,1.24,0,0,1-1.24-1.24V369.241a1.24,1.24,0,0,1,2.48,0v20.828a1.24,1.24,0,0,1-1.24,1.24" transform="translate(-382.522 -333.804)" fill="#fff"/><path d="M510.3,391.307a1.24,1.24,0,0,1-1.227-1.073l-2.826-20.828a1.24,1.24,0,1,1,2.457-.333L511.53,389.9a1.241,1.241,0,0,1-1.23,1.407" transform="translate(-459.164 -333.802)" fill="#fff"/><path d="M308.079,391.305a1.241,1.241,0,0,1-1.23-1.407l2.826-20.828a1.24,1.24,0,1,1,2.457.333l-2.826,20.828a1.24,1.24,0,0,1-1.227,1.073" transform="translate(-278.307 -333.8)" fill="#fff"/><path d="M272.542,445.148H238.175a1.24,1.24,0,1,1,0-2.48h34.367a1.24,1.24,0,0,1,0,2.48" transform="translate(-214.904 -401.528)" fill="#fff"/><path d="M254.878,519.813h-38.4a1.24,1.24,0,1,1,0-2.48h38.4a1.24,1.24,0,1,1,0,2.48" transform="translate(-195.223 -469.251)" fill="#fff"/><path d="M239.113,391.309H200.954a2.975,2.975,0,0,1-2.872-3.755l4.711-17.357a2.981,2.981,0,0,1,2.872-2.2H234.4a2.981,2.981,0,0,1,2.872,2.2l4.711,17.357a2.975,2.975,0,0,1-2.872,3.755M205.665,370.48a.5.5,0,0,0-.479.366L200.476,388.2a.5.5,0,0,0,.479.626h38.159a.5.5,0,0,0,.479-.626l-4.711-17.357a.5.5,0,0,0-.479-.366Z" transform="translate(-179.568 -333.804)" fill="#fff"/><path d="M145.889,453.815c-.04,0-.081,0-.122-.006a1.066,1.066,0,0,1-.12-.019,1.182,1.182,0,0,1-.232-.071,1.253,1.253,0,0,1-.215-.113,1.2,1.2,0,0,1-.1-.073.965.965,0,0,1-.09-.082,1.209,1.209,0,0,1-.154-.189,1.281,1.281,0,0,1-.114-.214,1.261,1.261,0,0,1-.071-.232c-.007-.04-.014-.08-.018-.121a1.057,1.057,0,0,1-.007-.122,1.076,1.076,0,0,1,.007-.122c0-.04.01-.081.018-.12a1.287,1.287,0,0,1,.071-.232,1.31,1.31,0,0,1,.114-.214,1.047,1.047,0,0,1,.073-.1.931.931,0,0,1,.082-.09,1.115,1.115,0,0,1,.09-.083c.032-.025.064-.049.1-.072a1.261,1.261,0,0,1,.446-.185c.04-.008.08-.014.12-.019a1.347,1.347,0,0,1,.245,0c.04,0,.08.01.12.019a1.261,1.261,0,0,1,.446.185c.033.022.066.046.1.072a1.111,1.111,0,0,1,.09.083.933.933,0,0,1,.082.09,1.041,1.041,0,0,1,.073.1,1.309,1.309,0,0,1,.114.214,1.287,1.287,0,0,1,.071.232c.007.039.014.08.018.12a1.076,1.076,0,0,1,.007.122,1.057,1.057,0,0,1-.007.122c0,.041-.01.081-.018.121a1.261,1.261,0,0,1-.071.232,1.28,1.28,0,0,1-.114.214,1.21,1.21,0,0,1-.154.189.961.961,0,0,1-.09.082,1.194,1.194,0,0,1-.1.073,1.253,1.253,0,0,1-.215.113,1.182,1.182,0,0,1-.232.071,1.064,1.064,0,0,1-.12.019c-.041,0-.082.006-.123.006" transform="translate(-131.2 -409.389)" fill="#fff"/></g></g></g></g></svg>