<svg xmlns="http://www.w3.org/2000/svg" xmlns:xlink="http://www.w3.org/1999/xlink" width="109" height="136" viewBox="0 0 109 136"><defs><clipPath id="a"><rect width="56" height="56" fill="#fff"/></clipPath></defs><g transform="translate(-829 -339)"><text transform="translate(834 471)" fill="#fff" font-size="16" font-family="Roboto-Bold, Roboto" font-weight="700" letter-spacing="-0.013em"><tspan x="0" y="0">Manufacturing</tspan></text><g transform="translate(829 339)" fill="#0c2339" stroke="#fff" stroke-width="1"><circle cx="52.5" cy="52.5" r="52.5" stroke="none"/><circle cx="52.5" cy="52.5" r="52" fill="none"/></g><path d="M-15871.54-2023.6c-1.31.655-41.677,5.237-41.677,5.237v25.311h20.947v-9.164h5.674v9.164h3.491v-9.164s5.674-1.309,5.455,0,0,9.164,0,9.164h6.546v-25.311Z" transform="translate(16778 2409)" fill="#4dc0ed"/><g transform="translate(854 363.819)"><g transform="translate(0 0.181)" clip-path="url(#a)"><path d="M103.47,24a3.675,3.675,0,0,0-3.67,3.671.829.829,0,0,0,1.658,0,2.015,2.015,0,0,1,2.013-2.013h5.394a.829.829,0,1,0,0-1.658Z" transform="translate(-87.983 -21.284)" fill="#fff"/><path d="M201.189,24h-1.468a.829.829,0,0,0,0,1.658h1.468a.829.829,0,0,0,0-1.658" transform="translate(-175.342 -21.284)" fill="#fff"/><path d="M173.685,1.658h4.551a.829.829,0,0,0,0-1.658h-4.551a.829.829,0,0,0,0,1.658" transform="translate(-152.388 -0.126)" fill="#fff"/><path d="M76.628,7.341a.828.828,0,0,0,.83-.827v0a4.86,4.86,0,0,1,4.854-4.855H84.5A.829.829,0,0,0,84.5,0H82.312A6.519,6.519,0,0,0,75.8,6.512a.828.828,0,0,0,.828.829" transform="translate(-66.825 -0.126)" fill="#fff"/><path d="M285.563,24a3.675,3.675,0,0,0-3.671,3.671.829.829,0,1,0,1.658,0,2.015,2.015,0,0,1,2.013-2.013h2.5a.829.829,0,0,0,0-1.658Z" transform="translate(-248.514 -21.284)" fill="#fff"/><path d="M356.5,24.829a.828.828,0,0,0,.828.829H361.7a.829.829,0,1,0,0-1.658h-4.368a.828.828,0,0,0-.829.828Z" transform="translate(-314.287 -21.284)" fill="#fff"/><path d="M384.577,1.658h1.142a.829.829,0,0,0,0-1.658h-1.142a.829.829,0,0,0,0,1.658" transform="translate(-338.309 -0.126)" fill="#fff"/><path d="M258.721,7.341a.829.829,0,0,0,.829-.829A4.86,4.86,0,0,1,264.4,1.658h4.66a.829.829,0,0,0,0-1.658H264.4a6.52,6.52,0,0,0-6.512,6.512.828.828,0,0,0,.828.829Z" transform="translate(-227.355 -0.126)" fill="#fff"/><path d="M55.3,114.014H53.284V84.6l2.112-.254a.829.829,0,0,0-.2-1.645L38.316,84.731l-.455-9.537a.827.827,0,0,0,.49-.755V71.6a.829.829,0,0,0-.829-.829H28.05a.829.829,0,0,0-.829.829v2.842a.827.827,0,0,0,.492.758L27.2,86.069,16.875,87.308,16.3,75.193a.827.827,0,0,0,.489-.754V71.6a.829.829,0,0,0-.829-.829H6.489a.829.829,0,0,0-.829.829v2.842a.828.828,0,0,0,.494.758L4.642,106.91h-.63a.829.829,0,0,0-.828.789l-.3,6.315H.829a.828.828,0,0,0-.829.828H0v2.842a.828.828,0,0,0,.828.829H55.3a.828.828,0,0,0,.829-.828h0v-2.842a.828.828,0,0,0-.828-.829Zm-8.321,0v-8.644a.829.829,0,0,0-.829-.829H40.463a.828.828,0,0,0-.829.828h0v8.644H38.355v-8.644a.829.829,0,0,0-.829-.829H31.843a.828.828,0,0,0-.829.828h0v8.644H12.054V89.557L51.626,84.8v29.213Zm-1.658,0H41.292V106.2h4.026Zm-8.62,0H32.672V106.2H36.7ZM28.883,72.426H36.7V73.61H28.883Zm.491,2.842h6.832l.46,9.662-7.8.937ZM7.32,72.426h7.812V73.61H7.318Zm.493,2.842h6.832l.579,12.239-6.941.835a.829.829,0,0,0,.1,1.652.882.882,0,0,0,.1-.006l1.915-.231V106.91H6.3ZM4.8,108.568H10.4v5.447H4.54Zm49.666,8.289H1.658v-1.184h52.81Z" transform="translate(0 -62.514)" fill="#fff"/><path d="M146.094,332.668h-9.473a.829.829,0,0,0,0,1.658h9.473a.829.829,0,0,0,0-1.658" transform="translate(-119.713 -293.403)" fill="#0c2339"/><path d="M146.094,284.668h-9.473a.829.829,0,1,0,0,1.658h9.473a.829.829,0,1,0,0-1.658" transform="translate(-119.713 -251.086)" fill="#0c2339"/><path d="M146.094,308.668h-9.473a.829.829,0,1,0,0,1.658h9.473a.829.829,0,1,0,0-1.658" transform="translate(-119.713 -272.245)" fill="#0c2339"/></g></g></g></svg>