<svg xmlns="http://www.w3.org/2000/svg" width="105" height="132" viewBox="0 0 105 132"><g transform="translate(-633 -534)"><text transform="translate(652 662)" fill="#fff" font-size="16" font-family="Roboto-Bold, Roboto" font-weight="700" letter-spacing="-0.013em"><tspan x="0" y="0">Oil &amp; Gas</tspan></text><g transform="translate(633 534)" fill="#0c2339"><path d="M 52.5 104.5 C 45.47982788085938 104.5 38.66990661621094 103.1251983642578 32.25941467285156 100.4137878417969 C 26.06734657287598 97.79476165771484 20.50620079040527 94.04530334472656 15.73045349121094 89.26954650878906 C 10.95469379425049 84.49379730224609 7.205239772796631 78.93265533447266 4.586213111877441 72.74058532714844 C 1.874799966812134 66.33009338378906 0.5 59.52017211914062 0.5 52.5 C 0.5 45.47982788085938 1.874799966812134 38.66990661621094 4.586213111877441 32.25941467285156 C 7.205239772796631 26.06734657287598 10.95469379425049 20.50620079040527 15.73045349121094 15.73045349121094 C 20.50620079040527 10.95469379425049 26.06734657287598 7.205239772796631 32.25941467285156 4.586213111877441 C 38.66990661621094 1.874799966812134 45.47982788085938 0.5 52.5 0.5 C 59.52017211914062 0.5 66.33009338378906 1.874799966812134 72.74058532714844 4.586213111877441 C 78.93265533447266 7.205239772796631 84.49379730224609 10.95469379425049 89.26954650878906 15.73045349121094 C 94.04530334472656 20.50620079040527 97.79476165771484 26.06734657287598 100.4137878417969 32.25941467285156 C 103.1251983642578 38.66990661621094 104.5 45.47982788085938 104.5 52.5 C 104.5 56.60499954223633 104.0199890136719 60.68882751464844 103.0732955932617 64.63801574707031 C 102.1515502929688 68.48316955566406 100.7813491821289 72.22810363769531 99.00074768066406 75.76881408691406 C 97.24921417236328 79.25176239013672 95.09310913085938 82.55266571044922 92.59236145019531 85.57984161376953 C 90.10341644287109 88.59273529052734 87.26573181152344 91.343505859375 84.15813446044922 93.75576019287109 C 79.78820037841797 97.14857482910156 74.89247894287109 99.79829406738281 69.60693359375 101.6313629150391 C 64.11830902099609 103.5348510742188 58.36270523071289 104.5 52.5 104.5 Z" stroke="none"/><path d="M 52.5 1 C 45.54710006713867 1 38.80271148681641 2.36151123046875 32.45418548583984 5.046714782714844 C 26.32171630859375 7.640525817871094 20.81398773193359 11.35399627685547 16.08399963378906 16.08399963378906 C 11.35399627685547 20.81398773193359 7.640525817871094 26.32171630859375 5.046714782714844 32.45418548583984 C 2.36151123046875 38.80271148681641 1 45.54710006713867 1 52.5 C 1 59.45289993286133 2.36151123046875 66.19728088378906 5.046714782714844 72.54581451416016 C 7.640525817871094 78.67828369140625 11.35399627685547 84.18600463867188 16.08399963378906 88.91600036621094 C 20.81398773193359 93.64598846435547 26.32171630859375 97.35947418212891 32.45418548583984 99.95328521728516 C 38.80271148681641 102.6384887695312 45.54710006713867 104 52.5 104 C 58.30680084228516 104 64.00727081298828 103.0441284179688 69.44309997558594 101.1589584350586 C 74.67704010009766 99.34378814697266 79.52471160888672 96.72013092041016 83.85154724121094 93.36078643798828 C 86.93016052246094 90.97103118896484 89.74128723144531 88.24600219726562 92.20687103271484 85.26139831542969 C 94.68381500244141 82.26304626464844 96.81931304931641 78.99369812011719 98.55405426025391 75.54417419433594 C 100.3173675537109 72.03779602050781 101.6742706298828 68.3292236328125 102.5870742797852 64.52145385742188 C 103.5246124267578 60.61038589477539 104 56.5657844543457 104 52.5 C 104 45.54710006713867 102.6384887695312 38.80271148681641 99.95328521728516 32.45418548583984 C 97.35947418212891 26.32171630859375 93.64598846435547 20.81398773193359 88.91600036621094 16.08399963378906 C 84.18600463867188 11.35399627685547 78.67828369140625 7.640525817871094 72.54581451416016 5.046714782714844 C 66.19728088378906 2.36151123046875 59.45289993286133 1 52.5 1 M 52.5 0 C 81.49494171142578 0 105 23.50504302978516 105 52.5 C 105 69.37506103515625 97.03826904296875 84.39055633544922 84.46472930908203 94.15072631835938 C 75.78055572509766 100.8930969238281 64.61988830566406 105 52.5 105 C 23.50504302978516 105 0 81.49494171142578 0 52.5 C 0 23.50504302978516 23.50504302978516 0 52.5 0 Z" stroke="none" fill="#fff"/></g><path d="M-16103.982-1834.316l12.9.441s.661-5.072-3.308-6.064-6.174.11-7.5,1.323S-16103.982-1834.316-16103.982-1834.316Z" transform="translate(16778 2409)" fill="#4dc0ed"/><path d="M-16121.366-1803.7v-8.472h11.582s.965,8.365,0,8.472a33.891,33.891,0,0,0-5.576,1.287,6.809,6.809,0,0,1-4.611,0C-16121.259-1802.952-16121.366-1803.7-16121.366-1803.7Z" transform="translate(16778 2409)" fill="#4dc0ed"/><path d="M-16122.837-1821.636h38.369l.882,1.985s.662,2.315-.882,2.536-27.123.441-28,.441h-10.364l-.551-2.977Z" transform="translate(16778 2409)" fill="#4dc0ed"/><path d="M-16121.366-1803.7v-8.472h11.582s.965,8.365,0,8.472a33.891,33.891,0,0,0-5.576,1.287,6.809,6.809,0,0,1-4.611,0C-16121.259-1802.952-16121.366-1803.7-16121.366-1803.7Z" transform="translate(16802 2409)" fill="#4dc0ed"/><g transform="translate(649.739 550.944)"><g transform="translate(4.26 5.657)"><g transform="translate(2.205 47.951)"><path d="M73.982,314.089a11.008,11.008,0,0,1-3.426-.742,9.722,9.722,0,0,0-2.932-.662,9.72,9.72,0,0,0-2.932.662,11.016,11.016,0,0,1-3.425.741,11.008,11.008,0,0,1-3.426-.742,9.722,9.722,0,0,0-2.932-.662,9.719,9.719,0,0,0-2.932.662,11.015,11.015,0,0,1-3.426.741,11.009,11.009,0,0,1-3.426-.742,9.722,9.722,0,0,0-2.932-.662,9.719,9.719,0,0,0-2.932.662,11.015,11.015,0,0,1-3.426.741,11.011,11.011,0,0,1-3.426-.741,9.719,9.719,0,0,0-2.932-.662,9.724,9.724,0,0,0-2.932.662,11.013,11.013,0,0,1-3.426.742,11.007,11.007,0,0,1-3.426-.741c-.278-.092-.556-.184-.835-.27a.785.785,0,1,1,.461-1.5c.289.089.578.184.867.28a9.727,9.727,0,0,0,2.932.662,9.72,9.72,0,0,0,2.932-.662,11.017,11.017,0,0,1,3.426-.741,11.011,11.011,0,0,1,3.426.741,9.72,9.72,0,0,0,2.932.662,9.72,9.72,0,0,0,2.932-.662,11.016,11.016,0,0,1,3.426-.741,11.011,11.011,0,0,1,3.426.741,9.72,9.72,0,0,0,2.932.662,9.718,9.718,0,0,0,2.932-.662,11.017,11.017,0,0,1,3.426-.741,11.011,11.011,0,0,1,3.425.741,9.72,9.72,0,0,0,2.932.662,9.727,9.727,0,0,0,2.932-.662,11.011,11.011,0,0,1,3.426-.742,11.01,11.01,0,0,1,3.425.741,9.72,9.72,0,0,0,2.932.662,9.721,9.721,0,0,0,2.932-.662,11.017,11.017,0,0,1,3.426-.741,11.009,11.009,0,0,1,3.426.742c.4.131.771.255,1.149.363a.785.785,0,1,1-.431,1.509c-.409-.117-.817-.252-1.212-.382a9.727,9.727,0,0,0-2.933-.662,9.72,9.72,0,0,0-2.932.662,11.005,11.005,0,0,1-3.425.742Z" transform="translate(-18.304 -311.116)" fill="#fff"/></g><g transform="translate(2.205 57.037)"><path d="M73.983,371.972a11.006,11.006,0,0,1-3.426-.742,9.719,9.719,0,0,0-2.932-.662,9.72,9.72,0,0,0-2.932.662,11.012,11.012,0,0,1-3.426.742,11.007,11.007,0,0,1-3.426-.742,9.719,9.719,0,0,0-2.932-.662,9.72,9.72,0,0,0-2.932.662,11.011,11.011,0,0,1-3.426.742,11.007,11.007,0,0,1-3.426-.742,9.72,9.72,0,0,0-2.932-.662,9.721,9.721,0,0,0-2.932.662,11.011,11.011,0,0,1-3.426.742,11.005,11.005,0,0,1-3.426-.742,9.722,9.722,0,0,0-2.932-.662,9.718,9.718,0,0,0-2.932.662,11.013,11.013,0,0,1-3.426.742,11,11,0,0,1-3.425-.741c-.278-.092-.557-.184-.835-.27a.785.785,0,1,1,.461-1.5c.289.089.578.185.867.28a9.72,9.72,0,0,0,2.932.662,9.718,9.718,0,0,0,2.932-.662A11.011,11.011,0,0,1,29.478,369a11,11,0,0,1,3.426.742,9.718,9.718,0,0,0,2.932.662,9.719,9.719,0,0,0,2.932-.662A11.011,11.011,0,0,1,42.194,369a11,11,0,0,1,3.426.742,9.718,9.718,0,0,0,2.932.662,9.718,9.718,0,0,0,2.932-.662A11.012,11.012,0,0,1,54.909,369a11,11,0,0,1,3.425.742,9.719,9.719,0,0,0,2.932.662,9.72,9.72,0,0,0,2.932-.662A11.012,11.012,0,0,1,67.625,369a11,11,0,0,1,3.425.742,9.719,9.719,0,0,0,2.932.662,9.719,9.719,0,0,0,2.932-.662A11.013,11.013,0,0,1,80.341,369a11,11,0,0,1,3.425.741c.4.131.772.256,1.15.363a.785.785,0,0,1-.431,1.51c-.409-.117-.818-.252-1.213-.383a9.721,9.721,0,0,0-2.932-.662,9.721,9.721,0,0,0-2.932.662,11,11,0,0,1-3.425.741Z" transform="translate(-18.305 -368.999)" fill="#fff"/></g><g transform="translate(4.384 34.902)"><path d="M39.9,234.079H32.972a.785.785,0,0,1-.785-.785v-4.519a.785.785,0,0,1,.785-.785H39.9a.785.785,0,0,1,.785.785v4.519A.785.785,0,0,1,39.9,234.079Zm-6.144-1.57h5.359v-2.95H33.757Z" transform="translate(-32.187 -227.99)" fill="#fff"/></g><g transform="translate(2.205 39.421)"><path d="M23.122,268.283a11.008,11.008,0,0,1-3.426-.741c-.278-.092-.556-.184-.835-.27a.785.785,0,0,1-.554-.75v-8.957a.785.785,0,0,1,.785-.785H30.378a.785.785,0,0,1,.785.785v8.606a.785.785,0,0,1-.909.775,4.85,4.85,0,0,0-.774-.066,9.725,9.725,0,0,0-2.932.662A11.012,11.012,0,0,1,23.122,268.283Zm-3.245-2.335.313.1a9.728,9.728,0,0,0,2.932.662,9.719,9.719,0,0,0,2.932-.662,10.639,10.639,0,0,1,3.539-.74V258.35H19.877Z" transform="translate(-18.307 -256.78)" fill="#fff"/></g><g transform="translate(26.203 39.421)"><path d="M177.428,268.283a11.006,11.006,0,0,1-3.425-.741,14.2,14.2,0,0,0-2.162-.6.785.785,0,0,1-.661-.775v-8.605a.785.785,0,0,1,.785-.785h11.286a.785.785,0,0,1,.785.785v8.558a.785.785,0,0,1-.705.781,12.049,12.049,0,0,0-2.477.638A11.016,11.016,0,0,1,177.428,268.283Zm-4.679-2.755c.594.142,1.177.335,1.747.523a6.826,6.826,0,0,0,5.864,0,17.767,17.767,0,0,1,2.105-.6v-7.1h-9.716v7.178Zm10.5.595h0Z" transform="translate(-171.18 -256.78)" fill="#fff"/></g><g transform="translate(28.382 34.902)"><path d="M192.772,234.079h-6.929a.785.785,0,0,1-.785-.785v-4.519a.785.785,0,0,1,.785-.785h6.929a.785.785,0,0,1,.785.785v4.519A.785.785,0,0,1,192.772,234.079Zm-6.144-1.57h5.359v-2.95h-5.359Z" transform="translate(-185.058 -227.99)" fill="#fff"/></g><g transform="translate(0 29.963)"><path d="M43.815,203.037H5.969a1.711,1.711,0,0,1-1.709-1.709v-3.091a1.711,1.711,0,0,1,1.709-1.709H43.815a1.711,1.711,0,0,1,1.709,1.709v3.091A1.711,1.711,0,0,1,43.815,203.037ZM5.969,198.1a.141.141,0,0,0-.139.139v3.091a.141.141,0,0,0,.139.139H43.815a.141.141,0,0,0,.139-.139v-3.091a.141.141,0,0,0-.139-.139Z" transform="translate(-4.26 -196.528)" fill="#fff"/></g><g transform="translate(2.092 21.954)"><path d="M53.88,155.088H18.369a.785.785,0,0,1-.785-.785v-3.836a.785.785,0,0,1,.785-.785H29.2v-2.454a1.71,1.71,0,0,1,1.848-1.72H53.88a.785.785,0,0,1,.785.785V154.3A.784.784,0,0,1,53.88,155.088Zm-34.726-1.57H53.095v-6.439H31.049c-.278,0-.278.09-.278.15v3.239a.785.785,0,0,1-.785.785H19.154Z" transform="translate(-17.584 -145.509)" fill="#fff"/></g><g transform="translate(2.092 15.571)"><path d="M18.369,116.972a.786.786,0,0,1-.772-.931l1.992-10.557a.785.785,0,1,1,1.542.291L19.14,116.333A.785.785,0,0,1,18.369,116.972Z" transform="translate(-17.583 -104.845)" fill="#fff"/></g><g transform="translate(11.428 15.571)"><path d="M80.026,116.974a.785.785,0,0,1-.768-.626l-2.184-10.557a.785.785,0,0,1,1.537-.318L80.8,116.03a.785.785,0,0,1-.61.928A.8.8,0,0,1,80.026,116.974Z" transform="translate(-77.058 -104.848)" fill="#fff"/></g><g transform="translate(2.197 11.489)"><path d="M29.493,84.5H19.9a1.643,1.643,0,0,1-1.642-1.642V80.488A1.643,1.643,0,0,1,19.9,78.846h9.6a1.643,1.643,0,0,1,1.642,1.642v2.368A1.643,1.643,0,0,1,29.493,84.5Zm-9.6-4.082a.075.075,0,0,0-.072.072v2.368a.075.075,0,0,0,.072.072h9.6a.075.075,0,0,0,.072-.072V80.488a.075.075,0,0,0-.072-.072Z" transform="translate(-18.255 -78.846)" fill="#fff"/></g><g transform="translate(3.347 19.476)"><path d="M36.266,136.19a.783.783,0,0,1-.347-.081l-9.9-4.9a.785.785,0,0,1,.7-1.407l9.9,4.9a.785.785,0,0,1-.349,1.489Z" transform="translate(-25.579 -129.723)" fill="#fff"/></g><g transform="translate(2.443 19.425)"><path d="M20.61,135.808a.785.785,0,0,1-.349-1.489l9.782-4.838a.785.785,0,0,1,.7,1.407l-9.782,4.838A.783.783,0,0,1,20.61,135.808Z" transform="translate(-19.824 -129.4)" fill="#fff"/></g><g transform="translate(19.2 17.461)"><path d="M140.265,122.948H127.355a.785.785,0,0,1-.785-.785V117.67a.785.785,0,0,1,.785-.785h12.911a.785.785,0,0,1,.785.785v4.494A.785.785,0,0,1,140.265,122.948Zm-12.126-1.57h11.341v-2.924H128.14Z" transform="translate(-126.57 -116.885)" fill="#fff"/></g><g transform="translate(19.2 11.237)"><path d="M127.355,85.032a.785.785,0,0,1-.785-.785,7.017,7.017,0,0,1,7.009-7.009h.463a7.017,7.017,0,0,1,7.009,7.009.785.785,0,0,1-.785.785Zm.841-1.57h11.228a5.448,5.448,0,0,0-5.383-4.654h-.463A5.447,5.447,0,0,0,128.2,83.462Z" transform="translate(-126.57 -77.238)" fill="#fff"/></g><g transform="translate(25.887 8.804)"><path d="M169.951,65.741a.785.785,0,0,1-.785-.785V62.523a.785.785,0,0,1,1.57,0v2.433A.785.785,0,0,1,169.951,65.741Z" transform="translate(-169.166 -61.738)" fill="#fff"/></g><g transform="translate(32.111 6.833)"><path d="M215.089,73.885a.785.785,0,0,1-.644-1.233L227.8,53.416l-1.152-2.2L210.115,65.682a.785.785,0,1,1-1.034-1.181L226.367,49.38a.785.785,0,0,1,1.212.226l1.836,3.5a.786.786,0,0,1-.05.812L215.735,73.548A.784.784,0,0,1,215.089,73.885Z" transform="translate(-208.813 -49.186)" fill="#fff"/></g><g transform="translate(44.379 11.222)"><path d="M290.579,83.619a.784.784,0,0,1-.68-.393l-2.832-4.9a.785.785,0,0,1,1.359-.785l2.832,4.9a.785.785,0,0,1-.679,1.178Z" transform="translate(-286.962 -77.144)" fill="#fff"/></g><g transform="translate(39.453 15.531)"><path d="M260.079,112.587a.784.784,0,0,1-.681-.393l-3.709-6.425a.785.785,0,1,1,1.359-.785l3.709,6.425a.785.785,0,0,1-.679,1.178Z" transform="translate(-255.584 -104.592)" fill="#fff"/></g><g transform="translate(46.229 10.335)"><path d="M302.036,101.19a3.286,3.286,0,0,1-1.264-6.32.785.785,0,0,1,.6,1.449,1.717,1.717,0,1,0,2.377,1.584V72.28a.785.785,0,1,1,1.57,0V97.9A3.29,3.29,0,0,1,302.036,101.19Z" transform="translate(-298.75 -71.495)" fill="#fff"/></g><g transform="translate(3.139 2.452)"><g transform="translate(0 0)"><path d="M25.04,31.882a.786.786,0,0,1-.76-.981l2.332-9.038a.785.785,0,1,1,1.52.392L25.8,31.293A.785.785,0,0,1,25.04,31.882Z" transform="translate(-24.254 -21.275)" fill="#fff"/></g><g transform="translate(7.094)"><path d="M72.561,31.882a.785.785,0,0,1-.759-.589l-2.332-9.038a.785.785,0,0,1,1.52-.392L73.321,30.9a.786.786,0,0,1-.76.981Z" transform="translate(-69.444 -21.274)" fill="#fff"/></g></g><g transform="translate(1.847)"><path d="M16.812,13.231a.785.785,0,0,1-.555-1.34l6-6a.785.785,0,0,1,1.11,0l6,6A.785.785,0,0,1,28.266,13l-5.45-5.45L17.367,13A.782.782,0,0,1,16.812,13.231Z" transform="translate(-16.027 -5.657)" fill="#fff"/></g></g><g transform="translate(34.325 30.256)"><g transform="translate(3.73 0)"><path d="M220.326,166.764a.785.785,0,0,1-.785-.785v-2.835a.785.785,0,0,1,1.57,0v2.835A.785.785,0,0,1,220.326,166.764Z" transform="translate(-219.541 -162.359)" fill="#fff"/></g><g transform="translate(0 0)"><path d="M196.566,166.764a.785.785,0,0,1-.785-.785v-2.835a.785.785,0,0,1,1.57,0v2.835A.785.785,0,0,1,196.566,166.764Z" transform="translate(-195.781 -162.359)" fill="#fff"/></g></g></g></g></svg>