<svg xmlns="http://www.w3.org/2000/svg" width="130.5" height="36" viewBox="0 0 130.5 36">
  <g id="Group_1119" data-name="Group 1119" transform="translate(-286.135 -197.252)">
    <g id="Field_1" data-name="Field 1" transform="translate(286.135 197.252)" fill="#fff">
      <path d="M5,0H125.5a5,5,0,0,1,5,5V31a5,5,0,0,1-5,5H5a5,5,0,0,1-5-5V5A5,5,0,0,1,5,0Z" stroke="none"/>
      <path d="M 5 0.5 C 2.518684387207031 0.5 0.5 2.518684387207031 0.5 5 L 0.5 31 C 0.5 33.48131561279297 2.518684387207031 35.5 5 35.5 L 125.5 35.5 C 127.981315612793 35.5 130 33.48131561279297 130 31 L 130 5 C 130 2.518684387207031 127.981315612793 0.5 125.5 0.5 L 5 0.5 M 5 0 L 125.5 0 C 128.2614288330078 0 130.5 2.238567352294922 130.5 5 L 130.5 31 C 130.5 33.76141738891602 128.2614288330078 36 125.5 36 L 5 36 C 2.238571166992188 36 0 33.76141738891602 0 31 L 0 5 C 0 2.238567352294922 2.238571166992188 0 5 0 Z" stroke="none" fill="rgba(165,170,188,0.5)"/>
    </g>
    <path id="Path_1021" data-name="Path 1021" d="M2.121-.92H6.164V0H.99V-8.531H2.121ZM8.455,0H7.371V-6.34H8.455ZM7.283-8.021a.647.647,0,0,1,.161-.445.6.6,0,0,1,.478-.182.614.614,0,0,1,.48.182.64.64,0,0,1,.164.445.619.619,0,0,1-.164.439.626.626,0,0,1-.48.176.616.616,0,0,1-.478-.176A.626.626,0,0,1,7.283-8.021ZM11.215-6.34l.035.8a2.31,2.31,0,0,1,1.9-.914q2.01,0,2.027,2.268V0H14.092V-4.2a1.459,1.459,0,0,0-.313-1.014,1.256,1.256,0,0,0-.958-.328,1.564,1.564,0,0,0-.926.281,1.91,1.91,0,0,0-.621.738V0H10.189V-6.34Zm7.365,3.4-.68.709V0H16.816V-9H17.9v5.443l.58-.7L20.455-6.34h1.318L19.307-3.691,22.061,0H20.789ZM25.406.117a2.77,2.77,0,0,1-2.1-.847A3.142,3.142,0,0,1,22.5-2.994v-.2a3.8,3.8,0,0,1,.36-1.685,2.811,2.811,0,0,1,1.008-1.16,2.534,2.534,0,0,1,1.4-.419,2.374,2.374,0,0,1,1.922.814,3.526,3.526,0,0,1,.686,2.332v.451H23.584a2.254,2.254,0,0,0,.548,1.515,1.722,1.722,0,0,0,1.333.577A1.888,1.888,0,0,0,26.438-1a2.444,2.444,0,0,0,.7-.621l.662.516A2.662,2.662,0,0,1,25.406.117Zm-.135-5.684a1.446,1.446,0,0,0-1.1.478,2.321,2.321,0,0,0-.551,1.339h3.176v-.082a2.065,2.065,0,0,0-.445-1.28A1.361,1.361,0,0,0,25.271-5.566Zm3.6,2.344a3.714,3.714,0,0,1,.691-2.347,2.186,2.186,0,0,1,1.811-.888,2.2,2.2,0,0,1,1.764.762V-9h1.084V0h-1L33.17-.68a2.208,2.208,0,0,1-1.811.8,2.165,2.165,0,0,1-1.8-.9,3.756,3.756,0,0,1-.694-2.355Zm1.084.123A2.812,2.812,0,0,0,30.4-1.412a1.44,1.44,0,0,0,1.23.609,1.581,1.581,0,0,0,1.506-.926V-4.641a1.593,1.593,0,0,0-1.494-.9,1.446,1.446,0,0,0-1.242.615A3.1,3.1,0,0,0,29.953-3.1Zm13.793-.668h-3.58V0H39.041V-8.531h5.285v.92h-4.16v2.924h3.58ZM46.682,0H45.6V-9h1.084Zm1.447-3.229A3.745,3.745,0,0,1,48.5-4.9a2.732,2.732,0,0,1,1.02-1.148,2.775,2.775,0,0,1,1.491-.4,2.674,2.674,0,0,1,2.095.9,3.449,3.449,0,0,1,.8,2.385V-3.1a3.777,3.777,0,0,1-.354,1.661A2.692,2.692,0,0,1,52.532-.293a2.807,2.807,0,0,1-1.515.41,2.667,2.667,0,0,1-2.089-.9,3.432,3.432,0,0,1-.8-2.373Zm1.09.129a2.712,2.712,0,0,0,.489,1.693,1.566,1.566,0,0,0,1.31.639,1.556,1.556,0,0,0,1.313-.647,2.966,2.966,0,0,0,.486-1.813,2.708,2.708,0,0,0-.5-1.69,1.574,1.574,0,0,0-1.315-.647,1.557,1.557,0,0,0-1.295.639A2.944,2.944,0,0,0,49.219-3.1ZM60.873-1.494,62.092-6.34h1.084L61.33,0h-.879L58.91-4.8,57.41,0h-.879l-1.84-6.34H55.77l1.248,4.746L58.494-6.34h.873Zm7.1-.187a.8.8,0,0,0-.331-.683,3.187,3.187,0,0,0-1.154-.419,5.457,5.457,0,0,1-1.307-.422,1.859,1.859,0,0,1-.715-.586A1.4,1.4,0,0,1,64.23-4.6a1.645,1.645,0,0,1,.659-1.318,2.574,2.574,0,0,1,1.685-.539,2.649,2.649,0,0,1,1.749.557,1.768,1.768,0,0,1,.671,1.424H67.9a.979.979,0,0,0-.378-.768,1.416,1.416,0,0,0-.952-.322,1.482,1.482,0,0,0-.926.258.812.812,0,0,0-.334.674.658.658,0,0,0,.311.592,3.821,3.821,0,0,0,1.122.381,5.847,5.847,0,0,1,1.315.434,1.919,1.919,0,0,1,.747.606,1.491,1.491,0,0,1,.243.864A1.623,1.623,0,0,1,68.373-.4a2.851,2.851,0,0,1-1.764.513,3.193,3.193,0,0,1-1.348-.27,2.192,2.192,0,0,1-.917-.753,1.815,1.815,0,0,1-.331-1.046H65.1a1.122,1.122,0,0,0,.437.864,1.693,1.693,0,0,0,1.075.319,1.748,1.748,0,0,0,.987-.249A.765.765,0,0,0,67.969-1.682ZM70.43-.568a.679.679,0,0,1,.167-.469.636.636,0,0,1,.5-.187.655.655,0,0,1,.507.188.665.665,0,0,1,.173.469.629.629,0,0,1-.173.451A.667.667,0,0,1,71.1.064a.648.648,0,0,1-.5-.182A.641.641,0,0,1,70.43-.568Zm.006-5.174a.679.679,0,0,1,.167-.469.636.636,0,0,1,.5-.187.655.655,0,0,1,.507.188.665.665,0,0,1,.173.469.629.629,0,0,1-.173.451.667.667,0,0,1-.507.182.648.648,0,0,1-.5-.182A.641.641,0,0,1,70.436-5.742Z" transform="translate(299.044 219.252)" fill="#0c2339"/>
    <g id="Path_1022" data-name="Path 1022" transform="translate(380.044 204.509)" fill="none">
      <path d="M5,0H20a5,5,0,0,1,5,5V17a5,5,0,0,1-5,5H5a5,5,0,0,1-5-5V5A5,5,0,0,1,5,0Z" stroke="none"/>
      <path d="M 5 1 C 2.794389724731445 1 1 2.794389724731445 1 5 L 1 17 C 1 19.20561027526855 2.794389724731445 21 5 21 L 20 21 C 22.20561027526855 21 24 19.20561027526855 24 17 L 24 5 C 24 2.794389724731445 22.20561027526855 1 20 1 L 5 1 M 5 0 L 20 0 C 22.76141929626465 0 25 2.238580703735352 25 5 L 25 17 C 25 19.76141929626465 22.76141929626465 22 20 22 L 5 22 C 2.238580703735352 22 0 19.76141929626465 0 17 L 0 5 C 0 2.238580703735352 2.238580703735352 0 5 0 Z" stroke="none" fill="#a5aabc"/>
    </g>
    <path id="Path_1023" data-name="Path 1023" d="M5.049-3.032A4.131,4.131,0,0,1,4.507-.674,1.928,1.928,0,0,1,2.813.1,1.942,1.942,0,0,1,1.128-.657,3.921,3.921,0,0,1,.562-2.91V-4.116A4.039,4.039,0,0,1,1.1-6.445a1.942,1.942,0,0,1,1.7-.762,1.96,1.96,0,0,1,1.689.735A3.9,3.9,0,0,1,5.049-4.2Zm-.9-1.235A3.31,3.31,0,0,0,3.823-5.94,1.109,1.109,0,0,0,2.8-6.465a1.1,1.1,0,0,0-1.011.522,3.232,3.232,0,0,0-.327,1.606v1.445a3.363,3.363,0,0,0,.334,1.7A1.107,1.107,0,0,0,2.813-.64a1.092,1.092,0,0,0,.994-.518,3.241,3.241,0,0,0,.339-1.631Z" transform="translate(389.544 218.752)" fill="#0c2339"/>
  </g>
</svg>
