<svg xmlns="http://www.w3.org/2000/svg" width="1319" height="633.258" viewBox="0 0 1319 633.258">
  <g id="Group_1127" data-name="Group 1127" transform="translate(-47.5 -118.485)">
    <line id="Line_7" data-name="Line 7" x2="1319" transform="translate(47.5 706.5)" fill="none" stroke="#dfe2e8" stroke-width="1"/>
    <path id="Path_922" data-name="Path 922" d="M2.933-9.194v1.8H4.238v1.23H2.933v4.129a.909.909,0,0,0,.167.612.777.777,0,0,0,.6.188,2.559,2.559,0,0,0,.581-.068V-.021A4.091,4.091,0,0,1,3.186.137q-1.914,0-1.914-2.112v-4.19H.055V-7.4H1.271v-1.8ZM8.764.137A3.437,3.437,0,0,1,6.2-.858a3.608,3.608,0,0,1-.981-2.649v-.205A4.438,4.438,0,0,1,5.65-5.691a3.252,3.252,0,0,1,1.2-1.357,3.172,3.172,0,0,1,1.723-.485,2.9,2.9,0,0,1,2.334.964,4.076,4.076,0,0,1,.824,2.728v.67H6.9a2.221,2.221,0,0,0,.612,1.449,1.837,1.837,0,0,0,1.35.533,2.249,2.249,0,0,0,1.859-.923l.9.854A2.99,2.99,0,0,1,10.428-.229,3.713,3.713,0,0,1,8.764.137ZM8.565-6.2a1.4,1.4,0,0,0-1.1.479,2.48,2.48,0,0,0-.537,1.333H10.09v-.123a2.019,2.019,0,0,0-.444-1.261A1.388,1.388,0,0,0,8.565-6.2Zm8.6,4.19a.753.753,0,0,0-.366-.677,3.89,3.89,0,0,0-1.213-.41,6.238,6.238,0,0,1-1.415-.451,1.889,1.889,0,0,1-1.244-1.743,1.969,1.969,0,0,1,.807-1.6,3.189,3.189,0,0,1,2.051-.643,3.318,3.318,0,0,1,2.143.656,2.082,2.082,0,0,1,.817,1.7H17.083a1.024,1.024,0,0,0-.355-.8,1.362,1.362,0,0,0-.943-.318,1.472,1.472,0,0,0-.892.253.8.8,0,0,0-.345.677.673.673,0,0,0,.321.595,4.418,4.418,0,0,0,1.3.427,6.148,6.148,0,0,1,1.535.513,2.173,2.173,0,0,1,.827.714A1.822,1.822,0,0,1,18.8-2.1a1.927,1.927,0,0,1-.827,1.617A3.527,3.527,0,0,1,15.8.137a3.825,3.825,0,0,1-1.62-.328,2.666,2.666,0,0,1-1.107-.9,2.136,2.136,0,0,1-.4-1.237h1.613a1.17,1.17,0,0,0,.444.906,1.727,1.727,0,0,0,1.087.318,1.68,1.68,0,0,0,1-.25A.772.772,0,0,0,17.165-2.01Zm5.161-7.185v1.8h1.306v1.23H22.326v4.129a.909.909,0,0,0,.167.612.777.777,0,0,0,.6.188,2.559,2.559,0,0,0,.581-.068V-.021a4.091,4.091,0,0,1-1.094.157q-1.914,0-1.914-2.112v-4.19H19.448V-7.4h1.217v-1.8ZM29.292,0H27.638V-8l-2.44.832V-8.559L29.08-9.987h.212Z" transform="translate(667 133.485)" fill="#1f6cb6"/>
    <g id="Group_1009" data-name="Group 1009" transform="translate(49 118.485)">
      <path id="Card_Bg" data-name="Card Bg" d="M0,0H1312V567.515H0Z" transform="translate(5 21)" fill="#f8fafb"/>
      <path id="Test_bg_white" data-name="Test bg white" d="M0,0H1317V21H0Z" fill="#fff"/>
      <path id="Path_924" data-name="Path 924" d="M4.088-4.437A6.172,6.172,0,0,1,1.63-5.629,2.279,2.279,0,0,1,.861-7.376,2.408,2.408,0,0,1,1.8-9.321a3.736,3.736,0,0,1,2.444-.769,4.078,4.078,0,0,1,1.829.4A3.007,3.007,0,0,1,7.318-8.6a2.8,2.8,0,0,1,.441,1.524H6.439A1.82,1.82,0,0,0,5.865-8.5a2.335,2.335,0,0,0-1.62-.518,2.391,2.391,0,0,0-1.514.428A1.428,1.428,0,0,0,2.188-7.4,1.285,1.285,0,0,0,2.7-6.37,5.062,5.062,0,0,0,4.46-5.6,8.152,8.152,0,0,1,6.4-4.83a2.946,2.946,0,0,1,1.039.981,2.5,2.5,0,0,1,.338,1.319A2.326,2.326,0,0,1,6.836-.591,4.022,4.022,0,0,1,4.313.137,4.678,4.678,0,0,1,2.4-.256,3.221,3.221,0,0,1,1.029-1.333,2.627,2.627,0,0,1,.547-2.885H1.866a1.714,1.714,0,0,0,.667,1.425,2.806,2.806,0,0,0,1.781.523A2.58,2.58,0,0,0,5.906-1.36,1.377,1.377,0,0,0,6.46-2.516a1.351,1.351,0,0,0-.513-1.131A5.911,5.911,0,0,0,4.088-4.437Zm6.891-4.751V-7.4h1.381v.978H10.979v4.593a1.027,1.027,0,0,0,.185.667.777.777,0,0,0,.629.222,3.062,3.062,0,0,0,.6-.082V0a3.688,3.688,0,0,1-.971.136,1.575,1.575,0,0,1-1.278-.513,2.2,2.2,0,0,1-.431-1.456V-6.419H8.367V-7.4H9.714V-9.187ZM18.4,0a2.657,2.657,0,0,1-.178-.779,2.822,2.822,0,0,1-2.105.916,2.611,2.611,0,0,1-1.794-.619,2,2,0,0,1-.7-1.569A2.091,2.091,0,0,1,14.5-3.845a4.142,4.142,0,0,1,2.471-.639H18.2v-.581a1.42,1.42,0,0,0-.4-1.056,1.593,1.593,0,0,0-1.169-.393,1.844,1.844,0,0,0-1.135.342,1.007,1.007,0,0,0-.458.827H13.774a1.745,1.745,0,0,1,.393-1.07,2.683,2.683,0,0,1,1.066-.817,3.588,3.588,0,0,1,1.48-.3,2.924,2.924,0,0,1,2,.639,2.306,2.306,0,0,1,.752,1.76v3.4a4.162,4.162,0,0,0,.26,1.62V0ZM16.3-.964a2.223,2.223,0,0,0,1.128-.308,1.861,1.861,0,0,0,.772-.8V-3.589h-.991q-2.324,0-2.324,1.36a1.151,1.151,0,0,0,.4.93A1.524,1.524,0,0,0,16.3-.964Zm8.723-5.3A3.79,3.79,0,0,0,24.4-6.31a1.667,1.667,0,0,0-1.688,1.06V0H21.451V-7.4h1.23l.021.854a1.969,1.969,0,0,1,1.764-.991,1.292,1.292,0,0,1,.561.1Zm3.22-2.926V-7.4h1.381v.978H28.246v4.593a1.027,1.027,0,0,0,.185.667.777.777,0,0,0,.629.222,3.062,3.062,0,0,0,.6-.082V0a3.688,3.688,0,0,1-.971.136,1.575,1.575,0,0,1-1.278-.513,2.2,2.2,0,0,1-.431-1.456V-6.419H25.635V-7.4h1.347V-9.187Z" transform="translate(97 48)" fill="#0c2339"/>
      <path id="Path_921" data-name="Path 921" d="M8.8,0H7.485L2.475-7.67V0H1.155V-9.953H2.475L7.5-2.249v-7.7H8.8Zm5.2.137A3.232,3.232,0,0,1,11.56-.851a3.666,3.666,0,0,1-.943-2.642v-.232a4.438,4.438,0,0,1,.42-1.965,3.28,3.28,0,0,1,1.176-1.354,2.956,2.956,0,0,1,1.637-.489,2.77,2.77,0,0,1,2.242.95,4.114,4.114,0,0,1,.8,2.721v.526H11.881a2.629,2.629,0,0,0,.639,1.767A2.009,2.009,0,0,0,14.075-.9a2.2,2.2,0,0,0,1.135-.273,2.851,2.851,0,0,0,.813-.725l.772.6A3.106,3.106,0,0,1,14.007.137ZM13.85-6.494a1.687,1.687,0,0,0-1.285.557,2.708,2.708,0,0,0-.643,1.562h3.705v-.1a2.409,2.409,0,0,0-.52-1.494A1.588,1.588,0,0,0,13.85-6.494ZM24.9-1.743,26.325-7.4H27.59L25.437,0H24.411l-1.8-5.605L20.863,0H19.838L17.691-7.4h1.258l1.456,5.537L22.128-7.4h1.019Zm8.955.67h4.717V0H32.539V-9.953h1.319ZM44.44,0a2.657,2.657,0,0,1-.178-.779,2.822,2.822,0,0,1-2.105.916,2.611,2.611,0,0,1-1.794-.619,2,2,0,0,1-.7-1.569,2.091,2.091,0,0,1,.878-1.794,4.142,4.142,0,0,1,2.471-.639h1.23v-.581a1.42,1.42,0,0,0-.4-1.056,1.593,1.593,0,0,0-1.169-.393,1.844,1.844,0,0,0-1.135.342,1.007,1.007,0,0,0-.458.827H39.813a1.745,1.745,0,0,1,.393-1.07,2.683,2.683,0,0,1,1.066-.817,3.588,3.588,0,0,1,1.48-.3,2.924,2.924,0,0,1,2,.639,2.306,2.306,0,0,1,.752,1.76v3.4a4.162,4.162,0,0,0,.26,1.62V0Zm-2.1-.964a2.223,2.223,0,0,0,1.128-.308,1.861,1.861,0,0,0,.772-.8V-3.589h-.991q-2.324,0-2.324,1.36a1.151,1.151,0,0,0,.4.93A1.524,1.524,0,0,0,42.342-.964ZM48.686-7.4l.041.93a2.7,2.7,0,0,1,2.215-1.066q2.345,0,2.365,2.646V0H52.042V-4.895a1.7,1.7,0,0,0-.366-1.183,1.466,1.466,0,0,0-1.118-.383,1.825,1.825,0,0,0-1.08.328,2.228,2.228,0,0,0-.725.861V0H47.489V-7.4Zm9.6,7.533a3.232,3.232,0,0,1-2.447-.988,3.666,3.666,0,0,1-.943-2.642v-.232a4.438,4.438,0,0,1,.42-1.965,3.28,3.28,0,0,1,1.176-1.354,2.956,2.956,0,0,1,1.637-.489,2.77,2.77,0,0,1,2.242.95,4.114,4.114,0,0,1,.8,2.721v.526H56.157A2.629,2.629,0,0,0,56.8-1.569,2.009,2.009,0,0,0,58.352-.9a2.2,2.2,0,0,0,1.135-.273,2.851,2.851,0,0,0,.813-.725l.772.6A3.106,3.106,0,0,1,58.283.137Zm-.157-6.631a1.687,1.687,0,0,0-1.285.557A2.708,2.708,0,0,0,56.2-4.375H59.9v-.1a2.409,2.409,0,0,0-.52-1.494A1.588,1.588,0,0,0,58.126-6.494Z" transform="translate(520 48)" fill="#0c2339"/>
      <path id="Path_923" data-name="Path 923" d="M8.8,0H7.485L2.475-7.67V0H1.155V-9.953H2.475L7.5-2.249v-7.7H8.8Zm5.2.137A3.232,3.232,0,0,1,11.56-.851a3.666,3.666,0,0,1-.943-2.642v-.232a4.438,4.438,0,0,1,.42-1.965,3.28,3.28,0,0,1,1.176-1.354,2.956,2.956,0,0,1,1.637-.489,2.77,2.77,0,0,1,2.242.95,4.114,4.114,0,0,1,.8,2.721v.526H11.881a2.629,2.629,0,0,0,.639,1.767A2.009,2.009,0,0,0,14.075-.9a2.2,2.2,0,0,0,1.135-.273,2.851,2.851,0,0,0,.813-.725l.772.6A3.106,3.106,0,0,1,14.007.137ZM13.85-6.494a1.687,1.687,0,0,0-1.285.557,2.708,2.708,0,0,0-.643,1.562h3.705v-.1a2.409,2.409,0,0,0-.52-1.494A1.588,1.588,0,0,0,13.85-6.494ZM24.9-1.743,26.325-7.4H27.59L25.437,0H24.411l-1.8-5.605L20.863,0H19.838L17.691-7.4h1.258l1.456,5.537L22.128-7.4h1.019Zm8.955.67h4.717V0H32.539V-9.953h1.319ZM44.44,0a2.657,2.657,0,0,1-.178-.779,2.822,2.822,0,0,1-2.105.916,2.611,2.611,0,0,1-1.794-.619,2,2,0,0,1-.7-1.569,2.091,2.091,0,0,1,.878-1.794,4.142,4.142,0,0,1,2.471-.639h1.23v-.581a1.42,1.42,0,0,0-.4-1.056,1.593,1.593,0,0,0-1.169-.393,1.844,1.844,0,0,0-1.135.342,1.007,1.007,0,0,0-.458.827H39.813a1.745,1.745,0,0,1,.393-1.07,2.683,2.683,0,0,1,1.066-.817,3.588,3.588,0,0,1,1.48-.3,2.924,2.924,0,0,1,2,.639,2.306,2.306,0,0,1,.752,1.76v3.4a4.162,4.162,0,0,0,.26,1.62V0Zm-2.1-.964a2.223,2.223,0,0,0,1.128-.308,1.861,1.861,0,0,0,.772-.8V-3.589h-.991q-2.324,0-2.324,1.36a1.151,1.151,0,0,0,.4.93A1.524,1.524,0,0,0,42.342-.964ZM48.686-7.4l.041.93a2.7,2.7,0,0,1,2.215-1.066q2.345,0,2.365,2.646V0H52.042V-4.895a1.7,1.7,0,0,0-.366-1.183,1.466,1.466,0,0,0-1.118-.383,1.825,1.825,0,0,0-1.08.328,2.228,2.228,0,0,0-.725.861V0H47.489V-7.4Zm9.6,7.533a3.232,3.232,0,0,1-2.447-.988,3.666,3.666,0,0,1-.943-2.642v-.232a4.438,4.438,0,0,1,.42-1.965,3.28,3.28,0,0,1,1.176-1.354,2.956,2.956,0,0,1,1.637-.489,2.77,2.77,0,0,1,2.242.95,4.114,4.114,0,0,1,.8,2.721v.526H56.157A2.629,2.629,0,0,0,56.8-1.569,2.009,2.009,0,0,0,58.352-.9a2.2,2.2,0,0,0,1.135-.273,2.851,2.851,0,0,0,.813-.725l.772.6A3.106,3.106,0,0,1,58.283.137Zm-.157-6.631a1.687,1.687,0,0,0-1.285.557A2.708,2.708,0,0,0,56.2-4.375H59.9v-.1a2.409,2.409,0,0,0-.52-1.494A1.588,1.588,0,0,0,58.126-6.494Z" transform="translate(304 48)" fill="#0c2339"/>
      <path id="Path_920" data-name="Path 920" d="M8.8,0H7.485L2.475-7.67V0H1.155V-9.953H2.475L7.5-2.249v-7.7H8.8Zm5.2.137A3.232,3.232,0,0,1,11.56-.851a3.666,3.666,0,0,1-.943-2.642v-.232a4.438,4.438,0,0,1,.42-1.965,3.28,3.28,0,0,1,1.176-1.354,2.956,2.956,0,0,1,1.637-.489,2.77,2.77,0,0,1,2.242.95,4.114,4.114,0,0,1,.8,2.721v.526H11.881a2.629,2.629,0,0,0,.639,1.767A2.009,2.009,0,0,0,14.075-.9a2.2,2.2,0,0,0,1.135-.273,2.851,2.851,0,0,0,.813-.725l.772.6A3.106,3.106,0,0,1,14.007.137ZM13.85-6.494a1.687,1.687,0,0,0-1.285.557,2.708,2.708,0,0,0-.643,1.562h3.705v-.1a2.409,2.409,0,0,0-.52-1.494A1.588,1.588,0,0,0,13.85-6.494ZM24.9-1.743,26.325-7.4H27.59L25.437,0H24.411l-1.8-5.605L20.863,0H19.838L17.691-7.4h1.258l1.456,5.537L22.128-7.4h1.019Zm8.955.67h4.717V0H32.539V-9.953h1.319ZM44.44,0a2.657,2.657,0,0,1-.178-.779,2.822,2.822,0,0,1-2.105.916,2.611,2.611,0,0,1-1.794-.619,2,2,0,0,1-.7-1.569,2.091,2.091,0,0,1,.878-1.794,4.142,4.142,0,0,1,2.471-.639h1.23v-.581a1.42,1.42,0,0,0-.4-1.056,1.593,1.593,0,0,0-1.169-.393,1.844,1.844,0,0,0-1.135.342,1.007,1.007,0,0,0-.458.827H39.813a1.745,1.745,0,0,1,.393-1.07,2.683,2.683,0,0,1,1.066-.817,3.588,3.588,0,0,1,1.48-.3,2.924,2.924,0,0,1,2,.639,2.306,2.306,0,0,1,.752,1.76v3.4a4.162,4.162,0,0,0,.26,1.62V0Zm-2.1-.964a2.223,2.223,0,0,0,1.128-.308,1.861,1.861,0,0,0,.772-.8V-3.589h-.991q-2.324,0-2.324,1.36a1.151,1.151,0,0,0,.4.93A1.524,1.524,0,0,0,42.342-.964ZM48.686-7.4l.041.93a2.7,2.7,0,0,1,2.215-1.066q2.345,0,2.365,2.646V0H52.042V-4.895a1.7,1.7,0,0,0-.366-1.183,1.466,1.466,0,0,0-1.118-.383,1.825,1.825,0,0,0-1.08.328,2.228,2.228,0,0,0-.725.861V0H47.489V-7.4Zm9.6,7.533a3.232,3.232,0,0,1-2.447-.988,3.666,3.666,0,0,1-.943-2.642v-.232a4.438,4.438,0,0,1,.42-1.965,3.28,3.28,0,0,1,1.176-1.354,2.956,2.956,0,0,1,1.637-.489,2.77,2.77,0,0,1,2.242.95,4.114,4.114,0,0,1,.8,2.721v.526H56.157A2.629,2.629,0,0,0,56.8-1.569,2.009,2.009,0,0,0,58.352-.9a2.2,2.2,0,0,0,1.135-.273,2.851,2.851,0,0,0,.813-.725l.772.6A3.106,3.106,0,0,1,58.283.137Zm-.157-6.631a1.687,1.687,0,0,0-1.285.557A2.708,2.708,0,0,0,56.2-4.375H59.9v-.1a2.409,2.409,0,0,0-.52-1.494A1.588,1.588,0,0,0,58.126-6.494Z" transform="translate(744 48)" fill="#0c2339"/>
      <path id="Path_919" data-name="Path 919" d="M8.8,0H7.485L2.475-7.67V0H1.155V-9.953H2.475L7.5-2.249v-7.7H8.8Zm5.2.137A3.232,3.232,0,0,1,11.56-.851a3.666,3.666,0,0,1-.943-2.642v-.232a4.438,4.438,0,0,1,.42-1.965,3.28,3.28,0,0,1,1.176-1.354,2.956,2.956,0,0,1,1.637-.489,2.77,2.77,0,0,1,2.242.95,4.114,4.114,0,0,1,.8,2.721v.526H11.881a2.629,2.629,0,0,0,.639,1.767A2.009,2.009,0,0,0,14.075-.9a2.2,2.2,0,0,0,1.135-.273,2.851,2.851,0,0,0,.813-.725l.772.6A3.106,3.106,0,0,1,14.007.137ZM13.85-6.494a1.687,1.687,0,0,0-1.285.557,2.708,2.708,0,0,0-.643,1.562h3.705v-.1a2.409,2.409,0,0,0-.52-1.494A1.588,1.588,0,0,0,13.85-6.494ZM24.9-1.743,26.325-7.4H27.59L25.437,0H24.411l-1.8-5.605L20.863,0H19.838L17.691-7.4h1.258l1.456,5.537L22.128-7.4h1.019Zm8.955.67h4.717V0H32.539V-9.953h1.319ZM44.44,0a2.657,2.657,0,0,1-.178-.779,2.822,2.822,0,0,1-2.105.916,2.611,2.611,0,0,1-1.794-.619,2,2,0,0,1-.7-1.569,2.091,2.091,0,0,1,.878-1.794,4.142,4.142,0,0,1,2.471-.639h1.23v-.581a1.42,1.42,0,0,0-.4-1.056,1.593,1.593,0,0,0-1.169-.393,1.844,1.844,0,0,0-1.135.342,1.007,1.007,0,0,0-.458.827H39.813a1.745,1.745,0,0,1,.393-1.07,2.683,2.683,0,0,1,1.066-.817,3.588,3.588,0,0,1,1.48-.3,2.924,2.924,0,0,1,2,.639,2.306,2.306,0,0,1,.752,1.76v3.4a4.162,4.162,0,0,0,.26,1.62V0Zm-2.1-.964a2.223,2.223,0,0,0,1.128-.308,1.861,1.861,0,0,0,.772-.8V-3.589h-.991q-2.324,0-2.324,1.36a1.151,1.151,0,0,0,.4.93A1.524,1.524,0,0,0,42.342-.964ZM48.686-7.4l.041.93a2.7,2.7,0,0,1,2.215-1.066q2.345,0,2.365,2.646V0H52.042V-4.895a1.7,1.7,0,0,0-.366-1.183,1.466,1.466,0,0,0-1.118-.383,1.825,1.825,0,0,0-1.08.328,2.228,2.228,0,0,0-.725.861V0H47.489V-7.4Zm9.6,7.533a3.232,3.232,0,0,1-2.447-.988,3.666,3.666,0,0,1-.943-2.642v-.232a4.438,4.438,0,0,1,.42-1.965,3.28,3.28,0,0,1,1.176-1.354,2.956,2.956,0,0,1,1.637-.489,2.77,2.77,0,0,1,2.242.95,4.114,4.114,0,0,1,.8,2.721v.526H56.157A2.629,2.629,0,0,0,56.8-1.569,2.009,2.009,0,0,0,58.352-.9a2.2,2.2,0,0,0,1.135-.273,2.851,2.851,0,0,0,.813-.725l.772.6A3.106,3.106,0,0,1,58.283.137Zm-.157-6.631a1.687,1.687,0,0,0-1.285.557A2.708,2.708,0,0,0,56.2-4.375H59.9v-.1a2.409,2.409,0,0,0-.52-1.494A1.588,1.588,0,0,0,58.126-6.494Z" transform="translate(952 48)" fill="#0c2339"/>
      <g id="Create_flow_bg" data-name="Create flow bg" transform="translate(261.625 81.341)" fill="#fff">
        <path d="M5,0H141.75a5,5,0,0,1,5,5V52a5,5,0,0,1-5,5H5a5,5,0,0,1-5-5V5A5,5,0,0,1,5,0Z" stroke="none"/>
        <path d="M 5 0.5 C 2.518692016601562 0.5 0.5 2.518692016601562 0.5 5 L 0.5 52 C 0.5 54.48130798339844 2.518692016601562 56.5 5 56.5 L 141.75 56.5 C 144.2313079833984 56.5 146.25 54.48130798339844 146.25 52 L 146.25 5 C 146.25 2.518692016601562 144.2313079833984 0.5 141.75 0.5 L 5 0.5 M 5 0 L 141.75 0 C 144.5114135742188 0 146.75 2.238582611083984 146.75 5 L 146.75 52 C 146.75 54.76141738891602 144.5114135742188 57 141.75 57 L 5 57 C 2.238571166992188 57 0 54.76141738891602 0 52 L 0 5 C 0 2.238582611083984 2.238571166992188 0 5 0 Z" stroke="none" fill="rgba(165,170,188,0.5)"/>
      </g>
      <path id="Path_938" data-name="Path 938" d="M3.212-3.486a4.849,4.849,0,0,1-1.931-.937A1.791,1.791,0,0,1,.677-5.8a1.892,1.892,0,0,1,.739-1.528,2.935,2.935,0,0,1,1.92-.6,3.2,3.2,0,0,1,1.437.312,2.362,2.362,0,0,1,.978.859,2.2,2.2,0,0,1,.346,1.2H5.06a1.43,1.43,0,0,0-.451-1.118,1.835,1.835,0,0,0-1.273-.407,1.878,1.878,0,0,0-1.19.336,1.122,1.122,0,0,0-.427.934A1.009,1.009,0,0,0,2.124-5,3.978,3.978,0,0,0,3.5-4.4a6.4,6.4,0,0,1,1.525.6,2.315,2.315,0,0,1,.816.771,1.967,1.967,0,0,1,.266,1.037A1.827,1.827,0,0,1,5.371-.465,3.16,3.16,0,0,1,3.389.107,3.676,3.676,0,0,1,1.885-.2,2.531,2.531,0,0,1,.808-1.047,2.064,2.064,0,0,1,.43-2.267H1.466a1.347,1.347,0,0,0,.524,1.12,2.2,2.2,0,0,0,1.4.411,2.027,2.027,0,0,0,1.251-.333,1.082,1.082,0,0,0,.435-.908,1.062,1.062,0,0,0-.4-.889A4.644,4.644,0,0,0,3.212-3.486ZM8.626-7.219v1.407H9.711v.768H8.626v3.609a.807.807,0,0,0,.145.524.61.61,0,0,0,.494.175A2.406,2.406,0,0,0,9.738-.8V0a2.9,2.9,0,0,1-.763.107,1.237,1.237,0,0,1-1-.4,1.731,1.731,0,0,1-.338-1.144v-3.6H6.574v-.768H7.632V-7.219ZM13.283.107A2.539,2.539,0,0,1,11.36-.669a2.881,2.881,0,0,1-.741-2.076v-.183a3.487,3.487,0,0,1,.33-1.544,2.577,2.577,0,0,1,.924-1.063,2.323,2.323,0,0,1,1.286-.384,2.177,2.177,0,0,1,1.762.747,3.232,3.232,0,0,1,.628,2.138v.414H11.612a2.066,2.066,0,0,0,.5,1.388A1.579,1.579,0,0,0,13.336-.7a1.731,1.731,0,0,0,.892-.215,2.24,2.24,0,0,0,.639-.569l.607.473A2.44,2.44,0,0,1,13.283.107ZM13.159-5.1a1.325,1.325,0,0,0-1.01.438,2.128,2.128,0,0,0-.5,1.227h2.911v-.075a1.893,1.893,0,0,0-.408-1.174A1.248,1.248,0,0,0,13.159-5.1Zm8.449,2.261A3.48,3.48,0,0,1,21-.7a1.945,1.945,0,0,1-1.644.811,2.131,2.131,0,0,1-1.665-.671v2.8H16.7V-5.812h.908l.048.645a2.047,2.047,0,0,1,1.687-.752A1.982,1.982,0,0,1,21-5.129a3.518,3.518,0,0,1,.61,2.2Zm-.994-.113A2.568,2.568,0,0,0,20.2-4.506a1.35,1.35,0,0,0-1.149-.569,1.461,1.461,0,0,0-1.354.8V-1.5A1.464,1.464,0,0,0,19.057-.7a1.343,1.343,0,0,0,1.136-.567A2.8,2.8,0,0,0,20.614-2.954ZM30.615,0H25.491V-.714L28.2-3.722a6.431,6.431,0,0,0,.83-1.109,1.851,1.851,0,0,0,.228-.884,1.4,1.4,0,0,0-.371-1,1.3,1.3,0,0,0-.988-.392,1.535,1.535,0,0,0-1.152.422,1.611,1.611,0,0,0-.411,1.174h-.994a2.307,2.307,0,0,1,.7-1.746A2.579,2.579,0,0,1,27.9-7.928a2.478,2.478,0,0,1,1.724.572,1.951,1.951,0,0,1,.634,1.523,4.474,4.474,0,0,1-1.472,2.75L26.689-.811h3.926Z" transform="translate(268.625 98)" fill="#0c2339"/>
      <g id="Create_flow_bg-2" data-name="Create flow bg" transform="translate(477.625 81.341)" fill="#fff">
        <path d="M5,0H141.75a5,5,0,0,1,5,5V52a5,5,0,0,1-5,5H5a5,5,0,0,1-5-5V5A5,5,0,0,1,5,0Z" stroke="none"/>
        <path d="M 5 0.5 C 2.518692016601562 0.5 0.5 2.518692016601562 0.5 5 L 0.5 52 C 0.5 54.48130798339844 2.518692016601562 56.5 5 56.5 L 141.75 56.5 C 144.2313079833984 56.5 146.25 54.48130798339844 146.25 52 L 146.25 5 C 146.25 2.518692016601562 144.2313079833984 0.5 141.75 0.5 L 5 0.5 M 5 0 L 141.75 0 C 144.5114135742188 0 146.75 2.238582611083984 146.75 5 L 146.75 52 C 146.75 54.76141738891602 144.5114135742188 57 141.75 57 L 5 57 C 2.238571166992188 57 0 54.76141738891602 0 52 L 0 5 C 0 2.238582611083984 2.238571166992188 0 5 0 Z" stroke="none" fill="rgba(165,170,188,0.5)"/>
      </g>
      <path id="Path_930" data-name="Path 930" d="M3.212-3.486a4.849,4.849,0,0,1-1.931-.937A1.791,1.791,0,0,1,.677-5.8a1.892,1.892,0,0,1,.739-1.528,2.935,2.935,0,0,1,1.92-.6,3.2,3.2,0,0,1,1.437.312,2.362,2.362,0,0,1,.978.859,2.2,2.2,0,0,1,.346,1.2H5.06a1.43,1.43,0,0,0-.451-1.118,1.835,1.835,0,0,0-1.273-.407,1.878,1.878,0,0,0-1.19.336,1.122,1.122,0,0,0-.427.934A1.009,1.009,0,0,0,2.124-5,3.978,3.978,0,0,0,3.5-4.4a6.4,6.4,0,0,1,1.525.6,2.315,2.315,0,0,1,.816.771,1.967,1.967,0,0,1,.266,1.037A1.827,1.827,0,0,1,5.371-.465,3.16,3.16,0,0,1,3.389.107,3.676,3.676,0,0,1,1.885-.2,2.531,2.531,0,0,1,.808-1.047,2.064,2.064,0,0,1,.43-2.267H1.466a1.347,1.347,0,0,0,.524,1.12,2.2,2.2,0,0,0,1.4.411,2.027,2.027,0,0,0,1.251-.333,1.082,1.082,0,0,0,.435-.908,1.062,1.062,0,0,0-.4-.889A4.644,4.644,0,0,0,3.212-3.486ZM8.626-7.219v1.407H9.711v.768H8.626v3.609a.807.807,0,0,0,.145.524.61.61,0,0,0,.494.175A2.406,2.406,0,0,0,9.738-.8V0a2.9,2.9,0,0,1-.763.107,1.237,1.237,0,0,1-1-.4,1.731,1.731,0,0,1-.338-1.144v-3.6H6.574v-.768H7.632V-7.219ZM13.283.107A2.539,2.539,0,0,1,11.36-.669a2.881,2.881,0,0,1-.741-2.076v-.183a3.487,3.487,0,0,1,.33-1.544,2.577,2.577,0,0,1,.924-1.063,2.323,2.323,0,0,1,1.286-.384,2.177,2.177,0,0,1,1.762.747,3.232,3.232,0,0,1,.628,2.138v.414H11.612a2.066,2.066,0,0,0,.5,1.388A1.579,1.579,0,0,0,13.336-.7a1.731,1.731,0,0,0,.892-.215,2.24,2.24,0,0,0,.639-.569l.607.473A2.44,2.44,0,0,1,13.283.107ZM13.159-5.1a1.325,1.325,0,0,0-1.01.438,2.128,2.128,0,0,0-.5,1.227h2.911v-.075a1.893,1.893,0,0,0-.408-1.174A1.248,1.248,0,0,0,13.159-5.1Zm8.449,2.261A3.48,3.48,0,0,1,21-.7a1.945,1.945,0,0,1-1.644.811,2.131,2.131,0,0,1-1.665-.671v2.8H16.7V-5.812h.908l.048.645a2.047,2.047,0,0,1,1.687-.752A1.982,1.982,0,0,1,21-5.129a3.518,3.518,0,0,1,.61,2.2Zm-.994-.113A2.568,2.568,0,0,0,20.2-4.506a1.35,1.35,0,0,0-1.149-.569,1.461,1.461,0,0,0-1.354.8V-1.5A1.464,1.464,0,0,0,19.057-.7a1.343,1.343,0,0,0,1.136-.567A2.8,2.8,0,0,0,20.614-2.954Zm9.072.328h1.085v.811H29.686V0h-1V-1.815H25.126V-2.4l3.5-5.419h1.058Zm-3.432,0h2.433V-6.461l-.118.215Z" transform="translate(484.625 98)" fill="#0c2339"/>
      <g id="Create_flow_bg-3" data-name="Create flow bg" transform="translate(701.625 81.341)" fill="#fff">
        <path d="M5,0H141.75a5,5,0,0,1,5,5V52a5,5,0,0,1-5,5H5a5,5,0,0,1-5-5V5A5,5,0,0,1,5,0Z" stroke="none"/>
        <path d="M 5 0.5 C 2.518692016601562 0.5 0.5 2.518692016601562 0.5 5 L 0.5 52 C 0.5 54.48130798339844 2.518692016601562 56.5 5 56.5 L 141.75 56.5 C 144.2313079833984 56.5 146.25 54.48130798339844 146.25 52 L 146.25 5 C 146.25 2.518692016601562 144.2313079833984 0.5 141.75 0.5 L 5 0.5 M 5 0 L 141.75 0 C 144.5114135742188 0 146.75 2.238582611083984 146.75 5 L 146.75 52 C 146.75 54.76141738891602 144.5114135742188 57 141.75 57 L 5 57 C 2.238571166992188 57 0 54.76141738891602 0 52 L 0 5 C 0 2.238582611083984 2.238571166992188 0 5 0 Z" stroke="none" fill="rgba(165,170,188,0.5)"/>
      </g>
      <path id="Path_926" data-name="Path 926" d="M3.212-3.486a4.849,4.849,0,0,1-1.931-.937A1.791,1.791,0,0,1,.677-5.8a1.892,1.892,0,0,1,.739-1.528,2.935,2.935,0,0,1,1.92-.6,3.2,3.2,0,0,1,1.437.312,2.362,2.362,0,0,1,.978.859,2.2,2.2,0,0,1,.346,1.2H5.06a1.43,1.43,0,0,0-.451-1.118,1.835,1.835,0,0,0-1.273-.407,1.878,1.878,0,0,0-1.19.336,1.122,1.122,0,0,0-.427.934A1.009,1.009,0,0,0,2.124-5,3.978,3.978,0,0,0,3.5-4.4a6.4,6.4,0,0,1,1.525.6,2.315,2.315,0,0,1,.816.771,1.967,1.967,0,0,1,.266,1.037A1.827,1.827,0,0,1,5.371-.465,3.16,3.16,0,0,1,3.389.107,3.676,3.676,0,0,1,1.885-.2,2.531,2.531,0,0,1,.808-1.047,2.064,2.064,0,0,1,.43-2.267H1.466a1.347,1.347,0,0,0,.524,1.12,2.2,2.2,0,0,0,1.4.411,2.027,2.027,0,0,0,1.251-.333,1.082,1.082,0,0,0,.435-.908,1.062,1.062,0,0,0-.4-.889A4.644,4.644,0,0,0,3.212-3.486ZM8.626-7.219v1.407H9.711v.768H8.626v3.609a.807.807,0,0,0,.145.524.61.61,0,0,0,.494.175A2.406,2.406,0,0,0,9.738-.8V0a2.9,2.9,0,0,1-.763.107,1.237,1.237,0,0,1-1-.4,1.731,1.731,0,0,1-.338-1.144v-3.6H6.574v-.768H7.632V-7.219ZM13.283.107A2.539,2.539,0,0,1,11.36-.669a2.881,2.881,0,0,1-.741-2.076v-.183a3.487,3.487,0,0,1,.33-1.544,2.577,2.577,0,0,1,.924-1.063,2.323,2.323,0,0,1,1.286-.384,2.177,2.177,0,0,1,1.762.747,3.232,3.232,0,0,1,.628,2.138v.414H11.612a2.066,2.066,0,0,0,.5,1.388A1.579,1.579,0,0,0,13.336-.7a1.731,1.731,0,0,0,.892-.215,2.24,2.24,0,0,0,.639-.569l.607.473A2.44,2.44,0,0,1,13.283.107ZM13.159-5.1a1.325,1.325,0,0,0-1.01.438,2.128,2.128,0,0,0-.5,1.227h2.911v-.075a1.893,1.893,0,0,0-.408-1.174A1.248,1.248,0,0,0,13.159-5.1Zm8.449,2.261A3.48,3.48,0,0,1,21-.7a1.945,1.945,0,0,1-1.644.811,2.131,2.131,0,0,1-1.665-.671v2.8H16.7V-5.812h.908l.048.645a2.047,2.047,0,0,1,1.687-.752A1.982,1.982,0,0,1,21-5.129a3.518,3.518,0,0,1,.61,2.2Zm-.994-.113A2.568,2.568,0,0,0,20.2-4.506a1.35,1.35,0,0,0-1.149-.569,1.461,1.461,0,0,0-1.354.8V-1.5A1.464,1.464,0,0,0,19.057-.7a1.343,1.343,0,0,0,1.136-.567A2.8,2.8,0,0,0,20.614-2.954Zm5.333-.967.4-3.9h4.007V-6.9H27.188L26.952-4.77a2.524,2.524,0,0,1,1.305-.338,2.158,2.158,0,0,1,1.7.706,2.768,2.768,0,0,1,.628,1.909,2.672,2.672,0,0,1-.653,1.9,2.379,2.379,0,0,1-1.823.7,2.472,2.472,0,0,1-1.692-.575,2.294,2.294,0,0,1-.747-1.59h.94a1.578,1.578,0,0,0,.478,1.012A1.486,1.486,0,0,0,28.107-.7a1.341,1.341,0,0,0,1.088-.473,1.976,1.976,0,0,0,.395-1.305,1.814,1.814,0,0,0-.427-1.26,1.452,1.452,0,0,0-1.136-.475,1.638,1.638,0,0,0-1.021.285l-.263.215Z" transform="translate(708.625 98)" fill="#0c2339"/>
      <g id="Create_flow_bg-4" data-name="Create flow bg" transform="translate(909.625 81.341)" fill="#fff">
        <path d="M5,0H141.75a5,5,0,0,1,5,5V52a5,5,0,0,1-5,5H5a5,5,0,0,1-5-5V5A5,5,0,0,1,5,0Z" stroke="none"/>
        <path d="M 5 0.5 C 2.518692016601562 0.5 0.5 2.518692016601562 0.5 5 L 0.5 52 C 0.5 54.48130798339844 2.518692016601562 56.5 5 56.5 L 141.75 56.5 C 144.2313079833984 56.5 146.25 54.48130798339844 146.25 52 L 146.25 5 C 146.25 2.518692016601562 144.2313079833984 0.5 141.75 0.5 L 5 0.5 M 5 0 L 141.75 0 C 144.5114135742188 0 146.75 2.238582611083984 146.75 5 L 146.75 52 C 146.75 54.76141738891602 144.5114135742188 57 141.75 57 L 5 57 C 2.238571166992188 57 0 54.76141738891602 0 52 L 0 5 C 0 2.238582611083984 2.238571166992188 0 5 0 Z" stroke="none" fill="rgba(165,170,188,0.5)"/>
      </g>
      <path id="Path_925" data-name="Path 925" d="M3.212-3.486a4.849,4.849,0,0,1-1.931-.937A1.791,1.791,0,0,1,.677-5.8a1.892,1.892,0,0,1,.739-1.528,2.935,2.935,0,0,1,1.92-.6,3.2,3.2,0,0,1,1.437.312,2.362,2.362,0,0,1,.978.859,2.2,2.2,0,0,1,.346,1.2H5.06a1.43,1.43,0,0,0-.451-1.118,1.835,1.835,0,0,0-1.273-.407,1.878,1.878,0,0,0-1.19.336,1.122,1.122,0,0,0-.427.934A1.009,1.009,0,0,0,2.124-5,3.978,3.978,0,0,0,3.5-4.4a6.4,6.4,0,0,1,1.525.6,2.315,2.315,0,0,1,.816.771,1.967,1.967,0,0,1,.266,1.037A1.827,1.827,0,0,1,5.371-.465,3.16,3.16,0,0,1,3.389.107,3.676,3.676,0,0,1,1.885-.2,2.531,2.531,0,0,1,.808-1.047,2.064,2.064,0,0,1,.43-2.267H1.466a1.347,1.347,0,0,0,.524,1.12,2.2,2.2,0,0,0,1.4.411,2.027,2.027,0,0,0,1.251-.333,1.082,1.082,0,0,0,.435-.908,1.062,1.062,0,0,0-.4-.889A4.644,4.644,0,0,0,3.212-3.486ZM8.626-7.219v1.407H9.711v.768H8.626v3.609a.807.807,0,0,0,.145.524.61.61,0,0,0,.494.175A2.406,2.406,0,0,0,9.738-.8V0a2.9,2.9,0,0,1-.763.107,1.237,1.237,0,0,1-1-.4,1.731,1.731,0,0,1-.338-1.144v-3.6H6.574v-.768H7.632V-7.219ZM13.283.107A2.539,2.539,0,0,1,11.36-.669a2.881,2.881,0,0,1-.741-2.076v-.183a3.487,3.487,0,0,1,.33-1.544,2.577,2.577,0,0,1,.924-1.063,2.323,2.323,0,0,1,1.286-.384,2.177,2.177,0,0,1,1.762.747,3.232,3.232,0,0,1,.628,2.138v.414H11.612a2.066,2.066,0,0,0,.5,1.388A1.579,1.579,0,0,0,13.336-.7a1.731,1.731,0,0,0,.892-.215,2.24,2.24,0,0,0,.639-.569l.607.473A2.44,2.44,0,0,1,13.283.107ZM13.159-5.1a1.325,1.325,0,0,0-1.01.438,2.128,2.128,0,0,0-.5,1.227h2.911v-.075a1.893,1.893,0,0,0-.408-1.174A1.248,1.248,0,0,0,13.159-5.1Zm8.449,2.261A3.48,3.48,0,0,1,21-.7a1.945,1.945,0,0,1-1.644.811,2.131,2.131,0,0,1-1.665-.671v2.8H16.7V-5.812h.908l.048.645a2.047,2.047,0,0,1,1.687-.752A1.982,1.982,0,0,1,21-5.129a3.518,3.518,0,0,1,.61,2.2Zm-.994-.113A2.568,2.568,0,0,0,20.2-4.506a1.35,1.35,0,0,0-1.149-.569,1.461,1.461,0,0,0-1.354.8V-1.5A1.464,1.464,0,0,0,19.057-.7a1.343,1.343,0,0,0,1.136-.567A2.8,2.8,0,0,0,20.614-2.954Zm8.776-4.872v.843h-.183a2.616,2.616,0,0,0-1.848.688,2.861,2.861,0,0,0-.795,1.875,2.121,2.121,0,0,1,1.687-.709,2.028,2.028,0,0,1,1.63.72,2.776,2.776,0,0,1,.61,1.858,2.767,2.767,0,0,1-.658,1.934,2.266,2.266,0,0,1-1.764.725,2.232,2.232,0,0,1-1.821-.862,3.417,3.417,0,0,1-.7-2.221v-.381a5.148,5.148,0,0,1,.921-3.3,3.383,3.383,0,0,1,2.742-1.168ZM28.085-4.3a1.585,1.585,0,0,0-.94.306,1.6,1.6,0,0,0-.6.768v.365a2.565,2.565,0,0,0,.435,1.558,1.3,1.3,0,0,0,1.085.591,1.263,1.263,0,0,0,1.055-.494A2.05,2.05,0,0,0,29.509-2.5a2.051,2.051,0,0,0-.389-1.3A1.248,1.248,0,0,0,28.085-4.3Z" transform="translate(916.625 98)" fill="#0c2339"/>
      <g id="Create_flow_bg-5" data-name="Create flow bg" transform="translate(261.625 149.848)" fill="#fff">
        <path d="M5,0H141.75a5,5,0,0,1,5,5V52a5,5,0,0,1-5,5H5a5,5,0,0,1-5-5V5A5,5,0,0,1,5,0Z" stroke="none"/>
        <path d="M 5 0.5 C 2.518692016601562 0.5 0.5 2.518692016601562 0.5 5 L 0.5 52 C 0.5 54.48130798339844 2.518692016601562 56.5 5 56.5 L 141.75 56.5 C 144.2313079833984 56.5 146.25 54.48130798339844 146.25 52 L 146.25 5 C 146.25 2.518692016601562 144.2313079833984 0.5 141.75 0.5 L 5 0.5 M 5 0 L 141.75 0 C 144.5114135742188 0 146.75 2.238582611083984 146.75 5 L 146.75 52 C 146.75 54.76141738891602 144.5114135742188 57 141.75 57 L 5 57 C 2.238571166992188 57 0 54.76141738891602 0 52 L 0 5 C 0 2.238582611083984 2.238571166992188 0 5 0 Z" stroke="none" fill="rgba(165,170,188,0.5)"/>
      </g>
      <path id="Path_951" data-name="Path 951" d="M3.212-3.486a4.849,4.849,0,0,1-1.931-.937A1.791,1.791,0,0,1,.677-5.8a1.892,1.892,0,0,1,.739-1.528,2.935,2.935,0,0,1,1.92-.6,3.2,3.2,0,0,1,1.437.312,2.362,2.362,0,0,1,.978.859,2.2,2.2,0,0,1,.346,1.2H5.06a1.43,1.43,0,0,0-.451-1.118,1.835,1.835,0,0,0-1.273-.407,1.878,1.878,0,0,0-1.19.336,1.122,1.122,0,0,0-.427.934A1.009,1.009,0,0,0,2.124-5,3.978,3.978,0,0,0,3.5-4.4a6.4,6.4,0,0,1,1.525.6,2.315,2.315,0,0,1,.816.771,1.967,1.967,0,0,1,.266,1.037A1.827,1.827,0,0,1,5.371-.465,3.16,3.16,0,0,1,3.389.107,3.676,3.676,0,0,1,1.885-.2,2.531,2.531,0,0,1,.808-1.047,2.064,2.064,0,0,1,.43-2.267H1.466a1.347,1.347,0,0,0,.524,1.12,2.2,2.2,0,0,0,1.4.411,2.027,2.027,0,0,0,1.251-.333,1.082,1.082,0,0,0,.435-.908,1.062,1.062,0,0,0-.4-.889A4.644,4.644,0,0,0,3.212-3.486ZM8.626-7.219v1.407H9.711v.768H8.626v3.609a.807.807,0,0,0,.145.524.61.61,0,0,0,.494.175A2.406,2.406,0,0,0,9.738-.8V0a2.9,2.9,0,0,1-.763.107,1.237,1.237,0,0,1-1-.4,1.731,1.731,0,0,1-.338-1.144v-3.6H6.574v-.768H7.632V-7.219ZM13.283.107A2.539,2.539,0,0,1,11.36-.669a2.881,2.881,0,0,1-.741-2.076v-.183a3.487,3.487,0,0,1,.33-1.544,2.577,2.577,0,0,1,.924-1.063,2.323,2.323,0,0,1,1.286-.384,2.177,2.177,0,0,1,1.762.747,3.232,3.232,0,0,1,.628,2.138v.414H11.612a2.066,2.066,0,0,0,.5,1.388A1.579,1.579,0,0,0,13.336-.7a1.731,1.731,0,0,0,.892-.215,2.24,2.24,0,0,0,.639-.569l.607.473A2.44,2.44,0,0,1,13.283.107ZM13.159-5.1a1.325,1.325,0,0,0-1.01.438,2.128,2.128,0,0,0-.5,1.227h2.911v-.075a1.893,1.893,0,0,0-.408-1.174A1.248,1.248,0,0,0,13.159-5.1Zm8.449,2.261A3.48,3.48,0,0,1,21-.7a1.945,1.945,0,0,1-1.644.811,2.131,2.131,0,0,1-1.665-.671v2.8H16.7V-5.812h.908l.048.645a2.047,2.047,0,0,1,1.687-.752A1.982,1.982,0,0,1,21-5.129a3.518,3.518,0,0,1,.61,2.2Zm-.994-.113A2.568,2.568,0,0,0,20.2-4.506a1.35,1.35,0,0,0-1.149-.569,1.461,1.461,0,0,0-1.354.8V-1.5A1.464,1.464,0,0,0,19.057-.7a1.343,1.343,0,0,0,1.136-.567A2.8,2.8,0,0,0,20.614-2.954Zm6.322-1.439h.747a1.641,1.641,0,0,0,1.106-.371,1.238,1.238,0,0,0,.4-.972,1.213,1.213,0,0,0-1.37-1.375,1.425,1.425,0,0,0-1.029.368,1.288,1.288,0,0,0-.384.975h-.994A2,2,0,0,1,26.1-7.313a2.475,2.475,0,0,1,1.727-.615,2.446,2.446,0,0,1,1.735.585,2.115,2.115,0,0,1,.628,1.627,1.717,1.717,0,0,1-.33.988,1.994,1.994,0,0,1-.9.714,1.922,1.922,0,0,1,1,.677A1.88,1.88,0,0,1,30.3-2.181a2.133,2.133,0,0,1-.687,1.67,2.575,2.575,0,0,1-1.789.618,2.643,2.643,0,0,1-1.791-.6,1.978,1.978,0,0,1-.69-1.574h1a1.278,1.278,0,0,0,.4.988,1.532,1.532,0,0,0,1.08.371,1.5,1.5,0,0,0,1.1-.376,1.449,1.449,0,0,0,.381-1.08,1.315,1.315,0,0,0-.419-1.047,1.825,1.825,0,0,0-1.208-.376h-.747Z" transform="translate(268.625 166.653)" fill="#0c2339"/>
      <path id="blue_divder" data-name="blue divder" d="M0,0H1312" transform="translate(5 21.341)" fill="none" stroke="#1f6cb6" stroke-width="0.5"/>
      <g id="Create_flow_bg-6" data-name="Create flow bg" transform="translate(39 81.341)" fill="#fff">
        <path d="M5,0H141.75a5,5,0,0,1,5,5V52a5,5,0,0,1-5,5H5a5,5,0,0,1-5-5V5A5,5,0,0,1,5,0Z" stroke="none"/>
        <path d="M 5 0.5 C 2.518692016601562 0.5 0.5 2.518692016601562 0.5 5 L 0.5 52 C 0.5 54.48130798339844 2.518692016601562 56.5 5 56.5 L 141.75 56.5 C 144.2313079833984 56.5 146.25 54.48130798339844 146.25 52 L 146.25 5 C 146.25 2.518692016601562 144.2313079833984 0.5 141.75 0.5 L 5 0.5 M 5 0 L 141.75 0 C 144.5114135742188 0 146.75 2.238582611083984 146.75 5 L 146.75 52 C 146.75 54.76141738891602 144.5114135742188 57 141.75 57 L 5 57 C 2.238571166992188 57 0 54.76141738891602 0 52 L 0 5 C 0 2.238582611083984 2.238571166992188 0 5 0 Z" stroke="none" fill="rgba(165,170,188,0.5)"/>
      </g>
      <path id="Path_944" data-name="Path 944" d="M3.212-3.486a4.849,4.849,0,0,1-1.931-.937A1.791,1.791,0,0,1,.677-5.8a1.892,1.892,0,0,1,.739-1.528,2.935,2.935,0,0,1,1.92-.6,3.2,3.2,0,0,1,1.437.312,2.362,2.362,0,0,1,.978.859,2.2,2.2,0,0,1,.346,1.2H5.06a1.43,1.43,0,0,0-.451-1.118,1.835,1.835,0,0,0-1.273-.407,1.878,1.878,0,0,0-1.19.336,1.122,1.122,0,0,0-.427.934A1.009,1.009,0,0,0,2.124-5,3.978,3.978,0,0,0,3.5-4.4a6.4,6.4,0,0,1,1.525.6,2.315,2.315,0,0,1,.816.771,1.967,1.967,0,0,1,.266,1.037A1.827,1.827,0,0,1,5.371-.465,3.16,3.16,0,0,1,3.389.107,3.676,3.676,0,0,1,1.885-.2,2.531,2.531,0,0,1,.808-1.047,2.064,2.064,0,0,1,.43-2.267H1.466a1.347,1.347,0,0,0,.524,1.12,2.2,2.2,0,0,0,1.4.411,2.027,2.027,0,0,0,1.251-.333,1.082,1.082,0,0,0,.435-.908,1.062,1.062,0,0,0-.4-.889A4.644,4.644,0,0,0,3.212-3.486ZM8.626-7.219v1.407H9.711v.768H8.626v3.609a.807.807,0,0,0,.145.524.61.61,0,0,0,.494.175A2.406,2.406,0,0,0,9.738-.8V0a2.9,2.9,0,0,1-.763.107,1.237,1.237,0,0,1-1-.4,1.731,1.731,0,0,1-.338-1.144v-3.6H6.574v-.768H7.632V-7.219ZM13.283.107A2.539,2.539,0,0,1,11.36-.669a2.881,2.881,0,0,1-.741-2.076v-.183a3.487,3.487,0,0,1,.33-1.544,2.577,2.577,0,0,1,.924-1.063,2.323,2.323,0,0,1,1.286-.384,2.177,2.177,0,0,1,1.762.747,3.232,3.232,0,0,1,.628,2.138v.414H11.612a2.066,2.066,0,0,0,.5,1.388A1.579,1.579,0,0,0,13.336-.7a1.731,1.731,0,0,0,.892-.215,2.24,2.24,0,0,0,.639-.569l.607.473A2.44,2.44,0,0,1,13.283.107ZM13.159-5.1a1.325,1.325,0,0,0-1.01.438,2.128,2.128,0,0,0-.5,1.227h2.911v-.075a1.893,1.893,0,0,0-.408-1.174A1.248,1.248,0,0,0,13.159-5.1Zm8.449,2.261A3.48,3.48,0,0,1,21-.7a1.945,1.945,0,0,1-1.644.811,2.131,2.131,0,0,1-1.665-.671v2.8H16.7V-5.812h.908l.048.645a2.047,2.047,0,0,1,1.687-.752A1.982,1.982,0,0,1,21-5.129a3.518,3.518,0,0,1,.61,2.2Zm-.994-.113A2.568,2.568,0,0,0,20.2-4.506a1.35,1.35,0,0,0-1.149-.569,1.461,1.461,0,0,0-1.354.8V-1.5A1.464,1.464,0,0,0,19.057-.7a1.343,1.343,0,0,0,1.136-.567A2.8,2.8,0,0,0,20.614-2.954ZM28.757,0h-1V-6.623l-2,.736v-.9L28.6-7.858h.156Z" transform="translate(46 98)" fill="#0c2339"/>
      <path id="Path_92" data-name="Path 92" d="M0,0H1312" transform="translate(5 60.341)" fill="none" stroke="rgba(165,170,188,0.5)" stroke-width="0.5"/>
      <path id="Path_93" data-name="Path 93" d="M0,0H567.174" transform="translate(227.5 21.341) rotate(90)" fill="none" stroke="rgba(165,170,188,0.5)" stroke-width="0.5"/>
      <path id="Path_95" data-name="Path 95" d="M0,0H567.174" transform="translate(659.5 21.341) rotate(90)" fill="none" stroke="rgba(165,170,188,0.5)" stroke-width="0.5"/>
      <path id="Path_94" data-name="Path 94" d="M0,0H567.174" transform="translate(443.5 21.341) rotate(90)" fill="none" stroke="rgba(165,170,188,0.5)" stroke-width="0.5"/>
      <path id="Path_96" data-name="Path 96" d="M0,0H567.174" transform="translate(875.5 21.341) rotate(90)" fill="none" stroke="rgba(165,170,188,0.5)" stroke-width="0.5"/>
      <path id="Path_97" data-name="Path 97" d="M0,0H567.174" transform="translate(1092.5 21.341) rotate(90)" fill="none" stroke="rgba(165,170,188,0.5)" stroke-width="0.5"/>
      <path id="Path_941" data-name="Path 941" d="M0,0H82" transform="translate(185.75 108.841)" fill="none" stroke="#a1a1a1" stroke-width="1"/>
      <path id="Path_942" data-name="Path 942" d="M2,0A2,2,0,1,1,0,2,2,2,0,0,1,2,0Z" transform="translate(183 106.841)" fill="#a1a1a1"/>
      <path id="Path_943" data-name="Path 943" d="M2,0,4,4H0Z" transform="translate(270 107) rotate(90)" fill="#a1a1a1"/>
      <path id="Path_931" data-name="Path 931" d="M0,0H82" transform="translate(624.75 108.841)" fill="none" stroke="#a1a1a1" stroke-width="1"/>
      <path id="Path_932" data-name="Path 932" d="M2,0A2,2,0,1,1,0,2,2,2,0,0,1,2,0Z" transform="translate(622 106.841)" fill="#a1a1a1"/>
      <path id="Path_933" data-name="Path 933" d="M2,0,4,4H0Z" transform="translate(709 107) rotate(90)" fill="#a1a1a1"/>
      <path id="Path_927" data-name="Path 927" d="M0,0H82" transform="translate(848.75 108.841)" fill="none" stroke="#a1a1a1" stroke-width="1"/>
      <path id="Path_928" data-name="Path 928" d="M2,0A2,2,0,1,1,0,2,2,2,0,0,1,2,0Z" transform="translate(846 106.841)" fill="#a1a1a1"/>
      <path id="Path_929" data-name="Path 929" d="M2,0,4,4H0Z" transform="translate(933 107) rotate(90)" fill="#a1a1a1"/>
      <path id="Path_948" data-name="Path 948" d="M0,0H16.75" transform="translate(335.08 134.903) rotate(90)" fill="none" stroke="#a1a1a1" stroke-width="1"/>
      <path id="Path_949" data-name="Path 949" d="M2,0A2,2,0,1,1,0,2,2,2,0,0,1,2,0Z" transform="translate(337.08 132.338) rotate(90)" fill="#a1a1a1"/>
      <path id="Path_950" data-name="Path 950" d="M2,0,4,4H0Z" transform="translate(336.92 153.516) rotate(180)" fill="#a1a1a1"/>
      <path id="Path_934" data-name="Path 934" d="M2,0A2,2,0,1,1,0,2,2,2,0,0,1,2,0Z" transform="translate(406.125 179.56)" fill="#a1a1a1"/>
      <path id="Path_935" data-name="Path 935" d="M2,0,4,4H0Z" transform="translate(480.625 106.841) rotate(90)" fill="#a1a1a1"/>
      <path id="Path_98" data-name="Path 98" d="M4780.375,286.545h8.875V208h60.083" transform="translate(-4372 -103.011)" fill="none" stroke="#a1a1a1" stroke-width="1"/>
      <path id="Path_936" data-name="Path 936" d="M2,0A2,2,0,1,1,0,2,2,2,0,0,1,2,0Z" transform="translate(773 78.841)" fill="#a1a1a1"/>
      <path id="Path_937" data-name="Path 937" d="M2,0,4,4H0Z" transform="translate(336.92 83.5) rotate(180)" fill="#a1a1a1"/>
      <path id="Path_99" data-name="Path 99" d="M4706.92,178.5v-5.167H5147V178.5" transform="translate(-4372 -99)" fill="none" stroke="#a1a1a1" stroke-width="1"/>
      <path id="Path_939" data-name="Path 939" d="M1.757,0,3.514,4H0Z" transform="translate(771.486 128.886)" fill="#a1a1a1"/>
      <path id="Path_940" data-name="Path 940" d="M1.757,0,3.514,4H0Z" transform="translate(542.92 128.886)" fill="#a1a1a1"/>
      <path id="Path_99-2" data-name="Path 99" d="M0,5.167V0H228.566V5.167" transform="translate(773.243 137.915) rotate(180)" fill="none" stroke="#a1a1a1" stroke-width="1"/>
    </g>
    <g id="Group_1012" data-name="Group 1012" transform="translate(1032 715.743)">
      <g id="Field_1" data-name="Field 1" fill="#fff">
        <path d="M 117.6250076293945 35.75 L 5.000007629394531 35.75 C 2.380853891372681 35.75 0.250007688999176 33.6191520690918 0.250007688999176 31 L 0.250007688999176 5 C 0.250007688999176 2.380846261978149 2.380853891372681 0.25 5.000007629394531 0.25 L 117.6250076293945 0.25 C 120.2441635131836 0.25 122.3750076293945 2.380846261978149 122.3750076293945 5 L 122.3750076293945 31 C 122.3750076293945 33.6191520690918 120.2441635131836 35.75 117.6250076293945 35.75 Z" stroke="none"/>
        <path d="M 4.999992370605469 0.5 C 2.518684387207031 0.5 0.4999923706054688 2.518692016601562 0.4999923706054688 5 L 0.4999923706054688 31 C 0.4999923706054688 33.48130798339844 2.518684387207031 35.5 4.999992370605469 35.5 L 117.6249923706055 35.5 C 120.1063003540039 35.5 122.1249923706055 33.48130798339844 122.1249923706055 31 L 122.1249923706055 5 C 122.1249923706055 2.518692016601562 120.1063003540039 0.5 117.6249923706055 0.5 L 4.999992370605469 0.5 M 4.999992370605469 0 L 117.6249923706055 0 C 120.3864212036133 0 122.6249923706055 2.238567352294922 122.6249923706055 5 L 122.6249923706055 31 C 122.6249923706055 33.76142883300781 120.3864212036133 36 117.6249923706055 36 L 4.999992370605469 36 C 2.238578796386719 36 -7.62939453125e-06 33.76142883300781 -7.62939453125e-06 31 L -7.62939453125e-06 5 C -7.62939453125e-06 2.238567352294922 2.238578796386719 0 4.999992370605469 0 Z" stroke="none" fill="#1f6cb6"/>
      </g>
      <path id="Path_954" data-name="Path 954" d="M5.7-3.768H2.115V0H.99V-8.531H6.275v.92H2.115v2.924H5.7ZM8.631,0H7.547V-9H8.631Zm1.447-3.229A3.745,3.745,0,0,1,10.444-4.9a2.732,2.732,0,0,1,1.02-1.148,2.775,2.775,0,0,1,1.491-.4,2.674,2.674,0,0,1,2.095.9,3.449,3.449,0,0,1,.8,2.385V-3.1A3.777,3.777,0,0,1,15.5-1.438,2.692,2.692,0,0,1,14.481-.293a2.807,2.807,0,0,1-1.515.41,2.667,2.667,0,0,1-2.089-.9,3.432,3.432,0,0,1-.8-2.373Zm1.09.129a2.712,2.712,0,0,0,.489,1.693,1.566,1.566,0,0,0,1.31.639,1.556,1.556,0,0,0,1.313-.647,2.966,2.966,0,0,0,.486-1.813,2.708,2.708,0,0,0-.5-1.69,1.574,1.574,0,0,0-1.315-.647,1.557,1.557,0,0,0-1.295.639A2.944,2.944,0,0,0,11.168-3.1ZM22.822-1.494,24.041-6.34h1.084L23.279,0H22.4L20.859-4.8,19.359,0H18.48l-1.84-6.34h1.078l1.248,4.746L20.443-6.34h.873Zm7.67-1.846V0H29.367V-8.531h3.146a3.161,3.161,0,0,1,2.194.715A2.423,2.423,0,0,1,35.5-5.924a2.391,2.391,0,0,1-.776,1.913A3.3,3.3,0,0,1,32.5-3.34Zm0-.92h2.021A2.021,2.021,0,0,0,33.9-4.685a1.556,1.556,0,0,0,.48-1.23,1.608,1.608,0,0,0-.48-1.221,1.894,1.894,0,0,0-1.318-.475H30.492Zm9.34-1.107a3.248,3.248,0,0,0-.533-.041,1.428,1.428,0,0,0-1.447.908V0H36.768V-6.34h1.055l.018.732a1.688,1.688,0,0,1,1.512-.85,1.107,1.107,0,0,1,.48.082Zm.592,2.139A3.745,3.745,0,0,1,40.79-4.9a2.732,2.732,0,0,1,1.02-1.148,2.775,2.775,0,0,1,1.491-.4,2.674,2.674,0,0,1,2.095.9,3.449,3.449,0,0,1,.8,2.385V-3.1a3.777,3.777,0,0,1-.354,1.661A2.692,2.692,0,0,1,44.827-.293a2.807,2.807,0,0,1-1.515.41,2.667,2.667,0,0,1-2.089-.9,3.432,3.432,0,0,1-.8-2.373Zm1.09.129A2.712,2.712,0,0,0,42-1.406a1.566,1.566,0,0,0,1.31.639,1.556,1.556,0,0,0,1.313-.647,2.966,2.966,0,0,0,.486-1.813,2.708,2.708,0,0,0-.5-1.69A1.574,1.574,0,0,0,43.3-5.566a1.557,1.557,0,0,0-1.295.639A2.944,2.944,0,0,0,41.514-3.1Zm11.4,0a3.8,3.8,0,0,1-.662,2.332,2.122,2.122,0,0,1-1.793.885,2.325,2.325,0,0,1-1.816-.732V2.438H47.555V-6.34h.99l.053.7a2.233,2.233,0,0,1,1.84-.82,2.162,2.162,0,0,1,1.808.861,3.838,3.838,0,0,1,.665,2.4Zm-1.084-.123a2.8,2.8,0,0,0-.457-1.693,1.472,1.472,0,0,0-1.254-.621,1.593,1.593,0,0,0-1.477.873v3.029a1.6,1.6,0,0,0,1.488.867,1.465,1.465,0,0,0,1.239-.618A3.058,3.058,0,0,0,51.826-3.223ZM56.918.117a2.77,2.77,0,0,1-2.1-.847,3.142,3.142,0,0,1-.809-2.265v-.2a3.8,3.8,0,0,1,.36-1.685,2.811,2.811,0,0,1,1.008-1.16,2.534,2.534,0,0,1,1.4-.419,2.374,2.374,0,0,1,1.922.814,3.526,3.526,0,0,1,.686,2.332v.451H55.1a2.254,2.254,0,0,0,.548,1.515,1.722,1.722,0,0,0,1.333.577A1.888,1.888,0,0,0,57.949-1a2.444,2.444,0,0,0,.7-.621l.662.516A2.662,2.662,0,0,1,56.918.117Zm-.135-5.684a1.446,1.446,0,0,0-1.1.478,2.321,2.321,0,0,0-.551,1.339h3.176v-.082a2.065,2.065,0,0,0-.445-1.28A1.361,1.361,0,0,0,56.783-5.566Zm6.926.2a3.248,3.248,0,0,0-.533-.041,1.428,1.428,0,0,0-1.447.908V0H60.645V-6.34H61.7l.018.732a1.688,1.688,0,0,1,1.512-.85,1.107,1.107,0,0,1,.48.082Zm2.76-2.508V-6.34h1.184V-5.5H66.469v3.937a.88.88,0,0,0,.158.572.666.666,0,0,0,.539.191,2.624,2.624,0,0,0,.516-.07V0a3.161,3.161,0,0,1-.832.116,1.35,1.35,0,0,1-1.1-.439,1.888,1.888,0,0,1-.369-1.248V-5.5H64.23V-6.34h1.154V-7.875ZM70.1,0H69.012V-6.34H70.1ZM68.924-8.021a.647.647,0,0,1,.161-.445.6.6,0,0,1,.478-.182.614.614,0,0,1,.48.182.64.64,0,0,1,.164.445.619.619,0,0,1-.164.439.626.626,0,0,1-.48.176.616.616,0,0,1-.478-.176A.626.626,0,0,1,68.924-8.021ZM74.461.117a2.77,2.77,0,0,1-2.1-.847,3.142,3.142,0,0,1-.809-2.265v-.2a3.8,3.8,0,0,1,.36-1.685,2.811,2.811,0,0,1,1.008-1.16,2.534,2.534,0,0,1,1.4-.419,2.374,2.374,0,0,1,1.922.814,3.526,3.526,0,0,1,.686,2.332v.451H72.639a2.254,2.254,0,0,0,.548,1.515,1.722,1.722,0,0,0,1.333.577A1.888,1.888,0,0,0,75.492-1a2.444,2.444,0,0,0,.7-.621l.662.516A2.662,2.662,0,0,1,74.461.117Zm-.135-5.684a1.446,1.446,0,0,0-1.1.478,2.321,2.321,0,0,0-.551,1.339H75.85v-.082a2.065,2.065,0,0,0-.445-1.28A1.361,1.361,0,0,0,74.326-5.566Zm7.553,3.885a.8.8,0,0,0-.331-.683,3.187,3.187,0,0,0-1.154-.419,5.457,5.457,0,0,1-1.307-.422,1.859,1.859,0,0,1-.715-.586,1.4,1.4,0,0,1-.231-.809A1.645,1.645,0,0,1,78.8-5.918a2.574,2.574,0,0,1,1.685-.539,2.649,2.649,0,0,1,1.749.557A1.768,1.768,0,0,1,82.9-4.477h-1.09a.979.979,0,0,0-.378-.768,1.416,1.416,0,0,0-.952-.322,1.482,1.482,0,0,0-.926.258.812.812,0,0,0-.334.674.658.658,0,0,0,.311.592,3.821,3.821,0,0,0,1.122.381,5.847,5.847,0,0,1,1.315.434,1.919,1.919,0,0,1,.747.606,1.491,1.491,0,0,1,.243.864A1.623,1.623,0,0,1,82.283-.4,2.851,2.851,0,0,1,80.52.117a3.193,3.193,0,0,1-1.348-.27,2.192,2.192,0,0,1-.917-.753,1.815,1.815,0,0,1-.331-1.046h1.084a1.122,1.122,0,0,0,.437.864,1.693,1.693,0,0,0,1.075.319,1.748,1.748,0,0,0,.987-.249A.765.765,0,0,0,81.879-1.682Z" transform="translate(28.003 22)" fill="#1f6cb6"/>
      <path id="Path_23" data-name="Path 23" d="M6.18,82.473.673,87.979a.219.219,0,0,0-.057.1l-.61,2.45a.217.217,0,0,0,.21.269.215.215,0,0,0,.052-.007l2.45-.61a.216.216,0,0,0,.1-.057l5.507-5.506Zm0,0" transform="translate(10 -67.8)" fill="#1f6cb6"/>
      <path id="Path_24" data-name="Path 24" d="M337.225,1.166l-.613-.613a1.11,1.11,0,0,0-1.533,0l-.751.751,2.146,2.146.751-.751a1.084,1.084,0,0,0,0-1.533Zm0,0" transform="translate(-317.535 12.755)" fill="#1f6cb6"/>
    </g>
    <g id="Group_1014" data-name="Group 1014" transform="translate(75 715.743)">
      <g id="Field_1-2" data-name="Field 1" fill="#fff">
        <path d="M 142.5 35.75 L 5 35.75 C 2.380836248397827 35.75 0.25 33.61916351318359 0.25 31 L 0.25 5 C 0.25 2.380836248397827 2.380836248397827 0.25 5 0.25 L 142.5 0.25 C 145.1191711425781 0.25 147.25 2.380836248397827 147.25 5 L 147.25 31 C 147.25 33.61916351318359 145.1191711425781 35.75 142.5 35.75 Z" stroke="none"/>
        <path d="M 5 0.5 C 2.518707275390625 0.5 0.5 2.518699645996094 0.5 5 L 0.5 31 C 0.5 33.48130035400391 2.518707275390625 35.5 5 35.5 L 142.5 35.5 C 144.9812927246094 35.5 147 33.48130035400391 147 31 L 147 5 C 147 2.518699645996094 144.9812927246094 0.5 142.5 0.5 L 5 0.5 M 5 0 L 142.5 0 C 145.2614135742188 0 147.5 2.238578796386719 147.5 5 L 147.5 31 C 147.5 33.76142120361328 145.2614135742188 36 142.5 36 L 5 36 C 2.238555908203125 36 0 33.76142120361328 0 31 L 0 5 C 0 2.238578796386719 2.238555908203125 0 5 0 Z" stroke="none" fill="#1f6cb6"/>
      </g>
      <path id="Path_958" data-name="Path 958" d="M7.266-2.707a3.139,3.139,0,0,1-1,2.089A3.274,3.274,0,0,1,4.031.117,3.006,3.006,0,0,1,1.608-.967,4.361,4.361,0,0,1,.7-3.867v-.82a4.861,4.861,0,0,1,.425-2.092,3.173,3.173,0,0,1,1.2-1.386,3.353,3.353,0,0,1,1.8-.483,3.083,3.083,0,0,1,2.18.759,3.176,3.176,0,0,1,.955,2.1H6.135A2.451,2.451,0,0,0,5.5-7.27a1.924,1.924,0,0,0-1.368-.458,2.013,2.013,0,0,0-1.69.8,3.661,3.661,0,0,0-.612,2.269v.827a3.764,3.764,0,0,0,.58,2.211A1.874,1.874,0,0,0,4.031-.8,2.165,2.165,0,0,0,5.47-1.228a2.357,2.357,0,0,0,.665-1.479Zm1.078-.521A3.745,3.745,0,0,1,8.71-4.9a2.732,2.732,0,0,1,1.02-1.148,2.775,2.775,0,0,1,1.491-.4,2.674,2.674,0,0,1,2.095.9,3.449,3.449,0,0,1,.8,2.385V-3.1a3.777,3.777,0,0,1-.354,1.661A2.692,2.692,0,0,1,12.747-.293a2.807,2.807,0,0,1-1.515.41,2.667,2.667,0,0,1-2.089-.9,3.432,3.432,0,0,1-.8-2.373Zm1.09.129a2.712,2.712,0,0,0,.489,1.693,1.566,1.566,0,0,0,1.31.639,1.556,1.556,0,0,0,1.313-.647,2.966,2.966,0,0,0,.486-1.813,2.708,2.708,0,0,0-.5-1.69,1.574,1.574,0,0,0-1.315-.647,1.557,1.557,0,0,0-1.295.639A2.944,2.944,0,0,0,9.434-3.1Zm7.061-3.24.029.7a2.341,2.341,0,0,1,1.881-.82,1.813,1.813,0,0,1,1.811,1.02,2.4,2.4,0,0,1,.823-.738,2.431,2.431,0,0,1,1.2-.281q2.086,0,2.121,2.209V0H23.273V-4.184A1.456,1.456,0,0,0,22.963-5.2a1.368,1.368,0,0,0-1.043-.337,1.437,1.437,0,0,0-1,.36,1.462,1.462,0,0,0-.463.97V0h-1.09V-4.154a1.209,1.209,0,0,0-1.354-1.383,1.45,1.45,0,0,0-1.459.908V0H15.469V-6.34Zm10.518,0,.029.7a2.341,2.341,0,0,1,1.881-.82,1.813,1.813,0,0,1,1.811,1.02,2.4,2.4,0,0,1,.823-.738,2.431,2.431,0,0,1,1.2-.281q2.086,0,2.121,2.209V0H33.791V-4.184A1.456,1.456,0,0,0,33.48-5.2a1.368,1.368,0,0,0-1.043-.337,1.437,1.437,0,0,0-1,.36,1.462,1.462,0,0,0-.463.97V0h-1.09V-4.154a1.209,1.209,0,0,0-1.354-1.383,1.45,1.45,0,0,0-1.459.908V0H25.986V-6.34Zm9.211,3.111A3.745,3.745,0,0,1,36.589-4.9a2.732,2.732,0,0,1,1.02-1.148,2.775,2.775,0,0,1,1.491-.4,2.674,2.674,0,0,1,2.095.9,3.449,3.449,0,0,1,.8,2.385V-3.1a3.777,3.777,0,0,1-.354,1.661A2.692,2.692,0,0,1,40.626-.293a2.807,2.807,0,0,1-1.515.41,2.667,2.667,0,0,1-2.089-.9,3.432,3.432,0,0,1-.8-2.373Zm1.09.129A2.712,2.712,0,0,0,37.8-1.406a1.566,1.566,0,0,0,1.31.639,1.556,1.556,0,0,0,1.313-.647,2.966,2.966,0,0,0,.486-1.813,2.708,2.708,0,0,0-.5-1.69A1.574,1.574,0,0,0,39.1-5.566a1.557,1.557,0,0,0-1.295.639A2.944,2.944,0,0,0,37.313-3.1Zm7.066-3.24.035.8a2.31,2.31,0,0,1,1.9-.914q2.01,0,2.027,2.268V0H47.256V-4.2a1.459,1.459,0,0,0-.313-1.014,1.256,1.256,0,0,0-.958-.328,1.564,1.564,0,0,0-.926.281,1.91,1.91,0,0,0-.621.738V0H43.354V-6.34Zm14.4-1.271H56.033V0H54.914V-7.611H52.178v-.92h6.6ZM63.123,0a2.277,2.277,0,0,1-.152-.668,2.419,2.419,0,0,1-1.8.785,2.238,2.238,0,0,1-1.538-.53,1.716,1.716,0,0,1-.6-1.345A1.792,1.792,0,0,1,59.78-3.3,3.55,3.55,0,0,1,61.9-3.844h1.055v-.5a1.217,1.217,0,0,0-.34-.905,1.366,1.366,0,0,0-1-.337,1.581,1.581,0,0,0-.973.293.863.863,0,0,0-.393.709h-1.09a1.5,1.5,0,0,1,.337-.917,2.3,2.3,0,0,1,.914-.7,3.075,3.075,0,0,1,1.269-.258,2.506,2.506,0,0,1,1.717.548A1.976,1.976,0,0,1,64.037-4.4v2.918A3.567,3.567,0,0,0,64.26-.094V0Zm-1.8-.826a1.905,1.905,0,0,0,.967-.264,1.6,1.6,0,0,0,.662-.686v-1.3H62.1q-1.992,0-1.992,1.166a.987.987,0,0,0,.34.8A1.306,1.306,0,0,0,61.324-.826ZM68.8-5.367a3.248,3.248,0,0,0-.533-.041A1.428,1.428,0,0,0,66.82-4.5V0H65.736V-6.34h1.055l.018.732a1.688,1.688,0,0,1,1.512-.85,1.107,1.107,0,0,1,.48.082Zm.627,2.145a3.726,3.726,0,0,1,.686-2.358,2.192,2.192,0,0,1,1.816-.876,2.181,2.181,0,0,1,1.811.82l.053-.7h.99V-.152a2.579,2.579,0,0,1-.729,1.939,2.692,2.692,0,0,1-1.96.709A3.261,3.261,0,0,1,70.752,2.2a2.31,2.31,0,0,1-1-.8l.563-.65a2.12,2.12,0,0,0,1.705.861,1.661,1.661,0,0,0,1.233-.445,1.7,1.7,0,0,0,.442-1.254V-.633a2.228,2.228,0,0,1-1.775.75,2.166,2.166,0,0,1-1.8-.9A3.918,3.918,0,0,1,69.428-3.223Zm1.09.123a2.843,2.843,0,0,0,.439,1.685,1.428,1.428,0,0,0,1.23.612,1.588,1.588,0,0,0,1.506-.932V-4.629A1.606,1.606,0,0,0,72.2-5.537a1.441,1.441,0,0,0-1.236.615A3.1,3.1,0,0,0,70.518-3.1ZM79.049.117a2.77,2.77,0,0,1-2.1-.847,3.142,3.142,0,0,1-.809-2.265v-.2a3.8,3.8,0,0,1,.36-1.685,2.811,2.811,0,0,1,1.008-1.16,2.534,2.534,0,0,1,1.4-.419,2.374,2.374,0,0,1,1.922.814,3.526,3.526,0,0,1,.686,2.332v.451H77.227a2.254,2.254,0,0,0,.548,1.515,1.722,1.722,0,0,0,1.333.577A1.888,1.888,0,0,0,80.08-1a2.444,2.444,0,0,0,.7-.621l.662.516A2.662,2.662,0,0,1,79.049.117Zm-.135-5.684a1.446,1.446,0,0,0-1.1.478,2.321,2.321,0,0,0-.551,1.339h3.176v-.082a2.065,2.065,0,0,0-.445-1.28A1.361,1.361,0,0,0,78.914-5.566Zm5.332-2.309V-6.34H85.43V-5.5H84.246v3.937a.88.88,0,0,0,.158.572.666.666,0,0,0,.539.191,2.624,2.624,0,0,0,.516-.07V0a3.161,3.161,0,0,1-.832.116,1.35,1.35,0,0,1-1.1-.439,1.888,1.888,0,0,1-.369-1.248V-5.5H82.008V-6.34h1.154V-7.875Zm6.141,6.193a.8.8,0,0,0-.331-.683A3.187,3.187,0,0,0,88.9-2.783a5.457,5.457,0,0,1-1.307-.422,1.859,1.859,0,0,1-.715-.586,1.4,1.4,0,0,1-.231-.809,1.645,1.645,0,0,1,.659-1.318,2.574,2.574,0,0,1,1.685-.539,2.649,2.649,0,0,1,1.749.557,1.768,1.768,0,0,1,.671,1.424h-1.09a.979.979,0,0,0-.378-.768,1.416,1.416,0,0,0-.952-.322,1.482,1.482,0,0,0-.926.258.812.812,0,0,0-.334.674.658.658,0,0,0,.311.592,3.821,3.821,0,0,0,1.122.381,5.847,5.847,0,0,1,1.315.434,1.919,1.919,0,0,1,.747.606,1.491,1.491,0,0,1,.243.864A1.623,1.623,0,0,1,90.791-.4a2.851,2.851,0,0,1-1.764.513,3.193,3.193,0,0,1-1.348-.27,2.192,2.192,0,0,1-.917-.753,1.815,1.815,0,0,1-.331-1.046h1.084a1.122,1.122,0,0,0,.437.864,1.693,1.693,0,0,0,1.075.319,1.748,1.748,0,0,0,.987-.249A.765.765,0,0,0,90.387-1.682ZM92.848-.568a.679.679,0,0,1,.167-.469.636.636,0,0,1,.5-.187.655.655,0,0,1,.507.188.665.665,0,0,1,.173.469.629.629,0,0,1-.173.451.667.667,0,0,1-.507.182.648.648,0,0,1-.5-.182A.641.641,0,0,1,92.848-.568Zm.006-5.174a.679.679,0,0,1,.167-.469.636.636,0,0,1,.5-.187.655.655,0,0,1,.507.188.665.665,0,0,1,.173.469.629.629,0,0,1-.173.451.667.667,0,0,1-.507.182.648.648,0,0,1-.5-.182A.641.641,0,0,1,92.854-5.742Z" transform="translate(12 22)" fill="#0c2339"/>
      <path id="Path_959" data-name="Path 959" d="M9.5,0A9.5,9.5,0,1,1,0,9.5,9.5,9.5,0,0,1,9.5,0Z" transform="translate(116 8.5)" fill="#4dc0ed"/>
      <path id="Path_960" data-name="Path 960" d="M5.049-3.032A4.131,4.131,0,0,1,4.507-.674,1.928,1.928,0,0,1,2.813.1,1.942,1.942,0,0,1,1.128-.657,3.921,3.921,0,0,1,.562-2.91V-4.116A4.039,4.039,0,0,1,1.1-6.445a1.942,1.942,0,0,1,1.7-.762,1.96,1.96,0,0,1,1.689.735A3.9,3.9,0,0,1,5.049-4.2Zm-.9-1.235A3.31,3.31,0,0,0,3.823-5.94,1.109,1.109,0,0,0,2.8-6.465a1.1,1.1,0,0,0-1.011.522,3.232,3.232,0,0,0-.327,1.606v1.445a3.363,3.363,0,0,0,.334,1.7A1.107,1.107,0,0,0,2.813-.64a1.092,1.092,0,0,0,.994-.518,3.241,3.241,0,0,0,.339-1.631Z" transform="translate(122.5 21.5)" fill="#fff"/>
    </g>
    <g id="Group_1013" data-name="Group 1013" transform="translate(229 715.743)">
      <g id="Field_1-3" data-name="Field 1" fill="#fff">
        <path d="M 125.5 35.75 L 5 35.75 C 2.380833387374878 35.75 0.25 33.61916732788086 0.25 31 L 0.25 5 C 0.25 2.380833387374878 2.380833387374878 0.25 5 0.25 L 125.5 0.25 C 128.1191711425781 0.25 130.25 2.380833387374878 130.25 5 L 130.25 31 C 130.25 33.61916732788086 128.1191711425781 35.75 125.5 35.75 Z" stroke="none"/>
        <path d="M 5 0.5 C 2.518684387207031 0.5 0.5 2.518684387207031 0.5 5 L 0.5 31 C 0.5 33.48131561279297 2.518684387207031 35.5 5 35.5 L 125.5 35.5 C 127.981315612793 35.5 130 33.48131561279297 130 31 L 130 5 C 130 2.518684387207031 127.981315612793 0.5 125.5 0.5 L 5 0.5 M 5 0 L 125.5 0 C 128.2614288330078 0 130.5 2.238567352294922 130.5 5 L 130.5 31 C 130.5 33.76141738891602 128.2614288330078 36 125.5 36 L 5 36 C 2.238571166992188 36 0 33.76141738891602 0 31 L 0 5 C 0 2.238567352294922 2.238571166992188 0 5 0 Z" stroke="none" fill="#1f6cb6"/>
      </g>
      <path id="Path_955" data-name="Path 955" d="M2.121-.92H6.164V0H.99V-8.531H2.121ZM8.455,0H7.371V-6.34H8.455ZM7.283-8.021a.647.647,0,0,1,.161-.445.6.6,0,0,1,.478-.182.614.614,0,0,1,.48.182.64.64,0,0,1,.164.445.619.619,0,0,1-.164.439.626.626,0,0,1-.48.176.616.616,0,0,1-.478-.176A.626.626,0,0,1,7.283-8.021ZM11.215-6.34l.035.8a2.31,2.31,0,0,1,1.9-.914q2.01,0,2.027,2.268V0H14.092V-4.2a1.459,1.459,0,0,0-.313-1.014,1.256,1.256,0,0,0-.958-.328,1.564,1.564,0,0,0-.926.281,1.91,1.91,0,0,0-.621.738V0H10.189V-6.34Zm7.365,3.4-.68.709V0H16.816V-9H17.9v5.443l.58-.7L20.455-6.34h1.318L19.307-3.691,22.061,0H20.789ZM25.406.117a2.77,2.77,0,0,1-2.1-.847A3.142,3.142,0,0,1,22.5-2.994v-.2a3.8,3.8,0,0,1,.36-1.685,2.811,2.811,0,0,1,1.008-1.16,2.534,2.534,0,0,1,1.4-.419,2.374,2.374,0,0,1,1.922.814,3.526,3.526,0,0,1,.686,2.332v.451H23.584a2.254,2.254,0,0,0,.548,1.515,1.722,1.722,0,0,0,1.333.577A1.888,1.888,0,0,0,26.438-1a2.444,2.444,0,0,0,.7-.621l.662.516A2.662,2.662,0,0,1,25.406.117Zm-.135-5.684a1.446,1.446,0,0,0-1.1.478,2.321,2.321,0,0,0-.551,1.339h3.176v-.082a2.065,2.065,0,0,0-.445-1.28A1.361,1.361,0,0,0,25.271-5.566Zm3.6,2.344a3.714,3.714,0,0,1,.691-2.347,2.186,2.186,0,0,1,1.811-.888,2.2,2.2,0,0,1,1.764.762V-9h1.084V0h-1L33.17-.68a2.208,2.208,0,0,1-1.811.8,2.165,2.165,0,0,1-1.8-.9,3.756,3.756,0,0,1-.694-2.355Zm1.084.123A2.812,2.812,0,0,0,30.4-1.412a1.44,1.44,0,0,0,1.23.609,1.581,1.581,0,0,0,1.506-.926V-4.641a1.593,1.593,0,0,0-1.494-.9,1.446,1.446,0,0,0-1.242.615A3.1,3.1,0,0,0,29.953-3.1Zm13.793-.668h-3.58V0H39.041V-8.531h5.285v.92h-4.16v2.924h3.58ZM46.682,0H45.6V-9h1.084Zm1.447-3.229A3.745,3.745,0,0,1,48.5-4.9a2.732,2.732,0,0,1,1.02-1.148,2.775,2.775,0,0,1,1.491-.4,2.674,2.674,0,0,1,2.095.9,3.449,3.449,0,0,1,.8,2.385V-3.1a3.777,3.777,0,0,1-.354,1.661A2.692,2.692,0,0,1,52.532-.293a2.807,2.807,0,0,1-1.515.41,2.667,2.667,0,0,1-2.089-.9,3.432,3.432,0,0,1-.8-2.373Zm1.09.129a2.712,2.712,0,0,0,.489,1.693,1.566,1.566,0,0,0,1.31.639,1.556,1.556,0,0,0,1.313-.647,2.966,2.966,0,0,0,.486-1.813,2.708,2.708,0,0,0-.5-1.69,1.574,1.574,0,0,0-1.315-.647,1.557,1.557,0,0,0-1.295.639A2.944,2.944,0,0,0,49.219-3.1ZM60.873-1.494,62.092-6.34h1.084L61.33,0h-.879L58.91-4.8,57.41,0h-.879l-1.84-6.34H55.77l1.248,4.746L58.494-6.34h.873Zm7.1-.187a.8.8,0,0,0-.331-.683,3.187,3.187,0,0,0-1.154-.419,5.457,5.457,0,0,1-1.307-.422,1.859,1.859,0,0,1-.715-.586A1.4,1.4,0,0,1,64.23-4.6a1.645,1.645,0,0,1,.659-1.318,2.574,2.574,0,0,1,1.685-.539,2.649,2.649,0,0,1,1.749.557,1.768,1.768,0,0,1,.671,1.424H67.9a.979.979,0,0,0-.378-.768,1.416,1.416,0,0,0-.952-.322,1.482,1.482,0,0,0-.926.258.812.812,0,0,0-.334.674.658.658,0,0,0,.311.592,3.821,3.821,0,0,0,1.122.381,5.847,5.847,0,0,1,1.315.434,1.919,1.919,0,0,1,.747.606,1.491,1.491,0,0,1,.243.864A1.623,1.623,0,0,1,68.373-.4a2.851,2.851,0,0,1-1.764.513,3.193,3.193,0,0,1-1.348-.27,2.192,2.192,0,0,1-.917-.753,1.815,1.815,0,0,1-.331-1.046H65.1a1.122,1.122,0,0,0,.437.864,1.693,1.693,0,0,0,1.075.319,1.748,1.748,0,0,0,.987-.249A.765.765,0,0,0,67.969-1.682ZM70.43-.568a.679.679,0,0,1,.167-.469.636.636,0,0,1,.5-.187.655.655,0,0,1,.507.188.665.665,0,0,1,.173.469.629.629,0,0,1-.173.451A.667.667,0,0,1,71.1.064a.648.648,0,0,1-.5-.182A.641.641,0,0,1,70.43-.568Zm.006-5.174a.679.679,0,0,1,.167-.469.636.636,0,0,1,.5-.187.655.655,0,0,1,.507.188.665.665,0,0,1,.173.469.629.629,0,0,1-.173.451.667.667,0,0,1-.507.182.648.648,0,0,1-.5-.182A.641.641,0,0,1,70.436-5.742Z" transform="translate(12 22)" fill="#0c2339"/>
      <path id="Path_956" data-name="Path 956" d="M5,0H20a5,5,0,0,1,5,5V17a5,5,0,0,1-5,5H5a5,5,0,0,1-5-5V5A5,5,0,0,1,5,0Z" transform="translate(93 7.257)" fill="#1f6cb6"/>
      <path id="Path_957" data-name="Path 957" d="M5.049-3.032A4.131,4.131,0,0,1,4.507-.674,1.928,1.928,0,0,1,2.813.1,1.942,1.942,0,0,1,1.128-.657,3.921,3.921,0,0,1,.562-2.91V-4.116A4.039,4.039,0,0,1,1.1-6.445a1.942,1.942,0,0,1,1.7-.762,1.96,1.96,0,0,1,1.689.735A3.9,3.9,0,0,1,5.049-4.2Zm-.9-1.235A3.31,3.31,0,0,0,3.823-5.94,1.109,1.109,0,0,0,2.8-6.465a1.1,1.1,0,0,0-1.011.522,3.232,3.232,0,0,0-.327,1.606v1.445a3.363,3.363,0,0,0,.334,1.7A1.107,1.107,0,0,0,2.813-.64a1.092,1.092,0,0,0,.994-.518,3.241,3.241,0,0,0,.339-1.631Z" transform="translate(102.5 21.5)" fill="#fff"/>
    </g>
  </g>
</svg>
