<svg xmlns="http://www.w3.org/2000/svg" width="10.667" height="10.667" viewBox="0 0 10.667 10.667">
  <g id="Group_1116" data-name="Group 1116" transform="translate(-355.833 -327.46)">
    <path id="Path_1044" data-name="Path 1044" d="M5.333,0A5.333,5.333,0,1,1,0,5.333,5.333,5.333,0,0,1,5.333,0Z" transform="translate(355.833 327.46)" fill="#3cca8e"/>
    <path id="Path_1045" data-name="Path 1045" d="M1.143-2.4H1.55a.9.9,0,0,0,.6-.2.675.675,0,0,0,.22-.53.662.662,0,0,0-.747-.75.777.777,0,0,0-.561.2.7.7,0,0,0-.209.532H.313a1.088,1.088,0,0,1,.371-.842,1.35,1.35,0,0,1,.942-.335A1.334,1.334,0,0,1,2.572-4a1.154,1.154,0,0,1,.343.888.936.936,0,0,1-.18.539,1.088,1.088,0,0,1-.491.39,1.048,1.048,0,0,1,.543.369,1.025,1.025,0,0,1,.192.63A1.164,1.164,0,0,1,2.6-.278a1.4,1.4,0,0,1-.976.337A1.441,1.441,0,0,1,.652-.267a1.079,1.079,0,0,1-.376-.858H.82a.7.7,0,0,0,.22.539.836.836,0,0,0,.589.2.82.82,0,0,0,.6-.205.79.79,0,0,0,.208-.589.717.717,0,0,0-.229-.571,1,1,0,0,0-.659-.205H1.143Z" transform="translate(359.5 335.126)" fill="#fff"/>
  </g>
</svg>
