<svg xmlns="http://www.w3.org/2000/svg" xmlns:xlink="http://www.w3.org/1999/xlink" width="549" height="229.5" viewBox="0 0 549 229.5">
  <defs>
    <clipPath id="clip-path">
      <path id="Path_125" data-name="Path 125" d="M0,0H11.75V11.75H0Z" fill="none"/>
    </clipPath>
    <clipPath id="clip-path-2">
      <rect id="Rectangle_45" data-name="Rectangle 45" width="549" height="229" rx="5" transform="translate(393 373)" fill="none" stroke="rgba(165,170,188,0.5)" stroke-width="1"/>
    </clipPath>
  </defs>
  <g id="Group_1118" data-name="Group 1118" transform="translate(-420 -294)">
    <path id="Path_1197" data-name="Path 1197" d="M5,0H544a5,5,0,0,1,5,5V224a5,5,0,0,1-5,5H5a5,5,0,0,1-5-5V5A5,5,0,0,1,5,0Z" transform="translate(420 294)" fill="#fff"/>
    <path id="Path_1198" data-name="Path 1198" d="M132.5.5H0v-1H132.5Z" transform="translate(420 367.996)" fill="rgba(165,170,188,0.5)"/>
    <path id="Path_1199" data-name="Path 1199" d="M6.289,0H5.347V-3.286H1.763V0H.825V-7.109h.938v3.057H5.347V-7.109h.942Zm6.895-2.256a2.616,2.616,0,0,1-.833,1.741A2.728,2.728,0,0,1,10.488.1a2.505,2.505,0,0,1-2.019-.9A3.634,3.634,0,0,1,7.71-3.223v-.684a4.051,4.051,0,0,1,.354-1.743,2.644,2.644,0,0,1,1-1.155,2.794,2.794,0,0,1,1.5-.4,2.569,2.569,0,0,1,1.816.632,2.647,2.647,0,0,1,.8,1.75h-.942a2.043,2.043,0,0,0-.53-1.234,1.6,1.6,0,0,0-1.14-.382,1.677,1.677,0,0,0-1.409.665,3.051,3.051,0,0,0-.51,1.891V-3.2a3.136,3.136,0,0,0,.483,1.842,1.562,1.562,0,0,0,1.353.684,1.8,1.8,0,0,0,1.2-.354,1.964,1.964,0,0,0,.554-1.233Zm5.205.4H15.41L14.741,0h-.967l2.715-7.109h.82L20.029,0h-.962Zm-2.7-.767H18.11L16.9-5.952Zm7.031-.024H20.342v-.737h2.383Zm5.244-.381a4.131,4.131,0,0,1-.542,2.358A1.928,1.928,0,0,1,25.732.1a1.942,1.942,0,0,1-1.685-.754,3.921,3.921,0,0,1-.566-2.253V-4.116a4.039,4.039,0,0,1,.542-2.329,1.942,1.942,0,0,1,1.7-.762,1.96,1.96,0,0,1,1.689.735A3.9,3.9,0,0,1,27.969-4.2Zm-.9-1.235a3.31,3.31,0,0,0-.322-1.672,1.109,1.109,0,0,0-1.021-.525,1.1,1.1,0,0,0-1.011.522,3.232,3.232,0,0,0-.327,1.606v1.445a3.363,3.363,0,0,0,.334,1.7,1.107,1.107,0,0,0,1.013.549,1.092,1.092,0,0,0,.994-.518,3.241,3.241,0,0,0,.339-1.631Zm6.519,1.235a4.131,4.131,0,0,1-.542,2.358A1.928,1.928,0,0,1,31.348.1a1.942,1.942,0,0,1-1.685-.754A3.921,3.921,0,0,1,29.1-2.91V-4.116a4.039,4.039,0,0,1,.542-2.329,1.942,1.942,0,0,1,1.7-.762,1.96,1.96,0,0,1,1.689.735A3.9,3.9,0,0,1,33.584-4.2Zm-.9-1.235a3.31,3.31,0,0,0-.322-1.672,1.109,1.109,0,0,0-1.021-.525,1.1,1.1,0,0,0-1.011.522A3.232,3.232,0,0,0,30-4.336v1.445a3.363,3.363,0,0,0,.334,1.7,1.107,1.107,0,0,0,1.013.549,1.092,1.092,0,0,0,.994-.518,3.241,3.241,0,0,0,.339-1.631ZM37.71,0H36.8V-6.021l-1.821.669v-.82l2.588-.972h.142Zm3.96-3.994h.679a1.492,1.492,0,0,0,1.006-.337,1.126,1.126,0,0,0,.366-.884,1.1,1.1,0,0,0-1.245-1.25,1.3,1.3,0,0,0-.935.334,1.171,1.171,0,0,0-.349.886h-.9a1.814,1.814,0,0,1,.618-1.4,2.25,2.25,0,0,1,1.57-.559,2.224,2.224,0,0,1,1.577.532A1.923,1.923,0,0,1,44.624-5.2a1.561,1.561,0,0,1-.3.9,1.813,1.813,0,0,1-.818.649,1.747,1.747,0,0,1,.906.615,1.709,1.709,0,0,1,.32,1.05,1.939,1.939,0,0,1-.625,1.519A2.34,2.34,0,0,1,42.48.1a2.4,2.4,0,0,1-1.628-.542,1.8,1.8,0,0,1-.627-1.431h.908a1.162,1.162,0,0,0,.366.9,1.393,1.393,0,0,0,.981.337,1.367,1.367,0,0,0,1-.342,1.317,1.317,0,0,0,.347-.981,1.2,1.2,0,0,0-.381-.952,1.659,1.659,0,0,0-1.1-.342H41.67Z" transform="translate(458 318.252)" fill="#0c2339"/>
    <path id="Path_1200" data-name="Path 1200" d="M6.289,0H5.347V-3.286H1.763V0H.825V-7.109h.938v3.057H5.347V-7.109h.942Zm6.895-2.256a2.616,2.616,0,0,1-.833,1.741A2.728,2.728,0,0,1,10.488.1a2.505,2.505,0,0,1-2.019-.9A3.634,3.634,0,0,1,7.71-3.223v-.684a4.051,4.051,0,0,1,.354-1.743,2.644,2.644,0,0,1,1-1.155,2.794,2.794,0,0,1,1.5-.4,2.569,2.569,0,0,1,1.816.632,2.647,2.647,0,0,1,.8,1.75h-.942a2.043,2.043,0,0,0-.53-1.234,1.6,1.6,0,0,0-1.14-.382,1.677,1.677,0,0,0-1.409.665,3.051,3.051,0,0,0-.51,1.891V-3.2a3.136,3.136,0,0,0,.483,1.842,1.562,1.562,0,0,0,1.353.684,1.8,1.8,0,0,0,1.2-.354,1.964,1.964,0,0,0,.554-1.233Zm5.205.4H15.41L14.741,0h-.967l2.715-7.109h.82L20.029,0h-.962Zm-2.7-.767H18.11L16.9-5.952Zm7.031-.024H20.342v-.737h2.383Zm5.244-.381a4.131,4.131,0,0,1-.542,2.358A1.928,1.928,0,0,1,25.732.1a1.942,1.942,0,0,1-1.685-.754,3.921,3.921,0,0,1-.566-2.253V-4.116a4.039,4.039,0,0,1,.542-2.329,1.942,1.942,0,0,1,1.7-.762,1.96,1.96,0,0,1,1.689.735A3.9,3.9,0,0,1,27.969-4.2Zm-.9-1.235a3.31,3.31,0,0,0-.322-1.672,1.109,1.109,0,0,0-1.021-.525,1.1,1.1,0,0,0-1.011.522,3.232,3.232,0,0,0-.327,1.606v1.445a3.363,3.363,0,0,0,.334,1.7,1.107,1.107,0,0,0,1.013.549,1.092,1.092,0,0,0,.994-.518,3.241,3.241,0,0,0,.339-1.631Zm6.519,1.235a4.131,4.131,0,0,1-.542,2.358A1.928,1.928,0,0,1,31.348.1a1.942,1.942,0,0,1-1.685-.754A3.921,3.921,0,0,1,29.1-2.91V-4.116a4.039,4.039,0,0,1,.542-2.329,1.942,1.942,0,0,1,1.7-.762,1.96,1.96,0,0,1,1.689.735A3.9,3.9,0,0,1,33.584-4.2Zm-.9-1.235a3.31,3.31,0,0,0-.322-1.672,1.109,1.109,0,0,0-1.021-.525,1.1,1.1,0,0,0-1.011.522A3.232,3.232,0,0,0,30-4.336v1.445a3.363,3.363,0,0,0,.334,1.7,1.107,1.107,0,0,0,1.013.549,1.092,1.092,0,0,0,.994-.518,3.241,3.241,0,0,0,.339-1.631ZM37.71,0H36.8V-6.021l-1.821.669v-.82l2.588-.972h.142Zm6.46-2.388h.986v.737H44.17V0h-.908V-1.65H40.024v-.532l3.184-4.927h.962Zm-3.12,0h2.212V-5.874l-.107.2Z" transform="translate(458 354.252)" fill="#0c2339"/>
    <path id="Path_1201" data-name="Path 1201" d="M6.289,0H5.347V-3.286H1.763V0H.825V-7.109h.938v3.057H5.347V-7.109h.942Zm6.895-2.256a2.616,2.616,0,0,1-.833,1.741A2.728,2.728,0,0,1,10.488.1a2.505,2.505,0,0,1-2.019-.9A3.634,3.634,0,0,1,7.71-3.223v-.684a4.051,4.051,0,0,1,.354-1.743,2.644,2.644,0,0,1,1-1.155,2.794,2.794,0,0,1,1.5-.4,2.569,2.569,0,0,1,1.816.632,2.647,2.647,0,0,1,.8,1.75h-.942a2.043,2.043,0,0,0-.53-1.234,1.6,1.6,0,0,0-1.14-.382,1.677,1.677,0,0,0-1.409.665,3.051,3.051,0,0,0-.51,1.891V-3.2a3.136,3.136,0,0,0,.483,1.842,1.562,1.562,0,0,0,1.353.684,1.8,1.8,0,0,0,1.2-.354,1.964,1.964,0,0,0,.554-1.233Zm5.205.4H15.41L14.741,0h-.967l2.715-7.109h.82L20.029,0h-.962Zm-2.7-.767H18.11L16.9-5.952Zm7.031-.024H20.342v-.737h2.383Zm5.244-.381a4.131,4.131,0,0,1-.542,2.358A1.928,1.928,0,0,1,25.732.1a1.942,1.942,0,0,1-1.685-.754,3.921,3.921,0,0,1-.566-2.253V-4.116a4.039,4.039,0,0,1,.542-2.329,1.942,1.942,0,0,1,1.7-.762,1.96,1.96,0,0,1,1.689.735A3.9,3.9,0,0,1,27.969-4.2Zm-.9-1.235a3.31,3.31,0,0,0-.322-1.672,1.109,1.109,0,0,0-1.021-.525,1.1,1.1,0,0,0-1.011.522,3.232,3.232,0,0,0-.327,1.606v1.445a3.363,3.363,0,0,0,.334,1.7,1.107,1.107,0,0,0,1.013.549,1.092,1.092,0,0,0,.994-.518,3.241,3.241,0,0,0,.339-1.631Zm6.519,1.235a4.131,4.131,0,0,1-.542,2.358A1.928,1.928,0,0,1,31.348.1a1.942,1.942,0,0,1-1.685-.754A3.921,3.921,0,0,1,29.1-2.91V-4.116a4.039,4.039,0,0,1,.542-2.329,1.942,1.942,0,0,1,1.7-.762,1.96,1.96,0,0,1,1.689.735A3.9,3.9,0,0,1,33.584-4.2Zm-.9-1.235a3.31,3.31,0,0,0-.322-1.672,1.109,1.109,0,0,0-1.021-.525,1.1,1.1,0,0,0-1.011.522A3.232,3.232,0,0,0,30-4.336v1.445a3.363,3.363,0,0,0,.334,1.7,1.107,1.107,0,0,0,1.013.549,1.092,1.092,0,0,0,.994-.518,3.241,3.241,0,0,0,.339-1.631ZM37.71,0H36.8V-6.021l-1.821.669v-.82l2.588-.972h.142Zm6.46-2.388h.986v.737H44.17V0h-.908V-1.65H40.024v-.532l3.184-4.927h.962Zm-3.12,0h2.212V-5.874l-.107.2Z" transform="translate(458 390.252)" fill="#0c2339"/>
    <path id="Path_1203" data-name="Path 1203" d="M9.5,0A9.5,9.5,0,1,1,0,9.5,9.5,9.5,0,0,1,9.5,0Z" transform="translate(432.75 305.252)" fill="#4dc0ed"/>
    <path id="Path_1204" data-name="Path 1204" d="M9.5,0A9.5,9.5,0,1,1,0,9.5,9.5,9.5,0,0,1,9.5,0Z" transform="translate(432.75 341.748)" fill="#4dc0ed"/>
    <path id="Path_1205" data-name="Path 1205" d="M9.5,0A9.5,9.5,0,1,1,0,9.5,9.5,9.5,0,0,1,9.5,0Z" transform="translate(432.75 377.748)" fill="#4dc0ed"/>
    <path id="Path_1206" data-name="Path 1206" d="M9.5,0A9.5,9.5,0,1,1,0,9.5,9.5,9.5,0,0,1,9.5,0Z" transform="translate(516 305.252)" fill="#fe746e"/>
    <path id="Path_1207" data-name="Path 1207" d="M9.5,0A9.5,9.5,0,1,1,0,9.5,9.5,9.5,0,0,1,9.5,0Z" transform="translate(516 341.748)" fill="#fe746e"/>
    <path id="Path_1208" data-name="Path 1208" d="M9.5,0A9.5,9.5,0,1,1,0,9.5,9.5,9.5,0,0,1,9.5,0Z" transform="translate(516 377.748)" fill="#fe746e"/>
    <path id="Path_1209" data-name="Path 1209" d="M1.424,0H1.061V-2.408l-.729.268v-.328l1.035-.389h.057ZM3.09,5H1.227V4.74l.984-1.094a2.339,2.339,0,0,0,.3-.4A.673.673,0,0,0,2.6,2.922a.51.51,0,0,0-.135-.365A.471.471,0,0,0,2.1,2.414a.558.558,0,0,0-.419.153.586.586,0,0,0-.149.427H1.172a.839.839,0,0,1,.253-.635A.938.938,0,0,1,2.1,2.117a.9.9,0,0,1,.627.208.71.71,0,0,1,.23.554,1.627,1.627,0,0,1-.535,1l-.762.826H3.09Zm.643,3.4H4a.6.6,0,0,0,.4-.135.45.45,0,0,0,.146-.354.441.441,0,0,0-.5-.5.518.518,0,0,0-.374.134.468.468,0,0,0-.14.354H3.18a.725.725,0,0,1,.247-.562.9.9,0,0,1,.628-.224.889.889,0,0,1,.631.213.769.769,0,0,1,.229.592.624.624,0,0,1-.12.359.725.725,0,0,1-.327.26.7.7,0,0,1,.362.246.683.683,0,0,1,.128.42.776.776,0,0,1-.25.607.936.936,0,0,1-.65.225.961.961,0,0,1-.651-.217.719.719,0,0,1-.251-.572h.363a.465.465,0,0,0,.146.359.557.557,0,0,0,.393.135.547.547,0,0,0,.4-.137A.527.527,0,0,0,4.6,9.215a.478.478,0,0,0-.152-.381A.664.664,0,0,0,4,8.7H3.732Z" transform="translate(440 348.496)" fill="#fff"/>
    <path id="Path_1210" data-name="Path 1210" d="M1.424,0H1.061V-2.408l-.729.268v-.328l1.035-.389h.057ZM3.09,5H1.227V4.74l.984-1.094a2.339,2.339,0,0,0,.3-.4A.673.673,0,0,0,2.6,2.922a.51.51,0,0,0-.135-.365A.471.471,0,0,0,2.1,2.414a.558.558,0,0,0-.419.153.586.586,0,0,0-.149.427H1.172a.839.839,0,0,1,.253-.635A.938.938,0,0,1,2.1,2.117a.9.9,0,0,1,.627.208.71.71,0,0,1,.23.554,1.627,1.627,0,0,1-.535,1l-.762.826H3.09Zm.643,3.4H4a.6.6,0,0,0,.4-.135.45.45,0,0,0,.146-.354.441.441,0,0,0-.5-.5.518.518,0,0,0-.374.134.468.468,0,0,0-.14.354H3.18a.725.725,0,0,1,.247-.562.9.9,0,0,1,.628-.224.889.889,0,0,1,.631.213.769.769,0,0,1,.229.592.624.624,0,0,1-.12.359.725.725,0,0,1-.327.26.7.7,0,0,1,.362.246.683.683,0,0,1,.128.42.776.776,0,0,1-.25.607.936.936,0,0,1-.65.225.961.961,0,0,1-.651-.217.719.719,0,0,1-.251-.572h.363a.465.465,0,0,0,.146.359.557.557,0,0,0,.393.135.547.547,0,0,0,.4-.137A.527.527,0,0,0,4.6,9.215a.478.478,0,0,0-.152-.381A.664.664,0,0,0,4,8.7H3.732Z" transform="translate(440 384.496)" fill="#fff"/>
    <path id="Path_1211" data-name="Path 1211" d="M1.424,0H1.061V-2.408l-.729.268v-.328l1.035-.389h.057ZM3.09,5H1.227V4.74l.984-1.094a2.339,2.339,0,0,0,.3-.4A.673.673,0,0,0,2.6,2.922a.51.51,0,0,0-.135-.365A.471.471,0,0,0,2.1,2.414a.558.558,0,0,0-.419.153.586.586,0,0,0-.149.427H1.172a.839.839,0,0,1,.253-.635A.938.938,0,0,1,2.1,2.117a.9.9,0,0,1,.627.208.71.71,0,0,1,.23.554,1.627,1.627,0,0,1-.535,1l-.762.826H3.09Zm.643,3.4H4a.6.6,0,0,0,.4-.135.45.45,0,0,0,.146-.354.441.441,0,0,0-.5-.5.518.518,0,0,0-.374.134.468.468,0,0,0-.14.354H3.18a.725.725,0,0,1,.247-.562.9.9,0,0,1,.628-.224.889.889,0,0,1,.631.213.769.769,0,0,1,.229.592.624.624,0,0,1-.12.359.725.725,0,0,1-.327.26.7.7,0,0,1,.362.246.683.683,0,0,1,.128.42.776.776,0,0,1-.25.607.936.936,0,0,1-.65.225.961.961,0,0,1-.651-.217.719.719,0,0,1-.251-.572h.363a.465.465,0,0,0,.146.359.557.557,0,0,0,.393.135.547.547,0,0,0,.4-.137A.527.527,0,0,0,4.6,9.215a.478.478,0,0,0-.152-.381A.664.664,0,0,0,4,8.7H3.732Z" transform="translate(440 311.252)" fill="#fff"/>
    <g id="Refresh_icon" data-name="Refresh icon" transform="translate(-205.25 -54.254)">
      <circle id="Ellipse_32" data-name="Ellipse 32" cx="9.5" cy="9.5" r="9.5" transform="translate(1094 359.254)" fill="#fff"/>
      <path id="Ellipse_32_-_Outline" data-name="Ellipse 32 - Outline" d="M9.5.5a9,9,0,1,0,9,9,9.01,9.01,0,0,0-9-9m0-.5A9.5,9.5,0,1,1,0,9.5,9.5,9.5,0,0,1,9.5,0Z" transform="translate(1094 359.254)" fill="rgba(132,131,131,0.4)"/>
    </g>
    <g id="Refresh_icon-2" data-name="Refresh icon" transform="translate(-180.25 -54.254)">
      <circle id="Ellipse_32-2" data-name="Ellipse 32" cx="9.5" cy="9.5" r="9.5" transform="translate(1094 359.254)" fill="#fff"/>
      <path id="Ellipse_32_-_Outline-2" data-name="Ellipse 32 - Outline" d="M9.5.5a9,9,0,1,0,9,9,9.01,9.01,0,0,0-9-9m0-.5A9.5,9.5,0,1,1,0,9.5,9.5,9.5,0,0,1,9.5,0Z" transform="translate(1094 359.254)" fill="rgba(132,131,131,0.4)"/>
      <g id="Refresh" transform="translate(1154.334 333.881) rotate(60)">
        <g id="_x37__11_" transform="translate(0.001 57.525)">
          <g id="Group_15" data-name="Group 15" transform="translate(0 0)">
            <path id="Path_26" data-name="Path 26" d="M5,65.02a3.438,3.438,0,0,1-3.307-2.5H2.708c.1-.094.147-.22.051-.314L1.585,61.023a.252.252,0,0,0-.349,0L.071,62.208c-.138.162-.046.22.051.314h.931a4.057,4.057,0,0,0,7.4,1.193l-.588-.235A3.436,3.436,0,0,1,5,65.02Zm4.9-4.06H9.01A4.06,4.06,0,0,0,1.4,59.708l.582.233a3.438,3.438,0,0,1,6.4,1.019H7.312c-.1.094-.189.152-.051.314L8.426,62.46a.252.252,0,0,0,.349,0l1.173-1.185C10.045,61.181,9.994,61.054,9.9,60.96Z" transform="translate(-0.001 -57.525)" fill="#a5aabc"/>
          </g>
        </g>
      </g>
    </g>
    <path id="Path_1212" data-name="Path 1212" d="M9.5,0A9.5,9.5,0,1,1,0,9.5,9.5,9.5,0,0,1,9.5,0Z" transform="translate(938.75 305)" fill="#fff"/>
    <path id="Path_1212_-_Outline" data-name="Path 1212 - Outline" d="M9.5.5a9,9,0,1,0,9,9,9.01,9.01,0,0,0-9-9m0-.5A9.5,9.5,0,1,1,0,9.5,9.5,9.5,0,0,1,9.5,0Z" transform="translate(938.75 305)" fill="rgba(132,131,131,0.4)"/>
    <path id="Path_1213" data-name="Path 1213" d="M9.5,0H47.186a9.5,9.5,0,0,1,0,19H9.5a9.5,9.5,0,0,1,0-19Z" transform="translate(816.25 305)" fill="#fff"/>
    <path id="Path_1213_-_Outline" data-name="Path 1213 - Outline" d="M9.5.5a9,9,0,0,0,0,18H47.186a9,9,0,0,0,0-18H9.5m0-.5H47.186a9.5,9.5,0,0,1,0,19H9.5a9.5,9.5,0,0,1,0-19Z" transform="translate(816.25 305)" fill="rgba(165,170,188,0.5)"/>
    <g id="Group_116" data-name="Group 116" transform="translate(0.5 -79)">
      <circle id="Ellipse_107" data-name="Ellipse 107" cx="9.5" cy="9.5" r="9.5" transform="translate(815.75 384.252)" fill="#1f6cb6"/>
    </g>
    <g id="Group_126" data-name="Group 126" transform="translate(9.564 -79)">
      <path id="Line_21" data-name="Line 21" d="M.177,3.177l-.354-.354,3-3,.354.354Z" transform="translate(827.686 391.5)" fill="#a5aabc"/>
      <path id="Line_23" data-name="Line 23" d="M.177,3.177l-.354-.354,3-3,.354.354Z" transform="translate(840.436 393.75) rotate(180)" fill="#a5aabc"/>
      <path id="Line_22" data-name="Line 22" d="M2.823,3.177l-3-3L.177-.177l3,3Z" transform="translate(832.436 391.5)" fill="#a5aabc"/>
      <circle id="Ellipse_108" data-name="Ellipse 108" cx="1.5" cy="1.5" r="1.5" transform="translate(830.186 389)" fill="#fff"/>
      <path id="Ellipse_108_-_Outline" data-name="Ellipse 108 - Outline" d="M1.5.5a1,1,0,1,0,1,1,1,1,0,0,0-1-1m0-.5A1.5,1.5,0,1,1,0,1.5,1.5,1.5,0,0,1,1.5,0Z" transform="translate(830.186 389)" fill="#a5aabc"/>
      <circle id="Ellipse_109" data-name="Ellipse 109" cx="1.5" cy="1.5" r="1.5" transform="translate(837.936 396.25) rotate(180)" fill="#fff"/>
      <path id="Ellipse_109_-_Outline" data-name="Ellipse 109 - Outline" d="M1.5.5a1,1,0,1,0,1,1,1,1,0,0,0-1-1m0-.5A1.5,1.5,0,1,1,0,1.5,1.5,1.5,0,0,1,1.5,0Z" transform="translate(837.936 396.25) rotate(180)" fill="#a5aabc"/>
    </g>
    <g id="_x31_6-thumbtack" transform="translate(890.571 306.4)">
      <path id="Path_123" data-name="Path 123" d="M11.551,6.528,8.719,3.7a.311.311,0,0,0-.45,0l-1.03,1.03a.309.309,0,0,0,0,.45l.225.225L6.5,6.367a2.941,2.941,0,0,0-2.51.386.311.311,0,0,0,0,.45L5.824,9.038,3.8,11.065a.311.311,0,0,0,0,.45.342.342,0,0,0,.45,0L6.274,9.488l1.834,1.834a.3.3,0,0,0,.45,0,2.941,2.941,0,0,0,.386-2.51l.965-.965.225.225a.311.311,0,0,0,.45,0l1.03-1.03a.486.486,0,0,0-.064-.515Z" transform="translate(0 0)" fill="#a1a1a1"/>
    </g>
    <g id="apps" transform="translate(942.375 309.625)" clip-path="url(#clip-path)">
      <path id="Path_124" data-name="Path 124" d="M10.674,5.938H9.9V3.49A.491.491,0,0,0,9.406,3H7.448a.491.491,0,0,0-.49.49V5.938H6.18a.491.491,0,0,0-.348.837L8.079,9.022a.488.488,0,0,0,.69,0l2.247-2.247A.49.49,0,0,0,10.674,5.938ZM5,10.833a.491.491,0,0,0,.49.49h5.875a.49.49,0,1,0,0-.979H5.49A.491.491,0,0,0,5,10.833Z" transform="translate(-2.552 -1.531)" fill="#a1a1a1"/>
    </g>
    <path id="Path_1214" data-name="Path 1214" d="M.5,229h-1V0h1Z" transform="translate(552.75 294.5)" fill="rgba(165,170,188,0.5)"/>
    <path id="Path_1215" data-name="Path 1215" d="M.5,37.5h-1V0h1Z" transform="translate(881.729 294)" fill="rgba(165,170,188,0.5)"/>
    <path id="Path_1216" data-name="Path 1216" d="M5,1A4,4,0,0,0,1,5V224a4,4,0,0,0,4,4H544a4,4,0,0,0,4-4V5a4,4,0,0,0-4-4H5M5,0H544a5,5,0,0,1,5,5V224a5,5,0,0,1-5,5H5a5,5,0,0,1-5-5V5A5,5,0,0,1,5,0Z" transform="translate(420 294)" fill="rgba(165,170,188,0.5)"/>
    <path id="Path_1217" data-name="Path 1217" d="M4.271-11.883-1.028,0H-2.733L2.549-11.461H-4.377V-12.8H4.271ZM-36.255,22V9.2h4.184a4.856,4.856,0,0,1,3.133.861,3.1,3.1,0,0,1,1.05,2.549A2.6,2.6,0,0,1-28.4,14.2a3.3,3.3,0,0,1-1.389,1.068,2.968,2.968,0,0,1,1.639,1.1,3.166,3.166,0,0,1,.6,1.938,3.423,3.423,0,0,1-1.116,2.707A4.616,4.616,0,0,1-31.816,22Zm1.688-5.985V20.62h2.786a2.683,2.683,0,0,0,1.859-.611,2.145,2.145,0,0,0,.681-1.683q0-2.312-2.514-2.312Zm0-1.354h2.549a2.672,2.672,0,0,0,1.771-.555,1.86,1.86,0,0,0,.664-1.506,1.829,1.829,0,0,0-.615-1.537,3.021,3.021,0,0,0-1.872-.48h-2.5Zm13.86-.712a4.873,4.873,0,0,0-.8-.062,2.143,2.143,0,0,0-2.171,1.362V22H-25.3V12.49h1.582l.026,1.1a2.532,2.532,0,0,1,2.268-1.274,1.661,1.661,0,0,1,.721.123Zm5.273,8.227a4.155,4.155,0,0,1-3.146-1.27,4.714,4.714,0,0,1-1.213-3.4v-.3a5.707,5.707,0,0,1,.541-2.527,4.217,4.217,0,0,1,1.512-1.74,3.8,3.8,0,0,1,2.1-.628,3.562,3.562,0,0,1,2.883,1.222,5.289,5.289,0,0,1,1.028,3.5v.677h-6.442a3.38,3.38,0,0,0,.822,2.272,2.583,2.583,0,0,0,2,.866,2.832,2.832,0,0,0,1.459-.352,3.666,3.666,0,0,0,1.046-.932l.993.773A3.993,3.993,0,0,1-15.434,22.176Zm-.2-8.525a2.169,2.169,0,0,0-1.652.716,3.482,3.482,0,0,0-.826,2.008h4.764v-.123a3.1,3.1,0,0,0-.668-1.92A2.042,2.042,0,0,0-15.636,13.65ZM-3.973,22A3.416,3.416,0,0,1-4.2,21a3.628,3.628,0,0,1-2.707,1.178,3.357,3.357,0,0,1-2.307-.8,2.573,2.573,0,0,1-.9-2.017,2.688,2.688,0,0,1,1.129-2.307,5.325,5.325,0,0,1,3.177-.822h1.582v-.747a1.826,1.826,0,0,0-.51-1.358,2.049,2.049,0,0,0-1.5-.505,2.371,2.371,0,0,0-1.459.439,1.3,1.3,0,0,0-.589,1.063H-9.923a2.244,2.244,0,0,1,.505-1.375A3.449,3.449,0,0,1-8.046,12.7a4.613,4.613,0,0,1,1.9-.387,3.759,3.759,0,0,1,2.575.822A2.964,2.964,0,0,1-2.6,15.4v4.377a5.351,5.351,0,0,0,.334,2.083V22Zm-2.7-1.239a2.858,2.858,0,0,0,1.45-.4,2.392,2.392,0,0,0,.993-1.028V17.386H-5.5q-2.988,0-2.988,1.749a1.48,1.48,0,0,0,.51,1.2A1.959,1.959,0,0,0-6.671,20.761Zm10.433.088a2.342,2.342,0,0,0,1.521-.527A1.855,1.855,0,0,0,6,19H7.541a2.949,2.949,0,0,1-.562,1.556,3.7,3.7,0,0,1-1.384,1.178,3.994,3.994,0,0,1-1.833.439,3.918,3.918,0,0,1-3.089-1.3A5.163,5.163,0,0,1-.475,17.333v-.272a5.725,5.725,0,0,1,.51-2.47A3.883,3.883,0,0,1,1.5,12.912a4.157,4.157,0,0,1,2.254-.6,3.814,3.814,0,0,1,2.659.958A3.424,3.424,0,0,1,7.541,15.76H6a2.241,2.241,0,0,0-.7-1.516,2.174,2.174,0,0,0-1.551-.593,2.276,2.276,0,0,0-1.92.892,4.19,4.19,0,0,0-.681,2.58v.308a4.106,4.106,0,0,0,.677,2.531A2.287,2.287,0,0,0,3.762,20.849ZM11,13.642a3.457,3.457,0,0,1,2.813-1.327q3.015,0,3.041,3.4V22H15.223V15.707a2.189,2.189,0,0,0-.47-1.521,1.884,1.884,0,0,0-1.437-.492,2.347,2.347,0,0,0-1.389.422A2.865,2.865,0,0,0,11,15.224V22H9.369V8.5H11Zm12.234,8.534a4.155,4.155,0,0,1-3.146-1.27,4.714,4.714,0,0,1-1.213-3.4v-.3a5.707,5.707,0,0,1,.541-2.527,4.217,4.217,0,0,1,1.512-1.74,3.8,3.8,0,0,1,2.1-.628,3.562,3.562,0,0,1,2.883,1.222,5.289,5.289,0,0,1,1.028,3.5v.677H20.5a3.38,3.38,0,0,0,.822,2.272,2.583,2.583,0,0,0,2,.866,2.832,2.832,0,0,0,1.459-.352,3.666,3.666,0,0,0,1.046-.932l.993.773A3.993,3.993,0,0,1,23.229,22.176Zm-.2-8.525a2.169,2.169,0,0,0-1.652.716,3.482,3.482,0,0,0-.826,2.008h4.764v-.123a3.1,3.1,0,0,0-.668-1.92A2.042,2.042,0,0,0,23.027,13.65Zm5.4,3.516a5.571,5.571,0,0,1,1.037-3.52,3.529,3.529,0,0,1,5.361-.189V8.5h1.626V22H34.954l-.079-1.02a3.311,3.311,0,0,1-2.716,1.2,3.248,3.248,0,0,1-2.694-1.354,5.634,5.634,0,0,1-1.042-3.533Zm1.626.185a4.218,4.218,0,0,0,.668,2.531,2.159,2.159,0,0,0,1.846.914,2.372,2.372,0,0,0,2.259-1.389V15.039a2.39,2.39,0,0,0-2.241-1.345,2.17,2.17,0,0,0-1.863.923A4.644,4.644,0,0,0,30.05,17.351Z" transform="translate(863 415)" fill="#ff443b"/>
    <path id="Path_1218" data-name="Path 1218" d="M-99.917-2.886A7.549,7.549,0,0,1-99.622-5a6.156,6.156,0,0,1,.881-1.846,3.749,3.749,0,0,1,1.216-1.172l.186.6a3.889,3.889,0,0,0-1.169,1.67,7.239,7.239,0,0,0-.5,2.515l0,.415A7.277,7.277,0,0,0-98.325.444a3.907,3.907,0,0,0,.986,1.3l-.186.552a3.87,3.87,0,0,1-1.24-1.211A6.787,6.787,0,0,1-99.917-2.886Zm4.536,2.119h3.369V0h-4.312V-7.109h.942ZM-87.822,0a1.9,1.9,0,0,1-.127-.557,2.016,2.016,0,0,1-1.5.654,1.865,1.865,0,0,1-1.282-.442,1.43,1.43,0,0,1-.5-1.121,1.494,1.494,0,0,1,.627-1.282A2.958,2.958,0,0,1-88.843-3.2h.879v-.415a1.015,1.015,0,0,0-.283-.754,1.138,1.138,0,0,0-.835-.281,1.317,1.317,0,0,0-.811.244.719.719,0,0,0-.327.591h-.908a1.247,1.247,0,0,1,.281-.764,1.916,1.916,0,0,1,.762-.583,2.563,2.563,0,0,1,1.057-.215,2.089,2.089,0,0,1,1.431.457,1.647,1.647,0,0,1,.537,1.257v2.432a2.973,2.973,0,0,0,.186,1.157V0Zm-1.5-.688a1.588,1.588,0,0,0,.806-.22,1.329,1.329,0,0,0,.552-.571V-2.563h-.708q-1.66,0-1.66.972a.822.822,0,0,0,.283.664A1.089,1.089,0,0,0-89.321-.688Zm6.753-.713a.665.665,0,0,0-.276-.569,2.655,2.655,0,0,0-.962-.349A4.548,4.548,0,0,1-84.9-2.671a1.549,1.549,0,0,1-.6-.488,1.168,1.168,0,0,1-.193-.674,1.37,1.37,0,0,1,.549-1.1,2.145,2.145,0,0,1,1.4-.449,2.208,2.208,0,0,1,1.458.464,1.473,1.473,0,0,1,.559,1.187h-.908a.815.815,0,0,0-.315-.64,1.18,1.18,0,0,0-.793-.269,1.235,1.235,0,0,0-.771.215.676.676,0,0,0-.278.562.548.548,0,0,0,.259.493,3.184,3.184,0,0,0,.935.317,4.872,4.872,0,0,1,1.1.361,1.6,1.6,0,0,1,.623.505,1.243,1.243,0,0,1,.2.72A1.352,1.352,0,0,1-82.231-.33,2.376,2.376,0,0,1-83.7.1a2.66,2.66,0,0,1-1.123-.225,1.827,1.827,0,0,1-.764-.627,1.512,1.512,0,0,1-.276-.872h.9a.935.935,0,0,0,.364.72,1.411,1.411,0,0,0,.9.266,1.457,1.457,0,0,0,.823-.208A.638.638,0,0,0-82.568-1.4Zm3.306-5.161v1.279h.986v.7h-.986V-1.3a.733.733,0,0,0,.132.477.555.555,0,0,0,.449.159,2.187,2.187,0,0,0,.43-.059V0a2.634,2.634,0,0,1-.693.1,1.125,1.125,0,0,1-.913-.366,1.573,1.573,0,0,1-.308-1.04V-4.585h-.962v-.7h.962V-6.562Zm10.127,3.237A4.4,4.4,0,0,1-69.487-1.5a2.663,2.663,0,0,1-1,1.189,2.741,2.741,0,0,1-1.5.41,2.717,2.717,0,0,1-1.489-.413,2.727,2.727,0,0,1-1.008-1.177,4.22,4.22,0,0,1-.369-1.77v-.513A4.346,4.346,0,0,1-74.5-5.586a2.717,2.717,0,0,1,1.008-1.2A2.706,2.706,0,0,1-72-7.207a2.756,2.756,0,0,1,1.506.413,2.658,2.658,0,0,1,1,1.2,4.419,4.419,0,0,1,.352,1.824Zm-.933-.459a3.188,3.188,0,0,0-.508-1.941A1.675,1.675,0,0,0-72-6.4a1.657,1.657,0,0,0-1.4.676,3.122,3.122,0,0,0-.525,1.877v.522A3.192,3.192,0,0,0-73.406-1.4a1.664,1.664,0,0,0,1.418.7,1.657,1.657,0,0,0,1.406-.662,3.174,3.174,0,0,0,.513-1.9Zm6.67,1.2a3.141,3.141,0,0,1-.557,1.946A1.779,1.779,0,0,1-65.449.1,1.842,1.842,0,0,1-67-.61l-.044.61h-.83V-7.5h.9v2.8a1.831,1.831,0,0,1,1.509-.679,1.789,1.789,0,0,1,1.511.728A3.236,3.236,0,0,1-63.4-2.661Zm-.9-.1a2.441,2.441,0,0,0-.356-1.426,1.18,1.18,0,0,0-1.025-.5,1.326,1.326,0,0,0-1.284.83V-1.5a1.363,1.363,0,0,0,1.294.83,1.173,1.173,0,0,0,1.011-.5A2.6,2.6,0,0,0-64.3-2.686ZM-59.185-1.4a.665.665,0,0,0-.276-.569,2.655,2.655,0,0,0-.962-.349,4.548,4.548,0,0,1-1.089-.352,1.549,1.549,0,0,1-.6-.488,1.168,1.168,0,0,1-.193-.674,1.37,1.37,0,0,1,.549-1.1,2.145,2.145,0,0,1,1.4-.449,2.208,2.208,0,0,1,1.458.464A1.473,1.473,0,0,1-58.33-3.73h-.908a.815.815,0,0,0-.315-.64,1.18,1.18,0,0,0-.793-.269,1.235,1.235,0,0,0-.771.215.676.676,0,0,0-.278.562.548.548,0,0,0,.259.493,3.184,3.184,0,0,0,.935.317,4.872,4.872,0,0,1,1.1.361,1.6,1.6,0,0,1,.623.505,1.243,1.243,0,0,1,.2.72A1.352,1.352,0,0,1-58.848-.33,2.376,2.376,0,0,1-60.317.1,2.66,2.66,0,0,1-61.44-.127,1.827,1.827,0,0,1-62.2-.754a1.512,1.512,0,0,1-.276-.872h.9a.935.935,0,0,0,.364.72,1.411,1.411,0,0,0,.9.266,1.457,1.457,0,0,0,.823-.208A.638.638,0,0,0-59.185-1.4ZM-54.912.1A2.308,2.308,0,0,1-56.66-.608,2.619,2.619,0,0,1-57.334-2.5v-.166a3.17,3.17,0,0,1,.3-1.4,2.343,2.343,0,0,1,.84-.967,2.112,2.112,0,0,1,1.169-.349,1.979,1.979,0,0,1,1.6.679,2.939,2.939,0,0,1,.571,1.943v.376h-3.579a1.878,1.878,0,0,0,.457,1.262,1.435,1.435,0,0,0,1.111.481,1.573,1.573,0,0,0,.811-.2,2.037,2.037,0,0,0,.581-.518l.552.43A2.219,2.219,0,0,1-54.912.1Zm-.112-4.736a1.2,1.2,0,0,0-.918.4A1.934,1.934,0,0,0-56.4-3.125h2.646v-.068a1.721,1.721,0,0,0-.371-1.067A1.134,1.134,0,0,0-55.024-4.639Zm5.771.166a2.707,2.707,0,0,0-.444-.034A1.19,1.19,0,0,0-50.9-3.75V0h-.9V-5.283h.879l.015.61a1.407,1.407,0,0,1,1.26-.708.923.923,0,0,1,.4.068Zm2.661,3.247,1.309-4.058h.923L-46.255,0h-.688l-1.914-5.283h.923ZM-41.362.1A2.308,2.308,0,0,1-43.11-.608,2.619,2.619,0,0,1-43.784-2.5v-.166a3.17,3.17,0,0,1,.3-1.4,2.343,2.343,0,0,1,.84-.967,2.112,2.112,0,0,1,1.169-.349,1.979,1.979,0,0,1,1.6.679A2.939,2.939,0,0,1-39.3-2.759v.376h-3.579a1.878,1.878,0,0,0,.457,1.262,1.435,1.435,0,0,0,1.111.481,1.573,1.573,0,0,0,.811-.2,2.037,2.037,0,0,0,.581-.518l.552.43A2.219,2.219,0,0,1-41.362.1Zm-.112-4.736a1.2,1.2,0,0,0-.918.4,1.934,1.934,0,0,0-.459,1.116h2.646v-.068a1.721,1.721,0,0,0-.371-1.067A1.134,1.134,0,0,0-41.475-4.639Zm3,1.953A3.1,3.1,0,0,1-37.9-4.641a1.822,1.822,0,0,1,1.509-.74,1.832,1.832,0,0,1,1.47.635V-7.5h.9V0h-.83l-.044-.566A1.84,1.84,0,0,1-36.4.1a1.8,1.8,0,0,1-1.5-.752,3.13,3.13,0,0,1-.579-1.963Zm.9.1A2.343,2.343,0,0,0-37.2-1.177a1.2,1.2,0,0,0,1.025.508,1.318,1.318,0,0,0,1.255-.771V-3.867a1.328,1.328,0,0,0-1.245-.747A1.205,1.205,0,0,0-37.2-4.1,2.58,2.58,0,0,0-37.573-2.583Zm4.927,2.109a.566.566,0,0,1,.139-.391.53.53,0,0,1,.417-.156.546.546,0,0,1,.422.156.554.554,0,0,1,.144.391.524.524,0,0,1-.144.376.556.556,0,0,1-.422.151A.54.54,0,0,1-32.507-.1.535.535,0,0,1-32.646-.474Zm0-4.312a.566.566,0,0,1,.139-.391.53.53,0,0,1,.417-.156.546.546,0,0,1,.422.156.554.554,0,0,1,.144.391.524.524,0,0,1-.144.376.556.556,0,0,1-.422.151.54.54,0,0,1-.417-.151A.535.535,0,0,1-32.642-4.785ZM-23.154,0h-4.658V-.649l2.461-2.734A5.846,5.846,0,0,0-24.6-4.392a1.683,1.683,0,0,0,.208-.8,1.276,1.276,0,0,0-.337-.913,1.178,1.178,0,0,0-.9-.356,1.4,1.4,0,0,0-1.047.383,1.464,1.464,0,0,0-.374,1.067h-.9A2.1,2.1,0,0,1-27.317-6.6a2.344,2.344,0,0,1,1.692-.605,2.252,2.252,0,0,1,1.567.52A1.774,1.774,0,0,1-23.481-5.3a4.067,4.067,0,0,1-1.338,2.5l-1.9,2.065h3.569Zm5.415-3.032a4.131,4.131,0,0,1-.542,2.358A1.928,1.928,0,0,1-19.976.1,1.942,1.942,0,0,1-21.66-.657a3.921,3.921,0,0,1-.566-2.253V-4.116a4.039,4.039,0,0,1,.542-2.329,1.942,1.942,0,0,1,1.7-.762,1.96,1.96,0,0,1,1.689.735A3.9,3.9,0,0,1-17.739-4.2Zm-.9-1.235a3.31,3.31,0,0,0-.322-1.672,1.109,1.109,0,0,0-1.021-.525A1.1,1.1,0,0,0-21-5.942a3.232,3.232,0,0,0-.327,1.606v1.445a3.363,3.363,0,0,0,.334,1.7,1.107,1.107,0,0,0,1.013.549,1.092,1.092,0,0,0,.994-.518,3.241,3.241,0,0,0,.339-1.631ZM-11.924,0h-4.658V-.649l2.461-2.734a5.847,5.847,0,0,0,.754-1.008,1.683,1.683,0,0,0,.208-.8,1.276,1.276,0,0,0-.337-.913,1.178,1.178,0,0,0-.9-.356,1.4,1.4,0,0,0-1.047.383,1.464,1.464,0,0,0-.374,1.067h-.9A2.1,2.1,0,0,1-16.086-6.6a2.344,2.344,0,0,1,1.692-.605,2.252,2.252,0,0,1,1.567.52A1.774,1.774,0,0,1-12.251-5.3a4.067,4.067,0,0,1-1.338,2.5l-1.9,2.065h3.569Zm5.615,0h-4.658V-.649l2.461-2.734a5.847,5.847,0,0,0,.754-1.008,1.683,1.683,0,0,0,.208-.8,1.276,1.276,0,0,0-.337-.913,1.178,1.178,0,0,0-.9-.356,1.4,1.4,0,0,0-1.047.383A1.464,1.464,0,0,0-10.2-5.015h-.9A2.1,2.1,0,0,1-10.471-6.6a2.344,2.344,0,0,1,1.692-.605,2.252,2.252,0,0,1,1.567.52A1.774,1.774,0,0,1-6.636-5.3,4.067,4.067,0,0,1-7.974-2.8l-1.9,2.065h3.569Zm2.93-2.651H-5.762v-.737h2.383Zm5.244-.381A4.131,4.131,0,0,1,1.323-.674,1.928,1.928,0,0,1-.371.1,1.942,1.942,0,0,1-2.056-.657,3.921,3.921,0,0,1-2.622-2.91V-4.116A4.039,4.039,0,0,1-2.08-6.445a1.942,1.942,0,0,1,1.7-.762,1.96,1.96,0,0,1,1.689.735A3.9,3.9,0,0,1,1.865-4.2Zm-.9-1.235A3.31,3.31,0,0,0,.64-5.94,1.109,1.109,0,0,0-.381-6.465a1.1,1.1,0,0,0-1.011.522,3.232,3.232,0,0,0-.327,1.606v1.445a3.363,3.363,0,0,0,.334,1.7A1.107,1.107,0,0,0-.371-.64a1.092,1.092,0,0,0,.994-.518A3.241,3.241,0,0,0,.962-2.788ZM6.484-3.125a2.21,2.21,0,0,1-.676.542,1.835,1.835,0,0,1-.862.205,1.894,1.894,0,0,1-1.072-.3,1.968,1.968,0,0,1-.706-.852A2.9,2.9,0,0,1,2.92-4.746,2.96,2.96,0,0,1,3.191-6.03,1.991,1.991,0,0,1,3.96-6.9a2.193,2.193,0,0,1,1.162-.3,1.985,1.985,0,0,1,1.663.789,3.44,3.44,0,0,1,.608,2.151V-4a4.6,4.6,0,0,1-.82,3.03A3.152,3.152,0,0,1,4.1,0H3.921V-.762h.19A2.487,2.487,0,0,0,5.83-1.344,2.5,2.5,0,0,0,6.484-3.125Zm-1.392,0A1.4,1.4,0,0,0,5.93-3.4a1.641,1.641,0,0,0,.559-.688v-.361A2.486,2.486,0,0,0,6.1-5.9a1.151,1.151,0,0,0-.977-.557A1.16,1.16,0,0,0,4.17-6a1.883,1.883,0,0,0-.361,1.2,1.96,1.96,0,0,0,.349,1.2A1.105,1.105,0,0,0,5.093-3.125Zm5.518.474H8.228v-.737H10.61ZM14.365,0h-.908V-6.021l-1.821.669v-.82l2.588-.972h.142Zm7.3,0H17.012V-.649l2.461-2.734a5.846,5.846,0,0,0,.754-1.008,1.683,1.683,0,0,0,.208-.8,1.276,1.276,0,0,0-.337-.913,1.178,1.178,0,0,0-.9-.356,1.4,1.4,0,0,0-1.047.383,1.464,1.464,0,0,0-.374,1.067h-.9A2.1,2.1,0,0,1,17.507-6.6,2.344,2.344,0,0,1,19.2-7.207a2.252,2.252,0,0,1,1.567.52A1.774,1.774,0,0,1,21.343-5.3,4.067,4.067,0,0,1,20-2.8L18.1-.737H21.67Zm6.1-6.343H25.488V0h-.933V-6.343h-2.28v-.767h5.5ZM31.563,0h-.908V-6.021l-1.821.669v-.82l2.588-.972h.142Zm5.615,0H36.27V-6.021l-1.821.669v-.82l2.588-.972h.142Zm2.71-.474a.566.566,0,0,1,.139-.391.53.53,0,0,1,.417-.156.546.546,0,0,1,.422.156.554.554,0,0,1,.144.391.524.524,0,0,1-.144.376.556.556,0,0,1-.422.151A.54.54,0,0,1,40.027-.1.535.535,0,0,1,39.888-.474Zm0-4.312a.566.566,0,0,1,.139-.391.53.53,0,0,1,.417-.156.546.546,0,0,1,.422.156.554.554,0,0,1,.144.391.524.524,0,0,1-.144.376.556.556,0,0,1-.422.151.54.54,0,0,1-.417-.151A.535.535,0,0,1,39.893-4.785ZM45.215,0h-.908V-6.021l-1.821.669v-.82l2.588-.972h.142Zm6.46-2.388h.986v.737h-.986V0h-.908V-1.65H47.529v-.532l3.184-4.927h.962Zm-3.12,0h2.212V-5.874l-.107.2ZM53.54-.474a.566.566,0,0,1,.139-.391.53.53,0,0,1,.417-.156.546.546,0,0,1,.422.156.554.554,0,0,1,.144.391.524.524,0,0,1-.144.376A.556.556,0,0,1,54.1.054.54.54,0,0,1,53.679-.1.535.535,0,0,1,53.54-.474Zm0-4.312a.566.566,0,0,1,.139-.391.53.53,0,0,1,.417-.156.546.546,0,0,1,.422.156.554.554,0,0,1,.144.391.524.524,0,0,1-.144.376.556.556,0,0,1-.422.151.54.54,0,0,1-.417-.151A.535.535,0,0,1,53.545-4.785Zm6.812,1.753a4.131,4.131,0,0,1-.542,2.358A1.928,1.928,0,0,1,58.12.1a1.942,1.942,0,0,1-1.685-.754,3.921,3.921,0,0,1-.566-2.253V-4.116a4.039,4.039,0,0,1,.542-2.329,1.942,1.942,0,0,1,1.7-.762,1.96,1.96,0,0,1,1.689.735A3.9,3.9,0,0,1,60.356-4.2Zm-.9-1.235a3.31,3.31,0,0,0-.322-1.672,1.109,1.109,0,0,0-1.021-.525,1.1,1.1,0,0,0-1.011.522,3.232,3.232,0,0,0-.327,1.606v1.445a3.363,3.363,0,0,0,.334,1.7A1.107,1.107,0,0,0,58.12-.64a1.092,1.092,0,0,0,.994-.518,3.241,3.241,0,0,0,.339-1.631Zm6.519,1.235A4.131,4.131,0,0,1,65.43-.674,1.928,1.928,0,0,1,63.735.1a1.942,1.942,0,0,1-1.685-.754,3.921,3.921,0,0,1-.566-2.253V-4.116a4.039,4.039,0,0,1,.542-2.329,1.942,1.942,0,0,1,1.7-.762,1.96,1.96,0,0,1,1.689.735A3.9,3.9,0,0,1,65.972-4.2Zm-.9-1.235a3.31,3.31,0,0,0-.322-1.672,1.109,1.109,0,0,0-1.021-.525,1.1,1.1,0,0,0-1.011.522,3.232,3.232,0,0,0-.327,1.606v1.445a3.363,3.363,0,0,0,.334,1.7,1.107,1.107,0,0,0,1.013.549,1.092,1.092,0,0,0,.994-.518,3.241,3.241,0,0,0,.339-1.631Zm4.741.454h1.982v.854H69.81V-.713H68.9V-2.959H66.919v-.854H68.9V-5.889h.908Zm7.446.781a4.131,4.131,0,0,1-.542,2.358A1.928,1.928,0,0,1,75.02.1a1.942,1.942,0,0,1-1.685-.754,3.921,3.921,0,0,1-.566-2.253V-4.116a4.039,4.039,0,0,1,.542-2.329,1.942,1.942,0,0,1,1.7-.762,1.96,1.96,0,0,1,1.689.735A3.9,3.9,0,0,1,77.256-4.2Zm-.9-1.235A3.31,3.31,0,0,0,76.03-5.94a1.109,1.109,0,0,0-1.021-.525A1.1,1.1,0,0,0,74-5.942a3.232,3.232,0,0,0-.327,1.606v1.445a3.363,3.363,0,0,0,.334,1.7A1.107,1.107,0,0,0,75.02-.64a1.092,1.092,0,0,0,.994-.518,3.241,3.241,0,0,0,.339-1.631Zm6.519,1.235a4.131,4.131,0,0,1-.542,2.358A1.928,1.928,0,0,1,80.635.1,1.942,1.942,0,0,1,78.95-.657a3.921,3.921,0,0,1-.566-2.253V-4.116a4.039,4.039,0,0,1,.542-2.329,1.942,1.942,0,0,1,1.7-.762,1.96,1.96,0,0,1,1.689.735A3.9,3.9,0,0,1,82.871-4.2Zm-.9-1.235a3.31,3.31,0,0,0-.322-1.672,1.109,1.109,0,0,0-1.021-.525,1.1,1.1,0,0,0-1.011.522,3.232,3.232,0,0,0-.327,1.606v1.445a3.363,3.363,0,0,0,.334,1.7,1.107,1.107,0,0,0,1.013.549,1.092,1.092,0,0,0,.994-.518,3.241,3.241,0,0,0,.339-1.631ZM84.092-.474a.566.566,0,0,1,.139-.391.53.53,0,0,1,.417-.156.546.546,0,0,1,.422.156.554.554,0,0,1,.144.391.524.524,0,0,1-.144.376.556.556,0,0,1-.422.151A.54.54,0,0,1,84.231-.1.535.535,0,0,1,84.092-.474Zm0-4.312a.566.566,0,0,1,.139-.391.53.53,0,0,1,.417-.156.546.546,0,0,1,.422.156.554.554,0,0,1,.144.391.524.524,0,0,1-.144.376.556.556,0,0,1-.422.151.54.54,0,0,1-.417-.151A.535.535,0,0,1,84.1-4.785Zm6.812,1.753a4.131,4.131,0,0,1-.542,2.358A1.928,1.928,0,0,1,88.672.1a1.942,1.942,0,0,1-1.685-.754,3.921,3.921,0,0,1-.566-2.253V-4.116a4.039,4.039,0,0,1,.542-2.329,1.942,1.942,0,0,1,1.7-.762,1.96,1.96,0,0,1,1.689.735A3.9,3.9,0,0,1,90.908-4.2ZM90-4.268a3.31,3.31,0,0,0-.322-1.672,1.109,1.109,0,0,0-1.021-.525,1.1,1.1,0,0,0-1.011.522,3.232,3.232,0,0,0-.327,1.606v1.445a3.363,3.363,0,0,0,.334,1.7,1.107,1.107,0,0,0,1.013.549,1.092,1.092,0,0,0,.994-.518A3.241,3.241,0,0,0,90-2.788Zm6.519,1.235a4.131,4.131,0,0,1-.542,2.358A1.928,1.928,0,0,1,94.287.1,1.942,1.942,0,0,1,92.6-.657a3.921,3.921,0,0,1-.566-2.253V-4.116a4.039,4.039,0,0,1,.542-2.329,1.942,1.942,0,0,1,1.7-.762,1.96,1.96,0,0,1,1.689.735A3.9,3.9,0,0,1,96.523-4.2Zm-.9-1.235A3.31,3.31,0,0,0,95.3-5.94a1.109,1.109,0,0,0-1.021-.525,1.1,1.1,0,0,0-1.011.522,3.232,3.232,0,0,0-.327,1.606v1.445a3.363,3.363,0,0,0,.334,1.7,1.107,1.107,0,0,0,1.013.549,1.092,1.092,0,0,0,.994-.518,3.241,3.241,0,0,0,.339-1.631Zm4.238,1.431A7.553,7.553,0,0,1,99.573-.75,6.172,6.172,0,0,1,98.7,1.094a3.829,3.829,0,0,1-1.233,1.2l-.19-.552a3.925,3.925,0,0,0,1.208-1.79,7.742,7.742,0,0,0,.466-2.693V-2.9A8.038,8.038,0,0,0,98.735-4.8a6.435,6.435,0,0,0-.6-1.58,3.648,3.648,0,0,0-.862-1.089l.19-.552a3.814,3.814,0,0,1,1.228,1.191,6.186,6.186,0,0,1,.874,1.841A7.727,7.727,0,0,1,99.858-2.837Z" transform="translate(753 505)" fill="#a1a1a1"/>
    <path id="Path_1219" data-name="Path 1219" d="M.752,0H-.156V-6.021l-1.821.669v-.82L.61-7.144H.752Z" transform="translate(705 419)" fill="#0c2339"/>
    <path id="Path_1220" data-name="Path 1220" d="M-5.632-2.886A7.549,7.549,0,0,1-5.337-5a6.156,6.156,0,0,1,.881-1.846A3.749,3.749,0,0,1-3.24-8.022l.186.6a3.889,3.889,0,0,0-1.169,1.67,7.239,7.239,0,0,0-.5,2.515l0,.415A7.277,7.277,0,0,0-4.041.444a3.907,3.907,0,0,0,.986,1.3l-.186.552A3.87,3.87,0,0,1-4.48,1.084,6.787,6.787,0,0,1-5.632-2.886Zm6.04-.928H2.39v.854H.408V-.713H-.5V-2.959H-2.483v-.854H-.5V-5.889H.408Zm5.166.977A7.553,7.553,0,0,1,5.288-.75a6.172,6.172,0,0,1-.874,1.843,3.829,3.829,0,0,1-1.233,1.2l-.19-.552A3.925,3.925,0,0,0,4.2-.046a7.742,7.742,0,0,0,.466-2.693V-2.9A8.038,8.038,0,0,0,4.451-4.8a6.435,6.435,0,0,0-.6-1.58,3.648,3.648,0,0,0-.862-1.089l.19-.552A3.814,3.814,0,0,1,4.409-6.831,6.186,6.186,0,0,1,5.283-4.99,7.727,7.727,0,0,1,5.574-2.837Z" transform="translate(705 355)" fill="#0c2339"/>
    <path id="Path_1221" data-name="Path 1221" d="M-4.177-2.886A7.549,7.549,0,0,1-3.882-5,6.156,6.156,0,0,1-3-6.851,3.749,3.749,0,0,1-1.785-8.022l.186.6a3.889,3.889,0,0,0-1.169,1.67,7.239,7.239,0,0,0-.5,2.515l0,.415A7.277,7.277,0,0,0-2.585.444a3.907,3.907,0,0,0,.986,1.3l-.186.552a3.87,3.87,0,0,1-1.24-1.211A6.787,6.787,0,0,1-4.177-2.886Zm5.332.234H-1.228v-.737H1.155Zm2.964-.186A7.553,7.553,0,0,1,3.833-.75a6.172,6.172,0,0,1-.874,1.843,3.829,3.829,0,0,1-1.233,1.2l-.19-.552A3.925,3.925,0,0,0,2.744-.046,7.742,7.742,0,0,0,3.21-2.739V-2.9A8.038,8.038,0,0,0,3-4.8a6.435,6.435,0,0,0-.6-1.58,3.648,3.648,0,0,0-.862-1.089l.19-.552A3.814,3.814,0,0,1,2.954-6.831,6.186,6.186,0,0,1,3.828-4.99,7.727,7.727,0,0,1,4.119-2.837Z" transform="translate(705 483)" fill="#0c2339"/>
    <g id="Mask_Group_3" data-name="Mask Group 3" transform="translate(27 -79)" clip-path="url(#clip-path-2)">
      <path id="Line_19" data-name="Line 19" d="M549.5.5H0v-1H549.5Z" transform="translate(393 410.5)" fill="rgba(165,170,188,0.5)"/>
    </g>
    <path id="Path_1222" data-name="Path 1222" d="M1.424,0H1.061V-2.408l-.729.268v-.328l1.035-.389h.057ZM3.09,5H1.227V4.74l.984-1.094a2.339,2.339,0,0,0,.3-.4A.673.673,0,0,0,2.6,2.922a.51.51,0,0,0-.135-.365A.471.471,0,0,0,2.1,2.414a.558.558,0,0,0-.419.153.586.586,0,0,0-.149.427H1.172a.839.839,0,0,1,.253-.635A.938.938,0,0,1,2.1,2.117a.9.9,0,0,1,.627.208.71.71,0,0,1,.23.554,1.627,1.627,0,0,1-.535,1l-.762.826H3.09Zm.643,3.4H4a.6.6,0,0,0,.4-.135.45.45,0,0,0,.146-.354.441.441,0,0,0-.5-.5.518.518,0,0,0-.374.134.468.468,0,0,0-.14.354H3.18a.725.725,0,0,1,.247-.562.9.9,0,0,1,.628-.224.889.889,0,0,1,.631.213.769.769,0,0,1,.229.592.624.624,0,0,1-.12.359.725.725,0,0,1-.327.26.7.7,0,0,1,.362.246.683.683,0,0,1,.128.42.776.776,0,0,1-.25.607.936.936,0,0,1-.65.225.961.961,0,0,1-.651-.217.719.719,0,0,1-.251-.572h.363a.465.465,0,0,0,.146.359.557.557,0,0,0,.393.135.547.547,0,0,0,.4-.137A.527.527,0,0,0,4.6,9.215a.478.478,0,0,0-.152-.381A.664.664,0,0,0,4,8.7H3.732Z" transform="translate(823.564 311)" fill="#fff"/>
    <g id="plus-minus" transform="translate(708.412 138.8)">
      <path id="Path_126" data-name="Path 126" d="M182.063,170.582v1.946h2.34a.358.358,0,0,1,0,.716h-2.34v2.006a.382.382,0,1,1-.764,0v-2.006h-2.34a.358.358,0,0,1,0-.716h2.34v-1.946a.382.382,0,0,1,.764,0Z" transform="translate(-30.342)" fill="#a1a1a1"/>
      <path id="Path_127" data-name="Path 127" d="M155.318,329.716h-7.96a.359.359,0,0,1-.358-.358h0a.357.357,0,0,1,.358-.358h7.96a.357.357,0,0,1,.358.358h0A.357.357,0,0,1,155.318,329.716Z" transform="translate(0 -152.48)" fill="#a1a1a1"/>
      <path id="Path_128" data-name="Path 128" d="M201.058,391.716h-4a.359.359,0,0,1-.358-.358h0a.359.359,0,0,1,.358-.358h4a.357.357,0,0,1,.358.358h0A.357.357,0,0,1,201.058,391.716Z" transform="translate(-47.722 -212.012)" fill="#a1a1a1"/>
    </g>
    <path id="Path_1224" data-name="Path 1224" d="M0,0H69V129H0Z" transform="translate(719 351)" fill="#ff443b"/>
    <path id="Path_1225" data-name="Path 1225" d="M0,0H69V62H0Z" transform="translate(719 418)" fill="#3cca8e"/>
    <path id="Path_1226" data-name="Path 1226" d="M2.5,0A2.5,2.5,0,0,1,5,2.5v74a2.5,2.5,0,0,1-5,0V2.5A2.5,2.5,0,0,1,2.5,0Z" transform="translate(793 349) rotate(90)" fill="#0c2339"/>
    <path id="Path_2590" data-name="Path 2590" d="M6.367,0H5.137V-3.154H1.958V0H.723V-7.109H1.958V-4.15H5.137V-7.109h1.23Zm6.885-2.314a2.567,2.567,0,0,1-.84,1.775A2.863,2.863,0,0,1,10.464.1a2.772,2.772,0,0,1-1.5-.4,2.644,2.644,0,0,1-1-1.145A4.132,4.132,0,0,1,7.6-3.174v-.664A4.162,4.162,0,0,1,7.959-5.61,2.686,2.686,0,0,1,8.982-6.792a2.853,2.853,0,0,1,1.541-.415,2.748,2.748,0,0,1,1.895.637,2.663,2.663,0,0,1,.835,1.8h-1.23a1.756,1.756,0,0,0-.447-1.106,1.477,1.477,0,0,0-1.052-.339,1.442,1.442,0,0,0-1.238.589,2.943,2.943,0,0,0-.442,1.728v.63A3.122,3.122,0,0,0,9.255-1.5,1.369,1.369,0,0,0,10.464-.9a1.6,1.6,0,0,0,1.094-.327,1.706,1.706,0,0,0,.464-1.089Zm5.083.659H15.581L15,0H13.721l2.686-7.109h1.108L20.205,0H18.916Zm-2.407-1h2.061L16.958-5.6Zm7.271.107H20.635V-3.5H23.2Zm5.537-.449a3.877,3.877,0,0,1-.574,2.312A2.026,2.026,0,0,1,26.416.1,2.053,2.053,0,0,1,24.68-.662a3.713,3.713,0,0,1-.6-2.249v-1.23a3.819,3.819,0,0,1,.574-2.3,2.045,2.045,0,0,1,1.75-.767,2.057,2.057,0,0,1,1.741.747,3.7,3.7,0,0,1,.588,2.236ZM27.549-4.321a3.008,3.008,0,0,0-.273-1.467.933.933,0,0,0-.869-.466.933.933,0,0,0-.854.442,2.78,2.78,0,0,0-.288,1.379v1.611a3.086,3.086,0,0,0,.278,1.484.935.935,0,0,0,.874.488.918.918,0,0,0,.845-.452,2.9,2.9,0,0,0,.288-1.414Zm6.87,1.328a3.877,3.877,0,0,1-.574,2.312A2.026,2.026,0,0,1,32.1.1a2.053,2.053,0,0,1-1.736-.759,3.713,3.713,0,0,1-.6-2.249v-1.23a3.819,3.819,0,0,1,.574-2.3,2.045,2.045,0,0,1,1.75-.767,2.057,2.057,0,0,1,1.741.747,3.7,3.7,0,0,1,.588,2.236ZM33.232-4.321a3.008,3.008,0,0,0-.273-1.467.933.933,0,0,0-.869-.466.933.933,0,0,0-.854.442,2.78,2.78,0,0,0-.288,1.379v1.611a3.086,3.086,0,0,0,.278,1.484A.935.935,0,0,0,32.1-.85a.918.918,0,0,0,.845-.452,2.9,2.9,0,0,0,.288-1.414ZM40.1-2.993a3.877,3.877,0,0,1-.574,2.312A2.026,2.026,0,0,1,37.783.1a2.053,2.053,0,0,1-1.736-.759,3.713,3.713,0,0,1-.6-2.249v-1.23a3.819,3.819,0,0,1,.574-2.3,2.045,2.045,0,0,1,1.75-.767,2.057,2.057,0,0,1,1.741.747A3.7,3.7,0,0,1,40.1-4.224ZM38.916-4.321a3.008,3.008,0,0,0-.273-1.467.933.933,0,0,0-.869-.466.933.933,0,0,0-.854.442,2.78,2.78,0,0,0-.288,1.379v1.611a3.086,3.086,0,0,0,.278,1.484.935.935,0,0,0,.874.488.918.918,0,0,0,.845-.452,2.9,2.9,0,0,0,.288-1.414Zm3.608.225h.723a1.293,1.293,0,0,0,.867-.283,1.01,1.01,0,0,0,.32-.806,1.1,1.1,0,0,0-.266-.789,1.071,1.071,0,0,0-.813-.281,1.133,1.133,0,0,0-.786.276.922.922,0,0,0-.308.72H41.074a1.8,1.8,0,0,1,.291-1,1.952,1.952,0,0,1,.811-.7,2.64,2.64,0,0,1,1.165-.251,2.445,2.445,0,0,1,1.672.535,1.876,1.876,0,0,1,.608,1.487,1.511,1.511,0,0,1-.305.9,1.914,1.914,0,0,1-.789.637,1.744,1.744,0,0,1,.891.63,1.725,1.725,0,0,1,.305,1.025,1.909,1.909,0,0,1-.657,1.523A2.55,2.55,0,0,1,43.34.1a2.531,2.531,0,0,1-1.68-.547A1.8,1.8,0,0,1,41.006-1.9h1.187a.993.993,0,0,0,.315.762,1.194,1.194,0,0,0,.847.293,1.232,1.232,0,0,0,.869-.293,1.1,1.1,0,0,0,.317-.85,1.11,1.11,0,0,0-.332-.864,1.42,1.42,0,0,0-.986-.3h-.7Zm5.1,2.847a.678.678,0,0,1,.513.188.653.653,0,0,1,.181.471.63.63,0,0,1-.181.461.688.688,0,0,1-.513.183.69.69,0,0,1-.5-.181.619.619,0,0,1-.186-.464.653.653,0,0,1,.181-.471A.671.671,0,0,1,47.627-1.25Zm0-4.146a.678.678,0,0,1,.513.188.653.653,0,0,1,.181.471.63.63,0,0,1-.181.461.688.688,0,0,1-.513.183.69.69,0,0,1-.5-.181.619.619,0,0,1-.186-.464.653.653,0,0,1,.181-.471A.671.671,0,0,1,47.627-5.4ZM53.77-7.109,55.82-1.66l2.046-5.449h1.6V0h-1.23V-2.344l.122-3.135L56.255,0h-.884L53.276-5.474l.122,3.13V0h-1.23V-7.109ZM63.965,0a1.831,1.831,0,0,1-.137-.493A1.847,1.847,0,0,1,62.441.1a1.864,1.864,0,0,1-1.3-.454,1.453,1.453,0,0,1-.5-1.123,1.5,1.5,0,0,1,.627-1.3,3.041,3.041,0,0,1,1.794-.452h.728v-.347a.925.925,0,0,0-.229-.657.91.91,0,0,0-.7-.247,1.045,1.045,0,0,0-.664.2.627.627,0,0,0-.259.515H60.752a1.317,1.317,0,0,1,.288-.813,1.919,1.919,0,0,1,.784-.593,2.753,2.753,0,0,1,1.106-.215,2.217,2.217,0,0,1,1.479.466A1.663,1.663,0,0,1,64.976-3.6v2.383a2.7,2.7,0,0,0,.2,1.138V0Zm-1.3-.854a1.35,1.35,0,0,0,.662-.171,1.142,1.142,0,0,0,.466-.459v-1h-.64a1.749,1.749,0,0,0-.991.229.743.743,0,0,0-.332.649.693.693,0,0,0,.227.544A.879.879,0,0,0,62.661-.854Zm4.658-4.429.034.61a1.9,1.9,0,0,1,1.538-.708q1.65,0,1.68,1.89V0H69.385V-3.423a1.088,1.088,0,0,0-.217-.745.914.914,0,0,0-.71-.242,1.143,1.143,0,0,0-1.069.649V0H66.2V-5.283ZM74.98-.518A1.84,1.84,0,0,1,73.5.1a1.64,1.64,0,0,1-1.3-.5,2.14,2.14,0,0,1-.442-1.455V-5.283h1.187v3.408q0,1.006.835,1.006a1.173,1.173,0,0,0,1.167-.62V-5.283h1.187V0H75.01ZM80.493,0a1.831,1.831,0,0,1-.137-.493A1.847,1.847,0,0,1,78.97.1a1.864,1.864,0,0,1-1.3-.454,1.453,1.453,0,0,1-.5-1.123,1.5,1.5,0,0,1,.627-1.3,3.041,3.041,0,0,1,1.794-.452h.728v-.347a.925.925,0,0,0-.229-.657.91.91,0,0,0-.7-.247,1.045,1.045,0,0,0-.664.2.627.627,0,0,0-.259.515H77.28a1.317,1.317,0,0,1,.288-.813,1.919,1.919,0,0,1,.784-.593,2.753,2.753,0,0,1,1.106-.215,2.217,2.217,0,0,1,1.479.466A1.663,1.663,0,0,1,81.5-3.6v2.383a2.7,2.7,0,0,0,.2,1.138V0Zm-1.3-.854a1.35,1.35,0,0,0,.662-.171,1.142,1.142,0,0,0,.466-.459v-1h-.64a1.749,1.749,0,0,0-.991.229.743.743,0,0,0-.332.649.693.693,0,0,0,.227.544A.879.879,0,0,0,79.189-.854ZM84.009,0H82.822V-7.5h1.187Zm3.9,0V-7.109H90a3.293,3.293,0,0,1,1.672.42A2.863,2.863,0,0,1,92.808-5.5a3.782,3.782,0,0,1,.4,1.768v.356a3.766,3.766,0,0,1-.4,1.777A2.829,2.829,0,0,1,91.658-.415,3.446,3.446,0,0,1,89.951,0Zm1.235-6.113V-.986h.806a1.855,1.855,0,0,0,1.492-.608,2.648,2.648,0,0,0,.53-1.746v-.4a2.717,2.717,0,0,0-.5-1.768A1.783,1.783,0,0,0,90-6.113ZM97.48,0a1.831,1.831,0,0,1-.137-.493A1.847,1.847,0,0,1,95.957.1a1.864,1.864,0,0,1-1.3-.454,1.453,1.453,0,0,1-.5-1.123,1.5,1.5,0,0,1,.627-1.3,3.041,3.041,0,0,1,1.794-.452H97.3v-.347a.925.925,0,0,0-.229-.657.91.91,0,0,0-.7-.247,1.045,1.045,0,0,0-.664.2.627.627,0,0,0-.259.515H94.268a1.317,1.317,0,0,1,.288-.813,1.919,1.919,0,0,1,.784-.593,2.753,2.753,0,0,1,1.106-.215,2.217,2.217,0,0,1,1.479.466A1.663,1.663,0,0,1,98.491-3.6v2.383a2.7,2.7,0,0,0,.2,1.138V0Zm-1.3-.854a1.35,1.35,0,0,0,.662-.171,1.142,1.142,0,0,0,.466-.459v-1h-.64a1.749,1.749,0,0,0-.991.229.743.743,0,0,0-.332.649.693.693,0,0,0,.227.544A.879.879,0,0,0,96.177-.854Zm5.044-5.713v1.284h.933V-4.4h-.933v2.949a.65.65,0,0,0,.12.437.555.555,0,0,0,.427.134,1.828,1.828,0,0,0,.415-.049v.918A2.922,2.922,0,0,1,101.4.1q-1.367,0-1.367-1.509V-4.4h-.869v-.879h.869V-6.567Zm5,6.567a1.831,1.831,0,0,1-.137-.493A1.847,1.847,0,0,1,104.692.1a1.864,1.864,0,0,1-1.3-.454,1.453,1.453,0,0,1-.5-1.123,1.5,1.5,0,0,1,.627-1.3,3.041,3.041,0,0,1,1.794-.452h.728v-.347a.925.925,0,0,0-.229-.657.91.91,0,0,0-.7-.247,1.045,1.045,0,0,0-.664.2.627.627,0,0,0-.259.515H103a1.317,1.317,0,0,1,.288-.813,1.919,1.919,0,0,1,.784-.593,2.753,2.753,0,0,1,1.106-.215,2.217,2.217,0,0,1,1.479.466,1.663,1.663,0,0,1,.566,1.311v2.383a2.7,2.7,0,0,0,.2,1.138V0Zm-1.3-.854a1.35,1.35,0,0,0,.662-.171,1.142,1.142,0,0,0,.466-.459v-1h-.64a1.749,1.749,0,0,0-.991.229.743.743,0,0,0-.332.649.693.693,0,0,0,.227.544A.879.879,0,0,0,104.912-.854ZM113.286.1a2.455,2.455,0,0,1-1.829-.71,2.577,2.577,0,0,1-.7-1.892v-.146a3.17,3.17,0,0,1,.305-1.414,2.323,2.323,0,0,1,.857-.969,2.265,2.265,0,0,1,1.23-.347,2.074,2.074,0,0,1,1.667.688,2.911,2.911,0,0,1,.588,1.948v.479h-3.452a1.587,1.587,0,0,0,.437,1.035,1.312,1.312,0,0,0,.964.381,1.607,1.607,0,0,0,1.328-.659l.64.61a2.136,2.136,0,0,1-.847.735A2.652,2.652,0,0,1,113.286.1Zm-.142-4.526a1,1,0,0,0-.789.342,1.772,1.772,0,0,0-.383.952h2.261v-.088a1.442,1.442,0,0,0-.317-.9A.992.992,0,0,0,113.145-4.429Zm4.282-.854.034.61A1.9,1.9,0,0,1,119-5.381q1.65,0,1.68,1.89V0h-1.187V-3.423a1.088,1.088,0,0,0-.217-.745.914.914,0,0,0-.71-.242,1.143,1.143,0,0,0-1.069.649V0h-1.187V-5.283Zm5.947-1.284v1.284h.933V-4.4h-.933v2.949a.65.65,0,0,0,.12.437.555.555,0,0,0,.427.134,1.828,1.828,0,0,0,.415-.049v.918a2.922,2.922,0,0,1-.781.112q-1.367,0-1.367-1.509V-4.4h-.869v-.879h.869V-6.567Zm4.6,2.368a2.936,2.936,0,0,0-.483-.039,1.088,1.088,0,0,0-1.1.625V0H125.21V-5.283h1.133l.029.591a1.337,1.337,0,0,1,1.191-.688,1.111,1.111,0,0,1,.42.068Zm2.686,2.5,1.074-3.584H133L130.9.8a1.707,1.707,0,0,1-1.641,1.333,2.115,2.115,0,0,1-.571-.088V1.123l.225.015a1.155,1.155,0,0,0,.676-.163,1.084,1.084,0,0,0,.359-.549l.171-.454-1.855-5.255h1.279Zm8.472.264a.538.538,0,0,0-.261-.483,2.778,2.778,0,0,0-.867-.293A4.456,4.456,0,0,1,137-2.534a1.349,1.349,0,0,1-.889-1.245,1.406,1.406,0,0,1,.576-1.143,2.278,2.278,0,0,1,1.465-.459,2.37,2.37,0,0,1,1.531.469,1.487,1.487,0,0,1,.583,1.216h-1.187a.731.731,0,0,0-.254-.569.973.973,0,0,0-.674-.227,1.051,1.051,0,0,0-.637.181.57.57,0,0,0-.247.483.481.481,0,0,0,.229.425,3.156,3.156,0,0,0,.928.305,4.392,4.392,0,0,1,1.1.366,1.552,1.552,0,0,1,.591.51,1.3,1.3,0,0,1,.193.723,1.377,1.377,0,0,1-.591,1.155A2.519,2.519,0,0,1,138.164.1a2.732,2.732,0,0,1-1.157-.234,1.9,1.9,0,0,1-.791-.645,1.526,1.526,0,0,1-.283-.884h1.152a.836.836,0,0,0,.317.647,1.233,1.233,0,0,0,.776.227,1.2,1.2,0,0,0,.713-.178A.552.552,0,0,0,139.136-1.436ZM142.5-4.707a1.857,1.857,0,0,1,1.47-.674q1.689,0,1.714,1.929V0H144.5V-3.408a1.043,1.043,0,0,0-.237-.774.968.968,0,0,0-.7-.227,1.143,1.143,0,0,0-1.064.635V0h-1.187V-7.5H142.5Zm4.16,2.017a3.115,3.115,0,0,1,.308-1.4,2.247,2.247,0,0,1,.864-.957,2.435,2.435,0,0,1,1.279-.334,2.308,2.308,0,0,1,1.736.688,2.708,2.708,0,0,1,.72,1.826l0,.278a3.143,3.143,0,0,1-.3,1.4,2.22,2.22,0,0,1-.859.952A2.453,2.453,0,0,1,149.126.1a2.292,2.292,0,0,1-1.79-.745,2.852,2.852,0,0,1-.671-1.985Zm1.187.1a2.129,2.129,0,0,0,.337,1.277,1.1,1.1,0,0,0,.938.461,1.083,1.083,0,0,0,.935-.469A2.351,2.351,0,0,0,150.4-2.69a2.1,2.1,0,0,0-.344-1.27,1.1,1.1,0,0,0-.935-.469,1.089,1.089,0,0,0-.923.461A2.307,2.307,0,0,0,147.852-2.588Zm7.93,2.07A1.84,1.84,0,0,1,154.3.1a1.64,1.64,0,0,1-1.3-.5,2.139,2.139,0,0,1-.442-1.455V-5.283h1.187v3.408q0,1.006.835,1.006a1.173,1.173,0,0,0,1.167-.62V-5.283h1.187V0h-1.118ZM159.4,0h-1.187V-7.5H159.4Zm1.069-2.681a3.141,3.141,0,0,1,.566-1.96,1.815,1.815,0,0,1,1.519-.74,1.724,1.724,0,0,1,1.357.586V-7.5H165.1V0h-1.074l-.059-.547A1.749,1.749,0,0,1,162.544.1a1.8,1.8,0,0,1-1.5-.747A3.256,3.256,0,0,1,160.469-2.681Zm1.187.1a2.2,2.2,0,0,0,.31,1.257,1.006,1.006,0,0,0,.881.452,1.121,1.121,0,0,0,1.064-.649V-3.774a1.1,1.1,0,0,0-1.055-.635,1.013,1.013,0,0,0-.889.457A2.449,2.449,0,0,0,161.655-2.578Zm11.807-.01a3.174,3.174,0,0,1-.549,1.958A1.789,1.789,0,0,1,171.4.1a1.723,1.723,0,0,1-1.445-.669L169.9,0h-1.074V-7.5h1.187v2.725a1.717,1.717,0,0,1,1.382-.605,1.81,1.81,0,0,1,1.519.718,3.226,3.226,0,0,1,.552,2.007Zm-1.187-.1a2.243,2.243,0,0,0-.3-1.289,1.008,1.008,0,0,0-.879-.43,1.1,1.1,0,0,0-1.084.674v2.178a1.113,1.113,0,0,0,1.094.688,1,1,0,0,0,.859-.415,2.173,2.173,0,0,0,.313-1.255ZM176.782.1a2.455,2.455,0,0,1-1.829-.71,2.577,2.577,0,0,1-.7-1.892v-.146a3.17,3.17,0,0,1,.305-1.414,2.323,2.323,0,0,1,.857-.969,2.266,2.266,0,0,1,1.23-.347,2.074,2.074,0,0,1,1.667.688,2.911,2.911,0,0,1,.588,1.948v.479h-3.452a1.587,1.587,0,0,0,.437,1.035,1.312,1.312,0,0,0,.964.381,1.607,1.607,0,0,0,1.328-.659l.64.61a2.136,2.136,0,0,1-.847.735A2.652,2.652,0,0,1,176.782.1Zm-.142-4.526a1,1,0,0,0-.789.342,1.772,1.772,0,0,0-.383.952h2.261v-.088a1.442,1.442,0,0,0-.317-.9A.992.992,0,0,0,176.641-4.429ZM184.482-.85a1.073,1.073,0,0,0,.737-.259.884.884,0,0,0,.313-.64h1.118a1.743,1.743,0,0,1-.308.92,2.018,2.018,0,0,1-.781.676A2.328,2.328,0,0,1,184.5.1a2.253,2.253,0,0,1-1.758-.718A2.847,2.847,0,0,1,182.09-2.6v-.122a2.8,2.8,0,0,1,.645-1.931,2.232,2.232,0,0,1,1.758-.725,2.171,2.171,0,0,1,1.536.549,1.968,1.968,0,0,1,.623,1.443h-1.118a1.087,1.087,0,0,0-.31-.747,1,1,0,0,0-.74-.293,1.044,1.044,0,0,0-.889.417,2.13,2.13,0,0,0-.317,1.267v.19a2.166,2.166,0,0,0,.31,1.282A1.043,1.043,0,0,0,184.482-.85Zm2.842-1.841a3.115,3.115,0,0,1,.308-1.4,2.247,2.247,0,0,1,.864-.957,2.435,2.435,0,0,1,1.279-.334,2.308,2.308,0,0,1,1.736.688,2.708,2.708,0,0,1,.72,1.826l0,.278a3.143,3.143,0,0,1-.3,1.4,2.22,2.22,0,0,1-.859.952A2.453,2.453,0,0,1,189.785.1,2.292,2.292,0,0,1,188-.647a2.852,2.852,0,0,1-.671-1.985Zm1.187.1a2.129,2.129,0,0,0,.337,1.277,1.1,1.1,0,0,0,.938.461,1.083,1.083,0,0,0,.935-.469,2.351,2.351,0,0,0,.334-1.372,2.1,2.1,0,0,0-.344-1.27,1.1,1.1,0,0,0-.935-.469,1.089,1.089,0,0,0-.923.461A2.307,2.307,0,0,0,188.511-2.588Zm5.845-2.7.034.552a1.9,1.9,0,0,1,1.523-.649,1.46,1.46,0,0,1,1.45.811,1.874,1.874,0,0,1,1.621-.811,1.647,1.647,0,0,1,1.3.483,2.128,2.128,0,0,1,.437,1.426V0h-1.187V-3.437a1.051,1.051,0,0,0-.22-.737.962.962,0,0,0-.728-.234.988.988,0,0,0-.662.217,1.146,1.146,0,0,0-.359.569l0,3.623h-1.187V-3.477a.846.846,0,0,0-.952-.933,1.044,1.044,0,0,0-1.011.581V0h-1.187V-5.283Zm12.212,2.7a3.146,3.146,0,0,1-.557,1.956,1.783,1.783,0,0,1-1.494.73,1.8,1.8,0,0,1-1.392-.571v2.5h-1.187V-5.283h1.094l.049.537a1.743,1.743,0,0,1,1.421-.635,1.8,1.8,0,0,1,1.516.72,3.23,3.23,0,0,1,.549,2Zm-1.182-.1a2.2,2.2,0,0,0-.315-1.255,1.024,1.024,0,0,0-.9-.464,1.092,1.092,0,0,0-1.045.6v2.344a1.1,1.1,0,0,0,1.055.615,1.023,1.023,0,0,0,.886-.457A2.426,2.426,0,0,0,205.386-2.69ZM208.833,0h-1.187V-7.5h1.187Zm3.618.1a2.455,2.455,0,0,1-1.829-.71,2.577,2.577,0,0,1-.7-1.892v-.146a3.17,3.17,0,0,1,.305-1.414,2.323,2.323,0,0,1,.857-.969,2.266,2.266,0,0,1,1.23-.347,2.074,2.074,0,0,1,1.667.688,2.911,2.911,0,0,1,.588,1.948v.479h-3.452a1.587,1.587,0,0,0,.437,1.035,1.312,1.312,0,0,0,.964.381,1.607,1.607,0,0,0,1.328-.659l.64.61a2.136,2.136,0,0,1-.847.735A2.652,2.652,0,0,1,212.451.1Zm-.142-4.526a1,1,0,0,0-.789.342,1.772,1.772,0,0,0-.383.952H213.4v-.088a1.442,1.442,0,0,0-.317-.9A.992.992,0,0,0,212.31-4.429Zm4.668-2.139v1.284h.933V-4.4h-.933v2.949a.649.649,0,0,0,.12.437.555.555,0,0,0,.427.134,1.828,1.828,0,0,0,.415-.049v.918a2.922,2.922,0,0,1-.781.112q-1.367,0-1.367-1.509V-4.4h-.869v-.879h.869V-6.567ZM221.143.1a2.455,2.455,0,0,1-1.829-.71,2.577,2.577,0,0,1-.7-1.892v-.146a3.17,3.17,0,0,1,.305-1.414,2.323,2.323,0,0,1,.857-.969,2.266,2.266,0,0,1,1.23-.347,2.074,2.074,0,0,1,1.667.688,2.911,2.911,0,0,1,.588,1.948v.479H219.81a1.587,1.587,0,0,0,.437,1.035,1.312,1.312,0,0,0,.964.381,1.607,1.607,0,0,0,1.328-.659l.64.61a2.136,2.136,0,0,1-.847.735A2.652,2.652,0,0,1,221.143.1ZM221-4.429a1,1,0,0,0-.789.342,1.772,1.772,0,0,0-.383.952h2.261v-.088a1.442,1.442,0,0,0-.317-.9A.992.992,0,0,0,221-4.429Zm2.959,1.748a3.141,3.141,0,0,1,.566-1.96,1.815,1.815,0,0,1,1.519-.74,1.724,1.724,0,0,1,1.357.586V-7.5h1.187V0h-1.074l-.059-.547A1.749,1.749,0,0,1,226.035.1a1.8,1.8,0,0,1-1.5-.747A3.256,3.256,0,0,1,223.96-2.681Zm1.187.1a2.2,2.2,0,0,0,.31,1.257,1.006,1.006,0,0,0,.881.452,1.121,1.121,0,0,0,1.064-.649V-3.774a1.1,1.1,0,0,0-1.055-.635,1.013,1.013,0,0,0-.889.457A2.449,2.449,0,0,0,225.146-2.578Z" transform="translate(583.933 318.183)" fill="#0c2339"/>
    <g id="Group_1099" data-name="Group 1099" transform="translate(55 -186.252)">
      <circle id="Ellipse_625" data-name="Ellipse 625" cx="9.5" cy="9.5" r="9.5" transform="translate(506.979 491.252)" fill="#4dc0ed"/>
      <g id="timer" transform="translate(454.207 495)">
        <g id="Group_748" data-name="Group 748" transform="translate(57.375)">
          <path id="Path_561" data-name="Path 561" d="M412.1,58.561l-.379.656,1.313.758.379-.656a.38.38,0,0,0-.139-.518l-.656-.379A.379.379,0,0,0,412.1,58.561Z" transform="translate(-405.185 -57.295)" fill="#fff"/>
          <path id="Path_562" data-name="Path 562" d="M242.84,1.707a4.97,4.97,0,0,1,.705.057V1.15l.485,0V.353A.352.352,0,0,0,243.678,0h-1.671a.352.352,0,0,0-.353.353v.793l.481,0v.613A4.97,4.97,0,0,1,242.84,1.707Z" transform="translate(-238.256)" fill="#fff"/>
          <path id="Path_563" data-name="Path 563" d="M61.959,114.75a4.584,4.584,0,1,0,4.584,4.584A4.584,4.584,0,0,0,61.959,114.75Zm2.142,6.738-2.671-1.849v-2.611H62.2v2.207l2.339,1.619Z" transform="translate(-57.375 -112.634)" fill="#fff"/>
        </g>
      </g>
    </g>
  </g>
</svg>
