<svg xmlns="http://www.w3.org/2000/svg" xmlns:xlink="http://www.w3.org/1999/xlink" width="549.5" height="231" viewBox="0 0 549.5 231">
  <defs>
    <clipPath id="clip-path">
      <path id="Path_125" data-name="Path 125" d="M0,0H11.75V11.75H0Z" fill="none"/>
    </clipPath>
  </defs>
  <g id="Group_1118" data-name="Group 1118" transform="translate(-350 -343.457)">
    <path id="Path_1109" data-name="Path 1109" d="M5,0H544a5,5,0,0,1,5,5V224a5,5,0,0,1-5,5H5a5,5,0,0,1-5-5V5A5,5,0,0,1,5,0Z" transform="translate(350 343.457)" fill="#fff"/>
    <path id="Path_1110" data-name="Path 1110" d="M6.289,0H5.347V-3.286H1.763V0H.825V-7.109h.938v3.057H5.347V-7.109h.942Zm4.019-1.245,2.031-5.864h1.025L10.728,0H9.9L7.266-7.109H8.286Zm4.946-1.538V0h-.937V-7.109h2.622a2.634,2.634,0,0,1,1.829.6,2.02,2.02,0,0,1,.662,1.577,1.993,1.993,0,0,1-.647,1.594,2.752,2.752,0,0,1-1.853.559Zm0-.767h1.685A1.684,1.684,0,0,0,18.091-3.9a1.3,1.3,0,0,0,.4-1.025,1.34,1.34,0,0,0-.4-1.017,1.578,1.578,0,0,0-1.1-.4H15.254Zm7.109.9H19.98v-.737h2.383Zm5.244-.381a4.131,4.131,0,0,1-.542,2.358A1.928,1.928,0,0,1,25.371.1a1.942,1.942,0,0,1-1.685-.754A3.921,3.921,0,0,1,23.12-2.91V-4.116a4.039,4.039,0,0,1,.542-2.329,1.942,1.942,0,0,1,1.7-.762,1.96,1.96,0,0,1,1.689.735A3.9,3.9,0,0,1,27.607-4.2Zm-.9-1.235a3.31,3.31,0,0,0-.322-1.672,1.109,1.109,0,0,0-1.021-.525,1.1,1.1,0,0,0-1.011.522,3.232,3.232,0,0,0-.327,1.606v1.445a3.363,3.363,0,0,0,.334,1.7,1.107,1.107,0,0,0,1.013.549,1.092,1.092,0,0,0,.994-.518A3.241,3.241,0,0,0,26.7-2.788Zm6.519,1.235a4.131,4.131,0,0,1-.542,2.358A1.928,1.928,0,0,1,30.986.1,1.942,1.942,0,0,1,29.3-.657a3.921,3.921,0,0,1-.566-2.253V-4.116a4.039,4.039,0,0,1,.542-2.329,1.942,1.942,0,0,1,1.7-.762,1.96,1.96,0,0,1,1.689.735A3.9,3.9,0,0,1,33.223-4.2Zm-.9-1.235A3.31,3.31,0,0,0,32-5.94a1.109,1.109,0,0,0-1.021-.525,1.1,1.1,0,0,0-1.011.522,3.232,3.232,0,0,0-.327,1.606v1.445a3.363,3.363,0,0,0,.334,1.7,1.107,1.107,0,0,0,1.013.549,1.092,1.092,0,0,0,.994-.518,3.241,3.241,0,0,0,.339-1.631ZM37.349,0H36.44V-6.021l-1.821.669v-.82l2.588-.972h.142Zm5.615,0h-.908V-6.021l-1.821.669v-.82l2.588-.972h.142Z" transform="translate(388 367.709)" fill="#0c2339"/>
    <path id="Path_1111" data-name="Path 1111" d="M0,0H131V36H0Z" transform="translate(352 345.457)" fill="#e5f4ff"/>
    <path id="Path_1112" data-name="Path 1112" d="M6.289,0H5.347V-3.286H1.763V0H.825V-7.109h.938v3.057H5.347V-7.109h.942Zm6.895-2.256a2.616,2.616,0,0,1-.833,1.741A2.728,2.728,0,0,1,10.488.1a2.505,2.505,0,0,1-2.019-.9A3.634,3.634,0,0,1,7.71-3.223v-.684a4.051,4.051,0,0,1,.354-1.743,2.644,2.644,0,0,1,1-1.155,2.794,2.794,0,0,1,1.5-.4,2.569,2.569,0,0,1,1.816.632,2.647,2.647,0,0,1,.8,1.75h-.942a2.043,2.043,0,0,0-.53-1.234,1.6,1.6,0,0,0-1.14-.382,1.677,1.677,0,0,0-1.409.665,3.051,3.051,0,0,0-.51,1.891V-3.2a3.136,3.136,0,0,0,.483,1.842,1.562,1.562,0,0,0,1.353.684,1.8,1.8,0,0,0,1.2-.354,1.964,1.964,0,0,0,.554-1.233Zm5.205.4H15.41L14.741,0h-.967l2.715-7.109h.82L20.029,0h-.962Zm-2.7-.767H18.11L16.9-5.952Zm7.031-.024H20.342v-.737h2.383Zm5.244-.381a4.131,4.131,0,0,1-.542,2.358A1.928,1.928,0,0,1,25.732.1a1.942,1.942,0,0,1-1.685-.754,3.921,3.921,0,0,1-.566-2.253V-4.116a4.039,4.039,0,0,1,.542-2.329,1.942,1.942,0,0,1,1.7-.762,1.96,1.96,0,0,1,1.689.735A3.9,3.9,0,0,1,27.969-4.2Zm-.9-1.235a3.31,3.31,0,0,0-.322-1.672,1.109,1.109,0,0,0-1.021-.525,1.1,1.1,0,0,0-1.011.522,3.232,3.232,0,0,0-.327,1.606v1.445a3.363,3.363,0,0,0,.334,1.7,1.107,1.107,0,0,0,1.013.549,1.092,1.092,0,0,0,.994-.518,3.241,3.241,0,0,0,.339-1.631Zm6.519,1.235a4.131,4.131,0,0,1-.542,2.358A1.928,1.928,0,0,1,31.348.1a1.942,1.942,0,0,1-1.685-.754A3.921,3.921,0,0,1,29.1-2.91V-4.116a4.039,4.039,0,0,1,.542-2.329,1.942,1.942,0,0,1,1.7-.762,1.96,1.96,0,0,1,1.689.735A3.9,3.9,0,0,1,33.584-4.2Zm-.9-1.235a3.31,3.31,0,0,0-.322-1.672,1.109,1.109,0,0,0-1.021-.525,1.1,1.1,0,0,0-1.011.522A3.232,3.232,0,0,0,30-4.336v1.445a3.363,3.363,0,0,0,.334,1.7,1.107,1.107,0,0,0,1.013.549,1.092,1.092,0,0,0,.994-.518,3.241,3.241,0,0,0,.339-1.631Zm3.374.273h.679a1.492,1.492,0,0,0,1.006-.337,1.126,1.126,0,0,0,.366-.884,1.1,1.1,0,0,0-1.245-1.25,1.3,1.3,0,0,0-.935.334,1.171,1.171,0,0,0-.349.886h-.9a1.814,1.814,0,0,1,.618-1.4,2.25,2.25,0,0,1,1.57-.559,2.224,2.224,0,0,1,1.577.532A1.923,1.923,0,0,1,39.009-5.2a1.561,1.561,0,0,1-.3.9,1.813,1.813,0,0,1-.818.649,1.747,1.747,0,0,1,.906.615,1.709,1.709,0,0,1,.32,1.05,1.939,1.939,0,0,1-.625,1.519A2.34,2.34,0,0,1,36.865.1a2.4,2.4,0,0,1-1.628-.542,1.8,1.8,0,0,1-.627-1.431h.908a1.162,1.162,0,0,0,.366.9,1.393,1.393,0,0,0,.981.337,1.367,1.367,0,0,0,1-.342,1.317,1.317,0,0,0,.347-.981,1.2,1.2,0,0,0-.381-.952,1.659,1.659,0,0,0-1.1-.342h-.679Z" transform="translate(388 368.205)" fill="#0c2339"/>
    <path id="Path_1113" data-name="Path 1113" d="M5.049-3.032A4.131,4.131,0,0,1,4.507-.674,1.928,1.928,0,0,1,2.813.1,1.942,1.942,0,0,1,1.128-.657,3.921,3.921,0,0,1,.562-2.91V-4.116A4.039,4.039,0,0,1,1.1-6.445a1.942,1.942,0,0,1,1.7-.762,1.96,1.96,0,0,1,1.689.735A3.9,3.9,0,0,1,5.049-4.2Zm-.9-1.235A3.31,3.31,0,0,0,3.823-5.94,1.109,1.109,0,0,0,2.8-6.465a1.1,1.1,0,0,0-1.011.522,3.232,3.232,0,0,0-.327,1.606v1.445a3.363,3.363,0,0,0,.334,1.7A1.107,1.107,0,0,0,2.813-.64a1.092,1.092,0,0,0,.994-.518,3.241,3.241,0,0,0,.339-1.631Z" transform="translate(522.25 411.453)" fill="#0c2339"/>
    <path id="Path_1114" data-name="Path 1114" d="M1.9-3.994h.679a1.492,1.492,0,0,0,1.006-.337,1.126,1.126,0,0,0,.366-.884A1.1,1.1,0,0,0,2.71-6.465a1.3,1.3,0,0,0-.935.334,1.171,1.171,0,0,0-.349.886h-.9a1.814,1.814,0,0,1,.618-1.4,2.25,2.25,0,0,1,1.57-.559,2.224,2.224,0,0,1,1.577.532A1.923,1.923,0,0,1,4.858-5.2a1.561,1.561,0,0,1-.3.9,1.813,1.813,0,0,1-.818.649,1.747,1.747,0,0,1,.906.615,1.709,1.709,0,0,1,.32,1.05A1.939,1.939,0,0,1,4.341-.464,2.34,2.34,0,0,1,2.715.1,2.4,2.4,0,0,1,1.086-.444,1.8,1.8,0,0,1,.459-1.875h.908a1.162,1.162,0,0,0,.366.9,1.393,1.393,0,0,0,.981.337,1.367,1.367,0,0,0,1-.342,1.317,1.317,0,0,0,.347-.981,1.2,1.2,0,0,0-.381-.952,1.659,1.659,0,0,0-1.1-.342H1.9Z" transform="translate(544.75 411.453)" fill="#0c2339"/>
    <path id="Path_1115" data-name="Path 1115" d="M4.136-7.114v.767H3.97a2.378,2.378,0,0,0-1.68.625,2.6,2.6,0,0,0-.723,1.7A1.928,1.928,0,0,1,3.1-4.663a1.844,1.844,0,0,1,1.482.654,2.524,2.524,0,0,1,.554,1.689,2.516,2.516,0,0,1-.6,1.758A2.06,2.06,0,0,1,2.935.1,2.029,2.029,0,0,1,1.279-.686,3.106,3.106,0,0,1,.645-2.705v-.347a4.68,4.68,0,0,1,.837-3A3.075,3.075,0,0,1,3.975-7.114Zm-1.187,3.2a1.441,1.441,0,0,0-.854.278,1.45,1.45,0,0,0-.542.7V-2.6a2.332,2.332,0,0,0,.4,1.416,1.185,1.185,0,0,0,.986.537A1.148,1.148,0,0,0,3.894-1.1a1.864,1.864,0,0,0,.349-1.177,1.865,1.865,0,0,0-.354-1.184A1.135,1.135,0,0,0,2.949-3.911Z" transform="translate(567.25 411.453)" fill="#0c2339"/>
    <path id="Path_1116" data-name="Path 1116" d="M4.053-3.125a2.21,2.21,0,0,1-.676.542,1.835,1.835,0,0,1-.862.205,1.894,1.894,0,0,1-1.072-.3,1.968,1.968,0,0,1-.706-.852A2.9,2.9,0,0,1,.488-4.746,2.96,2.96,0,0,1,.759-6.03,1.991,1.991,0,0,1,1.528-6.9a2.193,2.193,0,0,1,1.162-.3,1.985,1.985,0,0,1,1.663.789,3.44,3.44,0,0,1,.608,2.151V-4a4.6,4.6,0,0,1-.82,3.03A3.152,3.152,0,0,1,1.665,0H1.489V-.762h.19A2.487,2.487,0,0,0,3.4-1.344,2.5,2.5,0,0,0,4.053-3.125Zm-1.392,0A1.4,1.4,0,0,0,3.5-3.4a1.641,1.641,0,0,0,.559-.688v-.361A2.486,2.486,0,0,0,3.672-5.9,1.151,1.151,0,0,0,2.7-6.455,1.16,1.16,0,0,0,1.738-6a1.883,1.883,0,0,0-.361,1.2,1.96,1.96,0,0,0,.349,1.2A1.105,1.105,0,0,0,2.661-3.125Z" transform="translate(589.75 411.453)" fill="#0c2339"/>
    <path id="Path_1117" data-name="Path 1117" d="M3.56,0H2.651V-6.021L.83-5.352v-.82l2.588-.972H3.56Zm7.3,0H6.206V-.649L8.667-3.384a5.847,5.847,0,0,0,.754-1.008,1.683,1.683,0,0,0,.208-.8,1.276,1.276,0,0,0-.337-.913,1.178,1.178,0,0,0-.9-.356,1.4,1.4,0,0,0-1.047.383,1.464,1.464,0,0,0-.374,1.067h-.9A2.1,2.1,0,0,1,6.7-6.6a2.344,2.344,0,0,1,1.692-.605,2.252,2.252,0,0,1,1.567.52A1.774,1.774,0,0,1,10.537-5.3,4.067,4.067,0,0,1,9.2-2.8L7.295-.737h3.569Z" transform="translate(609.75 411.453)" fill="#0c2339"/>
    <path id="Path_1118" data-name="Path 1118" d="M3.56,0H2.651V-6.021L.83-5.352v-.82l2.588-.972H3.56ZM6.621-3.564l.361-3.545h3.643v.835H7.749L7.534-4.336a2.294,2.294,0,0,1,1.187-.308A1.961,1.961,0,0,1,10.264-4a2.516,2.516,0,0,1,.571,1.736,2.429,2.429,0,0,1-.593,1.731A2.162,2.162,0,0,1,8.584.1,2.247,2.247,0,0,1,7.046-.425,2.085,2.085,0,0,1,6.367-1.87h.854a1.435,1.435,0,0,0,.435.92,1.351,1.351,0,0,0,.928.31,1.219,1.219,0,0,0,.989-.43,1.8,1.8,0,0,0,.359-1.187A1.649,1.649,0,0,0,9.543-3.4a1.32,1.32,0,0,0-1.033-.432,1.489,1.489,0,0,0-.928.259l-.239.2Z" transform="translate(632.25 411.453)" fill="#0c2339"/>
    <path id="Path_1119" data-name="Path 1119" d="M3.56,0H2.651V-6.021L.83-5.352v-.82l2.588-.972H3.56Zm6.958-5.254a1.651,1.651,0,0,1-.281.947,1.91,1.91,0,0,1-.759.649,2.038,2.038,0,0,1,.881.7,1.757,1.757,0,0,1,.325,1.04,1.858,1.858,0,0,1-.623,1.47A2.392,2.392,0,0,1,8.423.1,2.381,2.381,0,0,1,6.78-.452a1.866,1.866,0,0,1-.618-1.467,1.81,1.81,0,0,1,.315-1.04,1.96,1.96,0,0,1,.872-.7A1.863,1.863,0,0,1,6.6-4.312a1.674,1.674,0,0,1-.273-.942A1.838,1.838,0,0,1,6.9-6.68a2.161,2.161,0,0,1,1.519-.527,2.163,2.163,0,0,1,1.516.527A1.834,1.834,0,0,1,10.518-5.254ZM9.78-1.938A1.31,1.31,0,0,0,9.4-2.91a1.342,1.342,0,0,0-.989-.376,1.318,1.318,0,0,0-.979.371,1.325,1.325,0,0,0-.369.977,1.262,1.262,0,0,0,.359.952,1.378,1.378,0,0,0,1,.347,1.373,1.373,0,0,0,1-.349A1.259,1.259,0,0,0,9.78-1.938ZM8.423-6.465a1.166,1.166,0,0,0-.862.33,1.211,1.211,0,0,0-.33.9,1.2,1.2,0,0,0,.325.876,1.152,1.152,0,0,0,.867.334,1.152,1.152,0,0,0,.867-.334,1.2,1.2,0,0,0,.325-.876,1.205,1.205,0,0,0-.337-.884A1.149,1.149,0,0,0,8.423-6.465Z" transform="translate(654.75 411.453)" fill="#0c2339"/>
    <path id="Path_1120" data-name="Path 1120" d="M5.249,0H.591V-.649L3.052-3.384a5.847,5.847,0,0,0,.754-1.008,1.683,1.683,0,0,0,.208-.8,1.276,1.276,0,0,0-.337-.913,1.178,1.178,0,0,0-.9-.356,1.4,1.4,0,0,0-1.047.383,1.464,1.464,0,0,0-.374,1.067h-.9A2.1,2.1,0,0,1,1.086-6.6a2.344,2.344,0,0,1,1.692-.605,2.252,2.252,0,0,1,1.567.52A1.774,1.774,0,0,1,4.922-5.3,4.067,4.067,0,0,1,3.584-2.8L1.68-.737H5.249ZM9.175,0H8.267V-6.021l-1.821.669v-.82l2.588-.972h.142Z" transform="translate(677.25 411.453)" fill="#0c2339"/>
    <path id="Path_1121" data-name="Path 1121" d="M5.249,0H.591V-.649L3.052-3.384a5.847,5.847,0,0,0,.754-1.008,1.683,1.683,0,0,0,.208-.8,1.276,1.276,0,0,0-.337-.913,1.178,1.178,0,0,0-.9-.356,1.4,1.4,0,0,0-1.047.383,1.464,1.464,0,0,0-.374,1.067h-.9A2.1,2.1,0,0,1,1.086-6.6a2.344,2.344,0,0,1,1.692-.605,2.252,2.252,0,0,1,1.567.52A1.774,1.774,0,0,1,4.922-5.3,4.067,4.067,0,0,1,3.584-2.8L1.68-.737H5.249ZM10.02-2.388h.986v.737H10.02V0H9.111V-1.65H5.874v-.532L9.058-7.109h.962Zm-3.12,0H9.111V-5.874L9-5.679Z" transform="translate(699.75 411.453)" fill="#0c2339"/>
    <path id="Path_1122" data-name="Path 1122" d="M5.249,0H.591V-.649L3.052-3.384a5.847,5.847,0,0,0,.754-1.008,1.683,1.683,0,0,0,.208-.8,1.276,1.276,0,0,0-.337-.913,1.178,1.178,0,0,0-.9-.356,1.4,1.4,0,0,0-1.047.383,1.464,1.464,0,0,0-.374,1.067h-.9A2.1,2.1,0,0,1,1.086-6.6a2.344,2.344,0,0,1,1.692-.605,2.252,2.252,0,0,1,1.567.52A1.774,1.774,0,0,1,4.922-5.3,4.067,4.067,0,0,1,3.584-2.8L1.68-.737H5.249ZM10.8-6.6,7.852,0H6.9L9.839-6.367H5.991v-.742h4.8Z" transform="translate(722.25 411.453)" fill="#0c2339"/>
    <path id="Path_1123" data-name="Path 1123" d="M1.9-3.994h.679a1.492,1.492,0,0,0,1.006-.337,1.126,1.126,0,0,0,.366-.884A1.1,1.1,0,0,0,2.71-6.465a1.3,1.3,0,0,0-.935.334,1.171,1.171,0,0,0-.349.886h-.9a1.814,1.814,0,0,1,.618-1.4,2.25,2.25,0,0,1,1.57-.559,2.224,2.224,0,0,1,1.577.532A1.923,1.923,0,0,1,4.858-5.2a1.561,1.561,0,0,1-.3.9,1.813,1.813,0,0,1-.818.649,1.747,1.747,0,0,1,.906.615,1.709,1.709,0,0,1,.32,1.05A1.939,1.939,0,0,1,4.341-.464,2.34,2.34,0,0,1,2.715.1,2.4,2.4,0,0,1,1.086-.444,1.8,1.8,0,0,1,.459-1.875h.908a1.162,1.162,0,0,0,.366.9,1.393,1.393,0,0,0,.981.337,1.367,1.367,0,0,0,1-.342,1.317,1.317,0,0,0,.347-.981,1.2,1.2,0,0,0-.381-.952,1.659,1.659,0,0,0-1.1-.342H1.9Zm8.76.962a4.131,4.131,0,0,1-.542,2.358A1.928,1.928,0,0,1,8.428.1,1.942,1.942,0,0,1,6.743-.657,3.921,3.921,0,0,1,6.177-2.91V-4.116a4.039,4.039,0,0,1,.542-2.329,1.942,1.942,0,0,1,1.7-.762,1.96,1.96,0,0,1,1.689.735A3.9,3.9,0,0,1,10.664-4.2Zm-.9-1.235A3.31,3.31,0,0,0,9.438-5.94a1.109,1.109,0,0,0-1.021-.525,1.1,1.1,0,0,0-1.011.522A3.232,3.232,0,0,0,7.08-4.336v1.445a3.363,3.363,0,0,0,.334,1.7A1.107,1.107,0,0,0,8.428-.64a1.092,1.092,0,0,0,.994-.518,3.241,3.241,0,0,0,.339-1.631Z" transform="translate(744.75 411.453)" fill="#0c2339"/>
    <path id="Path_1124" data-name="Path 1124" d="M1.9-3.994h.679a1.492,1.492,0,0,0,1.006-.337,1.126,1.126,0,0,0,.366-.884A1.1,1.1,0,0,0,2.71-6.465a1.3,1.3,0,0,0-.935.334,1.171,1.171,0,0,0-.349.886h-.9a1.814,1.814,0,0,1,.618-1.4,2.25,2.25,0,0,1,1.57-.559,2.224,2.224,0,0,1,1.577.532A1.923,1.923,0,0,1,4.858-5.2a1.561,1.561,0,0,1-.3.9,1.813,1.813,0,0,1-.818.649,1.747,1.747,0,0,1,.906.615,1.709,1.709,0,0,1,.32,1.05A1.939,1.939,0,0,1,4.341-.464,2.34,2.34,0,0,1,2.715.1,2.4,2.4,0,0,1,1.086-.444,1.8,1.8,0,0,1,.459-1.875h.908a1.162,1.162,0,0,0,.366.9,1.393,1.393,0,0,0,.981.337,1.367,1.367,0,0,0,1-.342,1.317,1.317,0,0,0,.347-.981,1.2,1.2,0,0,0-.381-.952,1.659,1.659,0,0,0-1.1-.342H1.9Zm5.615,0H8.2A1.492,1.492,0,0,0,9.2-4.331a1.126,1.126,0,0,0,.366-.884,1.1,1.1,0,0,0-1.245-1.25,1.3,1.3,0,0,0-.935.334,1.171,1.171,0,0,0-.349.886h-.9a1.814,1.814,0,0,1,.618-1.4,2.25,2.25,0,0,1,1.57-.559A2.224,2.224,0,0,1,9.9-6.675,1.923,1.923,0,0,1,10.474-5.2a1.561,1.561,0,0,1-.3.9,1.813,1.813,0,0,1-.818.649,1.747,1.747,0,0,1,.906.615,1.709,1.709,0,0,1,.32,1.05A1.939,1.939,0,0,1,9.956-.464,2.34,2.34,0,0,1,8.33.1,2.4,2.4,0,0,1,6.7-.444a1.8,1.8,0,0,1-.627-1.431h.908a1.162,1.162,0,0,0,.366.9A1.393,1.393,0,0,0,8.33-.64a1.367,1.367,0,0,0,1-.342,1.317,1.317,0,0,0,.347-.981A1.2,1.2,0,0,0,9.3-2.915a1.659,1.659,0,0,0-1.1-.342H7.52Z" transform="translate(767.25 411.453)" fill="#0c2339"/>
    <path id="Path_1125" data-name="Path 1125" d="M1.9-3.994h.679a1.492,1.492,0,0,0,1.006-.337,1.126,1.126,0,0,0,.366-.884A1.1,1.1,0,0,0,2.71-6.465a1.3,1.3,0,0,0-.935.334,1.171,1.171,0,0,0-.349.886h-.9a1.814,1.814,0,0,1,.618-1.4,2.25,2.25,0,0,1,1.57-.559,2.224,2.224,0,0,1,1.577.532A1.923,1.923,0,0,1,4.858-5.2a1.561,1.561,0,0,1-.3.9,1.813,1.813,0,0,1-.818.649,1.747,1.747,0,0,1,.906.615,1.709,1.709,0,0,1,.32,1.05A1.939,1.939,0,0,1,4.341-.464,2.34,2.34,0,0,1,2.715.1,2.4,2.4,0,0,1,1.086-.444,1.8,1.8,0,0,1,.459-1.875h.908a1.162,1.162,0,0,0,.366.9,1.393,1.393,0,0,0,.981.337,1.367,1.367,0,0,0,1-.342,1.317,1.317,0,0,0,.347-.981,1.2,1.2,0,0,0-.381-.952,1.659,1.659,0,0,0-1.1-.342H1.9Zm7.847-3.12v.767H9.585a2.378,2.378,0,0,0-1.68.625,2.6,2.6,0,0,0-.723,1.7,1.928,1.928,0,0,1,1.533-.645,1.844,1.844,0,0,1,1.482.654,2.524,2.524,0,0,1,.554,1.689,2.516,2.516,0,0,1-.6,1.758A2.06,2.06,0,0,1,8.55.1,2.029,2.029,0,0,1,6.895-.686,3.106,3.106,0,0,1,6.26-2.705v-.347a4.68,4.68,0,0,1,.837-3A3.075,3.075,0,0,1,9.59-7.114Zm-1.187,3.2a1.441,1.441,0,0,0-.854.278,1.45,1.45,0,0,0-.542.7V-2.6a2.332,2.332,0,0,0,.4,1.416,1.185,1.185,0,0,0,.986.537A1.148,1.148,0,0,0,9.509-1.1a1.864,1.864,0,0,0,.349-1.177A1.865,1.865,0,0,0,9.5-3.459,1.135,1.135,0,0,0,8.564-3.911Z" transform="translate(789.75 411.453)" fill="#0c2339"/>
    <path id="Path_1126" data-name="Path 1126" d="M1.9-3.994h.679a1.492,1.492,0,0,0,1.006-.337,1.126,1.126,0,0,0,.366-.884A1.1,1.1,0,0,0,2.71-6.465a1.3,1.3,0,0,0-.935.334,1.171,1.171,0,0,0-.349.886h-.9a1.814,1.814,0,0,1,.618-1.4,2.25,2.25,0,0,1,1.57-.559,2.224,2.224,0,0,1,1.577.532A1.923,1.923,0,0,1,4.858-5.2a1.561,1.561,0,0,1-.3.9,1.813,1.813,0,0,1-.818.649,1.747,1.747,0,0,1,.906.615,1.709,1.709,0,0,1,.32,1.05A1.939,1.939,0,0,1,4.341-.464,2.34,2.34,0,0,1,2.715.1,2.4,2.4,0,0,1,1.086-.444,1.8,1.8,0,0,1,.459-1.875h.908a1.162,1.162,0,0,0,.366.9,1.393,1.393,0,0,0,.981.337,1.367,1.367,0,0,0,1-.342,1.317,1.317,0,0,0,.347-.981,1.2,1.2,0,0,0-.381-.952,1.659,1.659,0,0,0-1.1-.342H1.9Zm7.764.869a2.21,2.21,0,0,1-.676.542,1.835,1.835,0,0,1-.862.205,1.894,1.894,0,0,1-1.072-.3,1.968,1.968,0,0,1-.706-.852A2.9,2.9,0,0,1,6.1-4.746,2.96,2.96,0,0,1,6.375-6.03,1.991,1.991,0,0,1,7.144-6.9a2.193,2.193,0,0,1,1.162-.3,1.985,1.985,0,0,1,1.663.789,3.44,3.44,0,0,1,.608,2.151V-4a4.6,4.6,0,0,1-.82,3.03A3.152,3.152,0,0,1,7.28,0H7.1V-.762h.19a2.487,2.487,0,0,0,1.719-.582A2.5,2.5,0,0,0,9.668-3.125Zm-1.392,0A1.4,1.4,0,0,0,9.114-3.4a1.641,1.641,0,0,0,.559-.688v-.361A2.486,2.486,0,0,0,9.287-5.9a1.151,1.151,0,0,0-.977-.557A1.16,1.16,0,0,0,7.354-6a1.883,1.883,0,0,0-.361,1.2,1.96,1.96,0,0,0,.349,1.2A1.105,1.105,0,0,0,8.276-3.125Z" transform="translate(812.25 411.453)" fill="#0c2339"/>
    <path id="Path_1127" data-name="Path 1127" d="M4.4-2.388h.986v.737H4.4V0H3.5V-1.65H.259v-.532L3.442-7.109H4.4Zm-3.12,0H3.5V-5.874l-.107.2ZM10.864,0H6.206V-.649L8.667-3.384a5.847,5.847,0,0,0,.754-1.008,1.683,1.683,0,0,0,.208-.8,1.276,1.276,0,0,0-.337-.913,1.178,1.178,0,0,0-.9-.356,1.4,1.4,0,0,0-1.047.383,1.464,1.464,0,0,0-.374,1.067h-.9A2.1,2.1,0,0,1,6.7-6.6a2.344,2.344,0,0,1,1.692-.605,2.252,2.252,0,0,1,1.567.52A1.774,1.774,0,0,1,10.537-5.3,4.067,4.067,0,0,1,9.2-2.8L7.295-.737h3.569Z" transform="translate(834.75 411.453)" fill="#0c2339"/>
    <path id="Path_1128" data-name="Path 1128" d="M4.4-2.388h.986v.737H4.4V0H3.5V-1.65H.259v-.532L3.442-7.109H4.4Zm-3.12,0H3.5V-5.874l-.107.2ZM6.621-3.564l.361-3.545h3.643v.835H7.749L7.534-4.336a2.294,2.294,0,0,1,1.187-.308A1.961,1.961,0,0,1,10.264-4a2.516,2.516,0,0,1,.571,1.736,2.429,2.429,0,0,1-.593,1.731A2.162,2.162,0,0,1,8.584.1,2.247,2.247,0,0,1,7.046-.425,2.085,2.085,0,0,1,6.367-1.87h.854a1.435,1.435,0,0,0,.435.92,1.351,1.351,0,0,0,.928.31,1.219,1.219,0,0,0,.989-.43,1.8,1.8,0,0,0,.359-1.187A1.649,1.649,0,0,0,9.543-3.4a1.32,1.32,0,0,0-1.033-.432,1.489,1.489,0,0,0-.928.259l-.239.2Z" transform="translate(857.25 411.453)" fill="#0c2339"/>
    <path id="Path_1129" data-name="Path 1129" d="M2.324-7.109,4.375-1.66,6.421-7.109h1.6V0H6.787V-2.344l.122-3.135L4.81,0H3.926L1.831-5.474l.122,3.13V0H.723V-7.109Zm12.148,1H12.256V0H11.03V-6.113h-2.2v-1h5.64Zm6.221,3.8a2.567,2.567,0,0,1-.84,1.775A2.863,2.863,0,0,1,17.905.1a2.772,2.772,0,0,1-1.5-.4,2.644,2.644,0,0,1-1-1.145,4.132,4.132,0,0,1-.366-1.724v-.664A4.162,4.162,0,0,1,15.4-5.61a2.686,2.686,0,0,1,1.023-1.182,2.853,2.853,0,0,1,1.541-.415,2.748,2.748,0,0,1,1.895.637,2.663,2.663,0,0,1,.835,1.8h-1.23a1.756,1.756,0,0,0-.447-1.106,1.477,1.477,0,0,0-1.052-.339,1.442,1.442,0,0,0-1.238.589,2.943,2.943,0,0,0-.442,1.728v.63A3.122,3.122,0,0,0,16.7-1.5,1.369,1.369,0,0,0,17.905-.9,1.6,1.6,0,0,0,19-1.226a1.706,1.706,0,0,0,.464-1.089Zm3.291-.229H21.421V-3.5h2.563Zm5.537-.449a3.877,3.877,0,0,1-.574,2.312A2.026,2.026,0,0,1,27.2.1a2.053,2.053,0,0,1-1.736-.759,3.713,3.713,0,0,1-.6-2.249v-1.23a3.819,3.819,0,0,1,.574-2.3,2.045,2.045,0,0,1,1.75-.767,2.057,2.057,0,0,1,1.741.747,3.7,3.7,0,0,1,.588,2.236ZM28.335-4.321a3.008,3.008,0,0,0-.273-1.467.933.933,0,0,0-.869-.466.933.933,0,0,0-.854.442,2.78,2.78,0,0,0-.288,1.379v1.611a3.086,3.086,0,0,0,.278,1.484A.935.935,0,0,0,27.2-.85a.918.918,0,0,0,.845-.452,2.9,2.9,0,0,0,.288-1.414Zm6.87,1.328a3.877,3.877,0,0,1-.574,2.312A2.026,2.026,0,0,1,32.886.1,2.053,2.053,0,0,1,31.15-.662a3.713,3.713,0,0,1-.6-2.249v-1.23a3.819,3.819,0,0,1,.574-2.3,2.045,2.045,0,0,1,1.75-.767,2.057,2.057,0,0,1,1.741.747,3.7,3.7,0,0,1,.588,2.236ZM34.019-4.321a3.008,3.008,0,0,0-.273-1.467.933.933,0,0,0-.869-.466.933.933,0,0,0-.854.442,2.78,2.78,0,0,0-.288,1.379v1.611a3.086,3.086,0,0,0,.278,1.484.935.935,0,0,0,.874.488A.918.918,0,0,0,33.73-1.3a2.9,2.9,0,0,0,.288-1.414Zm6.87,1.328a3.877,3.877,0,0,1-.574,2.312A2.026,2.026,0,0,1,38.569.1a2.053,2.053,0,0,1-1.736-.759,3.713,3.713,0,0,1-.6-2.249v-1.23a3.819,3.819,0,0,1,.574-2.3,2.045,2.045,0,0,1,1.75-.767A2.057,2.057,0,0,1,40.3-6.46a3.7,3.7,0,0,1,.588,2.236ZM39.7-4.321a3.008,3.008,0,0,0-.273-1.467.933.933,0,0,0-.869-.466.933.933,0,0,0-.854.442,2.78,2.78,0,0,0-.288,1.379v1.611A3.086,3.086,0,0,0,37.7-1.338a.935.935,0,0,0,.874.488.918.918,0,0,0,.845-.452A2.9,2.9,0,0,0,39.7-2.715Zm3.608.225h.723A1.293,1.293,0,0,0,44.9-4.38a1.01,1.01,0,0,0,.32-.806,1.1,1.1,0,0,0-.266-.789,1.071,1.071,0,0,0-.813-.281,1.133,1.133,0,0,0-.786.276.922.922,0,0,0-.308.72H41.86a1.8,1.8,0,0,1,.291-1,1.952,1.952,0,0,1,.811-.7,2.64,2.64,0,0,1,1.165-.251,2.445,2.445,0,0,1,1.672.535,1.876,1.876,0,0,1,.608,1.487,1.511,1.511,0,0,1-.305.9,1.914,1.914,0,0,1-.789.637,1.744,1.744,0,0,1,.891.63,1.725,1.725,0,0,1,.305,1.025,1.909,1.909,0,0,1-.657,1.523A2.55,2.55,0,0,1,44.126.1a2.531,2.531,0,0,1-1.68-.547A1.8,1.8,0,0,1,41.792-1.9h1.187a.993.993,0,0,0,.315.762,1.194,1.194,0,0,0,.847.293,1.232,1.232,0,0,0,.869-.293,1.1,1.1,0,0,0,.317-.85A1.11,1.11,0,0,0,45-2.856a1.42,1.42,0,0,0-.986-.3h-.7Zm5.1,2.847a.678.678,0,0,1,.513.188.653.653,0,0,1,.181.471.63.63,0,0,1-.181.461.688.688,0,0,1-.513.183.69.69,0,0,1-.5-.181.619.619,0,0,1-.186-.464.653.653,0,0,1,.181-.471A.671.671,0,0,1,48.413-1.25Zm0-4.146a.678.678,0,0,1,.513.188.653.653,0,0,1,.181.471.63.63,0,0,1-.181.461.688.688,0,0,1-.513.183.69.69,0,0,1-.5-.181.619.619,0,0,1-.186-.464.653.653,0,0,1,.181-.471A.671.671,0,0,1,48.413-5.4Zm6.03,3.74H51.689L51.113,0H49.829l2.686-7.109h1.108L56.313,0H55.024Zm-2.407-1H54.1L53.066-5.6ZM58.267,0H57.08V-7.5h1.187ZM60.82,0H59.634V-7.5H60.82Zm4.9-5.283.034.552a1.9,1.9,0,0,1,1.523-.649,1.46,1.46,0,0,1,1.45.811,1.874,1.874,0,0,1,1.621-.811,1.647,1.647,0,0,1,1.3.483,2.128,2.128,0,0,1,.437,1.426V0H70.9V-3.437a1.051,1.051,0,0,0-.22-.737.962.962,0,0,0-.728-.234.988.988,0,0,0-.662.217,1.146,1.146,0,0,0-.359.569l0,3.623H67.749V-3.477a.846.846,0,0,0-.952-.933,1.045,1.045,0,0,0-1.011.581V0H64.6V-5.283ZM75.63.1A2.455,2.455,0,0,1,73.8-.613,2.577,2.577,0,0,1,73.1-2.5v-.146a3.17,3.17,0,0,1,.305-1.414,2.323,2.323,0,0,1,.857-.969,2.265,2.265,0,0,1,1.23-.347,2.074,2.074,0,0,1,1.667.688,2.911,2.911,0,0,1,.588,1.948v.479H74.3a1.587,1.587,0,0,0,.437,1.035A1.312,1.312,0,0,0,75.7-.85a1.607,1.607,0,0,0,1.328-.659l.64.61a2.136,2.136,0,0,1-.847.735A2.652,2.652,0,0,1,75.63.1Zm-.142-4.526a1,1,0,0,0-.789.342,1.772,1.772,0,0,0-.383.952h2.261v-.088a1.442,1.442,0,0,0-.317-.9A.992.992,0,0,0,75.488-4.429Zm4.668-2.139v1.284h.933V-4.4h-.933v2.949a.65.65,0,0,0,.12.437.555.555,0,0,0,.427.134,1.828,1.828,0,0,0,.415-.049v.918A2.922,2.922,0,0,1,80.337.1Q78.97.1,78.97-1.411V-4.4H78.1v-.879h.869V-6.567ZM84.321.1a2.455,2.455,0,0,1-1.829-.71,2.577,2.577,0,0,1-.7-1.892v-.146A3.17,3.17,0,0,1,82.1-4.065a2.323,2.323,0,0,1,.857-.969,2.265,2.265,0,0,1,1.23-.347,2.074,2.074,0,0,1,1.667.688,2.911,2.911,0,0,1,.588,1.948v.479H82.988a1.587,1.587,0,0,0,.437,1.035,1.312,1.312,0,0,0,.964.381,1.607,1.607,0,0,0,1.328-.659l.64.61a2.136,2.136,0,0,1-.847.735A2.652,2.652,0,0,1,84.321.1ZM84.18-4.429a1,1,0,0,0-.789.342,1.772,1.772,0,0,0-.383.952h2.261v-.088a1.442,1.442,0,0,0-.317-.9A.992.992,0,0,0,84.18-4.429Zm5.947.229a2.936,2.936,0,0,0-.483-.039,1.088,1.088,0,0,0-1.1.625V0H87.358V-5.283h1.133l.029.591a1.337,1.337,0,0,1,1.191-.688,1.111,1.111,0,0,1,.42.068Zm6.006,0a2.936,2.936,0,0,0-.483-.039,1.088,1.088,0,0,0-1.1.625V0H93.364V-5.283H94.5l.029.591a1.337,1.337,0,0,1,1.191-.688,1.111,1.111,0,0,1,.42.068ZM99.116.1a2.455,2.455,0,0,1-1.829-.71,2.577,2.577,0,0,1-.7-1.892v-.146a3.17,3.17,0,0,1,.305-1.414,2.323,2.323,0,0,1,.857-.969,2.265,2.265,0,0,1,1.23-.347,2.074,2.074,0,0,1,1.667.688,2.911,2.911,0,0,1,.588,1.948v.479H97.783A1.587,1.587,0,0,0,98.22-1.23a1.312,1.312,0,0,0,.964.381,1.607,1.607,0,0,0,1.328-.659l.64.61a2.136,2.136,0,0,1-.847.735A2.652,2.652,0,0,1,99.116.1Zm-.142-4.526a1,1,0,0,0-.789.342,1.772,1.772,0,0,0-.383.952h2.261v-.088a1.442,1.442,0,0,0-.317-.9A.992.992,0,0,0,98.975-4.429ZM105.313,0a1.831,1.831,0,0,1-.137-.493A1.847,1.847,0,0,1,103.789.1a1.864,1.864,0,0,1-1.3-.454,1.453,1.453,0,0,1-.5-1.123,1.5,1.5,0,0,1,.627-1.3,3.041,3.041,0,0,1,1.794-.452h.728v-.347a.925.925,0,0,0-.229-.657.91.91,0,0,0-.7-.247,1.045,1.045,0,0,0-.664.2.627.627,0,0,0-.259.515H102.1a1.317,1.317,0,0,1,.288-.813,1.919,1.919,0,0,1,.784-.593,2.753,2.753,0,0,1,1.106-.215,2.217,2.217,0,0,1,1.479.466,1.663,1.663,0,0,1,.566,1.311v2.383a2.7,2.7,0,0,0,.2,1.138V0Zm-1.3-.854a1.35,1.35,0,0,0,.662-.171,1.142,1.142,0,0,0,.466-.459v-1h-.64a1.749,1.749,0,0,0-.991.229.743.743,0,0,0-.332.649.693.693,0,0,0,.227.544A.879.879,0,0,0,104.009-.854Zm3.335-1.826a3.141,3.141,0,0,1,.566-1.96,1.815,1.815,0,0,1,1.519-.74,1.724,1.724,0,0,1,1.357.586V-7.5h1.187V0H110.9l-.059-.547A1.749,1.749,0,0,1,109.419.1a1.8,1.8,0,0,1-1.5-.747A3.256,3.256,0,0,1,107.344-2.681Zm1.187.1a2.2,2.2,0,0,0,.31,1.257,1.006,1.006,0,0,0,.881.452,1.121,1.121,0,0,0,1.064-.649V-3.774a1.1,1.1,0,0,0-1.055-.635,1.013,1.013,0,0,0-.889.457A2.449,2.449,0,0,0,108.53-2.578Zm7.642,1.143a.538.538,0,0,0-.261-.483,2.778,2.778,0,0,0-.867-.293,4.455,4.455,0,0,1-1.011-.322,1.349,1.349,0,0,1-.889-1.245,1.406,1.406,0,0,1,.576-1.143,2.278,2.278,0,0,1,1.465-.459,2.37,2.37,0,0,1,1.531.469A1.487,1.487,0,0,1,117.3-3.7h-1.187a.731.731,0,0,0-.254-.569.973.973,0,0,0-.674-.227,1.051,1.051,0,0,0-.637.181.57.57,0,0,0-.247.483.481.481,0,0,0,.229.425,3.156,3.156,0,0,0,.928.305,4.392,4.392,0,0,1,1.1.366,1.552,1.552,0,0,1,.591.51,1.3,1.3,0,0,1,.193.723,1.377,1.377,0,0,1-.591,1.155A2.519,2.519,0,0,1,115.2.1a2.732,2.732,0,0,1-1.157-.234,1.9,1.9,0,0,1-.791-.645,1.526,1.526,0,0,1-.283-.884h1.152a.836.836,0,0,0,.317.647,1.233,1.233,0,0,0,.776.227,1.2,1.2,0,0,0,.713-.178A.552.552,0,0,0,116.172-1.436Zm5.806-3.848.034.552a1.9,1.9,0,0,1,1.523-.649,1.46,1.46,0,0,1,1.45.811,1.874,1.874,0,0,1,1.621-.811,1.647,1.647,0,0,1,1.3.483,2.128,2.128,0,0,1,.437,1.426V0h-1.187V-3.437a1.051,1.051,0,0,0-.22-.737.962.962,0,0,0-.728-.234.988.988,0,0,0-.662.217,1.146,1.146,0,0,0-.359.569L125.2,0h-1.187V-3.477a.846.846,0,0,0-.952-.933,1.045,1.045,0,0,0-1.011.581V0h-1.187V-5.283ZM132.764-.518A1.84,1.84,0,0,1,131.279.1a1.64,1.64,0,0,1-1.3-.5,2.139,2.139,0,0,1-.442-1.455V-5.283h1.187v3.408q0,1.006.835,1.006a1.173,1.173,0,0,0,1.167-.62V-5.283h1.187V0h-1.118Zm5.317-.918a.538.538,0,0,0-.261-.483,2.778,2.778,0,0,0-.867-.293,4.456,4.456,0,0,1-1.011-.322,1.349,1.349,0,0,1-.889-1.245,1.406,1.406,0,0,1,.576-1.143,2.278,2.278,0,0,1,1.465-.459,2.37,2.37,0,0,1,1.531.469,1.487,1.487,0,0,1,.583,1.216h-1.187a.731.731,0,0,0-.254-.569.973.973,0,0,0-.674-.227,1.051,1.051,0,0,0-.637.181.57.57,0,0,0-.247.483.481.481,0,0,0,.229.425,3.156,3.156,0,0,0,.928.305,4.392,4.392,0,0,1,1.1.366,1.552,1.552,0,0,1,.591.51,1.3,1.3,0,0,1,.193.723,1.377,1.377,0,0,1-.591,1.155A2.519,2.519,0,0,1,137.109.1a2.732,2.732,0,0,1-1.157-.234,1.9,1.9,0,0,1-.791-.645,1.526,1.526,0,0,1-.283-.884h1.152a.836.836,0,0,0,.317.647,1.233,1.233,0,0,0,.776.227,1.2,1.2,0,0,0,.713-.178A.552.552,0,0,0,138.081-1.436Zm3.687-5.132v1.284h.933V-4.4h-.933v2.949a.649.649,0,0,0,.12.437.555.555,0,0,0,.427.134,1.828,1.828,0,0,0,.415-.049v.918a2.922,2.922,0,0,1-.781.112q-1.367,0-1.367-1.509V-4.4h-.869v-.879h.869V-6.567Zm6.5,5.718A1.073,1.073,0,0,0,149-1.108a.884.884,0,0,0,.313-.64h1.118a1.743,1.743,0,0,1-.308.92,2.018,2.018,0,0,1-.781.676A2.328,2.328,0,0,1,148.281.1a2.253,2.253,0,0,1-1.758-.718,2.847,2.847,0,0,1-.649-1.982v-.122a2.8,2.8,0,0,1,.645-1.931,2.232,2.232,0,0,1,1.758-.725,2.171,2.171,0,0,1,1.536.549,1.968,1.968,0,0,1,.623,1.443h-1.118a1.087,1.087,0,0,0-.31-.747,1,1,0,0,0-.74-.293,1.044,1.044,0,0,0-.889.417,2.13,2.13,0,0,0-.317,1.267v.19a2.166,2.166,0,0,0,.31,1.282A1.043,1.043,0,0,0,148.267-.85Zm6.221.85a1.831,1.831,0,0,1-.137-.493A1.847,1.847,0,0,1,152.964.1a1.864,1.864,0,0,1-1.3-.454,1.453,1.453,0,0,1-.5-1.123,1.5,1.5,0,0,1,.627-1.3,3.041,3.041,0,0,1,1.794-.452h.728v-.347a.925.925,0,0,0-.229-.657.91.91,0,0,0-.7-.247,1.045,1.045,0,0,0-.664.2.627.627,0,0,0-.259.515h-1.187a1.317,1.317,0,0,1,.288-.813,1.919,1.919,0,0,1,.784-.593,2.753,2.753,0,0,1,1.106-.215,2.217,2.217,0,0,1,1.479.466A1.663,1.663,0,0,1,155.5-3.6v2.383a2.7,2.7,0,0,0,.2,1.138V0Zm-1.3-.854a1.35,1.35,0,0,0,.662-.171,1.142,1.142,0,0,0,.466-.459v-1h-.64a1.749,1.749,0,0,0-.991.229.743.743,0,0,0-.332.649.693.693,0,0,0,.227.544A.879.879,0,0,0,153.184-.854Zm8.184-1.733a3.146,3.146,0,0,1-.557,1.956,1.783,1.783,0,0,1-1.494.73,1.8,1.8,0,0,1-1.392-.571v2.5h-1.187V-5.283h1.094l.049.537a1.743,1.743,0,0,1,1.421-.635,1.8,1.8,0,0,1,1.516.72,3.23,3.23,0,0,1,.549,2Zm-1.182-.1a2.2,2.2,0,0,0-.315-1.255,1.024,1.024,0,0,0-.9-.464,1.092,1.092,0,0,0-1.045.6v2.344a1.1,1.1,0,0,0,1.055.615,1.023,1.023,0,0,0,.886-.457A2.426,2.426,0,0,0,160.186-2.69Zm3.672-3.877v1.284h.933V-4.4h-.933v2.949a.649.649,0,0,0,.12.437.555.555,0,0,0,.427.134,1.828,1.828,0,0,0,.415-.049v.918a2.922,2.922,0,0,1-.781.112q-1.367,0-1.367-1.509V-4.4H161.8v-.879h.869V-6.567ZM168.9-.518A1.84,1.84,0,0,1,167.412.1a1.64,1.64,0,0,1-1.3-.5,2.139,2.139,0,0,1-.442-1.455V-5.283h1.187v3.408q0,1.006.835,1.006a1.173,1.173,0,0,0,1.167-.62V-5.283h1.187V0h-1.118ZM174.019-4.2a2.936,2.936,0,0,0-.483-.039,1.088,1.088,0,0,0-1.1.625V0H171.25V-5.283h1.133l.029.591a1.337,1.337,0,0,1,1.191-.688,1.111,1.111,0,0,1,.42.068ZM177,.1a2.455,2.455,0,0,1-1.829-.71,2.577,2.577,0,0,1-.7-1.892v-.146a3.17,3.17,0,0,1,.305-1.414,2.323,2.323,0,0,1,.857-.969,2.266,2.266,0,0,1,1.23-.347,2.074,2.074,0,0,1,1.667.688,2.911,2.911,0,0,1,.588,1.948v.479h-3.452a1.587,1.587,0,0,0,.437,1.035,1.312,1.312,0,0,0,.964.381,1.607,1.607,0,0,0,1.328-.659l.64.61a2.136,2.136,0,0,1-.847.735A2.652,2.652,0,0,1,177,.1Zm-.142-4.526a1,1,0,0,0-.789.342,1.772,1.772,0,0,0-.383.952h2.261v-.088a1.442,1.442,0,0,0-.317-.9A.992.992,0,0,0,176.86-4.429Zm2.959,1.748a3.141,3.141,0,0,1,.566-1.96,1.815,1.815,0,0,1,1.519-.74,1.724,1.724,0,0,1,1.357.586V-7.5h1.187V0h-1.074l-.059-.547A1.749,1.749,0,0,1,181.895.1a1.8,1.8,0,0,1-1.5-.747A3.256,3.256,0,0,1,179.819-2.681Zm1.187.1a2.2,2.2,0,0,0,.31,1.257,1.006,1.006,0,0,0,.881.452,1.121,1.121,0,0,0,1.064-.649V-3.774a1.1,1.1,0,0,0-1.055-.635,1.013,1.013,0,0,0-.889.457A2.449,2.449,0,0,0,181.006-2.578Zm11.807-.01a3.174,3.174,0,0,1-.549,1.958A1.789,1.789,0,0,1,190.752.1a1.723,1.723,0,0,1-1.445-.669L189.248,0h-1.074V-7.5h1.187v2.725a1.717,1.717,0,0,1,1.382-.605,1.81,1.81,0,0,1,1.519.718,3.226,3.226,0,0,1,.552,2.007Zm-1.187-.1a2.243,2.243,0,0,0-.3-1.289,1.008,1.008,0,0,0-.879-.43,1.1,1.1,0,0,0-1.084.674v2.178a1.113,1.113,0,0,0,1.094.688,1,1,0,0,0,.859-.415,2.173,2.173,0,0,0,.313-1.255ZM195.6-1.7l1.074-3.584h1.265L195.84.8A1.707,1.707,0,0,1,194.2,2.134a2.115,2.115,0,0,1-.571-.088V1.123l.225.015a1.155,1.155,0,0,0,.676-.163,1.084,1.084,0,0,0,.359-.549l.171-.454L193.2-5.283h1.279Zm7-4.868v1.284h.933V-4.4H202.6v2.949a.649.649,0,0,0,.12.437.555.555,0,0,0,.427.134,1.828,1.828,0,0,0,.415-.049v.918a2.922,2.922,0,0,1-.781.112q-1.367,0-1.367-1.509V-4.4h-.869v-.879h.869V-6.567Zm3.008,1.86a1.857,1.857,0,0,1,1.47-.674q1.689,0,1.714,1.929V0H207.6V-3.408a1.043,1.043,0,0,0-.237-.774.968.968,0,0,0-.7-.227,1.143,1.143,0,0,0-1.064.635V0h-1.187V-7.5h1.187ZM212.314.1a2.455,2.455,0,0,1-1.829-.71,2.577,2.577,0,0,1-.7-1.892v-.146a3.17,3.17,0,0,1,.305-1.414,2.323,2.323,0,0,1,.857-.969,2.266,2.266,0,0,1,1.23-.347,2.074,2.074,0,0,1,1.667.688,2.911,2.911,0,0,1,.588,1.948v.479h-3.452a1.587,1.587,0,0,0,.437,1.035,1.312,1.312,0,0,0,.964.381,1.607,1.607,0,0,0,1.328-.659l.64.61a2.136,2.136,0,0,1-.847.735A2.652,2.652,0,0,1,212.314.1Zm-.142-4.526a1,1,0,0,0-.789.342,1.772,1.772,0,0,0-.383.952h2.261v-.088a1.442,1.442,0,0,0-.317-.9A.992.992,0,0,0,212.173-4.429Z" transform="translate(514.457 367.709)" fill="#0c2339"/>
    <path id="Path_1130" data-name="Path 1130" d="M9.5,0A9.5,9.5,0,1,1,0,9.5,9.5,9.5,0,0,1,9.5,0Z" transform="translate(446 354.709)" fill="#3cca8e"/>
    <g id="Path_1131" data-name="Path 1131" transform="translate(818.75 354.457)" fill="#fff">
      <path d="M9.5,0A9.5,9.5,0,1,1,0,9.5,9.5,9.5,0,0,1,9.5,0Z" stroke="none"/>
      <path d="M 9.5 0.5 C 4.537380218505859 0.5 0.5 4.537380218505859 0.5 9.5 C 0.5 14.46261978149414 4.537380218505859 18.5 9.5 18.5 C 14.46261978149414 18.5 18.5 14.46261978149414 18.5 9.5 C 18.5 4.537380218505859 14.46261978149414 0.5 9.5 0.5 M 9.5 0 C 14.74670028686523 0 19 4.253299713134766 19 9.5 C 19 14.74670028686523 14.74670028686523 19 9.5 19 C 4.253299713134766 19 0 14.74670028686523 0 9.5 C 0 4.253299713134766 4.253299713134766 0 9.5 0 Z" stroke="none" fill="rgba(132,131,131,0.4)"/>
    </g>
    <g id="Path_1132" data-name="Path 1132" transform="translate(843.75 354.457)" fill="#fff">
      <path d="M9.5,0A9.5,9.5,0,1,1,0,9.5,9.5,9.5,0,0,1,9.5,0Z" stroke="none"/>
      <path d="M 9.5 0.5 C 4.537380218505859 0.5 0.5 4.537380218505859 0.5 9.5 C 0.5 14.46261978149414 4.537380218505859 18.5 9.5 18.5 C 14.46261978149414 18.5 18.5 14.46261978149414 18.5 9.5 C 18.5 4.537380218505859 14.46261978149414 0.5 9.5 0.5 M 9.5 0 C 14.74670028686523 0 19 4.253299713134766 19 9.5 C 19 14.74670028686523 14.74670028686523 19 9.5 19 C 4.253299713134766 19 0 14.74670028686523 0 9.5 C 0 4.253299713134766 4.253299713134766 0 9.5 0 Z" stroke="none" fill="rgba(132,131,131,0.4)"/>
    </g>
    <g id="Refresh" transform="translate(904.084 329.084) rotate(60)">
      <g id="_x37__11_" transform="translate(0.001 57.525)">
        <g id="Group_15" data-name="Group 15" transform="translate(0 0)">
          <path id="Path_26" data-name="Path 26" d="M5,65.02a3.438,3.438,0,0,1-3.307-2.5H2.708c.1-.094.147-.22.051-.314L1.585,61.023a.252.252,0,0,0-.349,0L.071,62.208c-.138.162-.046.22.051.314h.931a4.057,4.057,0,0,0,7.4,1.193l-.588-.235A3.436,3.436,0,0,1,5,65.02Zm4.9-4.06H9.01A4.06,4.06,0,0,0,1.4,59.708l.582.233a3.438,3.438,0,0,1,6.4,1.019H7.312c-.1.094-.189.152-.051.314L8.426,62.46a.252.252,0,0,0,.349,0l1.173-1.185C10.045,61.181,9.994,61.054,9.9,60.96Z" transform="translate(-0.001 -57.525)" fill="#a5aabc"/>
        </g>
      </g>
    </g>
    <path id="Path_119" data-name="Path 119" d="M7.244,3.316a.335.335,0,0,0-.366-.022Z" transform="translate(490.31 357.158)" fill="#fff"/>
    <path id="Path_120" data-name="Path 120" d="M16.5,3.294a.335.335,0,0,0-.458.125A.448.448,0,0,0,16,3.557l.959.036A4.6,4.6,0,0,0,16.5,3.294Z" transform="translate(485.266 357.158)" fill="#fff"/>
    <path id="Path_122" data-name="Path 122" d="M11.585,1.25a.335.335,0,0,1,.335.335V6.057a.335.335,0,0,1-.671,0V1.585A.335.335,0,0,1,11.585,1.25Z" transform="translate(487.893 358.264)" fill="#fff"/>
    <g id="Path_1133" data-name="Path 1133" transform="translate(765.936 354.457)" fill="#fff">
      <path d="M9.5,0h18a9.5,9.5,0,0,1,0,19H9.5a9.5,9.5,0,0,1,0-19Z" stroke="none"/>
      <path d="M 9.5 0.5 C 4.537380218505859 0.5 0.5 4.537380218505859 0.5 9.5 C 0.5 14.46261978149414 4.537380218505859 18.5 9.5 18.5 L 27.5 18.5 C 32.46261978149414 18.5 36.5 14.46261978149414 36.5 9.5 C 36.5 4.537380218505859 32.46261978149414 0.5 27.5 0.5 L 9.5 0.5 M 9.5 0 L 27.5 0 C 32.74670028686523 0 37 4.253290176391602 37 9.5 C 37 14.7467098236084 32.74670028686523 19 27.5 19 L 9.5 19 C 4.253299713134766 19 0 14.7467098236084 0 9.5 C 0 4.253290176391602 4.253299713134766 0 9.5 0 Z" stroke="none" fill="rgba(165,170,188,0.5)"/>
    </g>
    <path id="Path_123" data-name="Path 123" d="M11.551,6.528,8.719,3.7a.311.311,0,0,0-.45,0l-1.03,1.03a.309.309,0,0,0,0,.45l.225.225L6.5,6.367a2.941,2.941,0,0,0-2.51.386.311.311,0,0,0,0,.45L5.824,9.038,3.8,11.065a.311.311,0,0,0,0,.45.342.342,0,0,0,.45,0L6.274,9.488l1.834,1.834a.3.3,0,0,0,.45,0,2.941,2.941,0,0,0,.386-2.51l.965-.965.225.225a.311.311,0,0,0,.45,0l1.03-1.03a.486.486,0,0,0-.064-.515Z" transform="translate(820.571 355.857)" fill="#a1a1a1"/>
    <path id="Path_1134" data-name="Path 1134" d="M0,0V229" transform="translate(482.75 343.957)" fill="none" stroke="rgba(165,170,188,0.5)" stroke-width="1"/>
    <path id="Path_1135" data-name="Path 1135" d="M0,0V37.5" transform="translate(811.729 343.457)" fill="none" stroke="rgba(165,170,188,0.5)" stroke-width="1"/>
    <g id="Path_1136" data-name="Path 1136" transform="translate(350 343.457)" fill="none">
      <path d="M5,0H544a5,5,0,0,1,5,5V224a5,5,0,0,1-5,5H5a5,5,0,0,1-5-5V5A5,5,0,0,1,5,0Z" stroke="none"/>
      <path d="M 5 1 C 2.79437255859375 1 1 2.794357299804688 1 5 L 1 224 C 1 226.2056427001953 2.79437255859375 228 5 228 L 544 228 C 546.2056274414062 228 548 226.2056427001953 548 224 L 548 5 C 548 2.794357299804688 546.2056274414062 1 544 1 L 5 1 M 5 0 L 544 0 C 546.7614135742188 0 549 2.238571166992188 549 5 L 549 224 C 549 226.7614288330078 546.7614135742188 229 544 229 L 5 229 C 2.23858642578125 229 0 226.7614288330078 0 224 L 0 5 C 0 2.238571166992188 2.23858642578125 0 5 0 Z" stroke="none" fill="rgba(165,170,188,0.5)"/>
    </g>
    <path id="Path_1137" data-name="Path 1137" d="M0,0V59" transform="translate(660.25 423.205)" fill="none" stroke="#707070" stroke-width="1"/>
    <path id="Path_1138" data-name="Path 1138" d="M0,0V59" transform="translate(547.75 423.205)" fill="none" stroke="#707070" stroke-width="1"/>
    <path id="Path_1139" data-name="Path 1139" d="M0,0V59" transform="translate(682.75 423.205)" fill="none" stroke="#707070" stroke-width="1"/>
    <path id="Path_1140" data-name="Path 1140" d="M0,0V59" transform="translate(570.25 423.205)" fill="none" stroke="#707070" stroke-width="1"/>
    <path id="Path_1141" data-name="Path 1141" d="M0,0V59" transform="translate(705.25 423.205)" fill="none" stroke="#707070" stroke-width="1"/>
    <path id="Path_1142" data-name="Path 1142" d="M0,0V59" transform="translate(795.25 423.205)" fill="none" stroke="#707070" stroke-width="1"/>
    <path id="Path_1143" data-name="Path 1143" d="M0,0V59" transform="translate(592.75 423.205)" fill="none" stroke="#707070" stroke-width="1"/>
    <path id="Path_1144" data-name="Path 1144" d="M0,0V59" transform="translate(727.75 423.205)" fill="none" stroke="#707070" stroke-width="1"/>
    <path id="Path_1145" data-name="Path 1145" d="M0,0V59" transform="translate(817.75 423.205)" fill="none" stroke="#707070" stroke-width="1"/>
    <path id="Path_1146" data-name="Path 1146" d="M0,0V59" transform="translate(615.25 423.205)" fill="none" stroke="#707070" stroke-width="1"/>
    <path id="Path_1147" data-name="Path 1147" d="M0,0V59" transform="translate(750.25 423.205)" fill="none" stroke="#707070" stroke-width="1"/>
    <path id="Path_1148" data-name="Path 1148" d="M0,0V59" transform="translate(840.25 423.205)" fill="none" stroke="#707070" stroke-width="1"/>
    <path id="Path_1149" data-name="Path 1149" d="M0,0V59" transform="translate(637.75 423.205)" fill="none" stroke="#707070" stroke-width="1"/>
    <path id="Path_1150" data-name="Path 1150" d="M0,0V59" transform="translate(772.75 423.205)" fill="none" stroke="#707070" stroke-width="1"/>
    <path id="Path_1151" data-name="Path 1151" d="M0,0V59" transform="translate(862.75 423.205)" fill="none" stroke="#707070" stroke-width="1"/>
    <g id="Path_1152" data-name="Path 1152" transform="translate(522 420.457)" fill="none" opacity="0.72">
      <path d="M0,0H361V62H0Z" stroke="none"/>
      <path d="M 3 3 L 3 59 L 358 59 L 358 3 L 3 3 M 0 0 L 361 0 L 361 62 L 0 62 L 0 0 Z" stroke="none" fill="#a1a1a1"/>
    </g>
    <path id="Path_1153" data-name="Path 1153" d="M1.5,0A1.5,1.5,0,0,1,3,1.5v23a1.5,1.5,0,0,1-3,0V1.5A1.5,1.5,0,0,1,1.5,0Z" transform="translate(595 442.457)" fill="#2c70fa"/>
    <path id="Path_1154" data-name="Path 1154" d="M1.5,0A1.5,1.5,0,0,1,3,1.5v23a1.5,1.5,0,0,1-3,0V1.5A1.5,1.5,0,0,1,1.5,0Z" transform="translate(773 442.457)" fill="#2c70fa"/>
    <path id="Path_1155" data-name="Path 1155" d="M0,0H134V18H0Z" transform="translate(596 446.457)" fill="#3cca8e"/>
    <path id="Path_1156" data-name="Path 1156" d="M0,0H43V18H0Z" transform="translate(730 446.457)" fill="#fe746e" opacity="0.32"/>
    <path id="Path_1157" data-name="Path 1157" d="M2,0A2,2,0,0,1,4,2V70a2,2,0,0,1-4,0V2A2,2,0,0,1,2,0Z" transform="translate(656 416.457)" fill="#0c2339"/>
    <path id="Path_1158" data-name="Path 1158" d="M-110.237-5.7a7.935,7.935,0,0,1-3.16-1.534,2.93,2.93,0,0,1-.989-2.246,3.1,3.1,0,0,1,1.208-2.5,4.8,4.8,0,0,1,3.142-.989,5.243,5.243,0,0,1,2.351.51,3.866,3.866,0,0,1,1.6,1.406,3.6,3.6,0,0,1,.567,1.96h-1.7a2.34,2.34,0,0,0-.738-1.83,3,3,0,0,0-2.083-.666,3.074,3.074,0,0,0-1.947.55,1.836,1.836,0,0,0-.7,1.528,1.652,1.652,0,0,0,.664,1.325,6.509,6.509,0,0,0,2.259.991,10.481,10.481,0,0,1,2.5.99,3.788,3.788,0,0,1,1.336,1.261,3.219,3.219,0,0,1,.435,1.7A2.99,2.99,0,0,1-106.7-.76a5.171,5.171,0,0,1-3.243.936,6.015,6.015,0,0,1-2.461-.505,4.142,4.142,0,0,1-1.762-1.384,3.378,3.378,0,0,1-.62-2h1.7a2.2,2.2,0,0,0,.857,1.833,3.608,3.608,0,0,0,2.29.672,3.317,3.317,0,0,0,2.048-.545,1.77,1.77,0,0,0,.712-1.485,1.738,1.738,0,0,0-.659-1.455A7.6,7.6,0,0,0-110.237-5.7Zm10.6,5.88a4.155,4.155,0,0,1-3.146-1.27A4.714,4.714,0,0,1-104-4.491v-.3a5.707,5.707,0,0,1,.541-2.527,4.217,4.217,0,0,1,1.512-1.74,3.8,3.8,0,0,1,2.1-.628,3.562,3.562,0,0,1,2.883,1.222,5.289,5.289,0,0,1,1.028,3.5v.677h-6.442a3.38,3.38,0,0,0,.822,2.272,2.583,2.583,0,0,0,2,.866A2.832,2.832,0,0,0-98.09-1.5a3.666,3.666,0,0,0,1.046-.932l.993.773A3.993,3.993,0,0,1-99.637.176Zm-.2-8.525a2.169,2.169,0,0,0-1.652.716,3.482,3.482,0,0,0-.826,2.008h4.764v-.123a3.1,3.1,0,0,0-.668-1.92A2.042,2.042,0,0,0-99.839-8.35Zm13.825,3.7a5.694,5.694,0,0,1-.993,3.5A3.183,3.183,0,0,1-89.7.176a3.488,3.488,0,0,1-2.725-1.1V3.656h-1.626V-9.51h1.485l.079,1.055a3.35,3.35,0,0,1,2.76-1.23,3.243,3.243,0,0,1,2.711,1.292,5.756,5.756,0,0,1,1,3.595Zm-1.626-.185a4.2,4.2,0,0,0-.686-2.54,2.208,2.208,0,0,0-1.881-.932A2.39,2.39,0,0,0-92.421-7v4.544a2.4,2.4,0,0,0,2.232,1.3,2.2,2.2,0,0,0,1.859-.927A4.587,4.587,0,0,0-87.64-4.834Zm5.9-6.979v2.3h1.775v1.257h-1.775v5.9a1.32,1.32,0,0,0,.237.858A1,1,0,0,0-80.7-1.2a3.937,3.937,0,0,0,.773-.105V0a4.742,4.742,0,0,1-1.248.175,2.025,2.025,0,0,1-1.644-.659,2.832,2.832,0,0,1-.554-1.872v-5.9H-85.1V-9.51h1.731v-2.3ZM-74.123.176a4.155,4.155,0,0,1-3.146-1.27,4.714,4.714,0,0,1-1.213-3.4v-.3a5.707,5.707,0,0,1,.541-2.527,4.217,4.217,0,0,1,1.512-1.74,3.8,3.8,0,0,1,2.1-.628,3.562,3.562,0,0,1,2.883,1.222,5.289,5.289,0,0,1,1.028,3.5v.677h-6.442a3.38,3.38,0,0,0,.822,2.272,2.583,2.583,0,0,0,2,.866A2.832,2.832,0,0,0-72.576-1.5a3.666,3.666,0,0,0,1.046-.932l.993.773A3.993,3.993,0,0,1-74.123.176Zm-.2-8.525a2.169,2.169,0,0,0-1.652.716A3.482,3.482,0,0,0-76.8-5.625h4.764v-.123a3.1,3.1,0,0,0-.668-1.92A2.042,2.042,0,0,0-74.325-8.35ZM-67-9.51l.044,1.055a3.512,3.512,0,0,1,2.821-1.23,2.719,2.719,0,0,1,2.716,1.529,3.6,3.6,0,0,1,1.235-1.107,3.647,3.647,0,0,1,1.8-.422q3.129,0,3.182,3.313V0h-1.626V-6.275A2.184,2.184,0,0,0-57.3-7.8a2.051,2.051,0,0,0-1.564-.505,2.156,2.156,0,0,0-1.5.541,2.193,2.193,0,0,0-.694,1.455V0H-62.7V-6.231a1.814,1.814,0,0,0-2.03-2.074,2.175,2.175,0,0,0-2.188,1.362V0h-1.626V-9.51Zm22.3,4.86a5.654,5.654,0,0,1-1,3.5A3.2,3.2,0,0,1-48.4.176,3.315,3.315,0,0,1-51.183-1.1L-51.262,0h-1.494V-13.5h1.626v5.036a3.3,3.3,0,0,1,2.716-1.222,3.221,3.221,0,0,1,2.72,1.31,5.824,5.824,0,0,1,.989,3.586Zm-1.626-.185A4.394,4.394,0,0,0-46.973-7.4a2.124,2.124,0,0,0-1.846-.905A2.387,2.387,0,0,0-51.13-6.812V-2.7A2.454,2.454,0,0,0-48.8-1.2a2.112,2.112,0,0,0,1.819-.905A4.672,4.672,0,0,0-46.332-4.834Zm7.62,5.01a4.155,4.155,0,0,1-3.146-1.27,4.714,4.714,0,0,1-1.213-3.4v-.3a5.707,5.707,0,0,1,.541-2.527,4.217,4.217,0,0,1,1.512-1.74,3.8,3.8,0,0,1,2.1-.628,3.562,3.562,0,0,1,2.883,1.222A5.289,5.289,0,0,1-35-4.966v.677h-6.442a3.38,3.38,0,0,0,.822,2.272,2.583,2.583,0,0,0,2,.866A2.832,2.832,0,0,0-37.165-1.5a3.666,3.666,0,0,0,1.046-.932l.993.773A3.993,3.993,0,0,1-38.711.176Zm-.2-8.525a2.169,2.169,0,0,0-1.652.716,3.482,3.482,0,0,0-.826,2.008h4.764v-.123a3.1,3.1,0,0,0-.668-1.92A2.042,2.042,0,0,0-38.914-8.35Zm10.389.3a4.873,4.873,0,0,0-.8-.062A2.143,2.143,0,0,0-31.5-6.75V0h-1.626V-9.51h1.582l.026,1.1a2.532,2.532,0,0,1,2.268-1.274,1.661,1.661,0,0,1,.721.123ZM-17.4,0h-1.635V-10.837l-3.278,1.2v-1.477l4.658-1.749h.255ZM-5.77-4.3h1.775v1.327H-5.77V0H-7.4V-2.971h-5.827v-.958L-7.5-12.8H-5.77Zm-5.616,0H-7.4v-6.275l-.193.352Zm8.974,6.847-.923-.633A4.241,4.241,0,0,0-2.474-.457V-1.925H-.883V-.65a4,4,0,0,1-.435,1.775A4.156,4.156,0,0,1-2.413,2.549ZM13.847,0H5.462V-1.169l4.43-4.922A10.524,10.524,0,0,0,11.25-7.906a3.029,3.029,0,0,0,.374-1.446A2.3,2.3,0,0,0,11.017-11,2.12,2.12,0,0,0,9.4-11.637a2.511,2.511,0,0,0-1.885.69,2.635,2.635,0,0,0-.672,1.92H5.216a3.774,3.774,0,0,1,1.138-2.856A4.219,4.219,0,0,1,9.4-12.973a4.054,4.054,0,0,1,2.821.936,3.193,3.193,0,0,1,1.037,2.492q0,1.89-2.408,4.5L7.422-1.327h6.425Zm9.747-5.458a7.436,7.436,0,0,1-.976,4.245A3.47,3.47,0,0,1,19.569.176a3.5,3.5,0,0,1-3.032-1.358,7.058,7.058,0,0,1-1.02-4.056V-7.409a7.271,7.271,0,0,1,.976-4.192,3.5,3.5,0,0,1,3.059-1.371,3.528,3.528,0,0,1,3.041,1.323,7.017,7.017,0,0,1,1,4.083ZM21.968-7.682a5.958,5.958,0,0,0-.58-3.01,2,2,0,0,0-1.837-.945,1.97,1.97,0,0,0-1.819.94A5.817,5.817,0,0,0,17.143-7.8v2.6a6.053,6.053,0,0,0,.6,3.063,1.993,1.993,0,0,0,1.824.989,1.966,1.966,0,0,0,1.789-.932,5.834,5.834,0,0,0,.611-2.936ZM34.062,0H25.677V-1.169l4.43-4.922a10.524,10.524,0,0,0,1.358-1.815,3.029,3.029,0,0,0,.374-1.446A2.3,2.3,0,0,0,31.232-11a2.12,2.12,0,0,0-1.617-.642,2.511,2.511,0,0,0-1.885.69,2.635,2.635,0,0,0-.672,1.92H25.431a3.774,3.774,0,0,1,1.138-2.856,4.219,4.219,0,0,1,3.045-1.09,4.054,4.054,0,0,1,2.821.936,3.193,3.193,0,0,1,1.037,2.492q0,1.89-2.408,4.5L27.637-1.327h6.425ZM44.169,0H35.785V-1.169l4.43-4.922a10.524,10.524,0,0,0,1.358-1.815,3.029,3.029,0,0,0,.374-1.446A2.3,2.3,0,0,0,41.339-11a2.12,2.12,0,0,0-1.617-.642,2.511,2.511,0,0,0-1.885.69,2.635,2.635,0,0,0-.672,1.92H35.539a3.774,3.774,0,0,1,1.138-2.856,4.219,4.219,0,0,1,3.045-1.09,4.054,4.054,0,0,1,2.821.936,3.193,3.193,0,0,1,1.037,2.492q0,1.89-2.408,4.5L37.745-1.327h6.425ZM51.1-6.416l.65-6.381H58.3v1.5H53.125L52.739-7.8a4.13,4.13,0,0,1,2.136-.554A3.531,3.531,0,0,1,57.652-7.2,4.53,4.53,0,0,1,58.68-4.078,4.372,4.372,0,0,1,57.612-.962,3.892,3.892,0,0,1,54.628.176a4.045,4.045,0,0,1-2.769-.94,3.754,3.754,0,0,1-1.222-2.6h1.538a2.582,2.582,0,0,0,.782,1.657,2.432,2.432,0,0,0,1.67.558,2.194,2.194,0,0,0,1.78-.773,3.233,3.233,0,0,0,.646-2.136,2.968,2.968,0,0,0-.7-2.061A2.377,2.377,0,0,0,54.5-6.9a2.681,2.681,0,0,0-1.67.466l-.431.352ZM60.57-.853a1.018,1.018,0,0,1,.25-.7.954.954,0,0,1,.751-.281.983.983,0,0,1,.76.281,1,1,0,0,1,.259.7.944.944,0,0,1-.259.677,1,1,0,0,1-.76.272.971.971,0,0,1-.751-.272A.962.962,0,0,1,60.57-.853Zm.009-7.761a1.018,1.018,0,0,1,.25-.7.954.954,0,0,1,.751-.281.983.983,0,0,1,.76.281,1,1,0,0,1,.259.7.944.944,0,0,1-.259.677,1,1,0,0,1-.76.272.971.971,0,0,1-.751-.272A.962.962,0,0,1,60.579-8.613ZM71.679-4.3h1.775v1.327H71.679V0H70.044V-2.971H64.217v-.958l5.73-8.868h1.731Zm-5.616,0h3.981v-6.275l-.193.352Zm15.724,0h1.775v1.327H81.787V0H80.152V-2.971H74.325v-.958l5.73-8.868h1.731Zm-5.616,0h3.981v-6.275l-.193.352ZM91.6-5.01V0H89.908V-12.8h4.72a4.742,4.742,0,0,1,3.292,1.072A3.635,3.635,0,0,1,99.11-8.886a3.587,3.587,0,0,1-1.165,2.87A4.954,4.954,0,0,1,94.61-5.01Zm0-1.38h3.032A3.032,3.032,0,0,0,96.7-7.028a2.334,2.334,0,0,0,.721-1.845A2.411,2.411,0,0,0,96.7-10.7a2.84,2.84,0,0,0-1.978-.713H91.6ZM103.443-12.8l4.184,10.441L111.81-12.8H114V0h-1.687V-4.983l.158-5.379L108.268,0h-1.292l-4.192-10.336.167,5.353V0h-1.687V-12.8ZM-43.137,22h-1.7l-6.442-9.861V22h-1.7V9.2h1.7l6.46,9.905V9.2h1.679Zm2.312-4.843a5.617,5.617,0,0,1,.549-2.514,4.1,4.1,0,0,1,1.529-1.723,4.163,4.163,0,0,1,2.237-.606,4.01,4.01,0,0,1,3.142,1.345,5.174,5.174,0,0,1,1.2,3.577v.114a5.666,5.666,0,0,1-.532,2.492,4.038,4.038,0,0,1-1.521,1.718,4.211,4.211,0,0,1-2.272.615,4,4,0,0,1-3.133-1.345,5.147,5.147,0,0,1-1.2-3.56Zm1.635.193a4.068,4.068,0,0,0,.734,2.54,2.349,2.349,0,0,0,1.964.958,2.335,2.335,0,0,0,1.969-.971,4.449,4.449,0,0,0,.729-2.72,4.061,4.061,0,0,0-.743-2.536,2.361,2.361,0,0,0-1.973-.971,2.335,2.335,0,0,0-1.942.958A4.416,4.416,0,0,0-39.19,17.351Zm11.268-7.163v2.3h1.775v1.257h-1.775v5.9a1.32,1.32,0,0,0,.237.858,1,1,0,0,0,.809.286,3.937,3.937,0,0,0,.773-.105V22a4.742,4.742,0,0,1-1.248.175A2.025,2.025,0,0,1-29,21.517a2.832,2.832,0,0,1-.554-1.872v-5.9H-31.28V12.49h1.731v-2.3ZM-19.538,22V9.2h4.184a4.856,4.856,0,0,1,3.133.861,3.1,3.1,0,0,1,1.05,2.549,2.6,2.6,0,0,1-.51,1.586,3.3,3.3,0,0,1-1.389,1.068,2.968,2.968,0,0,1,1.639,1.1,3.166,3.166,0,0,1,.6,1.938,3.423,3.423,0,0,1-1.116,2.707A4.616,4.616,0,0,1-15.1,22Zm1.688-5.985V20.62h2.786a2.683,2.683,0,0,0,1.859-.611,2.145,2.145,0,0,0,.681-1.683q0-2.312-2.514-2.312Zm0-1.354H-15.3a2.672,2.672,0,0,0,1.771-.555,1.86,1.86,0,0,0,.664-1.506,1.829,1.829,0,0,0-.615-1.537,3.021,3.021,0,0,0-1.872-.48h-2.5Zm13.86-.712a4.873,4.873,0,0,0-.8-.062A2.143,2.143,0,0,0-6.961,15.25V22H-8.587V12.49H-7l.026,1.1a2.532,2.532,0,0,1,2.268-1.274,1.661,1.661,0,0,1,.721.123Zm5.273,8.227a4.155,4.155,0,0,1-3.146-1.27,4.714,4.714,0,0,1-1.213-3.4v-.3a5.707,5.707,0,0,1,.541-2.527,4.217,4.217,0,0,1,1.512-1.74,3.8,3.8,0,0,1,2.1-.628,3.562,3.562,0,0,1,2.883,1.222,5.289,5.289,0,0,1,1.028,3.5v.677H-1.45a3.38,3.38,0,0,0,.822,2.272,2.583,2.583,0,0,0,2,.866A2.832,2.832,0,0,0,2.83,20.5a3.666,3.666,0,0,0,1.046-.932l.993.773A3.993,3.993,0,0,1,1.283,22.176Zm-.2-8.525a2.169,2.169,0,0,0-1.652.716A3.482,3.482,0,0,0-1.4,16.375H3.366v-.123a3.1,3.1,0,0,0-.668-1.92A2.042,2.042,0,0,0,1.081,13.65ZM12.744,22a3.416,3.416,0,0,1-.229-1,3.628,3.628,0,0,1-2.707,1.178,3.357,3.357,0,0,1-2.307-.8,2.573,2.573,0,0,1-.9-2.017A2.688,2.688,0,0,1,7.73,17.056a5.325,5.325,0,0,1,3.177-.822h1.582v-.747a1.826,1.826,0,0,0-.51-1.358,2.049,2.049,0,0,0-1.5-.505,2.371,2.371,0,0,0-1.459.439,1.3,1.3,0,0,0-.589,1.063H6.794A2.244,2.244,0,0,1,7.3,13.751,3.449,3.449,0,0,1,8.67,12.7a4.613,4.613,0,0,1,1.9-.387,3.759,3.759,0,0,1,2.575.822,2.964,2.964,0,0,1,.967,2.263v4.377a5.351,5.351,0,0,0,.334,2.083V22Zm-2.7-1.239a2.858,2.858,0,0,0,1.45-.4,2.392,2.392,0,0,0,.993-1.028V17.386H11.215q-2.988,0-2.988,1.749a1.48,1.48,0,0,0,.51,1.2A1.959,1.959,0,0,0,10.046,20.761Zm10.433.088A2.342,2.342,0,0,0,22,20.321,1.855,1.855,0,0,0,22.72,19h1.538a2.949,2.949,0,0,1-.562,1.556,3.7,3.7,0,0,1-1.384,1.178,3.994,3.994,0,0,1-1.833.439,3.918,3.918,0,0,1-3.089-1.3,5.163,5.163,0,0,1-1.147-3.546v-.272a5.725,5.725,0,0,1,.51-2.47,3.883,3.883,0,0,1,1.463-1.679,4.157,4.157,0,0,1,2.254-.6,3.814,3.814,0,0,1,2.659.958,3.424,3.424,0,0,1,1.129,2.487H22.72a2.241,2.241,0,0,0-.7-1.516,2.174,2.174,0,0,0-1.551-.593,2.276,2.276,0,0,0-1.92.892,4.19,4.19,0,0,0-.681,2.58v.308a4.106,4.106,0,0,0,.677,2.531A2.287,2.287,0,0,0,20.479,20.849Zm7.233-7.207a3.457,3.457,0,0,1,2.813-1.327q3.015,0,3.041,3.4V22H31.939V15.707a2.189,2.189,0,0,0-.47-1.521,1.884,1.884,0,0,0-1.437-.492,2.347,2.347,0,0,0-1.389.422,2.865,2.865,0,0,0-.932,1.107V22H26.086V8.5h1.626Zm12.234,8.534a4.155,4.155,0,0,1-3.146-1.27,4.714,4.714,0,0,1-1.213-3.4v-.3a5.707,5.707,0,0,1,.541-2.527,4.217,4.217,0,0,1,1.512-1.74,3.8,3.8,0,0,1,2.1-.628,3.562,3.562,0,0,1,2.883,1.222,5.289,5.289,0,0,1,1.028,3.5v.677H37.213a3.38,3.38,0,0,0,.822,2.272,2.583,2.583,0,0,0,2,.866,2.832,2.832,0,0,0,1.459-.352,3.666,3.666,0,0,0,1.046-.932l.993.773A3.993,3.993,0,0,1,39.946,22.176Zm-.2-8.525a2.169,2.169,0,0,0-1.652.716,3.482,3.482,0,0,0-.826,2.008h4.764v-.123a3.1,3.1,0,0,0-.668-1.92A2.042,2.042,0,0,0,39.744,13.65Zm5.4,3.516a5.571,5.571,0,0,1,1.037-3.52,3.529,3.529,0,0,1,5.361-.189V8.5h1.626V22H51.671l-.079-1.02a3.311,3.311,0,0,1-2.716,1.2,3.248,3.248,0,0,1-2.694-1.354,5.634,5.634,0,0,1-1.042-3.533Zm1.626.185a4.218,4.218,0,0,0,.668,2.531,2.159,2.159,0,0,0,1.846.914,2.372,2.372,0,0,0,2.259-1.389V15.039A2.39,2.39,0,0,0,49.3,13.694a2.17,2.17,0,0,0-1.863.923A4.644,4.644,0,0,0,46.767,17.351Z" transform="translate(683 513.457)" fill="#3cca8e"/>
    <path id="Path_1159" data-name="Path 1159" d="M-97.561-.767h3.369V0H-98.5V-7.109h.942ZM-90,0a1.9,1.9,0,0,1-.127-.557,2.016,2.016,0,0,1-1.5.654,1.865,1.865,0,0,1-1.282-.442,1.43,1.43,0,0,1-.5-1.121,1.494,1.494,0,0,1,.627-1.282A2.958,2.958,0,0,1-91.023-3.2h.879v-.415a1.015,1.015,0,0,0-.283-.754,1.138,1.138,0,0,0-.835-.281,1.317,1.317,0,0,0-.811.244.719.719,0,0,0-.327.591h-.908a1.247,1.247,0,0,1,.281-.764,1.916,1.916,0,0,1,.762-.583,2.563,2.563,0,0,1,1.057-.215,2.089,2.089,0,0,1,1.431.457,1.647,1.647,0,0,1,.537,1.257v2.432a2.973,2.973,0,0,0,.186,1.157V0Zm-1.5-.688a1.588,1.588,0,0,0,.806-.22,1.329,1.329,0,0,0,.552-.571V-2.563h-.708q-1.66,0-1.66.972a.822.822,0,0,0,.283.664A1.089,1.089,0,0,0-91.5-.688Zm6.753-.713a.665.665,0,0,0-.276-.569,2.655,2.655,0,0,0-.962-.349,4.548,4.548,0,0,1-1.089-.352,1.549,1.549,0,0,1-.6-.488,1.168,1.168,0,0,1-.193-.674,1.37,1.37,0,0,1,.549-1.1,2.145,2.145,0,0,1,1.4-.449,2.208,2.208,0,0,1,1.458.464,1.473,1.473,0,0,1,.559,1.187H-84.8a.815.815,0,0,0-.315-.64,1.18,1.18,0,0,0-.793-.269,1.235,1.235,0,0,0-.771.215.676.676,0,0,0-.278.562.548.548,0,0,0,.259.493,3.184,3.184,0,0,0,.935.317,4.872,4.872,0,0,1,1.1.361,1.6,1.6,0,0,1,.623.505,1.243,1.243,0,0,1,.2.72A1.352,1.352,0,0,1-84.412-.33,2.376,2.376,0,0,1-85.881.1,2.66,2.66,0,0,1-87-.127a1.827,1.827,0,0,1-.764-.627,1.512,1.512,0,0,1-.276-.872h.9a.935.935,0,0,0,.364.72,1.411,1.411,0,0,0,.9.266,1.457,1.457,0,0,0,.823-.208A.638.638,0,0,0-84.749-1.4Zm3.306-5.161v1.279h.986v.7h-.986V-1.3a.733.733,0,0,0,.132.477.555.555,0,0,0,.449.159,2.187,2.187,0,0,0,.43-.059V0a2.634,2.634,0,0,1-.693.1,1.125,1.125,0,0,1-.913-.366,1.573,1.573,0,0,1-.308-1.04V-4.585h-.962v-.7h.962V-6.562Zm10.127,3.237A4.4,4.4,0,0,1-71.667-1.5a2.663,2.663,0,0,1-1,1.189,2.741,2.741,0,0,1-1.5.41,2.717,2.717,0,0,1-1.489-.413,2.727,2.727,0,0,1-1.008-1.177,4.22,4.22,0,0,1-.369-1.77v-.513a4.346,4.346,0,0,1,.356-1.812,2.717,2.717,0,0,1,1.008-1.2,2.706,2.706,0,0,1,1.492-.417,2.756,2.756,0,0,1,1.506.413,2.658,2.658,0,0,1,1,1.2,4.419,4.419,0,0,1,.352,1.824Zm-.933-.459a3.188,3.188,0,0,0-.508-1.941A1.675,1.675,0,0,0-74.177-6.4a1.657,1.657,0,0,0-1.4.676A3.122,3.122,0,0,0-76.1-3.848v.522A3.192,3.192,0,0,0-75.586-1.4a1.664,1.664,0,0,0,1.418.7,1.657,1.657,0,0,0,1.406-.662,3.174,3.174,0,0,0,.513-1.9Zm6.67,1.2a3.141,3.141,0,0,1-.557,1.946A1.779,1.779,0,0,1-67.629.1,1.842,1.842,0,0,1-69.177-.61l-.044.61h-.83V-7.5h.9v2.8a1.831,1.831,0,0,1,1.509-.679,1.789,1.789,0,0,1,1.511.728,3.236,3.236,0,0,1,.549,1.992Zm-.9-.1a2.441,2.441,0,0,0-.356-1.426,1.18,1.18,0,0,0-1.025-.5,1.326,1.326,0,0,0-1.284.83V-1.5a1.363,1.363,0,0,0,1.294.83,1.173,1.173,0,0,0,1.011-.5A2.6,2.6,0,0,0-66.482-2.686ZM-61.365-1.4a.665.665,0,0,0-.276-.569,2.655,2.655,0,0,0-.962-.349,4.548,4.548,0,0,1-1.089-.352,1.549,1.549,0,0,1-.6-.488,1.168,1.168,0,0,1-.193-.674,1.37,1.37,0,0,1,.549-1.1,2.145,2.145,0,0,1,1.4-.449,2.208,2.208,0,0,1,1.458.464A1.473,1.473,0,0,1-60.51-3.73h-.908a.815.815,0,0,0-.315-.64,1.18,1.18,0,0,0-.793-.269,1.235,1.235,0,0,0-.771.215.676.676,0,0,0-.278.562.548.548,0,0,0,.259.493,3.184,3.184,0,0,0,.935.317,4.872,4.872,0,0,1,1.1.361,1.6,1.6,0,0,1,.623.505,1.243,1.243,0,0,1,.2.72A1.352,1.352,0,0,1-61.028-.33,2.376,2.376,0,0,1-62.5.1a2.66,2.66,0,0,1-1.123-.225,1.827,1.827,0,0,1-.764-.627,1.512,1.512,0,0,1-.276-.872h.9a.935.935,0,0,0,.364.72,1.411,1.411,0,0,0,.9.266,1.457,1.457,0,0,0,.823-.208A.638.638,0,0,0-61.365-1.4ZM-57.092.1A2.308,2.308,0,0,1-58.84-.608,2.619,2.619,0,0,1-59.514-2.5v-.166a3.17,3.17,0,0,1,.3-1.4,2.343,2.343,0,0,1,.84-.967A2.112,2.112,0,0,1-57.2-5.381a1.979,1.979,0,0,1,1.6.679,2.939,2.939,0,0,1,.571,1.943v.376h-3.579a1.878,1.878,0,0,0,.457,1.262,1.435,1.435,0,0,0,1.111.481,1.573,1.573,0,0,0,.811-.2,2.037,2.037,0,0,0,.581-.518l.552.43A2.219,2.219,0,0,1-57.092.1ZM-57.2-4.639a1.2,1.2,0,0,0-.918.4,1.934,1.934,0,0,0-.459,1.116h2.646v-.068a1.721,1.721,0,0,0-.371-1.067A1.134,1.134,0,0,0-57.2-4.639Zm5.771.166a2.707,2.707,0,0,0-.444-.034,1.19,1.19,0,0,0-1.206.757V0h-.9V-5.283h.879l.015.61a1.407,1.407,0,0,1,1.26-.708.923.923,0,0,1,.4.068Zm2.661,3.247,1.309-4.058h.923L-48.435,0h-.688l-1.914-5.283h.923ZM-43.542.1a2.308,2.308,0,0,1-1.748-.706A2.619,2.619,0,0,1-45.964-2.5v-.166a3.17,3.17,0,0,1,.3-1.4,2.343,2.343,0,0,1,.84-.967,2.112,2.112,0,0,1,1.169-.349,1.979,1.979,0,0,1,1.6.679,2.939,2.939,0,0,1,.571,1.943v.376h-3.579A1.878,1.878,0,0,0-44.6-1.121a1.435,1.435,0,0,0,1.111.481,1.573,1.573,0,0,0,.811-.2,2.037,2.037,0,0,0,.581-.518l.552.43A2.219,2.219,0,0,1-43.542.1Zm-.112-4.736a1.2,1.2,0,0,0-.918.4,1.934,1.934,0,0,0-.459,1.116h2.646v-.068a1.721,1.721,0,0,0-.371-1.067A1.134,1.134,0,0,0-43.655-4.639Zm3,1.953a3.1,3.1,0,0,1,.576-1.956,1.822,1.822,0,0,1,1.509-.74,1.832,1.832,0,0,1,1.47.635V-7.5h.9V0h-.83l-.044-.566A1.84,1.84,0,0,1-38.582.1a1.8,1.8,0,0,1-1.5-.752,3.13,3.13,0,0,1-.579-1.963Zm.9.1a2.343,2.343,0,0,0,.371,1.406,1.2,1.2,0,0,0,1.025.508A1.318,1.318,0,0,0-37.1-1.44V-3.867a1.328,1.328,0,0,0-1.245-.747,1.205,1.205,0,0,0-1.035.513A2.58,2.58,0,0,0-39.753-2.583Zm4.927,2.109a.566.566,0,0,1,.139-.391.53.53,0,0,1,.417-.156.546.546,0,0,1,.422.156.554.554,0,0,1,.144.391.524.524,0,0,1-.144.376.556.556,0,0,1-.422.151A.54.54,0,0,1-34.687-.1.535.535,0,0,1-34.827-.474Zm0-4.312a.566.566,0,0,1,.139-.391.53.53,0,0,1,.417-.156.546.546,0,0,1,.422.156.554.554,0,0,1,.144.391.524.524,0,0,1-.144.376.556.556,0,0,1-.422.151.54.54,0,0,1-.417-.151A.535.535,0,0,1-34.822-4.785Zm2.412,1.9A7.549,7.549,0,0,1-32.114-5a6.156,6.156,0,0,1,.881-1.846,3.749,3.749,0,0,1,1.216-1.172l.186.6A3.889,3.889,0,0,0-31-5.757a7.239,7.239,0,0,0-.5,2.515l0,.415A7.277,7.277,0,0,0-30.818.444a3.907,3.907,0,0,0,.986,1.3l-.186.552a3.87,3.87,0,0,1-1.24-1.211A6.787,6.787,0,0,1-32.41-2.886ZM-24.392,0H-29.05V-.649l2.461-2.734a5.846,5.846,0,0,0,.754-1.008,1.683,1.683,0,0,0,.208-.8,1.276,1.276,0,0,0-.337-.913,1.178,1.178,0,0,0-.9-.356,1.4,1.4,0,0,0-1.047.383,1.464,1.464,0,0,0-.374,1.067h-.9A2.1,2.1,0,0,1-28.555-6.6a2.344,2.344,0,0,1,1.692-.605,2.252,2.252,0,0,1,1.567.52A1.774,1.774,0,0,1-24.719-5.3a4.067,4.067,0,0,1-1.338,2.5l-1.9,2.065h3.569Zm5.415-3.032a4.131,4.131,0,0,1-.542,2.358A1.928,1.928,0,0,1-21.213.1,1.942,1.942,0,0,1-22.9-.657a3.921,3.921,0,0,1-.566-2.253V-4.116a4.039,4.039,0,0,1,.542-2.329,1.942,1.942,0,0,1,1.7-.762,1.96,1.96,0,0,1,1.689.735A3.9,3.9,0,0,1-18.977-4.2Zm-.9-1.235A3.31,3.31,0,0,0-20.2-5.94a1.109,1.109,0,0,0-1.021-.525,1.1,1.1,0,0,0-1.011.522,3.232,3.232,0,0,0-.327,1.606v1.445a3.363,3.363,0,0,0,.334,1.7,1.107,1.107,0,0,0,1.013.549,1.092,1.092,0,0,0,.994-.518,3.241,3.241,0,0,0,.339-1.631ZM-13.162,0H-17.82V-.649l2.461-2.734A5.847,5.847,0,0,0-14.6-4.392a1.683,1.683,0,0,0,.208-.8,1.276,1.276,0,0,0-.337-.913,1.178,1.178,0,0,0-.9-.356,1.4,1.4,0,0,0-1.047.383,1.464,1.464,0,0,0-.374,1.067h-.9A2.1,2.1,0,0,1-17.324-6.6a2.344,2.344,0,0,1,1.692-.605,2.252,2.252,0,0,1,1.567.52A1.774,1.774,0,0,1-13.489-5.3a4.067,4.067,0,0,1-1.338,2.5l-1.9,2.065h3.569Zm5.615,0H-12.2V-.649l2.461-2.734a5.847,5.847,0,0,0,.754-1.008,1.683,1.683,0,0,0,.208-.8,1.276,1.276,0,0,0-.337-.913,1.178,1.178,0,0,0-.9-.356,1.4,1.4,0,0,0-1.047.383,1.464,1.464,0,0,0-.374,1.067h-.9A2.1,2.1,0,0,1-11.709-6.6a2.344,2.344,0,0,1,1.692-.605,2.252,2.252,0,0,1,1.567.52A1.774,1.774,0,0,1-7.874-5.3,4.067,4.067,0,0,1-9.211-2.8l-1.9,2.065h3.569Zm2.93-2.651H-7v-.737h2.383ZM.627-3.032A4.131,4.131,0,0,1,.085-.674,1.928,1.928,0,0,1-1.609.1,1.942,1.942,0,0,1-3.293-.657,3.921,3.921,0,0,1-3.86-2.91V-4.116a4.039,4.039,0,0,1,.542-2.329,1.942,1.942,0,0,1,1.7-.762,1.96,1.96,0,0,1,1.689.735A3.9,3.9,0,0,1,.627-4.2Zm-.9-1.235A3.31,3.31,0,0,0-.6-5.94a1.109,1.109,0,0,0-1.021-.525,1.1,1.1,0,0,0-1.011.522,3.232,3.232,0,0,0-.327,1.606v1.445a3.363,3.363,0,0,0,.334,1.7A1.107,1.107,0,0,0-1.609-.64a1.092,1.092,0,0,0,.994-.518A3.241,3.241,0,0,0-.276-2.788ZM5.247-3.125a2.21,2.21,0,0,1-.676.542,1.835,1.835,0,0,1-.862.205,1.894,1.894,0,0,1-1.072-.3,1.968,1.968,0,0,1-.706-.852,2.9,2.9,0,0,1-.249-1.213A2.96,2.96,0,0,1,1.953-6.03,1.991,1.991,0,0,1,2.722-6.9a2.193,2.193,0,0,1,1.162-.3,1.985,1.985,0,0,1,1.663.789,3.44,3.44,0,0,1,.608,2.151V-4a4.6,4.6,0,0,1-.82,3.03A3.152,3.152,0,0,1,2.859,0H2.683V-.762h.19a2.487,2.487,0,0,0,1.719-.582A2.5,2.5,0,0,0,5.247-3.125Zm-1.392,0A1.4,1.4,0,0,0,4.692-3.4a1.641,1.641,0,0,0,.559-.688v-.361A2.486,2.486,0,0,0,4.866-5.9a1.151,1.151,0,0,0-.977-.557A1.16,1.16,0,0,0,2.932-6a1.883,1.883,0,0,0-.361,1.2A1.96,1.96,0,0,0,2.92-3.6,1.105,1.105,0,0,0,3.855-3.125Zm5.518.474H6.99v-.737H9.373ZM13.127,0h-.908V-6.021L10.4-5.352v-.82l2.588-.972h.142Zm6.46-2.388h.986v.737h-.986V0h-.908V-1.65H15.442v-.532l3.184-4.927h.962Zm-3.12,0h2.212V-5.874l-.107.2ZM26.536-6.343H24.25V0h-.933V-6.343h-2.28v-.767h5.5ZM30.325,0h-.908V-6.021L27.6-5.352v-.82l2.588-.972h.142Zm7.3,0H32.971V-.649l2.461-2.734a5.847,5.847,0,0,0,.754-1.008,1.683,1.683,0,0,0,.208-.8,1.276,1.276,0,0,0-.337-.913,1.178,1.178,0,0,0-.9-.356,1.4,1.4,0,0,0-1.047.383,1.464,1.464,0,0,0-.374,1.067h-.9A2.1,2.1,0,0,1,33.467-6.6a2.344,2.344,0,0,1,1.692-.605,2.252,2.252,0,0,1,1.567.52A1.774,1.774,0,0,1,37.3-5.3a4.067,4.067,0,0,1-1.338,2.5L34.06-.737h3.569ZM38.65-.474a.566.566,0,0,1,.139-.391.53.53,0,0,1,.417-.156.546.546,0,0,1,.422.156.554.554,0,0,1,.144.391.524.524,0,0,1-.144.376.556.556,0,0,1-.422.151A.54.54,0,0,1,38.789-.1.535.535,0,0,1,38.65-.474Zm0-4.312a.566.566,0,0,1,.139-.391.53.53,0,0,1,.417-.156.546.546,0,0,1,.422.156.554.554,0,0,1,.144.391.524.524,0,0,1-.144.376.556.556,0,0,1-.422.151.54.54,0,0,1-.417-.151A.535.535,0,0,1,38.655-4.785ZM43.977,0h-.908V-6.021l-1.821.669v-.82l2.588-.972h.142Zm6.46-2.388h.986v.737h-.986V0h-.908V-1.65H46.292v-.532l3.184-4.927h.962Zm-3.12,0h2.212V-5.874l-.107.2ZM52.3-.474a.566.566,0,0,1,.139-.391.53.53,0,0,1,.417-.156.546.546,0,0,1,.422.156.554.554,0,0,1,.144.391.524.524,0,0,1-.144.376.556.556,0,0,1-.422.151A.54.54,0,0,1,52.441-.1.535.535,0,0,1,52.3-.474Zm0-4.312a.566.566,0,0,1,.139-.391.53.53,0,0,1,.417-.156.546.546,0,0,1,.422.156.554.554,0,0,1,.144.391.524.524,0,0,1-.144.376.556.556,0,0,1-.422.151.54.54,0,0,1-.417-.151A.535.535,0,0,1,52.307-4.785Zm6.167,2.4h.986v.737h-.986V0h-.908V-1.65H54.329v-.532l3.184-4.927h.962Zm-3.12,0h2.212V-5.874l-.107.2ZM64.866-6.6,61.921,0h-.947l2.935-6.367H60.061v-.742h4.8Zm3.706,2.788h1.982v.854H68.572V-.713h-.908V-2.959H65.681v-.854h1.982V-5.889h.908Zm7.446.781a4.131,4.131,0,0,1-.542,2.358A1.928,1.928,0,0,1,73.782.1,1.942,1.942,0,0,1,72.1-.657a3.921,3.921,0,0,1-.566-2.253V-4.116a4.039,4.039,0,0,1,.542-2.329,1.942,1.942,0,0,1,1.7-.762,1.96,1.96,0,0,1,1.689.735A3.9,3.9,0,0,1,76.018-4.2Zm-.9-1.235a3.31,3.31,0,0,0-.322-1.672,1.109,1.109,0,0,0-1.021-.525,1.1,1.1,0,0,0-1.011.522,3.232,3.232,0,0,0-.327,1.606v1.445a3.363,3.363,0,0,0,.334,1.7,1.107,1.107,0,0,0,1.013.549,1.092,1.092,0,0,0,.994-.518,3.241,3.241,0,0,0,.339-1.631Zm6.519,1.235a4.131,4.131,0,0,1-.542,2.358A1.928,1.928,0,0,1,79.4.1a1.942,1.942,0,0,1-1.685-.754,3.921,3.921,0,0,1-.566-2.253V-4.116a4.039,4.039,0,0,1,.542-2.329,1.942,1.942,0,0,1,1.7-.762,1.96,1.96,0,0,1,1.689.735A3.9,3.9,0,0,1,81.633-4.2Zm-.9-1.235a3.31,3.31,0,0,0-.322-1.672,1.109,1.109,0,0,0-1.021-.525,1.1,1.1,0,0,0-1.011.522,3.232,3.232,0,0,0-.327,1.606v1.445a3.363,3.363,0,0,0,.334,1.7A1.107,1.107,0,0,0,79.4-.64a1.092,1.092,0,0,0,.994-.518,3.241,3.241,0,0,0,.339-1.631ZM82.854-.474a.566.566,0,0,1,.139-.391.53.53,0,0,1,.417-.156.546.546,0,0,1,.422.156.554.554,0,0,1,.144.391.524.524,0,0,1-.144.376.556.556,0,0,1-.422.151A.54.54,0,0,1,82.993-.1.535.535,0,0,1,82.854-.474Zm0-4.312A.566.566,0,0,1,83-5.176a.53.53,0,0,1,.417-.156.546.546,0,0,1,.422.156.554.554,0,0,1,.144.391.524.524,0,0,1-.144.376.556.556,0,0,1-.422.151A.54.54,0,0,1,83-4.409.535.535,0,0,1,82.859-4.785ZM89.67-3.032a4.131,4.131,0,0,1-.542,2.358A1.928,1.928,0,0,1,87.434.1,1.942,1.942,0,0,1,85.75-.657a3.921,3.921,0,0,1-.566-2.253V-4.116a4.039,4.039,0,0,1,.542-2.329,1.942,1.942,0,0,1,1.7-.762,1.96,1.96,0,0,1,1.689.735A3.9,3.9,0,0,1,89.67-4.2Zm-.9-1.235a3.31,3.31,0,0,0-.322-1.672,1.109,1.109,0,0,0-1.021-.525,1.1,1.1,0,0,0-1.011.522,3.232,3.232,0,0,0-.327,1.606v1.445a3.363,3.363,0,0,0,.334,1.7,1.107,1.107,0,0,0,1.013.549,1.092,1.092,0,0,0,.994-.518,3.241,3.241,0,0,0,.339-1.631Zm6.519,1.235a4.131,4.131,0,0,1-.542,2.358A1.928,1.928,0,0,1,93.049.1a1.942,1.942,0,0,1-1.685-.754A3.921,3.921,0,0,1,90.8-2.91V-4.116a4.039,4.039,0,0,1,.542-2.329,1.942,1.942,0,0,1,1.7-.762,1.96,1.96,0,0,1,1.689.735A3.9,3.9,0,0,1,95.286-4.2Zm-.9-1.235A3.31,3.31,0,0,0,94.06-5.94a1.109,1.109,0,0,0-1.021-.525,1.1,1.1,0,0,0-1.011.522A3.232,3.232,0,0,0,91.7-4.336v1.445a3.363,3.363,0,0,0,.334,1.7,1.107,1.107,0,0,0,1.013.549,1.092,1.092,0,0,0,.994-.518,3.241,3.241,0,0,0,.339-1.631Zm4.238,1.431A7.553,7.553,0,0,1,98.335-.75a6.172,6.172,0,0,1-.874,1.843,3.829,3.829,0,0,1-1.233,1.2l-.19-.552a3.925,3.925,0,0,0,1.208-1.79,7.742,7.742,0,0,0,.466-2.693V-2.9A8.038,8.038,0,0,0,97.5-4.8a6.435,6.435,0,0,0-.6-1.58,3.648,3.648,0,0,0-.862-1.089l.19-.552a3.814,3.814,0,0,1,1.228,1.191A6.186,6.186,0,0,1,98.33-4.99,7.727,7.727,0,0,1,98.621-2.837Z" transform="translate(683 554.457)" fill="#a1a1a1"/>
    <path id="Path_1160" data-name="Path 1160" d="M549.5,0H0" transform="translate(350 380.957)" fill="none" stroke="rgba(165,170,188,0.5)" stroke-width="1"/>
    <g id="Path_1161" data-name="Path 1161" transform="translate(350 343.457)" fill="none">
      <path d="M5,0H544a5,5,0,0,1,5,5V224a5,5,0,0,1-5,5H5a5,5,0,0,1-5-5V5A5,5,0,0,1,5,0Z" stroke="none"/>
      <path d="M 5 1 C 2.79437255859375 1 1 2.794357299804688 1 5 L 1 224 C 1 226.2056427001953 2.79437255859375 228 5 228 L 544 228 C 546.2056274414062 228 548 226.2056427001953 548 224 L 548 5 C 548 2.794357299804688 546.2056274414062 1 544 1 L 5 1 M 5 0 L 544 0 C 546.7614135742188 0 549 2.238571166992188 549 5 L 549 224 C 549 226.7614288330078 546.7614135742188 229 544 229 L 5 229 C 2.23858642578125 229 0 226.7614288330078 0 224 L 0 5 C 0 2.238571166992188 2.23858642578125 0 5 0 Z" stroke="none" fill="rgba(165,170,188,0.5)"/>
    </g>
    <path id="Path_1162" data-name="Path 1162" d="M0,0H549V231H0Z" transform="translate(350 343.457)" fill="none"/>
    <path id="Path_1163" data-name="Path 1163" d="M.527-3.184h1.41v1.02H.527V-.57H-.547V-2.164H-1.961v-1.02H-.547V-4.711H.527Zm.551,9.2h-2.2v-.91h2.2Z" transform="translate(792 362.457)" fill="#a1a1a1"/>
    <path id="Path_1164" data-name="Path 1164" d="M0,0H9" transform="translate(787.5 363.957)" fill="none" stroke="#a1a1a1" stroke-width="1"/>
    <g id="Group_492" data-name="Group 492" transform="translate(19 49.457)">
      <circle id="Ellipse_99" data-name="Ellipse 99" cx="9.5" cy="9.5" r="9.5" transform="translate(343.75 305.252)" fill="#4dc0ed"/>
      <path id="Path_363" data-name="Path 363" d="M66.054,3.718A4.026,4.026,0,0,0,67.595.55h.556V0H61V.55h.556A4.026,4.026,0,0,0,63.1,3.718c.417.381.654.614.654.975s-.236.595-.654.975a4.026,4.026,0,0,0-1.541,3.168H61v.55h7.15v-.55h-.556a4.026,4.026,0,0,0-1.541-3.168c-.417-.381-.654-.614-.654-.975S65.636,4.1,66.054,3.718ZM64.3,6.755a1.391,1.391,0,0,0-.251.077l-1.685.7a3.752,3.752,0,0,1,1.1-1.454A1.875,1.875,0,0,0,64.3,4.694Zm1.383-.68a3.753,3.753,0,0,1,1.1,1.454l-1.685-.7a1.391,1.391,0,0,0-.251-.077V4.694A1.875,1.875,0,0,0,65.683,6.075ZM62.355,1.833A4.075,4.075,0,0,1,62.106.55h4.938A4.075,4.075,0,0,1,66.8,1.833Z" transform="translate(288.925 310.06)" fill="#fff"/>
    </g>
    <g id="Group_786" data-name="Group 786" transform="translate(19 49.457)">
      <circle id="Ellipse_107" data-name="Ellipse 107" cx="9.5" cy="9.5" r="9.5" transform="translate(744 305)" fill="#1f6cb6"/>
      <path id="Path_363-2" data-name="Path 363" d="M66.054,3.718A4.026,4.026,0,0,0,67.595.55h.556V0H61V.55h.556A4.026,4.026,0,0,0,63.1,3.718c.417.381.654.614.654.975s-.236.595-.654.975a4.026,4.026,0,0,0-1.541,3.168H61v.55h7.15v-.55h-.556a4.026,4.026,0,0,0-1.541-3.168c-.417-.381-.654-.614-.654-.975S65.636,4.1,66.054,3.718ZM64.3,6.755a1.391,1.391,0,0,0-.251.077l-1.685.7a3.752,3.752,0,0,1,1.1-1.454A1.875,1.875,0,0,0,64.3,4.694Zm1.383-.68a3.753,3.753,0,0,1,1.1,1.454l-1.685-.7a1.391,1.391,0,0,0-.251-.077V4.694A1.875,1.875,0,0,0,65.683,6.075ZM62.355,1.833A4.075,4.075,0,0,1,62.106.55h4.938A4.075,4.075,0,0,1,66.8,1.833Z" transform="translate(689 310)" fill="#fff"/>
    </g>
    <path id="Path_1165" data-name="Path 1165" d="M1.5,0A1.5,1.5,0,0,1,3,1.5v17a1.5,1.5,0,0,1-3,0V1.5A1.5,1.5,0,0,1,1.5,0Z" transform="translate(729 445.457)" fill="#fed325"/>
    <g id="Download_icon" data-name="Download icon" transform="translate(73.745 -29.293)">
      <g id="Ellipse_32" data-name="Ellipse 32" transform="translate(797.043 384)" fill="#fff" stroke="rgba(132,131,131,0.4)" stroke-width="0.5">
        <circle cx="9.5" cy="9.5" r="9.5" stroke="none"/>
        <circle cx="9.5" cy="9.5" r="9.25" fill="none"/>
      </g>
      <g id="apps" transform="translate(800.668 388.625)" clip-path="url(#clip-path)">
        <path id="Path_124" data-name="Path 124" d="M10.674,5.938H9.9V3.49A.491.491,0,0,0,9.406,3H7.448a.491.491,0,0,0-.49.49V5.938H6.18a.491.491,0,0,0-.348.837L8.079,9.022a.488.488,0,0,0,.69,0l2.247-2.247A.49.49,0,0,0,10.674,5.938ZM5,10.833a.491.491,0,0,0,.49.49h5.875a.49.49,0,1,0,0-.979H5.49A.491.491,0,0,0,5,10.833Z" transform="translate(-2.552 -1.531)" fill="#a1a1a1"/>
      </g>
    </g>
    <g id="Group_787" data-name="Group 787" transform="translate(-252 49.457)">
      <circle id="Ellipse_107-2" data-name="Ellipse 107" cx="9.5" cy="9.5" r="9.5" transform="translate(744 305)" fill="#4dc0ed"/>
      <path id="Path_363-3" data-name="Path 363" d="M66.054,3.718A4.026,4.026,0,0,0,67.595.55h.556V0H61V.55h.556A4.026,4.026,0,0,0,63.1,3.718c.417.381.654.614.654.975s-.236.595-.654.975a4.026,4.026,0,0,0-1.541,3.168H61v.55h7.15v-.55h-.556a4.026,4.026,0,0,0-1.541-3.168c-.417-.381-.654-.614-.654-.975S65.636,4.1,66.054,3.718ZM64.3,6.755a1.391,1.391,0,0,0-.251.077l-1.685.7a3.752,3.752,0,0,1,1.1-1.454A1.875,1.875,0,0,0,64.3,4.694Zm1.383-.68a3.753,3.753,0,0,1,1.1,1.454l-1.685-.7a1.391,1.391,0,0,0-.251-.077V4.694A1.875,1.875,0,0,0,65.683,6.075ZM62.355,1.833A4.075,4.075,0,0,1,62.106.55h4.938A4.075,4.075,0,0,1,66.8,1.833Z" transform="translate(689 310)" fill="#fff"/>
    </g>
  </g>
</svg>
