<svg xmlns="http://www.w3.org/2000/svg" xmlns:xlink="http://www.w3.org/1999/xlink" width="432" height="285" viewBox="0 0 432 285">
  <defs>
    <clipPath id="clip-path">
      <rect id="Rectangle_33" data-name="Rectangle 33" width="432" height="285" transform="translate(502 197)" fill="#fff"/>
    </clipPath>
  </defs>
  <g id="Group_1057" data-name="Group 1057" transform="translate(-419 -223)">
    <path id="Path_1099" data-name="Path 1099" d="M0,0H432V285H0Z" transform="translate(419 223)" fill="#fff"/>
    <g id="Mask_Group_2" data-name="Mask Group 2" transform="translate(-83 26)" clip-path="url(#clip-path)">
      <path id="Path_118" data-name="Path 118" d="M0,0H1061.5" transform="translate(176 229.252)" fill="none" stroke="rgba(165,170,188,0.5)" stroke-width="0.5"/>
    </g>
    <g id="Path_1100" data-name="Path 1100" transform="translate(419 223)" fill="none">
      <path d="M0,0H432V285H0Z" stroke="none"/>
      <path d="M 1 1 L 1 284 L 431 284 L 431 1 L 1 1 M 0 0 L 432 0 L 432 285 L 0 285 L 0 0 Z" stroke="none" fill="#707070"/>
    </g>
    <path id="Path_1101" data-name="Path 1101" d="M1.958-2.637V0H.723V-7.109h2.72a2.75,2.75,0,0,1,1.892.621,2.087,2.087,0,0,1,.7,1.642,2.018,2.018,0,0,1-.686,1.628,2.883,2.883,0,0,1-1.921.582Zm0-1H3.442a1.462,1.462,0,0,0,1.006-.31,1.14,1.14,0,0,0,.347-.9,1.23,1.23,0,0,0-.352-.92,1.355,1.355,0,0,0-.967-.354H1.958ZM10.1,0a1.831,1.831,0,0,1-.137-.493A1.847,1.847,0,0,1,8.579.1a1.864,1.864,0,0,1-1.3-.454,1.453,1.453,0,0,1-.5-1.123,1.5,1.5,0,0,1,.627-1.3A3.041,3.041,0,0,1,9.2-3.228h.728v-.347A.925.925,0,0,0,9.7-4.231.91.91,0,0,0,9-4.478a1.045,1.045,0,0,0-.664.2.627.627,0,0,0-.259.515H6.89a1.317,1.317,0,0,1,.288-.813,1.919,1.919,0,0,1,.784-.593,2.753,2.753,0,0,1,1.106-.215,2.217,2.217,0,0,1,1.479.466A1.663,1.663,0,0,1,11.113-3.6v2.383a2.7,2.7,0,0,0,.2,1.138V0ZM8.8-.854a1.35,1.35,0,0,0,.662-.171,1.142,1.142,0,0,0,.466-.459v-1h-.64a1.749,1.749,0,0,0-.991.229.743.743,0,0,0-.332.649.693.693,0,0,0,.227.544A.879.879,0,0,0,8.8-.854ZM15.122-4.2a2.936,2.936,0,0,0-.483-.039,1.088,1.088,0,0,0-1.1.625V0H12.354V-5.283h1.133l.029.591a1.337,1.337,0,0,1,1.191-.688,1.111,1.111,0,0,1,.42.068ZM18.105.1a2.455,2.455,0,0,1-1.829-.71,2.577,2.577,0,0,1-.7-1.892v-.146a3.17,3.17,0,0,1,.305-1.414,2.323,2.323,0,0,1,.857-.969,2.265,2.265,0,0,1,1.23-.347,2.074,2.074,0,0,1,1.667.688,2.911,2.911,0,0,1,.588,1.948v.479H16.772a1.587,1.587,0,0,0,.437,1.035,1.312,1.312,0,0,0,.964.381A1.607,1.607,0,0,0,19.5-1.509l.64.61a2.136,2.136,0,0,1-.847.735A2.652,2.652,0,0,1,18.105.1Zm-.142-4.526a1,1,0,0,0-.789.342,1.772,1.772,0,0,0-.383.952h2.261v-.088a1.442,1.442,0,0,0-.317-.9A.992.992,0,0,0,17.964-4.429Zm4.282-.854.034.61a1.9,1.9,0,0,1,1.538-.708q1.65,0,1.68,1.89V0H24.312V-3.423a1.088,1.088,0,0,0-.217-.745.914.914,0,0,0-.71-.242,1.143,1.143,0,0,0-1.069.649V0H21.128V-5.283Zm5.947-1.284v1.284h.933V-4.4h-.933v2.949a.65.65,0,0,0,.12.437.555.555,0,0,0,.427.134,1.828,1.828,0,0,0,.415-.049v.918A2.922,2.922,0,0,1,28.374.1q-1.367,0-1.367-1.509V-4.4h-.869v-.879h.869V-6.567Zm4.8,5.132a.538.538,0,0,0-.261-.483,2.778,2.778,0,0,0-.867-.293,4.455,4.455,0,0,1-1.011-.322,1.349,1.349,0,0,1-.889-1.245,1.406,1.406,0,0,1,.576-1.143,2.278,2.278,0,0,1,1.465-.459,2.37,2.37,0,0,1,1.531.469A1.487,1.487,0,0,1,34.121-3.7H32.935a.731.731,0,0,0-.254-.569.973.973,0,0,0-.674-.227,1.051,1.051,0,0,0-.637.181.57.57,0,0,0-.247.483.481.481,0,0,0,.229.425,3.156,3.156,0,0,0,.928.305,4.392,4.392,0,0,1,1.1.366,1.552,1.552,0,0,1,.591.51,1.3,1.3,0,0,1,.193.723,1.377,1.377,0,0,1-.591,1.155A2.519,2.519,0,0,1,32.021.1a2.732,2.732,0,0,1-1.157-.234,1.9,1.9,0,0,1-.791-.645,1.526,1.526,0,0,1-.283-.884h1.152a.836.836,0,0,0,.317.647,1.233,1.233,0,0,0,.776.227,1.2,1.2,0,0,0,.713-.178A.552.552,0,0,0,32.993-1.436Z" transform="translate(447 244.252)" fill="#0c2339"/>
    <path id="Path_1102" data-name="Path 1102" d="M6.147-2.314A2.567,2.567,0,0,1,5.308-.54,2.863,2.863,0,0,1,3.359.1a2.772,2.772,0,0,1-1.5-.4,2.644,2.644,0,0,1-1-1.145A4.132,4.132,0,0,1,.5-3.174v-.664A4.162,4.162,0,0,1,.854-5.61,2.686,2.686,0,0,1,1.877-6.792a2.853,2.853,0,0,1,1.541-.415,2.748,2.748,0,0,1,1.895.637,2.663,2.663,0,0,1,.835,1.8H4.917A1.756,1.756,0,0,0,4.47-5.872a1.477,1.477,0,0,0-1.052-.339,1.442,1.442,0,0,0-1.238.589,2.943,2.943,0,0,0-.442,1.728v.63A3.122,3.122,0,0,0,2.151-1.5,1.369,1.369,0,0,0,3.359-.9a1.6,1.6,0,0,0,1.094-.327,1.706,1.706,0,0,0,.464-1.089Zm4.189,1.8A1.84,1.84,0,0,1,8.853.1a1.64,1.64,0,0,1-1.3-.5A2.139,2.139,0,0,1,7.109-1.86V-5.283H8.3v3.408q0,1.006.835,1.006a1.173,1.173,0,0,0,1.167-.62V-5.283h1.187V0H10.366ZM15.459-4.2a2.936,2.936,0,0,0-.483-.039,1.088,1.088,0,0,0-1.1.625V0H12.69V-5.283h1.133l.029.591a1.337,1.337,0,0,1,1.191-.688,1.111,1.111,0,0,1,.42.068Zm3.516,0a2.936,2.936,0,0,0-.483-.039,1.088,1.088,0,0,0-1.1.625V0H16.206V-5.283h1.133l.029.591a1.337,1.337,0,0,1,1.191-.688,1.111,1.111,0,0,1,.42.068ZM21.958.1a2.455,2.455,0,0,1-1.829-.71,2.577,2.577,0,0,1-.7-1.892v-.146a3.17,3.17,0,0,1,.305-1.414,2.323,2.323,0,0,1,.857-.969,2.265,2.265,0,0,1,1.23-.347,2.074,2.074,0,0,1,1.667.688,2.911,2.911,0,0,1,.588,1.948v.479H20.625a1.587,1.587,0,0,0,.437,1.035,1.312,1.312,0,0,0,.964.381,1.607,1.607,0,0,0,1.328-.659l.64.61a2.136,2.136,0,0,1-.847.735A2.652,2.652,0,0,1,21.958.1Zm-.142-4.526a1,1,0,0,0-.789.342,1.772,1.772,0,0,0-.383.952h2.261v-.088a1.442,1.442,0,0,0-.317-.9A.992.992,0,0,0,21.816-4.429ZM26.1-5.283l.034.61a1.9,1.9,0,0,1,1.538-.708q1.65,0,1.68,1.89V0H28.164V-3.423a1.088,1.088,0,0,0-.217-.745.914.914,0,0,0-.71-.242,1.143,1.143,0,0,0-1.069.649V0H24.98V-5.283Zm5.947-1.284v1.284h.933V-4.4h-.933v2.949a.649.649,0,0,0,.12.437.555.555,0,0,0,.427.134,1.828,1.828,0,0,0,.415-.049v.918A2.922,2.922,0,0,1,32.227.1q-1.367,0-1.367-1.509V-4.4H29.99v-.879h.869V-6.567Zm8.54,3.555H37.725V0H36.489V-7.109h4.517v1H37.725V-4h2.861ZM43.13,0H41.943V-7.5H43.13ZM44.2-2.69a3.115,3.115,0,0,1,.308-1.4,2.247,2.247,0,0,1,.864-.957,2.435,2.435,0,0,1,1.279-.334,2.308,2.308,0,0,1,1.736.688,2.708,2.708,0,0,1,.72,1.826l0,.278a3.143,3.143,0,0,1-.3,1.4,2.22,2.22,0,0,1-.859.952A2.453,2.453,0,0,1,46.66.1a2.292,2.292,0,0,1-1.79-.745A2.852,2.852,0,0,1,44.2-2.632Zm1.187.1a2.129,2.129,0,0,0,.337,1.277,1.1,1.1,0,0,0,.938.461,1.083,1.083,0,0,0,.935-.469A2.351,2.351,0,0,0,47.93-2.69a2.1,2.1,0,0,0-.344-1.27,1.1,1.1,0,0,0-.935-.469,1.089,1.089,0,0,0-.923.461A2.307,2.307,0,0,0,45.386-2.588Zm9.37.952.84-3.647h1.157L55.313,0h-.977L53.2-3.628,52.09,0h-.977L49.668-5.283h1.157l.854,3.608,1.084-3.608h.894Z" transform="translate(588 244.252)" fill="#0c2339"/>
    <path id="Path_1103" data-name="Path 1103" d="M6.367,0H5.137V-3.154H1.958V0H.723V-7.109H1.958V-4.15H5.137V-7.109h1.23ZM9.561-1.7l1.074-3.584H11.9L9.8.8A1.707,1.707,0,0,1,8.159,2.134a2.115,2.115,0,0,1-.571-.088V1.123l.225.015A1.155,1.155,0,0,0,8.489.974,1.084,1.084,0,0,0,8.848.425l.171-.454L7.163-5.283H8.442Zm2.734-.981a3.141,3.141,0,0,1,.566-1.96,1.815,1.815,0,0,1,1.519-.74,1.724,1.724,0,0,1,1.357.586V-7.5h1.187V0H15.85l-.059-.547A1.749,1.749,0,0,1,14.37.1a1.8,1.8,0,0,1-1.5-.747A3.256,3.256,0,0,1,12.295-2.681Zm1.187.1a2.2,2.2,0,0,0,.31,1.257,1.006,1.006,0,0,0,.881.452,1.121,1.121,0,0,0,1.064-.649V-3.774a1.1,1.1,0,0,0-1.055-.635,1.013,1.013,0,0,0-.889.457A2.449,2.449,0,0,0,13.481-2.578ZM20.928-4.2a2.936,2.936,0,0,0-.483-.039,1.088,1.088,0,0,0-1.1.625V0H18.159V-5.283h1.133l.029.591a1.337,1.337,0,0,1,1.191-.688,1.111,1.111,0,0,1,.42.068Zm.352,1.509a3.115,3.115,0,0,1,.308-1.4,2.247,2.247,0,0,1,.864-.957,2.435,2.435,0,0,1,1.279-.334,2.308,2.308,0,0,1,1.736.688,2.708,2.708,0,0,1,.72,1.826l0,.278a3.143,3.143,0,0,1-.3,1.4,2.22,2.22,0,0,1-.859.952A2.453,2.453,0,0,1,23.74.1a2.292,2.292,0,0,1-1.79-.745,2.852,2.852,0,0,1-.671-1.985Zm1.187.1A2.129,2.129,0,0,0,22.8-1.311a1.1,1.1,0,0,0,.938.461,1.083,1.083,0,0,0,.935-.469A2.351,2.351,0,0,0,25.01-2.69a2.1,2.1,0,0,0-.344-1.27,1.1,1.1,0,0,0-.935-.469,1.089,1.089,0,0,0-.923.461A2.307,2.307,0,0,0,22.466-2.588Zm6.9,1.738a1.073,1.073,0,0,0,.737-.259.884.884,0,0,0,.313-.64h1.118a1.743,1.743,0,0,1-.308.92,2.018,2.018,0,0,1-.781.676A2.328,2.328,0,0,1,29.38.1,2.253,2.253,0,0,1,27.622-.62,2.847,2.847,0,0,1,26.973-2.6v-.122a2.8,2.8,0,0,1,.645-1.931,2.232,2.232,0,0,1,1.758-.725,2.171,2.171,0,0,1,1.536.549,1.968,1.968,0,0,1,.623,1.443H30.415a1.087,1.087,0,0,0-.31-.747,1,1,0,0,0-.74-.293,1.044,1.044,0,0,0-.889.417,2.13,2.13,0,0,0-.317,1.267v.19a2.166,2.166,0,0,0,.31,1.282A1.043,1.043,0,0,0,29.365-.85ZM35.586,0a1.831,1.831,0,0,1-.137-.493A1.847,1.847,0,0,1,34.063.1a1.864,1.864,0,0,1-1.3-.454,1.453,1.453,0,0,1-.5-1.123,1.5,1.5,0,0,1,.627-1.3,3.041,3.041,0,0,1,1.794-.452h.728v-.347a.925.925,0,0,0-.229-.657.91.91,0,0,0-.7-.247,1.045,1.045,0,0,0-.664.2.627.627,0,0,0-.259.515H32.373a1.317,1.317,0,0,1,.288-.813,1.919,1.919,0,0,1,.784-.593,2.753,2.753,0,0,1,1.106-.215,2.217,2.217,0,0,1,1.479.466A1.663,1.663,0,0,1,36.6-3.6v2.383a2.7,2.7,0,0,0,.2,1.138V0Zm-1.3-.854a1.35,1.35,0,0,0,.662-.171,1.142,1.142,0,0,0,.466-.459v-1h-.64a1.749,1.749,0,0,0-.991.229.743.743,0,0,0-.332.649.693.693,0,0,0,.227.544A.879.879,0,0,0,34.282-.854ZM40.605-4.2a2.936,2.936,0,0,0-.483-.039,1.088,1.088,0,0,0-1.1.625V0H37.837V-5.283H38.97L39-4.692a1.337,1.337,0,0,1,1.191-.688,1.111,1.111,0,0,1,.42.068Zm5.386,1.611A3.174,3.174,0,0,1,45.442-.63,1.789,1.789,0,0,1,43.931.1a1.723,1.723,0,0,1-1.445-.669L42.427,0H41.353V-7.5h1.187v2.725a1.717,1.717,0,0,1,1.382-.605,1.81,1.81,0,0,1,1.519.718,3.226,3.226,0,0,1,.552,2.007ZM44.8-2.69a2.243,2.243,0,0,0-.3-1.289,1.008,1.008,0,0,0-.879-.43,1.1,1.1,0,0,0-1.084.674v2.178a1.113,1.113,0,0,0,1.094.688,1,1,0,0,0,.859-.415A2.173,2.173,0,0,0,44.8-2.539Zm1.958,0a3.115,3.115,0,0,1,.308-1.4,2.247,2.247,0,0,1,.864-.957,2.435,2.435,0,0,1,1.279-.334,2.308,2.308,0,0,1,1.736.688,2.708,2.708,0,0,1,.72,1.826l0,.278a3.143,3.143,0,0,1-.3,1.4,2.22,2.22,0,0,1-.859.952A2.453,2.453,0,0,1,49.224.1a2.292,2.292,0,0,1-1.79-.745,2.852,2.852,0,0,1-.671-1.985Zm1.187.1a2.129,2.129,0,0,0,.337,1.277,1.1,1.1,0,0,0,.938.461,1.083,1.083,0,0,0,.935-.469,2.351,2.351,0,0,0,.334-1.372,2.1,2.1,0,0,0-.344-1.27,1.1,1.1,0,0,0-.935-.469,1.089,1.089,0,0,0-.923.461A2.307,2.307,0,0,0,47.949-2.588Zm5.83-2.7.034.61a1.9,1.9,0,0,1,1.538-.708q1.65,0,1.68,1.89V0H55.845V-3.423a1.088,1.088,0,0,0-.217-.745.914.914,0,0,0-.71-.242,1.143,1.143,0,0,0-1.069.649V0H52.661V-5.283ZM64.824-1.655H62.07L61.494,0H60.21L62.9-7.109H64L66.694,0H65.405Zm-2.407-1h2.061L63.447-5.6Zm7.139,1.8a1.073,1.073,0,0,0,.737-.259.884.884,0,0,0,.313-.64h1.118a1.743,1.743,0,0,1-.308.92,2.018,2.018,0,0,1-.781.676A2.328,2.328,0,0,1,69.57.1,2.253,2.253,0,0,1,67.813-.62,2.847,2.847,0,0,1,67.163-2.6v-.122a2.8,2.8,0,0,1,.645-1.931,2.232,2.232,0,0,1,1.758-.725,2.171,2.171,0,0,1,1.536.549,1.968,1.968,0,0,1,.623,1.443H70.605a1.087,1.087,0,0,0-.31-.747,1,1,0,0,0-.74-.293,1.044,1.044,0,0,0-.889.417,2.13,2.13,0,0,0-.317,1.267v.19a2.166,2.166,0,0,0,.31,1.282A1.043,1.043,0,0,0,69.556-.85Zm5.234,0a1.073,1.073,0,0,0,.737-.259.884.884,0,0,0,.313-.64h1.118a1.743,1.743,0,0,1-.308.92,2.018,2.018,0,0,1-.781.676A2.328,2.328,0,0,1,74.8.1,2.253,2.253,0,0,1,73.047-.62,2.847,2.847,0,0,1,72.4-2.6v-.122a2.8,2.8,0,0,1,.645-1.931A2.232,2.232,0,0,1,74.8-5.381a2.171,2.171,0,0,1,1.536.549,1.968,1.968,0,0,1,.623,1.443H75.84a1.087,1.087,0,0,0-.31-.747,1,1,0,0,0-.74-.293,1.044,1.044,0,0,0-.889.417,2.13,2.13,0,0,0-.317,1.267v.19a2.166,2.166,0,0,0,.31,1.282A1.043,1.043,0,0,0,74.79-.85ZM77.632-2.69a3.115,3.115,0,0,1,.308-1.4,2.247,2.247,0,0,1,.864-.957,2.435,2.435,0,0,1,1.279-.334,2.308,2.308,0,0,1,1.736.688,2.708,2.708,0,0,1,.72,1.826l0,.278a3.143,3.143,0,0,1-.3,1.4,2.22,2.22,0,0,1-.859.952A2.453,2.453,0,0,1,80.093.1,2.292,2.292,0,0,1,78.3-.647a2.852,2.852,0,0,1-.671-1.985Zm1.187.1a2.129,2.129,0,0,0,.337,1.277,1.1,1.1,0,0,0,.938.461,1.083,1.083,0,0,0,.935-.469,2.351,2.351,0,0,0,.334-1.372,2.1,2.1,0,0,0-.344-1.27,1.1,1.1,0,0,0-.935-.469,1.089,1.089,0,0,0-.923.461A2.307,2.307,0,0,0,78.818-2.588Zm7.93,2.07A1.84,1.84,0,0,1,85.264.1a1.64,1.64,0,0,1-1.3-.5,2.14,2.14,0,0,1-.442-1.455V-5.283h1.187v3.408q0,1.006.835,1.006a1.173,1.173,0,0,0,1.167-.62V-5.283H87.9V0H86.777Zm3.457-4.766.034.61a1.9,1.9,0,0,1,1.538-.708q1.65,0,1.68,1.89V0H92.271V-3.423a1.088,1.088,0,0,0-.217-.745.914.914,0,0,0-.71-.242,1.143,1.143,0,0,0-1.069.649V0H89.087V-5.283Zm5.947-1.284v1.284h.933V-4.4h-.933v2.949a.65.65,0,0,0,.12.437.555.555,0,0,0,.427.134,1.828,1.828,0,0,0,.415-.049v.918A2.922,2.922,0,0,1,96.333.1q-1.367,0-1.367-1.509V-4.4H94.1v-.879h.869V-6.567ZM99.253,0H98.066V-5.283h1.187Zm-1.26-6.655a.63.63,0,0,1,.173-.454.655.655,0,0,1,.5-.181.663.663,0,0,1,.5.181.625.625,0,0,1,.176.454.61.61,0,0,1-.176.447.668.668,0,0,1-.5.178.66.66,0,0,1-.5-.178A.615.615,0,0,1,97.993-6.655Zm3.652,1.372.034.61a1.9,1.9,0,0,1,1.538-.708q1.65,0,1.68,1.89V0h-1.187V-3.423a1.088,1.088,0,0,0-.217-.745.914.914,0,0,0-.71-.242,1.143,1.143,0,0,0-1.069.649V0h-1.187V-5.283Zm4.253,2.6a3.09,3.09,0,0,1,.579-1.965,1.857,1.857,0,0,1,1.536-.735,1.74,1.74,0,0,1,1.421.63l.054-.532h1.069V-.161a2.129,2.129,0,0,1-.647,1.641,2.464,2.464,0,0,1-1.746.6,2.814,2.814,0,0,1-1.135-.242,2.017,2.017,0,0,1-.842-.632l.562-.713a1.7,1.7,0,0,0,1.348.649,1.311,1.311,0,0,0,.933-.32,1.226,1.226,0,0,0,.342-.94V-.474A1.747,1.747,0,0,1,108,.1a1.853,1.853,0,0,1-1.516-.737A3.19,3.19,0,0,1,105.9-2.681Zm1.182.1a2.127,2.127,0,0,0,.325,1.252,1.044,1.044,0,0,0,.9.457,1.142,1.142,0,0,0,1.064-.615V-3.809a1.125,1.125,0,0,0-1.055-.6,1.048,1.048,0,0,0-.911.464A2.382,2.382,0,0,0,107.08-2.578Z" transform="translate(529 420)" fill="#0c2339"/>
    <path id="Path_1104" data-name="Path 1104" d="M6.294-3.325A4.4,4.4,0,0,1,5.942-1.5a2.663,2.663,0,0,1-1,1.189,2.741,2.741,0,0,1-1.5.41A2.717,2.717,0,0,1,1.953-.315,2.727,2.727,0,0,1,.945-1.492a4.22,4.22,0,0,1-.369-1.77v-.513A4.346,4.346,0,0,1,.933-5.586a2.717,2.717,0,0,1,1.008-1.2,2.706,2.706,0,0,1,1.492-.417,2.756,2.756,0,0,1,1.506.413,2.658,2.658,0,0,1,1,1.2,4.419,4.419,0,0,1,.352,1.824Zm-.933-.459a3.188,3.188,0,0,0-.508-1.941A1.675,1.675,0,0,0,3.433-6.4a1.657,1.657,0,0,0-1.4.676,3.122,3.122,0,0,0-.525,1.877v.522A3.192,3.192,0,0,0,2.024-1.4a1.664,1.664,0,0,0,1.418.7A1.657,1.657,0,0,0,4.849-1.36a3.174,3.174,0,0,0,.513-1.9Zm6.66,1.2A3.163,3.163,0,0,1,11.47-.64,1.768,1.768,0,0,1,9.976.1a1.938,1.938,0,0,1-1.514-.61V2.031h-.9V-5.283h.825l.044.586a1.861,1.861,0,0,1,1.533-.684,1.8,1.8,0,0,1,1.506.718,3.2,3.2,0,0,1,.554,2Zm-.9-.1A2.334,2.334,0,0,0,10.737-4.1a1.227,1.227,0,0,0-1.045-.518,1.328,1.328,0,0,0-1.23.728v2.524A1.33,1.33,0,0,0,9.7-.64a1.221,1.221,0,0,0,1.033-.515A2.548,2.548,0,0,0,11.118-2.686ZM15.361.1a2.308,2.308,0,0,1-1.748-.706A2.619,2.619,0,0,1,12.939-2.5v-.166a3.17,3.17,0,0,1,.3-1.4,2.343,2.343,0,0,1,.84-.967,2.112,2.112,0,0,1,1.169-.349,1.979,1.979,0,0,1,1.6.679,2.939,2.939,0,0,1,.571,1.943v.376H13.843A1.878,1.878,0,0,0,14.3-1.121,1.435,1.435,0,0,0,15.41-.64a1.573,1.573,0,0,0,.811-.2,2.037,2.037,0,0,0,.581-.518l.552.43A2.219,2.219,0,0,1,15.361.1Zm-.112-4.736a1.2,1.2,0,0,0-.918.4,1.934,1.934,0,0,0-.459,1.116h2.646v-.068a1.721,1.721,0,0,0-.371-1.067A1.134,1.134,0,0,0,15.249-4.639Zm5.771.166a2.707,2.707,0,0,0-.444-.034,1.19,1.19,0,0,0-1.206.757V0h-.9V-5.283h.879l.015.61a1.407,1.407,0,0,1,1.26-.708.923.923,0,0,1,.4.068ZM24.917,0a1.9,1.9,0,0,1-.127-.557,2.015,2.015,0,0,1-1.5.654A1.865,1.865,0,0,1,22-.344a1.43,1.43,0,0,1-.5-1.121,1.494,1.494,0,0,1,.627-1.282A2.958,2.958,0,0,1,23.9-3.2h.879v-.415a1.015,1.015,0,0,0-.283-.754,1.138,1.138,0,0,0-.835-.281,1.317,1.317,0,0,0-.811.244.719.719,0,0,0-.327.591h-.908a1.247,1.247,0,0,1,.281-.764,1.916,1.916,0,0,1,.762-.583,2.563,2.563,0,0,1,1.057-.215,2.089,2.089,0,0,1,1.431.457,1.647,1.647,0,0,1,.537,1.257v2.432a2.973,2.973,0,0,0,.186,1.157V0Zm-1.5-.688a1.588,1.588,0,0,0,.806-.22,1.329,1.329,0,0,0,.552-.571V-2.563h-.708q-1.66,0-1.66.972a.822.822,0,0,0,.283.664A1.089,1.089,0,0,0,23.418-.688Zm4.9-5.874v1.279h.986v.7H28.32V-1.3a.733.733,0,0,0,.132.477.555.555,0,0,0,.449.159,2.187,2.187,0,0,0,.43-.059V0a2.634,2.634,0,0,1-.693.1,1.125,1.125,0,0,1-.913-.366,1.573,1.573,0,0,1-.308-1.04V-4.585h-.962v-.7h.962V-6.562ZM31.343,0h-.9V-5.283h.9Zm-.977-6.685a.539.539,0,0,1,.134-.371.5.5,0,0,1,.4-.151.512.512,0,0,1,.4.151.534.534,0,0,1,.137.371.516.516,0,0,1-.137.366.521.521,0,0,1-.4.146.513.513,0,0,1-.4-.146A.521.521,0,0,1,30.366-6.685ZM32.549-2.69a3.121,3.121,0,0,1,.305-1.4,2.277,2.277,0,0,1,.85-.957,2.313,2.313,0,0,1,1.243-.337,2.228,2.228,0,0,1,1.746.747,2.874,2.874,0,0,1,.667,1.987v.063a3.148,3.148,0,0,1-.3,1.384,2.243,2.243,0,0,1-.845.955A2.339,2.339,0,0,1,34.956.1a2.222,2.222,0,0,1-1.741-.747,2.86,2.86,0,0,1-.667-1.978Zm.908.107a2.26,2.26,0,0,0,.408,1.411,1.3,1.3,0,0,0,1.091.532,1.3,1.3,0,0,0,1.094-.54,2.472,2.472,0,0,0,.405-1.511A2.256,2.256,0,0,0,36.042-4.1a1.312,1.312,0,0,0-1.1-.54,1.3,1.3,0,0,0-1.079.532A2.453,2.453,0,0,0,33.457-2.583Zm5.889-2.7.029.664a1.925,1.925,0,0,1,1.582-.762q1.675,0,1.689,1.89V0h-.9V-3.5a1.216,1.216,0,0,0-.261-.845,1.047,1.047,0,0,0-.8-.273,1.3,1.3,0,0,0-.771.234,1.592,1.592,0,0,0-.518.615V0h-.9V-5.283ZM47.271,0a1.9,1.9,0,0,1-.127-.557A2.015,2.015,0,0,1,45.64.1a1.865,1.865,0,0,1-1.282-.442,1.43,1.43,0,0,1-.5-1.121,1.494,1.494,0,0,1,.627-1.282A2.958,2.958,0,0,1,46.25-3.2h.879v-.415a1.015,1.015,0,0,0-.283-.754,1.138,1.138,0,0,0-.835-.281,1.317,1.317,0,0,0-.811.244.719.719,0,0,0-.327.591h-.908a1.247,1.247,0,0,1,.281-.764,1.916,1.916,0,0,1,.762-.583,2.563,2.563,0,0,1,1.057-.215,2.089,2.089,0,0,1,1.431.457,1.647,1.647,0,0,1,.537,1.257v2.432a2.973,2.973,0,0,0,.186,1.157V0Zm-1.5-.688a1.588,1.588,0,0,0,.806-.22,1.329,1.329,0,0,0,.552-.571V-2.563h-.708q-1.66,0-1.66.972a.822.822,0,0,0,.283.664A1.089,1.089,0,0,0,45.771-.688ZM50.43,0h-.9V-7.5h.9ZM57.1-2.876H55.43V0h-.942V-7.109h2.354a2.786,2.786,0,0,1,1.848.547,1.968,1.968,0,0,1,.647,1.592,1.914,1.914,0,0,1-.359,1.157,2.142,2.142,0,0,1-1,.737l1.67,3.018V0H58.643Zm-1.67-.767h1.44A1.625,1.625,0,0,0,57.981-4a1.224,1.224,0,0,0,.413-.969A1.289,1.289,0,0,0,58-5.986a1.664,1.664,0,0,0-1.135-.357H55.43ZM62.7.1a2.308,2.308,0,0,1-1.748-.706A2.619,2.619,0,0,1,60.278-2.5v-.166a3.17,3.17,0,0,1,.3-1.4,2.343,2.343,0,0,1,.84-.967,2.112,2.112,0,0,1,1.169-.349,1.979,1.979,0,0,1,1.6.679,2.939,2.939,0,0,1,.571,1.943v.376H61.182a1.878,1.878,0,0,0,.457,1.262,1.435,1.435,0,0,0,1.111.481,1.573,1.573,0,0,0,.811-.2,2.037,2.037,0,0,0,.581-.518l.552.43A2.219,2.219,0,0,1,62.7.1Zm-.112-4.736a1.2,1.2,0,0,0-.918.4,1.934,1.934,0,0,0-.459,1.116h2.646v-.068a1.721,1.721,0,0,0-.371-1.067A1.134,1.134,0,0,0,62.588-4.639Zm7.681,2.056A3.163,3.163,0,0,1,69.717-.64,1.768,1.768,0,0,1,68.223.1a1.938,1.938,0,0,1-1.514-.61V2.031h-.9V-5.283h.825l.044.586a1.861,1.861,0,0,1,1.533-.684,1.8,1.8,0,0,1,1.506.718,3.2,3.2,0,0,1,.554,2Zm-.9-.1A2.334,2.334,0,0,0,68.984-4.1a1.227,1.227,0,0,0-1.045-.518,1.328,1.328,0,0,0-1.23.728v2.524a1.33,1.33,0,0,0,1.24.723,1.221,1.221,0,0,0,1.033-.515A2.548,2.548,0,0,0,69.365-2.686Zm1.812,0a3.121,3.121,0,0,1,.305-1.4,2.277,2.277,0,0,1,.85-.957,2.313,2.313,0,0,1,1.243-.337,2.228,2.228,0,0,1,1.746.747,2.874,2.874,0,0,1,.667,1.987v.063a3.148,3.148,0,0,1-.3,1.384,2.243,2.243,0,0,1-.845.955A2.339,2.339,0,0,1,73.584.1a2.222,2.222,0,0,1-1.741-.747,2.86,2.86,0,0,1-.667-1.978Zm.908.107a2.26,2.26,0,0,0,.408,1.411,1.3,1.3,0,0,0,1.091.532,1.3,1.3,0,0,0,1.094-.54,2.472,2.472,0,0,0,.405-1.511A2.256,2.256,0,0,0,74.67-4.1a1.312,1.312,0,0,0-1.1-.54,1.3,1.3,0,0,0-1.079.532A2.453,2.453,0,0,0,72.085-2.583Zm7.588-1.89a2.707,2.707,0,0,0-.444-.034,1.19,1.19,0,0,0-1.206.757V0h-.9V-5.283H78l.015.61a1.407,1.407,0,0,1,1.26-.708.923.923,0,0,1,.4.068Zm2.3-2.09v1.279h.986v.7h-.986V-1.3a.733.733,0,0,0,.132.477.555.555,0,0,0,.449.159,2.187,2.187,0,0,0,.43-.059V0a2.634,2.634,0,0,1-.693.1,1.125,1.125,0,0,1-.913-.366,1.573,1.573,0,0,1-.308-1.04V-4.585h-.962v-.7h.962V-6.562ZM85,0h-.9V-5.283H85Zm-.977-6.685a.539.539,0,0,1,.134-.371.5.5,0,0,1,.4-.151.512.512,0,0,1,.4.151.534.534,0,0,1,.137.371.516.516,0,0,1-.137.366.521.521,0,0,1-.4.146.513.513,0,0,1-.4-.146A.521.521,0,0,1,84.019-6.685Zm3.276,1.4.029.664a1.925,1.925,0,0,1,1.582-.762q1.675,0,1.689,1.89V0h-.9V-3.5a1.216,1.216,0,0,0-.261-.845,1.047,1.047,0,0,0-.8-.273,1.3,1.3,0,0,0-.771.234,1.592,1.592,0,0,0-.518.615V0h-.9V-5.283Zm4.448,2.6a3.105,3.105,0,0,1,.571-1.965,1.827,1.827,0,0,1,1.514-.73,1.817,1.817,0,0,1,1.509.684l.044-.586h.825V-.127A2.149,2.149,0,0,1,95.6,1.489a2.243,2.243,0,0,1-1.633.591,2.717,2.717,0,0,1-1.118-.244,1.925,1.925,0,0,1-.835-.669L92.48.625a1.766,1.766,0,0,0,1.421.718A1.384,1.384,0,0,0,94.929.972,1.418,1.418,0,0,0,95.3-.073V-.527A1.857,1.857,0,0,1,93.818.1a1.8,1.8,0,0,1-1.5-.747A3.265,3.265,0,0,1,91.743-2.686Zm.908.1a2.369,2.369,0,0,0,.366,1.4,1.19,1.19,0,0,0,1.025.51A1.323,1.323,0,0,0,95.3-1.445V-3.857a1.339,1.339,0,0,0-1.245-.757,1.2,1.2,0,0,0-1.03.513A2.58,2.58,0,0,0,92.651-2.583Z" transform="translate(726.5 420)" fill="#0c2339"/>
    <path id="Path_1105" data-name="Path 1105" d="M6.147-2.314A2.567,2.567,0,0,1,5.308-.54,2.863,2.863,0,0,1,3.359.1a2.772,2.772,0,0,1-1.5-.4,2.644,2.644,0,0,1-1-1.145A4.132,4.132,0,0,1,.5-3.174v-.664A4.162,4.162,0,0,1,.854-5.61,2.686,2.686,0,0,1,1.877-6.792a2.853,2.853,0,0,1,1.541-.415,2.748,2.748,0,0,1,1.895.637,2.663,2.663,0,0,1,.835,1.8H4.917A1.756,1.756,0,0,0,4.47-5.872a1.477,1.477,0,0,0-1.052-.339,1.442,1.442,0,0,0-1.238.589,2.943,2.943,0,0,0-.442,1.728v.63A3.122,3.122,0,0,0,2.151-1.5,1.369,1.369,0,0,0,3.359-.9a1.6,1.6,0,0,0,1.094-.327,1.706,1.706,0,0,0,.464-1.089ZM8.306-4.707a1.857,1.857,0,0,1,1.47-.674q1.689,0,1.714,1.929V0H10.3V-3.408a1.043,1.043,0,0,0-.237-.774.968.968,0,0,0-.7-.227,1.143,1.143,0,0,0-1.064.635V0H7.119V-7.5H8.306ZM13.95,0H12.764V-5.283H13.95ZM12.69-6.655a.63.63,0,0,1,.173-.454.655.655,0,0,1,.5-.181.663.663,0,0,1,.5.181.625.625,0,0,1,.176.454.61.61,0,0,1-.176.447.668.668,0,0,1-.5.178.66.66,0,0,1-.5-.178A.615.615,0,0,1,12.69-6.655ZM16.5,0H15.317V-7.5H16.5Zm1.069-2.681a3.141,3.141,0,0,1,.566-1.96,1.815,1.815,0,0,1,1.519-.74,1.724,1.724,0,0,1,1.357.586V-7.5H22.2V0H21.128l-.059-.547A1.749,1.749,0,0,1,19.648.1a1.8,1.8,0,0,1-1.5-.747A3.256,3.256,0,0,1,17.573-2.681Zm1.187.1a2.2,2.2,0,0,0,.31,1.257,1.006,1.006,0,0,0,.881.452,1.121,1.121,0,0,0,1.064-.649V-3.774a1.1,1.1,0,0,0-1.055-.635,1.013,1.013,0,0,0-.889.457A2.449,2.449,0,0,0,18.76-2.578ZM26.206-4.2a2.936,2.936,0,0,0-.483-.039,1.088,1.088,0,0,0-1.1.625V0H23.438V-5.283H24.57l.029.591a1.337,1.337,0,0,1,1.191-.688,1.111,1.111,0,0,1,.42.068ZM29.189.1a2.455,2.455,0,0,1-1.829-.71,2.577,2.577,0,0,1-.7-1.892v-.146a3.17,3.17,0,0,1,.305-1.414,2.323,2.323,0,0,1,.857-.969,2.265,2.265,0,0,1,1.23-.347,2.074,2.074,0,0,1,1.667.688,2.911,2.911,0,0,1,.588,1.948v.479H27.856a1.587,1.587,0,0,0,.437,1.035,1.312,1.312,0,0,0,.964.381,1.607,1.607,0,0,0,1.328-.659l.64.61a2.136,2.136,0,0,1-.847.735A2.652,2.652,0,0,1,29.189.1Zm-.142-4.526a1,1,0,0,0-.789.342,1.772,1.772,0,0,0-.383.952h2.261v-.088a1.442,1.442,0,0,0-.317-.9A.992.992,0,0,0,29.048-4.429Zm4.282-.854.034.61A1.9,1.9,0,0,1,34.9-5.381q1.65,0,1.68,1.89V0H35.4V-3.423a1.088,1.088,0,0,0-.217-.745.914.914,0,0,0-.71-.242A1.143,1.143,0,0,0,33.4-3.76V0H32.212V-5.283Z" transform="translate(751 244.252)" fill="#0c2339"/>
    <g id="Path_1106" data-name="Path 1106" transform="translate(572 389)" fill="#fff">
      <path d="M 12.5 12.5 L 0.5 12.5 L 0.5 0.5 L 12.5 0.5 L 12.5 12.5 Z" stroke="none"/>
      <path d="M 1 1 L 1 12 L 12 12 L 12 1 L 1 1 M 0 0 L 13 0 L 13 13 L 0 13 L 0 0 Z" stroke="none" fill="#a1a1a1"/>
    </g>
    <g id="Path_1107" data-name="Path 1107" transform="translate(769 389)" fill="#fff">
      <path d="M 12.5 12.5 L 0.5 12.5 L 0.5 0.5 L 12.5 0.5 L 12.5 12.5 Z" stroke="none"/>
      <path d="M 1 1 L 1 12 L 12 12 L 12 1 L 1 1 M 0 0 L 13 0 L 13 13 L 0 13 L 0 0 Z" stroke="none" fill="#fe746e"/>
    </g>
    <path id="Path_1108" data-name="Path 1108" d="M0,0H27" transform="translate(669.5 416.5)" fill="none" stroke="#707070" stroke-width="1"/>
  </g>
</svg>
