<svg xmlns="http://www.w3.org/2000/svg" width="1312" height="40" viewBox="0 0 1312 40">
  <g id="Group_1128" data-name="Group 1128" transform="translate(-54 -59)">
    <rect id="Rectangle_728" data-name="Rectangle 728" width="1312" height="40" transform="translate(54 59)" fill="#fff"/>
    <g id="Group_1010" data-name="Group 1010">
      <path id="Path_945" data-name="Path 945" d="M6.747-4.218H2.741V0H1.012V-9.953H7.335v1.395H2.741V-5.6H6.747ZM10.309,0H8.647V-10.5h1.661Zm1.5-3.767a4.361,4.361,0,0,1,.431-1.958,3.145,3.145,0,0,1,1.21-1.34,3.409,3.409,0,0,1,1.791-.468,3.231,3.231,0,0,1,2.43.964,3.791,3.791,0,0,1,1.008,2.557l.007.39a4.4,4.4,0,0,1-.42,1.955,3.108,3.108,0,0,1-1.2,1.333,3.434,3.434,0,0,1-1.808.472A3.209,3.209,0,0,1,12.746-.906a3.993,3.993,0,0,1-.94-2.779Zm1.661.144a2.98,2.98,0,0,0,.472,1.788,1.533,1.533,0,0,0,1.313.646,1.517,1.517,0,0,0,1.309-.656,3.292,3.292,0,0,0,.468-1.921,2.942,2.942,0,0,0-.482-1.777A1.539,1.539,0,0,0,15.237-6.2a1.525,1.525,0,0,0-1.292.646A3.23,3.23,0,0,0,13.467-3.623ZM26.585-2.29,27.761-7.4h1.62L27.364,0H26L24.411-5.079,22.853,0H21.485L19.462-7.4h1.62l1.2,5.052L23.8-7.4h1.251Zm8.053.28a.753.753,0,0,0-.366-.677,3.89,3.89,0,0,0-1.213-.41,6.237,6.237,0,0,1-1.415-.451A1.889,1.889,0,0,1,30.4-5.291a1.969,1.969,0,0,1,.807-1.6,3.189,3.189,0,0,1,2.051-.643,3.318,3.318,0,0,1,2.143.656,2.082,2.082,0,0,1,.817,1.7H34.556a1.024,1.024,0,0,0-.355-.8,1.362,1.362,0,0,0-.943-.318,1.472,1.472,0,0,0-.892.253.8.8,0,0,0-.345.677.673.673,0,0,0,.321.595,4.418,4.418,0,0,0,1.3.427,6.148,6.148,0,0,1,1.535.513A2.173,2.173,0,0,1,36-3.11a1.822,1.822,0,0,1,.27,1.012,1.927,1.927,0,0,1-.827,1.617,3.527,3.527,0,0,1-2.167.619,3.825,3.825,0,0,1-1.62-.328,2.666,2.666,0,0,1-1.107-.9,2.136,2.136,0,0,1-.4-1.237h1.613a1.171,1.171,0,0,0,.444.906,1.727,1.727,0,0,0,1.087.318,1.68,1.68,0,0,0,1-.25A.772.772,0,0,0,34.638-2.01Z" transform="translate(70 86)" fill="#0c2339"/>
      <path id="Path_946" data-name="Path 946" d="M2.933-9.194v1.8H4.238v1.23H2.933v4.129a.909.909,0,0,0,.167.612.777.777,0,0,0,.6.188,2.559,2.559,0,0,0,.581-.068V-.021A4.091,4.091,0,0,1,3.186.137q-1.914,0-1.914-2.112v-4.19H.055V-7.4H1.271v-1.8ZM8.764.137A3.437,3.437,0,0,1,6.2-.858a3.608,3.608,0,0,1-.981-2.649v-.205A4.438,4.438,0,0,1,5.65-5.691a3.252,3.252,0,0,1,1.2-1.357,3.172,3.172,0,0,1,1.723-.485,2.9,2.9,0,0,1,2.334.964,4.076,4.076,0,0,1,.824,2.728v.67H6.9a2.221,2.221,0,0,0,.612,1.449,1.837,1.837,0,0,0,1.35.533,2.249,2.249,0,0,0,1.859-.923l.9.854A2.99,2.99,0,0,1,10.428-.229,3.713,3.713,0,0,1,8.764.137ZM8.565-6.2a1.4,1.4,0,0,0-1.1.479,2.48,2.48,0,0,0-.537,1.333H10.09v-.123a2.019,2.019,0,0,0-.444-1.261A1.388,1.388,0,0,0,8.565-6.2Zm8.6,4.19a.753.753,0,0,0-.366-.677,3.89,3.89,0,0,0-1.213-.41,6.238,6.238,0,0,1-1.415-.451,1.889,1.889,0,0,1-1.244-1.743,1.969,1.969,0,0,1,.807-1.6,3.189,3.189,0,0,1,2.051-.643,3.318,3.318,0,0,1,2.143.656,2.082,2.082,0,0,1,.817,1.7H17.083a1.024,1.024,0,0,0-.355-.8,1.362,1.362,0,0,0-.943-.318,1.472,1.472,0,0,0-.892.253.8.8,0,0,0-.345.677.673.673,0,0,0,.321.595,4.418,4.418,0,0,0,1.3.427,6.148,6.148,0,0,1,1.535.513,2.173,2.173,0,0,1,.827.714A1.822,1.822,0,0,1,18.8-2.1a1.927,1.927,0,0,1-.827,1.617A3.527,3.527,0,0,1,15.8.137a3.825,3.825,0,0,1-1.62-.328,2.666,2.666,0,0,1-1.107-.9,2.136,2.136,0,0,1-.4-1.237h1.613a1.17,1.17,0,0,0,.444.906,1.727,1.727,0,0,0,1.087.318,1.68,1.68,0,0,0,1-.25A.772.772,0,0,0,17.165-2.01Zm5.161-7.185v1.8h1.306v1.23H22.326v4.129a.909.909,0,0,0,.167.612.777.777,0,0,0,.6.188,2.559,2.559,0,0,0,.581-.068V-.021a4.091,4.091,0,0,1-1.094.157q-1.914,0-1.914-2.112v-4.19H19.448V-7.4h1.217v-1.8ZM29.292,0H27.638V-8l-2.44.832V-8.559L29.08-9.987h.212Z" transform="translate(129 86)" fill="#0c2339"/>
      <path id="Path_947" data-name="Path 947" d="M6.829-4.443H2.741v3.063H7.52V0H1.012V-9.953h6.46v1.395H2.741v2.748H6.829Zm1.5.69A4.4,4.4,0,0,1,9.119-6.5a2.541,2.541,0,0,1,2.126-1.036,2.414,2.414,0,0,1,1.9.82V-10.5h1.661V0H13.3l-.082-.766a2.449,2.449,0,0,1-1.989.9,2.527,2.527,0,0,1-2.1-1.046A4.558,4.558,0,0,1,8.326-3.753Zm1.661.144a3.079,3.079,0,0,0,.434,1.76,1.408,1.408,0,0,0,1.234.632,1.569,1.569,0,0,0,1.49-.909V-5.284a1.545,1.545,0,0,0-1.477-.889,1.419,1.419,0,0,0-1.244.639A3.429,3.429,0,0,0,9.987-3.609ZM18.307,0H16.646V-7.4h1.661ZM16.543-9.317a.882.882,0,0,1,.243-.636.917.917,0,0,1,.694-.253.928.928,0,0,1,.7.253.875.875,0,0,1,.246.636.855.855,0,0,1-.246.625.935.935,0,0,1-.7.25.924.924,0,0,1-.694-.25A.861.861,0,0,1,16.543-9.317Zm5.653.123v1.8H23.5v1.23H22.2v4.129a.909.909,0,0,0,.167.612.777.777,0,0,0,.6.188,2.559,2.559,0,0,0,.581-.068V-.021a4.091,4.091,0,0,1-1.094.157q-1.914,0-1.914-2.112v-4.19H19.318V-7.4h1.217v-1.8Z" transform="translate(183 86)" fill="#0c2339"/>
      <g id="next" transform="translate(61.804 78.379)">
        <path id="Chevron_Right_1_" d="M57.845,3.233,54.714.1a.352.352,0,1,0-.5.5L57.1,3.481,54.216,6.362a.352.352,0,1,0,.5.5l3.131-3.13A.355.355,0,0,0,57.845,3.233Z" transform="translate(0 0)"/>
      </g>
      <g id="next-2" data-name="next" transform="translate(115.804 78.379)">
        <path id="Chevron_Right_1_2" data-name="Chevron_Right_1_" d="M57.845,3.233,54.714.1a.352.352,0,1,0-.5.5L57.1,3.481,54.216,6.362a.352.352,0,1,0,.5.5l3.131-3.13A.355.355,0,0,0,57.845,3.233Z" transform="translate(0 0)"/>
      </g>
    </g>
  </g>
</svg>
