<svg xmlns="http://www.w3.org/2000/svg" width="101.332" height="54.8" viewBox="0 0 101.332 54.8">
  <g id="Group_1116" data-name="Group 1116" transform="translate(-126 -447)">
    <g id="Group_1051" data-name="Group 1051">
      <g id="Group_1050" data-name="Group 1050">
        <g id="Create_flow_bg" data-name="Create flow bg" transform="translate(126 447)" fill="rgba(254,116,110,0.18)">
          <path d="M 96.33154296875 54.54999542236328 L 4.999996662139893 54.54999542236328 C 2.380834102630615 54.54999542236328 0.2499964833259583 52.41915512084961 0.2499964833259583 49.79999542236328 L 0.2499964833259583 5.000006198883057 C 0.2499964833259583 2.380843877792358 2.380834102630615 0.2500064074993134 4.999996662139893 0.2500064074993134 L 96.33154296875 0.2500064074993134 C 98.95070648193359 0.2500064074993134 101.08154296875 2.380843877792358 101.08154296875 5.000006198883057 L 101.08154296875 49.79999542236328 C 101.08154296875 52.41915512084961 98.95070648193359 54.54999542236328 96.33154296875 54.54999542236328 Z" stroke="none"/>
          <path d="M 5 0.4999923706054688 C 2.518692016601562 0.4999923706054688 0.5 2.518688201904297 0.5 4.999992370605469 L 0.5 49.79998016357422 C 0.5 52.28128814697266 2.518692016601562 54.29998016357422 5 54.29998016357422 L 96.33154296875 54.29998016357422 C 98.81285095214844 54.29998016357422 100.83154296875 52.28128814697266 100.83154296875 49.79998016357422 L 100.83154296875 4.999992370605469 C 100.83154296875 2.518688201904297 98.81285095214844 0.4999923706054688 96.33154296875 0.4999923706054688 L 5 0.4999923706054688 M 5 -7.62939453125e-06 L 96.33154296875 -7.62939453125e-06 C 99.09295654296875 -7.62939453125e-06 101.33154296875 2.238578796386719 101.33154296875 4.999992370605469 L 101.33154296875 49.79998016357422 C 101.33154296875 52.56140899658203 99.09295654296875 54.79998016357422 96.33154296875 54.79998016357422 L 5 54.79998016357422 C 2.238571166992188 54.79998016357422 0 52.56140899658203 0 49.79998016357422 L 0 4.999992370605469 C 0 2.238578796386719 2.238571166992188 -7.62939453125e-06 5 -7.62939453125e-06 Z" stroke="none" fill="#fe746e"/>
        </g>
        <path id="Path_1090" data-name="Path 1090" d="M2.036-7.109l2.324,5.8,2.324-5.8H7.9V0H6.963V-2.769l.088-2.988L4.717,0H4L1.67-5.742l.093,2.974V0H.825V-7.109ZM12.676,0a1.9,1.9,0,0,1-.127-.557,2.015,2.015,0,0,1-1.5.654A1.865,1.865,0,0,1,9.763-.344a1.43,1.43,0,0,1-.5-1.121A1.494,1.494,0,0,1,9.89-2.747,2.958,2.958,0,0,1,11.655-3.2h.879v-.415a1.015,1.015,0,0,0-.283-.754,1.138,1.138,0,0,0-.835-.281,1.317,1.317,0,0,0-.811.244.719.719,0,0,0-.327.591H9.37a1.247,1.247,0,0,1,.281-.764,1.916,1.916,0,0,1,.762-.583,2.563,2.563,0,0,1,1.057-.215,2.089,2.089,0,0,1,1.431.457,1.647,1.647,0,0,1,.537,1.257v2.432a2.973,2.973,0,0,0,.186,1.157V0Zm-1.5-.688a1.588,1.588,0,0,0,.806-.22,1.329,1.329,0,0,0,.552-.571V-2.563h-.708q-1.66,0-1.66.972a.822.822,0,0,0,.283.664A1.089,1.089,0,0,0,11.177-.688Zm4.531-4.595.029.664a1.925,1.925,0,0,1,1.582-.762q1.675,0,1.689,1.89V0h-.9V-3.5a1.216,1.216,0,0,0-.261-.845,1.047,1.047,0,0,0-.8-.273,1.3,1.3,0,0,0-.771.234,1.592,1.592,0,0,0-.518.615V0h-.9V-5.283ZM23.633-.522A1.919,1.919,0,0,1,22.085.1,1.642,1.642,0,0,1,20.8-.393a2.124,2.124,0,0,1-.447-1.453V-5.283h.9V-1.87q0,1.2.977,1.2a1.352,1.352,0,0,0,1.377-.771V-5.283h.9V0h-.859ZM29.146,0a1.9,1.9,0,0,1-.127-.557,2.015,2.015,0,0,1-1.5.654,1.865,1.865,0,0,1-1.282-.442,1.43,1.43,0,0,1-.5-1.121,1.494,1.494,0,0,1,.627-1.282A2.958,2.958,0,0,1,28.125-3.2H29v-.415a1.015,1.015,0,0,0-.283-.754,1.138,1.138,0,0,0-.835-.281,1.317,1.317,0,0,0-.811.244.719.719,0,0,0-.327.591H25.84a1.247,1.247,0,0,1,.281-.764,1.916,1.916,0,0,1,.762-.583,2.563,2.563,0,0,1,1.057-.215,2.089,2.089,0,0,1,1.431.457,1.647,1.647,0,0,1,.537,1.257v2.432a2.973,2.973,0,0,0,.186,1.157V0Zm-1.5-.688a1.588,1.588,0,0,0,.806-.22A1.329,1.329,0,0,0,29-1.479V-2.563H28.3q-1.66,0-1.66.972a.822.822,0,0,0,.283.664A1.089,1.089,0,0,0,27.646-.688ZM32.3,0h-.9V-7.5h.9Zm3.7-2.686a3.1,3.1,0,0,1,.576-1.956,1.822,1.822,0,0,1,1.509-.74,1.832,1.832,0,0,1,1.47.635V-7.5h.9V0h-.83L39.59-.566A1.84,1.84,0,0,1,38.081.1a1.8,1.8,0,0,1-1.5-.752,3.13,3.13,0,0,1-.579-1.963Zm.9.1a2.343,2.343,0,0,0,.371,1.406,1.2,1.2,0,0,0,1.025.508,1.318,1.318,0,0,0,1.255-.771V-3.867a1.328,1.328,0,0,0-1.245-.747A1.205,1.205,0,0,0,37.28-4.1,2.58,2.58,0,0,0,36.909-2.583ZM45.127,0A1.9,1.9,0,0,1,45-.557,2.015,2.015,0,0,1,43.5.1a1.865,1.865,0,0,1-1.282-.442,1.43,1.43,0,0,1-.5-1.121,1.494,1.494,0,0,1,.627-1.282A2.958,2.958,0,0,1,44.106-3.2h.879v-.415a1.015,1.015,0,0,0-.283-.754,1.138,1.138,0,0,0-.835-.281,1.317,1.317,0,0,0-.811.244.719.719,0,0,0-.327.591h-.908a1.247,1.247,0,0,1,.281-.764,1.916,1.916,0,0,1,.762-.583,2.563,2.563,0,0,1,1.057-.215,2.089,2.089,0,0,1,1.431.457,1.647,1.647,0,0,1,.537,1.257v2.432a2.973,2.973,0,0,0,.186,1.157V0Zm-1.5-.688a1.588,1.588,0,0,0,.806-.22,1.329,1.329,0,0,0,.552-.571V-2.563h-.708q-1.66,0-1.66.972a.822.822,0,0,0,.283.664A1.089,1.089,0,0,0,43.628-.688Zm4.9-5.874v1.279h.986v.7H48.53V-1.3a.733.733,0,0,0,.132.477.555.555,0,0,0,.449.159,2.187,2.187,0,0,0,.43-.059V0a2.634,2.634,0,0,1-.693.1,1.125,1.125,0,0,1-.913-.366,1.573,1.573,0,0,1-.308-1.04V-4.585h-.962v-.7h.962V-6.562ZM53.833,0a1.9,1.9,0,0,1-.127-.557A2.015,2.015,0,0,1,52.2.1,1.865,1.865,0,0,1,50.92-.344a1.43,1.43,0,0,1-.5-1.121,1.494,1.494,0,0,1,.627-1.282A2.958,2.958,0,0,1,52.813-3.2h.879v-.415a1.015,1.015,0,0,0-.283-.754,1.138,1.138,0,0,0-.835-.281,1.317,1.317,0,0,0-.811.244.719.719,0,0,0-.327.591h-.908a1.247,1.247,0,0,1,.281-.764,1.916,1.916,0,0,1,.762-.583,2.563,2.563,0,0,1,1.057-.215,2.089,2.089,0,0,1,1.431.457,1.647,1.647,0,0,1,.537,1.257v2.432A2.973,2.973,0,0,0,54.78-.078V0Zm-1.5-.688a1.588,1.588,0,0,0,.806-.22,1.329,1.329,0,0,0,.552-.571V-2.563h-.708q-1.66,0-1.66.972a.822.822,0,0,0,.283.664A1.089,1.089,0,0,0,52.334-.688ZM59.468,0h-.9V-5.283h.9Zm-.977-6.685a.539.539,0,0,1,.134-.371.5.5,0,0,1,.4-.151.512.512,0,0,1,.4.151.534.534,0,0,1,.137.371.516.516,0,0,1-.137.366.521.521,0,0,1-.4.146.513.513,0,0,1-.4-.146A.521.521,0,0,1,58.491-6.685Zm3.276,1.4.029.664a1.925,1.925,0,0,1,1.582-.762q1.675,0,1.689,1.89V0h-.9V-3.5a1.216,1.216,0,0,0-.261-.845,1.047,1.047,0,0,0-.8-.273,1.3,1.3,0,0,0-.771.234,1.592,1.592,0,0,0-.518.615V0h-.9V-5.283Zm9.126,2.7A3.163,3.163,0,0,1,70.342-.64,1.768,1.768,0,0,1,68.848.1a1.938,1.938,0,0,1-1.514-.61V2.031h-.9V-5.283h.825L67.3-4.7a1.861,1.861,0,0,1,1.533-.684,1.8,1.8,0,0,1,1.506.718,3.2,3.2,0,0,1,.554,2Zm-.9-.1A2.334,2.334,0,0,0,69.609-4.1a1.227,1.227,0,0,0-1.045-.518,1.328,1.328,0,0,0-1.23.728v2.524a1.33,1.33,0,0,0,1.24.723,1.221,1.221,0,0,0,1.033-.515A2.548,2.548,0,0,0,69.99-2.686ZM75.3-.522A1.919,1.919,0,0,1,73.755.1a1.642,1.642,0,0,1-1.287-.491,2.124,2.124,0,0,1-.447-1.453V-5.283h.9V-1.87q0,1.2.977,1.2a1.352,1.352,0,0,0,1.377-.771V-5.283h.9V0h-.859Zm3.477-6.04v1.279h.986v.7h-.986V-1.3a.733.733,0,0,0,.132.477.555.555,0,0,0,.449.159,2.187,2.187,0,0,0,.43-.059V0A2.634,2.634,0,0,1,79.1.1a1.125,1.125,0,0,1-.913-.366,1.573,1.573,0,0,1-.308-1.04V-4.585h-.962v-.7h.962V-6.562ZM83.9-1.4a.665.665,0,0,0-.276-.569,2.655,2.655,0,0,0-.962-.349,4.548,4.548,0,0,1-1.089-.352,1.549,1.549,0,0,1-.6-.488,1.168,1.168,0,0,1-.193-.674,1.37,1.37,0,0,1,.549-1.1,2.145,2.145,0,0,1,1.4-.449,2.208,2.208,0,0,1,1.458.464,1.473,1.473,0,0,1,.559,1.187h-.908a.815.815,0,0,0-.315-.64,1.18,1.18,0,0,0-.793-.269,1.235,1.235,0,0,0-.771.215.676.676,0,0,0-.278.562.548.548,0,0,0,.259.493,3.184,3.184,0,0,0,.935.317,4.872,4.872,0,0,1,1.1.361,1.6,1.6,0,0,1,.623.505,1.243,1.243,0,0,1,.2.72A1.352,1.352,0,0,1,84.233-.33,2.376,2.376,0,0,1,82.764.1a2.66,2.66,0,0,1-1.123-.225,1.827,1.827,0,0,1-.764-.627,1.512,1.512,0,0,1-.276-.872h.9a.935.935,0,0,0,.364.72,1.411,1.411,0,0,0,.9.266,1.457,1.457,0,0,0,.823-.208A.638.638,0,0,0,83.9-1.4Z" transform="translate(133 466.682)" fill="#0c2339"/>
      </g>
    </g>
    <path id="Path_1048" data-name="Path 1048" d="M5.333,0A5.333,5.333,0,1,1,0,5.333,5.333,5.333,0,0,1,5.333,0Z" transform="translate(211.833 487.134)" fill="#fe746e"/>
    <path id="Path_1049" data-name="Path 1049" d="M2.136,0H1.591V-3.612L.5-3.211V-3.7l1.553-.583h.085Z" transform="translate(215.5 494.8)" fill="#fff"/>
  </g>
</svg>
