<svg id="Dashboard_icon" data-name="Dashboard icon" xmlns="http://www.w3.org/2000/svg" width="13.25" height="13.25" viewBox="0 0 13.25 13.25">
  <g id="Group_1" data-name="Group 1">
    <path id="Path_1" data-name="Path 1" d="M5.245,4.417H.828A.829.829,0,0,1,0,3.589V.828A.829.829,0,0,1,.828,0H5.245a.829.829,0,0,1,.828.828v2.76A.829.829,0,0,1,5.245,4.417ZM.828.552A.276.276,0,0,0,.552.828v2.76a.276.276,0,0,0,.276.276H5.245a.276.276,0,0,0,.276-.276V.828A.276.276,0,0,0,5.245.552Z" fill="#4dc0ed"/>
  </g>
  <g id="Group_2" data-name="Group 2" transform="translate(0 5.521)">
    <path id="Path_2" data-name="Path 2" d="M5.245,17.729H.828A.829.829,0,0,1,0,16.9V10.828A.829.829,0,0,1,.828,10H5.245a.829.829,0,0,1,.828.828V16.9A.829.829,0,0,1,5.245,17.729ZM.828,10.552a.276.276,0,0,0-.276.276V16.9a.276.276,0,0,0,.276.276H5.245a.276.276,0,0,0,.276-.276V10.828a.276.276,0,0,0-.276-.276Z" transform="translate(0 -10)" fill="#4dc0ed"/>
  </g>
  <g id="Group_3" data-name="Group 3" transform="translate(7.177 8.833)">
    <path id="Path_3" data-name="Path 3" d="M18.245,20.417H13.828A.829.829,0,0,1,13,19.589v-2.76A.829.829,0,0,1,13.828,16h4.417a.829.829,0,0,1,.828.828v2.76A.829.829,0,0,1,18.245,20.417Zm-4.417-3.865a.277.277,0,0,0-.276.276v2.76a.276.276,0,0,0,.276.276h4.417a.276.276,0,0,0,.276-.276v-2.76a.276.276,0,0,0-.276-.276Z" transform="translate(-13 -16)" fill="#4dc0ed"/>
  </g>
  <g id="Group_4" data-name="Group 4" transform="translate(7.177)">
    <path id="Path_4" data-name="Path 4" d="M18.245,7.729H13.828A.829.829,0,0,1,13,6.9V.828A.829.829,0,0,1,13.828,0h4.417a.829.829,0,0,1,.828.828V6.9A.829.829,0,0,1,18.245,7.729ZM13.828.552a.276.276,0,0,0-.276.276V6.9a.276.276,0,0,0,.276.276h4.417a.276.276,0,0,0,.276-.276V.828a.276.276,0,0,0-.276-.276Z" transform="translate(-13)" fill="#4dc0ed"/>
  </g>
</svg>
