<svg xmlns="http://www.w3.org/2000/svg" width="12.917" height="13.19" viewBox="0 0 12.917 13.19">
  <g id="Flow_performance_icon" data-name="Flow performance icon" transform="translate(-56.3 -14.8)">
    <path id="Path_5" data-name="Path 5" d="M424.942,47.785a.243.243,0,0,1-.184-.4l.381-.443-.381-.44a.243.243,0,0,1,.367-.317l.517.6a.242.242,0,0,1,0,.317l-.517.6A.242.242,0,0,1,424.942,47.785Z" transform="translate(-356.486 -30.288)" fill="#fff"/>
    <path id="Path_6" data-name="Path 6" d="M424.942,415.485a.243.243,0,0,1-.183-.4l.381-.44-.381-.443a.243.243,0,1,1,.368-.316l.517.6a.243.243,0,0,1,0,.317l-.517.6A.242.242,0,0,1,424.942,415.485Z" transform="translate(-356.486 -388.514)" fill="#fff"/>
    <path id="Line_2" data-name="Line 2" d="M-4.877-7.015h-2.38A.243.243,0,0,1-7.5-7.257.243.243,0,0,1-7.257-7.5h2.38a.243.243,0,0,1,.243.243A.243.243,0,0,1-4.877-7.015Z" transform="translate(73.722 23.917)" fill="#fff"/>
    <path id="Path_7" data-name="Path 7" d="M137.443,67.919c-.134,0-.243-.07-.243-.157v-2.8c0-.087.109-.157.243-.157h2.073c.134,0,.243.07.243.157s-.109.157-.243.157h-1.83v2.648C137.685,67.849,137.577,67.919,137.443,67.919Z" transform="translate(-78.284 -48.383)" fill="#fff"/>
    <path id="Path_8" data-name="Path 8" d="M139.516,301.53h-2.073c-.134,0-.243-.07-.243-.157v-2.815c0-.087.109-.157.243-.157s.243.071.243.157v2.658h1.83c.134,0,.243.07.243.157S139.65,301.53,139.516,301.53Z" transform="translate(-78.284 -275.154)" fill="#fff"/>
    <path id="Line_3" data-name="Line 3" d="M-5.136-7.015H-7.257A.243.243,0,0,1-7.5-7.257.243.243,0,0,1-7.257-7.5h2.122a.243.243,0,0,1,.243.243A.243.243,0,0,1-5.136-7.015Z" transform="translate(73.722 33.391)" fill="#fff"/>
    <path id="Path_9" data-name="Path 9" d="M61.232,202.309H57.086a.787.787,0,0,1-.786-.786v-2.138a.787.787,0,0,1,.786-.786h1.193a.245.245,0,0,1,.04,0h2.913a.787.787,0,0,1,.786.786v2.134A.787.787,0,0,1,61.232,202.309Zm-4.146-3.224a.3.3,0,0,0-.3.3v2.138a.3.3,0,0,0,.3.3h4.146a.3.3,0,0,0,.3-.3v-2.134a.3.3,0,0,0-.3-.3H57.946a.245.245,0,0,1-.04,0Z" transform="translate(0 -179.064)" fill="#fff"/>
    <path id="Path_10" data-name="Path 10" d="M206.232,18.509h-4.146a.787.787,0,0,1-.786-.786V15.586a.787.787,0,0,1,.786-.786h4.146a.787.787,0,0,1,.786.786v2.138A.787.787,0,0,1,206.232,18.509Zm-4.146-3.224a.3.3,0,0,0-.3.3v2.138a.3.3,0,0,0,.3.3h4.146a.3.3,0,0,0,.3-.3V15.586a.3.3,0,0,0-.3-.3Z" transform="translate(-140.311)" fill="#fff"/>
    <path id="Path_11" data-name="Path 11" d="M206.232,386.409h-4.146a.787.787,0,0,1-.786-.786v-2.138a.787.787,0,0,1,.786-.786h4.146a.787.787,0,0,1,.786.786v2.138A.787.787,0,0,1,206.232,386.409Zm-4.146-3.224a.3.3,0,0,0-.3.3v2.138a.3.3,0,0,0,.3.3h4.146a.3.3,0,0,0,.3-.3v-2.138a.3.3,0,0,0-.3-.3Z" transform="translate(-140.311 -358.42)" fill="#fff"/>
  </g>
</svg>
