<svg id="Settings_icon" data-name="Settings icon" xmlns="http://www.w3.org/2000/svg" width="13.583" height="13.583" viewBox="0 0 13.583 13.583">
  <g id="Group_11" data-name="Group 11" transform="translate(0 0)">
    <path id="Path_20" data-name="Path 20" d="M7.426,13.583H6.158a.848.848,0,0,1-.841-.747l-.135-1.062a5.349,5.349,0,0,1-.778-.322l-.846.657a.844.844,0,0,1-1.123-.071l-.891-.891a.842.842,0,0,1-.069-1.12l.657-.846A5.225,5.225,0,0,1,1.809,8.4L.745,8.268A.85.85,0,0,1,0,7.426V6.158a.848.848,0,0,1,.747-.841l1.062-.135A5.348,5.348,0,0,1,2.131,4.4l-.657-.846a.844.844,0,0,1,.072-1.124l.891-.891a.843.843,0,0,1,1.12-.069l.846.658a5.329,5.329,0,0,1,.778-.322L5.317.745A.848.848,0,0,1,6.158,0H7.426a.848.848,0,0,1,.841.747L8.4,1.809a5.329,5.329,0,0,1,.778.322l.846-.657a.844.844,0,0,1,1.123.072l.891.891a.842.842,0,0,1,.069,1.12l-.657.846a5.225,5.225,0,0,1,.322.778l1.064.135a.849.849,0,0,1,.745.842V7.426a.848.848,0,0,1-.747.841L11.775,8.4a5.349,5.349,0,0,1-.322.778l.657.846a.843.843,0,0,1-.072,1.123l-.891.891a.841.841,0,0,1-1.12.069l-.846-.657a5.225,5.225,0,0,1-.778.322l-.135,1.064a.849.849,0,0,1-.842.745ZM4.375,10.833a.287.287,0,0,1,.138.036,4.75,4.75,0,0,0,1,.417.283.283,0,0,1,.2.236l.158,1.245a.286.286,0,0,0,.28.251H7.426a.285.285,0,0,0,.279-.248l.159-1.247a.283.283,0,0,1,.2-.236,4.75,4.75,0,0,0,1-.417.282.282,0,0,1,.311.024l.99.77a.278.278,0,0,0,.371-.019l.9-.9a.28.28,0,0,0,.022-.374l-.77-.99a.282.282,0,0,1-.024-.311,4.75,4.75,0,0,0,.417-1,.283.283,0,0,1,.236-.2l1.245-.158a.287.287,0,0,0,.251-.28V6.158a.285.285,0,0,0-.248-.279L11.522,5.72a.283.283,0,0,1-.236-.2,4.75,4.75,0,0,0-.417-1,.281.281,0,0,1,.024-.311l.77-.99a.277.277,0,0,0-.019-.37l-.9-.9a.279.279,0,0,0-.374-.022l-.99.77a.284.284,0,0,1-.312.024,4.731,4.731,0,0,0-1-.417.283.283,0,0,1-.2-.236L7.706.818a.287.287,0,0,0-.28-.252H6.158a.285.285,0,0,0-.279.248L5.72,2.062a.284.284,0,0,1-.2.237,4.729,4.729,0,0,0-1,.416A.283.283,0,0,1,4.2,2.691l-.99-.77a.278.278,0,0,0-.37.019l-.9.9a.28.28,0,0,0-.022.374l.77.99a.282.282,0,0,1,.024.311,4.721,4.721,0,0,0-.417,1,.283.283,0,0,1-.236.2L.817,5.878a.286.286,0,0,0-.251.28V7.426A.285.285,0,0,0,.814,7.7l1.247.159a.283.283,0,0,1,.236.2,4.75,4.75,0,0,0,.417,1,.281.281,0,0,1-.024.311l-.77.99a.277.277,0,0,0,.019.37l.9.9a.28.28,0,0,0,.374.022l.99-.77a.291.291,0,0,1,.174-.059Z" transform="translate(0 0)" fill="#fff"/>
  </g>
  <g id="Group_12" data-name="Group 12" transform="translate(3.962 3.962)">
    <path id="Path_21" data-name="Path 21" d="M9.83,12.66a2.83,2.83,0,1,1,2.83-2.83A2.833,2.833,0,0,1,9.83,12.66Zm0-5.094A2.264,2.264,0,1,0,12.094,9.83,2.266,2.266,0,0,0,9.83,7.566Z" transform="translate(-7 -7)" fill="#fff"/>
  </g>
</svg>
