<?xml version="1.0" encoding="UTF-8" standalone="no"?>
<svg
   width="98.5"
   height="36"
   viewBox="0 0 98.5 36"
   version="1.1"
   id="svg14"
   sodipodi:docname="Save-Btn.svg"
   xmlns:inkscape="http://www.inkscape.org/namespaces/inkscape"
   xmlns:sodipodi="http://sodipodi.sourceforge.net/DTD/sodipodi-0.dtd"
   xmlns="http://www.w3.org/2000/svg"
   xmlns:svg="http://www.w3.org/2000/svg">
  <defs
     id="defs18" />
  <sodipodi:namedview
     id="namedview16"
     pagecolor="#ffffff"
     bordercolor="#666666"
     borderopacity="1.0"
     inkscape:pageshadow="2"
     inkscape:pageopacity="0.0"
     inkscape:pagecheckerboard="0" />
  <g
     transform="translate(-1171,-715.743)"
     id="g12">
    <g
       transform="translate(1171,715.743)"
       fill="#1f6cb6"
       stroke="rgba(165,170,188,0.5)"
       stroke-width="0.5"
       id="g6">
      <path
         id="rect2"
         d="m 5,0 h 88.5 c 2.77,0 5,2.23 5,5 v 26 c 0,2.77 -2.23,5 -5,5 H 5 C 2.23,36 0,33.77 0,31 V 5 C 0,2.23 2.23,0 5,0 Z" />
      <path
         id="rect4"
         style="fill:none"
         d="m 5,0.25 h 88.5 c 2.6315,0 4.75,2.1185 4.75,4.75 v 26 c 0,2.6315 -2.1185,4.75 -4.75,4.75 H 5 C 2.3685,35.75 0.25,33.6315 0.25,31 V 5 C 0.25,2.3685 2.3685,0.25 5,0.25 Z" />
    </g>
    <g
       aria-label="Save"
       transform="translate(1207,737.743)"
       id="text10"
       style="font-size:12px;font-family:Roboto-Regular, Roboto;fill:#ffffff">
      <path
         d="M 3.5039063,-3.8027344 Q 2.0566406,-4.21875 1.3945312,-4.8222656 q -0.65624995,-0.609375 -0.65624995,-1.5 0,-1.0078125 0.80273435,-1.6640625 0.8085938,-0.6621094 2.0976563,-0.6621094 0.8789062,0 1.5644531,0.3398437 0.6914062,0.3398438 1.0664062,0.9375001 0.3808594,0.5976562 0.3808594,1.3066406 H 5.5195312 q 0,-0.7734375 -0.4921875,-1.2128906 -0.4921875,-0.4453125 -1.3886718,-0.4453125 -0.8320313,0 -1.3007813,0.3691406 Q 1.875,-6.9902344 1.875,-6.3398437 q 0,0.5214843 0.4394531,0.8847656 0.4453125,0.3574219 1.5058594,0.65625 Q 4.8867187,-4.5 5.484375,-4.1367187 6.0878906,-3.7792969 6.375,-3.2988281 q 0.2929687,0.4804687 0.2929687,1.1308593 0,1.0371094 -0.8085937,1.66406255 -0.8085938,0.62109375 -2.1621094,0.62109375 -0.8789062,0 -1.640625,-0.33398438 Q 1.2949219,-0.55664062 0.87890625,-1.1425781 0.46875,-1.7285156 0.46875,-2.4726563 h 1.1308594 q 0,0.7734376 0.5683594,1.2246094 0.5742187,0.44531252 1.5292968,0.44531252 0.890625,0 1.3652344,-0.36328122 0.4746094,-0.3632813 0.4746094,-0.9902344 0,-0.6269531 -0.4394532,-0.9667969 Q 4.6582031,-3.46875 3.5039063,-3.8027344 Z"
         id="path22" />
      <path
         d="m 11.853516,0 q -0.09375,-0.1875 -0.152344,-0.66796875 -0.755859,0.78515625 -1.8046876,0.78515625 -0.9375,0 -1.5410156,-0.52734375 -0.5976563,-0.53320313 -0.5976563,-1.34765625 0,-0.9902344 0.75,-1.5351563 Q 9.2636719,-3.84375 10.628906,-3.84375 h 1.054688 v -0.4980469 q 0,-0.5683593 -0.339844,-0.9023437 -0.339844,-0.3398438 -1.001953,-0.3398438 -0.5800782,0 -0.9726564,0.2929688 -0.3925781,0.2929687 -0.3925781,0.7089844 H 7.8867187 q 0,-0.4746094 0.3339844,-0.9140625 0.3398438,-0.4453125 0.9140625,-0.703125 0.5800782,-0.2578125 1.2714844,-0.2578125 1.095703,0 1.716797,0.5507812 0.621094,0.5449219 0.644531,1.5058594 v 2.9179687 q 0,0.8730469 0.222656,1.3886719 V 0 Z m -1.798828,-0.82617188 q 0.509765,0 0.966796,-0.26367182 0.457032,-0.2636719 0.66211,-0.6855469 v -1.3007813 h -0.84961 q -1.9921871,0 -1.9921871,1.1660157 0,0.5097656 0.3398437,0.796875 0.3398438,0.28710932 0.8730474,0.28710932 z"
         id="path24" />
      <path
         d="m 16.470703,-1.4707031 1.570313,-4.8691406 h 1.107421 L 16.875,0 h -0.826172 l -2.296875,-6.3398437 h 1.107422 z"
         id="path26" />
      <path
         d="m 22.746094,0.1171875 q -1.289063,0 -2.097657,-0.84375 -0.808593,-0.8496094 -0.808593,-2.2675781 v -0.1992188 q 0,-0.9433593 0.357422,-1.6816406 0.363281,-0.7441406 1.007812,-1.1601562 0.650391,-0.421875 1.40625,-0.421875 1.236328,0 1.921875,0.8144531 0.685547,0.8144531 0.685547,2.3320312 v 0.4511719 h -4.294922 q 0.02344,0.9375 0.544922,1.5175781 0.527344,0.57421878 1.335937,0.57421878 0.574219,0 0.972657,-0.23437498 0.398437,-0.234375 0.697265,-0.6210938 l 0.66211,0.515625 q -0.796875,1.2246094 -2.390625,1.2246094 z m -0.134766,-5.6835937 q -0.65625,0 -1.101562,0.4804687 Q 21.064453,-4.6113281 20.958984,-3.75 h 3.175782 v -0.082031 q -0.04687,-0.8261718 -0.445313,-1.2773437 -0.398437,-0.4570312 -1.078125,-0.4570312 z"
         id="path28" />
    </g>
  </g>
</svg>
