<svg xmlns="http://www.w3.org/2000/svg" width="1076" height="35" viewBox="0 0 1076 35">
  <g id="Group_821" data-name="Group 821" transform="translate(17301.502 -2025)">
    <rect id="Field_1" data-name="Field 1" width="1071" height="33" rx="5" transform="translate(-17298.502 2026.5)" fill="#fff"/>
    <path id="Path_724" data-name="Path 724" d="M2.848,0H2.121V-4.816L.664-4.281v-.656l2.07-.777h.113ZM7.8-5.691v.613H7.73a2.231,2.231,0,0,0-.883.156,1.69,1.69,0,0,0-.6.416,1.782,1.782,0,0,0-.355.6,2.742,2.742,0,0,0-.152.7,1.394,1.394,0,0,1,.549-.393,1.843,1.843,0,0,1,.678-.123,1.548,1.548,0,0,1,.732.162,1.506,1.506,0,0,1,.506.426,1.8,1.8,0,0,1,.295.6,2.5,2.5,0,0,1,.1.688,2.476,2.476,0,0,1-.113.76,1.751,1.751,0,0,1-.336.613,1.583,1.583,0,0,1-.551.41,1.811,1.811,0,0,1-.762.15,1.627,1.627,0,0,1-.8-.191,1.771,1.771,0,0,1-.572-.5,2.211,2.211,0,0,1-.342-.7A2.806,2.806,0,0,1,5-2.1v-.34a6.5,6.5,0,0,1,.049-.795,3.865,3.865,0,0,1,.17-.758,2.96,2.96,0,0,1,.322-.672,2.107,2.107,0,0,1,.5-.539,2.322,2.322,0,0,1,.719-.357,3.259,3.259,0,0,1,.963-.129ZM6.848-3.129a1.12,1.12,0,0,0-.367.061,1.238,1.238,0,0,0-.322.166,1.258,1.258,0,0,0-.258.248,1.094,1.094,0,0,0-.17.307v.266a2.243,2.243,0,0,0,.092.674,1.534,1.534,0,0,0,.246.488,1.061,1.061,0,0,0,.354.3.9.9,0,0,0,.414.1,1,1,0,0,0,.445-.1.931.931,0,0,0,.33-.27A1.236,1.236,0,0,0,7.816-1.3a1.844,1.844,0,0,0,.07-.523,1.855,1.855,0,0,0-.064-.49,1.311,1.311,0,0,0-.193-.418A.979.979,0,0,0,7.3-3.02.92.92,0,0,0,6.848-3.129Zm5.438-2.562v.613h-.066a2.231,2.231,0,0,0-.883.156,1.69,1.69,0,0,0-.6.416,1.782,1.782,0,0,0-.355.6,2.742,2.742,0,0,0-.152.7,1.394,1.394,0,0,1,.549-.393,1.843,1.843,0,0,1,.678-.123,1.548,1.548,0,0,1,.732.162,1.506,1.506,0,0,1,.506.426,1.8,1.8,0,0,1,.295.6,2.5,2.5,0,0,1,.1.688,2.476,2.476,0,0,1-.113.76,1.751,1.751,0,0,1-.336.613,1.583,1.583,0,0,1-.551.41,1.811,1.811,0,0,1-.762.15,1.627,1.627,0,0,1-.8-.191,1.771,1.771,0,0,1-.572-.5,2.211,2.211,0,0,1-.342-.7A2.806,2.806,0,0,1,9.492-2.1v-.34a6.5,6.5,0,0,1,.049-.795,3.865,3.865,0,0,1,.17-.758,2.96,2.96,0,0,1,.322-.672,2.107,2.107,0,0,1,.5-.539,2.322,2.322,0,0,1,.719-.357,3.259,3.259,0,0,1,.963-.129Zm-.949,2.563a1.12,1.12,0,0,0-.367.061,1.238,1.238,0,0,0-.322.166,1.258,1.258,0,0,0-.258.248,1.094,1.094,0,0,0-.17.307v.266a2.243,2.243,0,0,0,.092.674,1.534,1.534,0,0,0,.246.488,1.061,1.061,0,0,0,.354.3.9.9,0,0,0,.414.1,1,1,0,0,0,.445-.1.931.931,0,0,0,.33-.27A1.236,1.236,0,0,0,12.3-1.3a1.844,1.844,0,0,0,.07-.523,1.855,1.855,0,0,0-.064-.49,1.311,1.311,0,0,0-.193-.418.979.979,0,0,0-.324-.291A.92.92,0,0,0,11.336-3.129ZM14.992-3.2h.516A1.482,1.482,0,0,0,16-3.27a.991.991,0,0,0,.352-.205.837.837,0,0,0,.211-.309,1.047,1.047,0,0,0,.07-.389,1.032,1.032,0,0,0-.246-.744,1,1,0,0,0-.75-.256,1.23,1.23,0,0,0-.42.068.923.923,0,0,0-.324.2.869.869,0,0,0-.209.309,1.06,1.06,0,0,0-.074.4h-.723a1.511,1.511,0,0,1,.125-.613,1.48,1.48,0,0,1,.355-.5,1.7,1.7,0,0,1,.553-.336,2,2,0,0,1,.717-.123,2.253,2.253,0,0,1,.7.1,1.5,1.5,0,0,1,.541.3,1.366,1.366,0,0,1,.35.5,1.812,1.812,0,0,1,.125.7,1.169,1.169,0,0,1-.053.336,1.366,1.366,0,0,1-.16.344,1.445,1.445,0,0,1-.277.314,1.493,1.493,0,0,1-.4.244,1.518,1.518,0,0,1,.471.236,1.271,1.271,0,0,1,.3.326,1.239,1.239,0,0,1,.16.379,1.7,1.7,0,0,1,.047.391,1.744,1.744,0,0,1-.137.709,1.462,1.462,0,0,1-.379.521,1.679,1.679,0,0,1-.57.322,2.212,2.212,0,0,1-.715.111,2.311,2.311,0,0,1-.7-.1,1.709,1.709,0,0,1-.574-.3,1.443,1.443,0,0,1-.389-.5,1.529,1.529,0,0,1-.143-.674h.727a1.06,1.06,0,0,0,.074.4.872.872,0,0,0,.215.313.961.961,0,0,0,.34.2,1.344,1.344,0,0,0,.449.07,1.456,1.456,0,0,0,.449-.064.883.883,0,0,0,.34-.2.863.863,0,0,0,.215-.332,1.329,1.329,0,0,0,.074-.465,1.138,1.138,0,0,0-.086-.461.839.839,0,0,0-.244-.322,1.057,1.057,0,0,0-.381-.189,1.85,1.85,0,0,0-.5-.062h-.516ZM20.809,0h-.727V-4.816l-1.457.535v-.656l2.07-.777h.113Zm3.168-3.2h.516a1.482,1.482,0,0,0,.492-.074.991.991,0,0,0,.352-.205.837.837,0,0,0,.211-.309,1.047,1.047,0,0,0,.07-.389,1.032,1.032,0,0,0-.246-.744,1,1,0,0,0-.75-.256,1.23,1.23,0,0,0-.42.068.923.923,0,0,0-.324.2.869.869,0,0,0-.209.309,1.06,1.06,0,0,0-.074.4h-.723A1.511,1.511,0,0,1,23-4.809a1.48,1.48,0,0,1,.355-.5,1.7,1.7,0,0,1,.553-.336,2,2,0,0,1,.717-.123,2.253,2.253,0,0,1,.7.1,1.5,1.5,0,0,1,.541.3,1.366,1.366,0,0,1,.35.5,1.812,1.812,0,0,1,.125.7,1.169,1.169,0,0,1-.053.336,1.366,1.366,0,0,1-.16.344,1.445,1.445,0,0,1-.277.314,1.493,1.493,0,0,1-.4.244,1.518,1.518,0,0,1,.471.236,1.271,1.271,0,0,1,.3.326,1.239,1.239,0,0,1,.16.379,1.7,1.7,0,0,1,.047.391,1.744,1.744,0,0,1-.137.709,1.462,1.462,0,0,1-.379.521,1.679,1.679,0,0,1-.57.322,2.212,2.212,0,0,1-.715.111,2.311,2.311,0,0,1-.7-.1,1.709,1.709,0,0,1-.574-.3,1.443,1.443,0,0,1-.389-.5A1.529,1.529,0,0,1,22.82-1.5h.727a1.06,1.06,0,0,0,.074.4.872.872,0,0,0,.215.313.961.961,0,0,0,.34.2,1.344,1.344,0,0,0,.449.07,1.456,1.456,0,0,0,.449-.064.883.883,0,0,0,.34-.2.863.863,0,0,0,.215-.332A1.329,1.329,0,0,0,25.7-1.57a1.138,1.138,0,0,0-.086-.461.839.839,0,0,0-.244-.322,1.057,1.057,0,0,0-.381-.189,1.85,1.85,0,0,0-.5-.062h-.516Zm4.492,0h.516a1.482,1.482,0,0,0,.492-.074.991.991,0,0,0,.352-.205.837.837,0,0,0,.211-.309,1.047,1.047,0,0,0,.07-.389,1.032,1.032,0,0,0-.246-.744,1,1,0,0,0-.75-.256,1.23,1.23,0,0,0-.42.068.923.923,0,0,0-.324.2.869.869,0,0,0-.209.309,1.06,1.06,0,0,0-.074.4h-.723a1.511,1.511,0,0,1,.125-.613,1.48,1.48,0,0,1,.355-.5,1.7,1.7,0,0,1,.553-.336,2,2,0,0,1,.717-.123,2.253,2.253,0,0,1,.7.1,1.5,1.5,0,0,1,.541.3,1.366,1.366,0,0,1,.35.5,1.812,1.812,0,0,1,.125.7,1.169,1.169,0,0,1-.053.336,1.366,1.366,0,0,1-.16.344,1.445,1.445,0,0,1-.277.314,1.493,1.493,0,0,1-.4.244,1.518,1.518,0,0,1,.471.236,1.271,1.271,0,0,1,.3.326,1.239,1.239,0,0,1,.16.379,1.7,1.7,0,0,1,.047.391,1.744,1.744,0,0,1-.137.709,1.462,1.462,0,0,1-.379.521,1.679,1.679,0,0,1-.57.322,2.212,2.212,0,0,1-.715.111,2.311,2.311,0,0,1-.7-.1,1.709,1.709,0,0,1-.574-.3,1.443,1.443,0,0,1-.389-.5,1.529,1.529,0,0,1-.143-.674h.727a1.06,1.06,0,0,0,.074.4.872.872,0,0,0,.215.313.961.961,0,0,0,.34.2,1.344,1.344,0,0,0,.449.07,1.456,1.456,0,0,0,.449-.064.883.883,0,0,0,.34-.2.863.863,0,0,0,.215-.332A1.329,1.329,0,0,0,30.2-1.57a1.138,1.138,0,0,0-.086-.461.839.839,0,0,0-.244-.322,1.057,1.057,0,0,0-.381-.189,1.85,1.85,0,0,0-.5-.062h-.516Zm3.773.344.289-2.836h2.914v.668h-2.3l-.172,1.551a2,2,0,0,1,.393-.168,1.8,1.8,0,0,1,.557-.078,1.773,1.773,0,0,1,.705.135,1.476,1.476,0,0,1,.533.383,1.713,1.713,0,0,1,.336.6,2.474,2.474,0,0,1,.117.785,2.454,2.454,0,0,1-.111.756,1.657,1.657,0,0,1-.334.6,1.527,1.527,0,0,1-.561.395,2.035,2.035,0,0,1-.795.143,2.171,2.171,0,0,1-.65-.1,1.6,1.6,0,0,1-.545-.291A1.529,1.529,0,0,1,32.227-.8a1.871,1.871,0,0,1-.187-.7h.684a1.148,1.148,0,0,0,.348.736,1.081,1.081,0,0,0,.742.248A1.1,1.1,0,0,0,34.27-.6a.926.926,0,0,0,.338-.258,1.155,1.155,0,0,0,.211-.408,1.861,1.861,0,0,0,.072-.537,1.609,1.609,0,0,0-.074-.5,1.158,1.158,0,0,0-.219-.4,1.021,1.021,0,0,0-.357-.268,1.154,1.154,0,0,0-.486-.1,1.709,1.709,0,0,0-.316.025,1.09,1.09,0,0,0-.238.072.926.926,0,0,0-.193.115q-.088.068-.186.15ZM37.191-.605a2.524,2.524,0,0,0,.965-.158,1.535,1.535,0,0,0,.6-.422,1.541,1.541,0,0,0,.311-.605,3.339,3.339,0,0,0,.105-.709,1.768,1.768,0,0,1-.541.434,1.468,1.468,0,0,1-.689.164,1.509,1.509,0,0,1-.729-.166,1.508,1.508,0,0,1-.5-.434,1.866,1.866,0,0,1-.293-.607,2.525,2.525,0,0,1-.1-.687,2.532,2.532,0,0,1,.113-.766,1.845,1.845,0,0,1,.334-.627,1.558,1.558,0,0,1,.551-.422,1.785,1.785,0,0,1,.764-.154,1.646,1.646,0,0,1,.832.2,1.674,1.674,0,0,1,.563.521,2.279,2.279,0,0,1,.32.736,3.521,3.521,0,0,1,.1.846V-3.2q0,.371-.037.752a4.065,4.065,0,0,1-.141.738,2.87,2.87,0,0,1-.289.67,1.932,1.932,0,0,1-.486.545,2.313,2.313,0,0,1-.732.367A3.444,3.444,0,0,1,37.191,0h-.07V-.605ZM38.059-2.5a1.094,1.094,0,0,0,.355-.059,1.179,1.179,0,0,0,.316-.164,1.407,1.407,0,0,0,.26-.246,1.265,1.265,0,0,0,.186-.3v-.289a2.384,2.384,0,0,0-.09-.686,1.621,1.621,0,0,0-.24-.5,1.049,1.049,0,0,0-.348-.309.863.863,0,0,0-.412-.105.96.96,0,0,0-.449.1.973.973,0,0,0-.33.279,1.276,1.276,0,0,0-.205.42,1.885,1.885,0,0,0-.07.527,1.954,1.954,0,0,0,.063.494,1.372,1.372,0,0,0,.189.428.982.982,0,0,0,.32.3A.884.884,0,0,0,38.059-2.5Zm3.887-.7h.516a1.482,1.482,0,0,0,.492-.074.991.991,0,0,0,.352-.205.837.837,0,0,0,.211-.309,1.047,1.047,0,0,0,.07-.389,1.032,1.032,0,0,0-.246-.744,1,1,0,0,0-.75-.256,1.23,1.23,0,0,0-.42.068.923.923,0,0,0-.324.2.87.87,0,0,0-.209.309,1.06,1.06,0,0,0-.074.4H40.84a1.511,1.511,0,0,1,.125-.613,1.48,1.48,0,0,1,.355-.5,1.7,1.7,0,0,1,.553-.336,2,2,0,0,1,.717-.123,2.253,2.253,0,0,1,.7.1,1.5,1.5,0,0,1,.541.3,1.366,1.366,0,0,1,.35.5,1.812,1.812,0,0,1,.125.7,1.169,1.169,0,0,1-.053.336,1.366,1.366,0,0,1-.16.344,1.445,1.445,0,0,1-.277.314,1.493,1.493,0,0,1-.4.244,1.518,1.518,0,0,1,.471.236,1.271,1.271,0,0,1,.3.326,1.239,1.239,0,0,1,.16.379,1.7,1.7,0,0,1,.047.391,1.744,1.744,0,0,1-.137.709,1.462,1.462,0,0,1-.379.521,1.679,1.679,0,0,1-.57.322,2.212,2.212,0,0,1-.715.111,2.311,2.311,0,0,1-.7-.1,1.709,1.709,0,0,1-.574-.3,1.443,1.443,0,0,1-.389-.5,1.529,1.529,0,0,1-.143-.674h.727a1.06,1.06,0,0,0,.074.4.872.872,0,0,0,.215.313.961.961,0,0,0,.34.2,1.344,1.344,0,0,0,.449.07,1.456,1.456,0,0,0,.449-.064.883.883,0,0,0,.34-.2.863.863,0,0,0,.215-.332,1.329,1.329,0,0,0,.074-.465,1.138,1.138,0,0,0-.086-.461.839.839,0,0,0-.244-.322,1.057,1.057,0,0,0-.381-.189,1.85,1.85,0,0,0-.5-.062h-.516Zm4.379.969V0h-.75V-5.687h2.1a2.6,2.6,0,0,1,.855.129,1.754,1.754,0,0,1,.623.361,1.534,1.534,0,0,1,.383.551,1.817,1.817,0,0,1,.131.7,1.933,1.933,0,0,1-.131.732,1.4,1.4,0,0,1-.383.541,1.71,1.71,0,0,1-.623.334,2.888,2.888,0,0,1-.855.115Zm0-.613h1.348a1.727,1.727,0,0,0,.564-.082,1.027,1.027,0,0,0,.387-.229.887.887,0,0,0,.221-.348,1.336,1.336,0,0,0,.07-.443,1.3,1.3,0,0,0-.07-.424.967.967,0,0,0-.221-.361,1.08,1.08,0,0,0-.387-.25,1.529,1.529,0,0,0-.564-.094H46.324Zm5.047.613V0h-.75V-5.687h2.1a2.6,2.6,0,0,1,.855.129A1.754,1.754,0,0,1,54.2-5.2a1.534,1.534,0,0,1,.383.551,1.817,1.817,0,0,1,.131.7,1.933,1.933,0,0,1-.131.732,1.4,1.4,0,0,1-.383.541,1.71,1.71,0,0,1-.623.334,2.888,2.888,0,0,1-.855.115Zm0-.613h1.348a1.727,1.727,0,0,0,.564-.082,1.027,1.027,0,0,0,.387-.229.887.887,0,0,0,.221-.348,1.336,1.336,0,0,0,.07-.443,1.3,1.3,0,0,0-.07-.424.967.967,0,0,0-.221-.361,1.08,1.08,0,0,0-.387-.25,1.529,1.529,0,0,0-.564-.094H51.371ZM56.129-.613h3.254V0H55.242V-.562L58.359-5.07H55.293v-.617h3.965v.551Zm4.789,0h3.254V0H60.031V-.562L63.148-5.07H60.082v-.617h3.965v.551ZM65.145,0V-5.687H67a3.163,3.163,0,0,1,.781.088,1.585,1.585,0,0,1,.584.273,1.2,1.2,0,0,1,.367.471,1.673,1.673,0,0,1,.127.684,1.155,1.155,0,0,1-.227.705,1.469,1.469,0,0,1-.617.475,1.39,1.39,0,0,1,.424.2,1.288,1.288,0,0,1,.313.3,1.326,1.326,0,0,1,.193.395,1.565,1.565,0,0,1,.066.457,1.737,1.737,0,0,1-.135.705A1.411,1.411,0,0,1,68.5-.42a1.64,1.64,0,0,1-.594.314A2.658,2.658,0,0,1,67.133,0Zm.75-2.66V-.613h1.238a1.461,1.461,0,0,0,.479-.072,1.012,1.012,0,0,0,.354-.2.856.856,0,0,0,.221-.32,1.127,1.127,0,0,0,.076-.424,1.367,1.367,0,0,0-.062-.426.792.792,0,0,0-.2-.324.9.9,0,0,0-.342-.205,1.5,1.5,0,0,0-.492-.072Zm0-.6h1.133a1.47,1.47,0,0,0,.441-.062,1.006,1.006,0,0,0,.342-.18.8.8,0,0,0,.221-.287.911.911,0,0,0,.078-.385.81.81,0,0,0-.273-.682A1.345,1.345,0,0,0,67-5.07H65.895Zm4.375.41.289-2.836h2.914v.668h-2.3L71-3.469a2,2,0,0,1,.393-.168,1.8,1.8,0,0,1,.557-.078,1.773,1.773,0,0,1,.705.135,1.476,1.476,0,0,1,.533.383,1.713,1.713,0,0,1,.336.6,2.474,2.474,0,0,1,.117.785,2.454,2.454,0,0,1-.111.756,1.657,1.657,0,0,1-.334.6,1.527,1.527,0,0,1-.561.395,2.035,2.035,0,0,1-.795.143,2.171,2.171,0,0,1-.65-.1,1.6,1.6,0,0,1-.545-.291A1.529,1.529,0,0,1,70.254-.8a1.871,1.871,0,0,1-.187-.7h.684A1.148,1.148,0,0,0,71.1-.76a1.081,1.081,0,0,0,.742.248A1.1,1.1,0,0,0,72.3-.6a.926.926,0,0,0,.338-.258,1.155,1.155,0,0,0,.211-.408,1.861,1.861,0,0,0,.072-.537,1.61,1.61,0,0,0-.074-.5,1.158,1.158,0,0,0-.219-.4,1.021,1.021,0,0,0-.357-.268,1.154,1.154,0,0,0-.486-.1,1.709,1.709,0,0,0-.316.025,1.09,1.09,0,0,0-.238.072.926.926,0,0,0-.193.115q-.088.068-.186.15ZM76.8,0h-.727V-4.816l-1.457.535v-.656l2.07-.777H76.8Zm2.3,0V-5.687h1.605a2.693,2.693,0,0,1,1.023.188,2.24,2.24,0,0,1,.791.535,2.412,2.412,0,0,1,.512.844,3.22,3.22,0,0,1,.182,1.113v.336a3.22,3.22,0,0,1-.182,1.113,2.362,2.362,0,0,1-.516.842,2.24,2.24,0,0,1-.811.531A2.918,2.918,0,0,1,80.648,0Zm.75-5.07V-.613h.789a2.019,2.019,0,0,0,.8-.146,1.534,1.534,0,0,0,.574-.416,1.781,1.781,0,0,0,.346-.648,2.908,2.908,0,0,0,.115-.848V-3.02a2.956,2.956,0,0,0-.117-.869,1.776,1.776,0,0,0-.344-.645,1.461,1.461,0,0,0-.555-.4,1.936,1.936,0,0,0-.75-.137Zm8.5-.617v3.852a1.965,1.965,0,0,1-.168.84,1.72,1.72,0,0,1-.451.6,1.907,1.907,0,0,1-.658.357,2.59,2.59,0,0,1-.789.119,2.656,2.656,0,0,1-.809-.119,1.825,1.825,0,0,1-.65-.357A1.663,1.663,0,0,1,84.4-1a2.07,2.07,0,0,1-.158-.84V-5.687h.742v3.852a1.575,1.575,0,0,0,.1.576,1.1,1.1,0,0,0,.268.406,1.077,1.077,0,0,0,.412.24,1.718,1.718,0,0,0,.533.078,1.75,1.75,0,0,0,.539-.078,1.075,1.075,0,0,0,.414-.24,1.081,1.081,0,0,0,.266-.406,1.605,1.605,0,0,0,.094-.576V-5.687Zm2.152,0,1.859,4.641L94.23-5.687H95.2V0h-.75V-2.215l.07-2.391L92.656,0h-.574L90.219-4.594l.074,2.379V0h-.75V-5.687Z" transform="translate(-17272.502 2045)" fill="#0f6daa"/>
    <path id="Path_726" data-name="Path 726" d="M1.465,0H.715V-5.687h.75ZM3.406-4.227,3.43-3.7a1.634,1.634,0,0,1,.547-.447A1.569,1.569,0,0,1,4.7-4.3a1.747,1.747,0,0,1,.559.084,1.027,1.027,0,0,1,.426.27,1.248,1.248,0,0,1,.271.477,2.273,2.273,0,0,1,.1.705V0H5.324V-2.777A1.41,1.41,0,0,0,5.27-3.2a.693.693,0,0,0-.162-.283.639.639,0,0,0-.266-.16,1.2,1.2,0,0,0-.365-.051,1.043,1.043,0,0,0-.617.188,1.273,1.273,0,0,0-.414.492V0H2.723V-4.227ZM8.832-.512A1.088,1.088,0,0,0,9.2-.574,1.042,1.042,0,0,0,9.51-.746a.892.892,0,0,0,.219-.26.808.808,0,0,0,.1-.326h.684a1.262,1.262,0,0,1-.154.537,1.571,1.571,0,0,1-.365.449,1.8,1.8,0,0,1-.525.309,1.749,1.749,0,0,1-.635.115A1.9,1.9,0,0,1,8-.092a1.684,1.684,0,0,1-.588-.459,1.943,1.943,0,0,1-.35-.672,2.791,2.791,0,0,1-.115-.809V-2.2A2.791,2.791,0,0,1,7.064-3a1.943,1.943,0,0,1,.35-.672A1.689,1.689,0,0,1,8-4.135a1.884,1.884,0,0,1,.828-.17,1.853,1.853,0,0,1,.674.117,1.617,1.617,0,0,1,.523.322,1.473,1.473,0,0,1,.346.486,1.676,1.676,0,0,1,.141.605H9.828a1.1,1.1,0,0,0-.092-.365.968.968,0,0,0-.205-.3.957.957,0,0,0-.307-.2,1.02,1.02,0,0,0-.4-.074,1.065,1.065,0,0,0-.557.133,1.05,1.05,0,0,0-.355.35,1.464,1.464,0,0,0-.189.488,2.753,2.753,0,0,0-.055.545v.164a2.792,2.792,0,0,0,.055.553,1.467,1.467,0,0,0,.188.486,1.033,1.033,0,0,0,.355.348A1.084,1.084,0,0,0,8.832-.512Zm2.3-1.641a2.613,2.613,0,0,1,.135-.854,2.062,2.062,0,0,1,.383-.682,1.752,1.752,0,0,1,.6-.453,1.88,1.88,0,0,1,.8-.164,1.912,1.912,0,0,1,.807.164,1.767,1.767,0,0,1,.607.453,2.017,2.017,0,0,1,.383.682,2.648,2.648,0,0,1,.133.854v.086a2.648,2.648,0,0,1-.133.854,2,2,0,0,1-.383.68,1.761,1.761,0,0,1-.605.449,1.909,1.909,0,0,1-.8.162,1.909,1.909,0,0,1-.8-.162,1.761,1.761,0,0,1-.605-.449,2.022,2.022,0,0,1-.385-.68,2.613,2.613,0,0,1-.135-.854Zm.727.086a2.334,2.334,0,0,0,.074.6,1.52,1.52,0,0,0,.225.494,1.122,1.122,0,0,0,.375.338,1.063,1.063,0,0,0,.525.125,1.066,1.066,0,0,0,.523-.125,1.1,1.1,0,0,0,.375-.338,1.576,1.576,0,0,0,.225-.494,2.278,2.278,0,0,0,.076-.6v-.086a2.284,2.284,0,0,0-.076-.6,1.548,1.548,0,0,0-.227-.5,1.136,1.136,0,0,0-.377-.34,1.061,1.061,0,0,0-.527-.127,1.031,1.031,0,0,0-.52.127,1.149,1.149,0,0,0-.373.34,1.518,1.518,0,0,0-.225.5,2.341,2.341,0,0,0-.074.6Zm4.707-2.16.02.469a1.535,1.535,0,0,1,.529-.4A1.7,1.7,0,0,1,17.84-4.3a1.559,1.559,0,0,1,.725.162,1.076,1.076,0,0,1,.482.518,1.6,1.6,0,0,1,.549-.492,1.621,1.621,0,0,1,.8-.187,1.888,1.888,0,0,1,.6.088,1.089,1.089,0,0,1,.443.275,1.208,1.208,0,0,1,.275.477,2.239,2.239,0,0,1,.094.688V0h-.723V-2.781a1.3,1.3,0,0,0-.064-.441A.689.689,0,0,0,20.84-3.5a.648.648,0,0,0-.285-.146,1.565,1.565,0,0,0-.371-.041,1.035,1.035,0,0,0-.395.07.919.919,0,0,0-.295.189.894.894,0,0,0-.2.281,1.139,1.139,0,0,0-.092.346V0H18.48V-2.777a1.212,1.212,0,0,0-.064-.42.724.724,0,0,0-.182-.283.714.714,0,0,0-.283-.16,1.273,1.273,0,0,0-.373-.051,1.044,1.044,0,0,0-.621.168,1.036,1.036,0,0,0-.352.438V0h-.723V-4.227ZM23.684,0h-.723V-4.227h.723ZM22.9-5.348a.431.431,0,0,1,.107-.3.4.4,0,0,1,.318-.121.41.41,0,0,1,.32.121.427.427,0,0,1,.109.3.413.413,0,0,1-.109.293.417.417,0,0,1-.32.117.411.411,0,0,1-.318-.117A.417.417,0,0,1,22.9-5.348Zm2.621,1.121.023.531a1.634,1.634,0,0,1,.547-.447,1.569,1.569,0,0,1,.719-.162,1.747,1.747,0,0,1,.559.084,1.027,1.027,0,0,1,.426.27,1.248,1.248,0,0,1,.271.477,2.273,2.273,0,0,1,.1.705V0h-.723V-2.777a1.41,1.41,0,0,0-.055-.42.693.693,0,0,0-.162-.283.639.639,0,0,0-.266-.16,1.2,1.2,0,0,0-.365-.051,1.043,1.043,0,0,0-.617.188,1.273,1.273,0,0,0-.414.492V0H24.84V-4.227Zm3.559,2.078a3.151,3.151,0,0,1,.115-.881,2.044,2.044,0,0,1,.332-.68,1.52,1.52,0,0,1,.525-.439,1.517,1.517,0,0,1,.7-.156,1.618,1.618,0,0,1,.7.141,1.416,1.416,0,0,1,.508.406l.035-.469h.66V-.09a1.986,1.986,0,0,1-.131.744,1.526,1.526,0,0,1-.369.551,1.6,1.6,0,0,1-.566.342,2.148,2.148,0,0,1-.727.117,2.225,2.225,0,0,1-.377-.037,2.266,2.266,0,0,1-.43-.121,1.928,1.928,0,0,1-.416-.225A1.349,1.349,0,0,1,29.3.934L29.672.5a1.694,1.694,0,0,0,.273.273,1.483,1.483,0,0,0,.283.176,1.276,1.276,0,0,0,.289.1,1.481,1.481,0,0,0,.291.029A1.392,1.392,0,0,0,31.27,1a.933.933,0,0,0,.354-.217.962.962,0,0,0,.225-.354,1.386,1.386,0,0,0,.078-.486V-.422a1.422,1.422,0,0,1-.5.371,1.671,1.671,0,0,1-.682.129,1.458,1.458,0,0,1-.686-.16,1.55,1.55,0,0,1-.523-.447,2.125,2.125,0,0,1-.334-.68,2.987,2.987,0,0,1-.117-.857Zm.727.082a2.644,2.644,0,0,0,.064.6,1.5,1.5,0,0,0,.2.486,1,1,0,0,0,.346.328,1,1,0,0,0,.5.121,1.187,1.187,0,0,0,.346-.047,1.043,1.043,0,0,0,.277-.129,1,1,0,0,0,.217-.2,1.381,1.381,0,0,0,.164-.25v-1.93a1.449,1.449,0,0,0-.164-.24,1.025,1.025,0,0,0-.217-.193,1.006,1.006,0,0,0-.275-.127,1.2,1.2,0,0,0-.34-.045.991.991,0,0,0-.508.123,1.027,1.027,0,0,0-.348.334,1.523,1.523,0,0,0-.2.49,2.644,2.644,0,0,0-.064.6Z" transform="translate(-17163.502 2045)" fill="#0f6daa"/>
    <path id="Path_727" data-name="Path 727" d="M4.844-1.8a2.626,2.626,0,0,1-.2.748,1.808,1.808,0,0,1-.416.6,1.884,1.884,0,0,1-.648.395,2.558,2.558,0,0,1-.895.143,2.173,2.173,0,0,1-.914-.187,1.984,1.984,0,0,1-.7-.533,2.457,2.457,0,0,1-.449-.83A3.474,3.474,0,0,1,.465-2.555v-.57a3.453,3.453,0,0,1,.16-1.084,2.424,2.424,0,0,1,.457-.832A2.028,2.028,0,0,1,1.8-5.576a2.306,2.306,0,0,1,.951-.189,2.393,2.393,0,0,1,.852.141,1.818,1.818,0,0,1,.631.393,1.866,1.866,0,0,1,.412.6,2.572,2.572,0,0,1,.2.771H4.09a2.553,2.553,0,0,0-.133-.535A1.2,1.2,0,0,0,3.709-4.8a1.043,1.043,0,0,0-.393-.258,1.573,1.573,0,0,0-.562-.09A1.446,1.446,0,0,0,2.088-5a1.349,1.349,0,0,0-.48.41,1.863,1.863,0,0,0-.291.637,3.244,3.244,0,0,0-.1.822v.578a3.366,3.366,0,0,0,.088.785,2.031,2.031,0,0,0,.268.643,1.323,1.323,0,0,0,.457.434,1.3,1.3,0,0,0,.656.158,1.852,1.852,0,0,0,.605-.086A1.062,1.062,0,0,0,3.7-.869a1.115,1.115,0,0,0,.252-.4A2.671,2.671,0,0,0,4.09-1.8Zm3.109-.5H6.617V0H5.863V-5.687H7.746a2.229,2.229,0,0,1,1.479.438,1.574,1.574,0,0,1,.518,1.273,1.531,1.531,0,0,1-.287.926,1.714,1.714,0,0,1-.8.59L9.992-.047V0h-.8ZM6.617-2.914H7.77A1.543,1.543,0,0,0,8.3-3a1.109,1.109,0,0,0,.381-.227.913.913,0,0,0,.229-.336,1.125,1.125,0,0,0,.076-.416,1.315,1.315,0,0,0-.072-.447.879.879,0,0,0-.225-.346A1.022,1.022,0,0,0,8.3-4.992a1.774,1.774,0,0,0-.559-.078H6.617ZM10.793,0V-5.687H12.4a2.693,2.693,0,0,1,1.023.188,2.24,2.24,0,0,1,.791.535,2.412,2.412,0,0,1,.512.844,3.22,3.22,0,0,1,.182,1.113v.336a3.22,3.22,0,0,1-.182,1.113,2.362,2.362,0,0,1-.516.842,2.24,2.24,0,0,1-.811.531A2.918,2.918,0,0,1,12.332,0Zm.75-5.07V-.613h.789a2.019,2.019,0,0,0,.8-.146,1.534,1.534,0,0,0,.574-.416,1.781,1.781,0,0,0,.346-.648,2.908,2.908,0,0,0,.115-.848V-3.02a2.956,2.956,0,0,0-.117-.869,1.776,1.776,0,0,0-.344-.645,1.461,1.461,0,0,0-.555-.4,1.936,1.936,0,0,0-.75-.137Z" transform="translate(-17114.502 2045)" fill="#0f6daa"/>
    <path id="Path_728" data-name="Path 728" d="M1.887-1.793,2-1.043l.16-.676L3.281-5.687h.633l1.1,3.969.156.688L5.289-1.8l.883-3.891h.754L5.547,0H4.863L3.691-4.145,3.6-4.578l-.09.434L2.3,0H1.613L.238-5.687h.75ZM8.43,0H7.707V-4.227H8.43ZM7.648-5.348a.431.431,0,0,1,.107-.3.4.4,0,0,1,.318-.121.41.41,0,0,1,.32.121.427.427,0,0,1,.109.3.413.413,0,0,1-.109.293.417.417,0,0,1-.32.117.411.411,0,0,1-.318-.117A.417.417,0,0,1,7.648-5.348ZM10.371,0H9.648V-6h.723Zm1.941,0H11.59V-6h.723Zm1.941,0h-.723V-4.227h.723Zm-.781-5.348a.431.431,0,0,1,.107-.3.4.4,0,0,1,.318-.121.41.41,0,0,1,.32.121.427.427,0,0,1,.109.3.413.413,0,0,1-.109.293.417.417,0,0,1-.32.117.411.411,0,0,1-.318-.117A.417.417,0,0,1,13.473-5.348ZM18.02,0a.783.783,0,0,1-.062-.2q-.023-.119-.039-.248a1.925,1.925,0,0,1-.229.2,1.637,1.637,0,0,1-.277.168,1.579,1.579,0,0,1-.326.113,1.629,1.629,0,0,1-.371.041,1.682,1.682,0,0,1-.588-.1,1.369,1.369,0,0,1-.449-.266,1.17,1.17,0,0,1-.287-.4,1.193,1.193,0,0,1-.1-.49,1.3,1.3,0,0,1,.133-.6,1.2,1.2,0,0,1,.381-.436,1.8,1.8,0,0,1,.6-.266,3.173,3.173,0,0,1,.785-.09h.719v-.332a.812.812,0,0,0-.227-.6.911.911,0,0,0-.668-.225,1.194,1.194,0,0,0-.371.055.946.946,0,0,0-.287.146.683.683,0,0,0-.186.213.521.521,0,0,0-.066.254h-.727a.943.943,0,0,1,.119-.449,1.318,1.318,0,0,1,.338-.4,1.788,1.788,0,0,1,.529-.289,2.044,2.044,0,0,1,.693-.111,2.187,2.187,0,0,1,.635.088,1.355,1.355,0,0,1,.5.266,1.228,1.228,0,0,1,.324.443,1.528,1.528,0,0,1,.117.621V-.922a2.911,2.911,0,0,0,.037.451,1.7,1.7,0,0,0,.111.408V0Zm-1.2-.551a1.2,1.2,0,0,0,.367-.055A1.371,1.371,0,0,0,17.5-.748a1.163,1.163,0,0,0,.244-.2.985.985,0,0,0,.162-.234v-.867h-.6a1.94,1.94,0,0,0-.957.193.631.631,0,0,0-.336.584.792.792,0,0,0,.051.285.6.6,0,0,0,.154.229.767.767,0,0,0,.254.152A.989.989,0,0,0,16.82-.551Zm3.621-3.676.02.469a1.535,1.535,0,0,1,.529-.4,1.7,1.7,0,0,1,.725-.145,1.559,1.559,0,0,1,.725.162,1.076,1.076,0,0,1,.482.518,1.6,1.6,0,0,1,.549-.492,1.621,1.621,0,0,1,.8-.187,1.888,1.888,0,0,1,.6.088,1.089,1.089,0,0,1,.443.275,1.208,1.208,0,0,1,.275.477,2.239,2.239,0,0,1,.094.688V0h-.723V-2.781a1.3,1.3,0,0,0-.064-.441.689.689,0,0,0-.182-.281.648.648,0,0,0-.285-.146,1.565,1.565,0,0,0-.371-.041,1.035,1.035,0,0,0-.395.07.919.919,0,0,0-.295.189.894.894,0,0,0-.2.281,1.139,1.139,0,0,0-.092.346V0h-.727V-2.777a1.212,1.212,0,0,0-.064-.42.724.724,0,0,0-.182-.283.714.714,0,0,0-.283-.16,1.273,1.273,0,0,0-.373-.051,1.044,1.044,0,0,0-.621.168,1.036,1.036,0,0,0-.352.438V0h-.723V-4.227ZM28.867,0V-5.687h1.605A2.693,2.693,0,0,1,31.5-5.5a2.24,2.24,0,0,1,.791.535,2.412,2.412,0,0,1,.512.844,3.22,3.22,0,0,1,.182,1.113v.336A3.22,3.22,0,0,1,32.8-1.559a2.362,2.362,0,0,1-.516.842,2.24,2.24,0,0,1-.811.531A2.918,2.918,0,0,1,30.406,0Zm.75-5.07V-.613h.789a2.019,2.019,0,0,0,.8-.146,1.534,1.534,0,0,0,.574-.416,1.781,1.781,0,0,0,.346-.648,2.908,2.908,0,0,0,.115-.848V-3.02a2.956,2.956,0,0,0-.117-.869,1.776,1.776,0,0,0-.344-.645,1.461,1.461,0,0,0-.555-.4,1.936,1.936,0,0,0-.75-.137Zm5.766,4.012.984-3.168h.773L35.441.652a3.312,3.312,0,0,1-.152.34,1.457,1.457,0,0,1-.244.342,1.319,1.319,0,0,1-.361.266,1.08,1.08,0,0,1-.5.107.783.783,0,0,1-.1-.008l-.117-.018-.109-.02q-.051-.01-.078-.018V1.059a.263.263,0,0,0,.043.006l.057,0,.055,0,.041,0a1.344,1.344,0,0,0,.324-.035.71.71,0,0,0,.25-.115A.719.719,0,0,0,34.74.711a1.7,1.7,0,0,0,.146-.328l.16-.43-1.508-4.18h.789ZM39.488.078a2.018,2.018,0,0,1-.8-.152A1.783,1.783,0,0,1,38.078-.5a1.873,1.873,0,0,1-.391-.646,2.378,2.378,0,0,1-.137-.82v-.164a2.582,2.582,0,0,1,.154-.922,2.069,2.069,0,0,1,.412-.684,1.782,1.782,0,0,1,.59-.424A1.7,1.7,0,0,1,39.4-4.3a1.783,1.783,0,0,1,.781.158,1.482,1.482,0,0,1,.541.436,1.852,1.852,0,0,1,.314.656,3.176,3.176,0,0,1,.1.824v.324H38.273a1.81,1.81,0,0,0,.1.547,1.334,1.334,0,0,0,.25.441,1.188,1.188,0,0,0,.391.3,1.184,1.184,0,0,0,.518.109,1.259,1.259,0,0,0,.648-.156,1.629,1.629,0,0,0,.465-.414l.441.344a1.93,1.93,0,0,1-.246.3,1.679,1.679,0,0,1-.338.262,1.778,1.778,0,0,1-.443.184A2.15,2.15,0,0,1,39.488.078ZM39.4-3.711a1,1,0,0,0-.4.08,1,1,0,0,0-.328.232,1.251,1.251,0,0,0-.24.379,1.921,1.921,0,0,0-.131.52h2.117v-.055a2,2,0,0,0-.068-.418,1.135,1.135,0,0,0-.176-.371.906.906,0,0,0-.307-.266A.966.966,0,0,0,39.4-3.711Zm4.617.133q-.094-.016-.174-.021t-.182-.006a1.05,1.05,0,0,0-.611.164A1,1,0,0,0,42.7-3V0h-.723V-4.227h.7l.012.488a1.272,1.272,0,0,1,.41-.414,1.114,1.114,0,0,1,.6-.152,1.068,1.068,0,0,1,.18.018.57.57,0,0,1,.141.037Z" transform="translate(-17063.502 2045)" fill="#0f6daa"/>
    <path id="Path_729" data-name="Path 729" d="M-51.055,0h-.727V-4.816l-1.457.535v-.656l2.07-.777h.113Zm5.844,0h-3.727V-.52l1.863-2.07q.258-.285.428-.5a3.086,3.086,0,0,0,.27-.4,1.428,1.428,0,0,0,.139-.34,1.339,1.339,0,0,0,.039-.322,1.168,1.168,0,0,0-.066-.4.942.942,0,0,0-.191-.322.9.9,0,0,0-.309-.217,1.046,1.046,0,0,0-.422-.08,1.337,1.337,0,0,0-.5.086.963.963,0,0,0-.354.238.987.987,0,0,0-.211.365,1.494,1.494,0,0,0-.07.471h-.723a1.934,1.934,0,0,1,.119-.68,1.565,1.565,0,0,1,.354-.559,1.673,1.673,0,0,1,.582-.377,2.161,2.161,0,0,1,.8-.139,2.211,2.211,0,0,1,.721.109,1.523,1.523,0,0,1,.539.311,1.343,1.343,0,0,1,.338.482,1.6,1.6,0,0,1,.117.621,1.564,1.564,0,0,1-.086.5,2.86,2.86,0,0,1-.23.506,4.139,4.139,0,0,1-.34.5q-.2.248-.41.486L-48.066-.59h2.855Zm4.332-2.426A4.735,4.735,0,0,1-41-1.248a2.091,2.091,0,0,1-.357.773,1.32,1.32,0,0,1-.562.424,2.032,2.032,0,0,1-.744.129,2.036,2.036,0,0,1-.742-.129,1.331,1.331,0,0,1-.566-.424,2.115,2.115,0,0,1-.363-.773,4.6,4.6,0,0,1-.129-1.178v-.867a4.594,4.594,0,0,1,.127-1.172,2.034,2.034,0,0,1,.361-.762,1.321,1.321,0,0,1,.564-.414,2.077,2.077,0,0,1,.74-.125,2.1,2.1,0,0,1,.746.125,1.318,1.318,0,0,1,.566.414A2.013,2.013,0,0,1-41-4.465a4.663,4.663,0,0,1,.125,1.172Zm-.723-.988a4.166,4.166,0,0,0-.068-.816,1.563,1.563,0,0,0-.205-.545.814.814,0,0,0-.338-.3,1.084,1.084,0,0,0-.463-.094,1.075,1.075,0,0,0-.459.094.8.8,0,0,0-.336.3,1.616,1.616,0,0,0-.205.545,4.053,4.053,0,0,0-.07.816v1.1a4.12,4.12,0,0,0,.07.818,1.676,1.676,0,0,0,.209.561.866.866,0,0,0,.34.32,1,1,0,0,0,.459.1,1.01,1.01,0,0,0,.465-.1.844.844,0,0,0,.334-.32,1.678,1.678,0,0,0,.2-.561,4.355,4.355,0,0,0,.066-.818Zm2.438,2.809A2.524,2.524,0,0,0-38.2-.764a1.535,1.535,0,0,0,.6-.422,1.541,1.541,0,0,0,.311-.605,3.339,3.339,0,0,0,.105-.709,1.768,1.768,0,0,1-.541.434,1.468,1.468,0,0,1-.689.164,1.509,1.509,0,0,1-.729-.166,1.508,1.508,0,0,1-.5-.434,1.866,1.866,0,0,1-.293-.607,2.525,2.525,0,0,1-.1-.687,2.532,2.532,0,0,1,.113-.766,1.845,1.845,0,0,1,.334-.627,1.558,1.558,0,0,1,.551-.422,1.785,1.785,0,0,1,.764-.154,1.646,1.646,0,0,1,.832.2,1.674,1.674,0,0,1,.563.521,2.279,2.279,0,0,1,.32.736,3.521,3.521,0,0,1,.1.846V-3.2q0,.371-.037.752a4.065,4.065,0,0,1-.141.738,2.87,2.87,0,0,1-.289.67A1.932,1.932,0,0,1-37.41-.5a2.313,2.313,0,0,1-.732.367A3.444,3.444,0,0,1-39.164,0h-.07V-.605ZM-38.3-2.5a1.094,1.094,0,0,0,.355-.059,1.179,1.179,0,0,0,.316-.164,1.407,1.407,0,0,0,.26-.246,1.265,1.265,0,0,0,.186-.3v-.289a2.384,2.384,0,0,0-.09-.686,1.621,1.621,0,0,0-.24-.5,1.049,1.049,0,0,0-.348-.309.863.863,0,0,0-.412-.105.96.96,0,0,0-.449.1.973.973,0,0,0-.33.279,1.276,1.276,0,0,0-.205.42,1.885,1.885,0,0,0-.07.527,1.954,1.954,0,0,0,.063.494,1.372,1.372,0,0,0,.189.428.982.982,0,0,0,.32.3A.884.884,0,0,0-38.3-2.5Zm5.887.59h.789v.59h-.789V0h-.727V-1.32h-2.59v-.426l2.547-3.941h.77Zm-2.5,0h1.77V-4.7l-.086.156ZM-29.918-3.2h.516a1.482,1.482,0,0,0,.492-.074.991.991,0,0,0,.352-.205.837.837,0,0,0,.211-.309,1.047,1.047,0,0,0,.07-.389,1.032,1.032,0,0,0-.246-.744,1,1,0,0,0-.75-.256,1.23,1.23,0,0,0-.42.068.923.923,0,0,0-.324.2.869.869,0,0,0-.209.309,1.06,1.06,0,0,0-.074.4h-.723a1.511,1.511,0,0,1,.125-.613,1.48,1.48,0,0,1,.355-.5,1.7,1.7,0,0,1,.553-.336,2,2,0,0,1,.717-.123,2.253,2.253,0,0,1,.7.1,1.5,1.5,0,0,1,.541.3,1.366,1.366,0,0,1,.35.5,1.812,1.812,0,0,1,.125.7,1.169,1.169,0,0,1-.053.336,1.366,1.366,0,0,1-.16.344,1.445,1.445,0,0,1-.277.314,1.493,1.493,0,0,1-.4.244,1.518,1.518,0,0,1,.471.236,1.271,1.271,0,0,1,.3.326,1.239,1.239,0,0,1,.16.379,1.7,1.7,0,0,1,.047.391,1.744,1.744,0,0,1-.137.709,1.462,1.462,0,0,1-.379.521,1.679,1.679,0,0,1-.57.322,2.212,2.212,0,0,1-.715.111,2.311,2.311,0,0,1-.7-.1,1.709,1.709,0,0,1-.574-.3,1.443,1.443,0,0,1-.389-.5,1.529,1.529,0,0,1-.143-.674h.727a1.06,1.06,0,0,0,.074.4.872.872,0,0,0,.215.313.961.961,0,0,0,.34.2,1.344,1.344,0,0,0,.449.07,1.456,1.456,0,0,0,.449-.064.883.883,0,0,0,.34-.2.863.863,0,0,0,.215-.332,1.329,1.329,0,0,0,.074-.465,1.138,1.138,0,0,0-.086-.461.839.839,0,0,0-.244-.322,1.057,1.057,0,0,0-.381-.189,1.85,1.85,0,0,0-.5-.062h-.516Zm6.273-2.5v.613h-.066a2.231,2.231,0,0,0-.883.156,1.69,1.69,0,0,0-.6.416,1.782,1.782,0,0,0-.355.6,2.742,2.742,0,0,0-.152.7,1.394,1.394,0,0,1,.549-.393,1.843,1.843,0,0,1,.678-.123,1.548,1.548,0,0,1,.732.162,1.506,1.506,0,0,1,.506.426,1.8,1.8,0,0,1,.295.6,2.5,2.5,0,0,1,.1.688,2.476,2.476,0,0,1-.113.76,1.751,1.751,0,0,1-.336.613,1.583,1.583,0,0,1-.551.41,1.811,1.811,0,0,1-.762.15,1.627,1.627,0,0,1-.8-.191,1.771,1.771,0,0,1-.572-.5,2.211,2.211,0,0,1-.342-.7,2.806,2.806,0,0,1-.113-.785v-.34a6.5,6.5,0,0,1,.049-.795,3.865,3.865,0,0,1,.17-.758,2.96,2.96,0,0,1,.322-.672,2.107,2.107,0,0,1,.5-.539,2.322,2.322,0,0,1,.719-.357,3.259,3.259,0,0,1,.963-.129Zm-.949,2.563a1.12,1.12,0,0,0-.367.061,1.238,1.238,0,0,0-.322.166,1.258,1.258,0,0,0-.258.248,1.094,1.094,0,0,0-.17.307v.266a2.243,2.243,0,0,0,.092.674,1.534,1.534,0,0,0,.246.488,1.061,1.061,0,0,0,.354.3.9.9,0,0,0,.414.1,1,1,0,0,0,.445-.1.931.931,0,0,0,.33-.27,1.236,1.236,0,0,0,.205-.412,1.844,1.844,0,0,0,.07-.523,1.855,1.855,0,0,0-.064-.49,1.311,1.311,0,0,0-.193-.418.979.979,0,0,0-.324-.291A.92.92,0,0,0-24.594-3.129Zm3.656-.066h.516a1.482,1.482,0,0,0,.492-.074.991.991,0,0,0,.352-.205.837.837,0,0,0,.211-.309,1.047,1.047,0,0,0,.07-.389,1.032,1.032,0,0,0-.246-.744,1,1,0,0,0-.75-.256,1.23,1.23,0,0,0-.42.068.923.923,0,0,0-.324.2.869.869,0,0,0-.209.309,1.06,1.06,0,0,0-.074.4h-.723a1.511,1.511,0,0,1,.125-.613,1.48,1.48,0,0,1,.355-.5,1.7,1.7,0,0,1,.553-.336,2,2,0,0,1,.717-.123,2.253,2.253,0,0,1,.7.1,1.5,1.5,0,0,1,.541.3,1.366,1.366,0,0,1,.35.5,1.812,1.812,0,0,1,.125.7,1.169,1.169,0,0,1-.053.336,1.366,1.366,0,0,1-.16.344,1.445,1.445,0,0,1-.277.314,1.493,1.493,0,0,1-.4.244A1.518,1.518,0,0,1-19-2.682a1.271,1.271,0,0,1,.3.326,1.239,1.239,0,0,1,.16.379,1.7,1.7,0,0,1,.047.391,1.744,1.744,0,0,1-.137.709A1.462,1.462,0,0,1-19-.355a1.679,1.679,0,0,1-.57.322,2.212,2.212,0,0,1-.715.111,2.311,2.311,0,0,1-.7-.1,1.709,1.709,0,0,1-.574-.3,1.443,1.443,0,0,1-.389-.5,1.529,1.529,0,0,1-.143-.674h.727a1.06,1.06,0,0,0,.074.4.872.872,0,0,0,.215.313.961.961,0,0,0,.34.2,1.344,1.344,0,0,0,.449.07,1.456,1.456,0,0,0,.449-.064.883.883,0,0,0,.34-.2.863.863,0,0,0,.215-.332,1.329,1.329,0,0,0,.074-.465,1.138,1.138,0,0,0-.086-.461.839.839,0,0,0-.244-.322,1.057,1.057,0,0,0-.381-.189,1.85,1.85,0,0,0-.5-.062h-.516Zm7.113-2.086L-16.18,0h-.758l2.348-5.094h-3.078v-.594h3.844Zm4.492,0L-11.687,0h-.758L-10.1-5.094h-3.078v-.594h3.844ZM-7.461-3.2h.516a1.482,1.482,0,0,0,.492-.074A.991.991,0,0,0-6.1-3.475a.837.837,0,0,0,.211-.309,1.047,1.047,0,0,0,.07-.389,1.032,1.032,0,0,0-.246-.744,1,1,0,0,0-.75-.256,1.23,1.23,0,0,0-.42.068.923.923,0,0,0-.324.2A.869.869,0,0,0-7.77-4.6a1.06,1.06,0,0,0-.074.4h-.723a1.511,1.511,0,0,1,.125-.613,1.48,1.48,0,0,1,.355-.5,1.7,1.7,0,0,1,.553-.336,2,2,0,0,1,.717-.123,2.253,2.253,0,0,1,.7.1,1.5,1.5,0,0,1,.541.3,1.366,1.366,0,0,1,.35.5,1.812,1.812,0,0,1,.125.7,1.169,1.169,0,0,1-.053.336,1.366,1.366,0,0,1-.16.344,1.445,1.445,0,0,1-.277.314,1.493,1.493,0,0,1-.4.244,1.518,1.518,0,0,1,.471.236,1.271,1.271,0,0,1,.3.326,1.239,1.239,0,0,1,.16.379,1.7,1.7,0,0,1,.047.391,1.744,1.744,0,0,1-.137.709,1.462,1.462,0,0,1-.379.521,1.679,1.679,0,0,1-.57.322,2.212,2.212,0,0,1-.715.111,2.311,2.311,0,0,1-.7-.1,1.709,1.709,0,0,1-.574-.3,1.443,1.443,0,0,1-.389-.5A1.529,1.529,0,0,1-8.617-1.5h.727a1.06,1.06,0,0,0,.074.4A.872.872,0,0,0-7.6-.783a.961.961,0,0,0,.34.2,1.344,1.344,0,0,0,.449.07,1.456,1.456,0,0,0,.449-.064.883.883,0,0,0,.34-.2.863.863,0,0,0,.215-.332,1.329,1.329,0,0,0,.074-.465,1.138,1.138,0,0,0-.086-.461.839.839,0,0,0-.244-.322,1.057,1.057,0,0,0-.381-.189,1.85,1.85,0,0,0-.5-.062h-.516ZM-.57-4.2a1.321,1.321,0,0,1-.225.758,1.528,1.528,0,0,1-.607.52,1.74,1.74,0,0,1,.4.234,1.565,1.565,0,0,1,.3.318,1.415,1.415,0,0,1,.2.389,1.448,1.448,0,0,1,.068.449,1.635,1.635,0,0,1-.139.691,1.436,1.436,0,0,1-.383.506,1.674,1.674,0,0,1-.574.311,2.33,2.33,0,0,1-.713.105,2.349,2.349,0,0,1-.715-.105,1.65,1.65,0,0,1-.574-.311,1.447,1.447,0,0,1-.381-.506,1.635,1.635,0,0,1-.139-.691,1.488,1.488,0,0,1,.066-.449A1.467,1.467,0,0,1-3.8-2.375a1.48,1.48,0,0,1,.3-.32,1.7,1.7,0,0,1,.395-.234,1.491,1.491,0,0,1-.6-.52A1.34,1.34,0,0,1-3.922-4.2,1.663,1.663,0,0,1-3.8-4.865a1.377,1.377,0,0,1,.348-.49,1.526,1.526,0,0,1,.531-.3,2.065,2.065,0,0,1,.672-.105,2.048,2.048,0,0,1,.67.105,1.55,1.55,0,0,1,.531.3,1.365,1.365,0,0,1,.35.49A1.663,1.663,0,0,1-.57-4.2Zm-.59,2.652a1.163,1.163,0,0,0-.08-.437,1,1,0,0,0-.225-.342,1,1,0,0,0-.346-.221,1.215,1.215,0,0,0-.443-.078,1.211,1.211,0,0,0-.445.078.965.965,0,0,0-.34.221.977.977,0,0,0-.217.342,1.216,1.216,0,0,0-.076.438,1.2,1.2,0,0,0,.074.438.891.891,0,0,0,.215.326A.93.93,0,0,0-2.7-.582a1.374,1.374,0,0,0,.455.07,1.361,1.361,0,0,0,.451-.07.93.93,0,0,0,.342-.205.912.912,0,0,0,.217-.326A1.176,1.176,0,0,0-1.16-1.551Zm-.133-2.641a1.09,1.09,0,0,0-.068-.391.9.9,0,0,0-.2-.311.909.909,0,0,0-.3-.205.984.984,0,0,0-.387-.074,1.058,1.058,0,0,0-.387.068.867.867,0,0,0-.3.2.856.856,0,0,0-.2.309,1.152,1.152,0,0,0-.068.408,1.113,1.113,0,0,0,.068.4.873.873,0,0,0,.193.307.847.847,0,0,0,.3.2,1.07,1.07,0,0,0,.391.068,1.07,1.07,0,0,0,.391-.068.847.847,0,0,0,.3-.2.873.873,0,0,0,.193-.307A1.113,1.113,0,0,0-1.293-4.191Z" transform="translate(-16919.502 2045)" fill="#0f6daa"/>
    <path id="Path_730" data-name="Path 730" d="M4.859-.746a1.942,1.942,0,0,1-.227.26,1.614,1.614,0,0,1-.381.268,2.591,2.591,0,0,1-.58.211,3.438,3.438,0,0,1-.824.086,2.434,2.434,0,0,1-.955-.184,2.108,2.108,0,0,1-.75-.529,2.44,2.44,0,0,1-.49-.848A3.433,3.433,0,0,1,.477-2.621v-.445A3.947,3.947,0,0,1,.627-4.2a2.362,2.362,0,0,1,.441-.848,1.9,1.9,0,0,1,.717-.531,2.446,2.446,0,0,1,.977-.184,2.546,2.546,0,0,1,.855.131,1.846,1.846,0,0,1,.625.363,1.745,1.745,0,0,1,.41.553,2.424,2.424,0,0,1,.207.7h-.75a1.926,1.926,0,0,0-.135-.436,1.142,1.142,0,0,0-.252-.359,1.157,1.157,0,0,0-.395-.244,1.573,1.573,0,0,0-.562-.09A1.521,1.521,0,0,0,2.078-5,1.258,1.258,0,0,0,1.6-4.59a1.912,1.912,0,0,0-.279.652,3.712,3.712,0,0,0-.092.863v.453a3.03,3.03,0,0,0,.117.879,1.967,1.967,0,0,0,.33.656,1.413,1.413,0,0,0,.512.41,1.536,1.536,0,0,0,.662.141,2.786,2.786,0,0,0,.518-.041,1.885,1.885,0,0,0,.359-.1.966.966,0,0,0,.236-.133,1.453,1.453,0,0,0,.148-.135V-2.223H2.8v-.609H4.859Zm3.18-2.832q-.094-.016-.174-.021t-.182-.006a1.05,1.05,0,0,0-.611.164A1,1,0,0,0,6.719-3V0H6V-4.227h.7l.012.488a1.272,1.272,0,0,1,.41-.414,1.114,1.114,0,0,1,.6-.152,1.068,1.068,0,0,1,.18.018.57.57,0,0,1,.141.037ZM10.383.078a2.018,2.018,0,0,1-.8-.152A1.783,1.783,0,0,1,8.973-.5a1.873,1.873,0,0,1-.391-.646,2.378,2.378,0,0,1-.137-.82v-.164A2.582,2.582,0,0,1,8.6-3.051a2.069,2.069,0,0,1,.412-.684,1.782,1.782,0,0,1,.59-.424,1.7,1.7,0,0,1,.691-.146,1.783,1.783,0,0,1,.781.158,1.482,1.482,0,0,1,.541.436,1.852,1.852,0,0,1,.314.656,3.176,3.176,0,0,1,.1.824v.324H9.168a1.81,1.81,0,0,0,.1.547,1.334,1.334,0,0,0,.25.441,1.188,1.188,0,0,0,.391.3,1.184,1.184,0,0,0,.518.109,1.259,1.259,0,0,0,.648-.156,1.629,1.629,0,0,0,.465-.414l.441.344a1.93,1.93,0,0,1-.246.3,1.679,1.679,0,0,1-.338.262,1.778,1.778,0,0,1-.443.184A2.15,2.15,0,0,1,10.383.078Zm-.09-3.789a1,1,0,0,0-.4.08,1,1,0,0,0-.328.232,1.251,1.251,0,0,0-.24.379,1.921,1.921,0,0,0-.131.52h2.117v-.055a2,2,0,0,0-.068-.418,1.135,1.135,0,0,0-.176-.371.906.906,0,0,0-.307-.266A.966.966,0,0,0,10.293-3.711ZM14.621.078a2.018,2.018,0,0,1-.8-.152A1.783,1.783,0,0,1,13.211-.5a1.873,1.873,0,0,1-.391-.646,2.378,2.378,0,0,1-.137-.82v-.164a2.582,2.582,0,0,1,.154-.922,2.069,2.069,0,0,1,.412-.684,1.782,1.782,0,0,1,.59-.424,1.7,1.7,0,0,1,.691-.146,1.783,1.783,0,0,1,.781.158,1.482,1.482,0,0,1,.541.436,1.852,1.852,0,0,1,.314.656,3.176,3.176,0,0,1,.1.824v.324H13.406a1.81,1.81,0,0,0,.1.547,1.334,1.334,0,0,0,.25.441,1.188,1.188,0,0,0,.391.3,1.184,1.184,0,0,0,.518.109,1.259,1.259,0,0,0,.648-.156,1.629,1.629,0,0,0,.465-.414l.441.344a1.93,1.93,0,0,1-.246.3,1.679,1.679,0,0,1-.338.262,1.778,1.778,0,0,1-.443.184A2.15,2.15,0,0,1,14.621.078Zm-.09-3.789a1,1,0,0,0-.4.08A1,1,0,0,0,13.8-3.4a1.251,1.251,0,0,0-.24.379,1.921,1.921,0,0,0-.131.52h2.117v-.055a2,2,0,0,0-.068-.418,1.135,1.135,0,0,0-.176-.371A.906.906,0,0,0,15-3.609.966.966,0,0,0,14.531-3.711Zm3.258-.516.023.531a1.634,1.634,0,0,1,.547-.447,1.569,1.569,0,0,1,.719-.162,1.747,1.747,0,0,1,.559.084,1.027,1.027,0,0,1,.426.27,1.248,1.248,0,0,1,.271.477,2.273,2.273,0,0,1,.1.705V0h-.723V-2.777a1.41,1.41,0,0,0-.055-.42.693.693,0,0,0-.162-.283.639.639,0,0,0-.266-.16,1.2,1.2,0,0,0-.365-.051,1.043,1.043,0,0,0-.617.188,1.273,1.273,0,0,0-.414.492V0h-.723V-4.227ZM21.875,0V-3.668h-.668v-.559h.668v-.445a1.763,1.763,0,0,1,.1-.6,1.191,1.191,0,0,1,.275-.443,1.158,1.158,0,0,1,.438-.271,1.728,1.728,0,0,1,.582-.092,1.9,1.9,0,0,1,.5.066l-.039.586q-.082-.016-.186-.025t-.205-.01a.706.706,0,0,0-.543.205.83.83,0,0,0-.191.588v.445h.9v.559h-.9V0Zm4.082.078a2.018,2.018,0,0,1-.8-.152A1.783,1.783,0,0,1,24.547-.5a1.873,1.873,0,0,1-.391-.646,2.378,2.378,0,0,1-.137-.82v-.164a2.582,2.582,0,0,1,.154-.922,2.069,2.069,0,0,1,.412-.684,1.782,1.782,0,0,1,.59-.424,1.7,1.7,0,0,1,.691-.146,1.783,1.783,0,0,1,.781.158,1.482,1.482,0,0,1,.541.436,1.852,1.852,0,0,1,.314.656,3.176,3.176,0,0,1,.1.824v.324H24.742a1.81,1.81,0,0,0,.1.547,1.334,1.334,0,0,0,.25.441,1.188,1.188,0,0,0,.391.3A1.184,1.184,0,0,0,26-.512a1.259,1.259,0,0,0,.648-.156,1.629,1.629,0,0,0,.465-.414l.441.344a1.93,1.93,0,0,1-.246.3,1.679,1.679,0,0,1-.338.262,1.778,1.778,0,0,1-.443.184A2.15,2.15,0,0,1,25.957.078Zm-.09-3.789a1,1,0,0,0-.4.08,1,1,0,0,0-.328.232,1.251,1.251,0,0,0-.24.379,1.921,1.921,0,0,0-.131.52h2.117v-.055a2,2,0,0,0-.068-.418,1.135,1.135,0,0,0-.176-.371.906.906,0,0,0-.307-.266A.966.966,0,0,0,25.867-3.711ZM29.227,0H28.5V-6h.723Zm.98-2.148a3.054,3.054,0,0,1,.119-.881,2.078,2.078,0,0,1,.338-.68,1.545,1.545,0,0,1,.525-.439,1.488,1.488,0,0,1,.686-.156,1.625,1.625,0,0,1,.676.131,1.427,1.427,0,0,1,.5.377V-6h.723V0h-.664l-.035-.453a1.412,1.412,0,0,1-.508.395,1.658,1.658,0,0,1-.7.137,1.442,1.442,0,0,1-.678-.16,1.568,1.568,0,0,1-.525-.447,2.131,2.131,0,0,1-.338-.68,2.941,2.941,0,0,1-.119-.857Zm.723.082a2.644,2.644,0,0,0,.064.6,1.477,1.477,0,0,0,.2.486,1.021,1.021,0,0,0,.348.328,1,1,0,0,0,.5.121,1.215,1.215,0,0,0,.344-.045,1.006,1.006,0,0,0,.275-.127,1.041,1.041,0,0,0,.219-.2,1.324,1.324,0,0,0,.166-.25V-3.094a1.381,1.381,0,0,0-.164-.238,1.008,1.008,0,0,0-.217-.189,1.042,1.042,0,0,0-.275-.125,1.2,1.2,0,0,0-.34-.045,1,1,0,0,0-.51.123,1.021,1.021,0,0,0-.35.334,1.523,1.523,0,0,0-.2.49,2.644,2.644,0,0,0-.064.6ZM36.648.078a2.018,2.018,0,0,1-.8-.152A1.783,1.783,0,0,1,35.238-.5a1.873,1.873,0,0,1-.391-.646,2.378,2.378,0,0,1-.137-.82v-.164a2.582,2.582,0,0,1,.154-.922,2.069,2.069,0,0,1,.412-.684,1.782,1.782,0,0,1,.59-.424,1.7,1.7,0,0,1,.691-.146,1.783,1.783,0,0,1,.781.158,1.482,1.482,0,0,1,.541.436,1.852,1.852,0,0,1,.314.656,3.176,3.176,0,0,1,.1.824v.324H35.434a1.81,1.81,0,0,0,.1.547,1.334,1.334,0,0,0,.25.441,1.188,1.188,0,0,0,.391.3,1.184,1.184,0,0,0,.518.109,1.259,1.259,0,0,0,.648-.156,1.629,1.629,0,0,0,.465-.414l.441.344a1.93,1.93,0,0,1-.246.3,1.679,1.679,0,0,1-.338.262,1.778,1.778,0,0,1-.443.184A2.15,2.15,0,0,1,36.648.078Zm-.09-3.789a1,1,0,0,0-.4.08,1,1,0,0,0-.328.232,1.251,1.251,0,0,0-.24.379,1.921,1.921,0,0,0-.131.52h2.117v-.055a2,2,0,0,0-.068-.418,1.135,1.135,0,0,0-.176-.371.906.906,0,0,0-.307-.266A.966.966,0,0,0,36.559-3.711Zm4.617.133Q41.082-3.594,41-3.6t-.182-.006a1.05,1.05,0,0,0-.611.164A1,1,0,0,0,39.855-3V0h-.723V-4.227h.7l.012.488a1.272,1.272,0,0,1,.41-.414,1.114,1.114,0,0,1,.6-.152,1.068,1.068,0,0,1,.18.018.57.57,0,0,1,.141.037ZM48.133-.746a1.942,1.942,0,0,1-.227.26,1.614,1.614,0,0,1-.381.268,2.591,2.591,0,0,1-.58.211,3.438,3.438,0,0,1-.824.086,2.434,2.434,0,0,1-.955-.184,2.108,2.108,0,0,1-.75-.529,2.44,2.44,0,0,1-.49-.848,3.433,3.433,0,0,1-.176-1.139v-.445A3.947,3.947,0,0,1,43.9-4.2a2.362,2.362,0,0,1,.441-.848,1.9,1.9,0,0,1,.717-.531,2.446,2.446,0,0,1,.977-.184,2.546,2.546,0,0,1,.855.131,1.846,1.846,0,0,1,.625.363,1.745,1.745,0,0,1,.41.553,2.424,2.424,0,0,1,.207.7h-.75a1.926,1.926,0,0,0-.135-.436A1.142,1.142,0,0,0,47-4.814a1.157,1.157,0,0,0-.395-.244,1.573,1.573,0,0,0-.562-.09A1.521,1.521,0,0,0,45.352-5a1.258,1.258,0,0,0-.477.414,1.912,1.912,0,0,0-.279.652,3.712,3.712,0,0,0-.092.863v.453a3.03,3.03,0,0,0,.117.879,1.967,1.967,0,0,0,.33.656,1.413,1.413,0,0,0,.512.41,1.536,1.536,0,0,0,.662.141,2.786,2.786,0,0,0,.518-.041A1.885,1.885,0,0,0,47-.678a.966.966,0,0,0,.236-.133,1.453,1.453,0,0,0,.148-.135V-2.223H46.07v-.609h2.063Zm3.18-2.832q-.094-.016-.174-.021t-.182-.006a1.05,1.05,0,0,0-.611.164A1,1,0,0,0,49.992-3V0H49.27V-4.227h.7l.012.488a1.272,1.272,0,0,1,.41-.414,1.114,1.114,0,0,1,.6-.152,1.068,1.068,0,0,1,.18.018.57.57,0,0,1,.141.037Zm.395,1.426a2.613,2.613,0,0,1,.135-.854,2.062,2.062,0,0,1,.383-.682,1.752,1.752,0,0,1,.6-.453,1.88,1.88,0,0,1,.8-.164,1.912,1.912,0,0,1,.807.164,1.767,1.767,0,0,1,.607.453,2.017,2.017,0,0,1,.383.682,2.648,2.648,0,0,1,.133.854v.086a2.648,2.648,0,0,1-.133.854,2,2,0,0,1-.383.68,1.761,1.761,0,0,1-.605.449,1.909,1.909,0,0,1-.8.162,1.909,1.909,0,0,1-.8-.162,1.761,1.761,0,0,1-.605-.449,2.022,2.022,0,0,1-.385-.68,2.613,2.613,0,0,1-.135-.854Zm.727.086a2.334,2.334,0,0,0,.074.6,1.52,1.52,0,0,0,.225.494,1.122,1.122,0,0,0,.375.338,1.063,1.063,0,0,0,.525.125,1.066,1.066,0,0,0,.523-.125,1.1,1.1,0,0,0,.375-.338,1.576,1.576,0,0,0,.225-.494,2.278,2.278,0,0,0,.076-.6v-.086a2.284,2.284,0,0,0-.076-.6,1.548,1.548,0,0,0-.227-.5,1.136,1.136,0,0,0-.377-.34,1.061,1.061,0,0,0-.527-.127,1.031,1.031,0,0,0-.52.127,1.149,1.149,0,0,0-.373.34,1.518,1.518,0,0,0-.225.5,2.341,2.341,0,0,0-.074.6ZM59.07-.418a1.347,1.347,0,0,1-.5.365,1.856,1.856,0,0,1-.734.131,1.724,1.724,0,0,1-.566-.088,1.1,1.1,0,0,1-.437-.277,1.263,1.263,0,0,1-.283-.488,2.293,2.293,0,0,1-.1-.721v-2.73h.723v2.738a1.416,1.416,0,0,0,.066.471.764.764,0,0,0,.176.293.588.588,0,0,0,.25.148,1.027,1.027,0,0,0,.289.041A1.32,1.32,0,0,0,58.658-.7a1,1,0,0,0,.393-.449V-4.227h.723V0h-.687Zm5.371-1.648a3.187,3.187,0,0,1-.109.857,2.1,2.1,0,0,1-.318.68,1.482,1.482,0,0,1-.514.447,1.472,1.472,0,0,1-.7.16,1.8,1.8,0,0,1-.7-.125,1.421,1.421,0,0,1-.514-.363V1.625h-.723V-4.227h.66l.035.469a1.433,1.433,0,0,1,.52-.406,1.671,1.671,0,0,1,.707-.141,1.532,1.532,0,0,1,.705.156,1.472,1.472,0,0,1,.518.439,2,2,0,0,1,.318.68,3.366,3.366,0,0,1,.107.881Zm-.723-.082a2.57,2.57,0,0,0-.066-.6,1.5,1.5,0,0,0-.207-.49,1.05,1.05,0,0,0-.355-.334,1.013,1.013,0,0,0-.512-.123,1.214,1.214,0,0,0-.334.043,1.008,1.008,0,0,0-.271.121,1.011,1.011,0,0,0-.215.186,1.386,1.386,0,0,0-.164.232v2.02a1.386,1.386,0,0,0,.164.232.967.967,0,0,0,.215.184,1.041,1.041,0,0,0,.273.119,1.251,1.251,0,0,0,.34.043.981.981,0,0,0,.506-.125,1.075,1.075,0,0,0,.354-.336,1.5,1.5,0,0,0,.207-.494,2.62,2.62,0,0,0,.066-.6Z" transform="translate(-16905.502 2045)" fill="#0f6daa"/>
    <path id="Path_731" data-name="Path 731" d="M-50.379-1.91h.789v.59h-.789V0h-.727V-1.32H-53.7v-.426l2.547-3.941h.77Zm-2.5,0h1.77V-4.7l-.086.156ZM-46.562,0h-.727V-4.816l-1.457.535v-.656l2.07-.777h.113Zm5.684-2.426A4.735,4.735,0,0,1-41-1.248a2.091,2.091,0,0,1-.357.773,1.32,1.32,0,0,1-.562.424,2.032,2.032,0,0,1-.744.129,2.036,2.036,0,0,1-.742-.129,1.331,1.331,0,0,1-.566-.424,2.115,2.115,0,0,1-.363-.773,4.6,4.6,0,0,1-.129-1.178v-.867a4.594,4.594,0,0,1,.127-1.172,2.034,2.034,0,0,1,.361-.762,1.321,1.321,0,0,1,.564-.414,2.077,2.077,0,0,1,.74-.125,2.1,2.1,0,0,1,.746.125,1.318,1.318,0,0,1,.566.414A2.013,2.013,0,0,1-41-4.465a4.663,4.663,0,0,1,.125,1.172Zm-.723-.988a4.166,4.166,0,0,0-.068-.816,1.563,1.563,0,0,0-.205-.545.814.814,0,0,0-.338-.3,1.084,1.084,0,0,0-.463-.094,1.075,1.075,0,0,0-.459.094.8.8,0,0,0-.336.3,1.616,1.616,0,0,0-.205.545,4.053,4.053,0,0,0-.07.816v1.1a4.12,4.12,0,0,0,.07.818,1.676,1.676,0,0,0,.209.561.866.866,0,0,0,.34.32,1,1,0,0,0,.459.1,1.01,1.01,0,0,0,.465-.1.844.844,0,0,0,.334-.32,1.678,1.678,0,0,0,.2-.561,4.355,4.355,0,0,0,.066-.818Zm4.48-2.277v.613h-.066a2.231,2.231,0,0,0-.883.156,1.69,1.69,0,0,0-.6.416,1.782,1.782,0,0,0-.355.6,2.742,2.742,0,0,0-.152.7,1.394,1.394,0,0,1,.549-.393,1.843,1.843,0,0,1,.678-.123,1.548,1.548,0,0,1,.732.162,1.506,1.506,0,0,1,.506.426,1.8,1.8,0,0,1,.295.6,2.5,2.5,0,0,1,.1.688,2.476,2.476,0,0,1-.113.76,1.751,1.751,0,0,1-.336.613,1.583,1.583,0,0,1-.551.41,1.811,1.811,0,0,1-.762.15,1.627,1.627,0,0,1-.8-.191,1.771,1.771,0,0,1-.572-.5,2.211,2.211,0,0,1-.342-.7,2.806,2.806,0,0,1-.113-.785v-.34a6.5,6.5,0,0,1,.049-.795,3.865,3.865,0,0,1,.17-.758,2.96,2.96,0,0,1,.322-.672,2.107,2.107,0,0,1,.5-.539,2.322,2.322,0,0,1,.719-.357,3.259,3.259,0,0,1,.963-.129Zm-.949,2.563a1.12,1.12,0,0,0-.367.061,1.238,1.238,0,0,0-.322.166,1.258,1.258,0,0,0-.258.248,1.094,1.094,0,0,0-.17.307v.266a2.243,2.243,0,0,0,.092.674,1.534,1.534,0,0,0,.246.488,1.061,1.061,0,0,0,.354.3.9.9,0,0,0,.414.1,1,1,0,0,0,.445-.1.931.931,0,0,0,.33-.27A1.236,1.236,0,0,0-37.1-1.3a1.844,1.844,0,0,0,.07-.523,1.855,1.855,0,0,0-.064-.49,1.311,1.311,0,0,0-.193-.418.979.979,0,0,0-.324-.291A.92.92,0,0,0-38.07-3.129ZM-33.09,0h-.727V-4.816l-1.457.535v-.656l2.07-.777h.113Zm5.844,0h-3.727V-.52l1.863-2.07q.258-.285.428-.5a3.086,3.086,0,0,0,.27-.4,1.428,1.428,0,0,0,.139-.34,1.339,1.339,0,0,0,.039-.322,1.168,1.168,0,0,0-.066-.4.942.942,0,0,0-.191-.322.9.9,0,0,0-.309-.217,1.046,1.046,0,0,0-.422-.08,1.337,1.337,0,0,0-.5.086.963.963,0,0,0-.354.238.987.987,0,0,0-.211.365,1.494,1.494,0,0,0-.07.471h-.723a1.934,1.934,0,0,1,.119-.68,1.565,1.565,0,0,1,.354-.559,1.673,1.673,0,0,1,.582-.377,2.161,2.161,0,0,1,.8-.139,2.211,2.211,0,0,1,.721.109,1.523,1.523,0,0,1,.539.311,1.343,1.343,0,0,1,.338.482,1.6,1.6,0,0,1,.117.621,1.564,1.564,0,0,1-.086.5,2.86,2.86,0,0,1-.23.506,4.139,4.139,0,0,1-.34.5q-.2.248-.41.486L-30.1-.59h2.855Zm3.816-1.91h.789v.59h-.789V0h-.727V-1.32h-2.59v-.426L-24.2-5.687h.77Zm-2.5,0h1.77V-4.7l-.086.156ZM-19.613,0h-.727V-4.816l-1.457.535v-.656l2.07-.777h.113Zm4.492,0h-.727V-4.816l-1.457.535v-.656l2.07-.777h.113Zm5.844,0H-13V-.52l1.863-2.07q.258-.285.428-.5a3.086,3.086,0,0,0,.27-.4,1.428,1.428,0,0,0,.139-.34,1.339,1.339,0,0,0,.039-.322,1.168,1.168,0,0,0-.066-.4.942.942,0,0,0-.191-.322.9.9,0,0,0-.309-.217,1.046,1.046,0,0,0-.422-.08,1.337,1.337,0,0,0-.5.086.963.963,0,0,0-.354.238.987.987,0,0,0-.211.365,1.494,1.494,0,0,0-.07.471h-.723a1.934,1.934,0,0,1,.119-.68,1.565,1.565,0,0,1,.354-.559,1.673,1.673,0,0,1,.582-.377,2.161,2.161,0,0,1,.8-.139,2.211,2.211,0,0,1,.721.109,1.523,1.523,0,0,1,.539.311,1.343,1.343,0,0,1,.338.482,1.6,1.6,0,0,1,.117.621,1.564,1.564,0,0,1-.086.5,2.86,2.86,0,0,1-.23.506,4.139,4.139,0,0,1-.34.5q-.2.248-.41.486L-12.133-.59h2.855Zm3.816-1.91h.789v.59h-.789V0h-.727V-1.32h-2.59v-.426L-6.23-5.687h.77Zm-2.5,0h1.77V-4.7l-.086.156ZM-.348-5.281-2.7,0h-.758l2.348-5.094H-4.191v-.594H-.348Z" transform="translate(-16762.502 2045)" fill="#0f6daa"/>
    <path id="Path_732" data-name="Path 732" d="M5.031,0H4.277L1.414-4.383V0H.66V-5.687h.754l2.871,4.4v-4.4h.746ZM6.059-2.152a2.613,2.613,0,0,1,.135-.854,2.062,2.062,0,0,1,.383-.682,1.752,1.752,0,0,1,.6-.453,1.88,1.88,0,0,1,.8-.164,1.912,1.912,0,0,1,.807.164,1.767,1.767,0,0,1,.607.453,2.017,2.017,0,0,1,.383.682,2.648,2.648,0,0,1,.133.854v.086a2.648,2.648,0,0,1-.133.854,2,2,0,0,1-.383.68,1.761,1.761,0,0,1-.605.449,1.909,1.909,0,0,1-.8.162,1.909,1.909,0,0,1-.8-.162,1.761,1.761,0,0,1-.605-.449,2.022,2.022,0,0,1-.385-.68,2.613,2.613,0,0,1-.135-.854Zm.727.086a2.334,2.334,0,0,0,.074.6,1.52,1.52,0,0,0,.225.494,1.122,1.122,0,0,0,.375.338,1.063,1.063,0,0,0,.525.125,1.066,1.066,0,0,0,.523-.125,1.1,1.1,0,0,0,.375-.338,1.576,1.576,0,0,0,.225-.494,2.278,2.278,0,0,0,.076-.6v-.086a2.284,2.284,0,0,0-.076-.6,1.548,1.548,0,0,0-.227-.5,1.136,1.136,0,0,0-.377-.34,1.061,1.061,0,0,0-.527-.127,1.031,1.031,0,0,0-.52.127,1.149,1.149,0,0,0-.373.34,1.518,1.518,0,0,0-.225.5,2.341,2.341,0,0,0-.074.6Z" transform="translate(-16746.502 2045)" fill="#0f6daa"/>
    <path id="Path_733" data-name="Path 733" d="M.66,0V-5.687H2.266A2.693,2.693,0,0,1,3.289-5.5a2.24,2.24,0,0,1,.791.535,2.412,2.412,0,0,1,.512.844,3.22,3.22,0,0,1,.182,1.113v.336a3.22,3.22,0,0,1-.182,1.113,2.362,2.362,0,0,1-.516.842,2.24,2.24,0,0,1-.811.531A2.918,2.918,0,0,1,2.2,0Zm.75-5.07V-.613H2.2A2.019,2.019,0,0,0,3-.76a1.534,1.534,0,0,0,.574-.416,1.781,1.781,0,0,0,.346-.648,2.908,2.908,0,0,0,.115-.848V-3.02a2.956,2.956,0,0,0-.117-.869,1.776,1.776,0,0,0-.344-.645,1.461,1.461,0,0,0-.555-.4,1.936,1.936,0,0,0-.75-.137ZM9.121-2.629H6.656V-.613H9.52V0H5.906V-5.687H9.48v.617H6.656v1.828H9.121Z" transform="translate(-16671.502 2045)" fill="#0f6daa"/>
    <path id="Path_734" data-name="Path 734" d="M3.875-2.629H1.41V-.613H4.273V0H.66V-5.687H4.234v.617H1.41v1.828H3.875ZM9.211-5.687v3.852A1.965,1.965,0,0,1,9.043-1a1.72,1.72,0,0,1-.451.6,1.907,1.907,0,0,1-.658.357,2.59,2.59,0,0,1-.789.119,2.656,2.656,0,0,1-.809-.119A1.825,1.825,0,0,1,5.686-.4,1.663,1.663,0,0,1,5.252-1a2.07,2.07,0,0,1-.158-.84V-5.687h.742v3.852a1.575,1.575,0,0,0,.1.576A1.1,1.1,0,0,0,6.2-.854a1.077,1.077,0,0,0,.412.24,1.718,1.718,0,0,0,.533.078,1.75,1.75,0,0,0,.539-.078A1.075,1.075,0,0,0,8.1-.854a1.081,1.081,0,0,0,.266-.406,1.605,1.605,0,0,0,.094-.576V-5.687ZM12.48-2.3H11.145V0h-.754V-5.687h1.883a2.229,2.229,0,0,1,1.479.438,1.574,1.574,0,0,1,.518,1.273,1.531,1.531,0,0,1-.287.926,1.714,1.714,0,0,1-.8.59L14.52-.047V0h-.8Zm-1.336-.613H12.3A1.543,1.543,0,0,0,12.83-3a1.109,1.109,0,0,0,.381-.227.913.913,0,0,0,.229-.336,1.125,1.125,0,0,0,.076-.416,1.315,1.315,0,0,0-.072-.447.879.879,0,0,0-.225-.346,1.022,1.022,0,0,0-.387-.223,1.774,1.774,0,0,0-.559-.078H11.145Z" transform="translate(-16620.502 2045)" fill="#0f6daa"/>
    <path id="Path_735" data-name="Path 735" d="M2.848,0H2.121V-4.816L.664-4.281v-.656l2.07-.777h.113ZM8.016-1.91H8.8v.59H8.016V0H7.289V-1.32H4.7v-.426L7.246-5.687h.77Zm-2.5,0h1.77V-4.7L7.2-4.543Zm4.727,1.3a2.524,2.524,0,0,0,.965-.158,1.535,1.535,0,0,0,.6-.422,1.541,1.541,0,0,0,.311-.605,3.339,3.339,0,0,0,.105-.709,1.768,1.768,0,0,1-.541.434A1.468,1.468,0,0,1,11-1.9a1.509,1.509,0,0,1-.729-.166,1.508,1.508,0,0,1-.5-.434,1.866,1.866,0,0,1-.293-.607,2.525,2.525,0,0,1-.1-.687,2.532,2.532,0,0,1,.113-.766,1.845,1.845,0,0,1,.334-.627,1.558,1.558,0,0,1,.551-.422,1.785,1.785,0,0,1,.764-.154,1.646,1.646,0,0,1,.832.2,1.674,1.674,0,0,1,.563.521,2.279,2.279,0,0,1,.32.736,3.521,3.521,0,0,1,.1.846V-3.2q0,.371-.037.752a4.065,4.065,0,0,1-.141.738,2.87,2.87,0,0,1-.289.67A1.932,1.932,0,0,1,12-.5a2.313,2.313,0,0,1-.732.367A3.444,3.444,0,0,1,10.246,0h-.07V-.605ZM11.113-2.5a1.094,1.094,0,0,0,.355-.059,1.179,1.179,0,0,0,.316-.164,1.407,1.407,0,0,0,.26-.246,1.265,1.265,0,0,0,.186-.3v-.289a2.384,2.384,0,0,0-.09-.686,1.621,1.621,0,0,0-.24-.5,1.049,1.049,0,0,0-.348-.309.863.863,0,0,0-.412-.105.96.96,0,0,0-.449.1.973.973,0,0,0-.33.279,1.276,1.276,0,0,0-.205.42,1.885,1.885,0,0,0-.07.527,1.954,1.954,0,0,0,.063.494,1.372,1.372,0,0,0,.189.428.982.982,0,0,0,.32.3A.884.884,0,0,0,11.113-2.5Zm6.508-2.781L15.266,0h-.758l2.348-5.094H13.777v-.594h3.844Zm4.492,0L19.758,0H19l2.348-5.094H18.27v-.594h3.844Zm.91,4.9a.453.453,0,0,1,.111-.312.424.424,0,0,1,.334-.125.437.437,0,0,1,.338.125.443.443,0,0,1,.115.313.419.419,0,0,1-.115.3.445.445,0,0,1-.338.121.432.432,0,0,1-.334-.121A.428.428,0,0,1,23.023-.379Zm4.848-5.312v.613H27.8a2.231,2.231,0,0,0-.883.156,1.69,1.69,0,0,0-.6.416,1.782,1.782,0,0,0-.355.6,2.742,2.742,0,0,0-.152.7,1.394,1.394,0,0,1,.549-.393,1.843,1.843,0,0,1,.678-.123,1.548,1.548,0,0,1,.732.162,1.506,1.506,0,0,1,.506.426,1.8,1.8,0,0,1,.295.6,2.5,2.5,0,0,1,.1.688,2.476,2.476,0,0,1-.113.76,1.751,1.751,0,0,1-.336.613,1.583,1.583,0,0,1-.551.41,1.811,1.811,0,0,1-.762.15,1.627,1.627,0,0,1-.8-.191,1.771,1.771,0,0,1-.572-.5,2.211,2.211,0,0,1-.342-.7,2.806,2.806,0,0,1-.113-.785v-.34a6.5,6.5,0,0,1,.049-.795,3.865,3.865,0,0,1,.17-.758,2.96,2.96,0,0,1,.322-.672,2.107,2.107,0,0,1,.5-.539,2.322,2.322,0,0,1,.719-.357,3.259,3.259,0,0,1,.963-.129Zm-.949,2.563a1.12,1.12,0,0,0-.367.061,1.238,1.238,0,0,0-.322.166,1.258,1.258,0,0,0-.258.248,1.094,1.094,0,0,0-.17.307v.266a2.243,2.243,0,0,0,.092.674,1.534,1.534,0,0,0,.246.488,1.061,1.061,0,0,0,.354.3.9.9,0,0,0,.414.1,1,1,0,0,0,.445-.1.931.931,0,0,0,.33-.27,1.236,1.236,0,0,0,.205-.412,1.844,1.844,0,0,0,.07-.523,1.855,1.855,0,0,0-.064-.49,1.311,1.311,0,0,0-.193-.418.979.979,0,0,0-.324-.291A.92.92,0,0,0,26.922-3.129ZM32.578-1.91h.789v.59h-.789V0h-.727V-1.32h-2.59v-.426l2.547-3.941h.77Zm-2.5,0h1.77V-4.7l-.086.156Z" transform="translate(-16572.502 2045)" fill="#0f6daa"/>
    <path id="Path_736" data-name="Path 736" d="M.66,0V-5.687H2.52A3.163,3.163,0,0,1,3.3-5.6a1.585,1.585,0,0,1,.584.273,1.2,1.2,0,0,1,.367.471,1.673,1.673,0,0,1,.127.684,1.155,1.155,0,0,1-.227.705,1.469,1.469,0,0,1-.617.475,1.39,1.39,0,0,1,.424.2,1.288,1.288,0,0,1,.313.3,1.326,1.326,0,0,1,.193.395,1.565,1.565,0,0,1,.066.457A1.737,1.737,0,0,1,4.4-.936a1.411,1.411,0,0,1-.381.516,1.64,1.64,0,0,1-.594.314A2.658,2.658,0,0,1,2.648,0Zm.75-2.66V-.613H2.648a1.461,1.461,0,0,0,.479-.072,1.012,1.012,0,0,0,.354-.2.856.856,0,0,0,.221-.32,1.127,1.127,0,0,0,.076-.424,1.367,1.367,0,0,0-.062-.426.792.792,0,0,0-.2-.324.9.9,0,0,0-.342-.205,1.5,1.5,0,0,0-.492-.072Zm0-.6H2.543a1.47,1.47,0,0,0,.441-.062,1.006,1.006,0,0,0,.342-.18.8.8,0,0,0,.221-.287.911.911,0,0,0,.078-.385.81.81,0,0,0-.273-.682A1.345,1.345,0,0,0,2.52-5.07H1.41ZM6.313,0H5.59V-6h.723Zm.965-2.152a2.613,2.613,0,0,1,.135-.854,2.062,2.062,0,0,1,.383-.682,1.752,1.752,0,0,1,.6-.453A1.88,1.88,0,0,1,9.2-4.3,1.912,1.912,0,0,1,10-4.141a1.767,1.767,0,0,1,.607.453,2.017,2.017,0,0,1,.383.682,2.648,2.648,0,0,1,.133.854v.086a2.648,2.648,0,0,1-.133.854,2,2,0,0,1-.383.68A1.761,1.761,0,0,1,10-.084a1.909,1.909,0,0,1-.8.162,1.909,1.909,0,0,1-.8-.162A1.761,1.761,0,0,1,7.8-.533a2.022,2.022,0,0,1-.385-.68,2.613,2.613,0,0,1-.135-.854ZM8-2.066a2.334,2.334,0,0,0,.074.6A1.52,1.52,0,0,0,8.3-.975a1.122,1.122,0,0,0,.375.338A1.063,1.063,0,0,0,9.2-.512a1.066,1.066,0,0,0,.523-.125A1.1,1.1,0,0,0,10.1-.975a1.576,1.576,0,0,0,.225-.494,2.278,2.278,0,0,0,.076-.6v-.086a2.284,2.284,0,0,0-.076-.6,1.548,1.548,0,0,0-.227-.5,1.136,1.136,0,0,0-.377-.34A1.061,1.061,0,0,0,9.2-3.711a1.031,1.031,0,0,0-.52.127,1.149,1.149,0,0,0-.373.34,1.518,1.518,0,0,0-.225.5,2.341,2.341,0,0,0-.074.6ZM13.727-.512a1.088,1.088,0,0,0,.367-.062A1.042,1.042,0,0,0,14.4-.746a.892.892,0,0,0,.219-.26.808.808,0,0,0,.1-.326h.684a1.262,1.262,0,0,1-.154.537,1.571,1.571,0,0,1-.365.449,1.8,1.8,0,0,1-.525.309,1.749,1.749,0,0,1-.635.115,1.9,1.9,0,0,1-.83-.17,1.684,1.684,0,0,1-.588-.459,1.943,1.943,0,0,1-.35-.672,2.791,2.791,0,0,1-.115-.809V-2.2A2.791,2.791,0,0,1,11.959-3a1.943,1.943,0,0,1,.35-.672,1.689,1.689,0,0,1,.586-.459,1.884,1.884,0,0,1,.828-.17,1.853,1.853,0,0,1,.674.117,1.617,1.617,0,0,1,.523.322,1.473,1.473,0,0,1,.346.486,1.676,1.676,0,0,1,.141.605h-.684a1.1,1.1,0,0,0-.092-.365.968.968,0,0,0-.205-.3.957.957,0,0,0-.307-.2,1.02,1.02,0,0,0-.4-.074,1.065,1.065,0,0,0-.557.133,1.05,1.05,0,0,0-.355.35,1.464,1.464,0,0,0-.189.488,2.753,2.753,0,0,0-.055.545v.164a2.792,2.792,0,0,0,.055.553,1.467,1.467,0,0,0,.188.486,1.033,1.033,0,0,0,.355.348A1.084,1.084,0,0,0,13.727-.512ZM17.4-1.957l-.453.473V0h-.723V-6h.723v3.629l.387-.465,1.316-1.391h.879L17.883-2.461,19.719,0h-.848ZM21.949.078a2.018,2.018,0,0,1-.8-.152A1.783,1.783,0,0,1,20.539-.5a1.873,1.873,0,0,1-.391-.646,2.378,2.378,0,0,1-.137-.82v-.164a2.582,2.582,0,0,1,.154-.922,2.069,2.069,0,0,1,.412-.684,1.782,1.782,0,0,1,.59-.424,1.7,1.7,0,0,1,.691-.146,1.783,1.783,0,0,1,.781.158,1.482,1.482,0,0,1,.541.436,1.852,1.852,0,0,1,.314.656,3.176,3.176,0,0,1,.1.824v.324H20.734a1.81,1.81,0,0,0,.1.547,1.334,1.334,0,0,0,.25.441,1.188,1.188,0,0,0,.391.3,1.184,1.184,0,0,0,.518.109,1.259,1.259,0,0,0,.648-.156,1.629,1.629,0,0,0,.465-.414l.441.344a1.93,1.93,0,0,1-.246.3,1.679,1.679,0,0,1-.338.262,1.778,1.778,0,0,1-.443.184A2.15,2.15,0,0,1,21.949.078Zm-.09-3.789a1,1,0,0,0-.4.08,1,1,0,0,0-.328.232,1.251,1.251,0,0,0-.24.379,1.921,1.921,0,0,0-.131.52h2.117v-.055a2,2,0,0,0-.068-.418,1.135,1.135,0,0,0-.176-.371.906.906,0,0,0-.307-.266A.966.966,0,0,0,21.859-3.711Zm2.4,1.563a3.054,3.054,0,0,1,.119-.881,2.078,2.078,0,0,1,.338-.68,1.545,1.545,0,0,1,.525-.439,1.488,1.488,0,0,1,.686-.156,1.625,1.625,0,0,1,.676.131,1.427,1.427,0,0,1,.5.377V-6h.723V0H27.16l-.035-.453a1.412,1.412,0,0,1-.508.395,1.658,1.658,0,0,1-.7.137,1.442,1.442,0,0,1-.678-.16,1.568,1.568,0,0,1-.525-.447,2.131,2.131,0,0,1-.338-.68,2.941,2.941,0,0,1-.119-.857Zm.723.082a2.644,2.644,0,0,0,.064.6,1.477,1.477,0,0,0,.2.486,1.021,1.021,0,0,0,.348.328,1,1,0,0,0,.5.121,1.215,1.215,0,0,0,.344-.045,1.006,1.006,0,0,0,.275-.127,1.041,1.041,0,0,0,.219-.2,1.324,1.324,0,0,0,.166-.25V-3.094a1.381,1.381,0,0,0-.164-.238,1.008,1.008,0,0,0-.217-.189,1.042,1.042,0,0,0-.275-.125,1.2,1.2,0,0,0-.34-.045,1,1,0,0,0-.51.123,1.021,1.021,0,0,0-.35.334,1.523,1.523,0,0,0-.2.49,2.644,2.644,0,0,0-.064.6Z" transform="translate(-16528.502 2045)" fill="#0f6daa"/>
    <path id="Path_737" data-name="Path 737" d="M5.031,0H4.277L1.414-4.383V0H.66V-5.687h.754l2.871,4.4v-4.4h.746ZM6.059-2.152a2.613,2.613,0,0,1,.135-.854,2.062,2.062,0,0,1,.383-.682,1.752,1.752,0,0,1,.6-.453,1.88,1.88,0,0,1,.8-.164,1.912,1.912,0,0,1,.807.164,1.767,1.767,0,0,1,.607.453,2.017,2.017,0,0,1,.383.682,2.648,2.648,0,0,1,.133.854v.086a2.648,2.648,0,0,1-.133.854,2,2,0,0,1-.383.68,1.761,1.761,0,0,1-.605.449,1.909,1.909,0,0,1-.8.162,1.909,1.909,0,0,1-.8-.162,1.761,1.761,0,0,1-.605-.449,2.022,2.022,0,0,1-.385-.68,2.613,2.613,0,0,1-.135-.854Zm.727.086a2.334,2.334,0,0,0,.074.6,1.52,1.52,0,0,0,.225.494,1.122,1.122,0,0,0,.375.338,1.063,1.063,0,0,0,.525.125,1.066,1.066,0,0,0,.523-.125,1.1,1.1,0,0,0,.375-.338,1.576,1.576,0,0,0,.225-.494,2.278,2.278,0,0,0,.076-.6v-.086a2.284,2.284,0,0,0-.076-.6,1.548,1.548,0,0,0-.227-.5,1.136,1.136,0,0,0-.377-.34,1.061,1.061,0,0,0-.527-.127,1.031,1.031,0,0,0-.52.127,1.149,1.149,0,0,0-.373.34,1.518,1.518,0,0,0-.225.5,2.341,2.341,0,0,0-.074.6ZM11.793-5.25v1.023h.789v.559h-.789v2.621a.736.736,0,0,0,.039.264.379.379,0,0,0,.1.154.33.33,0,0,0,.148.072.846.846,0,0,0,.174.018,1.091,1.091,0,0,0,.189-.018L12.6-.586V0q-.086.023-.223.051a1.723,1.723,0,0,1-.332.027A1.234,1.234,0,0,1,11.67.021a.759.759,0,0,1-.311-.189.933.933,0,0,1-.211-.35,1.584,1.584,0,0,1-.078-.533V-3.668H10.3v-.559h.77V-5.25Zm7.191,3.184a3.187,3.187,0,0,1-.109.857,2.078,2.078,0,0,1-.32.68,1.5,1.5,0,0,1-.516.447,1.472,1.472,0,0,1-.7.16,1.653,1.653,0,0,1-.723-.146,1.422,1.422,0,0,1-.516-.42L16.07,0h-.664V-6h.723v2.238a1.434,1.434,0,0,1,.508-.4,1.618,1.618,0,0,1,.7-.141,1.532,1.532,0,0,1,.705.156,1.455,1.455,0,0,1,.516.439,2.051,2.051,0,0,1,.318.68,3.309,3.309,0,0,1,.109.881Zm-.723-.082a2.9,2.9,0,0,0-.059-.6,1.51,1.51,0,0,0-.189-.49.976.976,0,0,0-.342-.334,1.008,1.008,0,0,0-.516-.123,1.186,1.186,0,0,0-.359.051,1.034,1.034,0,0,0-.287.141,1.029,1.029,0,0,0-.221.211,1.409,1.409,0,0,0-.16.262V-1.2a1.509,1.509,0,0,0,.166.262,1.07,1.07,0,0,0,.223.211,1.034,1.034,0,0,0,.287.141,1.186,1.186,0,0,0,.359.051.974.974,0,0,0,.5-.121A1,1,0,0,0,18-.984a1.5,1.5,0,0,0,.2-.486,2.723,2.723,0,0,0,.063-.6Zm1.441,0a2.613,2.613,0,0,1,.135-.854,2.062,2.062,0,0,1,.383-.682,1.752,1.752,0,0,1,.6-.453,1.88,1.88,0,0,1,.8-.164,1.912,1.912,0,0,1,.807.164,1.767,1.767,0,0,1,.607.453,2.017,2.017,0,0,1,.383.682,2.648,2.648,0,0,1,.133.854v.086a2.648,2.648,0,0,1-.133.854,2,2,0,0,1-.383.68,1.761,1.761,0,0,1-.605.449,1.909,1.909,0,0,1-.8.162,1.909,1.909,0,0,1-.8-.162,1.761,1.761,0,0,1-.605-.449,2.022,2.022,0,0,1-.385-.68,2.613,2.613,0,0,1-.135-.854Zm.727.086a2.334,2.334,0,0,0,.074.6,1.52,1.52,0,0,0,.225.494,1.122,1.122,0,0,0,.375.338,1.063,1.063,0,0,0,.525.125,1.066,1.066,0,0,0,.523-.125,1.1,1.1,0,0,0,.375-.338,1.576,1.576,0,0,0,.225-.494,2.278,2.278,0,0,0,.076-.6v-.086a2.284,2.284,0,0,0-.076-.6,1.548,1.548,0,0,0-.227-.5,1.136,1.136,0,0,0-.377-.34,1.061,1.061,0,0,0-.527-.127,1.031,1.031,0,0,0-.52.127,1.149,1.149,0,0,0-.373.34,1.518,1.518,0,0,0-.225.5,2.341,2.341,0,0,0-.074.6Zm3.836-.086a2.613,2.613,0,0,1,.135-.854,2.062,2.062,0,0,1,.383-.682,1.752,1.752,0,0,1,.6-.453,1.88,1.88,0,0,1,.8-.164,1.912,1.912,0,0,1,.807.164,1.767,1.767,0,0,1,.607.453,2.017,2.017,0,0,1,.383.682,2.648,2.648,0,0,1,.133.854v.086a2.648,2.648,0,0,1-.133.854,2,2,0,0,1-.383.68,1.761,1.761,0,0,1-.605.449,1.909,1.909,0,0,1-.8.162,1.909,1.909,0,0,1-.8-.162,1.761,1.761,0,0,1-.605-.449,2.022,2.022,0,0,1-.385-.68,2.613,2.613,0,0,1-.135-.854Zm.727.086a2.334,2.334,0,0,0,.074.6,1.52,1.52,0,0,0,.225.494,1.122,1.122,0,0,0,.375.338,1.063,1.063,0,0,0,.525.125,1.066,1.066,0,0,0,.523-.125,1.1,1.1,0,0,0,.375-.338,1.576,1.576,0,0,0,.225-.494,2.278,2.278,0,0,0,.076-.6v-.086a2.284,2.284,0,0,0-.076-.6,1.548,1.548,0,0,0-.227-.5,1.136,1.136,0,0,0-.377-.34,1.061,1.061,0,0,0-.527-.127,1.031,1.031,0,0,0-.52.127,1.149,1.149,0,0,0-.373.34,1.518,1.518,0,0,0-.225.5,2.341,2.341,0,0,0-.074.6Zm5.207.109-.453.473V0h-.723V-6h.723v3.629l.387-.465,1.316-1.391h.879L30.684-2.461,32.52,0h-.848ZM34.75.078a2.018,2.018,0,0,1-.8-.152A1.783,1.783,0,0,1,33.34-.5a1.873,1.873,0,0,1-.391-.646,2.378,2.378,0,0,1-.137-.82v-.164a2.582,2.582,0,0,1,.154-.922,2.069,2.069,0,0,1,.412-.684,1.782,1.782,0,0,1,.59-.424A1.7,1.7,0,0,1,34.66-4.3a1.783,1.783,0,0,1,.781.158,1.482,1.482,0,0,1,.541.436,1.852,1.852,0,0,1,.314.656,3.176,3.176,0,0,1,.1.824v.324H33.535a1.81,1.81,0,0,0,.1.547,1.334,1.334,0,0,0,.25.441,1.188,1.188,0,0,0,.391.3,1.184,1.184,0,0,0,.518.109,1.259,1.259,0,0,0,.648-.156,1.629,1.629,0,0,0,.465-.414l.441.344a1.93,1.93,0,0,1-.246.3,1.679,1.679,0,0,1-.338.262,1.778,1.778,0,0,1-.443.184A2.15,2.15,0,0,1,34.75.078Zm-.09-3.789a1,1,0,0,0-.4.08,1,1,0,0,0-.328.232,1.251,1.251,0,0,0-.24.379,1.921,1.921,0,0,0-.131.52h2.117v-.055a2,2,0,0,0-.068-.418,1.135,1.135,0,0,0-.176-.371.906.906,0,0,0-.307-.266A.966.966,0,0,0,34.66-3.711Zm2.4,1.563a3.054,3.054,0,0,1,.119-.881,2.078,2.078,0,0,1,.338-.68,1.545,1.545,0,0,1,.525-.439,1.488,1.488,0,0,1,.686-.156,1.625,1.625,0,0,1,.676.131,1.427,1.427,0,0,1,.5.377V-6h.723V0h-.664l-.035-.453a1.412,1.412,0,0,1-.508.395,1.658,1.658,0,0,1-.7.137,1.442,1.442,0,0,1-.678-.16,1.568,1.568,0,0,1-.525-.447,2.131,2.131,0,0,1-.338-.68,2.941,2.941,0,0,1-.119-.857Zm.723.082a2.644,2.644,0,0,0,.064.6,1.477,1.477,0,0,0,.2.486,1.021,1.021,0,0,0,.348.328,1,1,0,0,0,.5.121,1.215,1.215,0,0,0,.344-.045,1.006,1.006,0,0,0,.275-.127,1.041,1.041,0,0,0,.219-.2,1.324,1.324,0,0,0,.166-.25V-3.094a1.381,1.381,0,0,0-.164-.238,1.008,1.008,0,0,0-.217-.189,1.042,1.042,0,0,0-.275-.125,1.2,1.2,0,0,0-.34-.045,1,1,0,0,0-.51.123,1.021,1.021,0,0,0-.35.334,1.523,1.523,0,0,0-.2.49,2.644,2.644,0,0,0-.064.6Z" transform="translate(-16469.502 2045)" fill="#0f6daa"/>
    <path id="Path_739" data-name="Path 739" d="M1.887-1.793,2-1.043l.16-.676L3.281-5.687h.633l1.1,3.969.156.688L5.289-1.8l.883-3.891h.754L5.547,0H4.863L3.691-4.145,3.6-4.578l-.09.434L2.3,0H1.613L.238-5.687h.75ZM9.277.078a2.018,2.018,0,0,1-.8-.152A1.783,1.783,0,0,1,7.867-.5a1.873,1.873,0,0,1-.391-.646,2.378,2.378,0,0,1-.137-.82v-.164a2.582,2.582,0,0,1,.154-.922,2.069,2.069,0,0,1,.412-.684,1.782,1.782,0,0,1,.59-.424A1.7,1.7,0,0,1,9.188-4.3a1.783,1.783,0,0,1,.781.158,1.482,1.482,0,0,1,.541.436,1.852,1.852,0,0,1,.314.656,3.176,3.176,0,0,1,.1.824v.324H8.063a1.81,1.81,0,0,0,.1.547,1.334,1.334,0,0,0,.25.441,1.188,1.188,0,0,0,.391.3,1.184,1.184,0,0,0,.518.109,1.259,1.259,0,0,0,.648-.156,1.629,1.629,0,0,0,.465-.414l.441.344a1.93,1.93,0,0,1-.246.3,1.679,1.679,0,0,1-.338.262A1.778,1.778,0,0,1,9.844.01,2.15,2.15,0,0,1,9.277.078Zm-.09-3.789a1,1,0,0,0-.4.08,1,1,0,0,0-.328.232,1.251,1.251,0,0,0-.24.379,1.921,1.921,0,0,0-.131.52H10.2v-.055a2,2,0,0,0-.068-.418,1.135,1.135,0,0,0-.176-.371.906.906,0,0,0-.307-.266A.966.966,0,0,0,9.188-3.711Zm2.4,1.563a3.054,3.054,0,0,1,.119-.881,2.078,2.078,0,0,1,.338-.68,1.545,1.545,0,0,1,.525-.439,1.488,1.488,0,0,1,.686-.156,1.625,1.625,0,0,1,.676.131,1.427,1.427,0,0,1,.5.377V-6h.723V0h-.664l-.035-.453a1.412,1.412,0,0,1-.508.395,1.658,1.658,0,0,1-.7.137,1.442,1.442,0,0,1-.678-.16,1.568,1.568,0,0,1-.525-.447,2.131,2.131,0,0,1-.338-.68,2.941,2.941,0,0,1-.119-.857Zm.723.082a2.644,2.644,0,0,0,.064.6,1.477,1.477,0,0,0,.2.486,1.021,1.021,0,0,0,.348.328,1,1,0,0,0,.5.121A1.215,1.215,0,0,0,13.77-.58a1.006,1.006,0,0,0,.275-.127,1.041,1.041,0,0,0,.219-.2,1.324,1.324,0,0,0,.166-.25V-3.094a1.381,1.381,0,0,0-.164-.238,1.008,1.008,0,0,0-.217-.189,1.042,1.042,0,0,0-.275-.125,1.2,1.2,0,0,0-.34-.045,1,1,0,0,0-.51.123,1.021,1.021,0,0,0-.35.334,1.523,1.523,0,0,0-.2.49,2.644,2.644,0,0,0-.064.6Zm9.09.629a.947.947,0,0,0-.061-.352.7.7,0,0,0-.215-.279,1.711,1.711,0,0,0-.416-.238,6.08,6.08,0,0,0-.664-.229,5.641,5.641,0,0,1-.764-.275,2.509,2.509,0,0,1-.582-.355,1.434,1.434,0,0,1-.369-.459,1.3,1.3,0,0,1-.129-.59,1.38,1.38,0,0,1,.139-.615,1.47,1.47,0,0,1,.393-.492,1.868,1.868,0,0,1,.609-.326,2.523,2.523,0,0,1,.793-.117,2.366,2.366,0,0,1,.855.145,1.933,1.933,0,0,1,.631.383,1.6,1.6,0,0,1,.389.551,1.632,1.632,0,0,1,.133.645h-.754a1.247,1.247,0,0,0-.076-.441.928.928,0,0,0-.232-.352,1.072,1.072,0,0,0-.391-.23,1.682,1.682,0,0,0-.555-.082,1.744,1.744,0,0,0-.523.07,1.044,1.044,0,0,0-.367.193.768.768,0,0,0-.215.291.941.941,0,0,0-.07.367.708.708,0,0,0,.076.328.836.836,0,0,0,.236.273,1.8,1.8,0,0,0,.412.23,5.153,5.153,0,0,0,.6.2,5.418,5.418,0,0,1,.836.3,2.291,2.291,0,0,1,.58.377,1.373,1.373,0,0,1,.34.473,1.5,1.5,0,0,1,.111.594,1.387,1.387,0,0,1-.141.629,1.376,1.376,0,0,1-.4.48,1.894,1.894,0,0,1-.625.307,2.882,2.882,0,0,1-.814.107,2.848,2.848,0,0,1-.523-.049,2.591,2.591,0,0,1-.5-.146A2.223,2.223,0,0,1,18.7-.359,1.721,1.721,0,0,1,18.344-.7a1.5,1.5,0,0,1-.238-.43,1.533,1.533,0,0,1-.086-.523h.754a1.025,1.025,0,0,0,.115.5A1.022,1.022,0,0,0,19.2-.8a1.337,1.337,0,0,0,.445.2,2.128,2.128,0,0,0,.529.064,1.474,1.474,0,0,0,.91-.242A.787.787,0,0,0,21.4-1.437ZM24.754.078a2.018,2.018,0,0,1-.8-.152A1.783,1.783,0,0,1,23.344-.5a1.873,1.873,0,0,1-.391-.646,2.378,2.378,0,0,1-.137-.82v-.164a2.582,2.582,0,0,1,.154-.922,2.069,2.069,0,0,1,.412-.684,1.782,1.782,0,0,1,.59-.424,1.7,1.7,0,0,1,.691-.146,1.783,1.783,0,0,1,.781.158,1.482,1.482,0,0,1,.541.436,1.852,1.852,0,0,1,.314.656,3.176,3.176,0,0,1,.1.824v.324H23.539a1.81,1.81,0,0,0,.1.547,1.334,1.334,0,0,0,.25.441,1.188,1.188,0,0,0,.391.3,1.184,1.184,0,0,0,.518.109,1.259,1.259,0,0,0,.648-.156,1.629,1.629,0,0,0,.465-.414l.441.344a1.93,1.93,0,0,1-.246.3,1.679,1.679,0,0,1-.338.262A1.778,1.778,0,0,1,25.32.01,2.15,2.15,0,0,1,24.754.078Zm-.09-3.789a1,1,0,0,0-.4.08,1,1,0,0,0-.328.232,1.251,1.251,0,0,0-.24.379,1.921,1.921,0,0,0-.131.52H25.68v-.055a2,2,0,0,0-.068-.418,1.135,1.135,0,0,0-.176-.371.906.906,0,0,0-.307-.266A.966.966,0,0,0,24.664-3.711Zm6.145,1.645a3.187,3.187,0,0,1-.109.857,2.1,2.1,0,0,1-.318.68,1.482,1.482,0,0,1-.514.447,1.472,1.472,0,0,1-.7.16,1.8,1.8,0,0,1-.7-.125,1.421,1.421,0,0,1-.514-.363V1.625h-.723V-4.227h.66l.035.469a1.433,1.433,0,0,1,.52-.406A1.671,1.671,0,0,1,29.16-4.3a1.532,1.532,0,0,1,.705.156,1.472,1.472,0,0,1,.518.439,2,2,0,0,1,.318.68,3.366,3.366,0,0,1,.107.881Zm-.723-.082a2.569,2.569,0,0,0-.066-.6,1.5,1.5,0,0,0-.207-.49,1.05,1.05,0,0,0-.355-.334,1.013,1.013,0,0,0-.512-.123,1.214,1.214,0,0,0-.334.043,1.008,1.008,0,0,0-.271.121,1.011,1.011,0,0,0-.215.186,1.386,1.386,0,0,0-.164.232v2.02a1.386,1.386,0,0,0,.164.232.967.967,0,0,0,.215.184,1.041,1.041,0,0,0,.273.119,1.251,1.251,0,0,0,.34.043.981.981,0,0,0,.506-.125,1.075,1.075,0,0,0,.354-.336,1.5,1.5,0,0,0,.207-.494,2.62,2.62,0,0,0,.066-.6ZM36.008,0h-.727V-4.816l-1.457.535v-.656l2.07-.777h.113Zm5.168-1.91h.789v.59h-.789V0h-.727V-1.32h-2.59v-.426l2.547-3.941h.77Zm-2.5,0h1.77V-4.7l-.086.156Zm9.484-.516a4.735,4.735,0,0,1-.125,1.178,2.091,2.091,0,0,1-.357.773,1.32,1.32,0,0,1-.562.424,2.032,2.032,0,0,1-.744.129,2.036,2.036,0,0,1-.742-.129,1.331,1.331,0,0,1-.566-.424,2.115,2.115,0,0,1-.363-.773,4.6,4.6,0,0,1-.129-1.178v-.867A4.594,4.594,0,0,1,44.7-4.465a2.034,2.034,0,0,1,.361-.762,1.321,1.321,0,0,1,.564-.414,2.077,2.077,0,0,1,.74-.125,2.1,2.1,0,0,1,.746.125,1.318,1.318,0,0,1,.566.414,2.013,2.013,0,0,1,.359.762,4.663,4.663,0,0,1,.125,1.172Zm-.723-.988a4.166,4.166,0,0,0-.068-.816,1.563,1.563,0,0,0-.205-.545.814.814,0,0,0-.338-.3,1.084,1.084,0,0,0-.463-.094,1.075,1.075,0,0,0-.459.094.8.8,0,0,0-.336.3,1.616,1.616,0,0,0-.205.545,4.053,4.053,0,0,0-.07.816v1.1a4.12,4.12,0,0,0,.07.818,1.676,1.676,0,0,0,.209.561.866.866,0,0,0,.34.32,1,1,0,0,0,.459.1,1.01,1.01,0,0,0,.465-.1.844.844,0,0,0,.334-.32,1.678,1.678,0,0,0,.2-.561,4.355,4.355,0,0,0,.066-.818Zm1.98.563.289-2.836h2.914v.668h-2.3l-.172,1.551a2,2,0,0,1,.393-.168,1.8,1.8,0,0,1,.557-.078,1.773,1.773,0,0,1,.705.135,1.476,1.476,0,0,1,.533.383,1.713,1.713,0,0,1,.336.6,2.474,2.474,0,0,1,.117.785,2.454,2.454,0,0,1-.111.756,1.657,1.657,0,0,1-.334.6,1.527,1.527,0,0,1-.561.395,2.035,2.035,0,0,1-.795.143,2.171,2.171,0,0,1-.65-.1A1.6,1.6,0,0,1,49.8-.309,1.529,1.529,0,0,1,49.406-.8a1.871,1.871,0,0,1-.187-.7H49.9a1.148,1.148,0,0,0,.348.736,1.081,1.081,0,0,0,.742.248,1.1,1.1,0,0,0,.457-.09.926.926,0,0,0,.338-.258A1.155,1.155,0,0,0,52-1.268,1.861,1.861,0,0,0,52.07-1.8,1.609,1.609,0,0,0,52-2.3a1.158,1.158,0,0,0-.219-.4,1.021,1.021,0,0,0-.357-.268,1.154,1.154,0,0,0-.486-.1,1.709,1.709,0,0,0-.316.025,1.09,1.09,0,0,0-.238.072.926.926,0,0,0-.193.115Q50.1-2.785,50-2.7ZM53.633-.379a.453.453,0,0,1,.111-.312.424.424,0,0,1,.334-.125.437.437,0,0,1,.338.125.443.443,0,0,1,.115.313.419.419,0,0,1-.115.3.445.445,0,0,1-.338.121.432.432,0,0,1-.334-.121A.428.428,0,0,1,53.633-.379Zm0-3.449a.453.453,0,0,1,.111-.312.424.424,0,0,1,.334-.125.437.437,0,0,1,.338.125.443.443,0,0,1,.115.313.419.419,0,0,1-.115.3.445.445,0,0,1-.338.121.432.432,0,0,1-.334-.121A.428.428,0,0,1,53.637-3.828ZM56.57-3.2h.516a1.482,1.482,0,0,0,.492-.074.991.991,0,0,0,.352-.205.837.837,0,0,0,.211-.309,1.047,1.047,0,0,0,.07-.389,1.032,1.032,0,0,0-.246-.744,1,1,0,0,0-.75-.256,1.23,1.23,0,0,0-.42.068.923.923,0,0,0-.324.2.87.87,0,0,0-.209.309,1.06,1.06,0,0,0-.074.4h-.723a1.511,1.511,0,0,1,.125-.613,1.48,1.48,0,0,1,.355-.5,1.7,1.7,0,0,1,.553-.336,2,2,0,0,1,.717-.123,2.253,2.253,0,0,1,.7.1,1.5,1.5,0,0,1,.541.3,1.366,1.366,0,0,1,.35.5,1.812,1.812,0,0,1,.125.7,1.169,1.169,0,0,1-.053.336,1.366,1.366,0,0,1-.16.344,1.445,1.445,0,0,1-.277.314,1.493,1.493,0,0,1-.4.244,1.518,1.518,0,0,1,.471.236,1.271,1.271,0,0,1,.3.326,1.239,1.239,0,0,1,.16.379,1.7,1.7,0,0,1,.047.391,1.744,1.744,0,0,1-.137.709,1.462,1.462,0,0,1-.379.521,1.679,1.679,0,0,1-.57.322,2.212,2.212,0,0,1-.715.111,2.311,2.311,0,0,1-.7-.1,1.709,1.709,0,0,1-.574-.3,1.443,1.443,0,0,1-.389-.5,1.529,1.529,0,0,1-.143-.674h.727a1.06,1.06,0,0,0,.074.4.872.872,0,0,0,.215.313.961.961,0,0,0,.34.2,1.344,1.344,0,0,0,.449.07,1.456,1.456,0,0,0,.449-.064.883.883,0,0,0,.34-.2.863.863,0,0,0,.215-.332A1.329,1.329,0,0,0,58.3-1.57a1.138,1.138,0,0,0-.086-.461.839.839,0,0,0-.244-.322,1.057,1.057,0,0,0-.381-.189,1.85,1.85,0,0,0-.5-.062H56.57ZM63.461-4.2a1.321,1.321,0,0,1-.225.758,1.528,1.528,0,0,1-.607.52,1.74,1.74,0,0,1,.4.234,1.565,1.565,0,0,1,.3.318,1.415,1.415,0,0,1,.2.389,1.448,1.448,0,0,1,.068.449,1.635,1.635,0,0,1-.139.691,1.436,1.436,0,0,1-.383.506,1.674,1.674,0,0,1-.574.311,2.33,2.33,0,0,1-.713.105,2.349,2.349,0,0,1-.715-.105A1.65,1.65,0,0,1,60.5-.338a1.447,1.447,0,0,1-.381-.506,1.635,1.635,0,0,1-.139-.691,1.488,1.488,0,0,1,.066-.449,1.467,1.467,0,0,1,.189-.391,1.48,1.48,0,0,1,.3-.32,1.7,1.7,0,0,1,.395-.234,1.491,1.491,0,0,1-.6-.52,1.34,1.34,0,0,1-.219-.754,1.663,1.663,0,0,1,.125-.662,1.377,1.377,0,0,1,.348-.49,1.526,1.526,0,0,1,.531-.3,2.065,2.065,0,0,1,.672-.105,2.048,2.048,0,0,1,.67.105,1.55,1.55,0,0,1,.531.3,1.365,1.365,0,0,1,.35.49A1.663,1.663,0,0,1,63.461-4.2Zm-.59,2.652a1.163,1.163,0,0,0-.08-.437,1,1,0,0,0-.225-.342,1,1,0,0,0-.346-.221,1.215,1.215,0,0,0-.443-.078,1.211,1.211,0,0,0-.445.078.966.966,0,0,0-.34.221.977.977,0,0,0-.217.342,1.216,1.216,0,0,0-.076.438,1.2,1.2,0,0,0,.074.438.891.891,0,0,0,.215.326.93.93,0,0,0,.342.205,1.374,1.374,0,0,0,.455.07,1.361,1.361,0,0,0,.451-.07.93.93,0,0,0,.342-.205.912.912,0,0,0,.217-.326A1.176,1.176,0,0,0,62.871-1.551Zm-.133-2.641a1.09,1.09,0,0,0-.068-.391.9.9,0,0,0-.2-.311.909.909,0,0,0-.3-.205.984.984,0,0,0-.387-.074A1.058,1.058,0,0,0,61.4-5.1a.867.867,0,0,0-.3.2.856.856,0,0,0-.2.309,1.152,1.152,0,0,0-.068.408,1.113,1.113,0,0,0,.068.4.873.873,0,0,0,.193.307.847.847,0,0,0,.3.2,1.07,1.07,0,0,0,.391.068,1.07,1.07,0,0,0,.391-.068.847.847,0,0,0,.3-.2.873.873,0,0,0,.193-.307A1.113,1.113,0,0,0,62.738-4.191ZM64.555-.379a.453.453,0,0,1,.111-.312A.424.424,0,0,1,65-.816a.437.437,0,0,1,.338.125.443.443,0,0,1,.115.313.419.419,0,0,1-.115.3A.445.445,0,0,1,65,.043a.432.432,0,0,1-.334-.121A.428.428,0,0,1,64.555-.379Zm0-3.449a.453.453,0,0,1,.111-.312A.424.424,0,0,1,65-4.266a.437.437,0,0,1,.338.125.443.443,0,0,1,.115.313.419.419,0,0,1-.115.3A.445.445,0,0,1,65-3.406a.432.432,0,0,1-.334-.121A.428.428,0,0,1,64.559-3.828ZM69.492-1.91h.789v.59h-.789V0h-.727V-1.32h-2.59v-.426l2.547-3.941h.77Zm-2.5,0h1.77V-4.7l-.086.156ZM74.383-4.2a1.321,1.321,0,0,1-.225.758,1.528,1.528,0,0,1-.607.52,1.74,1.74,0,0,1,.4.234,1.565,1.565,0,0,1,.3.318,1.415,1.415,0,0,1,.2.389,1.448,1.448,0,0,1,.068.449,1.635,1.635,0,0,1-.139.691,1.436,1.436,0,0,1-.383.506,1.674,1.674,0,0,1-.574.311,2.33,2.33,0,0,1-.713.105,2.349,2.349,0,0,1-.715-.105,1.65,1.65,0,0,1-.574-.311,1.447,1.447,0,0,1-.381-.506,1.635,1.635,0,0,1-.139-.691,1.488,1.488,0,0,1,.066-.449,1.467,1.467,0,0,1,.189-.391,1.48,1.48,0,0,1,.3-.32,1.7,1.7,0,0,1,.395-.234,1.491,1.491,0,0,1-.6-.52,1.339,1.339,0,0,1-.219-.754,1.663,1.663,0,0,1,.125-.662,1.377,1.377,0,0,1,.348-.49,1.526,1.526,0,0,1,.531-.3,2.065,2.065,0,0,1,.672-.105,2.048,2.048,0,0,1,.67.105,1.55,1.55,0,0,1,.531.3,1.365,1.365,0,0,1,.35.49A1.663,1.663,0,0,1,74.383-4.2Zm-.59,2.652a1.163,1.163,0,0,0-.08-.437,1,1,0,0,0-.225-.342,1,1,0,0,0-.346-.221,1.215,1.215,0,0,0-.443-.078,1.211,1.211,0,0,0-.445.078.966.966,0,0,0-.34.221.977.977,0,0,0-.217.342,1.216,1.216,0,0,0-.076.438,1.2,1.2,0,0,0,.074.438.891.891,0,0,0,.215.326.93.93,0,0,0,.342.205,1.374,1.374,0,0,0,.455.07,1.361,1.361,0,0,0,.451-.07A.93.93,0,0,0,73.5-.787a.912.912,0,0,0,.217-.326A1.176,1.176,0,0,0,73.793-1.551ZM73.66-4.191a1.09,1.09,0,0,0-.068-.391.9.9,0,0,0-.2-.311.909.909,0,0,0-.3-.205.984.984,0,0,0-.387-.074,1.058,1.058,0,0,0-.387.068.867.867,0,0,0-.3.2.856.856,0,0,0-.2.309,1.152,1.152,0,0,0-.068.408,1.113,1.113,0,0,0,.068.4.873.873,0,0,0,.193.307.847.847,0,0,0,.3.2,1.07,1.07,0,0,0,.391.068,1.07,1.07,0,0,0,.391-.068.847.847,0,0,0,.3-.2.873.873,0,0,0,.193-.307A1.113,1.113,0,0,0,73.66-4.191ZM4.2,10H.473V9.48L2.336,7.41q.258-.285.428-.5a3.086,3.086,0,0,0,.27-.4,1.428,1.428,0,0,0,.139-.34,1.339,1.339,0,0,0,.039-.322,1.168,1.168,0,0,0-.066-.4.942.942,0,0,0-.191-.322.9.9,0,0,0-.309-.217,1.046,1.046,0,0,0-.422-.08,1.337,1.337,0,0,0-.5.086.963.963,0,0,0-.354.238.987.987,0,0,0-.211.365,1.494,1.494,0,0,0-.07.471H.363a1.934,1.934,0,0,1,.119-.68A1.565,1.565,0,0,1,.836,4.75a1.673,1.673,0,0,1,.582-.377,2.161,2.161,0,0,1,.8-.139,2.211,2.211,0,0,1,.721.109,1.523,1.523,0,0,1,.539.311,1.343,1.343,0,0,1,.338.482,1.6,1.6,0,0,1,.117.621,1.564,1.564,0,0,1-.086.5,2.86,2.86,0,0,1-.23.506,4.139,4.139,0,0,1-.34.5q-.2.248-.41.486L1.344,9.41H4.2ZM8.531,7.574a4.734,4.734,0,0,1-.125,1.178,2.091,2.091,0,0,1-.357.773,1.32,1.32,0,0,1-.562.424A2.207,2.207,0,0,1,6,9.949a1.331,1.331,0,0,1-.566-.424,2.115,2.115,0,0,1-.363-.773,4.6,4.6,0,0,1-.129-1.178V6.707a4.594,4.594,0,0,1,.127-1.172,2.034,2.034,0,0,1,.361-.762,1.321,1.321,0,0,1,.564-.414,2.077,2.077,0,0,1,.74-.125,2.1,2.1,0,0,1,.746.125,1.318,1.318,0,0,1,.566.414,2.013,2.013,0,0,1,.359.762,4.663,4.663,0,0,1,.125,1.172Zm-.723-.988A4.166,4.166,0,0,0,7.74,5.77a1.563,1.563,0,0,0-.205-.545.814.814,0,0,0-.338-.3,1.18,1.18,0,0,0-.922,0,.8.8,0,0,0-.336.3,1.616,1.616,0,0,0-.205.545,4.053,4.053,0,0,0-.07.816v1.1a4.12,4.12,0,0,0,.07.818,1.676,1.676,0,0,0,.209.561.866.866,0,0,0,.34.32,1.1,1.1,0,0,0,.924,0,.844.844,0,0,0,.334-.32,1.678,1.678,0,0,0,.2-.561,4.355,4.355,0,0,0,.066-.818ZM13.184,10H9.457V9.48L11.32,7.41q.258-.285.428-.5a3.086,3.086,0,0,0,.27-.4,1.428,1.428,0,0,0,.139-.34,1.339,1.339,0,0,0,.039-.322,1.168,1.168,0,0,0-.066-.4.942.942,0,0,0-.191-.322.9.9,0,0,0-.309-.217,1.046,1.046,0,0,0-.422-.08,1.337,1.337,0,0,0-.5.086.963.963,0,0,0-.354.238.987.987,0,0,0-.211.365,1.494,1.494,0,0,0-.07.471H9.348a1.934,1.934,0,0,1,.119-.68A1.565,1.565,0,0,1,9.82,4.75a1.673,1.673,0,0,1,.582-.377,2.161,2.161,0,0,1,.8-.139,2.211,2.211,0,0,1,.721.109,1.523,1.523,0,0,1,.539.311,1.343,1.343,0,0,1,.338.482,1.6,1.6,0,0,1,.117.621,1.564,1.564,0,0,1-.086.5,2.86,2.86,0,0,1-.23.506,4.139,4.139,0,0,1-.34.5q-.2.248-.41.486L10.328,9.41h2.855Zm4.492,0H13.949V9.48l1.863-2.07q.258-.285.428-.5a3.086,3.086,0,0,0,.27-.4,1.428,1.428,0,0,0,.139-.34,1.339,1.339,0,0,0,.039-.322,1.168,1.168,0,0,0-.066-.4.942.942,0,0,0-.191-.322.9.9,0,0,0-.309-.217,1.046,1.046,0,0,0-.422-.08,1.337,1.337,0,0,0-.5.086.963.963,0,0,0-.354.238.987.987,0,0,0-.211.365,1.494,1.494,0,0,0-.07.471H13.84a1.934,1.934,0,0,1,.119-.68,1.565,1.565,0,0,1,.354-.559,1.673,1.673,0,0,1,.582-.377,2.161,2.161,0,0,1,.8-.139,2.211,2.211,0,0,1,.721.109,1.523,1.523,0,0,1,.539.311,1.343,1.343,0,0,1,.338.482,1.6,1.6,0,0,1,.117.621,1.564,1.564,0,0,1-.086.5,2.86,2.86,0,0,1-.23.506,4.139,4.139,0,0,1-.34.5q-.2.248-.41.486L14.82,9.41h2.855Zm6.938-5.687V8.164a1.965,1.965,0,0,1-.168.84,1.72,1.72,0,0,1-.451.6,1.907,1.907,0,0,1-.658.357,2.59,2.59,0,0,1-.789.119,2.656,2.656,0,0,1-.809-.119,1.825,1.825,0,0,1-.65-.357,1.663,1.663,0,0,1-.434-.6,2.07,2.07,0,0,1-.158-.84V4.313h.742V8.164a1.575,1.575,0,0,0,.1.576,1.1,1.1,0,0,0,.268.406,1.077,1.077,0,0,0,.412.24,1.718,1.718,0,0,0,.533.078,1.75,1.75,0,0,0,.539-.078,1.044,1.044,0,0,0,.68-.646,1.605,1.605,0,0,0,.094-.576V4.313Zm5.113.617H27.9V10h-.746V4.93H25.328V4.313h4.4ZM34.645,8.2a2.626,2.626,0,0,1-.2.748,1.808,1.808,0,0,1-.416.6,1.884,1.884,0,0,1-.648.395,2.558,2.558,0,0,1-.895.143,2.173,2.173,0,0,1-.914-.187,1.984,1.984,0,0,1-.7-.533,2.457,2.457,0,0,1-.449-.83,3.474,3.474,0,0,1-.158-1.082v-.57a3.453,3.453,0,0,1,.16-1.084,2.424,2.424,0,0,1,.457-.832,2.028,2.028,0,0,1,.721-.535,2.306,2.306,0,0,1,.951-.189,2.393,2.393,0,0,1,.852.141,1.818,1.818,0,0,1,.631.393,1.866,1.866,0,0,1,.412.6,2.572,2.572,0,0,1,.2.771h-.754a2.553,2.553,0,0,0-.133-.535A1.2,1.2,0,0,0,33.51,5.2a1.043,1.043,0,0,0-.393-.258,1.573,1.573,0,0,0-.562-.09A1.446,1.446,0,0,0,31.889,5a1.349,1.349,0,0,0-.48.41,1.863,1.863,0,0,0-.291.637,3.244,3.244,0,0,0-.1.822v.578a3.366,3.366,0,0,0,.088.785,2.031,2.031,0,0,0,.268.643,1.323,1.323,0,0,0,.457.434,1.3,1.3,0,0,0,.656.158,1.852,1.852,0,0,0,.605-.086,1.062,1.062,0,0,0,.408-.248,1.115,1.115,0,0,0,.252-.4,2.671,2.671,0,0,0,.137-.537Z" transform="translate(-16336.502 2043)" fill="#0f6daa"/>
    <path id="Path_725" data-name="Path 725" d="M2.848,0H2.121V-4.816L.664-4.281v-.656l2.07-.777h.113Z" transform="translate(-17294.502 2046)" fill="#0c2339"/>
    <rect id="Rectangle_59" data-name="Rectangle 59" width="75" height="33.5" transform="translate(-16416.502 2026)" fill="#dc4e41"/>
    <path id="Path_738" data-name="Path 738" d="M2.395-2.832,3.879-5.687H4.73L2.77-2.121V0H2.02V-2.121L.059-5.687H.918ZM6.852.078a2.018,2.018,0,0,1-.8-.152A1.783,1.783,0,0,1,5.441-.5a1.873,1.873,0,0,1-.391-.646,2.378,2.378,0,0,1-.137-.82v-.164a2.582,2.582,0,0,1,.154-.922,2.069,2.069,0,0,1,.412-.684,1.782,1.782,0,0,1,.59-.424A1.7,1.7,0,0,1,6.762-4.3a1.783,1.783,0,0,1,.781.158,1.482,1.482,0,0,1,.541.436,1.852,1.852,0,0,1,.314.656,3.176,3.176,0,0,1,.1.824v.324H5.637a1.81,1.81,0,0,0,.1.547,1.334,1.334,0,0,0,.25.441,1.188,1.188,0,0,0,.391.3,1.184,1.184,0,0,0,.518.109,1.259,1.259,0,0,0,.648-.156A1.629,1.629,0,0,0,8-1.082l.441.344a1.93,1.93,0,0,1-.246.3,1.679,1.679,0,0,1-.338.262A1.778,1.778,0,0,1,7.418.01,2.15,2.15,0,0,1,6.852.078Zm-.09-3.789a1,1,0,0,0-.4.08,1,1,0,0,0-.328.232,1.251,1.251,0,0,0-.24.379,1.921,1.921,0,0,0-.131.52H7.777v-.055a2,2,0,0,0-.068-.418,1.135,1.135,0,0,0-.176-.371.906.906,0,0,0-.307-.266A.966.966,0,0,0,6.762-3.711ZM11.8-1.121a.682.682,0,0,0-.035-.221.465.465,0,0,0-.139-.2,1.036,1.036,0,0,0-.295-.17,3.047,3.047,0,0,0-.5-.145,4.771,4.771,0,0,1-.633-.176,1.936,1.936,0,0,1-.479-.244,1.006,1.006,0,0,1-.3-.338A.948.948,0,0,1,9.3-3.066a1.055,1.055,0,0,1,.111-.475,1.215,1.215,0,0,1,.314-.395,1.54,1.54,0,0,1,.492-.27,1.969,1.969,0,0,1,.645-.1,2.064,2.064,0,0,1,.678.1,1.545,1.545,0,0,1,.508.283,1.212,1.212,0,0,1,.318.42,1.225,1.225,0,0,1,.109.514h-.727a.632.632,0,0,0-.059-.26.708.708,0,0,0-.172-.234.887.887,0,0,0-.277-.168,1.031,1.031,0,0,0-.379-.064,1.226,1.226,0,0,0-.385.053.759.759,0,0,0-.26.141.54.54,0,0,0-.148.2.584.584,0,0,0-.047.229.544.544,0,0,0,.039.211.4.4,0,0,0,.148.17,1.213,1.213,0,0,0,.3.141,4.748,4.748,0,0,0,.49.131,4.74,4.74,0,0,1,.672.2,1.834,1.834,0,0,1,.473.264.974.974,0,0,1,.279.346,1.054,1.054,0,0,1,.092.453,1.119,1.119,0,0,1-.115.508,1.126,1.126,0,0,1-.33.395,1.62,1.62,0,0,1-.516.256,2.282,2.282,0,0,1-.668.092,2.172,2.172,0,0,1-.744-.117A1.666,1.666,0,0,1,9.605-.35a1.316,1.316,0,0,1-.332-.441A1.215,1.215,0,0,1,9.16-1.3h.723a.758.758,0,0,0,.107.373.8.8,0,0,0,.24.244.973.973,0,0,0,.316.133,1.547,1.547,0,0,0,.344.039,1.46,1.46,0,0,0,.391-.047.9.9,0,0,0,.283-.129.555.555,0,0,0,.174-.193A.508.508,0,0,0,11.8-1.121Z" transform="translate(-16385.291 2045.805)" fill="#fff"/>
    <g id="Rectangle_583" data-name="Rectangle 583" transform="translate(-17301.502 2025)" fill="none" stroke="#4dc0ed" stroke-width="3">
      <rect width="1076" height="35" stroke="none"/>
      <rect x="1.5" y="1.5" width="1073" height="32" fill="none"/>
    </g>
  </g>
</svg>
