<?xml version="1.0" encoding="UTF-8" standalone="no"?>
<svg
   width="96.5"
   height="48.748"
   viewBox="0 0 96.5 48.748"
   version="1.1"
   id="svg34"
   sodipodi:docname="slider-22-thumb.svg"
   xmlns:inkscape="http://www.inkscape.org/namespaces/inkscape"
   xmlns:sodipodi="http://sodipodi.sourceforge.net/DTD/sodipodi-0.dtd"
   xmlns="http://www.w3.org/2000/svg"
   xmlns:svg="http://www.w3.org/2000/svg">
  <defs
     id="defs38" />
  <sodipodi:namedview
     id="namedview36"
     pagecolor="#ffffff"
     bordercolor="#666666"
     borderopacity="1.0"
     inkscape:pageshadow="2"
     inkscape:pageopacity="0.0"
     inkscape:pagecheckerboard="0" />
  <g
     transform="translate(-455.5,-413.505)"
     id="g32">
    <g
       transform="translate(455.5,413.505)"
       fill="rgba(254,116,110,0.15)"
       stroke="#fe746e"
       stroke-width="0.5"
       id="g6">
      <path
         id="rect2"
         style="stroke:none"
         d="m 5,0 h 86.5 c 2.77,0 5,2.23 5,5 v 38.748001 c 0,2.77 -2.23,5 -5,5 H 5 c -2.77,0 -5,-2.23 -5,-5 V 5 C 0,2.23 2.23,0 5,0 Z" />
      <path
         id="rect4"
         style="fill:none"
         d="m 5,0.25 h 86.5 c 2.6315,0 4.75,2.1185 4.75,4.75 v 38.748001 c 0,2.6315 -2.1185,4.75 -4.75,4.75 H 5 c -2.6315,0 -4.75,-2.1185 -4.75,-4.75 V 5 C 0.25,2.3685 2.3685,0.25 5,0.25 Z" />
    </g>
    <g
       aria-label="Check regulatoryfiltering"
       transform="translate(462.5,430.163)"
       id="text12"
       style="font-size:10px;font-family:Roboto-Regular, Roboto;fill:#0c2339">
      <path
         d="M 6.0546875,-2.2558594 Q 5.9228516,-1.1279297 5.2197266,-0.51269531 4.5214844,0.09765625 3.359375,0.09765625 q -1.2597656,0 -2.0214844,-0.90332031 Q 0.58105469,-1.7089844 0.58105469,-3.2226563 V -3.90625 q 0,-0.9912109 0.3515625,-1.7431641 0.35644531,-0.7519531 1.00585941,-1.1523437 0.649414,-0.4052734 1.5039062,-0.4052734 1.1328125,0 1.8164063,0.6347656 0.6835937,0.6298828 0.7958984,1.7480469 H 5.1123047 Q 4.9902344,-5.6738281 4.5800781,-6.0546875 4.1748047,-6.4355469 3.4423828,-6.4355469 q -0.8984375,0 -1.4111328,0.6640625 -0.5078125,0.6640625 -0.5078125,1.8896485 v 0.6884765 q 0,1.1572266 0.4833984,1.8408203 0.4833985,0.68359379 1.3525391,0.68359379 0.78125,0 1.1962891,-0.35156249 0.4199218,-0.3564453 0.5566406,-1.2353516 z"
         id="path42" />
      <path
         d="m 8.0957031,-4.6435547 q 0.600586,-0.7373047 1.5625,-0.7373047 1.6748049,0 1.6894529,1.8896485 V 0 h -0.90332 v -3.4960938 q -0.0049,-0.571289 -0.263672,-0.8447265 -0.2539062,-0.2734375 -0.7958984,-0.2734375 -0.4394531,0 -0.7714843,0.234375 -0.3320313,0.234375 -0.5175782,0.6152344 V 0 H 7.1923828 v -7.5 h 0.9033203 z"
         id="path44" />
      <path
         d="m 14.892578,0.09765625 q -1.074219,0 -1.748047,-0.703125 -0.673828,-0.70800785 -0.673828,-1.88964845 v -0.1660156 q 0,-0.7861328 0.297852,-1.4013672 0.302734,-0.6201172 0.839843,-0.9667969 0.541993,-0.3515625 1.171875,-0.3515625 1.030274,0 1.601563,0.678711 0.571289,0.6787109 0.571289,1.9433593 v 0.3759766 h -3.579102 q 0.01953,0.78125 0.454102,1.2646484 0.439453,0.47851566 1.113281,0.47851566 0.478516,0 0.810547,-0.1953125 0.332031,-0.19531246 0.581055,-0.51757816 l 0.551758,0.42968754 Q 16.220703,0.09765625 14.892578,0.09765625 Z M 14.780273,-4.6386719 q -0.546875,0 -0.917968,0.4003907 Q 13.491211,-3.8427734 13.40332,-3.125 h 2.646485 v -0.068359 q -0.03906,-0.6884765 -0.371094,-1.0644531 -0.332031,-0.3808594 -0.898438,-0.3808594 z"
         id="path46" />
      <path
         d="m 20.117187,-0.63964844 q 0.483399,0 0.844727,-0.29296875 0.361328,-0.29296871 0.400391,-0.73242191 h 0.854492 q -0.02441,0.4541016 -0.3125,0.86425785 -0.288086,0.41015625 -0.771485,0.65429688 -0.478515,0.24414062 -1.015625,0.24414062 -1.079101,0 -1.71875,-0.71777344 -0.634765,-0.72265621 -0.634765,-1.97265621 v -0.1513672 q 0,-0.7714844 0.283203,-1.3720703 0.283203,-0.600586 0.810547,-0.9326172 0.532226,-0.3320313 1.254883,-0.3320313 0.888672,0 1.474609,0.5322266 0.59082,0.5322266 0.629883,1.3818359 h -0.854492 q -0.03906,-0.5126953 -0.390625,-0.8398437 -0.34668,-0.3320313 -0.859375,-0.3320313 -0.688477,0 -1.069336,0.4980469 -0.375977,0.4931641 -0.375977,1.4306641 v 0.1708984 q 0,0.9130859 0.375977,1.40625 0.375976,0.49316406 1.074218,0.49316406 z"
         id="path48" />
      <path
         d="m 24.707031,-2.4462891 -0.566406,0.5908204 V 0 h -0.90332 v -7.5 h 0.90332 v 4.5361328 l 0.483398,-0.5810547 1.645508,-1.7382812 h 1.098633 L 25.3125,-3.0761719 27.607422,0 h -1.05957 z"
         id="path50" />
      <path
         d="m 33.330078,-4.4726562 q -0.205078,-0.03418 -0.444336,-0.03418 -0.888672,0 -1.206055,0.7568359 V 0 h -0.90332 v -5.2832031 h 0.878906 l 0.01465,0.6103515 q 0.444336,-0.7080078 1.259765,-0.7080078 0.263672,0 0.400391,0.068359 z"
         id="path52" />
      <path
         d="m 36.259766,0.09765625 q -1.074219,0 -1.748047,-0.703125 -0.673828,-0.70800785 -0.673828,-1.88964845 v -0.1660156 q 0,-0.7861328 0.297851,-1.4013672 0.302735,-0.6201172 0.839844,-0.9667969 0.541992,-0.3515625 1.171875,-0.3515625 1.030273,0 1.601562,0.678711 0.571289,0.6787109 0.571289,1.9433593 v 0.3759766 h -3.579101 q 0.01953,0.78125 0.454101,1.2646484 0.439454,0.47851566 1.113282,0.47851566 0.478515,0 0.810547,-0.1953125 0.332031,-0.19531246 0.581054,-0.51757816 l 0.551758,0.42968754 Q 37.587891,0.09765625 36.259766,0.09765625 Z M 36.147461,-4.6386719 q -0.546875,0 -0.917969,0.4003907 -0.371094,0.3955078 -0.458984,1.1132812 h 2.646484 v -0.068359 q -0.03906,-0.6884765 -0.371094,-1.0644531 -0.332031,-0.3808594 -0.898437,-0.3808594 z"
         id="path54" />
      <path
         d="m 39.150391,-2.6855469 q 0,-1.2353515 0.571289,-1.9628906 0.571289,-0.7324219 1.513672,-0.7324219 0.966796,0 1.508789,0.6835938 l 0.04395,-0.5859375 h 0.825195 v 5.15624998 q 0,1.02539062 -0.610351,1.61621092 -0.605469,0.5908203 -1.63086,0.5908203 -0.571289,0 -1.118164,-0.2441406 Q 39.707031,1.5917969 39.418945,1.1669922 L 39.887695,0.625 q 0.581055,0.7177734 1.420899,0.7177734 0.659179,0 1.02539,-0.37109371 0.371094,-0.37109375 0.371094,-1.04492188 v -0.45410156 q -0.541992,0.625 -1.479492,0.625 -0.927734,0 -1.503906,-0.74707031 -0.571289,-0.74707034 -0.571289,-2.03613284 z m 0.908203,0.1025391 q 0,0.8935547 0.366211,1.40625 0.366211,0.50781249 1.02539,0.50781249 0.854492,0 1.254883,-0.77636719 v -2.4121094 q -0.415039,-0.7568359 -1.245117,-0.7568359 -0.65918,0 -1.030274,0.5126953 -0.371093,0.5126953 -0.371093,1.5185547 z"
         id="path56" />
      <path
         d="m 48.237305,-0.52246094 q -0.527344,0.62011719 -1.547852,0.62011719 -0.844726,0 -1.289062,-0.48828125 -0.439454,-0.49316406 -0.444336,-1.4550781 v -3.4375 h 0.90332 v 3.4130859 q 0,1.20117189 0.976562,1.20117189 1.035157,0 1.376954,-0.77148439 v -3.8427734 h 0.90332 V 0 h -0.859375 z"
         id="path58" />
      <path
         d="m 51.469727,0 h -0.903321 v -7.5 h 0.903321 z"
         id="path60" />
      <path
         d="m 56.176758,0 q -0.07813,-0.15625 -0.126953,-0.55664062 -0.629883,0.65429687 -1.503907,0.65429687 -0.78125,0 -1.284179,-0.43945313 -0.498047,-0.44433593 -0.498047,-1.12304682 0,-0.8251954 0.625,-1.2792969 0.629883,-0.4589844 1.767578,-0.4589844 h 0.878906 v -0.4150391 q 0,-0.4736328 -0.283203,-0.7519531 -0.283203,-0.2832031 -0.834961,-0.2832031 -0.483398,0 -0.810547,0.2441406 -0.327148,0.2441406 -0.327148,0.5908203 h -0.908203 q 0,-0.3955078 0.27832,-0.7617187 0.283203,-0.3710938 0.761719,-0.5859375 0.483398,-0.2148438 1.05957,-0.2148438 0.913086,0 1.430664,0.4589844 0.517578,0.4541016 0.53711,1.2548828 v 2.4316406 q 0,0.7275391 0.185546,1.1572266 V 0 Z m -1.499024,-0.68847656 q 0.424805,0 0.805664,-0.21972657 0.38086,-0.21972657 0.551758,-0.57128907 v -1.0839844 h -0.708008 q -1.660156,0 -1.660156,0.9716797 0,0.4248047 0.283203,0.66406252 0.283203,0.23925782 0.727539,0.23925782 z"
         id="path62" />
      <path
         d="m 59.580078,-6.5625 v 1.2792969 h 0.986328 v 0.6982422 h -0.986328 v 3.2763672 q 0,0.31738276 0.131836,0.47851557 0.131836,0.15625001 0.449219,0.15625001 0.15625,0 0.429687,-0.0585938 V 0 q -0.356445,0.09765625 -0.693359,0.09765625 -0.605469,0 -0.913086,-0.36621094 -0.307617,-0.36621093 -0.307617,-1.04003901 v -3.2763672 h -0.961914 v -0.6982422 h 0.961914 V -6.5625 Z"
         id="path64" />
      <path
         d="m 61.28418,-2.6904297 q 0,-0.7763672 0.302734,-1.3964844 0.307617,-0.6201171 0.849609,-0.9570312 0.546875,-0.3369141 1.245118,-0.3369141 1.079101,0 1.743164,0.7470703 0.668945,0.7470703 0.668945,1.9873047 v 0.063477 q 0,0.7714844 -0.297852,1.3867187 -0.292968,0.6103516 -0.844726,0.95214847 -0.546875,0.34179688 -1.259766,0.34179688 -1.074219,0 -1.743164,-0.74707031 Q 61.28418,-1.3964844 61.28418,-2.6269531 Z m 0.908203,0.1074219 q 0,0.8789062 0.405273,1.4111328 0.410156,0.53222656 1.09375,0.53222656 0.688477,0 1.09375,-0.53710936 0.405274,-0.5419922 0.405274,-1.5136719 0,-0.8691406 -0.415039,-1.40625 -0.410157,-0.5419922 -1.09375,-0.5419922 -0.668946,0 -1.079102,0.5322266 -0.410156,0.5322265 -0.410156,1.5234375 z"
         id="path66" />
      <path
         d="m 69.780273,-4.4726562 q -0.205078,-0.03418 -0.444336,-0.03418 -0.888671,0 -1.206054,0.7568359 V 0 h -0.903321 v -5.2832031 h 0.878907 l 0.01465,0.6103515 q 0.444336,-0.7080078 1.259766,-0.7080078 0.263672,0 0.40039,0.068359 z"
         id="path68" />
      <path
         d="m 72.426758,-1.3232422 1.230469,-3.9599609 h 0.966796 L 72.5,0.81542969 Q 72.006836,2.1337891 70.932617,2.1337891 L 70.761719,2.1191406 70.424805,2.0556641 V 1.3232422 l 0.24414,0.019531 q 0.458985,0 0.712891,-0.1855468 0.258789,-0.18554691 0.424805,-0.67871097 L 72.006836,-0.05859375 70.12207,-5.2832031 h 0.986328 z"
         id="path70" />
      <path
         d="M 0.98632813,13 V 8.4150391 H 0.15136719 V 7.7167969 H 0.98632813 V 7.2675781 q 0,-0.883789 0.50292967,-1.3769531 0.5078125,-0.4931641 1.4306641,-0.4931641 0.546875,0 1.3818359,0.2978516 L 4.1503906,6.4570312 Q 3.5400391,6.2128906 2.9882813,6.2128906 q -0.5810547,0 -0.8398438,0.2636719 -0.2539063,0.2587891 -0.2539063,0.78125 V 7.7167969 H 2.9736328 V 8.4150391 H 1.8945312 V 13 Z M 4.7509766,13 H 3.8427734 V 7.7167969 h 0.9082032 z"
         id="path72" />
      <path
         d="M 7.2021484,13 H 6.2988281 V 5.5 h 0.9033203 z"
         id="path74" />
      <path
         d="M 9.8730469,6.4375 V 7.7167969 H 10.859375 V 8.4150391 H 9.8730469 v 3.2763669 q 0,0.317383 0.1318361,0.478516 0.131836,0.15625 0.449219,0.15625 0.15625,0 0.429687,-0.05859 V 13 q -0.356445,0.09766 -0.693359,0.09766 -0.6054691,0 -0.9130862,-0.366211 Q 8.9697266,12.365234 8.9697266,11.691406 V 8.4150391 H 8.0078125 V 7.7167969 H 8.9697266 V 6.4375 Z"
         id="path76" />
      <path
         d="m 14.106445,13.097656 q -1.074218,0 -1.748047,-0.703125 -0.673828,-0.708008 -0.673828,-1.889648 v -0.166016 q 0,-0.7861326 0.297852,-1.401367 0.302734,-0.6201172 0.839844,-0.9667969 0.541992,-0.3515625 1.171875,-0.3515625 1.030273,0 1.601562,0.678711 0.571289,0.6787109 0.571289,1.9433594 v 0.375977 h -3.579101 q 0.01953,0.78125 0.454101,1.264648 0.439453,0.478516 1.113281,0.478516 0.478516,0 0.810547,-0.195313 0.332032,-0.195312 0.581055,-0.517578 l 0.551758,0.429687 q -0.664063,1.020508 -1.992188,1.020508 z M 13.994141,8.3613281 q -0.546875,0 -0.917969,0.4003907 Q 12.705078,9.1572266 12.617188,9.875 h 2.646484 V 9.8066406 Q 15.224609,9.1181641 14.892578,8.7421875 14.560547,8.3613281 13.994141,8.3613281 Z"
         id="path78" />
      <path
         d="m 19.765625,8.5273438 q -0.205078,-0.03418 -0.444336,-0.03418 -0.888672,0 -1.206055,0.7568359 V 13 h -0.90332 V 7.7167969 h 0.878906 l 0.01465,0.6103515 q 0.444336,-0.7080078 1.259765,-0.7080078 0.263672,0 0.400391,0.068359 z"
         id="path80" />
      <path
         d="m 21.577148,13 h -0.90332 V 7.7167969 h 0.90332 z M 20.600586,6.3154297 q 0,-0.2197266 0.131836,-0.3710938 0.136719,-0.1513672 0.40039,-0.1513672 0.263672,0 0.400391,0.1513672 0.136719,0.1513672 0.136719,0.3710938 0,0.2197265 -0.136719,0.3662109 -0.136719,0.1464844 -0.400391,0.1464844 -0.263671,0 -0.40039,-0.1464844 -0.131836,-0.1464844 -0.131836,-0.3662109 z"
         id="path82" />
      <path
         d="m 23.876953,7.7167969 0.0293,0.6640625 q 0.605469,-0.7617188 1.582031,-0.7617188 1.674805,0 1.689453,1.8896485 V 13 h -0.90332 V 9.5039063 q -0.0049,-0.5712891 -0.263672,-0.8447266 -0.253906,-0.2734375 -0.795898,-0.2734375 -0.439453,0 -0.771485,0.234375 -0.332031,0.234375 -0.517578,0.6152344 V 13 h -0.90332 V 7.7167969 Z"
         id="path84" />
      <path
         d="m 28.325195,10.314453 q 0,-1.2353514 0.571289,-1.9628905 0.571289,-0.7324219 1.513672,-0.7324219 0.966797,0 1.508789,0.6835938 l 0.04395,-0.5859375 h 0.825195 v 5.1562501 q 0,1.025391 -0.610352,1.616211 -0.605468,0.59082 -1.630859,0.59082 -0.571289,0 -1.118164,-0.24414 -0.546875,-0.244141 -0.834961,-0.668946 L 29.0625,13.625 q 0.581055,0.717773 1.420898,0.717773 0.65918,0 1.025391,-0.371093 0.371094,-0.371094 0.371094,-1.044922 v -0.454102 q -0.541992,0.625 -1.479492,0.625 -0.927735,0 -1.503907,-0.74707 -0.571289,-0.74707 -0.571289,-2.036133 z m 0.908203,0.102539 q 0,0.893555 0.366211,1.40625 0.366211,0.507813 1.025391,0.507813 0.854492,0 1.254883,-0.776367 V 9.1425781 q -0.415039,-0.7568359 -1.245117,-0.7568359 -0.65918,0 -1.030274,0.5126953 -0.371094,0.5126953 -0.371094,1.5185545 z"
         id="path86" />
    </g>
    <path
       id="circle14"
       transform="translate(523.333,447.46)"
       style="fill:#fe746e"
       d="M 10.666,5.3330002 A 5.3330002,5.3330002 0 0 1 5.3330002,10.666 5.3330002,5.3330002 0 0 1 0,5.3330002 5.3330002,5.3330002 0 0 1 5.3330002,0 5.3330002,5.3330002 0 0 1 10.666,5.3330002 Z" />
    <g
       aria-label="2"
       transform="translate(527,455.126)"
       id="text18"
       style="font-size:6px;font-family:Roboto-Regular, Roboto;fill:#ffffff">
      <path
         d="M 3.1494141,0 H 0.35449219 V -0.38964844 L 1.8310547,-2.0302734 q 0.328125,-0.3720704 0.4511719,-0.6035157 0.1259765,-0.234375 0.1259765,-0.4833984 0,-0.3339844 -0.2021484,-0.5478516 -0.2021484,-0.2138672 -0.5390625,-0.2138672 -0.4042969,0 -0.6298828,0.2314454 -0.22265627,0.2285156 -0.22265627,0.6386718 H 0.27246094 q 0,-0.5888672 0.37792968,-0.9521484 0.38085938,-0.3632812 1.01660158,-0.3632812 0.5947266,0 0.9404297,0.3134765 0.3457031,0.3105469 0.3457031,0.8291016 0,0.6298828 -0.8027344,1.5 l -1.1425781,1.23925779 h 2.1416016 z"
         id="path90" />
    </g>
    <path
       id="circle20"
       transform="translate(535.333,447.46)"
       style="fill:#3cca8e"
       d="M 10.666,5.3330002 A 5.3330002,5.3330002 0 0 1 5.3330002,10.666 5.3330002,5.3330002 0 0 1 0,5.3330002 5.3330002,5.3330002 0 0 1 5.3330002,0 5.3330002,5.3330002 0 0 1 10.666,5.3330002 Z" />
    <g
       aria-label="3"
       transform="translate(539,455.126)"
       id="text24"
       style="font-size:6px;font-family:Roboto-Regular, Roboto;fill:#ffffff">
      <path
         d="m 1.1425781,-2.3964844 h 0.4072266 q 0.383789,-0.00586 0.6035156,-0.2021484 0.2197266,-0.1962891 0.2197266,-0.5302735 0,-0.75 -0.7470703,-0.75 -0.3515625,0 -0.5625,0.2021485 -0.20800785,0.1992187 -0.20800785,0.5302734 H 0.31347656 q 0,-0.5068359 0.36914063,-0.8408203 0.37207031,-0.336914 0.94335941,-0.336914 0.6035156,0 0.946289,0.3193359 0.3427735,0.3193359 0.3427735,0.8876953 0,0.2783203 -0.1816407,0.5390625 -0.1787109,0.2607422 -0.4892578,0.3896484 0.3515625,0.1113282 0.5419922,0.3691407 0.1933594,0.2578125 0.1933594,0.6298828 0,0.57421873 -0.375,0.91113279 -0.375,0.33691406 -0.975586,0.33691406 -0.6005859,0 -0.97851558,-0.32519531 Q 0.27539063,-0.59179687 0.27539063,-1.125 H 0.8203125 q 0,0.33691406 0.2197266,0.5390625 0.2197265,0.20214844 0.5888671,0.20214844 0.3925782,0 0.600586,-0.20507813 Q 2.4375,-0.79394531 2.4375,-1.1777344 q 0,-0.3720703 -0.2285156,-0.571289 Q 1.9804687,-1.9482422 1.5498047,-1.9541016 H 1.1425781 Z"
         id="path94" />
    </g>
    <path
       id="rect26"
       transform="translate(463,447)"
       style="fill:#fe746e"
       d="m 2,0 h 7 c 1.108,0 2,0.892 2,2 v 7 c 0,1.108 -0.892,2 -2,2 H 2 C 0.892,11 0,10.108 0,9 V 2 C 0,0.892 0.892,0 2,0 Z" />
    <g
       aria-label="1"
       transform="translate(467,455.126)"
       id="text30"
       style="font-size:6px;font-family:Roboto-Regular, Roboto;fill:#ffffff">
      <path
         d="M 2.1357422,0 H 1.5908203 V -3.6123047 L 0.49804688,-3.2109375 V -3.703125 L 2.0507813,-4.2861328 h 0.084961 z"
         id="path98" />
    </g>
  </g>
</svg>
