<svg xmlns="http://www.w3.org/2000/svg" xmlns:xlink="http://www.w3.org/1999/xlink" width="549" height="229.5" viewBox="0 0 549 229.5">
  <defs>
    <clipPath id="clip-path">
      <path id="Path_725" data-name="Path 725" d="M0,0H11.75V11.75H0Z" fill="none"/>
    </clipPath>
    <clipPath id="clip-path-2">
      <rect id="Rectangle_593" data-name="Rectangle 593" width="549" height="229" rx="5" transform="translate(393 373)" fill="none" stroke="rgba(165,170,188,0.5)" stroke-width="1"/>
    </clipPath>
  </defs>
  <g id="Group_827" data-name="Group 827" transform="translate(-2542 2900)">
    <path id="Path_750" data-name="Path 750" d="M5,0H544a5,5,0,0,1,5,5V224a5,5,0,0,1-5,5H5a5,5,0,0,1-5-5V5A5,5,0,0,1,5,0Z" transform="translate(2542 -2900)" fill="#fff"/>
    <line id="Line_282" data-name="Line 282" x1="132.5" transform="translate(2542 -2826.004)" fill="none" stroke="rgba(165,170,188,0.5)" stroke-width="1"/>
    <line id="Line_283" data-name="Line 283" x1="132.5" transform="translate(2542 -2789.509)" fill="none" stroke="rgba(165,170,188,0.5)" stroke-width="1"/>
    <path id="Path_728" data-name="Path 728" d="M6.289,0H5.347V-3.286H1.763V0H.825V-7.109h.938v3.057H5.347V-7.109h.942Zm4.019-1.245,2.031-5.864h1.025L10.728,0H9.9L7.266-7.109H8.286Zm4.946-1.538V0h-.937V-7.109h2.622a3.254,3.254,0,0,1,1.069.161,2.192,2.192,0,0,1,.779.452,1.917,1.917,0,0,1,.479.688,2.271,2.271,0,0,1,.164.872,2.416,2.416,0,0,1-.164.916,1.755,1.755,0,0,1-.479.676,2.137,2.137,0,0,1-.779.417,3.61,3.61,0,0,1-1.069.144Zm0-.767h1.685a2.159,2.159,0,0,0,.706-.1,1.284,1.284,0,0,0,.483-.286,1.109,1.109,0,0,0,.276-.435,1.67,1.67,0,0,0,.088-.554,1.622,1.622,0,0,0-.088-.53,1.209,1.209,0,0,0-.276-.452,1.35,1.35,0,0,0-.483-.312,1.912,1.912,0,0,0-.706-.117H15.254Zm7.109.9H19.98v-.737h2.383Zm5.244-.381a5.918,5.918,0,0,1-.156,1.472A2.614,2.614,0,0,1,27-.593a1.65,1.65,0,0,1-.7.53,2.54,2.54,0,0,1-.93.161,2.545,2.545,0,0,1-.928-.161,1.663,1.663,0,0,1-.708-.53,2.644,2.644,0,0,1-.454-.967,5.747,5.747,0,0,1-.161-1.472V-4.116a5.743,5.743,0,0,1,.159-1.465,2.543,2.543,0,0,1,.452-.952,1.651,1.651,0,0,1,.706-.518,2.6,2.6,0,0,1,.925-.156,2.631,2.631,0,0,1,.933.156A1.648,1.648,0,0,1,27-6.533a2.517,2.517,0,0,1,.449.952,5.829,5.829,0,0,1,.156,1.465Zm-.9-1.235a5.207,5.207,0,0,0-.085-1.021,1.954,1.954,0,0,0-.256-.681,1.018,1.018,0,0,0-.422-.378,1.356,1.356,0,0,0-.579-.117,1.343,1.343,0,0,0-.574.117,1,1,0,0,0-.42.378,2.02,2.02,0,0,0-.256.681,5.067,5.067,0,0,0-.088,1.021v1.377a5.149,5.149,0,0,0,.088,1.023,2.094,2.094,0,0,0,.261.7,1.082,1.082,0,0,0,.425.4,1.256,1.256,0,0,0,.574.127,1.263,1.263,0,0,0,.581-.127,1.055,1.055,0,0,0,.417-.4,2.1,2.1,0,0,0,.251-.7A5.444,5.444,0,0,0,26.7-2.891Zm6.519,1.235a5.918,5.918,0,0,1-.156,1.472,2.614,2.614,0,0,1-.447.967,1.65,1.65,0,0,1-.7.53,2.54,2.54,0,0,1-.93.161,2.545,2.545,0,0,1-.928-.161,1.663,1.663,0,0,1-.708-.53A2.644,2.644,0,0,1,28.9-1.56a5.747,5.747,0,0,1-.161-1.472V-4.116a5.743,5.743,0,0,1,.159-1.465,2.543,2.543,0,0,1,.452-.952,1.651,1.651,0,0,1,.706-.518,2.6,2.6,0,0,1,.925-.156,2.631,2.631,0,0,1,.933.156,1.648,1.648,0,0,1,.708.518,2.517,2.517,0,0,1,.449.952,5.829,5.829,0,0,1,.156,1.465Zm-.9-1.235a5.207,5.207,0,0,0-.085-1.021,1.954,1.954,0,0,0-.256-.681,1.018,1.018,0,0,0-.422-.378,1.356,1.356,0,0,0-.579-.117,1.343,1.343,0,0,0-.574.117,1,1,0,0,0-.42.378,2.02,2.02,0,0,0-.256.681,5.067,5.067,0,0,0-.088,1.021v1.377a5.149,5.149,0,0,0,.088,1.023,2.094,2.094,0,0,0,.261.7,1.082,1.082,0,0,0,.425.4,1.256,1.256,0,0,0,.574.127,1.263,1.263,0,0,0,.581-.127,1.055,1.055,0,0,0,.417-.4,2.1,2.1,0,0,0,.251-.7,5.444,5.444,0,0,0,.083-1.023ZM37.349,0H36.44V-6.021l-1.821.669v-.82l2.588-.972h.142Zm5.615,0h-.908V-6.021l-1.821.669v-.82l2.588-.972h.142Z" transform="translate(2580 -2875.748)" fill="#0c2339"/>
    <rect id="Rectangle_585" data-name="Rectangle 585" width="132" height="36" transform="translate(2543 -2862)" fill="#e5f4ff"/>
    <path id="Path_729" data-name="Path 729" d="M6.289,0H5.347V-3.286H1.763V0H.825V-7.109h.938v3.057H5.347V-7.109h.942Zm4.019-1.245,2.031-5.864h1.025L10.728,0H9.9L7.266-7.109H8.286Zm4.946-1.538V0h-.937V-7.109h2.622a3.254,3.254,0,0,1,1.069.161,2.192,2.192,0,0,1,.779.452,1.917,1.917,0,0,1,.479.688,2.271,2.271,0,0,1,.164.872,2.416,2.416,0,0,1-.164.916,1.755,1.755,0,0,1-.479.676,2.137,2.137,0,0,1-.779.417,3.61,3.61,0,0,1-1.069.144Zm0-.767h1.685a2.159,2.159,0,0,0,.706-.1,1.284,1.284,0,0,0,.483-.286,1.109,1.109,0,0,0,.276-.435,1.67,1.67,0,0,0,.088-.554,1.622,1.622,0,0,0-.088-.53,1.209,1.209,0,0,0-.276-.452,1.35,1.35,0,0,0-.483-.312,1.912,1.912,0,0,0-.706-.117H15.254Zm7.109.9H19.98v-.737h2.383Zm5.244-.381a5.918,5.918,0,0,1-.156,1.472A2.614,2.614,0,0,1,27-.593a1.65,1.65,0,0,1-.7.53,2.54,2.54,0,0,1-.93.161,2.545,2.545,0,0,1-.928-.161,1.663,1.663,0,0,1-.708-.53,2.644,2.644,0,0,1-.454-.967,5.747,5.747,0,0,1-.161-1.472V-4.116a5.743,5.743,0,0,1,.159-1.465,2.543,2.543,0,0,1,.452-.952,1.651,1.651,0,0,1,.706-.518,2.6,2.6,0,0,1,.925-.156,2.631,2.631,0,0,1,.933.156A1.648,1.648,0,0,1,27-6.533a2.517,2.517,0,0,1,.449.952,5.829,5.829,0,0,1,.156,1.465Zm-.9-1.235a5.207,5.207,0,0,0-.085-1.021,1.954,1.954,0,0,0-.256-.681,1.018,1.018,0,0,0-.422-.378,1.356,1.356,0,0,0-.579-.117,1.343,1.343,0,0,0-.574.117,1,1,0,0,0-.42.378,2.02,2.02,0,0,0-.256.681,5.067,5.067,0,0,0-.088,1.021v1.377a5.149,5.149,0,0,0,.088,1.023,2.094,2.094,0,0,0,.261.7,1.082,1.082,0,0,0,.425.4,1.256,1.256,0,0,0,.574.127,1.263,1.263,0,0,0,.581-.127,1.055,1.055,0,0,0,.417-.4,2.1,2.1,0,0,0,.251-.7A5.444,5.444,0,0,0,26.7-2.891Zm6.519,1.235a5.918,5.918,0,0,1-.156,1.472,2.614,2.614,0,0,1-.447.967,1.65,1.65,0,0,1-.7.53,2.54,2.54,0,0,1-.93.161,2.545,2.545,0,0,1-.928-.161,1.663,1.663,0,0,1-.708-.53A2.644,2.644,0,0,1,28.9-1.56a5.747,5.747,0,0,1-.161-1.472V-4.116a5.743,5.743,0,0,1,.159-1.465,2.543,2.543,0,0,1,.452-.952,1.651,1.651,0,0,1,.706-.518,2.6,2.6,0,0,1,.925-.156,2.631,2.631,0,0,1,.933.156,1.648,1.648,0,0,1,.708.518,2.517,2.517,0,0,1,.449.952,5.829,5.829,0,0,1,.156,1.465Zm-.9-1.235a5.207,5.207,0,0,0-.085-1.021,1.954,1.954,0,0,0-.256-.681,1.018,1.018,0,0,0-.422-.378,1.356,1.356,0,0,0-.579-.117,1.343,1.343,0,0,0-.574.117,1,1,0,0,0-.42.378,2.02,2.02,0,0,0-.256.681,5.067,5.067,0,0,0-.088,1.021v1.377a5.149,5.149,0,0,0,.088,1.023,2.094,2.094,0,0,0,.261.7,1.082,1.082,0,0,0,.425.4,1.256,1.256,0,0,0,.574.127,1.263,1.263,0,0,0,.581-.127,1.055,1.055,0,0,0,.417-.4,2.1,2.1,0,0,0,.251-.7,5.444,5.444,0,0,0,.083-1.023ZM37.349,0H36.44V-6.021l-1.821.669v-.82l2.588-.972h.142Zm7.3,0H40V-.649l2.329-2.588q.322-.356.535-.63a3.857,3.857,0,0,0,.337-.5,1.785,1.785,0,0,0,.173-.425,1.674,1.674,0,0,0,.049-.4,1.46,1.46,0,0,0-.083-.5,1.177,1.177,0,0,0-.239-.4,1.123,1.123,0,0,0-.386-.271,1.308,1.308,0,0,0-.527-.1,1.671,1.671,0,0,0-.627.107,1.2,1.2,0,0,0-.442.3,1.233,1.233,0,0,0-.264.457,1.868,1.868,0,0,0-.088.588h-.9a2.417,2.417,0,0,1,.149-.85,1.956,1.956,0,0,1,.442-.7,2.091,2.091,0,0,1,.728-.471,2.7,2.7,0,0,1,1.006-.173,2.764,2.764,0,0,1,.9.137,1.9,1.9,0,0,1,.674.388,1.679,1.679,0,0,1,.422.6,2,2,0,0,1,.146.776,1.955,1.955,0,0,1-.107.63,3.575,3.575,0,0,1-.288.632,5.173,5.173,0,0,1-.425.625q-.244.31-.513.608L41.084-.737h3.569Z" transform="translate(2580 -2839.252)" fill="#0c2339"/>
    <path id="Path_730" data-name="Path 730" d="M6.289,0H5.347V-3.286H1.763V0H.825V-7.109h.938v3.057H5.347V-7.109h.942Zm4.019-1.245,2.031-5.864h1.025L10.728,0H9.9L7.266-7.109H8.286Zm4.946-1.538V0h-.937V-7.109h2.622a3.254,3.254,0,0,1,1.069.161,2.192,2.192,0,0,1,.779.452,1.917,1.917,0,0,1,.479.688,2.271,2.271,0,0,1,.164.872,2.416,2.416,0,0,1-.164.916,1.755,1.755,0,0,1-.479.676,2.137,2.137,0,0,1-.779.417,3.61,3.61,0,0,1-1.069.144Zm0-.767h1.685a2.159,2.159,0,0,0,.706-.1,1.284,1.284,0,0,0,.483-.286,1.109,1.109,0,0,0,.276-.435,1.67,1.67,0,0,0,.088-.554,1.622,1.622,0,0,0-.088-.53,1.209,1.209,0,0,0-.276-.452,1.35,1.35,0,0,0-.483-.312,1.912,1.912,0,0,0-.706-.117H15.254Zm7.109.9H19.98v-.737h2.383Zm5.244-.381a5.918,5.918,0,0,1-.156,1.472A2.614,2.614,0,0,1,27-.593a1.65,1.65,0,0,1-.7.53,2.54,2.54,0,0,1-.93.161,2.545,2.545,0,0,1-.928-.161,1.663,1.663,0,0,1-.708-.53,2.644,2.644,0,0,1-.454-.967,5.747,5.747,0,0,1-.161-1.472V-4.116a5.743,5.743,0,0,1,.159-1.465,2.543,2.543,0,0,1,.452-.952,1.651,1.651,0,0,1,.706-.518,2.6,2.6,0,0,1,.925-.156,2.631,2.631,0,0,1,.933.156A1.648,1.648,0,0,1,27-6.533a2.517,2.517,0,0,1,.449.952,5.829,5.829,0,0,1,.156,1.465Zm-.9-1.235a5.207,5.207,0,0,0-.085-1.021,1.954,1.954,0,0,0-.256-.681,1.018,1.018,0,0,0-.422-.378,1.356,1.356,0,0,0-.579-.117,1.343,1.343,0,0,0-.574.117,1,1,0,0,0-.42.378,2.02,2.02,0,0,0-.256.681,5.067,5.067,0,0,0-.088,1.021v1.377a5.149,5.149,0,0,0,.088,1.023,2.094,2.094,0,0,0,.261.7,1.082,1.082,0,0,0,.425.4,1.256,1.256,0,0,0,.574.127,1.263,1.263,0,0,0,.581-.127,1.055,1.055,0,0,0,.417-.4,2.1,2.1,0,0,0,.251-.7A5.444,5.444,0,0,0,26.7-2.891Zm6.519,1.235a5.918,5.918,0,0,1-.156,1.472,2.614,2.614,0,0,1-.447.967,1.65,1.65,0,0,1-.7.53,2.54,2.54,0,0,1-.93.161,2.545,2.545,0,0,1-.928-.161,1.663,1.663,0,0,1-.708-.53A2.644,2.644,0,0,1,28.9-1.56a5.747,5.747,0,0,1-.161-1.472V-4.116a5.743,5.743,0,0,1,.159-1.465,2.543,2.543,0,0,1,.452-.952,1.651,1.651,0,0,1,.706-.518,2.6,2.6,0,0,1,.925-.156,2.631,2.631,0,0,1,.933.156,1.648,1.648,0,0,1,.708.518,2.517,2.517,0,0,1,.449.952,5.829,5.829,0,0,1,.156,1.465Zm-.9-1.235a5.207,5.207,0,0,0-.085-1.021,1.954,1.954,0,0,0-.256-.681,1.018,1.018,0,0,0-.422-.378,1.356,1.356,0,0,0-.579-.117,1.343,1.343,0,0,0-.574.117,1,1,0,0,0-.42.378,2.02,2.02,0,0,0-.256.681,5.067,5.067,0,0,0-.088,1.021v1.377a5.149,5.149,0,0,0,.088,1.023,2.094,2.094,0,0,0,.261.7,1.082,1.082,0,0,0,.425.4,1.256,1.256,0,0,0,.574.127,1.263,1.263,0,0,0,.581-.127,1.055,1.055,0,0,0,.417-.4,2.1,2.1,0,0,0,.251-.7,5.444,5.444,0,0,0,.083-1.023Zm5.874,1.88h.986v.737h-.986V0h-.908V-1.65H34.048v-.532l3.184-4.927h.962Zm-3.12,0h2.212V-5.874l-.107.2ZM42.964,0h-.908V-6.021l-1.821.669v-.82l2.588-.972h.142Z" transform="translate(2580 -2802.757)" fill="#0c2339"/>
    <path id="Path_749" data-name="Path 749" d="M5.049-3.032A5.918,5.918,0,0,1,4.893-1.56a2.614,2.614,0,0,1-.447.967,1.65,1.65,0,0,1-.7.53A2.54,2.54,0,0,1,2.813.1a2.545,2.545,0,0,1-.928-.161,1.663,1.663,0,0,1-.708-.53A2.644,2.644,0,0,1,.723-1.56,5.747,5.747,0,0,1,.562-3.032V-4.116A5.743,5.743,0,0,1,.72-5.581a2.543,2.543,0,0,1,.452-.952,1.651,1.651,0,0,1,.706-.518A2.6,2.6,0,0,1,2.8-7.207a2.631,2.631,0,0,1,.933.156,1.648,1.648,0,0,1,.708.518,2.517,2.517,0,0,1,.449.952,5.829,5.829,0,0,1,.156,1.465Zm-.9-1.235A5.207,5.207,0,0,0,4.06-5.288,1.954,1.954,0,0,0,3.8-5.969a1.018,1.018,0,0,0-.422-.378A1.356,1.356,0,0,0,2.8-6.465a1.343,1.343,0,0,0-.574.117,1,1,0,0,0-.42.378,2.02,2.02,0,0,0-.256.681,5.067,5.067,0,0,0-.088,1.021v1.377a5.149,5.149,0,0,0,.088,1.023,2.094,2.094,0,0,0,.261.7,1.082,1.082,0,0,0,.425.4,1.256,1.256,0,0,0,.574.127,1.263,1.263,0,0,0,.581-.127,1.055,1.055,0,0,0,.417-.4,2.1,2.1,0,0,0,.251-.7,5.444,5.444,0,0,0,.083-1.023Z" transform="translate(2714.25 -2832.004)" fill="#0c2339"/>
    <path id="Path_748" data-name="Path 748" d="M1.9-3.994h.645a1.853,1.853,0,0,0,.615-.093A1.239,1.239,0,0,0,3.6-4.343a1.047,1.047,0,0,0,.264-.386,1.309,1.309,0,0,0,.088-.486,1.29,1.29,0,0,0-.308-.93,1.246,1.246,0,0,0-.937-.32,1.537,1.537,0,0,0-.525.085,1.154,1.154,0,0,0-.405.244,1.087,1.087,0,0,0-.261.386,1.325,1.325,0,0,0-.093.505h-.9a1.888,1.888,0,0,1,.156-.767,1.851,1.851,0,0,1,.444-.623,2.119,2.119,0,0,1,.691-.42,2.494,2.494,0,0,1,.9-.154,2.816,2.816,0,0,1,.879.129,1.871,1.871,0,0,1,.676.381,1.708,1.708,0,0,1,.437.627,2.265,2.265,0,0,1,.156.874,1.461,1.461,0,0,1-.066.42,1.708,1.708,0,0,1-.2.43,1.807,1.807,0,0,1-.347.393,1.866,1.866,0,0,1-.505.305,1.9,1.9,0,0,1,.588.3,1.589,1.589,0,0,1,.378.408,1.549,1.549,0,0,1,.2.474,2.128,2.128,0,0,1,.059.488,2.179,2.179,0,0,1-.171.886,1.827,1.827,0,0,1-.474.652,2.1,2.1,0,0,1-.713.4A2.765,2.765,0,0,1,2.715.1a2.889,2.889,0,0,1-.874-.129,2.136,2.136,0,0,1-.718-.381,1.8,1.8,0,0,1-.486-.62,1.912,1.912,0,0,1-.178-.842h.908a1.325,1.325,0,0,0,.093.505,1.09,1.09,0,0,0,.269.391,1.2,1.2,0,0,0,.425.251,1.68,1.68,0,0,0,.562.088A1.82,1.82,0,0,0,3.276-.72,1.1,1.1,0,0,0,3.7-.967a1.078,1.078,0,0,0,.269-.415,1.661,1.661,0,0,0,.093-.581,1.422,1.422,0,0,0-.107-.576,1.048,1.048,0,0,0-.305-.4,1.321,1.321,0,0,0-.476-.237,2.312,2.312,0,0,0-.625-.078H1.9Z" transform="translate(2736.75 -2832.004)" fill="#0c2339"/>
    <path id="Path_747" data-name="Path 747" d="M4.131-7.114v.767H4.048a2.789,2.789,0,0,0-1.1.2,2.112,2.112,0,0,0-.747.52,2.228,2.228,0,0,0-.444.745,3.428,3.428,0,0,0-.19.869,1.743,1.743,0,0,1,.686-.491A2.3,2.3,0,0,1,3.1-4.663a1.934,1.934,0,0,1,.916.2,1.883,1.883,0,0,1,.632.532,2.255,2.255,0,0,1,.369.75,3.121,3.121,0,0,1,.12.859,3.1,3.1,0,0,1-.142.95A2.189,2.189,0,0,1,4.57-.6a1.979,1.979,0,0,1-.688.513A2.264,2.264,0,0,1,2.93.1,2.034,2.034,0,0,1,1.924-.142a2.213,2.213,0,0,1-.715-.627,2.764,2.764,0,0,1-.427-.876A3.508,3.508,0,0,1,.64-2.627v-.425A8.122,8.122,0,0,1,.7-4.045a4.832,4.832,0,0,1,.212-.947,3.7,3.7,0,0,1,.4-.84,2.634,2.634,0,0,1,.63-.674,2.9,2.9,0,0,1,.9-.447,4.074,4.074,0,0,1,1.2-.161Zm-1.187,3.2a1.4,1.4,0,0,0-.459.076,1.548,1.548,0,0,0-.4.208,1.573,1.573,0,0,0-.322.31,1.367,1.367,0,0,0-.212.383V-2.6a2.8,2.8,0,0,0,.115.842,1.917,1.917,0,0,0,.308.61,1.327,1.327,0,0,0,.442.374,1.126,1.126,0,0,0,.518.127,1.249,1.249,0,0,0,.557-.12A1.164,1.164,0,0,0,3.9-1.106a1.544,1.544,0,0,0,.256-.515,2.305,2.305,0,0,0,.088-.654,2.319,2.319,0,0,0-.081-.613,1.639,1.639,0,0,0-.242-.522,1.224,1.224,0,0,0-.405-.364A1.15,1.15,0,0,0,2.944-3.911Z" transform="translate(2759.25 -2832.004)" fill="#0c2339"/>
    <path id="Path_746" data-name="Path 746" d="M1.577-.757a3.155,3.155,0,0,0,1.206-.2,1.919,1.919,0,0,0,.75-.527,1.926,1.926,0,0,0,.388-.757,4.174,4.174,0,0,0,.132-.886,2.21,2.21,0,0,1-.676.542,1.835,1.835,0,0,1-.862.205A1.886,1.886,0,0,1,1.6-2.585a1.885,1.885,0,0,1-.63-.542,2.332,2.332,0,0,1-.366-.759,3.156,3.156,0,0,1-.12-.859A3.166,3.166,0,0,1,.63-5.7a2.306,2.306,0,0,1,.417-.784,1.947,1.947,0,0,1,.688-.527,2.231,2.231,0,0,1,.955-.193,2.058,2.058,0,0,1,1.04.247,2.093,2.093,0,0,1,.7.652,2.849,2.849,0,0,1,.4.92,4.4,4.4,0,0,1,.127,1.057V-4q0,.464-.046.94a5.081,5.081,0,0,1-.176.923,3.588,3.588,0,0,1-.361.837,2.415,2.415,0,0,1-.608.681,2.892,2.892,0,0,1-.916.459A4.3,4.3,0,0,1,1.577,0H1.489V-.757ZM2.661-3.125A1.368,1.368,0,0,0,3.105-3.2,1.473,1.473,0,0,0,3.5-3.4a1.759,1.759,0,0,0,.325-.308,1.581,1.581,0,0,0,.232-.381v-.361a2.98,2.98,0,0,0-.112-.857,2.027,2.027,0,0,0-.3-.627,1.312,1.312,0,0,0-.435-.386A1.078,1.078,0,0,0,2.7-6.455a1.2,1.2,0,0,0-.562.127,1.217,1.217,0,0,0-.413.349,1.6,1.6,0,0,0-.256.525,2.356,2.356,0,0,0-.088.659,2.443,2.443,0,0,0,.078.618,1.715,1.715,0,0,0,.237.535,1.228,1.228,0,0,0,.4.376A1.105,1.105,0,0,0,2.661-3.125Z" transform="translate(2781.75 -2832.004)" fill="#0c2339"/>
    <path id="Path_745" data-name="Path 745" d="M3.56,0H2.651V-6.021L.83-5.352v-.82l2.588-.972H3.56Zm7.3,0H6.206V-.649L8.535-3.237q.322-.356.535-.63a3.857,3.857,0,0,0,.337-.5,1.785,1.785,0,0,0,.173-.425,1.674,1.674,0,0,0,.049-.4,1.46,1.46,0,0,0-.083-.5,1.177,1.177,0,0,0-.239-.4,1.123,1.123,0,0,0-.386-.271,1.308,1.308,0,0,0-.527-.1,1.671,1.671,0,0,0-.627.107,1.2,1.2,0,0,0-.442.3,1.233,1.233,0,0,0-.264.457,1.868,1.868,0,0,0-.088.588h-.9a2.417,2.417,0,0,1,.149-.85,1.956,1.956,0,0,1,.442-.7,2.091,2.091,0,0,1,.728-.471,2.7,2.7,0,0,1,1.006-.173,2.764,2.764,0,0,1,.9.137,1.9,1.9,0,0,1,.674.388,1.679,1.679,0,0,1,.422.6,2,2,0,0,1,.146.776,1.955,1.955,0,0,1-.107.63,3.575,3.575,0,0,1-.288.632,5.173,5.173,0,0,1-.425.625q-.244.31-.513.608L7.295-.737h3.569Z" transform="translate(2801.75 -2832.004)" fill="#0c2339"/>
    <path id="Path_744" data-name="Path 744" d="M3.56,0H2.651V-6.021L.83-5.352v-.82l2.588-.972H3.56ZM6.621-3.564l.361-3.545h3.643v.835H7.749L7.534-4.336a2.5,2.5,0,0,1,.491-.21,2.252,2.252,0,0,1,.7-.1,2.216,2.216,0,0,1,.881.168A1.844,1.844,0,0,1,10.269-4a2.141,2.141,0,0,1,.42.75,3.092,3.092,0,0,1,.146.981,3.068,3.068,0,0,1-.139.945,2.071,2.071,0,0,1-.417.747,1.909,1.909,0,0,1-.7.493A2.543,2.543,0,0,1,8.584.1a2.714,2.714,0,0,1-.813-.12A2.005,2.005,0,0,1,7.09-.386,1.911,1.911,0,0,1,6.6-1a2.339,2.339,0,0,1-.234-.869h.854a1.435,1.435,0,0,0,.435.92,1.351,1.351,0,0,0,.928.31,1.376,1.376,0,0,0,.571-.112,1.158,1.158,0,0,0,.422-.322,1.444,1.444,0,0,0,.264-.51,2.327,2.327,0,0,0,.09-.671,2.012,2.012,0,0,0-.093-.62,1.447,1.447,0,0,0-.273-.5,1.276,1.276,0,0,0-.447-.334,1.443,1.443,0,0,0-.608-.122,2.136,2.136,0,0,0-.4.032,1.362,1.362,0,0,0-.3.09,1.158,1.158,0,0,0-.242.144q-.11.085-.232.188Z" transform="translate(2824.25 -2832.004)" fill="#0c2339"/>
    <path id="Path_743" data-name="Path 743" d="M3.56,0H2.651V-6.021L.83-5.352v-.82l2.588-.972H3.56Zm6.958-5.254a1.651,1.651,0,0,1-.281.947,1.91,1.91,0,0,1-.759.649,2.175,2.175,0,0,1,.5.293,1.956,1.956,0,0,1,.381.4,1.769,1.769,0,0,1,.244.486,1.811,1.811,0,0,1,.085.562,2.043,2.043,0,0,1-.173.864,1.8,1.8,0,0,1-.479.632,2.092,2.092,0,0,1-.718.388A2.912,2.912,0,0,1,8.423.1a2.936,2.936,0,0,1-.894-.132,2.062,2.062,0,0,1-.718-.388,1.808,1.808,0,0,1-.476-.632,2.043,2.043,0,0,1-.173-.864,1.86,1.86,0,0,1,.083-.562,1.834,1.834,0,0,1,.237-.488,1.849,1.849,0,0,1,.374-.4,2.124,2.124,0,0,1,.493-.293A1.863,1.863,0,0,1,6.6-4.312a1.674,1.674,0,0,1-.273-.942,2.079,2.079,0,0,1,.156-.828,1.721,1.721,0,0,1,.435-.613,1.908,1.908,0,0,1,.664-.381,2.581,2.581,0,0,1,.84-.132,2.559,2.559,0,0,1,.837.132,1.938,1.938,0,0,1,.664.381,1.707,1.707,0,0,1,.437.613A2.079,2.079,0,0,1,10.518-5.254ZM9.78-1.938a1.453,1.453,0,0,0-.1-.547A1.243,1.243,0,0,0,9.4-2.913a1.253,1.253,0,0,0-.432-.276,1.519,1.519,0,0,0-.554-.1,1.513,1.513,0,0,0-.557.1,1.207,1.207,0,0,0-.425.276,1.221,1.221,0,0,0-.271.427,1.519,1.519,0,0,0-.1.547,1.5,1.5,0,0,0,.093.547,1.114,1.114,0,0,0,.269.408,1.162,1.162,0,0,0,.427.256,1.718,1.718,0,0,0,.569.088,1.7,1.7,0,0,0,.564-.088,1.162,1.162,0,0,0,.427-.256,1.14,1.14,0,0,0,.271-.408A1.47,1.47,0,0,0,9.78-1.938Zm-.166-3.3a1.362,1.362,0,0,0-.085-.488,1.124,1.124,0,0,0-.244-.388,1.136,1.136,0,0,0-.378-.256,1.23,1.23,0,0,0-.483-.093,1.323,1.323,0,0,0-.483.085,1.083,1.083,0,0,0-.378.244,1.07,1.07,0,0,0-.244.386,1.44,1.44,0,0,0-.085.51,1.391,1.391,0,0,0,.085.5,1.092,1.092,0,0,0,.242.383,1.058,1.058,0,0,0,.376.244,1.337,1.337,0,0,0,.488.085,1.337,1.337,0,0,0,.488-.085,1.058,1.058,0,0,0,.376-.244,1.092,1.092,0,0,0,.242-.383A1.391,1.391,0,0,0,9.614-5.239Z" transform="translate(2846.75 -2832.004)" fill="#0c2339"/>
    <path id="Path_742" data-name="Path 742" d="M5.249,0H.591V-.649L2.92-3.237q.322-.356.535-.63a3.857,3.857,0,0,0,.337-.5,1.785,1.785,0,0,0,.173-.425,1.674,1.674,0,0,0,.049-.4,1.46,1.46,0,0,0-.083-.5,1.177,1.177,0,0,0-.239-.4,1.123,1.123,0,0,0-.386-.271,1.308,1.308,0,0,0-.527-.1,1.671,1.671,0,0,0-.627.107,1.2,1.2,0,0,0-.442.3,1.233,1.233,0,0,0-.264.457,1.868,1.868,0,0,0-.088.588h-.9A2.417,2.417,0,0,1,.6-5.864a1.956,1.956,0,0,1,.442-.7,2.091,2.091,0,0,1,.728-.471,2.7,2.7,0,0,1,1.006-.173,2.764,2.764,0,0,1,.9.137,1.9,1.9,0,0,1,.674.388,1.679,1.679,0,0,1,.422.6,2,2,0,0,1,.146.776,1.955,1.955,0,0,1-.107.63,3.575,3.575,0,0,1-.288.632,5.174,5.174,0,0,1-.425.625q-.244.31-.513.608L1.68-.737H5.249ZM9.175,0H8.267V-6.021l-1.821.669v-.82l2.588-.972h.142Z" transform="translate(2869.25 -2832.004)" fill="#0c2339"/>
    <path id="Path_741" data-name="Path 741" d="M5.249,0H.591V-.649L2.92-3.237q.322-.356.535-.63a3.857,3.857,0,0,0,.337-.5,1.785,1.785,0,0,0,.173-.425,1.674,1.674,0,0,0,.049-.4,1.46,1.46,0,0,0-.083-.5,1.177,1.177,0,0,0-.239-.4,1.123,1.123,0,0,0-.386-.271,1.308,1.308,0,0,0-.527-.1,1.671,1.671,0,0,0-.627.107,1.2,1.2,0,0,0-.442.3,1.233,1.233,0,0,0-.264.457,1.868,1.868,0,0,0-.088.588h-.9A2.417,2.417,0,0,1,.6-5.864a1.956,1.956,0,0,1,.442-.7,2.091,2.091,0,0,1,.728-.471,2.7,2.7,0,0,1,1.006-.173,2.764,2.764,0,0,1,.9.137,1.9,1.9,0,0,1,.674.388,1.679,1.679,0,0,1,.422.6,2,2,0,0,1,.146.776,1.955,1.955,0,0,1-.107.63,3.575,3.575,0,0,1-.288.632,5.174,5.174,0,0,1-.425.625q-.244.31-.513.608L1.68-.737H5.249ZM10.02-2.388h.986v.737H10.02V0H9.111V-1.65H5.874v-.532L9.058-7.109h.962Zm-3.12,0H9.111V-5.874L9-5.679Z" transform="translate(2891.75 -2832.004)" fill="#0c2339"/>
    <path id="Path_740" data-name="Path 740" d="M5.249,0H.591V-.649L2.92-3.237q.322-.356.535-.63a3.857,3.857,0,0,0,.337-.5,1.785,1.785,0,0,0,.173-.425,1.674,1.674,0,0,0,.049-.4,1.46,1.46,0,0,0-.083-.5,1.177,1.177,0,0,0-.239-.4,1.123,1.123,0,0,0-.386-.271,1.308,1.308,0,0,0-.527-.1,1.671,1.671,0,0,0-.627.107,1.2,1.2,0,0,0-.442.3,1.233,1.233,0,0,0-.264.457,1.868,1.868,0,0,0-.088.588h-.9A2.417,2.417,0,0,1,.6-5.864a1.956,1.956,0,0,1,.442-.7,2.091,2.091,0,0,1,.728-.471,2.7,2.7,0,0,1,1.006-.173,2.764,2.764,0,0,1,.9.137,1.9,1.9,0,0,1,.674.388,1.679,1.679,0,0,1,.422.6,2,2,0,0,1,.146.776,1.955,1.955,0,0,1-.107.63,3.575,3.575,0,0,1-.288.632,5.174,5.174,0,0,1-.425.625q-.244.31-.513.608L1.68-.737H5.249ZM10.8-6.6,7.852,0H6.9L9.839-6.367H5.991v-.742h4.8Z" transform="translate(2914.25 -2832.004)" fill="#0c2339"/>
    <path id="Path_739" data-name="Path 739" d="M1.9-3.994h.645a1.853,1.853,0,0,0,.615-.093A1.239,1.239,0,0,0,3.6-4.343a1.047,1.047,0,0,0,.264-.386,1.309,1.309,0,0,0,.088-.486,1.29,1.29,0,0,0-.308-.93,1.246,1.246,0,0,0-.937-.32,1.537,1.537,0,0,0-.525.085,1.154,1.154,0,0,0-.405.244,1.087,1.087,0,0,0-.261.386,1.325,1.325,0,0,0-.093.505h-.9a1.888,1.888,0,0,1,.156-.767,1.851,1.851,0,0,1,.444-.623,2.119,2.119,0,0,1,.691-.42,2.494,2.494,0,0,1,.9-.154,2.816,2.816,0,0,1,.879.129,1.871,1.871,0,0,1,.676.381,1.708,1.708,0,0,1,.437.627,2.265,2.265,0,0,1,.156.874,1.461,1.461,0,0,1-.066.42,1.708,1.708,0,0,1-.2.43,1.807,1.807,0,0,1-.347.393,1.866,1.866,0,0,1-.505.305,1.9,1.9,0,0,1,.588.3,1.589,1.589,0,0,1,.378.408,1.549,1.549,0,0,1,.2.474,2.128,2.128,0,0,1,.059.488,2.179,2.179,0,0,1-.171.886,1.827,1.827,0,0,1-.474.652,2.1,2.1,0,0,1-.713.4A2.765,2.765,0,0,1,2.715.1a2.889,2.889,0,0,1-.874-.129,2.136,2.136,0,0,1-.718-.381,1.8,1.8,0,0,1-.486-.62,1.912,1.912,0,0,1-.178-.842h.908a1.325,1.325,0,0,0,.093.505,1.09,1.09,0,0,0,.269.391,1.2,1.2,0,0,0,.425.251,1.68,1.68,0,0,0,.562.088A1.82,1.82,0,0,0,3.276-.72,1.1,1.1,0,0,0,3.7-.967a1.078,1.078,0,0,0,.269-.415,1.661,1.661,0,0,0,.093-.581,1.422,1.422,0,0,0-.107-.576,1.048,1.048,0,0,0-.305-.4,1.321,1.321,0,0,0-.476-.237,2.312,2.312,0,0,0-.625-.078H1.9Zm8.76.962a5.918,5.918,0,0,1-.156,1.472,2.614,2.614,0,0,1-.447.967,1.65,1.65,0,0,1-.7.53A2.54,2.54,0,0,1,8.428.1,2.545,2.545,0,0,1,7.5-.063a1.663,1.663,0,0,1-.708-.53,2.644,2.644,0,0,1-.454-.967,5.747,5.747,0,0,1-.161-1.472V-4.116a5.743,5.743,0,0,1,.159-1.465,2.543,2.543,0,0,1,.452-.952,1.651,1.651,0,0,1,.706-.518,2.6,2.6,0,0,1,.925-.156,2.631,2.631,0,0,1,.933.156,1.648,1.648,0,0,1,.708.518,2.517,2.517,0,0,1,.449.952,5.829,5.829,0,0,1,.156,1.465Zm-.9-1.235a5.207,5.207,0,0,0-.085-1.021,1.954,1.954,0,0,0-.256-.681A1.018,1.018,0,0,0,9-6.348a1.356,1.356,0,0,0-.579-.117,1.343,1.343,0,0,0-.574.117,1,1,0,0,0-.42.378,2.02,2.02,0,0,0-.256.681A5.067,5.067,0,0,0,7.08-4.268v1.377a5.149,5.149,0,0,0,.088,1.023,2.094,2.094,0,0,0,.261.7,1.082,1.082,0,0,0,.425.4,1.256,1.256,0,0,0,.574.127,1.263,1.263,0,0,0,.581-.127,1.055,1.055,0,0,0,.417-.4,2.1,2.1,0,0,0,.251-.7,5.444,5.444,0,0,0,.083-1.023Z" transform="translate(2936.75 -2832.004)" fill="#0c2339"/>
    <path id="Path_738" data-name="Path 738" d="M1.9-3.994h.645a1.853,1.853,0,0,0,.615-.093A1.239,1.239,0,0,0,3.6-4.343a1.047,1.047,0,0,0,.264-.386,1.309,1.309,0,0,0,.088-.486,1.29,1.29,0,0,0-.308-.93,1.246,1.246,0,0,0-.937-.32,1.537,1.537,0,0,0-.525.085,1.154,1.154,0,0,0-.405.244,1.087,1.087,0,0,0-.261.386,1.325,1.325,0,0,0-.093.505h-.9a1.888,1.888,0,0,1,.156-.767,1.851,1.851,0,0,1,.444-.623,2.119,2.119,0,0,1,.691-.42,2.494,2.494,0,0,1,.9-.154,2.816,2.816,0,0,1,.879.129,1.871,1.871,0,0,1,.676.381,1.708,1.708,0,0,1,.437.627,2.265,2.265,0,0,1,.156.874,1.461,1.461,0,0,1-.066.42,1.708,1.708,0,0,1-.2.43,1.807,1.807,0,0,1-.347.393,1.866,1.866,0,0,1-.505.305,1.9,1.9,0,0,1,.588.3,1.589,1.589,0,0,1,.378.408,1.549,1.549,0,0,1,.2.474,2.128,2.128,0,0,1,.059.488,2.179,2.179,0,0,1-.171.886,1.827,1.827,0,0,1-.474.652,2.1,2.1,0,0,1-.713.4A2.765,2.765,0,0,1,2.715.1a2.889,2.889,0,0,1-.874-.129,2.136,2.136,0,0,1-.718-.381,1.8,1.8,0,0,1-.486-.62,1.912,1.912,0,0,1-.178-.842h.908a1.325,1.325,0,0,0,.093.505,1.09,1.09,0,0,0,.269.391,1.2,1.2,0,0,0,.425.251,1.68,1.68,0,0,0,.562.088A1.82,1.82,0,0,0,3.276-.72,1.1,1.1,0,0,0,3.7-.967a1.078,1.078,0,0,0,.269-.415,1.661,1.661,0,0,0,.093-.581,1.422,1.422,0,0,0-.107-.576,1.048,1.048,0,0,0-.305-.4,1.321,1.321,0,0,0-.476-.237,2.312,2.312,0,0,0-.625-.078H1.9Zm5.615,0h.645a1.853,1.853,0,0,0,.615-.093,1.239,1.239,0,0,0,.439-.256,1.047,1.047,0,0,0,.264-.386,1.309,1.309,0,0,0,.088-.486,1.29,1.29,0,0,0-.308-.93,1.246,1.246,0,0,0-.937-.32,1.537,1.537,0,0,0-.525.085,1.154,1.154,0,0,0-.405.244,1.087,1.087,0,0,0-.261.386,1.325,1.325,0,0,0-.093.505h-.9a1.888,1.888,0,0,1,.156-.767,1.851,1.851,0,0,1,.444-.623,2.119,2.119,0,0,1,.691-.42,2.494,2.494,0,0,1,.9-.154,2.816,2.816,0,0,1,.879.129A1.871,1.871,0,0,1,9.88-6.7a1.708,1.708,0,0,1,.437.627,2.265,2.265,0,0,1,.156.874,1.461,1.461,0,0,1-.066.42,1.708,1.708,0,0,1-.2.43,1.807,1.807,0,0,1-.347.393,1.866,1.866,0,0,1-.505.305,1.9,1.9,0,0,1,.588.3,1.589,1.589,0,0,1,.378.408,1.548,1.548,0,0,1,.2.474,2.128,2.128,0,0,1,.059.488,2.179,2.179,0,0,1-.171.886,1.827,1.827,0,0,1-.474.652,2.1,2.1,0,0,1-.713.4A2.765,2.765,0,0,1,8.33.1a2.889,2.889,0,0,1-.874-.129,2.136,2.136,0,0,1-.718-.381,1.8,1.8,0,0,1-.486-.62,1.912,1.912,0,0,1-.178-.842h.908a1.325,1.325,0,0,0,.093.505,1.09,1.09,0,0,0,.269.391,1.2,1.2,0,0,0,.425.251A1.68,1.68,0,0,0,8.33-.64,1.82,1.82,0,0,0,8.892-.72a1.1,1.1,0,0,0,.425-.247,1.078,1.078,0,0,0,.269-.415,1.661,1.661,0,0,0,.093-.581,1.422,1.422,0,0,0-.107-.576,1.048,1.048,0,0,0-.305-.4,1.321,1.321,0,0,0-.476-.237,2.312,2.312,0,0,0-.625-.078H7.52Z" transform="translate(2959.25 -2832.004)" fill="#0c2339"/>
    <path id="Path_737" data-name="Path 737" d="M1.9-3.994h.645a1.853,1.853,0,0,0,.615-.093A1.239,1.239,0,0,0,3.6-4.343a1.047,1.047,0,0,0,.264-.386,1.309,1.309,0,0,0,.088-.486,1.29,1.29,0,0,0-.308-.93,1.246,1.246,0,0,0-.937-.32,1.537,1.537,0,0,0-.525.085,1.154,1.154,0,0,0-.405.244,1.087,1.087,0,0,0-.261.386,1.325,1.325,0,0,0-.093.505h-.9a1.888,1.888,0,0,1,.156-.767,1.851,1.851,0,0,1,.444-.623,2.119,2.119,0,0,1,.691-.42,2.494,2.494,0,0,1,.9-.154,2.816,2.816,0,0,1,.879.129,1.871,1.871,0,0,1,.676.381,1.708,1.708,0,0,1,.437.627,2.265,2.265,0,0,1,.156.874,1.461,1.461,0,0,1-.066.42,1.708,1.708,0,0,1-.2.43,1.807,1.807,0,0,1-.347.393,1.866,1.866,0,0,1-.505.305,1.9,1.9,0,0,1,.588.3,1.589,1.589,0,0,1,.378.408,1.549,1.549,0,0,1,.2.474,2.128,2.128,0,0,1,.059.488,2.179,2.179,0,0,1-.171.886,1.827,1.827,0,0,1-.474.652,2.1,2.1,0,0,1-.713.4A2.765,2.765,0,0,1,2.715.1a2.889,2.889,0,0,1-.874-.129,2.136,2.136,0,0,1-.718-.381,1.8,1.8,0,0,1-.486-.62,1.912,1.912,0,0,1-.178-.842h.908a1.325,1.325,0,0,0,.093.505,1.09,1.09,0,0,0,.269.391,1.2,1.2,0,0,0,.425.251,1.68,1.68,0,0,0,.562.088A1.82,1.82,0,0,0,3.276-.72,1.1,1.1,0,0,0,3.7-.967a1.078,1.078,0,0,0,.269-.415,1.661,1.661,0,0,0,.093-.581,1.422,1.422,0,0,0-.107-.576,1.048,1.048,0,0,0-.305-.4,1.321,1.321,0,0,0-.476-.237,2.312,2.312,0,0,0-.625-.078H1.9Zm7.842-3.12v.767H9.663a2.789,2.789,0,0,0-1.1.2,2.112,2.112,0,0,0-.747.52,2.228,2.228,0,0,0-.444.745,3.428,3.428,0,0,0-.19.869,1.743,1.743,0,0,1,.686-.491,2.3,2.3,0,0,1,.847-.154,1.934,1.934,0,0,1,.916.2,1.883,1.883,0,0,1,.632.532,2.255,2.255,0,0,1,.369.75,3.121,3.121,0,0,1,.12.859,3.1,3.1,0,0,1-.142.95,2.189,2.189,0,0,1-.42.767A1.979,1.979,0,0,1,9.5-.09,2.264,2.264,0,0,1,8.545.1,2.034,2.034,0,0,1,7.539-.142a2.213,2.213,0,0,1-.715-.627A2.764,2.764,0,0,1,6.4-1.646a3.508,3.508,0,0,1-.142-.981v-.425a8.122,8.122,0,0,1,.061-.994,4.832,4.832,0,0,1,.212-.947,3.7,3.7,0,0,1,.4-.84,2.634,2.634,0,0,1,.63-.674,2.9,2.9,0,0,1,.9-.447,4.074,4.074,0,0,1,1.2-.161ZM8.56-3.911a1.4,1.4,0,0,0-.459.076,1.548,1.548,0,0,0-.4.208,1.573,1.573,0,0,0-.322.31,1.367,1.367,0,0,0-.212.383V-2.6a2.8,2.8,0,0,0,.115.842,1.917,1.917,0,0,0,.308.61,1.327,1.327,0,0,0,.442.374,1.126,1.126,0,0,0,.518.127A1.249,1.249,0,0,0,9.1-.769a1.164,1.164,0,0,0,.413-.337,1.544,1.544,0,0,0,.256-.515,2.305,2.305,0,0,0,.088-.654,2.319,2.319,0,0,0-.081-.613,1.639,1.639,0,0,0-.242-.522,1.224,1.224,0,0,0-.405-.364A1.15,1.15,0,0,0,8.56-3.911Z" transform="translate(2981.75 -2832.004)" fill="#0c2339"/>
    <path id="Path_736" data-name="Path 736" d="M1.9-3.994h.645a1.853,1.853,0,0,0,.615-.093A1.239,1.239,0,0,0,3.6-4.343a1.047,1.047,0,0,0,.264-.386,1.309,1.309,0,0,0,.088-.486,1.29,1.29,0,0,0-.308-.93,1.246,1.246,0,0,0-.937-.32,1.537,1.537,0,0,0-.525.085,1.154,1.154,0,0,0-.405.244,1.087,1.087,0,0,0-.261.386,1.325,1.325,0,0,0-.093.505h-.9a1.888,1.888,0,0,1,.156-.767,1.851,1.851,0,0,1,.444-.623,2.119,2.119,0,0,1,.691-.42,2.494,2.494,0,0,1,.9-.154,2.816,2.816,0,0,1,.879.129,1.871,1.871,0,0,1,.676.381,1.708,1.708,0,0,1,.437.627,2.265,2.265,0,0,1,.156.874,1.461,1.461,0,0,1-.066.42,1.708,1.708,0,0,1-.2.43,1.807,1.807,0,0,1-.347.393,1.866,1.866,0,0,1-.505.305,1.9,1.9,0,0,1,.588.3,1.589,1.589,0,0,1,.378.408,1.549,1.549,0,0,1,.2.474,2.128,2.128,0,0,1,.059.488,2.179,2.179,0,0,1-.171.886,1.827,1.827,0,0,1-.474.652,2.1,2.1,0,0,1-.713.4A2.765,2.765,0,0,1,2.715.1a2.889,2.889,0,0,1-.874-.129,2.136,2.136,0,0,1-.718-.381,1.8,1.8,0,0,1-.486-.62,1.912,1.912,0,0,1-.178-.842h.908a1.325,1.325,0,0,0,.093.505,1.09,1.09,0,0,0,.269.391,1.2,1.2,0,0,0,.425.251,1.68,1.68,0,0,0,.562.088A1.82,1.82,0,0,0,3.276-.72,1.1,1.1,0,0,0,3.7-.967a1.078,1.078,0,0,0,.269-.415,1.661,1.661,0,0,0,.093-.581,1.422,1.422,0,0,0-.107-.576,1.048,1.048,0,0,0-.305-.4,1.321,1.321,0,0,0-.476-.237,2.312,2.312,0,0,0-.625-.078H1.9ZM7.192-.757A3.155,3.155,0,0,0,8.4-.955a1.919,1.919,0,0,0,.75-.527,1.926,1.926,0,0,0,.388-.757,4.174,4.174,0,0,0,.132-.886,2.21,2.21,0,0,1-.676.542,1.835,1.835,0,0,1-.862.205,1.886,1.886,0,0,1-.911-.208,1.885,1.885,0,0,1-.63-.542,2.332,2.332,0,0,1-.366-.759,3.156,3.156,0,0,1-.12-.859A3.166,3.166,0,0,1,6.245-5.7a2.306,2.306,0,0,1,.417-.784,1.947,1.947,0,0,1,.688-.527,2.231,2.231,0,0,1,.955-.193,2.058,2.058,0,0,1,1.04.247,2.093,2.093,0,0,1,.7.652,2.849,2.849,0,0,1,.4.92,4.4,4.4,0,0,1,.127,1.057V-4q0,.464-.046.94a5.081,5.081,0,0,1-.176.923,3.588,3.588,0,0,1-.361.837,2.415,2.415,0,0,1-.608.681,2.892,2.892,0,0,1-.916.459A4.3,4.3,0,0,1,7.192,0H7.1V-.757ZM8.276-3.125A1.368,1.368,0,0,0,8.721-3.2a1.473,1.473,0,0,0,.4-.205,1.759,1.759,0,0,0,.325-.308,1.581,1.581,0,0,0,.232-.381v-.361a2.98,2.98,0,0,0-.112-.857,2.027,2.027,0,0,0-.3-.627,1.312,1.312,0,0,0-.435-.386,1.078,1.078,0,0,0-.515-.132,1.2,1.2,0,0,0-.562.127,1.217,1.217,0,0,0-.413.349,1.6,1.6,0,0,0-.256.525,2.356,2.356,0,0,0-.088.659,2.443,2.443,0,0,0,.078.618,1.715,1.715,0,0,0,.237.535,1.228,1.228,0,0,0,.4.376A1.105,1.105,0,0,0,8.276-3.125Z" transform="translate(3004.25 -2832.004)" fill="#0c2339"/>
    <path id="Path_735" data-name="Path 735" d="M4.4-2.388h.986v.737H4.4V0H3.5V-1.65H.259v-.532L3.442-7.109H4.4Zm-3.12,0H3.5V-5.874l-.107.2ZM10.864,0H6.206V-.649L8.535-3.237q.322-.356.535-.63a3.857,3.857,0,0,0,.337-.5,1.785,1.785,0,0,0,.173-.425,1.674,1.674,0,0,0,.049-.4,1.46,1.46,0,0,0-.083-.5,1.177,1.177,0,0,0-.239-.4,1.123,1.123,0,0,0-.386-.271,1.308,1.308,0,0,0-.527-.1,1.671,1.671,0,0,0-.627.107,1.2,1.2,0,0,0-.442.3,1.233,1.233,0,0,0-.264.457,1.868,1.868,0,0,0-.088.588h-.9a2.417,2.417,0,0,1,.149-.85,1.956,1.956,0,0,1,.442-.7,2.091,2.091,0,0,1,.728-.471,2.7,2.7,0,0,1,1.006-.173,2.764,2.764,0,0,1,.9.137,1.9,1.9,0,0,1,.674.388,1.679,1.679,0,0,1,.422.6,2,2,0,0,1,.146.776,1.955,1.955,0,0,1-.107.63,3.575,3.575,0,0,1-.288.632,5.173,5.173,0,0,1-.425.625q-.244.31-.513.608L7.295-.737h3.569Z" transform="translate(3026.75 -2832.004)" fill="#0c2339"/>
    <path id="Path_734" data-name="Path 734" d="M4.4-2.388h.986v.737H4.4V0H3.5V-1.65H.259v-.532L3.442-7.109H4.4Zm-3.12,0H3.5V-5.874l-.107.2ZM6.621-3.564l.361-3.545h3.643v.835H7.749L7.534-4.336a2.5,2.5,0,0,1,.491-.21,2.252,2.252,0,0,1,.7-.1,2.216,2.216,0,0,1,.881.168A1.844,1.844,0,0,1,10.269-4a2.141,2.141,0,0,1,.42.75,3.092,3.092,0,0,1,.146.981,3.068,3.068,0,0,1-.139.945,2.071,2.071,0,0,1-.417.747,1.909,1.909,0,0,1-.7.493A2.543,2.543,0,0,1,8.584.1a2.714,2.714,0,0,1-.813-.12A2.005,2.005,0,0,1,7.09-.386,1.911,1.911,0,0,1,6.6-1a2.339,2.339,0,0,1-.234-.869h.854a1.435,1.435,0,0,0,.435.92,1.351,1.351,0,0,0,.928.31,1.376,1.376,0,0,0,.571-.112,1.158,1.158,0,0,0,.422-.322,1.444,1.444,0,0,0,.264-.51,2.327,2.327,0,0,0,.09-.671,2.012,2.012,0,0,0-.093-.62,1.447,1.447,0,0,0-.273-.5,1.276,1.276,0,0,0-.447-.334,1.443,1.443,0,0,0-.608-.122,2.136,2.136,0,0,0-.4.032,1.362,1.362,0,0,0-.3.09,1.158,1.158,0,0,0-.242.144q-.11.085-.232.188Z" transform="translate(3049.25 -2832.004)" fill="#0c2339"/>
    <path id="Path_733" data-name="Path 733" d="M6.367,0H5.137V-3.154H1.958V0H.723V-7.109H1.958V-4.15H5.137V-7.109h1.23Zm3.965-1.548,1.807-5.562H13.5L10.938,0h-1.2L7.192-7.109H8.545Zm5.2-1.089V0H14.3V-7.109h2.72a2.75,2.75,0,0,1,1.892.621,2.087,2.087,0,0,1,.7,1.642,2.018,2.018,0,0,1-.686,1.628A2.883,2.883,0,0,1,17-2.637Zm0-1h1.484a1.462,1.462,0,0,0,1.006-.31,1.14,1.14,0,0,0,.347-.9,1.23,1.23,0,0,0-.352-.92,1.355,1.355,0,0,0-.967-.354H15.532Zm7.344,1.089H20.313V-3.5h2.563Zm5.537-.449a3.877,3.877,0,0,1-.574,2.312A2.026,2.026,0,0,1,26.094.1a2.053,2.053,0,0,1-1.736-.759,3.713,3.713,0,0,1-.6-2.249v-1.23a3.819,3.819,0,0,1,.574-2.3,2.045,2.045,0,0,1,1.75-.767,2.057,2.057,0,0,1,1.741.747,3.7,3.7,0,0,1,.588,2.236ZM27.227-4.321a3.008,3.008,0,0,0-.273-1.467.933.933,0,0,0-.869-.466.933.933,0,0,0-.854.442,2.78,2.78,0,0,0-.288,1.379v1.611a3.086,3.086,0,0,0,.278,1.484.935.935,0,0,0,.874.488.918.918,0,0,0,.845-.452,2.9,2.9,0,0,0,.288-1.414ZM34.1-2.993a3.877,3.877,0,0,1-.574,2.312A2.026,2.026,0,0,1,31.777.1a2.053,2.053,0,0,1-1.736-.759,3.713,3.713,0,0,1-.6-2.249v-1.23a3.819,3.819,0,0,1,.574-2.3,2.045,2.045,0,0,1,1.75-.767,2.057,2.057,0,0,1,1.741.747A3.7,3.7,0,0,1,34.1-4.224ZM32.91-4.321a3.008,3.008,0,0,0-.273-1.467.933.933,0,0,0-.869-.466.933.933,0,0,0-.854.442,2.78,2.78,0,0,0-.288,1.379v1.611A3.086,3.086,0,0,0,30.9-1.338a.935.935,0,0,0,.874.488.918.918,0,0,0,.845-.452,2.9,2.9,0,0,0,.288-1.414Zm6.25,1.787h.884v.952H39.16V0H37.974V-1.582H34.9L34.868-2.3l3.066-4.8H39.16Zm-3.047,0h1.86V-5.5l-.088.156ZM44.043,0H42.861V-5.711l-1.743.594v-1l2.773-1.021h.151ZM47.3-1.25a.678.678,0,0,1,.513.188A.653.653,0,0,1,48-.591a.63.63,0,0,1-.181.461A.688.688,0,0,1,47.3.054a.69.69,0,0,1-.5-.181.619.619,0,0,1-.186-.464.653.653,0,0,1,.181-.471A.671.671,0,0,1,47.3-1.25Zm0-4.146a.678.678,0,0,1,.513.188A.653.653,0,0,1,48-4.736a.63.63,0,0,1-.181.461.688.688,0,0,1-.513.183.69.69,0,0,1-.5-.181.619.619,0,0,1-.186-.464.653.653,0,0,1,.181-.471A.671.671,0,0,1,47.3-5.4Zm9.385-.718H54.473V0H53.247V-6.113h-2.2v-1h5.64Zm1.987,1.406a1.857,1.857,0,0,1,1.47-.674q1.689,0,1.714,1.929V0H60.674V-3.408a1.043,1.043,0,0,0-.237-.774.968.968,0,0,0-.7-.227,1.143,1.143,0,0,0-1.064.635V0H57.49V-7.5h1.187ZM65.386.1a2.455,2.455,0,0,1-1.829-.71,2.577,2.577,0,0,1-.7-1.892v-.146a3.17,3.17,0,0,1,.305-1.414,2.323,2.323,0,0,1,.857-.969,2.265,2.265,0,0,1,1.23-.347,2.074,2.074,0,0,1,1.667.688A2.911,2.911,0,0,1,67.5-2.744v.479H64.053A1.587,1.587,0,0,0,64.49-1.23a1.312,1.312,0,0,0,.964.381,1.607,1.607,0,0,0,1.328-.659l.64.61a2.136,2.136,0,0,1-.847.735A2.652,2.652,0,0,1,65.386.1Zm-.142-4.526a1,1,0,0,0-.789.342,1.772,1.772,0,0,0-.383.952h2.261v-.088a1.442,1.442,0,0,0-.317-.9A.992.992,0,0,0,65.244-4.429Zm10.3,1.841a3.146,3.146,0,0,1-.557,1.956A1.783,1.783,0,0,1,73.491.1,1.8,1.8,0,0,1,72.1-.474v2.5H70.913V-5.283h1.094l.049.537a1.743,1.743,0,0,1,1.421-.635,1.8,1.8,0,0,1,1.516.72,3.23,3.23,0,0,1,.549,2Zm-1.182-.1a2.2,2.2,0,0,0-.315-1.255,1.024,1.024,0,0,0-.9-.464,1.092,1.092,0,0,0-1.045.6v2.344a1.1,1.1,0,0,0,1.055.615,1.023,1.023,0,0,0,.886-.457A2.426,2.426,0,0,0,74.36-2.69ZM79.312-4.2a2.936,2.936,0,0,0-.483-.039,1.088,1.088,0,0,0-1.1.625V0H76.543V-5.283h1.133l.029.591A1.337,1.337,0,0,1,78.9-5.381a1.111,1.111,0,0,1,.42.068Zm.352,1.509a3.115,3.115,0,0,1,.308-1.4,2.247,2.247,0,0,1,.864-.957,2.435,2.435,0,0,1,1.279-.334,2.308,2.308,0,0,1,1.736.688,2.708,2.708,0,0,1,.72,1.826l0,.278a3.143,3.143,0,0,1-.3,1.4,2.22,2.22,0,0,1-.859.952A2.453,2.453,0,0,1,82.124.1a2.292,2.292,0,0,1-1.79-.745,2.852,2.852,0,0,1-.671-1.985Zm1.187.1a2.129,2.129,0,0,0,.337,1.277,1.1,1.1,0,0,0,.938.461,1.083,1.083,0,0,0,.935-.469,2.351,2.351,0,0,0,.334-1.372,2.1,2.1,0,0,0-.344-1.27,1.1,1.1,0,0,0-.935-.469,1.089,1.089,0,0,0-.923.461A2.307,2.307,0,0,0,80.85-2.588Zm6.9,1.738a1.073,1.073,0,0,0,.737-.259.884.884,0,0,0,.313-.64h1.118a1.743,1.743,0,0,1-.308.92,2.018,2.018,0,0,1-.781.676A2.328,2.328,0,0,1,87.764.1,2.253,2.253,0,0,1,86.006-.62,2.847,2.847,0,0,1,85.356-2.6v-.122A2.8,2.8,0,0,1,86-4.656a2.232,2.232,0,0,1,1.758-.725,2.171,2.171,0,0,1,1.536.549,1.968,1.968,0,0,1,.623,1.443H88.8a1.087,1.087,0,0,0-.31-.747,1,1,0,0,0-.74-.293,1.044,1.044,0,0,0-.889.417,2.13,2.13,0,0,0-.317,1.267v.19a2.166,2.166,0,0,0,.31,1.282A1.043,1.043,0,0,0,87.749-.85ZM93.14.1a2.455,2.455,0,0,1-1.829-.71,2.577,2.577,0,0,1-.7-1.892v-.146a3.17,3.17,0,0,1,.305-1.414,2.323,2.323,0,0,1,.857-.969A2.265,2.265,0,0,1,93-5.381a2.074,2.074,0,0,1,1.667.688,2.911,2.911,0,0,1,.588,1.948v.479H91.807a1.587,1.587,0,0,0,.437,1.035,1.312,1.312,0,0,0,.964.381,1.607,1.607,0,0,0,1.328-.659l.64.61a2.136,2.136,0,0,1-.847.735A2.652,2.652,0,0,1,93.14.1ZM93-4.429a1,1,0,0,0-.789.342,1.772,1.772,0,0,0-.383.952h2.261v-.088a1.442,1.442,0,0,0-.317-.9A.992.992,0,0,0,93-4.429Zm6.143,2.993a.538.538,0,0,0-.261-.483,2.778,2.778,0,0,0-.867-.293A4.455,4.455,0,0,1,97-2.534a1.349,1.349,0,0,1-.889-1.245,1.406,1.406,0,0,1,.576-1.143,2.278,2.278,0,0,1,1.465-.459,2.37,2.37,0,0,1,1.531.469,1.487,1.487,0,0,1,.583,1.216H99.082a.731.731,0,0,0-.254-.569.973.973,0,0,0-.674-.227,1.051,1.051,0,0,0-.637.181.57.57,0,0,0-.247.483A.481.481,0,0,0,97.5-3.4a3.156,3.156,0,0,0,.928.305,4.392,4.392,0,0,1,1.1.366,1.552,1.552,0,0,1,.591.51,1.3,1.3,0,0,1,.193.723,1.377,1.377,0,0,1-.591,1.155A2.519,2.519,0,0,1,98.169.1a2.732,2.732,0,0,1-1.157-.234,1.9,1.9,0,0,1-.791-.645,1.526,1.526,0,0,1-.283-.884H97.09a.836.836,0,0,0,.317.647,1.233,1.233,0,0,0,.776.227A1.2,1.2,0,0,0,98.9-.969.552.552,0,0,0,99.141-1.436Zm5.161,0a.538.538,0,0,0-.261-.483,2.778,2.778,0,0,0-.867-.293,4.455,4.455,0,0,1-1.011-.322,1.349,1.349,0,0,1-.889-1.245,1.406,1.406,0,0,1,.576-1.143,2.278,2.278,0,0,1,1.465-.459,2.37,2.37,0,0,1,1.531.469A1.487,1.487,0,0,1,105.43-3.7h-1.187a.731.731,0,0,0-.254-.569.973.973,0,0,0-.674-.227,1.051,1.051,0,0,0-.637.181.57.57,0,0,0-.247.483.481.481,0,0,0,.229.425,3.156,3.156,0,0,0,.928.305,4.392,4.392,0,0,1,1.1.366,1.552,1.552,0,0,1,.591.51,1.3,1.3,0,0,1,.193.723,1.377,1.377,0,0,1-.591,1.155A2.519,2.519,0,0,1,103.33.1a2.732,2.732,0,0,1-1.157-.234,1.9,1.9,0,0,1-.791-.645,1.526,1.526,0,0,1-.283-.884h1.152a.836.836,0,0,0,.317.647,1.233,1.233,0,0,0,.776.227,1.2,1.2,0,0,0,.713-.178A.552.552,0,0,0,104.3-1.436ZM107.764,0h-1.187V-5.283h1.187ZM106.5-6.655a.63.63,0,0,1,.173-.454.655.655,0,0,1,.5-.181.663.663,0,0,1,.5.181.625.625,0,0,1,.176.454.61.61,0,0,1-.176.447.668.668,0,0,1-.5.178.66.66,0,0,1-.5-.178A.615.615,0,0,1,106.5-6.655Zm3.652,1.372.034.61a1.9,1.9,0,0,1,1.538-.708q1.65,0,1.68,1.89V0h-1.187V-3.423A1.088,1.088,0,0,0,112-4.167a.914.914,0,0,0-.71-.242,1.143,1.143,0,0,0-1.069.649V0h-1.187V-5.283Zm4.253,2.6a3.09,3.09,0,0,1,.579-1.965,1.857,1.857,0,0,1,1.536-.735,1.74,1.74,0,0,1,1.421.63L118-5.283h1.069V-.161a2.129,2.129,0,0,1-.647,1.641,2.464,2.464,0,0,1-1.746.6,2.814,2.814,0,0,1-1.135-.242,2.017,2.017,0,0,1-.842-.632l.562-.713a1.7,1.7,0,0,0,1.348.649,1.311,1.311,0,0,0,.933-.32,1.226,1.226,0,0,0,.342-.94V-.474A1.747,1.747,0,0,1,116.514.1,1.853,1.853,0,0,1,115-.64,3.19,3.19,0,0,1,114.409-2.681Zm1.182.1a2.127,2.127,0,0,0,.325,1.252,1.044,1.044,0,0,0,.9.457,1.142,1.142,0,0,0,1.064-.615V-3.809a1.125,1.125,0,0,0-1.055-.6,1.048,1.048,0,0,0-.911.464A2.382,2.382,0,0,0,115.591-2.578ZM125.1.1a2.455,2.455,0,0,1-1.829-.71,2.577,2.577,0,0,1-.7-1.892v-.146a3.17,3.17,0,0,1,.305-1.414,2.323,2.323,0,0,1,.857-.969,2.265,2.265,0,0,1,1.23-.347,2.074,2.074,0,0,1,1.667.688,2.911,2.911,0,0,1,.588,1.948v.479H123.77a1.587,1.587,0,0,0,.437,1.035,1.312,1.312,0,0,0,.964.381,1.607,1.607,0,0,0,1.328-.659l.64.61a2.136,2.136,0,0,1-.847.735A2.652,2.652,0,0,1,125.1.1Zm-.142-4.526a1,1,0,0,0-.789.342,1.772,1.772,0,0,0-.383.952h2.261v-.088a1.442,1.442,0,0,0-.317-.9A.992.992,0,0,0,124.961-4.429Zm4.282-.854.034.61a1.9,1.9,0,0,1,1.538-.708q1.65,0,1.68,1.89V0h-1.187V-3.423a1.088,1.088,0,0,0-.217-.745.914.914,0,0,0-.71-.242,1.143,1.143,0,0,0-1.069.649V0h-1.187V-5.283Zm4.253,2.6a3.09,3.09,0,0,1,.579-1.965,1.857,1.857,0,0,1,1.536-.735,1.74,1.74,0,0,1,1.421.63l.054-.532h1.069V-.161a2.129,2.129,0,0,1-.647,1.641,2.464,2.464,0,0,1-1.746.6,2.814,2.814,0,0,1-1.135-.242,2.017,2.017,0,0,1-.842-.632l.562-.713a1.7,1.7,0,0,0,1.348.649,1.311,1.311,0,0,0,.933-.32,1.226,1.226,0,0,0,.342-.94V-.474A1.747,1.747,0,0,1,135.6.1a1.853,1.853,0,0,1-1.516-.737A3.19,3.19,0,0,1,133.5-2.681Zm1.182.1A2.127,2.127,0,0,0,135-1.326a1.044,1.044,0,0,0,.9.457,1.142,1.142,0,0,0,1.064-.615V-3.809a1.125,1.125,0,0,0-1.055-.6,1.048,1.048,0,0,0-.911.464A2.382,2.382,0,0,0,134.678-2.578ZM140.635,0h-1.187V-5.283h1.187Zm-1.26-6.655a.63.63,0,0,1,.173-.454.655.655,0,0,1,.5-.181.663.663,0,0,1,.5.181.625.625,0,0,1,.176.454.61.61,0,0,1-.176.447.668.668,0,0,1-.5.178.66.66,0,0,1-.5-.178A.615.615,0,0,1,139.375-6.655Zm3.652,1.372.034.61a1.9,1.9,0,0,1,1.538-.708q1.65,0,1.68,1.89V0h-1.187V-3.423a1.088,1.088,0,0,0-.217-.745.914.914,0,0,0-.71-.242,1.143,1.143,0,0,0-1.069.649V0h-1.187V-5.283ZM149.814.1a2.455,2.455,0,0,1-1.829-.71,2.577,2.577,0,0,1-.7-1.892v-.146a3.17,3.17,0,0,1,.305-1.414,2.323,2.323,0,0,1,.857-.969,2.266,2.266,0,0,1,1.23-.347,2.074,2.074,0,0,1,1.667.688,2.911,2.911,0,0,1,.588,1.948v.479h-3.452a1.587,1.587,0,0,0,.437,1.035,1.312,1.312,0,0,0,.964.381,1.607,1.607,0,0,0,1.328-.659l.64.61A2.136,2.136,0,0,1,151-.164,2.652,2.652,0,0,1,149.814.1Zm-.142-4.526a1,1,0,0,0-.789.342,1.772,1.772,0,0,0-.383.952h2.261v-.088a1.442,1.442,0,0,0-.317-.9A.992.992,0,0,0,149.673-4.429Zm6.787-.854.034.552a1.9,1.9,0,0,1,1.523-.649,1.46,1.46,0,0,1,1.45.811,1.874,1.874,0,0,1,1.621-.811,1.647,1.647,0,0,1,1.3.483,2.128,2.128,0,0,1,.437,1.426V0h-1.187V-3.437a1.051,1.051,0,0,0-.22-.737.962.962,0,0,0-.728-.234.988.988,0,0,0-.662.217,1.146,1.146,0,0,0-.359.569l0,3.623h-1.187V-3.477a.846.846,0,0,0-.952-.933,1.044,1.044,0,0,0-1.011.581V0h-1.187V-5.283ZM167.246-.518A1.84,1.84,0,0,1,165.762.1a1.64,1.64,0,0,1-1.3-.5,2.139,2.139,0,0,1-.442-1.455V-5.283h1.187v3.408q0,1.006.835,1.006a1.173,1.173,0,0,0,1.167-.62V-5.283h1.187V0h-1.118Zm5.317-.918a.538.538,0,0,0-.261-.483,2.778,2.778,0,0,0-.867-.293,4.456,4.456,0,0,1-1.011-.322,1.349,1.349,0,0,1-.889-1.245,1.406,1.406,0,0,1,.576-1.143,2.278,2.278,0,0,1,1.465-.459,2.37,2.37,0,0,1,1.531.469,1.487,1.487,0,0,1,.583,1.216H172.5a.731.731,0,0,0-.254-.569.973.973,0,0,0-.674-.227,1.051,1.051,0,0,0-.637.181.57.57,0,0,0-.247.483.481.481,0,0,0,.229.425,3.156,3.156,0,0,0,.928.305,4.392,4.392,0,0,1,1.1.366,1.552,1.552,0,0,1,.591.51,1.3,1.3,0,0,1,.193.723,1.377,1.377,0,0,1-.591,1.155A2.519,2.519,0,0,1,171.592.1a2.732,2.732,0,0,1-1.157-.234,1.9,1.9,0,0,1-.791-.645,1.526,1.526,0,0,1-.283-.884h1.152a.836.836,0,0,0,.317.647,1.233,1.233,0,0,0,.776.227,1.2,1.2,0,0,0,.713-.178A.552.552,0,0,0,172.563-1.436Zm3.687-5.132v1.284h.933V-4.4h-.933v2.949a.649.649,0,0,0,.12.437.555.555,0,0,0,.427.134,1.828,1.828,0,0,0,.415-.049v.918a2.922,2.922,0,0,1-.781.112q-1.367,0-1.367-1.509V-4.4h-.869v-.879h.869V-6.567Zm8.965,3.979a3.174,3.174,0,0,1-.549,1.958A1.789,1.789,0,0,1,183.154.1a1.723,1.723,0,0,1-1.445-.669L181.65,0h-1.074V-7.5h1.187v2.725a1.717,1.717,0,0,1,1.382-.605,1.81,1.81,0,0,1,1.519.718,3.226,3.226,0,0,1,.552,2.007Zm-1.187-.1a2.243,2.243,0,0,0-.3-1.289,1.008,1.008,0,0,0-.879-.43,1.1,1.1,0,0,0-1.084.674v2.178a1.113,1.113,0,0,0,1.094.688,1,1,0,0,0,.859-.415,2.173,2.173,0,0,0,.313-1.255ZM188.535.1a2.455,2.455,0,0,1-1.829-.71,2.577,2.577,0,0,1-.7-1.892v-.146a3.17,3.17,0,0,1,.305-1.414,2.323,2.323,0,0,1,.857-.969,2.266,2.266,0,0,1,1.23-.347,2.074,2.074,0,0,1,1.667.688,2.911,2.911,0,0,1,.588,1.948v.479H187.2a1.587,1.587,0,0,0,.437,1.035,1.312,1.312,0,0,0,.964.381,1.607,1.607,0,0,0,1.328-.659l.64.61a2.136,2.136,0,0,1-.847.735A2.652,2.652,0,0,1,188.535.1Zm-.142-4.526a1,1,0,0,0-.789.342,1.772,1.772,0,0,0-.383.952h2.261v-.088a1.442,1.442,0,0,0-.317-.9A.992.992,0,0,0,188.394-4.429Zm8.872,3.911A1.84,1.84,0,0,1,195.781.1a1.64,1.64,0,0,1-1.3-.5,2.139,2.139,0,0,1-.442-1.455V-5.283h1.187v3.408q0,1.006.835,1.006a1.173,1.173,0,0,0,1.167-.62V-5.283h1.187V0h-1.118Zm6.982-2.07a3.146,3.146,0,0,1-.557,1.956A1.783,1.783,0,0,1,202.2.1a1.8,1.8,0,0,1-1.392-.571v2.5h-1.187V-5.283h1.094l.049.537a1.743,1.743,0,0,1,1.421-.635,1.8,1.8,0,0,1,1.516.72,3.23,3.23,0,0,1,.549,2Zm-1.182-.1a2.2,2.2,0,0,0-.315-1.255,1.024,1.024,0,0,0-.9-.464,1.092,1.092,0,0,0-1.045.6v2.344a1.1,1.1,0,0,0,1.055.615,1.023,1.023,0,0,0,.886-.457A2.426,2.426,0,0,0,203.066-2.69ZM210.9,0a1.831,1.831,0,0,1-.137-.493A1.847,1.847,0,0,1,209.375.1a1.864,1.864,0,0,1-1.3-.454,1.453,1.453,0,0,1-.5-1.123,1.5,1.5,0,0,1,.627-1.3A3.041,3.041,0,0,1,210-3.228h.728v-.347a.925.925,0,0,0-.229-.657.91.91,0,0,0-.7-.247,1.045,1.045,0,0,0-.664.2.627.627,0,0,0-.259.515h-1.187a1.317,1.317,0,0,1,.288-.813,1.919,1.919,0,0,1,.784-.593,2.753,2.753,0,0,1,1.106-.215,2.217,2.217,0,0,1,1.479.466,1.663,1.663,0,0,1,.566,1.311v2.383a2.7,2.7,0,0,0,.2,1.138V0Zm-1.3-.854a1.35,1.35,0,0,0,.662-.171,1.142,1.142,0,0,0,.466-.459v-1h-.64a1.749,1.749,0,0,0-.991.229.743.743,0,0,0-.332.649.693.693,0,0,0,.227.544A.879.879,0,0,0,209.595-.854Zm4.658-4.429.034.61a1.9,1.9,0,0,1,1.538-.708q1.65,0,1.68,1.89V0h-1.187V-3.423a1.088,1.088,0,0,0-.217-.745.914.914,0,0,0-.71-.242,1.143,1.143,0,0,0-1.069.649V0h-1.187V-5.283Zm4.238,2.6a3.141,3.141,0,0,1,.566-1.96,1.815,1.815,0,0,1,1.519-.74,1.724,1.724,0,0,1,1.357.586V-7.5h1.187V0h-1.074l-.059-.547A1.749,1.749,0,0,1,220.566.1a1.8,1.8,0,0,1-1.5-.747A3.256,3.256,0,0,1,218.491-2.681Zm1.187.1a2.2,2.2,0,0,0,.31,1.257,1.006,1.006,0,0,0,.881.452,1.121,1.121,0,0,0,1.064-.649V-3.774a1.1,1.1,0,0,0-1.055-.635,1.013,1.013,0,0,0-.889.457A2.449,2.449,0,0,0,219.678-2.578ZM229.614-4.2a2.936,2.936,0,0,0-.483-.039,1.088,1.088,0,0,0-1.1.625V0h-1.187V-5.283h1.133l.029.591a1.337,1.337,0,0,1,1.191-.688,1.111,1.111,0,0,1,.42.068Zm3.95,3.682A1.84,1.84,0,0,1,232.08.1a1.64,1.64,0,0,1-1.3-.5,2.139,2.139,0,0,1-.442-1.455V-5.283h1.187v3.408q0,1.006.835,1.006a1.173,1.173,0,0,0,1.167-.62V-5.283h1.187V0h-1.118Zm3.457-4.766.034.61a1.9,1.9,0,0,1,1.538-.708q1.65,0,1.68,1.89V0h-1.187V-3.423a1.088,1.088,0,0,0-.217-.745.914.914,0,0,0-.71-.242,1.143,1.143,0,0,0-1.069.649V0H235.9V-5.283Z" transform="translate(2706.457 -2875.748)" fill="#0c2339"/>
    <circle id="Ellipse_323" data-name="Ellipse 323" cx="9.5" cy="9.5" r="9.5" transform="translate(2554.75 -2888.748)" fill="#4dc0ed"/>
    <circle id="Ellipse_324" data-name="Ellipse 324" cx="9.5" cy="9.5" r="9.5" transform="translate(2555 -2852)" fill="#4dc0ed"/>
    <circle id="Ellipse_325" data-name="Ellipse 325" cx="9.5" cy="9.5" r="9.5" transform="translate(2554.75 -2815.757)" fill="#4dc0ed"/>
    <circle id="Ellipse_326" data-name="Ellipse 326" cx="9.5" cy="9.5" r="9.5" transform="translate(2681.979 -2888.748)" fill="#4dc0ed"/>
    <circle id="Ellipse_327" data-name="Ellipse 327" cx="9.5" cy="9.5" r="9.5" transform="translate(2638 -2888.748)" fill="#3cca8e"/>
    <circle id="Ellipse_328" data-name="Ellipse 328" cx="9.5" cy="9.5" r="9.5" transform="translate(2638 -2852.252)" fill="#3cca8e"/>
    <circle id="Ellipse_329" data-name="Ellipse 329" cx="9.5" cy="9.5" r="9.5" transform="translate(2638 -2815.757)" fill="#3cca8e"/>
    <text id="_1_2_3" data-name="1
 2
   3" transform="translate(2562 -2882)" fill="#fff" font-size="4" font-family="Roboto-Regular, Roboto"><tspan x="0" y="0">1</tspan><tspan x="0" y="5" xml:space="preserve"> 2</tspan><tspan x="0" y="10" xml:space="preserve">   3</tspan></text>
    <text id="_1_2_3-2" data-name="1
 2
   3" transform="translate(2562 -2846)" fill="#fff" font-size="4" font-family="Roboto-Regular, Roboto"><tspan x="0" y="0">1</tspan><tspan x="0" y="5" xml:space="preserve"> 2</tspan><tspan x="0" y="10" xml:space="preserve">   3</tspan></text>
    <g id="Refresh_icon" data-name="Refresh icon" transform="translate(1916.75 -3248.254)">
      <g id="Ellipse_32" data-name="Ellipse 32" transform="translate(1094 359.254)" fill="#fff" stroke="rgba(132,131,131,0.4)" stroke-width="0.5">
        <circle cx="9.5" cy="9.5" r="9.5" stroke="none"/>
        <circle cx="9.5" cy="9.5" r="9.25" fill="none"/>
      </g>
    </g>
    <g id="Refresh_icon-2" data-name="Refresh icon" transform="translate(1941.75 -3248.254)">
      <g id="Ellipse_32-2" data-name="Ellipse 32" transform="translate(1094 359.254)" fill="#fff" stroke="rgba(132,131,131,0.4)" stroke-width="0.5">
        <circle cx="9.5" cy="9.5" r="9.5" stroke="none"/>
        <circle cx="9.5" cy="9.5" r="9.25" fill="none"/>
      </g>
      <g id="Refresh" transform="translate(1154.334 333.881) rotate(60)">
        <g id="_x37__11_" transform="translate(0.001 57.525)">
          <g id="Group_15" data-name="Group 15" transform="translate(0 0)">
            <path id="Path_26" data-name="Path 26" d="M5,65.02a3.438,3.438,0,0,1-3.307-2.5H2.708c.1-.094.147-.22.051-.314L1.585,61.023a.252.252,0,0,0-.349,0L.071,62.208c-.138.162-.046.22.051.314h.931a4.057,4.057,0,0,0,7.4,1.193l-.588-.235A3.436,3.436,0,0,1,5,65.02Zm4.9-4.06H9.01A4.06,4.06,0,0,0,1.4,59.708l.582.233a3.438,3.438,0,0,1,6.4,1.019H7.312c-.1.094-.189.152-.051.314L8.426,62.46a.252.252,0,0,0,.349,0l1.173-1.185C10.045,61.181,9.994,61.054,9.9,60.96Z" transform="translate(-0.001 -57.525)" fill="#a5aabc"/>
          </g>
        </g>
      </g>
    </g>
    <g id="Ellipse_330" data-name="Ellipse 330" transform="translate(3060.75 -2889)" fill="#fff" stroke="rgba(132,131,131,0.4)" stroke-width="0.5">
      <circle cx="9.5" cy="9.5" r="9.5" stroke="none"/>
      <circle cx="9.5" cy="9.5" r="9.25" fill="none"/>
    </g>
    <g id="power" transform="translate(2685.145 -2885.193)">
      <path id="Path_119" data-name="Path 119" d="M7.244,3.316a.335.335,0,0,0-.366-.022Z" transform="translate(-2.835 -1.106)" fill="#fff"/>
      <path id="Path_120" data-name="Path 120" d="M16.5,3.294a.335.335,0,0,0-.458.125A.448.448,0,0,0,16,3.557l.959.036A4.6,4.6,0,0,0,16.5,3.294Z" transform="translate(-7.879 -1.106)" fill="#fff"/>
      <path id="Path_121" data-name="Path 121" d="M4.376,3.931A.335.335,0,0,0,4.5,3.474L4.46,3.416l-.05-.046-.366-.022-.027.02A8.037,8.037,0,0,0,2.9,4.275a4.482,4.482,0,0,0-1.147,3,4.584,4.584,0,0,0,9.167,0,4.482,4.482,0,0,0-1.147-3,4.588,4.588,0,0,0-.687-.627l-.959-.036a.336.336,0,0,0,.168.32,3.922,3.922,0,0,1,.978.791,3.811,3.811,0,0,1,.977,2.55,3.913,3.913,0,0,1-7.825,0A3.811,3.811,0,0,1,3.4,4.722a3.922,3.922,0,0,1,.978-.791Z" transform="translate(0 -1.16)" fill="#fff"/>
      <path id="Path_122" data-name="Path 122" d="M11.585,1.25a.335.335,0,0,1,.335.335V6.057a.335.335,0,0,1-.671,0V1.585A.335.335,0,0,1,11.585,1.25Z" transform="translate(-5.252)" fill="#fff"/>
    </g>
    <g id="power-2" data-name="power" transform="translate(2557.834 -2812.202)">
      <path id="Path_119-2" data-name="Path 119" d="M7.244,3.316a.335.335,0,0,0-.366-.022Z" transform="translate(-2.835 -1.106)" fill="#fff"/>
      <path id="Path_120-2" data-name="Path 120" d="M16.5,3.294a.335.335,0,0,0-.458.125A.448.448,0,0,0,16,3.557l.959.036A4.6,4.6,0,0,0,16.5,3.294Z" transform="translate(-7.879 -1.106)" fill="#fff"/>
      <path id="Path_121-2" data-name="Path 121" d="M4.376,3.931A.335.335,0,0,0,4.5,3.474L4.46,3.416l-.05-.046-.366-.022-.027.02A8.037,8.037,0,0,0,2.9,4.275a4.482,4.482,0,0,0-1.147,3,4.584,4.584,0,0,0,9.167,0,4.482,4.482,0,0,0-1.147-3,4.588,4.588,0,0,0-.687-.627l-.959-.036a.336.336,0,0,0,.168.32,3.922,3.922,0,0,1,.978.791,3.811,3.811,0,0,1,.977,2.55,3.913,3.913,0,0,1-7.825,0A3.811,3.811,0,0,1,3.4,4.722a3.922,3.922,0,0,1,.978-.791Z" transform="translate(0 -1.16)" fill="#fff"/>
      <path id="Path_122-2" data-name="Path 122" d="M11.585,1.25a.335.335,0,0,1,.335.335V6.057a.335.335,0,0,1-.671,0V1.585A.335.335,0,0,1,11.585,1.25Z" transform="translate(-5.252)" fill="#fff"/>
    </g>
    <g id="Rectangle_586" data-name="Rectangle 586" transform="translate(2957.936 -2889)" fill="#fff" stroke="rgba(165,170,188,0.5)" stroke-width="0.5">
      <rect width="37" height="19" rx="9.5" stroke="none"/>
      <rect x="0.25" y="0.25" width="36.5" height="18.5" rx="9.25" fill="none"/>
    </g>
    <g id="Group_823" data-name="Group 823" transform="translate(2138.936 -3273)">
      <path id="Path_207" data-name="Path 207" d="M9.5,0A9.5,9.5,0,1,1,0,9.5,9.5,9.5,0,0,1,9.5,0Z" transform="translate(815.75 384.252)" fill="#4dc0ed"/>
      <g id="power-3" data-name="power" transform="translate(818.916 387.807)">
        <path id="Path_119-3" data-name="Path 119" d="M7.244,3.316a.335.335,0,0,0-.366-.022Z" transform="translate(-2.835 -1.106)" fill="#fff"/>
        <path id="Path_120-3" data-name="Path 120" d="M16.5,3.294a.335.335,0,0,0-.458.125A.448.448,0,0,0,16,3.557l.959.036A4.6,4.6,0,0,0,16.5,3.294Z" transform="translate(-7.879 -1.106)" fill="#fff"/>
        <path id="Path_121-3" data-name="Path 121" d="M4.376,3.931A.335.335,0,0,0,4.5,3.474L4.46,3.416l-.05-.046-.366-.022-.027.02A8.037,8.037,0,0,0,2.9,4.275a4.482,4.482,0,0,0-1.147,3,4.584,4.584,0,0,0,9.167,0,4.482,4.482,0,0,0-1.147-3,4.588,4.588,0,0,0-.687-.627l-.959-.036a.336.336,0,0,0,.168.32,3.922,3.922,0,0,1,.978.791,3.811,3.811,0,0,1,.977,2.55,3.913,3.913,0,0,1-7.825,0A3.811,3.811,0,0,1,3.4,4.722a3.922,3.922,0,0,1,.978-.791Z" transform="translate(0 -1.16)" fill="#fff"/>
        <path id="Path_122-3" data-name="Path 122" d="M11.585,1.25a.335.335,0,0,1,.335.335V6.057a.335.335,0,0,1-.671,0V1.585A.335.335,0,0,1,11.585,1.25Z" transform="translate(-5.252)" fill="#fff"/>
      </g>
    </g>
    <line id="Line_284" data-name="Line 284" y1="3" x2="3" transform="translate(2976.686 -2881.5)" fill="none" stroke="#a5aabc" stroke-width="0.5"/>
    <line id="Line_285" data-name="Line 285" y1="3" x2="3" transform="translate(2989.436 -2879.25) rotate(180)" fill="none" stroke="#a5aabc" stroke-width="0.5"/>
    <line id="Line_286" data-name="Line 286" x1="3" y1="3" transform="translate(2981.436 -2881.5)" fill="none" stroke="#a5aabc" stroke-width="0.5"/>
    <g id="Ellipse_331" data-name="Ellipse 331" transform="translate(2979.186 -2884)" fill="#fff" stroke="#a5aabc" stroke-width="0.5">
      <circle cx="1.5" cy="1.5" r="1.5" stroke="none"/>
      <circle cx="1.5" cy="1.5" r="1.25" fill="none"/>
    </g>
    <g id="Ellipse_332" data-name="Ellipse 332" transform="translate(2986.936 -2876.75) rotate(180)" fill="#fff" stroke="#a5aabc" stroke-width="0.5">
      <circle cx="1.5" cy="1.5" r="1.5" stroke="none"/>
      <circle cx="1.5" cy="1.5" r="1.25" fill="none"/>
    </g>
    <g id="_x31_6-thumbtack" transform="translate(3012.571 -2887.6)">
      <path id="Path_123" data-name="Path 123" d="M11.551,6.528,8.719,3.7a.311.311,0,0,0-.45,0l-1.03,1.03a.309.309,0,0,0,0,.45l.225.225L6.5,6.367a2.941,2.941,0,0,0-2.51.386.311.311,0,0,0,0,.45L5.824,9.038,3.8,11.065a.311.311,0,0,0,0,.45.342.342,0,0,0,.45,0L6.274,9.488l1.834,1.834a.3.3,0,0,0,.45,0,2.941,2.941,0,0,0,.386-2.51l.965-.965.225.225a.311.311,0,0,0,.45,0l1.03-1.03a.486.486,0,0,0-.064-.515Z" transform="translate(0 0)" fill="#a1a1a1"/>
    </g>
    <g id="apps" transform="translate(3064.375 -2884.375)" clip-path="url(#clip-path)">
      <path id="Path_724" data-name="Path 724" d="M10.674,5.938H9.9V3.49A.491.491,0,0,0,9.406,3H7.448a.491.491,0,0,0-.49.49V5.938H6.18a.491.491,0,0,0-.348.837L8.079,9.022a.488.488,0,0,0,.69,0l2.247-2.247A.49.49,0,0,0,10.674,5.938ZM5,10.833a.491.491,0,0,0,.49.49h5.875a.49.49,0,1,0,0-.979H5.49A.491.491,0,0,0,5,10.833Z" transform="translate(-2.552 -1.531)" fill="#a1a1a1"/>
    </g>
    <line id="Line_287" data-name="Line 287" y2="229" transform="translate(2674.75 -2899.5)" fill="none" stroke="rgba(165,170,188,0.5)" stroke-width="1"/>
    <line id="Line_288" data-name="Line 288" y2="37.5" transform="translate(3003.729 -2900)" fill="none" stroke="rgba(165,170,188,0.5)" stroke-width="1"/>
    <g id="Rectangle_587" data-name="Rectangle 587" transform="translate(2542 -2900)" fill="none" stroke="rgba(165,170,188,0.5)" stroke-width="1">
      <rect width="549" height="229" rx="5" stroke="none"/>
      <rect x="0.5" y="0.5" width="548" height="228" rx="4.5" fill="none"/>
    </g>
    <line id="Line_289" data-name="Line 289" y2="59" transform="translate(2717.25 -2820.252)" fill="none" stroke="#707070" stroke-width="1"/>
    <line id="Line_290" data-name="Line 290" y2="59" transform="translate(2852.25 -2820.252)" fill="none" stroke="#707070" stroke-width="1"/>
    <line id="Line_291" data-name="Line 291" y2="59" transform="translate(2739.75 -2820.252)" fill="none" stroke="#707070" stroke-width="1"/>
    <line id="Line_292" data-name="Line 292" y2="59" transform="translate(2874.75 -2820.252)" fill="none" stroke="#707070" stroke-width="1"/>
    <line id="Line_293" data-name="Line 293" y2="59" transform="translate(2762.25 -2820.252)" fill="none" stroke="#707070" stroke-width="1"/>
    <line id="Line_294" data-name="Line 294" y2="59" transform="translate(2897.25 -2820.252)" fill="none" stroke="#707070" stroke-width="1"/>
    <line id="Line_295" data-name="Line 295" y2="59" transform="translate(2987.25 -2820.252)" fill="none" stroke="#707070" stroke-width="1"/>
    <line id="Line_296" data-name="Line 296" y2="59" transform="translate(2784.75 -2820.252)" fill="none" stroke="#707070" stroke-width="1"/>
    <line id="Line_297" data-name="Line 297" y2="59" transform="translate(2919.75 -2820.252)" fill="none" stroke="#707070" stroke-width="1"/>
    <line id="Line_298" data-name="Line 298" y2="59" transform="translate(3009.75 -2820.252)" fill="none" stroke="#707070" stroke-width="1"/>
    <line id="Line_299" data-name="Line 299" y2="59" transform="translate(2807.25 -2820.252)" fill="none" stroke="#707070" stroke-width="1"/>
    <line id="Line_300" data-name="Line 300" y2="59" transform="translate(2942.25 -2820.252)" fill="none" stroke="#707070" stroke-width="1"/>
    <line id="Line_301" data-name="Line 301" y2="59" transform="translate(3032.25 -2820.252)" fill="none" stroke="#707070" stroke-width="1"/>
    <line id="Line_302" data-name="Line 302" y2="59" transform="translate(2829.75 -2820.252)" fill="none" stroke="#707070" stroke-width="1"/>
    <line id="Line_303" data-name="Line 303" y2="59" transform="translate(2964.75 -2820.252)" fill="none" stroke="#707070" stroke-width="1"/>
    <line id="Line_304" data-name="Line 304" y2="59" transform="translate(3054.75 -2820.252)" fill="none" stroke="#707070" stroke-width="1"/>
    <g id="Rectangle_588" data-name="Rectangle 588" transform="translate(2714 -2823)" fill="none" stroke="#3cca8e" stroke-width="3" opacity="0.72">
      <rect width="353" height="62" stroke="none"/>
      <rect x="1.5" y="1.5" width="350" height="59" fill="none"/>
    </g>
    <rect id="Rectangle_589" data-name="Rectangle 589" width="3" height="26" rx="1.5" transform="translate(2741 -2801)" fill="#2c70fa"/>
    <rect id="Rectangle_590" data-name="Rectangle 590" width="3" height="26" rx="1.5" transform="translate(2915 -2801)" fill="#2c70fa"/>
    <rect id="Rectangle_591" data-name="Rectangle 591" width="173" height="18" transform="translate(2744 -2797)" fill="#2c70fa" opacity="0.32"/>
    <rect id="Rectangle_592" data-name="Rectangle 592" width="4" height="72" rx="2" transform="translate(2807 -2825)" fill="#0c2339"/>
    <g id="Group_824" data-name="Group 824" transform="translate(2190.5 -3300)">
      <g id="Ellipse_110" data-name="Ellipse 110" transform="translate(555.5 505)" fill="#fff" stroke="#1f6cb6" stroke-width="0.5">
        <circle cx="7" cy="7" r="7" stroke="none"/>
        <circle cx="7" cy="7" r="6.75" fill="none"/>
      </g>
      <g id="layer1" transform="translate(560.658 508.296)">
        <path id="path9421" d="M3.608,290.916a.337.337,0,0,0-.234.1L1.691,292.7a.337.337,0,1,0,.475.477l1.107-1.107,0,5.917a.337.337,0,1,0,.674,0l0-5.923,1.111,1.113a.338.338,0,0,0,.478-.477l-1.684-1.684a.337.337,0,0,0-.243-.1Z" transform="translate(-1.582 -290.916)" fill="#1f6cb6"/>
      </g>
    </g>
    <path id="Path_731" data-name="Path 731" d="M-7.488-11.408H-11.6V0H-13.28V-11.408h-4.1V-12.8h9.9Zm5.581,3.357Q-2.118-8.086-2.3-8.1t-.409-.013a2.362,2.362,0,0,0-1.375.369,2.242,2.242,0,0,0-.8.993V0H-6.5V-9.51h1.582l.026,1.1a2.863,2.863,0,0,1,.923-.932,2.506,2.506,0,0,1,1.345-.343,2.4,2.4,0,0,1,.4.04,1.283,1.283,0,0,1,.316.083ZM5.458-.94a3.03,3.03,0,0,1-1.134.822A4.176,4.176,0,0,1,2.672.176,3.878,3.878,0,0,1,1.4-.022,2.48,2.48,0,0,1,.413-.646a2.841,2.841,0,0,1-.637-1.1A5.159,5.159,0,0,1-.448-3.366V-9.51H1.178v6.161A3.185,3.185,0,0,0,1.327-2.29a1.719,1.719,0,0,0,.4.659,1.322,1.322,0,0,0,.563.334,2.311,2.311,0,0,0,.65.092,2.969,2.969,0,0,0,1.6-.378,2.252,2.252,0,0,0,.883-1.011V-9.51H7.04V0H5.493Zm8,1.116a4.54,4.54,0,0,1-1.8-.343,4.011,4.011,0,0,1-1.375-.954A4.214,4.214,0,0,1,9.4-2.575,5.351,5.351,0,0,1,9.1-4.421V-4.79a5.81,5.81,0,0,1,.347-2.074A4.656,4.656,0,0,1,10.371-8.4,4.009,4.009,0,0,1,11.7-9.356a3.814,3.814,0,0,1,1.556-.33,4.012,4.012,0,0,1,1.758.356,3.334,3.334,0,0,1,1.217.98,4.166,4.166,0,0,1,.708,1.477,7.146,7.146,0,0,1,.229,1.854v.729H10.723a4.072,4.072,0,0,0,.215,1.23,3,3,0,0,0,.563.993,2.674,2.674,0,0,0,.879.668,2.664,2.664,0,0,0,1.165.246A2.832,2.832,0,0,0,15-1.5a3.666,3.666,0,0,0,1.046-.932l.993.773a4.343,4.343,0,0,1-.554.681,3.777,3.777,0,0,1-.76.589,4,4,0,0,1-1,.413A4.838,4.838,0,0,1,13.456.176Zm-.2-8.525a2.24,2.24,0,0,0-.905.18,2.253,2.253,0,0,0-.738.523,2.815,2.815,0,0,0-.541.853,4.321,4.321,0,0,0-.294,1.169h4.764v-.123a4.5,4.5,0,0,0-.154-.94,2.554,2.554,0,0,0-.4-.835,2.038,2.038,0,0,0-.69-.6A2.174,2.174,0,0,0,13.254-8.35ZM-43.137,22h-1.7l-6.442-9.861V22h-1.7V9.2h1.7l6.46,9.905V9.2h1.679Zm2.312-4.843a5.878,5.878,0,0,1,.3-1.92,4.64,4.64,0,0,1,.861-1.534,3.942,3.942,0,0,1,1.358-1.02,4.229,4.229,0,0,1,1.793-.369,4.3,4.3,0,0,1,1.815.369,3.975,3.975,0,0,1,1.367,1.02,4.539,4.539,0,0,1,.861,1.534,5.957,5.957,0,0,1,.3,1.92v.193a5.957,5.957,0,0,1-.3,1.92,4.49,4.49,0,0,1-.861,1.529,3.963,3.963,0,0,1-1.362,1.011,4.3,4.3,0,0,1-1.8.365,4.3,4.3,0,0,1-1.8-.365A3.963,3.963,0,0,1-39.656,20.8a4.548,4.548,0,0,1-.866-1.529,5.878,5.878,0,0,1-.3-1.92Zm1.635.193a5.252,5.252,0,0,0,.167,1.345,3.42,3.42,0,0,0,.505,1.112,2.525,2.525,0,0,0,.844.76,2.392,2.392,0,0,0,1.182.281,2.4,2.4,0,0,0,1.178-.281,2.471,2.471,0,0,0,.844-.76,3.547,3.547,0,0,0,.505-1.112,5.125,5.125,0,0,0,.171-1.345v-.193a5.139,5.139,0,0,0-.171-1.34,3.484,3.484,0,0,0-.51-1.116,2.556,2.556,0,0,0-.848-.765,2.387,2.387,0,0,0-1.187-.286,2.319,2.319,0,0,0-1.169.286,2.585,2.585,0,0,0-.839.765,3.416,3.416,0,0,0-.505,1.116,5.267,5.267,0,0,0-.167,1.34Zm11.268-7.163v2.3h1.775v1.257h-1.775v5.9a1.656,1.656,0,0,0,.088.593.852.852,0,0,0,.233.347.743.743,0,0,0,.334.163,1.9,1.9,0,0,0,.391.04,2.456,2.456,0,0,0,.426-.04q.224-.04.347-.066V22q-.193.053-.5.114a3.876,3.876,0,0,1-.747.062,2.777,2.777,0,0,1-.848-.127,1.709,1.709,0,0,1-.7-.426,2.1,2.1,0,0,1-.475-.787,3.564,3.564,0,0,1-.176-1.2V13.747H-31.28V12.49h1.731v-2.3ZM-19.538,22V9.2h4.184a7.116,7.116,0,0,1,1.758.2,3.566,3.566,0,0,1,1.314.615,2.7,2.7,0,0,1,.826,1.059,3.764,3.764,0,0,1,.286,1.538,2.6,2.6,0,0,1-.51,1.586,3.3,3.3,0,0,1-1.389,1.068,3.128,3.128,0,0,1,.954.439,2.9,2.9,0,0,1,.7.686,2.984,2.984,0,0,1,.435.888,3.521,3.521,0,0,1,.149,1.028,3.909,3.909,0,0,1-.3,1.586,3.174,3.174,0,0,1-.857,1.16,3.689,3.689,0,0,1-1.336.708,5.981,5.981,0,0,1-1.74.237Zm1.688-5.985V20.62h2.786a3.287,3.287,0,0,0,1.077-.163,2.276,2.276,0,0,0,.8-.457,1.926,1.926,0,0,0,.5-.721,2.536,2.536,0,0,0,.171-.954,3.075,3.075,0,0,0-.141-.958,1.783,1.783,0,0,0-.444-.729,2.028,2.028,0,0,0-.769-.461,3.369,3.369,0,0,0-1.107-.163Zm0-1.354H-15.3a3.307,3.307,0,0,0,.993-.141,2.263,2.263,0,0,0,.769-.4,1.8,1.8,0,0,0,.5-.646,2.05,2.05,0,0,0,.176-.866,1.824,1.824,0,0,0-.615-1.534,3.026,3.026,0,0,0-1.872-.479h-2.5Zm13.86-.712q-.211-.035-.391-.048t-.409-.013a2.362,2.362,0,0,0-1.375.369,2.242,2.242,0,0,0-.8.993V22H-8.587V12.49H-7l.026,1.1a2.863,2.863,0,0,1,.923-.932,2.506,2.506,0,0,1,1.345-.343,2.4,2.4,0,0,1,.4.04,1.283,1.283,0,0,1,.316.083Zm5.273,8.227a4.54,4.54,0,0,1-1.8-.343,4.011,4.011,0,0,1-1.375-.954,4.214,4.214,0,0,1-.879-1.455,5.351,5.351,0,0,1-.308-1.846V17.21a5.81,5.81,0,0,1,.347-2.074A4.656,4.656,0,0,1-1.8,13.6a4.009,4.009,0,0,1,1.327-.954,3.814,3.814,0,0,1,1.556-.33,4.012,4.012,0,0,1,1.758.356,3.334,3.334,0,0,1,1.217.98,4.166,4.166,0,0,1,.708,1.477,7.146,7.146,0,0,1,.229,1.854v.729H-1.45a4.072,4.072,0,0,0,.215,1.23,3,3,0,0,0,.563.993,2.674,2.674,0,0,0,.879.668,2.664,2.664,0,0,0,1.165.246A2.832,2.832,0,0,0,2.83,20.5a3.666,3.666,0,0,0,1.046-.932l.993.773a4.343,4.343,0,0,1-.554.681,3.777,3.777,0,0,1-.76.589,4,4,0,0,1-1,.413A4.838,4.838,0,0,1,1.283,22.176Zm-.2-8.525a2.24,2.24,0,0,0-.905.18,2.253,2.253,0,0,0-.738.523,2.815,2.815,0,0,0-.541.853A4.321,4.321,0,0,0-1.4,16.375H3.366v-.123a4.5,4.5,0,0,0-.154-.94,2.554,2.554,0,0,0-.4-.835,2.038,2.038,0,0,0-.69-.6A2.174,2.174,0,0,0,1.081,13.65ZM12.744,22a1.761,1.761,0,0,1-.141-.444q-.053-.268-.088-.558a4.33,4.33,0,0,1-.514.453,3.683,3.683,0,0,1-.624.378,3.553,3.553,0,0,1-.734.255,3.665,3.665,0,0,1-.835.092,3.785,3.785,0,0,1-1.323-.22,3.081,3.081,0,0,1-1.011-.6,2.633,2.633,0,0,1-.646-.892,2.685,2.685,0,0,1-.229-1.1,2.924,2.924,0,0,1,.3-1.349,2.691,2.691,0,0,1,.857-.98,4.041,4.041,0,0,1,1.349-.6,7.14,7.14,0,0,1,1.767-.2h1.617v-.747a1.826,1.826,0,0,0-.51-1.358,2.049,2.049,0,0,0-1.5-.505,2.686,2.686,0,0,0-.835.123,2.128,2.128,0,0,0-.646.33,1.536,1.536,0,0,0-.417.479,1.172,1.172,0,0,0-.149.571H6.794a2.123,2.123,0,0,1,.268-1.011,2.965,2.965,0,0,1,.76-.9,4.023,4.023,0,0,1,1.191-.65,4.6,4.6,0,0,1,1.56-.25,4.921,4.921,0,0,1,1.428.2,3.048,3.048,0,0,1,1.121.6,2.763,2.763,0,0,1,.729,1,3.437,3.437,0,0,1,.264,1.4v4.421a6.551,6.551,0,0,0,.083,1.015,3.818,3.818,0,0,0,.25.918V22Zm-2.7-1.239a2.709,2.709,0,0,0,.826-.123,3.085,3.085,0,0,0,.7-.321,2.618,2.618,0,0,0,.549-.453,2.217,2.217,0,0,0,.365-.527V17.386H11.136a4.364,4.364,0,0,0-2.153.435,1.42,1.42,0,0,0-.756,1.314,1.781,1.781,0,0,0,.114.642,1.345,1.345,0,0,0,.347.514,1.726,1.726,0,0,0,.571.343A2.226,2.226,0,0,0,10.046,20.761Zm10.433.088a2.448,2.448,0,0,0,.826-.141,2.345,2.345,0,0,0,.7-.387,2.006,2.006,0,0,0,.492-.584A1.818,1.818,0,0,0,22.72,19h1.538a2.84,2.84,0,0,1-.347,1.208,3.534,3.534,0,0,1-.822,1.011,4.045,4.045,0,0,1-1.182.694,3.935,3.935,0,0,1-1.428.259,4.268,4.268,0,0,1-1.868-.382,3.789,3.789,0,0,1-1.323-1.033,4.373,4.373,0,0,1-.787-1.512,6.279,6.279,0,0,1-.259-1.819v-.369a6.279,6.279,0,0,1,.259-1.819,4.373,4.373,0,0,1,.787-1.512A3.8,3.8,0,0,1,18.606,12.7a4.239,4.239,0,0,1,1.863-.382,4.169,4.169,0,0,1,1.516.264,3.639,3.639,0,0,1,1.178.725,3.314,3.314,0,0,1,.778,1.094,3.771,3.771,0,0,1,.316,1.362H22.72a2.476,2.476,0,0,0-.207-.822,2.179,2.179,0,0,0-.461-.668,2.154,2.154,0,0,0-.69-.453,2.294,2.294,0,0,0-.892-.167,2.4,2.4,0,0,0-1.252.3,2.362,2.362,0,0,0-.8.787,3.293,3.293,0,0,0-.426,1.1,6.194,6.194,0,0,0-.123,1.226v.369a6.282,6.282,0,0,0,.123,1.244,3.3,3.3,0,0,0,.422,1.094,2.324,2.324,0,0,0,.8.782A2.438,2.438,0,0,0,20.479,20.849Zm7.233-7.207a3.647,3.647,0,0,1,1.222-.976,3.544,3.544,0,0,1,1.591-.352,3.931,3.931,0,0,1,1.257.189,2.311,2.311,0,0,1,.958.606,2.807,2.807,0,0,1,.611,1.072,5.115,5.115,0,0,1,.215,1.586V22H31.939V15.751a3.174,3.174,0,0,0-.123-.945,1.559,1.559,0,0,0-.365-.637,1.438,1.438,0,0,0-.6-.36,2.69,2.69,0,0,0-.822-.114,2.347,2.347,0,0,0-1.389.422,2.865,2.865,0,0,0-.932,1.107V22H26.086V8.5h1.626Zm12.234,8.534a4.54,4.54,0,0,1-1.8-.343,4.011,4.011,0,0,1-1.375-.954,4.214,4.214,0,0,1-.879-1.455,5.351,5.351,0,0,1-.308-1.846V17.21a5.81,5.81,0,0,1,.347-2.074,4.656,4.656,0,0,1,.927-1.538,4.009,4.009,0,0,1,1.327-.954,3.814,3.814,0,0,1,1.556-.33,4.012,4.012,0,0,1,1.758.356,3.334,3.334,0,0,1,1.217.98,4.166,4.166,0,0,1,.708,1.477,7.146,7.146,0,0,1,.229,1.854v.729H37.213a4.072,4.072,0,0,0,.215,1.23,3,3,0,0,0,.563.993,2.619,2.619,0,0,0,2.043.914,2.832,2.832,0,0,0,1.459-.352,3.666,3.666,0,0,0,1.046-.932l.993.773a4.343,4.343,0,0,1-.554.681,3.777,3.777,0,0,1-.76.589,4,4,0,0,1-1,.413A4.838,4.838,0,0,1,39.946,22.176Zm-.2-8.525a2.193,2.193,0,0,0-1.644.7,2.815,2.815,0,0,0-.541.853,4.321,4.321,0,0,0-.294,1.169h4.764v-.123a4.5,4.5,0,0,0-.154-.94,2.554,2.554,0,0,0-.4-.835,2.038,2.038,0,0,0-.69-.6A2.174,2.174,0,0,0,39.744,13.65Zm5.4,3.516a6.871,6.871,0,0,1,.268-1.982,4.675,4.675,0,0,1,.76-1.529,3.475,3.475,0,0,1,1.182-.989,3.348,3.348,0,0,1,1.542-.352,3.657,3.657,0,0,1,1.521.294,3.211,3.211,0,0,1,1.125.848V8.5h1.626V22H51.671l-.079-1.02a3.178,3.178,0,0,1-1.143.888,3.731,3.731,0,0,1-1.573.308,3.243,3.243,0,0,1-1.525-.36,3.529,3.529,0,0,1-1.182-1.006,4.794,4.794,0,0,1-.76-1.529,6.618,6.618,0,0,1-.268-1.929Zm1.626.185a5.949,5.949,0,0,0,.145,1.34,3.323,3.323,0,0,0,.453,1.094,2.3,2.3,0,0,0,.782.738,2.24,2.24,0,0,0,1.134.272,2.734,2.734,0,0,0,.773-.1,2.263,2.263,0,0,0,.62-.286,2.342,2.342,0,0,0,.492-.439,2.979,2.979,0,0,0,.374-.562V15.039a3.108,3.108,0,0,0-.369-.536,2.267,2.267,0,0,0-.488-.426,2.344,2.344,0,0,0-.62-.281,2.7,2.7,0,0,0-.765-.1,2.254,2.254,0,0,0-1.147.277,2.3,2.3,0,0,0-.787.751,3.426,3.426,0,0,0-.453,1.1,5.949,5.949,0,0,0-.145,1.34Z" transform="translate(2875 -2730)" fill="#3cca8e"/>
    <path id="Path_732" data-name="Path 732" d="M-98.977-.767h3.369V0h-4.312V-7.109h.942ZM-91.418,0A.978.978,0,0,1-91.5-.247q-.029-.149-.049-.31a2.4,2.4,0,0,1-.286.251,2.046,2.046,0,0,1-.347.21,1.974,1.974,0,0,1-.408.142A2.036,2.036,0,0,1-93.049.1a2.1,2.1,0,0,1-.735-.122,1.712,1.712,0,0,1-.562-.332,1.463,1.463,0,0,1-.359-.5,1.492,1.492,0,0,1-.127-.613,1.624,1.624,0,0,1,.166-.75,1.5,1.5,0,0,1,.476-.544,2.245,2.245,0,0,1,.75-.332,3.967,3.967,0,0,1,.981-.112h.9v-.415a1.015,1.015,0,0,0-.283-.754,1.138,1.138,0,0,0-.835-.281,1.492,1.492,0,0,0-.464.068A1.182,1.182,0,0,0-93.5-4.4a.854.854,0,0,0-.232.266.651.651,0,0,0-.083.317h-.908a1.179,1.179,0,0,1,.149-.562,1.647,1.647,0,0,1,.422-.5,2.235,2.235,0,0,1,.662-.361,2.555,2.555,0,0,1,.867-.139,2.734,2.734,0,0,1,.793.11,1.693,1.693,0,0,1,.623.332,1.535,1.535,0,0,1,.405.554,1.91,1.91,0,0,1,.146.776v2.456a3.639,3.639,0,0,0,.046.564,2.121,2.121,0,0,0,.139.51V0Zm-1.5-.688a1.505,1.505,0,0,0,.459-.068,1.714,1.714,0,0,0,.391-.178,1.454,1.454,0,0,0,.305-.251,1.231,1.231,0,0,0,.2-.293V-2.563h-.752a2.425,2.425,0,0,0-1.2.242.789.789,0,0,0-.42.73.99.99,0,0,0,.063.356.747.747,0,0,0,.193.286.959.959,0,0,0,.317.19A1.237,1.237,0,0,0-92.917-.688Zm6.753-.713a.852.852,0,0,0-.044-.276.581.581,0,0,0-.173-.244,1.3,1.3,0,0,0-.369-.212,3.809,3.809,0,0,0-.63-.181,5.964,5.964,0,0,1-.791-.22,2.42,2.42,0,0,1-.6-.305,1.258,1.258,0,0,1-.378-.422,1.184,1.184,0,0,1-.132-.571,1.319,1.319,0,0,1,.139-.593,1.519,1.519,0,0,1,.393-.493,1.925,1.925,0,0,1,.615-.337,2.462,2.462,0,0,1,.806-.125,2.58,2.58,0,0,1,.847.129,1.931,1.931,0,0,1,.635.354,1.515,1.515,0,0,1,.4.525,1.531,1.531,0,0,1,.137.642h-.908a.79.79,0,0,0-.073-.325.885.885,0,0,0-.215-.293,1.108,1.108,0,0,0-.347-.21,1.289,1.289,0,0,0-.474-.081,1.532,1.532,0,0,0-.481.066.948.948,0,0,0-.325.176.675.675,0,0,0-.186.249.729.729,0,0,0-.059.286.68.68,0,0,0,.049.264.5.5,0,0,0,.186.212,1.516,1.516,0,0,0,.374.176,5.935,5.935,0,0,0,.613.164,5.925,5.925,0,0,1,.84.254,2.293,2.293,0,0,1,.591.33,1.217,1.217,0,0,1,.349.432,1.318,1.318,0,0,1,.115.566,1.4,1.4,0,0,1-.144.635,1.408,1.408,0,0,1-.413.493,2.025,2.025,0,0,1-.645.32A2.853,2.853,0,0,1-87.3.1a2.715,2.715,0,0,1-.93-.146A2.083,2.083,0,0,1-88.9-.437a1.645,1.645,0,0,1-.415-.552,1.519,1.519,0,0,1-.142-.637h.9a.948.948,0,0,0,.134.466,1,1,0,0,0,.3.305,1.216,1.216,0,0,0,.4.166,1.933,1.933,0,0,0,.43.049A1.825,1.825,0,0,0-86.809-.7a1.129,1.129,0,0,0,.354-.161.694.694,0,0,0,.217-.242A.635.635,0,0,0-86.165-1.4Zm3.306-5.161v1.279h.986v.7h-.986v3.276a.92.92,0,0,0,.049.33.473.473,0,0,0,.129.193A.413.413,0,0,0-82.5-.7a1.058,1.058,0,0,0,.217.022A1.364,1.364,0,0,0-82.041-.7q.125-.022.193-.037V0q-.107.029-.278.063A2.153,2.153,0,0,1-82.542.1a1.543,1.543,0,0,1-.471-.071A.949.949,0,0,1-83.4-.21a1.166,1.166,0,0,1-.264-.437,1.98,1.98,0,0,1-.1-.667V-4.585h-.962v-.7h.962V-6.562Zm10.127,3.237a4.689,4.689,0,0,1-.2,1.433,3.165,3.165,0,0,1-.574,1.077,2.455,2.455,0,0,1-.9.679A2.866,2.866,0,0,1-75.583.1a2.817,2.817,0,0,1-1.157-.234,2.544,2.544,0,0,1-.908-.679,3.165,3.165,0,0,1-.591-1.077,4.537,4.537,0,0,1-.21-1.433v-.449a4.566,4.566,0,0,1,.21-1.433,3.206,3.206,0,0,1,.586-1.082,2.524,2.524,0,0,1,.9-.681,2.792,2.792,0,0,1,1.157-.237,2.858,2.858,0,0,1,1.179.237,2.5,2.5,0,0,1,.9.681,3.135,3.135,0,0,1,.576,1.082,4.719,4.719,0,0,1,.2,1.433Zm-.933-.459a4.4,4.4,0,0,0-.129-1.123,2.36,2.36,0,0,0-.378-.82,1.627,1.627,0,0,0-.608-.5,1.868,1.868,0,0,0-.813-.171,1.806,1.806,0,0,0-.791.171,1.652,1.652,0,0,0-.608.5,2.43,2.43,0,0,0-.388.82,4.177,4.177,0,0,0-.137,1.123v.459A4.128,4.128,0,0,0-77.378-2.2a2.463,2.463,0,0,0,.393.823,1.664,1.664,0,0,0,.61.505,1.806,1.806,0,0,0,.791.171,1.864,1.864,0,0,0,.815-.171,1.6,1.6,0,0,0,.6-.505,2.382,2.382,0,0,0,.374-.823,4.5,4.5,0,0,0,.127-1.128Zm6.67,1.2a3.983,3.983,0,0,1-.137,1.072,2.6,2.6,0,0,1-.4.85,1.875,1.875,0,0,1-.645.559,1.84,1.84,0,0,1-.869.2,2.066,2.066,0,0,1-.9-.183,1.778,1.778,0,0,1-.645-.525l-.044.61h-.83V-7.5h.9v2.8a1.792,1.792,0,0,1,.635-.5,2.023,2.023,0,0,1,.874-.176,1.915,1.915,0,0,1,.881.2,1.818,1.818,0,0,1,.645.549,2.564,2.564,0,0,1,.4.85,4.137,4.137,0,0,1,.137,1.1Zm-.9-.1a3.622,3.622,0,0,0-.073-.745,1.888,1.888,0,0,0-.237-.613,1.22,1.22,0,0,0-.427-.417,1.26,1.26,0,0,0-.645-.154,1.483,1.483,0,0,0-.449.063,1.293,1.293,0,0,0-.359.176,1.286,1.286,0,0,0-.276.264,1.761,1.761,0,0,0-.2.327V-1.5a1.887,1.887,0,0,0,.208.327,1.338,1.338,0,0,0,.278.264,1.293,1.293,0,0,0,.359.176,1.483,1.483,0,0,0,.449.063,1.218,1.218,0,0,0,.625-.151,1.248,1.248,0,0,0,.425-.41,1.874,1.874,0,0,0,.244-.608,3.4,3.4,0,0,0,.078-.745ZM-62.781-1.4a.852.852,0,0,0-.044-.276A.581.581,0,0,0-63-1.921a1.3,1.3,0,0,0-.369-.212A3.809,3.809,0,0,0-64-2.314a5.964,5.964,0,0,1-.791-.22,2.42,2.42,0,0,1-.6-.305,1.258,1.258,0,0,1-.378-.422,1.184,1.184,0,0,1-.132-.571,1.319,1.319,0,0,1,.139-.593,1.519,1.519,0,0,1,.393-.493,1.925,1.925,0,0,1,.615-.337,2.462,2.462,0,0,1,.806-.125,2.58,2.58,0,0,1,.847.129,1.931,1.931,0,0,1,.635.354,1.515,1.515,0,0,1,.4.525,1.531,1.531,0,0,1,.137.642h-.908a.79.79,0,0,0-.073-.325.885.885,0,0,0-.215-.293,1.108,1.108,0,0,0-.347-.21,1.289,1.289,0,0,0-.474-.081,1.532,1.532,0,0,0-.481.066.948.948,0,0,0-.325.176.675.675,0,0,0-.186.249.729.729,0,0,0-.059.286.68.68,0,0,0,.049.264.5.5,0,0,0,.186.212,1.516,1.516,0,0,0,.374.176,5.935,5.935,0,0,0,.613.164,5.925,5.925,0,0,1,.84.254,2.293,2.293,0,0,1,.591.33,1.217,1.217,0,0,1,.349.432,1.318,1.318,0,0,1,.115.566,1.4,1.4,0,0,1-.144.635,1.408,1.408,0,0,1-.413.493,2.025,2.025,0,0,1-.645.32A2.853,2.853,0,0,1-63.914.1a2.715,2.715,0,0,1-.93-.146,2.083,2.083,0,0,1-.676-.388,1.645,1.645,0,0,1-.415-.552,1.519,1.519,0,0,1-.142-.637h.9a.948.948,0,0,0,.134.466,1,1,0,0,0,.3.305,1.216,1.216,0,0,0,.4.166,1.933,1.933,0,0,0,.43.049A1.825,1.825,0,0,0-63.425-.7a1.129,1.129,0,0,0,.354-.161.694.694,0,0,0,.217-.242A.635.635,0,0,0-62.781-1.4ZM-58.508.1a2.522,2.522,0,0,1-1-.19,2.229,2.229,0,0,1-.764-.53,2.341,2.341,0,0,1-.488-.808,2.973,2.973,0,0,1-.171-1.025v-.205a3.228,3.228,0,0,1,.193-1.152,2.587,2.587,0,0,1,.515-.854,2.227,2.227,0,0,1,.737-.53,2.119,2.119,0,0,1,.864-.183,2.229,2.229,0,0,1,.977.2,1.852,1.852,0,0,1,.676.544,2.314,2.314,0,0,1,.393.82,3.97,3.97,0,0,1,.127,1.03v.405h-3.579a2.262,2.262,0,0,0,.12.684,1.667,1.667,0,0,0,.313.552,1.485,1.485,0,0,0,.488.371,1.48,1.48,0,0,0,.647.137,1.573,1.573,0,0,0,.811-.2,2.037,2.037,0,0,0,.581-.518l.552.43a2.413,2.413,0,0,1-.308.378,2.1,2.1,0,0,1-.422.327A2.222,2.222,0,0,1-57.8.012,2.688,2.688,0,0,1-58.508.1Zm-.112-4.736a1.244,1.244,0,0,0-.5.1,1.252,1.252,0,0,0-.41.291,1.564,1.564,0,0,0-.3.474A2.4,2.4,0,0,0-60-3.125h2.646v-.068a2.5,2.5,0,0,0-.085-.522,1.419,1.419,0,0,0-.22-.464,1.132,1.132,0,0,0-.383-.332A1.208,1.208,0,0,0-58.621-4.639Zm5.771.166q-.117-.02-.217-.027t-.227-.007a1.312,1.312,0,0,0-.764.205,1.246,1.246,0,0,0-.442.552V0h-.9V-5.283h.879l.015.61A1.59,1.59,0,0,1-54-5.19a1.392,1.392,0,0,1,.747-.19,1.335,1.335,0,0,1,.225.022.713.713,0,0,1,.176.046Zm2.661,3.247,1.309-4.058h.923L-49.851,0h-.688l-1.914-5.283h.923ZM-44.958.1a2.522,2.522,0,0,1-1-.19,2.229,2.229,0,0,1-.764-.53,2.341,2.341,0,0,1-.488-.808,2.973,2.973,0,0,1-.171-1.025v-.205a3.228,3.228,0,0,1,.193-1.152,2.587,2.587,0,0,1,.515-.854,2.227,2.227,0,0,1,.737-.53,2.119,2.119,0,0,1,.864-.183,2.229,2.229,0,0,1,.977.2,1.852,1.852,0,0,1,.676.544,2.314,2.314,0,0,1,.393.82,3.97,3.97,0,0,1,.127,1.03v.405h-3.579a2.262,2.262,0,0,0,.12.684,1.667,1.667,0,0,0,.313.552,1.485,1.485,0,0,0,.488.371,1.48,1.48,0,0,0,.647.137,1.573,1.573,0,0,0,.811-.2,2.037,2.037,0,0,0,.581-.518l.552.43a2.413,2.413,0,0,1-.308.378,2.1,2.1,0,0,1-.422.327,2.222,2.222,0,0,1-.554.229A2.688,2.688,0,0,1-44.958.1Zm-.112-4.736a1.244,1.244,0,0,0-.5.1,1.252,1.252,0,0,0-.41.291,1.564,1.564,0,0,0-.3.474,2.4,2.4,0,0,0-.164.649H-43.8v-.068a2.5,2.5,0,0,0-.085-.522,1.419,1.419,0,0,0-.22-.464,1.132,1.132,0,0,0-.383-.332A1.208,1.208,0,0,0-45.071-4.639Zm3,1.953a3.817,3.817,0,0,1,.149-1.1,2.6,2.6,0,0,1,.422-.85,1.931,1.931,0,0,1,.657-.549,1.86,1.86,0,0,1,.857-.2,2.032,2.032,0,0,1,.845.164,1.784,1.784,0,0,1,.625.471V-7.5h.9V0h-.83l-.044-.566a1.765,1.765,0,0,1-.635.493A2.073,2.073,0,0,1-40,.1a1.8,1.8,0,0,1-.847-.2A1.96,1.96,0,0,1-41.5-.662a2.663,2.663,0,0,1-.422-.85,3.677,3.677,0,0,1-.149-1.072Zm.9.1a3.3,3.3,0,0,0,.081.745,1.846,1.846,0,0,0,.251.608,1.277,1.277,0,0,0,.435.41,1.245,1.245,0,0,0,.63.151,1.519,1.519,0,0,0,.43-.056A1.257,1.257,0,0,0-39-.884a1.3,1.3,0,0,0,.273-.244,1.655,1.655,0,0,0,.208-.312V-3.867a1.727,1.727,0,0,0-.205-.3,1.26,1.26,0,0,0-.271-.237,1.3,1.3,0,0,0-.344-.156,1.5,1.5,0,0,0-.425-.056,1.252,1.252,0,0,0-.637.154,1.276,1.276,0,0,0-.437.417,1.9,1.9,0,0,0-.251.613,3.3,3.3,0,0,0-.081.745Zm4.927,2.109A.566.566,0,0,1-36.1-.864a.53.53,0,0,1,.417-.156.546.546,0,0,1,.422.156.554.554,0,0,1,.144.391.524.524,0,0,1-.144.376.556.556,0,0,1-.422.151A.54.54,0,0,1-36.1-.1.535.535,0,0,1-36.243-.474Zm0-4.312a.566.566,0,0,1,.139-.391.53.53,0,0,1,.417-.156.546.546,0,0,1,.422.156.554.554,0,0,1,.144.391.524.524,0,0,1-.144.376.556.556,0,0,1-.422.151.54.54,0,0,1-.417-.151A.535.535,0,0,1-36.238-4.785Zm2.412,1.9a7.5,7.5,0,0,1,.112-1.331,7.265,7.265,0,0,1,.3-1.15,6.088,6.088,0,0,1,.435-.962,5.806,5.806,0,0,1,.513-.767,4.516,4.516,0,0,1,.532-.566,2.775,2.775,0,0,1,.5-.361l.186.6a3.212,3.212,0,0,0-.583.605,4.5,4.5,0,0,0-.54.95,6.736,6.736,0,0,0-.4,1.306,8.263,8.263,0,0,0-.154,1.67v.068a8.263,8.263,0,0,0,.154,1.67,6.8,6.8,0,0,0,.4,1.309,4.741,4.741,0,0,0,.54.962,3.535,3.535,0,0,0,.583.63l-.186.552a2.948,2.948,0,0,1-.5-.361,4.333,4.333,0,0,1-.535-.569A6.113,6.113,0,0,1-32.979.6a5.9,5.9,0,0,1-.435-.957,7.28,7.28,0,0,1-.3-1.147,7.483,7.483,0,0,1-.112-1.333ZM-26.443-1.8a1.184,1.184,0,0,0-.076-.439.876.876,0,0,0-.269-.349,2.139,2.139,0,0,0-.52-.3,7.6,7.6,0,0,0-.83-.286,7.051,7.051,0,0,1-.955-.344,3.136,3.136,0,0,1-.728-.444,1.792,1.792,0,0,1-.461-.574,1.627,1.627,0,0,1-.161-.737,1.725,1.725,0,0,1,.173-.769,1.838,1.838,0,0,1,.491-.615,2.335,2.335,0,0,1,.762-.408,3.154,3.154,0,0,1,.991-.146,2.958,2.958,0,0,1,1.069.181,2.417,2.417,0,0,1,.789.479,2,2,0,0,1,.486.688,2.04,2.04,0,0,1,.166.806h-.942a1.559,1.559,0,0,0-.1-.552,1.16,1.16,0,0,0-.291-.439,1.34,1.34,0,0,0-.488-.288,2.1,2.1,0,0,0-.693-.1,2.18,2.18,0,0,0-.654.088,1.305,1.305,0,0,0-.459.242.96.96,0,0,0-.269.364,1.177,1.177,0,0,0-.088.459.885.885,0,0,0,.1.41,1.045,1.045,0,0,0,.3.342,2.25,2.25,0,0,0,.515.288,6.441,6.441,0,0,0,.754.254,6.772,6.772,0,0,1,1.045.378,2.864,2.864,0,0,1,.725.471,1.716,1.716,0,0,1,.425.591,1.88,1.88,0,0,1,.139.742,1.733,1.733,0,0,1-.176.786,1.72,1.72,0,0,1-.5.6,2.367,2.367,0,0,1-.781.383A3.6,3.6,0,0,1-27.976.1,3.56,3.56,0,0,1-28.63.037a3.239,3.239,0,0,1-.627-.183,2.779,2.779,0,0,1-.557-.3,2.151,2.151,0,0,1-.447-.42,1.88,1.88,0,0,1-.3-.537,1.916,1.916,0,0,1-.107-.654h.942a1.281,1.281,0,0,0,.144.627A1.278,1.278,0,0,0-29.194-1a1.672,1.672,0,0,0,.557.251,2.66,2.66,0,0,0,.662.081,1.843,1.843,0,0,0,1.138-.3A.983.983,0,0,0-26.443-1.8ZM-22.249.1a2.522,2.522,0,0,1-1-.19,2.229,2.229,0,0,1-.764-.53,2.341,2.341,0,0,1-.488-.808,2.973,2.973,0,0,1-.171-1.025v-.205a3.228,3.228,0,0,1,.193-1.152,2.587,2.587,0,0,1,.515-.854,2.227,2.227,0,0,1,.737-.53,2.119,2.119,0,0,1,.864-.183,2.229,2.229,0,0,1,.977.2,1.852,1.852,0,0,1,.676.544,2.314,2.314,0,0,1,.393.82,3.97,3.97,0,0,1,.127,1.03v.405h-3.579a2.262,2.262,0,0,0,.12.684,1.667,1.667,0,0,0,.313.552,1.485,1.485,0,0,0,.488.371A1.48,1.48,0,0,0-22.2-.64a1.573,1.573,0,0,0,.811-.2,2.037,2.037,0,0,0,.581-.518l.552.43a2.413,2.413,0,0,1-.308.378,2.1,2.1,0,0,1-.422.327,2.222,2.222,0,0,1-.554.229A2.688,2.688,0,0,1-22.249.1Zm-.112-4.736a1.244,1.244,0,0,0-.5.1,1.252,1.252,0,0,0-.41.291,1.564,1.564,0,0,0-.3.474,2.4,2.4,0,0,0-.164.649h2.646v-.068a2.5,2.5,0,0,0-.085-.522,1.419,1.419,0,0,0-.22-.464,1.132,1.132,0,0,0-.383-.332A1.208,1.208,0,0,0-22.361-4.639Zm7.681,2.056a3.983,3.983,0,0,1-.137,1.072,2.627,2.627,0,0,1-.4.85,1.853,1.853,0,0,1-.642.559,1.84,1.84,0,0,1-.869.2A2.246,2.246,0,0,1-17.6-.059a1.777,1.777,0,0,1-.642-.454V2.031h-.9V-5.283h.825l.044.586a1.791,1.791,0,0,1,.649-.508,2.089,2.089,0,0,1,.884-.176,1.915,1.915,0,0,1,.881.2,1.84,1.84,0,0,1,.647.549,2.5,2.5,0,0,1,.4.85,4.208,4.208,0,0,1,.134,1.1Zm-.9-.1a3.212,3.212,0,0,0-.083-.745,1.877,1.877,0,0,0-.259-.613,1.312,1.312,0,0,0-.444-.417,1.266,1.266,0,0,0-.64-.154,1.517,1.517,0,0,0-.417.054,1.26,1.26,0,0,0-.339.151,1.264,1.264,0,0,0-.269.232,1.732,1.732,0,0,0-.205.291v2.524a1.732,1.732,0,0,0,.205.291,1.209,1.209,0,0,0,.269.229,1.3,1.3,0,0,0,.342.149A1.564,1.564,0,0,0-17-.64,1.227,1.227,0,0,0-16.367-.8a1.344,1.344,0,0,0,.442-.42,1.874,1.874,0,0,0,.259-.618,3.275,3.275,0,0,0,.083-.75Zm3.276-3.877v1.279h.986v.7h-.986v3.276a.92.92,0,0,0,.049.33.473.473,0,0,0,.129.193.413.413,0,0,0,.186.09,1.058,1.058,0,0,0,.217.022A1.364,1.364,0,0,0-11.489-.7q.125-.022.193-.037V0q-.107.029-.278.063A2.153,2.153,0,0,1-11.99.1a1.543,1.543,0,0,1-.471-.071.949.949,0,0,1-.388-.237,1.166,1.166,0,0,1-.264-.437,1.98,1.98,0,0,1-.1-.667V-4.585h-.962v-.7h.962V-6.562ZM-8.074.1a2.522,2.522,0,0,1-1-.19,2.229,2.229,0,0,1-.764-.53,2.341,2.341,0,0,1-.488-.808A2.973,2.973,0,0,1-10.5-2.456v-.205A3.228,3.228,0,0,1-10.3-3.813a2.587,2.587,0,0,1,.515-.854A2.227,2.227,0,0,1-9.05-5.2a2.119,2.119,0,0,1,.864-.183,2.229,2.229,0,0,1,.977.2,1.852,1.852,0,0,1,.676.544,2.314,2.314,0,0,1,.393.82,3.97,3.97,0,0,1,.127,1.03v.405H-9.592a2.262,2.262,0,0,0,.12.684,1.667,1.667,0,0,0,.313.552,1.485,1.485,0,0,0,.488.371,1.48,1.48,0,0,0,.647.137,1.573,1.573,0,0,0,.811-.2,2.037,2.037,0,0,0,.581-.518l.552.43a2.413,2.413,0,0,1-.308.378,2.1,2.1,0,0,1-.422.327,2.222,2.222,0,0,1-.554.229A2.688,2.688,0,0,1-8.074.1Zm-.112-4.736a1.244,1.244,0,0,0-.5.1,1.252,1.252,0,0,0-.41.291,1.564,1.564,0,0,0-.3.474,2.4,2.4,0,0,0-.164.649h2.646v-.068A2.5,2.5,0,0,0-7-3.716a1.419,1.419,0,0,0-.22-.464A1.132,1.132,0,0,0-7.6-4.512,1.208,1.208,0,0,0-8.186-4.639Zm4.067-.645.024.586a1.918,1.918,0,0,1,.662-.5,2.127,2.127,0,0,1,.906-.181,1.949,1.949,0,0,1,.906.2,1.345,1.345,0,0,1,.6.647,2,2,0,0,1,.686-.615,2.026,2.026,0,0,1,1-.234,2.36,2.36,0,0,1,.752.11,1.362,1.362,0,0,1,.554.344,1.509,1.509,0,0,1,.344.6,2.8,2.8,0,0,1,.117.859V0h-.9V-3.477a1.62,1.62,0,0,0-.081-.552.861.861,0,0,0-.227-.352.81.81,0,0,0-.356-.183A1.956,1.956,0,0,0,.4-4.614a1.294,1.294,0,0,0-.493.088,1.148,1.148,0,0,0-.369.237A1.117,1.117,0,0,0-.7-3.938a1.424,1.424,0,0,0-.115.432V0h-.908V-3.472A1.515,1.515,0,0,0-1.807-4a.9.9,0,0,0-.227-.354.893.893,0,0,0-.354-.2,1.592,1.592,0,0,0-.466-.063,1.305,1.305,0,0,0-.776.21,1.3,1.3,0,0,0-.439.547V0h-.9V-5.283Zm12.388,2.7a3.983,3.983,0,0,1-.137,1.072,2.6,2.6,0,0,1-.4.85A1.875,1.875,0,0,1,7.087-.1a1.84,1.84,0,0,1-.869.2,2.066,2.066,0,0,1-.9-.183A1.778,1.778,0,0,1,4.67-.61L4.626,0H3.8V-7.5h.9v2.8a1.792,1.792,0,0,1,.635-.5,2.023,2.023,0,0,1,.874-.176,1.915,1.915,0,0,1,.881.2,1.818,1.818,0,0,1,.645.549,2.564,2.564,0,0,1,.4.85,4.137,4.137,0,0,1,.137,1.1Zm-.9-.1a3.622,3.622,0,0,0-.073-.745,1.888,1.888,0,0,0-.237-.613,1.22,1.22,0,0,0-.427-.417,1.26,1.26,0,0,0-.645-.154,1.483,1.483,0,0,0-.449.063,1.293,1.293,0,0,0-.359.176,1.286,1.286,0,0,0-.276.264,1.761,1.761,0,0,0-.2.327V-1.5a1.887,1.887,0,0,0,.208.327,1.338,1.338,0,0,0,.278.264,1.293,1.293,0,0,0,.359.176,1.483,1.483,0,0,0,.449.063A1.218,1.218,0,0,0,6.619-.82a1.248,1.248,0,0,0,.425-.41,1.874,1.874,0,0,0,.244-.608,3.4,3.4,0,0,0,.078-.745ZM11.6.1a2.522,2.522,0,0,1-1-.19,2.229,2.229,0,0,1-.764-.53,2.341,2.341,0,0,1-.488-.808,2.973,2.973,0,0,1-.171-1.025v-.205A3.228,3.228,0,0,1,9.37-3.813a2.587,2.587,0,0,1,.515-.854,2.227,2.227,0,0,1,.737-.53,2.119,2.119,0,0,1,.864-.183,2.229,2.229,0,0,1,.977.2,1.852,1.852,0,0,1,.676.544,2.314,2.314,0,0,1,.393.82,3.97,3.97,0,0,1,.127,1.03v.405H10.081a2.262,2.262,0,0,0,.12.684,1.667,1.667,0,0,0,.313.552A1.485,1.485,0,0,0,11-.776a1.48,1.48,0,0,0,.647.137,1.573,1.573,0,0,0,.811-.2,2.037,2.037,0,0,0,.581-.518l.552.43a2.413,2.413,0,0,1-.308.378,2.1,2.1,0,0,1-.422.327,2.222,2.222,0,0,1-.554.229A2.688,2.688,0,0,1,11.6.1Zm-.112-4.736a1.244,1.244,0,0,0-.5.1,1.252,1.252,0,0,0-.41.291,1.564,1.564,0,0,0-.3.474,2.4,2.4,0,0,0-.164.649h2.646v-.068a2.5,2.5,0,0,0-.085-.522,1.419,1.419,0,0,0-.22-.464,1.132,1.132,0,0,0-.383-.332A1.208,1.208,0,0,0,11.487-4.639Zm5.771.166q-.117-.02-.217-.027t-.227-.007a1.312,1.312,0,0,0-.764.205,1.246,1.246,0,0,0-.442.552V0h-.9V-5.283h.879l.015.61a1.59,1.59,0,0,1,.513-.518,1.392,1.392,0,0,1,.747-.19,1.335,1.335,0,0,1,.225.022.713.713,0,0,1,.176.046ZM23.44,0h-.908V-6.021l-1.821.669v-.82L23.3-7.144h.142Zm7.3,0H26.086V-.649l2.329-2.588q.322-.356.535-.63a3.857,3.857,0,0,0,.337-.5,1.785,1.785,0,0,0,.173-.425,1.674,1.674,0,0,0,.049-.4,1.46,1.46,0,0,0-.083-.5,1.177,1.177,0,0,0-.239-.4,1.123,1.123,0,0,0-.386-.271,1.308,1.308,0,0,0-.527-.1,1.671,1.671,0,0,0-.627.107,1.2,1.2,0,0,0-.442.3,1.233,1.233,0,0,0-.264.457,1.868,1.868,0,0,0-.088.588h-.9a2.417,2.417,0,0,1,.149-.85,1.956,1.956,0,0,1,.442-.7,2.091,2.091,0,0,1,.728-.471,2.7,2.7,0,0,1,1.006-.173,2.764,2.764,0,0,1,.9.137,1.9,1.9,0,0,1,.674.388,1.679,1.679,0,0,1,.422.6,2,2,0,0,1,.146.776,1.955,1.955,0,0,1-.107.63,3.575,3.575,0,0,1-.288.632,5.174,5.174,0,0,1-.425.625q-.244.31-.513.608L27.175-.737h3.569Zm1.87-.347a2.009,2.009,0,0,1-.056.459,2.414,2.414,0,0,1-.166.474,2.74,2.74,0,0,1-.266.449,2,2,0,0,1-.361.381l-.513-.352A2.809,2.809,0,0,0,31.606.4a2.117,2.117,0,0,0,.125-.735v-.737h.884ZM40.8,0H36.14V-.649l2.329-2.588q.322-.356.535-.63a3.857,3.857,0,0,0,.337-.5,1.785,1.785,0,0,0,.173-.425,1.674,1.674,0,0,0,.049-.4,1.46,1.46,0,0,0-.083-.5,1.177,1.177,0,0,0-.239-.4,1.123,1.123,0,0,0-.386-.271,1.308,1.308,0,0,0-.527-.1,1.671,1.671,0,0,0-.627.107,1.2,1.2,0,0,0-.442.3,1.233,1.233,0,0,0-.264.457,1.868,1.868,0,0,0-.088.588H36a2.417,2.417,0,0,1,.149-.85,1.956,1.956,0,0,1,.442-.7,2.091,2.091,0,0,1,.728-.471,2.7,2.7,0,0,1,1.006-.173,2.764,2.764,0,0,1,.9.137,1.9,1.9,0,0,1,.674.388,1.679,1.679,0,0,1,.422.6,2,2,0,0,1,.146.776,1.955,1.955,0,0,1-.107.63,3.575,3.575,0,0,1-.288.632,5.173,5.173,0,0,1-.425.625q-.244.31-.513.608L37.229-.737H40.8Zm5.415-3.032a5.918,5.918,0,0,1-.156,1.472,2.614,2.614,0,0,1-.447.967,1.65,1.65,0,0,1-.7.53,2.54,2.54,0,0,1-.93.161,2.545,2.545,0,0,1-.928-.161,1.663,1.663,0,0,1-.708-.53,2.644,2.644,0,0,1-.454-.967,5.747,5.747,0,0,1-.161-1.472V-4.116a5.743,5.743,0,0,1,.159-1.465,2.543,2.543,0,0,1,.452-.952,1.651,1.651,0,0,1,.706-.518,2.6,2.6,0,0,1,.925-.156,2.631,2.631,0,0,1,.933.156,1.648,1.648,0,0,1,.708.518,2.517,2.517,0,0,1,.449.952,5.829,5.829,0,0,1,.156,1.465Zm-.9-1.235a5.207,5.207,0,0,0-.085-1.021,1.954,1.954,0,0,0-.256-.681,1.018,1.018,0,0,0-.422-.378,1.356,1.356,0,0,0-.579-.117,1.343,1.343,0,0,0-.574.117,1,1,0,0,0-.42.378,2.02,2.02,0,0,0-.256.681,5.067,5.067,0,0,0-.088,1.021v1.377a5.149,5.149,0,0,0,.088,1.023,2.094,2.094,0,0,0,.261.7,1.082,1.082,0,0,0,.425.4,1.256,1.256,0,0,0,.574.127,1.263,1.263,0,0,0,.581-.127,1.055,1.055,0,0,0,.417-.4,2.1,2.1,0,0,0,.251-.7,5.444,5.444,0,0,0,.083-1.023ZM52.029,0H47.371V-.649L49.7-3.237q.322-.356.535-.63a3.857,3.857,0,0,0,.337-.5,1.785,1.785,0,0,0,.173-.425,1.674,1.674,0,0,0,.049-.4,1.46,1.46,0,0,0-.083-.5,1.177,1.177,0,0,0-.239-.4,1.123,1.123,0,0,0-.386-.271,1.308,1.308,0,0,0-.527-.1,1.671,1.671,0,0,0-.627.107,1.2,1.2,0,0,0-.442.3,1.233,1.233,0,0,0-.264.457,1.868,1.868,0,0,0-.088.588h-.9a2.417,2.417,0,0,1,.149-.85,1.956,1.956,0,0,1,.442-.7,2.091,2.091,0,0,1,.728-.471,2.7,2.7,0,0,1,1.006-.173,2.764,2.764,0,0,1,.9.137,1.9,1.9,0,0,1,.674.388,1.679,1.679,0,0,1,.422.6A2,2,0,0,1,51.7-5.3a1.955,1.955,0,0,1-.107.63,3.575,3.575,0,0,1-.288.632,5.173,5.173,0,0,1-.425.625q-.244.31-.513.608L48.459-.737h3.569Zm5.615,0H52.986V-.649l2.329-2.588q.322-.356.535-.63a3.857,3.857,0,0,0,.337-.5,1.785,1.785,0,0,0,.173-.425,1.674,1.674,0,0,0,.049-.4,1.46,1.46,0,0,0-.083-.5,1.177,1.177,0,0,0-.239-.4,1.123,1.123,0,0,0-.386-.271,1.308,1.308,0,0,0-.527-.1,1.671,1.671,0,0,0-.627.107,1.2,1.2,0,0,0-.442.3,1.233,1.233,0,0,0-.264.457,1.868,1.868,0,0,0-.088.588h-.9A2.417,2.417,0,0,1,53-5.864a1.956,1.956,0,0,1,.442-.7,2.091,2.091,0,0,1,.728-.471,2.7,2.7,0,0,1,1.006-.173,2.764,2.764,0,0,1,.9.137,1.9,1.9,0,0,1,.674.388,1.679,1.679,0,0,1,.422.6,2,2,0,0,1,.146.776,1.955,1.955,0,0,1-.107.63,3.575,3.575,0,0,1-.288.632,5.173,5.173,0,0,1-.425.625q-.244.31-.513.608L54.075-.737h3.569ZM64.89-2.388h.986v.737H64.89V0h-.908V-1.65H60.745v-.532l3.184-4.927h.962Zm-3.12,0h2.212V-5.874l-.107.2ZM66.755-.474a.566.566,0,0,1,.139-.391.53.53,0,0,1,.417-.156.546.546,0,0,1,.422.156.554.554,0,0,1,.144.391.524.524,0,0,1-.144.376.556.556,0,0,1-.422.151A.54.54,0,0,1,66.895-.1.535.535,0,0,1,66.755-.474Zm0-4.312a.566.566,0,0,1,.139-.391.53.53,0,0,1,.417-.156.546.546,0,0,1,.422.156.554.554,0,0,1,.144.391.524.524,0,0,1-.144.376.556.556,0,0,1-.422.151.54.54,0,0,1-.417-.151A.535.535,0,0,1,66.76-4.785Zm6.167,2.4h.986v.737h-.986V0h-.908V-1.65H68.782v-.532l3.184-4.927h.962Zm-3.12,0h2.212V-5.874l-.107.2Zm9.38-.645a5.918,5.918,0,0,1-.156,1.472,2.614,2.614,0,0,1-.447.967,1.65,1.65,0,0,1-.7.53,2.54,2.54,0,0,1-.93.161,2.545,2.545,0,0,1-.928-.161,1.663,1.663,0,0,1-.708-.53,2.644,2.644,0,0,1-.454-.967A5.747,5.747,0,0,1,74.7-3.032V-4.116a5.743,5.743,0,0,1,.159-1.465,2.543,2.543,0,0,1,.452-.952,1.651,1.651,0,0,1,.706-.518,2.6,2.6,0,0,1,.925-.156,2.631,2.631,0,0,1,.933.156,1.648,1.648,0,0,1,.708.518,2.517,2.517,0,0,1,.449.952,5.829,5.829,0,0,1,.156,1.465Zm-.9-1.235A5.207,5.207,0,0,0,78.2-5.288a1.954,1.954,0,0,0-.256-.681,1.018,1.018,0,0,0-.422-.378,1.356,1.356,0,0,0-.579-.117,1.343,1.343,0,0,0-.574.117,1,1,0,0,0-.42.378,2.02,2.02,0,0,0-.256.681A5.067,5.067,0,0,0,75.6-4.268v1.377a5.149,5.149,0,0,0,.088,1.023,2.094,2.094,0,0,0,.261.7,1.082,1.082,0,0,0,.425.4,1.256,1.256,0,0,0,.574.127,1.263,1.263,0,0,0,.581-.127,1.055,1.055,0,0,0,.417-.4,2.1,2.1,0,0,0,.251-.7,5.444,5.444,0,0,0,.083-1.023Zm5.708,1.484V0h-.937V-7.109h2.622a3.254,3.254,0,0,1,1.069.161,2.192,2.192,0,0,1,.779.452A1.917,1.917,0,0,1,88-5.808a2.271,2.271,0,0,1,.164.872A2.416,2.416,0,0,1,88-4.021a1.755,1.755,0,0,1-.479.676,2.137,2.137,0,0,1-.779.417,3.61,3.61,0,0,1-1.069.144Zm0-.767h1.685a2.159,2.159,0,0,0,.706-.1,1.284,1.284,0,0,0,.483-.286,1.109,1.109,0,0,0,.276-.435,1.67,1.67,0,0,0,.088-.554,1.622,1.622,0,0,0-.088-.53,1.209,1.209,0,0,0-.276-.452,1.35,1.35,0,0,0-.483-.312,1.912,1.912,0,0,0-.706-.117H83.992Zm6.582-3.56,2.324,5.8,2.324-5.8h1.216V0H95.5V-2.769l.088-2.988L93.254,0h-.718L90.208-5.742,90.3-2.769V0h-.937V-7.109Zm9.463,4.272A7.483,7.483,0,0,1,99.924-1.5a7.279,7.279,0,0,1-.3,1.147A5.9,5.9,0,0,1,99.189.6a6.113,6.113,0,0,1-.513.764,4.332,4.332,0,0,1-.535.569,2.948,2.948,0,0,1-.5.361l-.19-.552a3.183,3.183,0,0,0,.586-.613,4.49,4.49,0,0,0,.54-.964,7.031,7.031,0,0,0,.4-1.318,8.336,8.336,0,0,0,.154-1.675V-2.9a7.924,7.924,0,0,0-.164-1.68A7.094,7.094,0,0,0,98.552-5.9a4.868,4.868,0,0,0-.542-.964,3.424,3.424,0,0,0-.557-.608l.19-.552a2.948,2.948,0,0,1,.5.361,4.408,4.408,0,0,1,.535.566,5.807,5.807,0,0,1,.513.767,6.088,6.088,0,0,1,.435.962,7.264,7.264,0,0,1,.3,1.15,7.5,7.5,0,0,1,.112,1.331Z" transform="translate(2875 -2689)" fill="#a1a1a1"/>
    <g id="Mask_Group_15" data-name="Mask Group 15" transform="translate(2149 -3273)" clip-path="url(#clip-path-2)">
      <line id="Line_305" data-name="Line 305" x1="549.5" transform="translate(393 410.5)" fill="none" stroke="rgba(165,170,188,0.5)" stroke-width="1"/>
    </g>
  </g>
</svg>
