<svg xmlns="http://www.w3.org/2000/svg" xmlns:xlink="http://www.w3.org/1999/xlink" width="549" height="229" viewBox="0 0 549 229">
  <defs>
    <clipPath id="clip-path">
      <path id="Path_125" data-name="Path 125" d="M0,0H11.75V11.75H0Z" fill="none"/>
    </clipPath>
    <clipPath id="clip-path-2">
      <rect id="Rectangle_45" data-name="Rectangle 45" width="549" height="229" rx="5" transform="translate(393 373)" fill="none" stroke="rgba(165,170,188,0.5)" stroke-width="1"/>
    </clipPath>
    <clipPath id="clip-path-3">
      <rect id="Rectangle_46" data-name="Rectangle 46" width="377.228" height="157.915" fill="none"/>
    </clipPath>
    <clipPath id="clip-path-5">
      <rect id="Rectangle_49" data-name="Rectangle 49" width="226.957" height="27.672" transform="translate(0 0)" fill="#fff" stroke="rgba(165,170,188,0.5)" stroke-width="1"/>
    </clipPath>
  </defs>
  <g id="Group_820" data-name="Group 820" transform="translate(-1569 471)">
    <rect id="Rectangle_36" data-name="Rectangle 36" width="549" height="229" rx="5" transform="translate(1569 -471)" fill="#fff"/>
    <path id="Path_710" data-name="Path 710" d="M6.367,0H5.137V-3.154H1.958V0H.723V-7.109H1.958V-4.15H5.137V-7.109h1.23Zm3.965-1.548,1.807-5.562H13.5L10.938,0h-1.2L7.192-7.109H8.545Zm5.2-1.089V0H14.3V-7.109h2.72a2.75,2.75,0,0,1,1.892.621,2.087,2.087,0,0,1,.7,1.642,2.018,2.018,0,0,1-.686,1.628A2.883,2.883,0,0,1,17-2.637Zm0-1h1.484a1.462,1.462,0,0,0,1.006-.31,1.14,1.14,0,0,0,.347-.9,1.23,1.23,0,0,0-.352-.92,1.355,1.355,0,0,0-.967-.354H15.532Zm7.344,1.089H20.313V-3.5h2.563Zm5.537-.449a3.877,3.877,0,0,1-.574,2.312A2.026,2.026,0,0,1,26.094.1a2.053,2.053,0,0,1-1.736-.759,3.713,3.713,0,0,1-.6-2.249v-1.23a3.819,3.819,0,0,1,.574-2.3,2.045,2.045,0,0,1,1.75-.767,2.057,2.057,0,0,1,1.741.747,3.7,3.7,0,0,1,.588,2.236ZM27.227-4.321a3.008,3.008,0,0,0-.273-1.467.933.933,0,0,0-.869-.466.933.933,0,0,0-.854.442,2.78,2.78,0,0,0-.288,1.379v1.611a3.086,3.086,0,0,0,.278,1.484.935.935,0,0,0,.874.488.918.918,0,0,0,.845-.452,2.9,2.9,0,0,0,.288-1.414ZM34.1-2.993a3.877,3.877,0,0,1-.574,2.312A2.026,2.026,0,0,1,31.777.1a2.053,2.053,0,0,1-1.736-.759,3.713,3.713,0,0,1-.6-2.249v-1.23a3.819,3.819,0,0,1,.574-2.3,2.045,2.045,0,0,1,1.75-.767,2.057,2.057,0,0,1,1.741.747A3.7,3.7,0,0,1,34.1-4.224ZM32.91-4.321a3.008,3.008,0,0,0-.273-1.467.933.933,0,0,0-.869-.466.933.933,0,0,0-.854.442,2.78,2.78,0,0,0-.288,1.379v1.611A3.086,3.086,0,0,0,30.9-1.338a.935.935,0,0,0,.874.488.918.918,0,0,0,.845-.452,2.9,2.9,0,0,0,.288-1.414Zm6.25,1.787h.884v.952H39.16V0H37.974V-1.582H34.9L34.868-2.3l3.066-4.8H39.16Zm-3.047,0h1.86V-5.5l-.088.156ZM44.043,0H42.861V-5.711l-1.743.594v-1l2.773-1.021h.151ZM47.3-1.25a.678.678,0,0,1,.513.188A.653.653,0,0,1,48-.591a.63.63,0,0,1-.181.461A.688.688,0,0,1,47.3.054a.69.69,0,0,1-.5-.181.619.619,0,0,1-.186-.464.653.653,0,0,1,.181-.471A.671.671,0,0,1,47.3-1.25Zm0-4.146a.678.678,0,0,1,.513.188A.653.653,0,0,1,48-4.736a.63.63,0,0,1-.181.461.688.688,0,0,1-.513.183.69.69,0,0,1-.5-.181.619.619,0,0,1-.186-.464.653.653,0,0,1,.181-.471A.671.671,0,0,1,47.3-5.4Zm9.385-.718H54.473V0H53.247V-6.113h-2.2v-1h5.64Zm1.987,1.406a1.857,1.857,0,0,1,1.47-.674q1.689,0,1.714,1.929V0H60.674V-3.408a1.043,1.043,0,0,0-.237-.774.968.968,0,0,0-.7-.227,1.143,1.143,0,0,0-1.064.635V0H57.49V-7.5h1.187ZM65.386.1a2.455,2.455,0,0,1-1.829-.71,2.577,2.577,0,0,1-.7-1.892v-.146a3.17,3.17,0,0,1,.305-1.414,2.323,2.323,0,0,1,.857-.969,2.265,2.265,0,0,1,1.23-.347,2.074,2.074,0,0,1,1.667.688A2.911,2.911,0,0,1,67.5-2.744v.479H64.053A1.587,1.587,0,0,0,64.49-1.23a1.312,1.312,0,0,0,.964.381,1.607,1.607,0,0,0,1.328-.659l.64.61a2.136,2.136,0,0,1-.847.735A2.652,2.652,0,0,1,65.386.1Zm-.142-4.526a1,1,0,0,0-.789.342,1.772,1.772,0,0,0-.383.952h2.261v-.088a1.442,1.442,0,0,0-.317-.9A.992.992,0,0,0,65.244-4.429Zm6.772-.854.034.61a1.9,1.9,0,0,1,1.538-.708q1.65,0,1.68,1.89V0H74.082V-3.423a1.088,1.088,0,0,0-.217-.745.914.914,0,0,0-.71-.242,1.143,1.143,0,0,0-1.069.649V0H70.9V-5.283ZM79.678-.518A1.84,1.84,0,0,1,78.193.1a1.64,1.64,0,0,1-1.3-.5A2.14,2.14,0,0,1,76.45-1.86V-5.283h1.187v3.408q0,1.006.835,1.006a1.173,1.173,0,0,0,1.167-.62V-5.283h1.187V0H79.707Zm3.472-4.766.034.552a1.9,1.9,0,0,1,1.523-.649,1.46,1.46,0,0,1,1.45.811,1.874,1.874,0,0,1,1.621-.811,1.647,1.647,0,0,1,1.3.483,2.128,2.128,0,0,1,.437,1.426V0H88.33V-3.437a1.051,1.051,0,0,0-.22-.737.962.962,0,0,0-.728-.234.988.988,0,0,0-.662.217,1.146,1.146,0,0,0-.359.569l0,3.623H85.181V-3.477a.846.846,0,0,0-.952-.933,1.045,1.045,0,0,0-1.011.581V0H82.031V-5.283Zm12.222,2.7A3.174,3.174,0,0,1,94.822-.63,1.789,1.789,0,0,1,93.311.1a1.723,1.723,0,0,1-1.445-.669L91.807,0H90.732V-7.5h1.187v2.725A1.717,1.717,0,0,1,93.3-5.381a1.81,1.81,0,0,1,1.519.718,3.226,3.226,0,0,1,.552,2.007Zm-1.187-.1a2.243,2.243,0,0,0-.3-1.289A1.008,1.008,0,0,0,93-4.409a1.1,1.1,0,0,0-1.084.674v2.178a1.113,1.113,0,0,0,1.094.688,1,1,0,0,0,.859-.415,2.173,2.173,0,0,0,.313-1.255ZM98.691.1a2.455,2.455,0,0,1-1.829-.71,2.577,2.577,0,0,1-.7-1.892v-.146a3.17,3.17,0,0,1,.305-1.414,2.323,2.323,0,0,1,.857-.969,2.265,2.265,0,0,1,1.23-.347,2.074,2.074,0,0,1,1.667.688,2.911,2.911,0,0,1,.588,1.948v.479H97.358A1.587,1.587,0,0,0,97.8-1.23a1.312,1.312,0,0,0,.964.381,1.607,1.607,0,0,0,1.328-.659l.64.61a2.136,2.136,0,0,1-.847.735A2.652,2.652,0,0,1,98.691.1ZM98.55-4.429a1,1,0,0,0-.789.342,1.772,1.772,0,0,0-.383.952h2.261v-.088a1.442,1.442,0,0,0-.317-.9A.992.992,0,0,0,98.55-4.429ZM104.5-4.2a2.936,2.936,0,0,0-.483-.039,1.088,1.088,0,0,0-1.1.625V0h-1.187V-5.283h1.133l.029.591a1.337,1.337,0,0,1,1.191-.688,1.111,1.111,0,0,1,.42.068Zm3.018,1.509a3.115,3.115,0,0,1,.308-1.4,2.247,2.247,0,0,1,.864-.957,2.435,2.435,0,0,1,1.279-.334,2.308,2.308,0,0,1,1.736.688,2.708,2.708,0,0,1,.72,1.826l0,.278a3.143,3.143,0,0,1-.3,1.4,2.22,2.22,0,0,1-.859.952A2.453,2.453,0,0,1,109.976.1a2.292,2.292,0,0,1-1.79-.745,2.852,2.852,0,0,1-.671-1.985Zm1.187.1a2.129,2.129,0,0,0,.337,1.277,1.1,1.1,0,0,0,.938.461,1.083,1.083,0,0,0,.935-.469,2.351,2.351,0,0,0,.334-1.372,2.1,2.1,0,0,0-.344-1.27,1.1,1.1,0,0,0-.935-.469,1.089,1.089,0,0,0-.923.461A2.307,2.307,0,0,0,108.7-2.588ZM113.848,0V-4.4h-.806v-.879h.806v-.483a1.815,1.815,0,0,1,.488-1.357A1.87,1.87,0,0,1,115.7-7.6a2.742,2.742,0,0,1,.664.088l-.029.928a2.337,2.337,0,0,0-.454-.039.762.762,0,0,0-.85.874v.469h1.074V-4.4h-1.074V0Zm5.4-2.69a3.115,3.115,0,0,1,.308-1.4,2.247,2.247,0,0,1,.864-.957,2.435,2.435,0,0,1,1.279-.334,2.308,2.308,0,0,1,1.736.688,2.708,2.708,0,0,1,.72,1.826l0,.278a3.143,3.143,0,0,1-.3,1.4A2.22,2.22,0,0,1,123-.239,2.453,2.453,0,0,1,121.7.1a2.292,2.292,0,0,1-1.79-.745,2.852,2.852,0,0,1-.671-1.985Zm1.187.1a2.129,2.129,0,0,0,.337,1.277,1.1,1.1,0,0,0,.938.461,1.083,1.083,0,0,0,.935-.469,2.351,2.351,0,0,0,.334-1.372,2.1,2.1,0,0,0-.344-1.27,1.1,1.1,0,0,0-.935-.469,1.089,1.089,0,0,0-.923.461A2.307,2.307,0,0,0,120.43-2.588Zm7.93,2.07A1.84,1.84,0,0,1,126.875.1a1.64,1.64,0,0,1-1.3-.5,2.14,2.14,0,0,1-.442-1.455V-5.283h1.187v3.408q0,1.006.835,1.006a1.173,1.173,0,0,0,1.167-.62V-5.283h1.187V0h-1.118Zm3.843-6.05v1.284h.933V-4.4H132.2v2.949a.649.649,0,0,0,.12.437.555.555,0,0,0,.427.134,1.828,1.828,0,0,0,.415-.049v.918a2.922,2.922,0,0,1-.781.112q-1.367,0-1.367-1.509V-4.4h-.869v-.879h.869V-6.567Zm1.631,3.887a3.09,3.09,0,0,1,.579-1.965,1.857,1.857,0,0,1,1.536-.735,1.74,1.74,0,0,1,1.421.63l.054-.532h1.069V-.161a2.129,2.129,0,0,1-.647,1.641,2.464,2.464,0,0,1-1.746.6,2.814,2.814,0,0,1-1.135-.242,2.017,2.017,0,0,1-.842-.632l.562-.713a1.7,1.7,0,0,0,1.348.649,1.311,1.311,0,0,0,.933-.32,1.226,1.226,0,0,0,.342-.94V-.474A1.747,1.747,0,0,1,135.938.1a1.853,1.853,0,0,1-1.516-.737A3.19,3.19,0,0,1,133.833-2.681Zm1.182.1a2.127,2.127,0,0,0,.325,1.252,1.044,1.044,0,0,0,.9.457,1.142,1.142,0,0,0,1.064-.615V-3.809a1.125,1.125,0,0,0-1.055-.6,1.048,1.048,0,0,0-.911.464A2.382,2.382,0,0,0,135.015-2.578Zm4.473-.112a3.115,3.115,0,0,1,.308-1.4,2.247,2.247,0,0,1,.864-.957,2.435,2.435,0,0,1,1.279-.334,2.308,2.308,0,0,1,1.736.688,2.708,2.708,0,0,1,.72,1.826l0,.278a3.143,3.143,0,0,1-.3,1.4,2.22,2.22,0,0,1-.859.952A2.453,2.453,0,0,1,141.948.1a2.292,2.292,0,0,1-1.79-.745,2.852,2.852,0,0,1-.671-1.985Zm1.187.1a2.129,2.129,0,0,0,.337,1.277,1.1,1.1,0,0,0,.938.461,1.083,1.083,0,0,0,.935-.469,2.351,2.351,0,0,0,.334-1.372,2.1,2.1,0,0,0-.344-1.27,1.1,1.1,0,0,0-.935-.469,1.089,1.089,0,0,0-.923.461A2.307,2.307,0,0,0,140.674-2.588ZM146.665,0h-1.187V-5.283h1.187Zm-1.26-6.655a.63.63,0,0,1,.173-.454.655.655,0,0,1,.5-.181.663.663,0,0,1,.5.181.625.625,0,0,1,.176.454.61.61,0,0,1-.176.447.668.668,0,0,1-.5.178.66.66,0,0,1-.5-.178A.615.615,0,0,1,145.405-6.655Zm3.652,1.372.034.61a1.9,1.9,0,0,1,1.538-.708q1.65,0,1.68,1.89V0h-1.187V-3.423a1.088,1.088,0,0,0-.217-.745.914.914,0,0,0-.71-.242,1.143,1.143,0,0,0-1.069.649V0h-1.187V-5.283Zm4.253,2.6a3.09,3.09,0,0,1,.579-1.965,1.857,1.857,0,0,1,1.536-.735,1.74,1.74,0,0,1,1.421.63l.054-.532h1.069V-.161a2.129,2.129,0,0,1-.647,1.641,2.464,2.464,0,0,1-1.746.6,2.814,2.814,0,0,1-1.135-.242,2.017,2.017,0,0,1-.842-.632l.562-.713a1.7,1.7,0,0,0,1.348.649,1.311,1.311,0,0,0,.933-.32,1.226,1.226,0,0,0,.342-.94V-.474A1.747,1.747,0,0,1,155.415.1,1.853,1.853,0,0,1,153.9-.64,3.19,3.19,0,0,1,153.311-2.681Zm1.182.1a2.127,2.127,0,0,0,.325,1.252,1.044,1.044,0,0,0,.9.457,1.142,1.142,0,0,0,1.064-.615V-3.809a1.125,1.125,0,0,0-1.055-.6,1.048,1.048,0,0,0-.911.464A2.382,2.382,0,0,0,154.492-2.578Zm11.812-.01a3.146,3.146,0,0,1-.557,1.956,1.783,1.783,0,0,1-1.494.73,1.8,1.8,0,0,1-1.392-.571v2.5h-1.187V-5.283h1.094l.049.537a1.743,1.743,0,0,1,1.421-.635,1.8,1.8,0,0,1,1.516.72,3.23,3.23,0,0,1,.549,2Zm-1.182-.1a2.2,2.2,0,0,0-.315-1.255,1.024,1.024,0,0,0-.9-.464,1.092,1.092,0,0,0-1.045.6v2.344a1.1,1.1,0,0,0,1.055.615,1.023,1.023,0,0,0,.886-.457A2.426,2.426,0,0,0,165.122-2.69ZM170.464,0a1.831,1.831,0,0,1-.137-.493A1.847,1.847,0,0,1,168.94.1a1.864,1.864,0,0,1-1.3-.454,1.453,1.453,0,0,1-.5-1.123,1.5,1.5,0,0,1,.627-1.3,3.041,3.041,0,0,1,1.794-.452h.728v-.347a.925.925,0,0,0-.229-.657.91.91,0,0,0-.7-.247,1.045,1.045,0,0,0-.664.2.627.627,0,0,0-.259.515h-1.187a1.317,1.317,0,0,1,.288-.813,1.919,1.919,0,0,1,.784-.593,2.753,2.753,0,0,1,1.106-.215,2.217,2.217,0,0,1,1.479.466,1.663,1.663,0,0,1,.566,1.311v2.383a2.7,2.7,0,0,0,.2,1.138V0Zm-1.3-.854a1.35,1.35,0,0,0,.662-.171,1.142,1.142,0,0,0,.466-.459v-1h-.64a1.749,1.749,0,0,0-.991.229.743.743,0,0,0-.332.649.693.693,0,0,0,.227.544A.879.879,0,0,0,169.16-.854Zm5.332-.845,1.074-3.584h1.265L174.731.8a1.707,1.707,0,0,1-1.641,1.333,2.115,2.115,0,0,1-.571-.088V1.123l.225.015a1.155,1.155,0,0,0,.676-.163,1.084,1.084,0,0,0,.359-.549l.171-.454-1.855-5.255h1.279Zm4.136-3.584.034.552a1.9,1.9,0,0,1,1.523-.649,1.46,1.46,0,0,1,1.45.811,1.874,1.874,0,0,1,1.621-.811,1.647,1.647,0,0,1,1.3.483A2.128,2.128,0,0,1,185-3.472V0h-1.187V-3.437a1.051,1.051,0,0,0-.22-.737.962.962,0,0,0-.728-.234.988.988,0,0,0-.662.217,1.146,1.146,0,0,0-.359.569l0,3.623h-1.187V-3.477a.846.846,0,0,0-.952-.933,1.044,1.044,0,0,0-1.011.581V0H177.51V-5.283ZM188.54.1a2.455,2.455,0,0,1-1.829-.71,2.577,2.577,0,0,1-.7-1.892v-.146a3.17,3.17,0,0,1,.305-1.414,2.323,2.323,0,0,1,.857-.969,2.266,2.266,0,0,1,1.23-.347,2.074,2.074,0,0,1,1.667.688,2.911,2.911,0,0,1,.588,1.948v.479h-3.452a1.587,1.587,0,0,0,.437,1.035,1.312,1.312,0,0,0,.964.381,1.607,1.607,0,0,0,1.328-.659l.64.61a2.136,2.136,0,0,1-.847.735A2.652,2.652,0,0,1,188.54.1ZM188.4-4.429a1,1,0,0,0-.789.342,1.772,1.772,0,0,0-.383.952h2.261v-.088a1.442,1.442,0,0,0-.317-.9A.992.992,0,0,0,188.4-4.429Zm4.282-.854.034.61a1.9,1.9,0,0,1,1.538-.708q1.65,0,1.68,1.89V0h-1.187V-3.423a1.088,1.088,0,0,0-.217-.745.914.914,0,0,0-.71-.242,1.143,1.143,0,0,0-1.069.649V0h-1.187V-5.283Zm5.947-1.284v1.284h.933V-4.4h-.933v2.949a.649.649,0,0,0,.12.437.555.555,0,0,0,.427.134,1.828,1.828,0,0,0,.415-.049v.918a2.922,2.922,0,0,1-.781.112q-1.367,0-1.367-1.509V-4.4h-.869v-.879h.869V-6.567Zm4.8,5.132a.538.538,0,0,0-.261-.483,2.778,2.778,0,0,0-.867-.293,4.456,4.456,0,0,1-1.011-.322,1.349,1.349,0,0,1-.889-1.245,1.406,1.406,0,0,1,.576-1.143,2.278,2.278,0,0,1,1.465-.459,2.37,2.37,0,0,1,1.531.469,1.487,1.487,0,0,1,.583,1.216h-1.187a.731.731,0,0,0-.254-.569.973.973,0,0,0-.674-.227,1.051,1.051,0,0,0-.637.181.57.57,0,0,0-.247.483.481.481,0,0,0,.229.425,3.156,3.156,0,0,0,.928.305,4.392,4.392,0,0,1,1.1.366,1.552,1.552,0,0,1,.591.51,1.3,1.3,0,0,1,.193.723A1.377,1.377,0,0,1,204-.344,2.519,2.519,0,0,1,202.456.1,2.732,2.732,0,0,1,201.3-.137a1.9,1.9,0,0,1-.791-.645,1.526,1.526,0,0,1-.283-.884h1.152a.836.836,0,0,0,.317.647,1.233,1.233,0,0,0,.776.227,1.2,1.2,0,0,0,.713-.178A.552.552,0,0,0,203.428-1.436Z" transform="translate(1607 -446.748)" fill="#0c2339"/>
    <circle id="Ellipse_99" data-name="Ellipse 99" cx="9.5" cy="9.5" r="9.5" transform="translate(1581.75 -459.748)" fill="#4dc0ed"/>
    <text id="_1_2_3" data-name="1
 2
   3" transform="translate(1589 -453)" fill="#fff" font-size="4" font-family="Roboto-Regular, Roboto"><tspan x="0" y="0">1</tspan><tspan x="0" y="5" xml:space="preserve"> 2</tspan><tspan x="0" y="10" xml:space="preserve">   3</tspan></text>
    <g id="Refresh_icon" data-name="Refresh icon" transform="translate(854.043 -819.254)">
      <g id="Ellipse_32" data-name="Ellipse 32" transform="translate(1094 359.254)" fill="#fff" stroke="rgba(132,131,131,0.4)" stroke-width="0.5">
        <circle cx="9.5" cy="9.5" r="9.5" stroke="none"/>
        <circle cx="9.5" cy="9.5" r="9.25" fill="none"/>
      </g>
      <g id="Refresh" transform="translate(1154.334 333.881) rotate(60)">
        <g id="_x37__11_" transform="translate(0.001 57.525)">
          <g id="Group_15" data-name="Group 15" transform="translate(0 0)">
            <path id="Path_26" data-name="Path 26" d="M5,65.02a3.438,3.438,0,0,1-3.307-2.5H2.708c.1-.094.147-.22.051-.314L1.585,61.023a.252.252,0,0,0-.349,0L.071,62.208c-.138.162-.046.22.051.314h.931a4.057,4.057,0,0,0,7.4,1.193l-.588-.235A3.436,3.436,0,0,1,5,65.02Zm4.9-4.06H9.01A4.06,4.06,0,0,0,1.4,59.708l.582.233a3.438,3.438,0,0,1,6.4,1.019H7.312c-.1.094-.189.152-.051.314L8.426,62.46a.252.252,0,0,0,.349,0l1.173-1.185C10.045,61.181,9.994,61.054,9.9,60.96Z" transform="translate(-0.001 -57.525)" fill="#a5aabc"/>
          </g>
        </g>
      </g>
    </g>
    <line id="Line_24" data-name="Line 24" x1="118.271" transform="translate(1999.229 -396.018)" fill="none" stroke="rgba(165,170,188,0.5)" stroke-width="1"/>
    <rect id="Rectangle_38" data-name="Rectangle 38" width="118.771" height="36" transform="translate(1999.229 -432.509)" fill="#e5f4ff"/>
    <path id="Path_722" data-name="Path 722" d="M6.289,0H5.347V-3.286H1.763V0H.825V-7.109h.938v3.057H5.347V-7.109h.942Zm4.019-1.245,2.031-5.864h1.025L10.728,0H9.9L7.266-7.109H8.286Zm4.946-1.538V0h-.937V-7.109h2.622a3.254,3.254,0,0,1,1.069.161,2.192,2.192,0,0,1,.779.452,1.917,1.917,0,0,1,.479.688,2.271,2.271,0,0,1,.164.872,2.416,2.416,0,0,1-.164.916,1.755,1.755,0,0,1-.479.676,2.137,2.137,0,0,1-.779.417,3.61,3.61,0,0,1-1.069.144Zm0-.767h1.685a2.159,2.159,0,0,0,.706-.1,1.284,1.284,0,0,0,.483-.286,1.109,1.109,0,0,0,.276-.435,1.67,1.67,0,0,0,.088-.554,1.622,1.622,0,0,0-.088-.53,1.209,1.209,0,0,0-.276-.452,1.35,1.35,0,0,0-.483-.312,1.912,1.912,0,0,0-.706-.117H15.254Zm7.109.9H19.98v-.737h2.383Zm5.244-.381a5.918,5.918,0,0,1-.156,1.472A2.614,2.614,0,0,1,27-.593a1.65,1.65,0,0,1-.7.53,2.54,2.54,0,0,1-.93.161,2.545,2.545,0,0,1-.928-.161,1.663,1.663,0,0,1-.708-.53,2.644,2.644,0,0,1-.454-.967,5.747,5.747,0,0,1-.161-1.472V-4.116a5.743,5.743,0,0,1,.159-1.465,2.543,2.543,0,0,1,.452-.952,1.651,1.651,0,0,1,.706-.518,2.6,2.6,0,0,1,.925-.156,2.631,2.631,0,0,1,.933.156A1.648,1.648,0,0,1,27-6.533a2.517,2.517,0,0,1,.449.952,5.829,5.829,0,0,1,.156,1.465Zm-.9-1.235a5.207,5.207,0,0,0-.085-1.021,1.954,1.954,0,0,0-.256-.681,1.018,1.018,0,0,0-.422-.378,1.356,1.356,0,0,0-.579-.117,1.343,1.343,0,0,0-.574.117,1,1,0,0,0-.42.378,2.02,2.02,0,0,0-.256.681,5.067,5.067,0,0,0-.088,1.021v1.377a5.149,5.149,0,0,0,.088,1.023,2.094,2.094,0,0,0,.261.7,1.082,1.082,0,0,0,.425.4,1.256,1.256,0,0,0,.574.127,1.263,1.263,0,0,0,.581-.127,1.055,1.055,0,0,0,.417-.4,2.1,2.1,0,0,0,.251-.7A5.444,5.444,0,0,0,26.7-2.891Zm6.519,1.235a5.918,5.918,0,0,1-.156,1.472,2.614,2.614,0,0,1-.447.967,1.65,1.65,0,0,1-.7.53,2.54,2.54,0,0,1-.93.161,2.545,2.545,0,0,1-.928-.161,1.663,1.663,0,0,1-.708-.53A2.644,2.644,0,0,1,28.9-1.56a5.747,5.747,0,0,1-.161-1.472V-4.116a5.743,5.743,0,0,1,.159-1.465,2.543,2.543,0,0,1,.452-.952,1.651,1.651,0,0,1,.706-.518,2.6,2.6,0,0,1,.925-.156,2.631,2.631,0,0,1,.933.156,1.648,1.648,0,0,1,.708.518,2.517,2.517,0,0,1,.449.952,5.829,5.829,0,0,1,.156,1.465Zm-.9-1.235a5.207,5.207,0,0,0-.085-1.021,1.954,1.954,0,0,0-.256-.681,1.018,1.018,0,0,0-.422-.378,1.356,1.356,0,0,0-.579-.117,1.343,1.343,0,0,0-.574.117,1,1,0,0,0-.42.378,2.02,2.02,0,0,0-.256.681,5.067,5.067,0,0,0-.088,1.021v1.377a5.149,5.149,0,0,0,.088,1.023,2.094,2.094,0,0,0,.261.7,1.082,1.082,0,0,0,.425.4,1.256,1.256,0,0,0,.574.127,1.263,1.263,0,0,0,.581-.127,1.055,1.055,0,0,0,.417-.4,2.1,2.1,0,0,0,.251-.7,5.444,5.444,0,0,0,.083-1.023Zm3.374.273h.645a1.853,1.853,0,0,0,.615-.093,1.239,1.239,0,0,0,.439-.256,1.047,1.047,0,0,0,.264-.386,1.309,1.309,0,0,0,.088-.486,1.29,1.29,0,0,0-.308-.93,1.246,1.246,0,0,0-.937-.32,1.537,1.537,0,0,0-.525.085,1.154,1.154,0,0,0-.405.244,1.087,1.087,0,0,0-.261.386,1.325,1.325,0,0,0-.093.505h-.9a1.888,1.888,0,0,1,.156-.767,1.851,1.851,0,0,1,.444-.623,2.119,2.119,0,0,1,.691-.42,2.494,2.494,0,0,1,.9-.154,2.816,2.816,0,0,1,.879.129,1.871,1.871,0,0,1,.676.381,1.708,1.708,0,0,1,.437.627,2.264,2.264,0,0,1,.156.874,1.461,1.461,0,0,1-.066.42,1.708,1.708,0,0,1-.2.43,1.807,1.807,0,0,1-.347.393,1.866,1.866,0,0,1-.505.305,1.9,1.9,0,0,1,.588.3,1.589,1.589,0,0,1,.378.408,1.548,1.548,0,0,1,.2.474,2.128,2.128,0,0,1,.059.488,2.179,2.179,0,0,1-.171.886,1.827,1.827,0,0,1-.474.652,2.1,2.1,0,0,1-.713.4A2.765,2.765,0,0,1,36.5.1a2.889,2.889,0,0,1-.874-.129,2.136,2.136,0,0,1-.718-.381,1.8,1.8,0,0,1-.486-.62,1.912,1.912,0,0,1-.178-.842h.908a1.325,1.325,0,0,0,.093.505,1.09,1.09,0,0,0,.269.391,1.2,1.2,0,0,0,.425.251A1.68,1.68,0,0,0,36.5-.64a1.82,1.82,0,0,0,.562-.081,1.1,1.1,0,0,0,.425-.247,1.078,1.078,0,0,0,.269-.415,1.661,1.661,0,0,0,.093-.581,1.422,1.422,0,0,0-.107-.576,1.048,1.048,0,0,0-.305-.4,1.321,1.321,0,0,0-.476-.237,2.312,2.312,0,0,0-.625-.078h-.645Zm8.613-1.26a1.651,1.651,0,0,1-.281.947,1.91,1.91,0,0,1-.759.649,2.175,2.175,0,0,1,.5.293,1.956,1.956,0,0,1,.381.4,1.769,1.769,0,0,1,.244.486,1.811,1.811,0,0,1,.085.562,2.043,2.043,0,0,1-.173.864,1.8,1.8,0,0,1-.479.632,2.092,2.092,0,0,1-.718.388A2.912,2.912,0,0,1,42.212.1a2.936,2.936,0,0,1-.894-.132A2.062,2.062,0,0,1,40.6-.422a1.808,1.808,0,0,1-.476-.632,2.043,2.043,0,0,1-.173-.864,1.859,1.859,0,0,1,.083-.562,1.834,1.834,0,0,1,.237-.488,1.849,1.849,0,0,1,.374-.4,2.124,2.124,0,0,1,.493-.293,1.863,1.863,0,0,1-.747-.649,1.674,1.674,0,0,1-.273-.942,2.079,2.079,0,0,1,.156-.828,1.721,1.721,0,0,1,.435-.613,1.908,1.908,0,0,1,.664-.381,2.581,2.581,0,0,1,.84-.132,2.559,2.559,0,0,1,.837.132,1.938,1.938,0,0,1,.664.381,1.707,1.707,0,0,1,.437.613A2.079,2.079,0,0,1,44.307-5.254Zm-.737,3.315a1.453,1.453,0,0,0-.1-.547,1.243,1.243,0,0,0-.281-.427,1.253,1.253,0,0,0-.432-.276,1.519,1.519,0,0,0-.554-.1,1.513,1.513,0,0,0-.557.1,1.207,1.207,0,0,0-.425.276,1.221,1.221,0,0,0-.271.427,1.519,1.519,0,0,0-.1.547,1.5,1.5,0,0,0,.093.547,1.114,1.114,0,0,0,.269.408,1.162,1.162,0,0,0,.427.256,1.718,1.718,0,0,0,.569.088,1.7,1.7,0,0,0,.564-.088A1.162,1.162,0,0,0,43.2-.984a1.14,1.14,0,0,0,.271-.408A1.47,1.47,0,0,0,43.569-1.938Zm-.166-3.3a1.362,1.362,0,0,0-.085-.488,1.124,1.124,0,0,0-.244-.388,1.136,1.136,0,0,0-.378-.256,1.23,1.23,0,0,0-.483-.093,1.323,1.323,0,0,0-.483.085,1.083,1.083,0,0,0-.378.244,1.07,1.07,0,0,0-.244.386,1.44,1.44,0,0,0-.085.51,1.391,1.391,0,0,0,.085.5,1.092,1.092,0,0,0,.242.383,1.058,1.058,0,0,0,.376.244,1.337,1.337,0,0,0,.488.085,1.337,1.337,0,0,0,.488-.085,1.058,1.058,0,0,0,.376-.244,1.092,1.092,0,0,0,.242-.383A1.391,1.391,0,0,0,43.4-5.239Z" transform="translate(2037.229 -409.265)" fill="#0c2339"/>
    <path id="Path_721" data-name="Path 721" d="M6.289,0H5.347V-3.286H1.763V0H.825V-7.109h.938v3.057H5.347V-7.109h.942Zm4.019-1.245,2.031-5.864h1.025L10.728,0H9.9L7.266-7.109H8.286Zm4.946-1.538V0h-.937V-7.109h2.622a3.254,3.254,0,0,1,1.069.161,2.192,2.192,0,0,1,.779.452,1.917,1.917,0,0,1,.479.688,2.271,2.271,0,0,1,.164.872,2.416,2.416,0,0,1-.164.916,1.755,1.755,0,0,1-.479.676,2.137,2.137,0,0,1-.779.417,3.61,3.61,0,0,1-1.069.144Zm0-.767h1.685a2.159,2.159,0,0,0,.706-.1,1.284,1.284,0,0,0,.483-.286,1.109,1.109,0,0,0,.276-.435,1.67,1.67,0,0,0,.088-.554,1.622,1.622,0,0,0-.088-.53,1.209,1.209,0,0,0-.276-.452,1.35,1.35,0,0,0-.483-.312,1.912,1.912,0,0,0-.706-.117H15.254Zm7.109.9H19.98v-.737h2.383Zm5.244-.381a5.918,5.918,0,0,1-.156,1.472A2.614,2.614,0,0,1,27-.593a1.65,1.65,0,0,1-.7.53,2.54,2.54,0,0,1-.93.161,2.545,2.545,0,0,1-.928-.161,1.663,1.663,0,0,1-.708-.53,2.644,2.644,0,0,1-.454-.967,5.747,5.747,0,0,1-.161-1.472V-4.116a5.743,5.743,0,0,1,.159-1.465,2.543,2.543,0,0,1,.452-.952,1.651,1.651,0,0,1,.706-.518,2.6,2.6,0,0,1,.925-.156,2.631,2.631,0,0,1,.933.156A1.648,1.648,0,0,1,27-6.533a2.517,2.517,0,0,1,.449.952,5.829,5.829,0,0,1,.156,1.465Zm-.9-1.235a5.207,5.207,0,0,0-.085-1.021,1.954,1.954,0,0,0-.256-.681,1.018,1.018,0,0,0-.422-.378,1.356,1.356,0,0,0-.579-.117,1.343,1.343,0,0,0-.574.117,1,1,0,0,0-.42.378,2.02,2.02,0,0,0-.256.681,5.067,5.067,0,0,0-.088,1.021v1.377a5.149,5.149,0,0,0,.088,1.023,2.094,2.094,0,0,0,.261.7,1.082,1.082,0,0,0,.425.4,1.256,1.256,0,0,0,.574.127,1.263,1.263,0,0,0,.581-.127,1.055,1.055,0,0,0,.417-.4,2.1,2.1,0,0,0,.251-.7A5.444,5.444,0,0,0,26.7-2.891Zm6.519,1.235a5.918,5.918,0,0,1-.156,1.472,2.614,2.614,0,0,1-.447.967,1.65,1.65,0,0,1-.7.53,2.54,2.54,0,0,1-.93.161,2.545,2.545,0,0,1-.928-.161,1.663,1.663,0,0,1-.708-.53A2.644,2.644,0,0,1,28.9-1.56a5.747,5.747,0,0,1-.161-1.472V-4.116a5.743,5.743,0,0,1,.159-1.465,2.543,2.543,0,0,1,.452-.952,1.651,1.651,0,0,1,.706-.518,2.6,2.6,0,0,1,.925-.156,2.631,2.631,0,0,1,.933.156,1.648,1.648,0,0,1,.708.518,2.517,2.517,0,0,1,.449.952,5.829,5.829,0,0,1,.156,1.465Zm-.9-1.235a5.207,5.207,0,0,0-.085-1.021,1.954,1.954,0,0,0-.256-.681,1.018,1.018,0,0,0-.422-.378,1.356,1.356,0,0,0-.579-.117,1.343,1.343,0,0,0-.574.117,1,1,0,0,0-.42.378,2.02,2.02,0,0,0-.256.681,5.067,5.067,0,0,0-.088,1.021v1.377a5.149,5.149,0,0,0,.088,1.023,2.094,2.094,0,0,0,.261.7,1.082,1.082,0,0,0,.425.4,1.256,1.256,0,0,0,.574.127,1.263,1.263,0,0,0,.581-.127,1.055,1.055,0,0,0,.417-.4,2.1,2.1,0,0,0,.251-.7,5.444,5.444,0,0,0,.083-1.023Zm3.374.273h.645a1.853,1.853,0,0,0,.615-.093,1.239,1.239,0,0,0,.439-.256,1.047,1.047,0,0,0,.264-.386,1.309,1.309,0,0,0,.088-.486,1.29,1.29,0,0,0-.308-.93,1.246,1.246,0,0,0-.937-.32,1.537,1.537,0,0,0-.525.085,1.154,1.154,0,0,0-.405.244,1.087,1.087,0,0,0-.261.386,1.325,1.325,0,0,0-.093.505h-.9a1.888,1.888,0,0,1,.156-.767,1.851,1.851,0,0,1,.444-.623,2.119,2.119,0,0,1,.691-.42,2.494,2.494,0,0,1,.9-.154,2.816,2.816,0,0,1,.879.129,1.871,1.871,0,0,1,.676.381,1.708,1.708,0,0,1,.437.627,2.264,2.264,0,0,1,.156.874,1.461,1.461,0,0,1-.066.42,1.708,1.708,0,0,1-.2.43,1.807,1.807,0,0,1-.347.393,1.866,1.866,0,0,1-.505.305,1.9,1.9,0,0,1,.588.3,1.589,1.589,0,0,1,.378.408,1.548,1.548,0,0,1,.2.474,2.128,2.128,0,0,1,.059.488,2.179,2.179,0,0,1-.171.886,1.827,1.827,0,0,1-.474.652,2.1,2.1,0,0,1-.713.4A2.765,2.765,0,0,1,36.5.1a2.889,2.889,0,0,1-.874-.129,2.136,2.136,0,0,1-.718-.381,1.8,1.8,0,0,1-.486-.62,1.912,1.912,0,0,1-.178-.842h.908a1.325,1.325,0,0,0,.093.505,1.09,1.09,0,0,0,.269.391,1.2,1.2,0,0,0,.425.251A1.68,1.68,0,0,0,36.5-.64a1.82,1.82,0,0,0,.562-.081,1.1,1.1,0,0,0,.425-.247,1.078,1.078,0,0,0,.269-.415,1.661,1.661,0,0,0,.093-.581,1.422,1.422,0,0,0-.107-.576,1.048,1.048,0,0,0-.305-.4,1.321,1.321,0,0,0-.476-.237,2.312,2.312,0,0,0-.625-.078h-.645ZM44.585-6.6,41.641,0h-.947l2.935-6.367H39.78v-.742h4.8Z" transform="translate(2037.229 -446.752)" fill="#0c2339"/>
    <circle id="Ellipse_106" data-name="Ellipse 106" cx="9.5" cy="9.5" r="9.5" transform="translate(2011.979 -422.265)" fill="#4dc0ed"/>
    <circle id="Ellipse_112" data-name="Ellipse 112" cx="9.5" cy="9.5" r="9.5" transform="translate(2011.979 -460)" fill="#4dc0ed"/>
    <circle id="Ellipse_105" data-name="Ellipse 105" cx="9.5" cy="9.5" r="9.5" transform="translate(2095.229 -422.265)" fill="#fed325"/>
    <path id="Path_142" data-name="Path 142" d="M9.5,0A9.5,9.5,0,1,1,0,9.5,9.5,9.5,0,0,1,9.5,0Z" transform="translate(2095.229 -459.752)" fill="#fed325"/>
    <g id="Rectangle_37" data-name="Rectangle 37" transform="translate(1817 -460)" fill="#fff" stroke="rgba(165,170,188,0.5)" stroke-width="0.5">
      <rect width="54.521" height="19" rx="9.5" stroke="none"/>
      <rect x="0.25" y="0.25" width="54.021" height="18.5" rx="9.25" fill="none"/>
    </g>
    <g id="Graph_icon" data-name="Graph icon" transform="translate(1176 -844)">
      <line id="Line_21" data-name="Line 21" y1="3" x2="3" transform="translate(659.75 391.5)" fill="none" stroke="#a5aabc" stroke-width="0.5"/>
      <line id="Line_23" data-name="Line 23" y1="3" x2="3" transform="translate(672.5 393.75) rotate(180)" fill="none" stroke="#a5aabc" stroke-width="0.5"/>
      <line id="Line_22" data-name="Line 22" x1="3" y1="3" transform="translate(664.5 391.5)" fill="none" stroke="#a5aabc" stroke-width="0.5"/>
      <g id="Ellipse_108" data-name="Ellipse 108" transform="translate(662.25 389)" fill="#fff" stroke="#a5aabc" stroke-width="0.5">
        <circle cx="1.5" cy="1.5" r="1.5" stroke="none"/>
        <circle cx="1.5" cy="1.5" r="1.25" fill="none"/>
      </g>
      <g id="Ellipse_109" data-name="Ellipse 109" transform="translate(670 396.25) rotate(180)" fill="#fff" stroke="#a5aabc" stroke-width="0.5">
        <circle cx="1.5" cy="1.5" r="1.5" stroke="none"/>
        <circle cx="1.5" cy="1.5" r="1.25" fill="none"/>
      </g>
    </g>
    <g id="Pin_icon" data-name="Pin icon" transform="translate(1176 -844)">
      <g id="Refresh_icon-2" data-name="Refresh icon" transform="translate(-346.957 24.746)">
        <g id="Ellipse_32-2" data-name="Ellipse 32" transform="translate(1094 359.254)" fill="#fff" stroke="rgba(132,131,131,0.4)" stroke-width="0.5">
          <circle cx="9.5" cy="9.5" r="9.5" stroke="none"/>
          <circle cx="9.5" cy="9.5" r="9.25" fill="none"/>
        </g>
      </g>
      <g id="_x31_6-thumbtack" transform="translate(748.864 385.4)">
        <path id="Path_123" data-name="Path 123" d="M11.551,6.528,8.719,3.7a.311.311,0,0,0-.45,0l-1.03,1.03a.309.309,0,0,0,0,.45l.225.225L6.5,6.367a2.941,2.941,0,0,0-2.51.386.311.311,0,0,0,0,.45L5.824,9.038,3.8,11.065a.311.311,0,0,0,0,.45.342.342,0,0,0,.45,0L6.274,9.488l1.834,1.834a.3.3,0,0,0,.45,0,2.941,2.941,0,0,0,.386-2.51l.965-.965.225.225a.311.311,0,0,0,.45,0l1.03-1.03a.486.486,0,0,0-.064-.515Z" transform="translate(0 0)" fill="#a1a1a1"/>
      </g>
    </g>
    <g id="Download_icon" data-name="Download icon" transform="translate(1176 -844)">
      <g id="Ellipse_32-3" data-name="Ellipse 32" transform="translate(797.043 384)" fill="#fff" stroke="rgba(132,131,131,0.4)" stroke-width="0.5">
        <circle cx="9.5" cy="9.5" r="9.5" stroke="none"/>
        <circle cx="9.5" cy="9.5" r="9.25" fill="none"/>
      </g>
      <g id="apps" transform="translate(800.668 388.625)" clip-path="url(#clip-path)">
        <path id="Path_124" data-name="Path 124" d="M10.674,5.938H9.9V3.49A.491.491,0,0,0,9.406,3H7.448a.491.491,0,0,0-.49.49V5.938H6.18a.491.491,0,0,0-.348.837L8.079,9.022a.488.488,0,0,0,.69,0l2.247-2.247A.49.49,0,0,0,10.674,5.938ZM5,10.833a.491.491,0,0,0,.49.49h5.875a.49.49,0,1,0,0-.979H5.49A.491.491,0,0,0,5,10.833Z" transform="translate(-2.552 -1.531)" fill="#a1a1a1"/>
      </g>
    </g>
    <line id="Line_18" data-name="Line 18" y2="229" transform="translate(1999.229 -471)" fill="none" stroke="rgba(165,170,188,0.5)" stroke-width="1"/>
    <g id="Rectangle_39" data-name="Rectangle 39" transform="translate(1569 -471)" fill="none" stroke="rgba(165,170,188,0.5)" stroke-width="1">
      <rect width="549" height="229" rx="5" stroke="none"/>
      <rect x="0.5" y="0.5" width="548" height="228" rx="4.5" fill="none"/>
    </g>
    <g id="Mask_Group_3" data-name="Mask Group 3" transform="translate(1176 -844)" clip-path="url(#clip-path-2)">
      <line id="Line_19" data-name="Line 19" x1="549.5" transform="translate(393 410.5)" fill="none" stroke="rgba(165,170,188,0.5)" stroke-width="1"/>
    </g>
    <text id="_1_2_3-2" data-name="1
 2
   3" transform="translate(1823.25 -453)" fill="#a1a1a1" font-size="4" font-family="Roboto-Regular, Roboto"><tspan x="0" y="0">1</tspan><tspan x="0" y="5" xml:space="preserve"> 2</tspan><tspan x="0" y="10" xml:space="preserve">   3</tspan></text>
    <g id="Plus_and_minus" data-name="Plus and minus" transform="translate(1176 -844)">
      <circle id="Ellipse_107" data-name="Ellipse 107" cx="9.5" cy="9.5" r="9.5" transform="translate(680 384.252)" fill="#1f6cb6"/>
      <g id="plus-minus" transform="translate(538.162 217.8)">
        <path id="Path_126" data-name="Path 126" d="M182.063,170.582v1.946h2.34a.358.358,0,0,1,0,.716h-2.34v2.006a.382.382,0,1,1-.764,0v-2.006h-2.34a.358.358,0,0,1,0-.716h2.34v-1.946a.382.382,0,0,1,.764,0Z" transform="translate(-30.342)" fill="#fff"/>
        <path id="Path_127" data-name="Path 127" d="M155.318,329.716h-7.96a.359.359,0,0,1-.358-.358h0a.357.357,0,0,1,.358-.358h7.96a.357.357,0,0,1,.358.358h0A.357.357,0,0,1,155.318,329.716Z" transform="translate(0 -152.48)" fill="#fff"/>
        <path id="Path_128" data-name="Path 128" d="M201.058,391.716h-4a.359.359,0,0,1-.358-.358h0a.359.359,0,0,1,.358-.358h4a.357.357,0,0,1,.358.358h0A.357.357,0,0,1,201.058,391.716Z" transform="translate(-47.722 -212.012)" fill="#fff"/>
      </g>
    </g>
    <g id="Calender_icon" data-name="Calender icon" transform="translate(1898.043 -464.289)">
      <g id="_x31_5_38_" transform="translate(0 4.289)">
        <g id="Group_118" data-name="Group 118" transform="translate(0 0)">
          <path id="Path_129" data-name="Path 129" d="M100.163,9.094h.272a.748.748,0,0,0,.748-.748V5.51a.748.748,0,0,0-.748-.748h-.272a.748.748,0,0,0-.748.748V8.346A.748.748,0,0,0,100.163,9.094Z" transform="translate(-95.52 -4.743)" fill="#a1a1a1"/>
          <path id="Path_130" data-name="Path 130" d="M345.029,8.621h.272a.748.748,0,0,0,.748-.748V5.037a.748.748,0,0,0-.748-.748h-.272a.748.748,0,0,0-.748.748V7.873A.748.748,0,0,0,345.029,8.621Z" transform="translate(-330.792 -4.289)" fill="#a1a1a1"/>
          <path id="Path_131" data-name="Path 131" d="M17.784,43.558h-1.92V45.8a1.2,1.2,0,0,1-1.356,1.16h-.272A1.357,1.357,0,0,1,12.881,45.6V43.558H6.271v2.064a1.357,1.357,0,0,1-1.356,1.356H4.643a1.357,1.357,0,0,1-1.356-1.356V43.558H1.216A1.217,1.217,0,0,0,0,44.774V59.467a1.217,1.217,0,0,0,1.216,1.216H17.784A1.217,1.217,0,0,0,19,59.467V44.774A1.217,1.217,0,0,0,17.784,43.558Zm0,15.909H1.216v-11.1H17.784v11.1Z" transform="translate(0 -42.019)" fill="#a1a1a1"/>
          <path id="Path_132" data-name="Path 132" d="M254.655,207.359h2.183a.157.157,0,0,0,.157-.157v-1.891a.157.157,0,0,0-.157-.157h-2.183a.157.157,0,0,0-.157.157V207.2A.157.157,0,0,0,254.655,207.359Z" transform="translate(-244.527 -197.285)" fill="#a1a1a1"/>
          <path id="Path_133" data-name="Path 133" d="M345.6,207.359h2.183a.157.157,0,0,0,.157-.157v-1.891a.157.157,0,0,0-.157-.157H345.6a.157.157,0,0,0-.157.157V207.2A.157.157,0,0,0,345.6,207.359Z" transform="translate(-331.909 -197.285)" fill="#a1a1a1"/>
          <path id="Path_134" data-name="Path 134" d="M72.768,286.358h2.183a.157.157,0,0,0,.157-.157v-1.891a.157.157,0,0,0-.157-.157H72.768a.157.157,0,0,0-.157.157V286.2A.157.157,0,0,0,72.768,286.358Z" transform="translate(-69.766 -273.189)" fill="#a1a1a1"/>
          <path id="Path_135" data-name="Path 135" d="M163.712,286.358H165.9a.157.157,0,0,0,.157-.157v-1.891a.157.157,0,0,0-.157-.157h-2.183a.157.157,0,0,0-.157.157V286.2A.157.157,0,0,0,163.712,286.358Z" transform="translate(-157.147 -273.189)" fill="#a1a1a1"/>
          <path id="Path_136" data-name="Path 136" d="M254.656,286.358h2.183A.157.157,0,0,0,257,286.2v-1.891a.157.157,0,0,0-.157-.157h-2.183a.157.157,0,0,0-.157.157V286.2A.157.157,0,0,0,254.656,286.358Z" transform="translate(-244.528 -273.189)" fill="#a1a1a1"/>
          <path id="Path_137" data-name="Path 137" d="M345.6,286.358h2.183a.157.157,0,0,0,.157-.157v-1.891a.157.157,0,0,0-.157-.157H345.6a.157.157,0,0,0-.157.157V286.2A.157.157,0,0,0,345.6,286.358Z" transform="translate(-331.909 -273.189)" fill="#a1a1a1"/>
          <path id="Path_138" data-name="Path 138" d="M74.952,363.154H72.769a.157.157,0,0,0-.157.157V365.2a.157.157,0,0,0,.157.157h2.183a.157.157,0,0,0,.157-.157v-1.891A.157.157,0,0,0,74.952,363.154Z" transform="translate(-69.767 -349.094)" fill="#a1a1a1"/>
          <path id="Path_139" data-name="Path 139" d="M165.9,363.154h-2.183a.157.157,0,0,0-.157.157V365.2a.157.157,0,0,0,.157.157H165.9a.157.157,0,0,0,.157-.157v-1.891A.157.157,0,0,0,165.9,363.154Z" transform="translate(-157.148 -349.094)" fill="#a1a1a1"/>
          <path id="Path_140" data-name="Path 140" d="M256.84,363.154h-2.183a.157.157,0,0,0-.157.157V365.2a.157.157,0,0,0,.157.157h2.183A.157.157,0,0,0,257,365.2v-1.891A.157.157,0,0,0,256.84,363.154Z" transform="translate(-244.529 -349.094)" fill="#a1a1a1"/>
          <path id="Path_141" data-name="Path 141" d="M347.783,363.154H345.6a.157.157,0,0,0-.157.157V365.2a.157.157,0,0,0,.157.157h2.183a.157.157,0,0,0,.157-.157v-1.891A.157.157,0,0,0,347.783,363.154Z" transform="translate(-331.909 -349.094)" fill="#a1a1a1"/>
        </g>
      </g>
    </g>
    <text id="_1_2_3-3" data-name="1
 2
   3" transform="translate(2019 -416.509)" fill="#fff" font-size="4" font-family="Roboto-Regular, Roboto"><tspan x="0" y="0">1</tspan><tspan x="0" y="5" xml:space="preserve"> 2</tspan><tspan x="0" y="10" xml:space="preserve">   3</tspan></text>
    <text id="_1_2_3-4" data-name="1
 2
   3" transform="translate(2019 -454.243)" fill="#fff" font-size="4" font-family="Roboto-Regular, Roboto"><tspan x="0" y="0">1</tspan><tspan x="0" y="5" xml:space="preserve"> 2</tspan><tspan x="0" y="10" xml:space="preserve">   3</tspan></text>
    <g id="Graph_Illustration" data-name="Graph Illustration" transform="translate(1607 -423.243)">
      <path id="Path_143" data-name="Path 143" d="M389.229,115.119V92.864h8.209v16.418h10.945l3.648,2.214h22.256v3.623Z" transform="translate(-77.672 -36.161)" fill="#fff89b"/>
      <path id="Path_144" data-name="Path 144" d="M434.092,115.229h-7.327v-.611h7.022v-.837h.611v1.142h-.305Zm-14.654,0h-7.327v-.611h7.327Zm-14.654,0h-7.327v-.611h7.327Zm-14.654,0h-1.4v-6.538h.611v5.927h.789Zm39.117-3.623h-7.327V111h7.327Zm-14.654,0h-2.841l-3.648-2.214h-.219v-.611h.389L411.922,111h2.67Zm-14.035-2.214h-3.619v-4.319h.611v3.708h3.008Zm-11.217-8.028h-.611V94.037h.611Zm8.209-3.618h-.611V92.974h-1.945v-.611h2.555Z" transform="translate(-77.477 -35.967)" fill="#d4a215"/>
      <path id="Path_145" data-name="Path 145" d="M367.614,127.645V175.19H319.557l-4.119-4.677h-8.7l-5.035,2.288h-7.78V129.3" transform="translate(-71.026 -49.705)" fill="#e1fff1"/>
      <path id="Line_43" data-name="Line 43" d="M.111,3.664H-.5V0H.111Z" transform="translate(296.477 77.94)" fill="#2fad73"/>
      <path id="Line_44" data-name="Line 44" d="M.111,24.13H-.5V16.087H.111Zm0-16.087H-.5V0H.111Z" transform="translate(296.477 89.647)" fill="#2fad73"/>
      <path id="Path_146" data-name="Path 146" d="M388.095,203.48h-3.969v-.611h3.358v-3.358h.611Z" transform="translate(-91.684 -77.69)" fill="#2fad73"/>
      <path id="Line_45" data-name="Line 45" d="M23.662.111h-6.2V-.5h6.2Zm-12.393,0h-6.2V-.5h6.2Z" transform="translate(259.124 125.679)" fill="#2fad73"/>
      <path id="Path_147" data-name="Path 147" d="M326.62,202.639H322.8l-3.284-4.676h-3.5v-.611h3.822l3.284,4.676h3.5Z" transform="translate(-74.345 -76.85)" fill="#2fad73"/>
      <path id="Path_148" data-name="Path 148" d="M297.4,199.568h-3.969V195.6h.611v3.358H297.4Z" transform="translate(-70.036 -76.167)" fill="#2fad73"/>
      <path id="Line_46" data-name="Line 46" d="M.111,27.625H-.5V20.391H.111Zm0-14.467H-.5V5.924H.111Z" transform="translate(223.4 84.573)" fill="#2fad73"/>
      <path id="Line_47" data-name="Line 47" d="M.111,3.664H-.5V0H.111Z" transform="translate(223.4 79.599)" fill="#2fad73"/>
      <g id="Group_120" data-name="Group 120">
        <g id="Group_119" data-name="Group 119" clip-path="url(#clip-path-3)">
          <path id="Path_149" data-name="Path 149" d="M377.228,157.914H0V0H377.228V.3H.38v157.3H377.228Z" transform="translate(0 0)" fill="#a5aabc"/>
          <path id="Line_48" data-name="Line 48" d="M377.039.055H0V-.25H377.039Z" transform="translate(0.19 26.518)" fill="#a5aabc"/>
          <path id="Line_49" data-name="Line 49" d="M377.039.055H0V-.25H377.039Z" transform="translate(0.19 52.786)" fill="#a5aabc"/>
        </g>
      </g>
      <path id="Path_150" data-name="Path 150" d="M206.5,129.312h0Z" transform="translate(-0.097 -50.355)" fill="#e1fff1"/>
      <g id="Group_122" data-name="Group 122">
        <g id="Group_121" data-name="Group 121" clip-path="url(#clip-path-3)">
          <path id="Path_151" data-name="Path 151" d="M378.379,129.533h-9.112v-1.221h9.112Zm-18.224,0h-9.112v-1.221h9.112Zm-18.224,0h-9.112v-1.221h9.112Zm-18.224,0h-9.112v-1.221h9.112Zm-18.224,0H296.37v-1.221h9.112Zm-18.224,0h-9.112v-1.221h9.112Zm-18.224,0h-9.112v-1.221h9.112Zm-18.224,0H241.7v-1.221h9.112Zm-18.224,0h-9.112v-1.221h9.112Zm-18.224,0h-9.112v-1.221h9.112Zm-15.993,0H187.024v-1.221h11.343Zm-18.224,0H168.8v-1.221h11.343Zm-18.224,0H150.575v-1.221h11.343Zm-18.224,0H132.351v-1.221h11.343Zm-18.224,0H114.127v-1.221H125.47Zm-18.224,0H95.9v-1.221h11.343Zm-18.224,0H77.678v-1.221H89.021Zm-18.224,0H59.454v-1.221H70.8Zm-18.224,0H41.23v-1.221H52.573Zm-18.224,0H23.005v-1.221H34.348Zm-18.224,0H4.781v-1.221H16.124Z" transform="translate(-1.151 -49.965)" fill="#2fad73"/>
          <path id="Line_50" data-name="Line 50" d="M377.039.055H0V-.25H377.039Z" transform="translate(0.19 105.323)" fill="#a5aabc"/>
          <path id="Line_51" data-name="Line 51" d="M377.039.055H0V-.25H377.039Z" transform="translate(0.19 131.591)" fill="#a5aabc"/>
          <path id="Path_152" data-name="Path 152" d="M4.731,129.312v40.98l1.935-1.257v2.682l2.042-2.347V173l1.059-.665.378,2.768,1.059-3.382.378.614.756-.949,1.134.559,1.437-.615.832-.614v1.061l1.588-1.229.68,1.453v1l1.21-.441v.838l.756,1.706.605-.477.3,1.285.454.95.529-2.123.68.365v-1.2l.832.559.378-.5.907.838L25.193,173l.68-1.559.216,1.025.162.763.756-.894a8.762,8.762,0,0,0,.453,1.006c.114.14.832-.341.832-.341v-1.335l.453-1.341.378,1.174.983.167L30.221,173s.3.452.493.509l1.694-3.967.907,1.844.68-.28v.727l1.021-.056v.894l1.1-.335.3.665.454.844.453-.844a3.514,3.514,0,0,0,.529.788,2.037,2.037,0,0,1,.378.894l.907.838.529.782.681-.727,1.059.447.3-.92.454.976.378-2.682.6.559.378-.559.605.614V175.1l.983-1.147V173l.983.341v-.949l.907,3.24.378-1.285.529.757.3-.812.681.447.453-.727.756.056.529.614.605-.782.453.615V173l1.059.4v.726a4.012,4.012,0,0,0,.453,1.341s1.626.559,1.362,0L54.3,174.9l.642-.67V129.312Z" transform="translate(-1.139 -50.355)" fill="#3cca8e"/>
          <path id="Path_153" data-name="Path 153" d="M4.231,128.812H55.2V174.14l-.592.617.189.4a.4.4,0,0,1-.039.464.684.684,0,0,1-.551.2,5.024,5.024,0,0,1-1.275-.273L52.8,175.5l-.061-.11a4.234,4.234,0,0,1-.485-1.449v-.547l-.3-.112v2.149l-.841-1.14-.58.75-.758-.879-.322-.024-.55.881-.607-.4-.4,1.063-.491-.7-.533,1.812-.932-3.327-.57-.2v.587l-1.742,2.034v-1.967l-.167-.169-.365.539-.4-.367-.459,3.256-.591-1.269-.119.363-1.195-.5-.842.9L38.7,175.5l-.954-.881-.016-.089a1.748,1.748,0,0,0-.292-.739,1.968,1.968,0,0,1-.219-.254l-.474.882-.811-1.508-.17-.374-1.252.383V171.9l-1.021.056v-.555l-.5.206-.683-1.388L30.826,173.7l-.364-.108c-.148-.044-.388-.192-.7-.65l-.039-.058-.1-1.171-.933-.159-.078-.243-.065.192v1.438l-.137.092a2.25,2.25,0,0,1-1.005.437.492.492,0,0,1-.388-.164,2.777,2.777,0,0,1-.254-.49l-.854,1.009-.29-1.37-.187.429-.7,2.356-1.051-.97-.338.449-.549-.368v1.122l-.8-.429-.675,2.708L20.4,175.8l-.177-.751-.522.412-.977-2.206v-.417l-1.21.441v-1.418l-.453-.967L15.241,172.3v-1.084l-.231.171-1.671.715-1-.494-.917,1.152L11.2,172.4l-1.323,4.224-.534-3.91-1.135.713v-3.283l-2.042,2.347V169.48l-1.935,1.257Zm50.211.611H4.99v40.036L6.925,168.2v2.352l2.042-2.347v3.969l.982-.617.222,1.626.8-2.54.537.872.594-.747,1.267.624,1.2-.515L16,169.822v1.038l1.36-1.053.908,1.939v.582l1.21-.441v1.259l.534,1.206.688-.542.407,1.731.376-1.509.562.3v-1.285l1.116.749.419-.556.764.705.363-1.231,1.173-2.689.466,2.206.667-.788.236.6c.1.255.223.548.312.74.071-.036.152-.082.232-.131v-1.228l.842-2.49.678,2.1,1.034.176.122,1.446,1.793-4.2,1.132,2.3.861-.354v.9l1.021-.056v.778l.941-.288.43.947.1.188.468-.872.338.684a3.143,3.143,0,0,0,.466.7,2.019,2.019,0,0,1,.446.956l.863.8.267.4.52-.555.922.389.485-1.476.317.682.3-2.107.812.751.391-.578,1.044,1.059v.216l.223-.261v-1.325l.983.341v-3.231l1.3,4.629.223-.759.568.811.209-.562.755.5.357-.572,1.191.088.3.349.63-.814.066.089v-.88l1.819.681v.912a3.481,3.481,0,0,0,.363,1.114,5.263,5.263,0,0,0,.629.157l-.252-.531.693-.723Z" transform="translate(-1.018 -50.16)" fill="#2fad73"/>
          <path id="Path_154" data-name="Path 154" d="M129.113,129.312v62.36l1.935-1.913v4.081l2.042-3.571v5.517l1.059-1.012.378,4.212,1.059-5.147.378.935.756-1.445,1.134.85,1.437-.935.832-.935v1.616l1.588-1.87.68,2.21v1.522l1.21-.672v1.276l.756,2.6.605-.726.3,1.955.454,1.445.529-3.231.68.556v-1.831l.832.85.378-.765.907,1.275.529-2.729.68-2.372.216,1.559.162,1.162.756-1.36s.34,1.318.453,1.53.832-.518.832-.518v-2.032l.453-2.04.378,1.785.983.255.112,2.032s.3.689.493.774l1.694-6.036.907,2.806.68-.425v1.105l1.021-.085v1.36l1.1-.51.3,1.012.454,1.283.453-1.283a6.124,6.124,0,0,0,.529,1.2,4.144,4.144,0,0,1,.378,1.36l.907,1.276.529,1.19.681-1.105,1.059.68.3-1.4.454,1.484.378-4.081.6.85.378-.85.605.935v1.661l.983-1.746v-1.454l.983.518V194.86l.907,4.931.378-1.955.529,1.151.3-1.236.681.68.453-1.105.756.085.529.935.605-1.19.453.935v-2.3l1.059.6V197.5a8.367,8.367,0,0,0,.453,2.04s1.626.851,1.361,0l-.265-.85.642-1.02,1.494,1.877.567-4.441.907,8.189,1.021-6.939.356,2.27.21,1.338,1.7-.694.454,2.4a19.665,19.665,0,0,0,.567-1.98,19.238,19.238,0,0,0,0-3.192l1.248,5.172a17.776,17.776,0,0,1,0-3.507c.226-.625,1.134,1.8,1.134,1.8l.794-1.249a5.062,5.062,0,0,0,.907,1.249,9.675,9.675,0,0,1,1.248,1.7V199.4l1.362,1.249,1.134-1.249v3.886l1.475-4.858v6.524l1.418-6.246a4.865,4.865,0,0,0,1.248.694c.283,0,1.361-3.747,1.361-3.747l3.176,2.915s.567-4.65.794-3.054a19.245,19.245,0,0,0,.907,4.3c.34.556-.169-.731.34.556l.51,1.286.625-3.646,1.588,3.646v-3.229l1.475,3.229.68-3.507,1.134,3.507,1.134-2.813v3.47l1.021,1.943.794-4.858c1.248,1.18,2.722-5,2.722-5l.794,4.3.794-21.236,1.7,5.414v-2.5l1.248,1.8.907-2.082V174.8l1.512,7.053L225,171.39l.579,3.727.177,1.138,1.059-1.946.605,1.946,1.361-1.216v1.818l1.513-3.521,1.059,3.521,2.42-1.454.756,1.454.907,1.1.756-1.1.605.979,1.664-1.581v-3l2.269,3.04v-4.013l1.512,3.041v-3.527l2.269,5.472,1.966-3.648,4.235,2.676,2.873-1.824-.983-45.156Z" transform="translate(-31.072 -50.355)" fill="#3cca8e"/>
          <path id="Path_155" data-name="Path 155" d="M182.119,206.054l-.881-7.95-.274,2.145-1.722-2.164-.278.442.231.739a.541.541,0,0,1-.091.573.682.682,0,0,1-.513.185,3.635,3.635,0,0,1-1.333-.427l-.118-.062-.039-.109a8.521,8.521,0,0,1-.468-2.115v-.958l-.3-.171v3.336l-.841-1.735-.578,1.137-.807-1.426-.236-.026-.573,1.4-.608-.607-.405,1.659-.491-1.067-.538,2.782-.954-5.185-.548-.289v.954l-1.742,3.1v-3l-.161-.249-.363.816-.4-.559-.463,5-.591-1.933-.1.472-1.192-.766-.869,1.41-.819-1.841-.932-1.31-.008-.066a3.706,3.706,0,0,0-.332-1.24,2.575,2.575,0,0,1-.173-.3l-.477,1.352-.824-2.329-.183-.614-1.226.571v-1.551l-1.021.085v-.82l-.523.327-.659-2.037-1.462,5.208-.444-.2c-.078-.035-.314-.141-.666-.938l-.019-.043-.1-1.866-.951-.246L153,193.3l-.065.291V195.7l-.082.083c-.662.673-.951.673-1.06.673a.464.464,0,0,1-.419-.223,5.038,5.038,0,0,1-.229-.679l-.854,1.536L150,195.032l-.177.617-.694,3.578-1.054-1.481-.331.669-.562-.574v1.7l-.785-.642-.687,4.191-.945-3.009-.18-1.162-.525.629-.964-3.314V195.5l-1.21.672v-2.066l-.465-1.512-1.8,2.123v-1.653l-.174.2-1.733,1.128-.978-.733-.94,1.8-.212-.525-1.328,6.452-.541-6.03-1.127,1.077v-4.96l-2.042,3.571v-4.617l-1.935,1.913V128.812H252.852l.007.3.987,45.307-3.256,2.067-4.083-2.58-2.165,4.017-1.843-4.445v3.232l-1.512-3.041V177.2l-2.269-3.04V177.4h-.759v-.5l-1.367,1.3-.54-.873-.708,1.031-1.273-1.544-.582-1.12-2.491,1.5-.889-2.957-1.828,4.254V175.64l-1.176,1.051-.508-1.634-1.166,2.143-.5-3.187-1.153,9.964-1.245-5.807v1.8l-1.208,2.772-.947-1.369v3.775l-1.784-5.674-.713,19.052-.755.036-.492-2.67c-.1.312-.2.646-.32.978a11.132,11.132,0,0,1-.789,1.815c-.243.421-.633.981-1.209.981H214.3l-.909,5.557-1.594-3.035v-1.6L211,202.555l-1-3.1-.624,3.218-1.244-2.724v3.308l-1.806-4.147-.639,3.729-1.019-2.57-.1-.263a.735.735,0,0,1-.215-.25,10.9,10.9,0,0,1-.742-3.056c-.087.534-.172,1.139-.241,1.7l-.086.7-3.269-3c-.107.355-.252.831-.406,1.3-.179.549-.334.988-.46,1.3-.217.542-.356.8-.693.8a1.923,1.923,0,0,1-.964-.411l-.027-.017-1.3,5.73-.753-.055v-3.985l-1.475,4.858v-5.489l-.728.8-1.009-.926v2.767l-.721-1.187a9.279,9.279,0,0,0-1.138-1.594,2.83,2.83,0,0,1-.687-.8l-.874,1.375-.272-.727c-.154-.413-.329-.82-.484-1.138-.027.767.032,1.953.093,2.733l-.752.077-.491-2.036c0,.016-.006.032-.009.047a19.66,19.66,0,0,1-.576,2.012l-.474,1.373-.642-3.388-1.714.7-.245-1.561Zm30.435-3.993.447.85.724-4.426.554.524a.3.3,0,0,0,.047.037c.094-.041.568-.342,1.3-2.449.424-1.225.714-2.433.716-2.445l.421-1.763.494,2.681L218,175.085l1.62,5.153v-1.222l1.548,2.239.607-1.392V174.6l.754-.052,1.025,4.783,1.268-10.953,1.017,6.542.951-1.749.7,2.258,1.545-1.381v.8l1.2-2.787,1.228,4.084,2.349-1.411.93,1.788.541.656.8-1.169.671,1.085,1.2-1.141v-3.992l2.269,3.04v-4.5l1.512,3.041v-3.822l2.695,6.5,1.767-3.279,4.387,2.772,2.491-1.582-.974-44.7H129.372v61.2l1.935-1.913v3.546l2.042-3.571v6.075l.99-.946.215,2.394.791-3.842.544,1.345.571-1.092,1.291.967,1.14-.742,1.491-1.676v1.578l1.373-1.617.9,2.909v.977l1.21-.672v1.822l.547,1.878.686-.823.4,2.57.362-2.211.576.471v-1.967l1.1,1.126.426-.861.761,1.069.368-1.89,1.181-4.117.47,3.386.667-1.2.239.925c.1.4.229.857.321,1.156.069-.058.143-.124.213-.191v-1.95l.842-3.789.7,3.328,1.015.263.115,2.081,1.79-6.38,1.156,3.574.838-.523v1.39l1.021-.085v1.169l.967-.45.419,1.4.086.244.469-1.328.352,1.083a5.687,5.687,0,0,0,.494,1.127,3.954,3.954,0,0,1,.416,1.414l.884,1.243.24.539.493-.8.925.595.5-2.327.317,1.036.293-3.162.811,1.141.393-.884,1.05,1.621v.321l.223-.4v-1.953l.983.518v-.88l.755-.045.541,2.941.218-1.128.568,1.235.2-.814.755.754.334-.814,1.277.143.252.445.632-1.243.065.135V195l1.819,1.037V197.3a7.772,7.772,0,0,0,.4,1.848,3.789,3.789,0,0,0,.66.249l-.293-.939,1.007-1.6,1.266,1.59.456-3.571.756,0,.582,5.256.956-6.5.888,5.656,1.689-.689.244,1.286c.04-.157.077-.311.107-.456a19.2,19.2,0,0,0,0-3.125l.752-.076.453,1.879a1.355,1.355,0,0,1,.057-.241.482.482,0,0,1,.466-.322c.356,0,.588.27.992,1.153.041.09.081.179.118.266l.743-1.168.321.59a4.6,4.6,0,0,0,.79,1.129,3.027,3.027,0,0,1,.638.711V198.4l1.714,1.573,1.541-1.7v2.284l1.475-4.858v5.689l.786-3.464.505.363a8.077,8.077,0,0,0,.841.534,32.846,32.846,0,0,0,1.144-3.429l.167-.581,3.093,2.838c.041-.295.092-.652.149-1.007.08-.5.155-.9.224-1.183.1-.4.185-.777.589-.777s.466.393.5.6a23.446,23.446,0,0,0,.782,4.017.363.363,0,0,1,.219.206c.009.021.023.054.042.1.037.091.1.24.189.474h0l.611-3.563,1.37,3.145V196.52l1.705,3.734.736-3.795,1.268,3.918,1.474-3.655Z" transform="translate(-30.951 -50.16)" fill="#2fad73"/>
          <path id="Path_156" data-name="Path 156" d="M70.856,110.5V88.614l.831.852.3-.379.379-.473.529,1.459v.669l.831.547v-1.52a2.774,2.774,0,0,0,.832-1.4c.037-.183.6-1.7.6-1.7l.605.73.68-.73v1.216l.454,1.277s-.038.973,0,1.155a3.482,3.482,0,0,0,.378,1.034c.151.152.68-1.824.68-1.824s-.189-.638,0-.79a1.234,1.234,0,0,0,.3-.426l.3-.973.831-2.676v-1.7l.832.547a.378.378,0,0,1,0-.547,4.006,4.006,0,0,0,.453-1.277l.529,1.216.529-1.885V99.741l.681,4.926v3.344l.377.851.756-1.094v.973l.983-.791.756.912.378-.79.3.79c-.3-.79.085-4.013.085-4.013a6.537,6.537,0,0,0,.369,1.885c.226.182,1.55-1.855,1.588-1.642s0,2.006,0,2.006l.756.73.378.73a3.779,3.779,0,0,1,.378-1.4c.3-.456.642-1.733.831-1.946a12.82,12.82,0,0,0,.756-1.581s.529,1.915.68,2.311.189,1.186.454,1.277.491-2.249.756-1.034.3,1.52.3,1.52v.547l.983-.547s-.34,1.155,0,1.155,1.059-.152,1.286-.122.34.821.605.912.605-1.277.605-1.277l.68.973.907-1.4.831,1.216.983.608.756.426,1.059-1.034.454.912.983-.608.605.73,1.286-1.216.3-1.763.68,1.52v-2.006l1.286,2.067.756-1.4s-.529,1.064,0,1.216,0,.912,0,.912l.235-5.047.521,1.338.378-1.155,1.059,1.885-.378-4.318,1.059,1.338.53-1.338.68,1.459v-1.581l.68.851.529,1.034v-3.314l.68,2.98.756-.608V110.5Z" transform="translate(-17.052 -31.547)" fill="#fe746e"/>
          <path id="Path_157" data-name="Path 157" d="M115.353,109.063h-45V85.984l1.18,1.209.844-1.054.777,2.144v.568l.072.047v-.976l.073-.08a2.565,2.565,0,0,0,.762-1.256l0-.012c.038-.187.481-1.379.615-1.74l.232-.621.755.91,1.042-1.117v2.089l.456,1.282,0,.048a10.661,10.661,0,0,0,0,1.1c.009.043.021.093.035.147.088-.275.18-.59.26-.886-.1-.356-.143-.8.12-1.008a.929.929,0,0,0,.206-.3l1.119-3.6V80.569l.837.55a.919.919,0,0,1,.064-.082,3.564,3.564,0,0,0,.389-1.149l.234-1.2.591,1.359L82,76.528v21.45l.681,4.926v3.308l.074.166,1.06-1.534v1.413l.663-.533.606.731.277-.579c.009-1.156.174-2.577.2-2.8l.757.009a12.953,12.953,0,0,0,.179,1.342c.174-.2.376-.46.511-.631s.259-.33.36-.449a.667.667,0,0,1,.513-.319.376.376,0,0,1,.391.278c.036.2.016,1.421.006,1.941l.563.544a2.068,2.068,0,0,1,.232-.518,6.555,6.555,0,0,0,.451-1.066,3.328,3.328,0,0,1,.407-.913,12.013,12.013,0,0,0,.705-1.5l.433-1.046.3,1.076c.005.019.528,1.908.673,2.287a2.673,2.673,0,0,1,.1.355c.026-.089.053-.174.079-.247a.548.548,0,0,1,.507-.431c.4,0,.485.378.534.6.252,1.157.3,1.5.306,1.539l1.2-.67-.228.774a3.536,3.536,0,0,0-.141.763c.107-.012.228-.029.341-.044a5.367,5.367,0,0,1,.643-.065,1.016,1.016,0,0,1,.136.008c.317.043.441.3.56.577a6.809,6.809,0,0,0,.215-.7l.2-.808.839,1.2.911-1.4,1.135,1.66.913.565.462.26,1.243-1.214.506,1.016.907-.561.551.665.888-.84.5-2.9.466,1.042v-1.55l1.641,2.639.432-.8.072.024.215-4.6.786,2.019.315-.963.625,1.113-.334-3.816,1.427,1.8.616-1.555.33.707v-.936l1.21,1.513v-1.9l.753-.055.55,2.408.893-.718Zm-7.139-.611h6.38v-6.406l-.619.5-.058-.253v1.5l-1.21-2.363v2.2l-1.031-2.211-.444,1.12-.69-.872.422,4.819-1.492-2.656-.441,1.348-.256-.657-.1,2.224a.556.556,0,0,1,.147.212,1.234,1.234,0,0,1-.244.977Zm-1.633,0h1.251l.065-1.39-.386.714-.93-1.5Zm-2.148,0h2.018l-.764-1.707-.107.622Zm-1.659,0h.7l-.238-.287Zm-1.448,0H102l-.219-.441Zm-30.21,0h29.053l-.323-.182-1.046-.647-.528-.773-.9,1.393-.554-.793c-.18.487-.364.766-.718.766a.537.537,0,0,1-.175-.029c-.291-.1-.407-.377-.531-.671-.028-.065-.065-.153-.1-.216-.115.01-.273.031-.417.051a5.789,5.789,0,0,1-.7.069.536.536,0,0,1-.383-.15.752.752,0,0,1-.138-.649l-.842.469v-1.113c-.007-.048-.037-.237-.129-.691l-.02.056a.559.559,0,0,1-.514.439.5.5,0,0,1-.166-.028c-.363-.125-.445-.512-.548-1a3.525,3.525,0,0,0-.118-.465c-.078-.2-.246-.774-.4-1.3a3.622,3.622,0,0,1-.365.657,5.365,5.365,0,0,0-.3.732,6.472,6.472,0,0,1-.509,1.183,3.417,3.417,0,0,0-.334,1.274l-.1,1.3-.981-1.894-.81-.781,0-.113c.008-.364.013-.747.016-1.078-.651.822-.875,1.035-1.189,1.035a.512.512,0,0,1-.2-.041,6.081,6.081,0,0,0,.078,1.763l.065.17,0,.013.014.037h0a.266.266,0,0,1-.115.323l-.19.13-.224-.089a.3.3,0,0,1-.192-.186h0l-.04-.1-.021-.054,0-.009-.247.516-.906-1.093-1.3,1.049V107.2l-.452.655-.681-1.536v-3.38l-.681-4.926V82l-.071.252-.537-1.234a1.446,1.446,0,0,1-.213.365c-.093.107-.029.168-.026.171L79.873,82l-.212-.14v1.1l-1.154,3.707a1.547,1.547,0,0,1-.361.518,1.428,1.428,0,0,0,.068.532l.02.067-.018.068s-.126.469-.27.927c-.086.273-.162.492-.227.65-.09.221-.2.5-.536.5a.444.444,0,0,1-.315-.123,1.506,1.506,0,0,1-.3-.618c-.077-.234-.135-.465-.154-.556a9.176,9.176,0,0,1-.007-1.167l-.452-1.273v-.342l-.319.342-.454-.547c-.189.516-.346.962-.363,1.041l0,.012a2.954,2.954,0,0,1-.825,1.435v2.066L72.4,89.141v-.77l-.281-.775-.519.65-.483-.495Z" transform="translate(-16.931 -29.8)" fill="#d64c4c"/>
          <rect id="Rectangle_47" data-name="Rectangle 47" width="1.362" height="157.61" transform="translate(221.83 0.153)" fill="#2b73ba"/>
        </g>
      </g>
    </g>
    <path id="Path_711" data-name="Path 711" d="M5.249,0H.591V-.649L2.92-3.237q.322-.356.535-.63a3.857,3.857,0,0,0,.337-.5,1.785,1.785,0,0,0,.173-.425,1.674,1.674,0,0,0,.049-.4,1.46,1.46,0,0,0-.083-.5,1.177,1.177,0,0,0-.239-.4,1.123,1.123,0,0,0-.386-.271,1.308,1.308,0,0,0-.527-.1,1.671,1.671,0,0,0-.627.107,1.2,1.2,0,0,0-.442.3,1.233,1.233,0,0,0-.264.457,1.868,1.868,0,0,0-.088.588h-.9A2.417,2.417,0,0,1,.6-5.864a1.956,1.956,0,0,1,.442-.7,2.091,2.091,0,0,1,.728-.471,2.7,2.7,0,0,1,1.006-.173,2.764,2.764,0,0,1,.9.137,1.9,1.9,0,0,1,.674.388,1.679,1.679,0,0,1,.422.6,2,2,0,0,1,.146.776,1.955,1.955,0,0,1-.107.63,3.575,3.575,0,0,1-.288.632,5.174,5.174,0,0,1-.425.625q-.244.31-.513.608L1.68-.737H5.249Zm5.415-3.032a5.918,5.918,0,0,1-.156,1.472,2.614,2.614,0,0,1-.447.967,1.65,1.65,0,0,1-.7.53A2.54,2.54,0,0,1,8.428.1,2.545,2.545,0,0,1,7.5-.063a1.663,1.663,0,0,1-.708-.53,2.644,2.644,0,0,1-.454-.967,5.747,5.747,0,0,1-.161-1.472V-4.116a5.743,5.743,0,0,1,.159-1.465,2.543,2.543,0,0,1,.452-.952,1.651,1.651,0,0,1,.706-.518,2.6,2.6,0,0,1,.925-.156,2.631,2.631,0,0,1,.933.156,1.648,1.648,0,0,1,.708.518,2.517,2.517,0,0,1,.449.952,5.829,5.829,0,0,1,.156,1.465Zm-.9-1.235a5.207,5.207,0,0,0-.085-1.021,1.954,1.954,0,0,0-.256-.681A1.018,1.018,0,0,0,9-6.348a1.356,1.356,0,0,0-.579-.117,1.343,1.343,0,0,0-.574.117,1,1,0,0,0-.42.378,2.02,2.02,0,0,0-.256.681A5.067,5.067,0,0,0,7.08-4.268v1.377a5.149,5.149,0,0,0,.088,1.023,2.094,2.094,0,0,0,.261.7,1.082,1.082,0,0,0,.425.4,1.256,1.256,0,0,0,.574.127,1.263,1.263,0,0,0,.581-.127,1.055,1.055,0,0,0,.417-.4,2.1,2.1,0,0,0,.251-.7,5.444,5.444,0,0,0,.083-1.023Zm6.519,1.235a5.918,5.918,0,0,1-.156,1.472,2.614,2.614,0,0,1-.447.967,1.65,1.65,0,0,1-.7.53,2.54,2.54,0,0,1-.93.161,2.545,2.545,0,0,1-.928-.161,1.663,1.663,0,0,1-.708-.53,2.644,2.644,0,0,1-.454-.967,5.747,5.747,0,0,1-.161-1.472V-4.116a5.743,5.743,0,0,1,.159-1.465,2.543,2.543,0,0,1,.452-.952,1.651,1.651,0,0,1,.706-.518,2.6,2.6,0,0,1,.925-.156,2.631,2.631,0,0,1,.933.156,1.648,1.648,0,0,1,.708.518,2.517,2.517,0,0,1,.449.952,5.829,5.829,0,0,1,.156,1.465Zm-.9-1.235a5.207,5.207,0,0,0-.085-1.021,1.954,1.954,0,0,0-.256-.681,1.018,1.018,0,0,0-.422-.378,1.356,1.356,0,0,0-.579-.117,1.343,1.343,0,0,0-.574.117,1,1,0,0,0-.42.378,2.02,2.02,0,0,0-.256.681A5.067,5.067,0,0,0,12.7-4.268v1.377a5.149,5.149,0,0,0,.088,1.023,2.094,2.094,0,0,0,.261.7,1.082,1.082,0,0,0,.425.4,1.256,1.256,0,0,0,.574.127,1.263,1.263,0,0,0,.581-.127,1.055,1.055,0,0,0,.417-.4,2.1,2.1,0,0,0,.251-.7,5.444,5.444,0,0,0,.083-1.023Z" transform="translate(1586.5 -393.009)" fill="#a1a1a1"/>
    <path id="Path_712" data-name="Path 712" d="M3.56,0H2.651V-6.021L.83-5.352v-.82l2.588-.972H3.56Zm7.1-3.032a5.918,5.918,0,0,1-.156,1.472,2.614,2.614,0,0,1-.447.967,1.65,1.65,0,0,1-.7.53A2.54,2.54,0,0,1,8.428.1,2.545,2.545,0,0,1,7.5-.063a1.663,1.663,0,0,1-.708-.53,2.644,2.644,0,0,1-.454-.967,5.747,5.747,0,0,1-.161-1.472V-4.116a5.743,5.743,0,0,1,.159-1.465,2.543,2.543,0,0,1,.452-.952,1.651,1.651,0,0,1,.706-.518,2.6,2.6,0,0,1,.925-.156,2.631,2.631,0,0,1,.933.156,1.648,1.648,0,0,1,.708.518,2.517,2.517,0,0,1,.449.952,5.829,5.829,0,0,1,.156,1.465Zm-.9-1.235a5.207,5.207,0,0,0-.085-1.021,1.954,1.954,0,0,0-.256-.681A1.018,1.018,0,0,0,9-6.348a1.356,1.356,0,0,0-.579-.117,1.343,1.343,0,0,0-.574.117,1,1,0,0,0-.42.378,2.02,2.02,0,0,0-.256.681A5.067,5.067,0,0,0,7.08-4.268v1.377a5.149,5.149,0,0,0,.088,1.023,2.094,2.094,0,0,0,.261.7,1.082,1.082,0,0,0,.425.4,1.256,1.256,0,0,0,.574.127,1.263,1.263,0,0,0,.581-.127,1.055,1.055,0,0,0,.417-.4,2.1,2.1,0,0,0,.251-.7,5.444,5.444,0,0,0,.083-1.023Zm6.519,1.235a5.918,5.918,0,0,1-.156,1.472,2.614,2.614,0,0,1-.447.967,1.65,1.65,0,0,1-.7.53,2.54,2.54,0,0,1-.93.161,2.545,2.545,0,0,1-.928-.161,1.663,1.663,0,0,1-.708-.53,2.644,2.644,0,0,1-.454-.967,5.747,5.747,0,0,1-.161-1.472V-4.116a5.743,5.743,0,0,1,.159-1.465,2.543,2.543,0,0,1,.452-.952,1.651,1.651,0,0,1,.706-.518,2.6,2.6,0,0,1,.925-.156,2.631,2.631,0,0,1,.933.156,1.648,1.648,0,0,1,.708.518,2.517,2.517,0,0,1,.449.952,5.829,5.829,0,0,1,.156,1.465Zm-.9-1.235a5.207,5.207,0,0,0-.085-1.021,1.954,1.954,0,0,0-.256-.681,1.018,1.018,0,0,0-.422-.378,1.356,1.356,0,0,0-.579-.117,1.343,1.343,0,0,0-.574.117,1,1,0,0,0-.42.378,2.02,2.02,0,0,0-.256.681A5.067,5.067,0,0,0,12.7-4.268v1.377a5.149,5.149,0,0,0,.088,1.023,2.094,2.094,0,0,0,.261.7,1.082,1.082,0,0,0,.425.4,1.256,1.256,0,0,0,.574.127,1.263,1.263,0,0,0,.581-.127,1.055,1.055,0,0,0,.417-.4,2.1,2.1,0,0,0,.251-.7,5.444,5.444,0,0,0,.083-1.023Z" transform="translate(1586.5 -367.009)" fill="#a1a1a1"/>
    <path id="Path_714" data-name="Path 714" d="M2.563-2.651H.181v-.737H2.563ZM6.318,0H5.41V-6.021l-1.821.669v-.82l2.588-.972h.142Zm7.1-3.032a5.918,5.918,0,0,1-.156,1.472,2.614,2.614,0,0,1-.447.967,1.65,1.65,0,0,1-.7.53,2.54,2.54,0,0,1-.93.161,2.545,2.545,0,0,1-.928-.161,1.663,1.663,0,0,1-.708-.53A2.644,2.644,0,0,1,9.1-1.56a5.747,5.747,0,0,1-.161-1.472V-4.116a5.743,5.743,0,0,1,.159-1.465,2.543,2.543,0,0,1,.452-.952,1.651,1.651,0,0,1,.706-.518,2.6,2.6,0,0,1,.925-.156,2.631,2.631,0,0,1,.933.156,1.648,1.648,0,0,1,.708.518,2.517,2.517,0,0,1,.449.952,5.829,5.829,0,0,1,.156,1.465Zm-.9-1.235a5.207,5.207,0,0,0-.085-1.021,1.954,1.954,0,0,0-.256-.681,1.018,1.018,0,0,0-.422-.378,1.356,1.356,0,0,0-.579-.117,1.343,1.343,0,0,0-.574.117,1,1,0,0,0-.42.378,2.02,2.02,0,0,0-.256.681,5.067,5.067,0,0,0-.088,1.021v1.377a5.149,5.149,0,0,0,.088,1.023,2.094,2.094,0,0,0,.261.7,1.082,1.082,0,0,0,.425.4,1.256,1.256,0,0,0,.574.127,1.263,1.263,0,0,0,.581-.127,1.055,1.055,0,0,0,.417-.4,2.1,2.1,0,0,0,.251-.7,5.444,5.444,0,0,0,.083-1.023Zm6.519,1.235a5.918,5.918,0,0,1-.156,1.472,2.614,2.614,0,0,1-.447.967,1.65,1.65,0,0,1-.7.53A2.54,2.54,0,0,1,16.8.1a2.545,2.545,0,0,1-.928-.161,1.663,1.663,0,0,1-.708-.53,2.644,2.644,0,0,1-.454-.967,5.747,5.747,0,0,1-.161-1.472V-4.116a5.743,5.743,0,0,1,.159-1.465,2.543,2.543,0,0,1,.452-.952,1.651,1.651,0,0,1,.706-.518,2.6,2.6,0,0,1,.925-.156,2.631,2.631,0,0,1,.933.156,1.648,1.648,0,0,1,.708.518,2.517,2.517,0,0,1,.449.952,5.829,5.829,0,0,1,.156,1.465Zm-.9-1.235a5.207,5.207,0,0,0-.085-1.021,1.954,1.954,0,0,0-.256-.681,1.018,1.018,0,0,0-.422-.378,1.356,1.356,0,0,0-.579-.117,1.343,1.343,0,0,0-.574.117,1,1,0,0,0-.42.378,2.02,2.02,0,0,0-.256.681,5.067,5.067,0,0,0-.088,1.021v1.377a5.149,5.149,0,0,0,.088,1.023,2.094,2.094,0,0,0,.261.7,1.082,1.082,0,0,0,.425.4A1.256,1.256,0,0,0,16.8-.64a1.263,1.263,0,0,0,.581-.127,1.055,1.055,0,0,0,.417-.4,2.1,2.1,0,0,0,.251-.7,5.444,5.444,0,0,0,.083-1.023Z" transform="translate(1581.75 -315.009)" fill="#a1a1a1"/>
    <path id="Path_715" data-name="Path 715" d="M2.563-2.651H.181v-.737H2.563ZM8.008,0H3.35V-.649L5.679-3.237q.322-.356.535-.63a3.857,3.857,0,0,0,.337-.5,1.785,1.785,0,0,0,.173-.425,1.674,1.674,0,0,0,.049-.4,1.46,1.46,0,0,0-.083-.5,1.177,1.177,0,0,0-.239-.4,1.123,1.123,0,0,0-.386-.271,1.308,1.308,0,0,0-.527-.1,1.671,1.671,0,0,0-.627.107,1.2,1.2,0,0,0-.442.3A1.233,1.233,0,0,0,4.2-5.6a1.868,1.868,0,0,0-.088.588h-.9a2.417,2.417,0,0,1,.149-.85,1.956,1.956,0,0,1,.442-.7,2.091,2.091,0,0,1,.728-.471,2.7,2.7,0,0,1,1.006-.173,2.764,2.764,0,0,1,.9.137,1.9,1.9,0,0,1,.674.388,1.679,1.679,0,0,1,.422.6,2,2,0,0,1,.146.776,1.955,1.955,0,0,1-.107.63,3.575,3.575,0,0,1-.288.632,5.174,5.174,0,0,1-.425.625q-.244.31-.513.608L4.438-.737H8.008Zm5.415-3.032a5.918,5.918,0,0,1-.156,1.472,2.614,2.614,0,0,1-.447.967,1.65,1.65,0,0,1-.7.53,2.54,2.54,0,0,1-.93.161,2.545,2.545,0,0,1-.928-.161,1.663,1.663,0,0,1-.708-.53A2.644,2.644,0,0,1,9.1-1.56a5.747,5.747,0,0,1-.161-1.472V-4.116a5.743,5.743,0,0,1,.159-1.465,2.543,2.543,0,0,1,.452-.952,1.651,1.651,0,0,1,.706-.518,2.6,2.6,0,0,1,.925-.156,2.631,2.631,0,0,1,.933.156,1.648,1.648,0,0,1,.708.518,2.517,2.517,0,0,1,.449.952,5.829,5.829,0,0,1,.156,1.465Zm-.9-1.235a5.207,5.207,0,0,0-.085-1.021,1.954,1.954,0,0,0-.256-.681,1.018,1.018,0,0,0-.422-.378,1.356,1.356,0,0,0-.579-.117,1.343,1.343,0,0,0-.574.117,1,1,0,0,0-.42.378,2.02,2.02,0,0,0-.256.681,5.067,5.067,0,0,0-.088,1.021v1.377a5.149,5.149,0,0,0,.088,1.023,2.094,2.094,0,0,0,.261.7,1.082,1.082,0,0,0,.425.4,1.256,1.256,0,0,0,.574.127,1.263,1.263,0,0,0,.581-.127,1.055,1.055,0,0,0,.417-.4,2.1,2.1,0,0,0,.251-.7,5.444,5.444,0,0,0,.083-1.023Zm6.519,1.235a5.918,5.918,0,0,1-.156,1.472,2.614,2.614,0,0,1-.447.967,1.65,1.65,0,0,1-.7.53A2.54,2.54,0,0,1,16.8.1a2.545,2.545,0,0,1-.928-.161,1.663,1.663,0,0,1-.708-.53,2.644,2.644,0,0,1-.454-.967,5.747,5.747,0,0,1-.161-1.472V-4.116a5.743,5.743,0,0,1,.159-1.465,2.543,2.543,0,0,1,.452-.952,1.651,1.651,0,0,1,.706-.518,2.6,2.6,0,0,1,.925-.156,2.631,2.631,0,0,1,.933.156,1.648,1.648,0,0,1,.708.518,2.517,2.517,0,0,1,.449.952,5.829,5.829,0,0,1,.156,1.465Zm-.9-1.235a5.207,5.207,0,0,0-.085-1.021,1.954,1.954,0,0,0-.256-.681,1.018,1.018,0,0,0-.422-.378,1.356,1.356,0,0,0-.579-.117,1.343,1.343,0,0,0-.574.117,1,1,0,0,0-.42.378,2.02,2.02,0,0,0-.256.681,5.067,5.067,0,0,0-.088,1.021v1.377a5.149,5.149,0,0,0,.088,1.023,2.094,2.094,0,0,0,.261.7,1.082,1.082,0,0,0,.425.4A1.256,1.256,0,0,0,16.8-.64a1.263,1.263,0,0,0,.581-.127,1.055,1.055,0,0,0,.417-.4,2.1,2.1,0,0,0,.251-.7,5.444,5.444,0,0,0,.083-1.023Z" transform="translate(1581.75 -289.009)" fill="#a1a1a1"/>
    <path id="Path_716" data-name="Path 716" d="M4.039-2.426a4.734,4.734,0,0,1-.125,1.178,2.091,2.091,0,0,1-.357.773,1.32,1.32,0,0,1-.562.424A2.032,2.032,0,0,1,2.25.078a2.036,2.036,0,0,1-.742-.129A1.331,1.331,0,0,1,.941-.475a2.115,2.115,0,0,1-.363-.773A4.6,4.6,0,0,1,.449-2.426v-.867A4.594,4.594,0,0,1,.576-4.465a2.034,2.034,0,0,1,.361-.762A1.321,1.321,0,0,1,1.5-5.641a2.077,2.077,0,0,1,.74-.125,2.1,2.1,0,0,1,.746.125,1.318,1.318,0,0,1,.566.414,2.013,2.013,0,0,1,.359.762,4.663,4.663,0,0,1,.125,1.172Zm-.723-.988a4.166,4.166,0,0,0-.068-.816,1.563,1.563,0,0,0-.205-.545.814.814,0,0,0-.338-.3,1.084,1.084,0,0,0-.463-.094,1.075,1.075,0,0,0-.459.094.8.8,0,0,0-.336.3,1.616,1.616,0,0,0-.205.545,4.053,4.053,0,0,0-.07.816v1.1a4.12,4.12,0,0,0,.07.818,1.676,1.676,0,0,0,.209.561.866.866,0,0,0,.34.32,1,1,0,0,0,.459.1,1.01,1.01,0,0,0,.465-.1.844.844,0,0,0,.334-.32,1.678,1.678,0,0,0,.2-.561,4.355,4.355,0,0,0,.066-.818ZM7.8-5.691v.613H7.73a2.231,2.231,0,0,0-.883.156,1.69,1.69,0,0,0-.6.416,1.782,1.782,0,0,0-.355.6,2.742,2.742,0,0,0-.152.7,1.394,1.394,0,0,1,.549-.393,1.843,1.843,0,0,1,.678-.123,1.548,1.548,0,0,1,.732.162,1.506,1.506,0,0,1,.506.426,1.8,1.8,0,0,1,.295.6,2.5,2.5,0,0,1,.1.688,2.476,2.476,0,0,1-.113.76,1.751,1.751,0,0,1-.336.613,1.583,1.583,0,0,1-.551.41,1.811,1.811,0,0,1-.762.15,1.627,1.627,0,0,1-.8-.191,1.771,1.771,0,0,1-.572-.5,2.211,2.211,0,0,1-.342-.7A2.806,2.806,0,0,1,5-2.1v-.34a6.5,6.5,0,0,1,.049-.795,3.865,3.865,0,0,1,.17-.758,2.96,2.96,0,0,1,.322-.672,2.107,2.107,0,0,1,.5-.539,2.322,2.322,0,0,1,.719-.357,3.259,3.259,0,0,1,.963-.129ZM6.848-3.129a1.12,1.12,0,0,0-.367.061,1.238,1.238,0,0,0-.322.166,1.258,1.258,0,0,0-.258.248,1.094,1.094,0,0,0-.17.307v.266a2.243,2.243,0,0,0,.092.674,1.534,1.534,0,0,0,.246.488,1.061,1.061,0,0,0,.354.3.9.9,0,0,0,.414.1,1,1,0,0,0,.445-.1.931.931,0,0,0,.33-.27A1.236,1.236,0,0,0,7.816-1.3a1.844,1.844,0,0,0,.07-.523,1.855,1.855,0,0,0-.064-.49,1.311,1.311,0,0,0-.193-.418A.979.979,0,0,0,7.3-3.02.92.92,0,0,0,6.848-3.129Zm5.523.9V0h-.75V-5.687h2.1a2.6,2.6,0,0,1,.855.129A1.754,1.754,0,0,1,15.2-5.2a1.534,1.534,0,0,1,.383.551,1.817,1.817,0,0,1,.131.7,1.933,1.933,0,0,1-.131.732,1.4,1.4,0,0,1-.383.541,1.71,1.71,0,0,1-.623.334,2.888,2.888,0,0,1-.855.115Zm0-.613h1.348a1.727,1.727,0,0,0,.564-.082,1.027,1.027,0,0,0,.387-.229.887.887,0,0,0,.221-.348,1.336,1.336,0,0,0,.07-.443,1.3,1.3,0,0,0-.07-.424.967.967,0,0,0-.221-.361,1.08,1.08,0,0,0-.387-.25,1.529,1.529,0,0,0-.564-.094H12.371Zm5.266-2.848L19.5-1.047l1.859-4.641h.973V0h-.75V-2.215l.07-2.391L19.781,0h-.574L17.344-4.594l.074,2.379V0h-.75V-5.687Z" transform="translate(1614 -254.328)" fill="#a1a1a1"/>
    <path id="Path_717" data-name="Path 717" d="M1.629-5.687,3.488-1.047,5.348-5.687H6.32V0H5.57V-2.215l.07-2.391L3.773,0H3.2L1.336-4.594,1.41-2.215V0H.66V-5.687ZM7.34-2.152a2.613,2.613,0,0,1,.135-.854,2.062,2.062,0,0,1,.383-.682,1.752,1.752,0,0,1,.6-.453,1.88,1.88,0,0,1,.8-.164,1.912,1.912,0,0,1,.807.164,1.767,1.767,0,0,1,.607.453,2.017,2.017,0,0,1,.383.682,2.648,2.648,0,0,1,.133.854v.086a2.648,2.648,0,0,1-.133.854,2,2,0,0,1-.383.68,1.761,1.761,0,0,1-.605.449,1.909,1.909,0,0,1-.8.162,1.909,1.909,0,0,1-.8-.162,1.761,1.761,0,0,1-.605-.449,2.022,2.022,0,0,1-.385-.68,2.613,2.613,0,0,1-.135-.854Zm.727.086a2.334,2.334,0,0,0,.074.6,1.52,1.52,0,0,0,.225.494,1.122,1.122,0,0,0,.375.338,1.063,1.063,0,0,0,.525.125,1.066,1.066,0,0,0,.523-.125,1.1,1.1,0,0,0,.375-.338,1.576,1.576,0,0,0,.225-.494,2.278,2.278,0,0,0,.076-.6v-.086a2.284,2.284,0,0,0-.076-.6,1.548,1.548,0,0,0-.227-.5,1.136,1.136,0,0,0-.377-.34,1.061,1.061,0,0,0-.527-.127,1.031,1.031,0,0,0-.52.127,1.149,1.149,0,0,0-.373.34,1.518,1.518,0,0,0-.225.5,2.341,2.341,0,0,0-.074.6Zm4.711-2.16L12.8-3.7a1.634,1.634,0,0,1,.547-.447,1.569,1.569,0,0,1,.719-.162,1.747,1.747,0,0,1,.559.084,1.027,1.027,0,0,1,.426.27,1.248,1.248,0,0,1,.271.477,2.274,2.274,0,0,1,.1.705V0H14.7V-2.777a1.41,1.41,0,0,0-.055-.42.693.693,0,0,0-.162-.283.639.639,0,0,0-.266-.16,1.2,1.2,0,0,0-.365-.051,1.043,1.043,0,0,0-.617.188,1.273,1.273,0,0,0-.414.492V0h-.723V-4.227ZM20.789,0h-.727V-4.816l-1.457.535v-.656l2.07-.777h.113Zm5.844,0H22.906V-.52L24.77-2.59q.258-.285.428-.5a3.086,3.086,0,0,0,.27-.4,1.428,1.428,0,0,0,.139-.34,1.339,1.339,0,0,0,.039-.322,1.168,1.168,0,0,0-.066-.4.942.942,0,0,0-.191-.322.9.9,0,0,0-.309-.217,1.046,1.046,0,0,0-.422-.08,1.337,1.337,0,0,0-.5.086.963.963,0,0,0-.354.238.987.987,0,0,0-.211.365,1.494,1.494,0,0,0-.07.471H22.8a1.934,1.934,0,0,1,.119-.68,1.565,1.565,0,0,1,.354-.559,1.673,1.673,0,0,1,.582-.377,2.161,2.161,0,0,1,.8-.139,2.211,2.211,0,0,1,.721.109,1.523,1.523,0,0,1,.539.311,1.343,1.343,0,0,1,.338.482,1.6,1.6,0,0,1,.117.621,1.564,1.564,0,0,1-.086.5,2.86,2.86,0,0,1-.23.506,4.139,4.139,0,0,1-.34.5q-.2.248-.41.486L23.777-.59h2.855Z" transform="translate(1663 -254.328)" fill="#a1a1a1"/>
    <path id="Path_718" data-name="Path 718" d="M4.039-2.426a4.734,4.734,0,0,1-.125,1.178,2.091,2.091,0,0,1-.357.773,1.32,1.32,0,0,1-.562.424A2.032,2.032,0,0,1,2.25.078a2.036,2.036,0,0,1-.742-.129A1.331,1.331,0,0,1,.941-.475a2.115,2.115,0,0,1-.363-.773A4.6,4.6,0,0,1,.449-2.426v-.867A4.594,4.594,0,0,1,.576-4.465a2.034,2.034,0,0,1,.361-.762A1.321,1.321,0,0,1,1.5-5.641a2.077,2.077,0,0,1,.74-.125,2.1,2.1,0,0,1,.746.125,1.318,1.318,0,0,1,.566.414,2.013,2.013,0,0,1,.359.762,4.663,4.663,0,0,1,.125,1.172Zm-.723-.988a4.166,4.166,0,0,0-.068-.816,1.563,1.563,0,0,0-.205-.545.814.814,0,0,0-.338-.3,1.084,1.084,0,0,0-.463-.094,1.075,1.075,0,0,0-.459.094.8.8,0,0,0-.336.3,1.616,1.616,0,0,0-.205.545,4.053,4.053,0,0,0-.07.816v1.1a4.12,4.12,0,0,0,.07.818,1.676,1.676,0,0,0,.209.561.866.866,0,0,0,.34.32,1,1,0,0,0,.459.1,1.01,1.01,0,0,0,.465-.1.844.844,0,0,0,.334-.32,1.678,1.678,0,0,0,.2-.561,4.355,4.355,0,0,0,.066-.818ZM7.8-5.691v.613H7.73a2.231,2.231,0,0,0-.883.156,1.69,1.69,0,0,0-.6.416,1.782,1.782,0,0,0-.355.6,2.742,2.742,0,0,0-.152.7,1.394,1.394,0,0,1,.549-.393,1.843,1.843,0,0,1,.678-.123,1.548,1.548,0,0,1,.732.162,1.506,1.506,0,0,1,.506.426,1.8,1.8,0,0,1,.295.6,2.5,2.5,0,0,1,.1.688,2.476,2.476,0,0,1-.113.76,1.751,1.751,0,0,1-.336.613,1.583,1.583,0,0,1-.551.41,1.811,1.811,0,0,1-.762.15,1.627,1.627,0,0,1-.8-.191,1.771,1.771,0,0,1-.572-.5,2.211,2.211,0,0,1-.342-.7A2.806,2.806,0,0,1,5-2.1v-.34a6.5,6.5,0,0,1,.049-.795,3.865,3.865,0,0,1,.17-.758,2.96,2.96,0,0,1,.322-.672,2.107,2.107,0,0,1,.5-.539,2.322,2.322,0,0,1,.719-.357,3.259,3.259,0,0,1,.963-.129ZM6.848-3.129a1.12,1.12,0,0,0-.367.061,1.238,1.238,0,0,0-.322.166,1.258,1.258,0,0,0-.258.248,1.094,1.094,0,0,0-.17.307v.266a2.243,2.243,0,0,0,.092.674,1.534,1.534,0,0,0,.246.488,1.061,1.061,0,0,0,.354.3.9.9,0,0,0,.414.1,1,1,0,0,0,.445-.1.931.931,0,0,0,.33-.27A1.236,1.236,0,0,0,7.816-1.3a1.844,1.844,0,0,0,.07-.523,1.855,1.855,0,0,0-.064-.49,1.311,1.311,0,0,0-.193-.418A.979.979,0,0,0,7.3-3.02.92.92,0,0,0,6.848-3.129Zm7.914,1.645H12.379L11.844,0H11.07l2.172-5.687H13.9L16.074,0H15.3ZM12.605-2.1h1.934l-.969-2.66Zm5.2-3.586,1.859,4.641,1.859-4.641H22.5V0h-.75V-2.215l.07-2.391L19.953,0h-.574L17.516-4.594l.074,2.379V0h-.75V-5.687Z" transform="translate(1716 -254.328)" fill="#a1a1a1"/>
    <path id="Path_719" data-name="Path 719" d="M2.848,0H2.121V-4.816L.664-4.281v-.656l2.07-.777h.113ZM8.691,0H4.965V-.52L6.828-2.59q.258-.285.428-.5a3.086,3.086,0,0,0,.27-.4,1.428,1.428,0,0,0,.139-.34A1.339,1.339,0,0,0,7.7-4.156a1.168,1.168,0,0,0-.066-.4.942.942,0,0,0-.191-.322.9.9,0,0,0-.309-.217,1.046,1.046,0,0,0-.422-.08,1.337,1.337,0,0,0-.5.086.963.963,0,0,0-.354.238.987.987,0,0,0-.211.365,1.494,1.494,0,0,0-.07.471H4.855a1.934,1.934,0,0,1,.119-.68,1.565,1.565,0,0,1,.354-.559,1.673,1.673,0,0,1,.582-.377,2.161,2.161,0,0,1,.8-.139,2.211,2.211,0,0,1,.721.109,1.523,1.523,0,0,1,.539.311,1.343,1.343,0,0,1,.338.482,1.6,1.6,0,0,1,.117.621,1.564,1.564,0,0,1-.086.5,2.86,2.86,0,0,1-.23.506,4.139,4.139,0,0,1-.34.5q-.2.248-.41.486L5.836-.59H8.691Zm3.684-2.227V0h-.75V-5.687h2.1a2.6,2.6,0,0,1,.855.129A1.754,1.754,0,0,1,15.2-5.2a1.534,1.534,0,0,1,.383.551,1.817,1.817,0,0,1,.131.7,1.933,1.933,0,0,1-.131.732,1.4,1.4,0,0,1-.383.541,1.71,1.71,0,0,1-.623.334,2.888,2.888,0,0,1-.855.115Zm0-.613h1.348a1.727,1.727,0,0,0,.564-.082,1.027,1.027,0,0,0,.387-.229.887.887,0,0,0,.221-.348,1.336,1.336,0,0,0,.07-.443,1.3,1.3,0,0,0-.07-.424.967.967,0,0,0-.221-.361,1.08,1.08,0,0,0-.387-.25,1.529,1.529,0,0,0-.564-.094H12.375Zm5.266-2.848L19.5-1.047l1.859-4.641h.973V0h-.75V-2.215l.07-2.391L19.785,0h-.574L17.348-4.594l.074,2.379V0h-.75V-5.687Z" transform="translate(1765 -254.328)" fill="#a1a1a1"/>
    <path id="Path_720" data-name="Path 720" d="M4.039-2.426a4.734,4.734,0,0,1-.125,1.178,2.091,2.091,0,0,1-.357.773,1.32,1.32,0,0,1-.562.424A2.032,2.032,0,0,1,2.25.078a2.036,2.036,0,0,1-.742-.129A1.331,1.331,0,0,1,.941-.475a2.115,2.115,0,0,1-.363-.773A4.6,4.6,0,0,1,.449-2.426v-.867A4.594,4.594,0,0,1,.576-4.465a2.034,2.034,0,0,1,.361-.762A1.321,1.321,0,0,1,1.5-5.641a2.077,2.077,0,0,1,.74-.125,2.1,2.1,0,0,1,.746.125,1.318,1.318,0,0,1,.566.414,2.013,2.013,0,0,1,.359.762,4.663,4.663,0,0,1,.125,1.172Zm-.723-.988a4.166,4.166,0,0,0-.068-.816,1.563,1.563,0,0,0-.205-.545.814.814,0,0,0-.338-.3,1.084,1.084,0,0,0-.463-.094,1.075,1.075,0,0,0-.459.094.8.8,0,0,0-.336.3,1.616,1.616,0,0,0-.205.545,4.053,4.053,0,0,0-.07.816v1.1a4.12,4.12,0,0,0,.07.818,1.676,1.676,0,0,0,.209.561.866.866,0,0,0,.34.32,1,1,0,0,0,.459.1,1.01,1.01,0,0,0,.465-.1.844.844,0,0,0,.334-.32,1.678,1.678,0,0,0,.2-.561,4.355,4.355,0,0,0,.066-.818ZM7.8-5.691v.613H7.73a2.231,2.231,0,0,0-.883.156,1.69,1.69,0,0,0-.6.416,1.782,1.782,0,0,0-.355.6,2.742,2.742,0,0,0-.152.7,1.394,1.394,0,0,1,.549-.393,1.843,1.843,0,0,1,.678-.123,1.548,1.548,0,0,1,.732.162,1.506,1.506,0,0,1,.506.426,1.8,1.8,0,0,1,.295.6,2.5,2.5,0,0,1,.1.688,2.476,2.476,0,0,1-.113.76,1.751,1.751,0,0,1-.336.613,1.583,1.583,0,0,1-.551.41,1.811,1.811,0,0,1-.762.15,1.627,1.627,0,0,1-.8-.191,1.771,1.771,0,0,1-.572-.5,2.211,2.211,0,0,1-.342-.7A2.806,2.806,0,0,1,5-2.1v-.34a6.5,6.5,0,0,1,.049-.795,3.865,3.865,0,0,1,.17-.758,2.96,2.96,0,0,1,.322-.672,2.107,2.107,0,0,1,.5-.539,2.322,2.322,0,0,1,.719-.357,3.259,3.259,0,0,1,.963-.129ZM6.848-3.129a1.12,1.12,0,0,0-.367.061,1.238,1.238,0,0,0-.322.166,1.258,1.258,0,0,0-.258.248,1.094,1.094,0,0,0-.17.307v.266a2.243,2.243,0,0,0,.092.674,1.534,1.534,0,0,0,.246.488,1.061,1.061,0,0,0,.354.3.9.9,0,0,0,.414.1,1,1,0,0,0,.445-.1.931.931,0,0,0,.33-.27A1.236,1.236,0,0,0,7.816-1.3a1.844,1.844,0,0,0,.07-.523,1.855,1.855,0,0,0-.064-.49,1.311,1.311,0,0,0-.193-.418A.979.979,0,0,0,7.3-3.02.92.92,0,0,0,6.848-3.129Zm5.523.9V0h-.75V-5.687h2.1a2.6,2.6,0,0,1,.855.129A1.754,1.754,0,0,1,15.2-5.2a1.534,1.534,0,0,1,.383.551,1.817,1.817,0,0,1,.131.7,1.933,1.933,0,0,1-.131.732,1.4,1.4,0,0,1-.383.541,1.71,1.71,0,0,1-.623.334,2.888,2.888,0,0,1-.855.115Zm0-.613h1.348a1.727,1.727,0,0,0,.564-.082,1.027,1.027,0,0,0,.387-.229.887.887,0,0,0,.221-.348,1.336,1.336,0,0,0,.07-.443,1.3,1.3,0,0,0-.07-.424.967.967,0,0,0-.221-.361,1.08,1.08,0,0,0-.387-.25,1.529,1.529,0,0,0-.564-.094H12.371Zm5.266-2.848L19.5-1.047l1.859-4.641h.973V0h-.75V-2.215l.07-2.391L19.781,0h-.574L17.344-4.594l.074,2.379V0h-.75V-5.687Z" transform="translate(1814 -254.328)" fill="#a1a1a1"/>
    <path id="Path_713" data-name="Path 713" d="M5.049-3.032A5.918,5.918,0,0,1,4.893-1.56a2.614,2.614,0,0,1-.447.967,1.65,1.65,0,0,1-.7.53A2.54,2.54,0,0,1,2.813.1a2.545,2.545,0,0,1-.928-.161,1.663,1.663,0,0,1-.708-.53A2.644,2.644,0,0,1,.723-1.56,5.747,5.747,0,0,1,.562-3.032V-4.116A5.743,5.743,0,0,1,.72-5.581a2.543,2.543,0,0,1,.452-.952,1.651,1.651,0,0,1,.706-.518A2.6,2.6,0,0,1,2.8-7.207a2.631,2.631,0,0,1,.933.156,1.648,1.648,0,0,1,.708.518,2.517,2.517,0,0,1,.449.952,5.829,5.829,0,0,1,.156,1.465Zm-.9-1.235A5.207,5.207,0,0,0,4.06-5.288,1.954,1.954,0,0,0,3.8-5.969a1.018,1.018,0,0,0-.422-.378A1.356,1.356,0,0,0,2.8-6.465a1.343,1.343,0,0,0-.574.117,1,1,0,0,0-.42.378,2.02,2.02,0,0,0-.256.681,5.067,5.067,0,0,0-.088,1.021v1.377a5.149,5.149,0,0,0,.088,1.023,2.094,2.094,0,0,0,.261.7,1.082,1.082,0,0,0,.425.4,1.256,1.256,0,0,0,.574.127,1.263,1.263,0,0,0,.581-.127,1.055,1.055,0,0,0,.417-.4,2.1,2.1,0,0,0,.251-.7,5.444,5.444,0,0,0,.083-1.023Z" transform="translate(1597.5 -341.009)" fill="#a1a1a1"/>
    <g id="Clich_here_Notification" data-name="Clich here Notification" transform="translate(1176 -844)">
      <g id="Group_125" data-name="Group 125" transform="translate(709.75 559)">
        <g id="Group_124" data-name="Group 124" transform="translate(0 0)" clip-path="url(#clip-path-5)">
          <path id="Path_157-2" data-name="Path 157" d="M224.162,28.031H3.246c-1.51,0-2.746-.9-2.746-2V9.5c0-1.1,1.236-2,2.746-2H107.961L113.7.932,119.446,7.5H224.162c1.51,0,2.746.9,2.746,2V26.033C226.908,27.132,225.672,28.031,224.162,28.031Z" transform="translate(-0.225 -0.559)" fill="#fff" stroke="rgba(165,170,188,0.5)" stroke-miterlimit="10" stroke-width="1"/>
        </g>
      </g>
      <path id="Path_723" data-name="Path 723" d="M5.594-2.131A2.264,2.264,0,0,1,4.832-.505,2.678,2.678,0,0,1,3.019.088,2.408,2.408,0,0,1,1.083-.74,3.4,3.4,0,0,1,.378-3.015v-.391A3.836,3.836,0,0,1,.7-5.032a2.437,2.437,0,0,1,.929-1.079,2.6,2.6,0,0,1,1.4-.376,2.609,2.609,0,0,1,1.784.593A2.433,2.433,0,0,1,5.6-4.228H4.285a1.336,1.336,0,0,0-.345-.9,1.277,1.277,0,0,0-.9-.279,1.12,1.12,0,0,0-.987.472,2.648,2.648,0,0,0-.336,1.466v.483a2.834,2.834,0,0,0,.314,1.516,1.1,1.1,0,0,0,.991.479,1.3,1.3,0,0,0,.912-.279,1.26,1.26,0,0,0,.345-.864ZM7.717,0H6.442V-6.75H7.717ZM10.1,0H8.829V-4.755H10.1ZM8.754-5.985a.625.625,0,0,1,.191-.47.718.718,0,0,1,.521-.185.72.72,0,0,1,.519.185.622.622,0,0,1,.193.47.624.624,0,0,1-.2.475.722.722,0,0,1-.516.185.722.722,0,0,1-.516-.185A.624.624,0,0,1,8.754-5.985ZM13.126-.936a.833.833,0,0,0,.571-.193.677.677,0,0,0,.229-.514h1.191a1.629,1.629,0,0,1-.264.885,1.74,1.74,0,0,1-.71.624,2.221,2.221,0,0,1-1,.222A2.064,2.064,0,0,1,11.54-.56a2.565,2.565,0,0,1-.589-1.791v-.083a2.536,2.536,0,0,1,.584-1.753,2.04,2.04,0,0,1,1.6-.655,2,2,0,0,1,1.43.508,1.8,1.8,0,0,1,.547,1.351H13.926a.873.873,0,0,0-.229-.6.762.762,0,0,0-.58-.232.765.765,0,0,0-.67.323,1.875,1.875,0,0,0-.226,1.05v.132a1.9,1.9,0,0,0,.224,1.056A.775.775,0,0,0,13.126-.936Zm4.443-.971-.457.457V0h-1.27V-6.75h1.27v3.74l.246-.316,1.217-1.428H20.1L18.382-2.773,20.25,0H18.791ZM24.13-4.236a1.585,1.585,0,0,1,1.27-.606q1.547,0,1.569,1.8V0H25.7V-3.01a.883.883,0,0,0-.176-.6.754.754,0,0,0-.584-.2.864.864,0,0,0-.809.431V0H22.86V-6.75h1.27ZM30.116.088a2.334,2.334,0,0,1-1.7-.642,2.281,2.281,0,0,1-.657-1.709v-.123a2.872,2.872,0,0,1,.277-1.281,2.032,2.032,0,0,1,.784-.87,2.2,2.2,0,0,1,1.158-.305,1.973,1.973,0,0,1,1.536.615,2.5,2.5,0,0,1,.56,1.745v.519H29.043a1.18,1.18,0,0,0,.371.747,1.123,1.123,0,0,0,.784.281,1.371,1.371,0,0,0,1.147-.532l.624.7a1.907,1.907,0,0,1-.773.631A2.538,2.538,0,0,1,30.116.088Zm-.145-3.907a.794.794,0,0,0-.613.256,1.326,1.326,0,0,0-.3.733h1.767v-.1a.946.946,0,0,0-.229-.655A.819.819,0,0,0,29.971-3.819Zm5.493.255a3.45,3.45,0,0,0-.457-.035.93.93,0,0,0-.945.488V0h-1.27V-4.755h1.2l.035.567a1.177,1.177,0,0,1,1.059-.655,1.331,1.331,0,0,1,.4.057ZM38.18.088a2.334,2.334,0,0,1-1.7-.642,2.281,2.281,0,0,1-.657-1.709v-.123A2.872,2.872,0,0,1,36.1-3.667a2.032,2.032,0,0,1,.784-.87,2.2,2.2,0,0,1,1.158-.305,1.973,1.973,0,0,1,1.536.615,2.5,2.5,0,0,1,.56,1.745v.519H37.107a1.18,1.18,0,0,0,.371.747,1.123,1.123,0,0,0,.784.281,1.371,1.371,0,0,0,1.147-.532l.624.7a1.907,1.907,0,0,1-.773.631A2.538,2.538,0,0,1,38.18.088Zm-.145-3.907a.794.794,0,0,0-.613.256,1.326,1.326,0,0,0-.3.733h1.767v-.1a.946.946,0,0,0-.229-.655A.819.819,0,0,0,38.035-3.819Zm6.583-2.1v1.169h.813v.932h-.813V-1.45a.567.567,0,0,0,.1.378.508.508,0,0,0,.387.114,2.025,2.025,0,0,0,.374-.031v.962a2.615,2.615,0,0,1-.769.114,1.213,1.213,0,0,1-1.362-1.349V-3.823h-.694v-.932h.694V-5.924Zm1.191,3.5a2.82,2.82,0,0,1,.272-1.261,2,2,0,0,1,.784-.857,2.289,2.289,0,0,1,1.189-.3,2.165,2.165,0,0,1,1.571.589,2.363,2.363,0,0,1,.679,1.6l.009.325A2.485,2.485,0,0,1,49.7-.573a2.123,2.123,0,0,1-1.639.661,2.134,2.134,0,0,1-1.641-.659,2.529,2.529,0,0,1-.613-1.793Zm1.27.09a1.777,1.777,0,0,0,.255,1.036.841.841,0,0,0,.729.359.843.843,0,0,0,.721-.354,1.945,1.945,0,0,0,.259-1.133,1.76,1.76,0,0,0-.259-1.03.843.843,0,0,0-.729-.365.829.829,0,0,0-.721.363A1.978,1.978,0,0,0,47.079-2.331Zm8.038.78L56-4.755h1.327L55.723,0H54.51l-1.6-4.755h1.327ZM59.225,0H57.951V-4.755h1.274ZM57.876-5.985a.625.625,0,0,1,.191-.47.718.718,0,0,1,.521-.185.72.72,0,0,1,.519.185.622.622,0,0,1,.193.47.624.624,0,0,1-.2.475.722.722,0,0,1-.516.185.722.722,0,0,1-.516-.185A.624.624,0,0,1,57.876-5.985ZM62.459.088a2.334,2.334,0,0,1-1.7-.642A2.281,2.281,0,0,1,60.1-2.263v-.123a2.872,2.872,0,0,1,.277-1.281,2.032,2.032,0,0,1,.784-.87,2.2,2.2,0,0,1,1.158-.305,1.973,1.973,0,0,1,1.536.615,2.5,2.5,0,0,1,.56,1.745v.519H61.387a1.18,1.18,0,0,0,.371.747,1.123,1.123,0,0,0,.784.281,1.371,1.371,0,0,0,1.147-.532l.624.7a1.907,1.907,0,0,1-.773.631A2.538,2.538,0,0,1,62.459.088Zm-.145-3.907a.794.794,0,0,0-.613.256,1.326,1.326,0,0,0-.3.733h1.767v-.1a.946.946,0,0,0-.229-.655A.819.819,0,0,0,62.314-3.819Zm6.957,2.092L69.9-4.755h1.226L69.908,0H68.845l-.9-2.993L67.043,0H65.984L64.771-4.755H66l.62,3.023.87-3.023h.918Zm9.356-3.6h-1.96V0H75.349V-5.331H73.415V-6.4h5.212Zm1.907,1.094a1.585,1.585,0,0,1,1.27-.606q1.547,0,1.569,1.8V0H82.1V-3.01a.883.883,0,0,0-.176-.6.754.754,0,0,0-.584-.2.864.864,0,0,0-.809.431V0h-1.27V-6.75h1.27ZM87-3.564a3.45,3.45,0,0,0-.457-.035.93.93,0,0,0-.945.488V0h-1.27V-4.755h1.2l.035.567a1.177,1.177,0,0,1,1.059-.655,1.331,1.331,0,0,1,.4.057ZM89.719.088a2.334,2.334,0,0,1-1.7-.642,2.281,2.281,0,0,1-.657-1.709v-.123a2.872,2.872,0,0,1,.277-1.281,2.032,2.032,0,0,1,.784-.87,2.2,2.2,0,0,1,1.158-.305,1.973,1.973,0,0,1,1.536.615,2.5,2.5,0,0,1,.56,1.745v.519H88.646a1.18,1.18,0,0,0,.371.747,1.123,1.123,0,0,0,.784.281,1.371,1.371,0,0,0,1.147-.532l.624.7a1.907,1.907,0,0,1-.773.631A2.538,2.538,0,0,1,89.719.088Zm-.145-3.907a.794.794,0,0,0-.613.256,1.326,1.326,0,0,0-.3.733h1.767v-.1a.946.946,0,0,0-.229-.655A.819.819,0,0,0,89.574-3.819Zm5.4,2.5a.409.409,0,0,0-.231-.367A2.621,2.621,0,0,0,94-1.92q-1.7-.356-1.7-1.441a1.307,1.307,0,0,1,.525-1.057A2.118,2.118,0,0,1,94.2-4.843a2.28,2.28,0,0,1,1.448.426,1.343,1.343,0,0,1,.543,1.107h-1.27a.615.615,0,0,0-.176-.45.744.744,0,0,0-.549-.178.76.76,0,0,0-.5.145.458.458,0,0,0-.176.369.391.391,0,0,0,.2.341,2.057,2.057,0,0,0,.675.224,5.51,5.51,0,0,1,.8.213,1.314,1.314,0,0,1,1.006,1.279,1.24,1.24,0,0,1-.558,1.052,2.408,2.408,0,0,1-1.441.4,2.515,2.515,0,0,1-1.061-.213,1.781,1.781,0,0,1-.727-.584,1.358,1.358,0,0,1-.264-.8h1.2a.663.663,0,0,0,.25.519.994.994,0,0,0,.624.18.92.92,0,0,0,.552-.138A.431.431,0,0,0,94.97-1.314Zm3.292-2.922a1.585,1.585,0,0,1,1.27-.606q1.547,0,1.569,1.8V0h-1.27V-3.01a.883.883,0,0,0-.176-.6.754.754,0,0,0-.584-.2.864.864,0,0,0-.809.431V0h-1.27V-6.75h1.27Zm3.6,1.815a2.82,2.82,0,0,1,.272-1.261,2,2,0,0,1,.784-.857,2.289,2.289,0,0,1,1.189-.3,2.165,2.165,0,0,1,1.571.589,2.363,2.363,0,0,1,.679,1.6l.009.325a2.485,2.485,0,0,1-.611,1.756,2.123,2.123,0,0,1-1.639.661,2.134,2.134,0,0,1-1.641-.659,2.529,2.529,0,0,1-.613-1.793Zm1.27.09a1.777,1.777,0,0,0,.255,1.036.841.841,0,0,0,.729.359.843.843,0,0,0,.721-.354,1.945,1.945,0,0,0,.259-1.133,1.76,1.76,0,0,0-.259-1.03.843.843,0,0,0-.729-.365.829.829,0,0,0-.721.363A1.978,1.978,0,0,0,103.131-2.331ZM108.488,0h-1.274V-6.75h1.274Zm.848-2.413a2.865,2.865,0,0,1,.5-1.771,1.618,1.618,0,0,1,1.365-.659,1.456,1.456,0,0,1,1.147.519V-6.75h1.274V0h-1.147l-.062-.505a1.5,1.5,0,0,1-1.222.593,1.614,1.614,0,0,1-1.347-.661A2.958,2.958,0,0,1,109.336-2.413Zm1.27.095a1.877,1.877,0,0,0,.233,1.026.759.759,0,0,0,.677.357.85.85,0,0,0,.831-.5V-3.313a.838.838,0,0,0-.822-.5Q110.606-3.81,110.606-2.318ZM115,.549h-.945L116.416-6.4h.945Zm8.3-3.6a3.863,3.863,0,0,1-.334,1.657,2.515,2.515,0,0,1-.956,1.1,2.644,2.644,0,0,1-1.426.387,2.662,2.662,0,0,1-1.419-.382,2.54,2.54,0,0,1-.967-1.092,3.752,3.752,0,0,1-.347-1.633v-.316A3.842,3.842,0,0,1,118.2-5a2.536,2.536,0,0,1,.962-1.1,2.647,2.647,0,0,1,1.422-.385A2.647,2.647,0,0,1,122-6.1a2.536,2.536,0,0,1,.962,1.1,3.831,3.831,0,0,1,.341,1.659Zm-1.336-.29a2.693,2.693,0,0,0-.36-1.529,1.174,1.174,0,0,0-1.028-.523,1.175,1.175,0,0,0-1.024.516,2.662,2.662,0,0,0-.365,1.514v.312a2.726,2.726,0,0,0,.36,1.521,1.171,1.171,0,0,0,1.037.541,1.161,1.161,0,0,0,1.02-.521,2.71,2.71,0,0,0,.36-1.518Zm6.5,1.011a2.879,2.879,0,0,1-.488,1.782,1.616,1.616,0,0,1-1.362.639,1.485,1.485,0,0,1-1.235-.593L125.323,0h-1.143V-6.75h1.27v2.421a1.446,1.446,0,0,1,1.156-.514,1.629,1.629,0,0,1,1.365.639,2.883,2.883,0,0,1,.494,1.8Zm-1.27-.092a1.892,1.892,0,0,0-.229-1.052.773.773,0,0,0-.681-.332.838.838,0,0,0-.835.5v1.876a.849.849,0,0,0,.844.5.784.784,0,0,0,.809-.606A3.128,3.128,0,0,0,127.2-2.426Zm4.627,1.112a.409.409,0,0,0-.231-.367,2.621,2.621,0,0,0-.74-.24q-1.7-.356-1.7-1.441a1.307,1.307,0,0,1,.525-1.057,2.118,2.118,0,0,1,1.373-.424,2.28,2.28,0,0,1,1.448.426,1.343,1.343,0,0,1,.543,1.107h-1.27a.615.615,0,0,0-.176-.45.744.744,0,0,0-.549-.178.76.76,0,0,0-.5.145.458.458,0,0,0-.176.369.391.391,0,0,0,.2.341,2.057,2.057,0,0,0,.675.224,5.51,5.51,0,0,1,.8.213,1.314,1.314,0,0,1,1.006,1.279A1.24,1.24,0,0,1,132.5-.314a2.408,2.408,0,0,1-1.441.4A2.515,2.515,0,0,1,130-.125a1.781,1.781,0,0,1-.727-.584,1.358,1.358,0,0,1-.264-.8h1.2a.663.663,0,0,0,.25.519.994.994,0,0,0,.624.18.92.92,0,0,0,.552-.138A.431.431,0,0,0,131.823-1.314Zm4.241,1.4a2.334,2.334,0,0,1-1.7-.642,2.281,2.281,0,0,1-.657-1.709v-.123a2.872,2.872,0,0,1,.277-1.281,2.032,2.032,0,0,1,.784-.87,2.2,2.2,0,0,1,1.158-.305,1.973,1.973,0,0,1,1.536.615,2.5,2.5,0,0,1,.56,1.745v.519h-3.028a1.18,1.18,0,0,0,.371.747,1.123,1.123,0,0,0,.784.281,1.371,1.371,0,0,0,1.147-.532l.624.7a1.907,1.907,0,0,1-.773.631A2.538,2.538,0,0,1,136.063.088Zm-.145-3.907a.794.794,0,0,0-.613.256,1.326,1.326,0,0,0-.3.733h1.767v-.1a.946.946,0,0,0-.229-.655A.819.819,0,0,0,135.918-3.819Zm5.493.255a3.45,3.45,0,0,0-.457-.035.93.93,0,0,0-.945.488V0h-1.27V-4.755h1.2l.035.567a1.177,1.177,0,0,1,1.059-.655,1.331,1.331,0,0,1,.4.057Zm2.47,2.013.883-3.2h1.327L144.488,0h-1.213l-1.6-4.755H143ZM149.339,0a1.41,1.41,0,0,1-.127-.426,1.537,1.537,0,0,1-1.2.514,1.688,1.688,0,0,1-1.158-.4,1.3,1.3,0,0,1-.459-1.02,1.344,1.344,0,0,1,.56-1.16,2.765,2.765,0,0,1,1.619-.409h.584v-.272a.784.784,0,0,0-.169-.527.666.666,0,0,0-.534-.2.757.757,0,0,0-.5.154.523.523,0,0,0-.182.422H146.5a1.276,1.276,0,0,1,.255-.765,1.685,1.685,0,0,1,.721-.552,2.627,2.627,0,0,1,1.046-.2,2.075,2.075,0,0,1,1.4.442,1.545,1.545,0,0,1,.516,1.241V-1.1a2.273,2.273,0,0,0,.189,1.024V0Zm-1.05-.883a1.094,1.094,0,0,0,.519-.125.823.823,0,0,0,.352-.336v-.817h-.475q-.954,0-1.015.659l0,.075a.508.508,0,0,0,.167.391A.649.649,0,0,0,148.289-.883Zm4.641-5.041v1.169h.813v.932h-.813V-1.45a.567.567,0,0,0,.1.378.508.508,0,0,0,.387.114,2.025,2.025,0,0,0,.374-.031v.962a2.615,2.615,0,0,1-.769.114,1.213,1.213,0,0,1-1.362-1.349V-3.823h-.694v-.932h.694V-5.924ZM155.791,0h-1.274V-4.755h1.274Zm-1.349-5.985a.625.625,0,0,1,.191-.47.718.718,0,0,1,.521-.185.72.72,0,0,1,.519.185.622.622,0,0,1,.193.47.624.624,0,0,1-.2.475.722.722,0,0,1-.516.185.722.722,0,0,1-.516-.185A.624.624,0,0,1,154.441-5.985Zm2.2,3.564a2.82,2.82,0,0,1,.272-1.261,2,2,0,0,1,.784-.857,2.289,2.289,0,0,1,1.189-.3,2.165,2.165,0,0,1,1.571.589,2.363,2.363,0,0,1,.679,1.6l.009.325a2.485,2.485,0,0,1-.611,1.756,2.123,2.123,0,0,1-1.639.661,2.134,2.134,0,0,1-1.641-.659,2.529,2.529,0,0,1-.613-1.793Zm1.27.09a1.777,1.777,0,0,0,.255,1.036.841.841,0,0,0,.729.359.843.843,0,0,0,.721-.354,1.945,1.945,0,0,0,.259-1.133,1.76,1.76,0,0,0-.259-1.03.843.843,0,0,0-.729-.365.829.829,0,0,0-.721.363A1.978,1.978,0,0,0,157.909-2.331Zm5.186-2.424.04.549a1.66,1.66,0,0,1,1.367-.637,1.38,1.38,0,0,1,1.125.444A2.071,2.071,0,0,1,166-3.072V0h-1.27V-3.041a.824.824,0,0,0-.176-.587.787.787,0,0,0-.584-.182.874.874,0,0,0-.8.457V0H161.9V-4.755Zm5.915,2.342a2.865,2.865,0,0,1,.5-1.771,1.618,1.618,0,0,1,1.365-.659,1.456,1.456,0,0,1,1.147.519V-6.75h1.274V0h-1.147l-.062-.505a1.5,1.5,0,0,1-1.222.593,1.614,1.614,0,0,1-1.347-.661A2.958,2.958,0,0,1,169.009-2.413Zm1.27.095a1.877,1.877,0,0,0,.233,1.026.759.759,0,0,0,.677.357.85.85,0,0,0,.831-.5V-3.313a.838.838,0,0,0-.822-.5Q170.279-3.81,170.279-2.318ZM176.467.088a2.334,2.334,0,0,1-1.7-.642,2.281,2.281,0,0,1-.657-1.709v-.123a2.872,2.872,0,0,1,.277-1.281,2.032,2.032,0,0,1,.784-.87,2.2,2.2,0,0,1,1.158-.305,1.973,1.973,0,0,1,1.536.615,2.5,2.5,0,0,1,.56,1.745v.519h-3.028a1.18,1.18,0,0,0,.371.747,1.123,1.123,0,0,0,.784.281,1.371,1.371,0,0,0,1.147-.532l.624.7a1.907,1.907,0,0,1-.773.631A2.538,2.538,0,0,1,176.467.088Zm-.145-3.907a.794.794,0,0,0-.613.256,1.326,1.326,0,0,0-.3.733h1.767v-.1a.946.946,0,0,0-.229-.655A.819.819,0,0,0,176.322-3.819Zm4.342-2.1v1.169h.813v.932h-.813V-1.45a.567.567,0,0,0,.1.378.508.508,0,0,0,.387.114,2.025,2.025,0,0,0,.374-.031v.962a2.615,2.615,0,0,1-.769.114,1.213,1.213,0,0,1-1.362-1.349V-3.823H178.7v-.932h.694V-5.924ZM184.939,0a1.41,1.41,0,0,1-.127-.426,1.537,1.537,0,0,1-1.2.514,1.688,1.688,0,0,1-1.158-.4A1.3,1.3,0,0,1,182-1.336a1.344,1.344,0,0,1,.56-1.16,2.765,2.765,0,0,1,1.619-.409h.584v-.272a.784.784,0,0,0-.169-.527.666.666,0,0,0-.534-.2.757.757,0,0,0-.5.154.523.523,0,0,0-.182.422H182.1a1.276,1.276,0,0,1,.255-.765,1.685,1.685,0,0,1,.721-.552,2.627,2.627,0,0,1,1.046-.2,2.075,2.075,0,0,1,1.4.442,1.545,1.545,0,0,1,.516,1.241V-1.1a2.273,2.273,0,0,0,.189,1.024V0Zm-1.05-.883a1.094,1.094,0,0,0,.519-.125.823.823,0,0,0,.352-.336v-.817h-.475q-.954,0-1.015.659l0,.075a.508.508,0,0,0,.167.391A.649.649,0,0,0,183.889-.883ZM188.35,0h-1.274V-4.755h1.274ZM187-5.985a.625.625,0,0,1,.191-.47.718.718,0,0,1,.521-.185.72.72,0,0,1,.519.185.622.622,0,0,1,.193.47.624.624,0,0,1-.2.475.722.722,0,0,1-.516.185.722.722,0,0,1-.516-.185A.624.624,0,0,1,187-5.985ZM190.736,0h-1.274V-6.75h1.274Zm3.621-1.314a.409.409,0,0,0-.231-.367,2.621,2.621,0,0,0-.74-.24q-1.7-.356-1.7-1.441a1.307,1.307,0,0,1,.525-1.057,2.118,2.118,0,0,1,1.373-.424,2.28,2.28,0,0,1,1.448.426,1.343,1.343,0,0,1,.543,1.107h-1.27a.615.615,0,0,0-.176-.45.744.744,0,0,0-.549-.178.76.76,0,0,0-.5.145.458.458,0,0,0-.176.369.391.391,0,0,0,.2.341,2.057,2.057,0,0,0,.675.224,5.51,5.51,0,0,1,.8.213,1.314,1.314,0,0,1,1.006,1.279,1.24,1.24,0,0,1-.558,1.052,2.408,2.408,0,0,1-1.441.4,2.515,2.515,0,0,1-1.061-.213A1.781,1.781,0,0,1,191.8-.71a1.358,1.358,0,0,1-.264-.8h1.2a.663.663,0,0,0,.25.519.994.994,0,0,0,.624.18.92.92,0,0,0,.552-.138A.431.431,0,0,0,194.357-1.314Z" transform="translate(725.229 580)" fill="#0c2339"/>
    </g>
    <line id="Line_42" data-name="Line 42" y2="21" transform="translate(1885.5 -459.5)" fill="none" stroke="rgba(165,170,188,0.5)" stroke-width="0.5"/>
  </g>
</svg>
