<?xml version="1.0" encoding="UTF-8" standalone="no"?>
<svg
   width="96.5"
   height="48.748"
   viewBox="0 0 96.5 48.748"
   version="1.1"
   id="svg32"
   sodipodi:docname="slider20-thumb.svg"
   xmlns:inkscape="http://www.inkscape.org/namespaces/inkscape"
   xmlns:sodipodi="http://sodipodi.sourceforge.net/DTD/sodipodi-0.dtd"
   xmlns="http://www.w3.org/2000/svg"
   xmlns:svg="http://www.w3.org/2000/svg">
  <defs
     id="defs36" />
  <sodipodi:namedview
     id="namedview34"
     pagecolor="#ffffff"
     bordercolor="#666666"
     borderopacity="1.0"
     inkscape:pageshadow="2"
     inkscape:pageopacity="0.0"
     inkscape:pagecheckerboard="0" />
  <g
     transform="translate(-1049,-303.752)"
     id="g30">
    <g
       transform="translate(1049,303.752)"
       fill="rgba(254,116,110,0.15)"
       stroke="#fe746e"
       stroke-width="0.5"
       id="g6">
      <path
         id="rect2"
         style="stroke:none"
         d="m 5,0 h 86.5 c 2.77,0 5,2.23 5,5 v 38.748001 c 0,2.77 -2.23,5 -5,5 H 5 c -2.77,0 -5,-2.23 -5,-5 V 5 C 0,2.23 2.23,0 5,0 Z" />
      <path
         id="rect4"
         style="fill:none"
         d="m 5,0.25 h 86.5 c 2.6315,0 4.75,2.1185 4.75,4.75 v 38.748001 c 0,2.6315 -2.1185,4.75 -4.75,4.75 H 5 c -2.6315,0 -4.75,-2.1185 -4.75,-4.75 V 5 C 0.25,2.3685 2.3685,0.25 5,0.25 Z" />
    </g>
    <g
       aria-label="Completion"
       transform="translate(1056,320.411)"
       id="text10"
       style="font-size:10px;font-family:Roboto-Regular, Roboto;fill:#0c2339">
      <path
         d="M 6.0546875,-2.2558594 Q 5.9228516,-1.1279297 5.2197266,-0.51269531 4.5214844,0.09765625 3.359375,0.09765625 q -1.2597656,0 -2.0214844,-0.90332031 Q 0.58105469,-1.7089844 0.58105469,-3.2226563 V -3.90625 q 0,-0.9912109 0.3515625,-1.7431641 0.35644531,-0.7519531 1.00585941,-1.1523437 0.649414,-0.4052734 1.5039062,-0.4052734 1.1328125,0 1.8164063,0.6347656 0.6835937,0.6298828 0.7958984,1.7480469 H 5.1123047 Q 4.9902344,-5.6738281 4.5800781,-6.0546875 4.1748047,-6.4355469 3.4423828,-6.4355469 q -0.8984375,0 -1.4111328,0.6640625 -0.5078125,0.6640625 -0.5078125,1.8896485 v 0.6884765 q 0,1.1572266 0.4833984,1.8408203 0.4833985,0.68359379 1.3525391,0.68359379 0.78125,0 1.1962891,-0.35156249 0.4199218,-0.3564453 0.5566406,-1.2353516 z"
         id="path40" />
      <path
         d="m 6.953125,-2.6904297 q 0,-0.7763672 0.3027344,-1.3964844 0.3076172,-0.6201171 0.8496094,-0.9570312 0.546875,-0.3369141 1.2451171,-0.3369141 1.0791021,0 1.7431641,0.7470703 0.668945,0.7470703 0.668945,1.9873047 v 0.063477 q 0,0.7714844 -0.297851,1.3867187 -0.292969,0.6103516 -0.844727,0.95214847 -0.546875,0.34179688 -1.2597654,0.34179688 -1.0742188,0 -1.7431641,-0.74707031 Q 6.953125,-1.3964844 6.953125,-2.6269531 Z m 0.9082031,0.1074219 q 0,0.8789062 0.4052735,1.4111328 0.4101562,0.53222656 1.09375,0.53222656 0.6884764,0 1.0937504,-0.53710936 0.405273,-0.5419922 0.405273,-1.5136719 0,-0.8691406 -0.415039,-1.40625 -0.410156,-0.5419922 -1.0937501,-0.5419922 -0.6689453,0 -1.0791015,0.5322266 -0.4101563,0.5322265 -0.4101563,1.5234375 z"
         id="path42" />
      <path
         d="m 13.745117,-5.2832031 0.02441,0.5859375 q 0.581055,-0.6835938 1.567383,-0.6835938 1.108398,0 1.508789,0.8496094 0.263672,-0.3808594 0.683594,-0.6152344 0.424805,-0.234375 1.000976,-0.234375 1.738282,0 1.767579,1.8408203 V 0 h -0.903321 v -3.4863281 q 0,-0.5664063 -0.258789,-0.8447266 -0.258789,-0.2832031 -0.86914,-0.2832031 -0.50293,0 -0.834961,0.3027344 -0.332032,0.2978515 -0.385743,0.805664 V 0 h -0.908203 v -3.4619141 q 0,-1.1523437 -1.127929,-1.1523437 -0.888672,0 -1.215821,0.7568359 V 0 h -0.90332 v -5.2832031 z"
         id="path44" />
      <path
         d="m 26.123047,-2.5830078 q 0,1.2060547 -0.551758,1.94335936 -0.551758,0.73730469 -1.494141,0.73730469 -0.961914,0 -1.513671,-0.61035156 V 2.03125 h -0.903321 v -7.3144531 h 0.825196 l 0.04395,0.5859375 q 0.551758,-0.6835938 1.533203,-0.6835938 0.952148,0 1.503906,0.7177735 0.556641,0.7177734 0.556641,1.9970703 z m -0.90332,-0.1025391 q 0,-0.8935547 -0.38086,-1.4111328 -0.380859,-0.5175781 -1.044922,-0.5175781 -0.820312,0 -1.230468,0.727539 v 2.5244141 q 0.405273,0.72265626 1.240234,0.72265626 0.649414,0 1.030273,-0.51269526 0.385743,-0.5175782 0.385743,-1.5332032 z"
         id="path46" />
      <path
         d="m 28.251953,0 h -0.90332 v -7.5 h 0.90332 z"
         id="path48" />
      <path
         d="m 31.889648,0.09765625 q -1.074218,0 -1.748046,-0.703125 -0.673829,-0.70800785 -0.673829,-1.88964845 v -0.1660156 q 0,-0.7861328 0.297852,-1.4013672 0.302734,-0.6201172 0.839844,-0.9667969 0.541992,-0.3515625 1.171875,-0.3515625 1.030273,0 1.601562,0.678711 0.571289,0.6787109 0.571289,1.9433593 v 0.3759766 h -3.579101 q 0.01953,0.78125 0.454101,1.2646484 0.439453,0.47851566 1.113282,0.47851566 0.478515,0 0.810546,-0.1953125 0.332032,-0.19531246 0.581055,-0.51757816 l 0.551758,0.42968754 Q 33.217773,0.09765625 31.889648,0.09765625 Z M 31.777344,-4.6386719 q -0.546875,0 -0.917969,0.4003907 -0.371094,0.3955078 -0.458984,1.1132812 h 2.646484 v -0.068359 q -0.03906,-0.6884765 -0.371094,-1.0644531 -0.332031,-0.3808594 -0.898437,-0.3808594 z"
         id="path50" />
      <path
         d="m 36.220703,-6.5625 v 1.2792969 h 0.986328 v 0.6982422 h -0.986328 v 3.2763672 q 0,0.31738276 0.131836,0.47851557 0.131836,0.15625001 0.449219,0.15625001 0.15625,0 0.429687,-0.0585938 V 0 Q 36.875,0.09765625 36.538086,0.09765625 q -0.605469,0 -0.913086,-0.36621094 -0.307617,-0.36621093 -0.307617,-1.04003901 v -3.2763672 h -0.961914 v -0.6982422 h 0.961914 V -6.5625 Z"
         id="path52" />
      <path
         d="m 39.243164,0 h -0.90332 v -5.2832031 h 0.90332 z m -0.976562,-6.6845703 q 0,-0.2197266 0.131835,-0.3710938 0.136719,-0.1513671 0.400391,-0.1513671 0.263672,0 0.400391,0.1513671 0.136718,0.1513672 0.136718,0.3710938 0,0.2197266 -0.136718,0.3662109 -0.136719,0.1464844 -0.400391,0.1464844 -0.263672,0 -0.400391,-0.1464844 -0.131835,-0.1464843 -0.131835,-0.3662109 z"
         id="path54" />
      <path
         d="m 40.449219,-2.6904297 q 0,-0.7763672 0.302734,-1.3964844 0.307617,-0.6201171 0.849609,-0.9570312 0.546875,-0.3369141 1.245118,-0.3369141 1.079101,0 1.743164,0.7470703 0.668945,0.7470703 0.668945,1.9873047 v 0.063477 q 0,0.7714844 -0.297852,1.3867187 -0.292968,0.6103516 -0.844726,0.95214847 -0.546875,0.34179688 -1.259766,0.34179688 -1.074218,0 -1.743164,-0.74707031 -0.664062,-0.74707034 -0.664062,-1.97753904 z m 0.908203,0.1074219 q 0,0.8789062 0.405273,1.4111328 0.410157,0.53222656 1.09375,0.53222656 0.688477,0 1.09375,-0.53710936 0.405274,-0.5419922 0.405274,-1.5136719 0,-0.8691406 -0.415039,-1.40625 -0.410157,-0.5419922 -1.09375,-0.5419922 -0.668946,0 -1.079102,0.5322266 -0.410156,0.5322265 -0.410156,1.5234375 z"
         id="path56" />
      <path
         d="m 47.246094,-5.2832031 0.0293,0.6640625 q 0.605468,-0.7617188 1.582031,-0.7617188 1.674805,0 1.689453,1.8896485 V 0 h -0.90332 v -3.4960938 q -0.0049,-0.571289 -0.263672,-0.8447265 -0.253906,-0.2734375 -0.795899,-0.2734375 -0.439453,0 -0.771484,0.234375 -0.332031,0.234375 -0.517578,0.6152344 V 0 h -0.90332 v -5.2832031 z"
         id="path58" />
    </g>
    <path
       id="circle12"
       transform="translate(1116.834,337.707)"
       style="fill:#fed325"
       d="M 10.666,5.3330002 A 5.3330002,5.3330002 0 0 1 5.3330002,10.666 5.3330002,5.3330002 0 0 1 0,5.3330002 5.3330002,5.3330002 0 0 1 5.3330002,0 5.3330002,5.3330002 0 0 1 10.666,5.3330002 Z" />
    <path
       id="circle14"
       transform="translate(1103.834,337.707)"
       style="fill:#fe746e"
       d="M 10.666,5.3330002 A 5.3330002,5.3330002 0 0 1 5.3330002,10.666 5.3330002,5.3330002 0 0 1 0,5.3330002 5.3330002,5.3330002 0 0 1 5.3330002,0 5.3330002,5.3330002 0 0 1 10.666,5.3330002 Z" />
    <path
       id="circle16"
       transform="translate(1128.834,337.707)"
       style="fill:#3cca8e"
       d="M 10.666,5.3330002 A 5.3330002,5.3330002 0 0 1 5.3330002,10.666 5.3330002,5.3330002 0 0 1 0,5.3330002 5.3330002,5.3330002 0 0 1 5.3330002,0 5.3330002,5.3330002 0 0 1 10.666,5.3330002 Z" />
    <g
       aria-label="2"
       transform="translate(1120.5,345.374)"
       id="text20"
       style="font-size:6px;font-family:Roboto-Regular, Roboto;fill:#ffffff">
      <path
         d="M 3.1494141,0 H 0.35449219 V -0.38964844 L 1.8310547,-2.0302734 q 0.328125,-0.3720704 0.4511719,-0.6035157 0.1259765,-0.234375 0.1259765,-0.4833984 0,-0.3339844 -0.2021484,-0.5478516 -0.2021484,-0.2138672 -0.5390625,-0.2138672 -0.4042969,0 -0.6298828,0.2314454 -0.22265627,0.2285156 -0.22265627,0.6386718 H 0.27246094 q 0,-0.5888672 0.37792968,-0.9521484 0.38085938,-0.3632812 1.01660158,-0.3632812 0.5947266,0 0.9404297,0.3134765 0.3457031,0.3105469 0.3457031,0.8291016 0,0.6298828 -0.8027344,1.5 l -1.1425781,1.23925779 h 2.1416016 z"
         id="path64" />
    </g>
    <g
       aria-label="2"
       transform="translate(1107.5,345.374)"
       id="text24"
       style="font-size:6px;font-family:Roboto-Regular, Roboto;fill:#ffffff">
      <path
         d="M 3.1494141,0 H 0.35449219 V -0.38964844 L 1.8310547,-2.0302734 q 0.328125,-0.3720704 0.4511719,-0.6035157 0.1259765,-0.234375 0.1259765,-0.4833984 0,-0.3339844 -0.2021484,-0.5478516 -0.2021484,-0.2138672 -0.5390625,-0.2138672 -0.4042969,0 -0.6298828,0.2314454 -0.22265627,0.2285156 -0.22265627,0.6386718 H 0.27246094 q 0,-0.5888672 0.37792968,-0.9521484 0.38085938,-0.3632812 1.01660158,-0.3632812 0.5947266,0 0.9404297,0.3134765 0.3457031,0.3105469 0.3457031,0.8291016 0,0.6298828 -0.8027344,1.5 l -1.1425781,1.23925779 h 2.1416016 z"
         id="path67" />
    </g>
    <g
       aria-label="1"
       transform="translate(1132.5,345.374)"
       id="text28"
       style="font-size:6px;font-family:Roboto-Regular, Roboto;fill:#ffffff">
      <path
         d="M 2.1357422,0 H 1.5908203 V -3.6123047 L 0.49804688,-3.2109375 V -3.703125 L 2.0507813,-4.2861328 h 0.084961 z"
         id="path70" />
    </g>
  </g>
</svg>
