<?xml version="1.0" encoding="UTF-8" standalone="no"?>
<svg
   width="432"
   height="285"
   viewBox="0 0 432 285"
   version="1.1"
   id="svg41"
   sodipodi:docname="slider-thumb-17.svg"
   xmlns:inkscape="http://www.inkscape.org/namespaces/inkscape"
   xmlns:sodipodi="http://sodipodi.sourceforge.net/DTD/sodipodi-0.dtd"
   xmlns="http://www.w3.org/2000/svg"
   xmlns:svg="http://www.w3.org/2000/svg">
  <sodipodi:namedview
     id="namedview43"
     pagecolor="#ffffff"
     bordercolor="#666666"
     borderopacity="1.0"
     inkscape:pageshadow="2"
     inkscape:pageopacity="0.0"
     inkscape:pagecheckerboard="0" />
  <defs
     id="defs4">
    <clipPath
       id="clip-path">
      <rect
         id="Rectangle_33"
         data-name="Rectangle 33"
         width="432"
         height="285"
         transform="translate(502 197)"
         fill="#fff" />
    </clipPath>
  </defs>
  <g
     id="Group_115"
     data-name="Group 115"
     transform="translate(-502,-197)">
    <path
       id="Rectangle_31"
       transform="translate(502,197)"
       style="fill:#ffffff"
       d="M 0,0 H 432 V 285 H 0 Z" />
    <g
       id="Mask_Group_2"
       data-name="Mask Group 2"
       clip-path="url(#clip-path)">
      <path
         id="Path_118"
         data-name="Path 118"
         d="M 0,0 H 1061.5"
         transform="translate(176,229.252)"
         fill="none"
         stroke="rgba(165,170,188,0.5)"
         stroke-width="0.5" />
    </g>
    <g
       id="Rectangle_32"
       data-name="Rectangle 32"
       transform="translate(502,197)"
       fill="none"
       stroke="#707070"
       stroke-width="1">
      <path
         id="rect9"
         style="stroke:none"
         d="M 0,0 H 432 V 285 H 0 Z" />
      <path
         id="rect11"
         d="m 0.5,0.5 h 431 v 284 H 0.5 Z" />
    </g>
    <g
       aria-label="Parents"
       transform="translate(530,218.252)"
       id="Parents"
       style="font-weight:500;font-size:10px;font-family:Roboto-Medium, Roboto;fill:#0c2339">
      <path
         d="M 1.9580078,-2.6416016 V 0 H 0.72265625 V -7.109375 H 3.4423828 q 1.1914063,0 1.8896484,0.6201172 0.703125,0.6201172 0.703125,1.640625 0,1.0449219 -0.6884765,1.6259765 -0.6835938,0.5810547 -1.9189453,0.5810547 z m 0,-0.9912109 h 1.484375 q 0.6591797,0 1.0058594,-0.3076172 0.3466797,-0.3125 0.3466797,-0.8984375 0,-0.5761719 -0.3515625,-0.9179687 Q 4.0917969,-6.1035156 3.4765625,-6.1132812 H 1.9580078 Z"
         id="path48" />
      <path
         d="m 10.102539,0 q -0.07813,-0.15136719 -0.1367187,-0.49316406 -0.5664062,0.59082031 -1.3867187,0.59082031 -0.7958985,0 -1.2988282,-0.45410156 -0.5029297,-0.45410157 -0.5029297,-1.12304689 0,-0.8447266 0.625,-1.2939453 0.6298829,-0.4541016 1.7968751,-0.4541016 h 0.727539 v -0.3466797 q 0,-0.4101562 -0.2294922,-0.6542968 -0.2294922,-0.2490235 -0.6982422,-0.2490235 -0.4052734,0 -0.6640625,0.2050782 -0.258789,0.2001953 -0.258789,0.5126953 H 6.8896484 q 0,-0.4345703 0.288086,-0.8105469 0.2880859,-0.3808594 0.78125,-0.5957031 0.4980469,-0.2148438 1.1083984,-0.2148438 0.9277344,0 1.4794922,0.46875 0.551758,0.4638672 0.566406,1.3085938 v 2.3828125 q 0,0.7128906 0.200196,1.13769529 V 0 Z M 8.7988281,-0.85449219 q 0.3515625,0 0.6591797,-0.17089841 0.3125,-0.1708985 0.46875,-0.4589844 V -2.4804688 H 9.2871094 q -0.6591797,0 -0.991211,0.2294922 -0.3320312,0.2294922 -0.3320312,0.6494141 0,0.3417969 0.2246094,0.546875 0.2294922,0.20019531 0.6103515,0.20019531 z"
         id="path50" />
      <path
         d="m 15.12207,-4.1992187 q -0.234375,-0.039063 -0.483398,-0.039063 -0.81543,0 -1.098633,0.6249999 V 0 h -1.186523 v -5.2832031 h 1.132812 l 0.0293,0.5908203 q 0.429688,-0.6884766 1.191406,-0.6884766 0.253907,0 0.419922,0.068359 z"
         id="path52" />
      <path
         d="m 18.105469,0.09765625 q -1.12793,0 -1.831055,-0.70800781 -0.698242,-0.71289064 -0.698242,-1.89453124 v -0.1464844 q 0,-0.7910156 0.302734,-1.4111328 0.307617,-0.625 0.859375,-0.9716797 0.551758,-0.3466797 1.230469,-0.3466797 1.079102,0 1.665039,0.6884766 0.59082,0.6884766 0.59082,1.9482422 v 0.4785156 h -3.452148 q 0.05371,0.6542969 0.43457,1.0351563 0.385742,0.38085932 0.966797,0.38085932 0.81543,0 1.328125,-0.65917972 l 0.639649,0.6103516 q -0.317383,0.47363281 -0.84961,0.73730469 -0.527344,0.25878906 -1.186523,0.25878906 z M 17.963867,-4.4287109 q -0.488281,0 -0.791015,0.3417968 -0.297852,0.3417969 -0.38086,0.9521485 h 2.260742 v -0.087891 q -0.03906,-0.5957031 -0.317382,-0.8984374 -0.278321,-0.3076172 -0.771485,-0.3076172 z"
         id="path54" />
      <path
         d="m 22.246094,-5.2832031 0.03418,0.6103515 q 0.585938,-0.7080078 1.538086,-0.7080078 1.650391,0 1.679688,1.8896485 V 0 h -1.186524 v -3.4228516 q 0,-0.5029297 -0.219726,-0.7421875 -0.214844,-0.2441406 -0.708008,-0.2441406 -0.717773,0 -1.069336,0.6494141 V 0 H 21.12793 v -5.2832031 z"
         id="path56" />
      <path
         d="m 28.193359,-6.5673828 v 1.2841797 h 0.932618 v 0.8789062 h -0.932618 v 2.9492188 q 0,0.3027344 0.117188,0.4394531 0.12207,0.13183594 0.429687,0.13183594 0.205078,0 0.415039,-0.0488281 v 0.91796875 Q 28.75,0.09765625 28.374023,0.09765625 q -1.367187,0 -1.367187,-1.50878905 v -2.9931641 h -0.869141 v -0.8789062 h 0.869141 v -1.2841797 z"
         id="path58" />
      <path
         d="m 32.993164,-1.4355469 q 0,-0.3173828 -0.263672,-0.4833984 -0.258789,-0.1660156 -0.864258,-0.2929688 -0.605468,-0.1269531 -1.010742,-0.3222656 -0.888672,-0.4296875 -0.888672,-1.2451172 0,-0.6835937 0.576172,-1.1425781 0.576172,-0.4589844 1.464844,-0.4589844 0.947266,0 1.52832,0.46875 0.585938,0.46875 0.585938,1.2158203 H 32.93457 q 0,-0.3417968 -0.253906,-0.5664062 -0.253906,-0.2294922 -0.673828,-0.2294922 -0.390625,0 -0.639649,0.1806641 -0.24414,0.180664 -0.24414,0.4833984 0,0.2734375 0.229492,0.4248047 0.229492,0.1513672 0.927734,0.3076172 0.698243,0.1513672 1.09375,0.3662109 0.400391,0.2099609 0.590821,0.5078125 0.195312,0.2978516 0.195312,0.7226563 0,0.71289059 -0.59082,1.15722652 -0.59082,0.43945313 -1.547852,0.43945313 -0.649414,0 -1.157226,-0.234375 -0.507813,-0.234375 -0.791016,-0.64453125 -0.283203,-0.4101562 -0.283203,-0.8837891 h 1.152344 q 0.02441,0.4199219 0.317383,0.6494141 0.292968,0.22460938 0.776367,0.22460938 0.46875,0 0.71289,-0.17578126 0.244141,-0.18066402 0.244141,-0.46875002 z"
         id="path60" />
    </g>
    <g
       aria-label="Current Flow"
       transform="translate(671,218.252)"
       id="Current_Flow"
       style="font-weight:500;font-size:10px;font-family:Roboto-Medium, Roboto;fill:#0c2339">
      <path
         d="M 6.1474609,-2.3144531 Q 6.0400391,-1.1767578 5.3076172,-0.53710937 4.5751953,0.09765625 3.359375,0.09765625 q -0.8496094,0 -1.4990234,-0.40039063 Q 1.2158203,-0.70800781 0.86425781,-1.4501953 0.51269531,-2.1923828 0.49804688,-3.1738281 v -0.6640625 q 0,-1.0058594 0.35644531,-1.772461 Q 1.2109375,-6.3769531 1.875,-6.7919922 q 0.6689453,-0.415039 1.5429688,-0.415039 1.1767578,0 1.8945312,0.6396484 0.7177734,0.6396484 0.8349609,1.8066406 H 4.9169922 Q 4.8291016,-5.5273437 4.4677734,-5.8642578 4.1113281,-6.2060547 3.4179688,-6.2060547 q -0.8056641,0 -1.2402344,0.5908203 -0.4296875,0.5859375 -0.4394532,1.7236328 v 0.6298828 q 0,1.1523438 0.4101563,1.7578126 0.4150391,0.6054687 1.2109375,0.6054687 0.7275391,0 1.09375,-0.3271484 0.3662109,-0.3271485 0.4638672,-1.0888672 z"
         id="path63" />
      <path
         d="m 10.336914,-0.51757812 q -0.5224609,0.61523437 -1.4843749,0.61523437 -0.859375,0 -1.303711,-0.50292969 Q 7.109375,-0.90820313 7.109375,-1.8603516 V -5.2832031 H 8.2958984 V -1.875 q 0,1.00585937 0.834961,1.00585937 0.8642578,0 1.1669926,-0.62011717 v -3.7939453 h 1.186523 V 0 h -1.118164 z"
         id="path65" />
      <path
         d="m 15.458984,-4.1992187 q -0.234375,-0.039063 -0.483398,-0.039063 -0.81543,0 -1.098633,0.6249999 V 0 H 12.69043 v -5.2832031 h 1.132812 l 0.0293,0.5908203 q 0.429688,-0.6884766 1.191406,-0.6884766 0.253907,0 0.419922,0.068359 z"
         id="path67" />
      <path
         d="m 18.974609,-4.1992187 q -0.234375,-0.039063 -0.483398,-0.039063 -0.81543,0 -1.098633,0.6249999 V 0 h -1.186523 v -5.2832031 h 1.132812 l 0.0293,0.5908203 q 0.429688,-0.6884766 1.191406,-0.6884766 0.253907,0 0.419922,0.068359 z"
         id="path69" />
      <path
         d="m 21.958008,0.09765625 q -1.12793,0 -1.831055,-0.70800781 -0.698242,-0.71289064 -0.698242,-1.89453124 v -0.1464844 q 0,-0.7910156 0.302734,-1.4111328 0.307617,-0.625 0.859375,-0.9716797 0.551758,-0.3466797 1.230469,-0.3466797 1.079102,0 1.665039,0.6884766 0.59082,0.6884766 0.59082,1.9482422 V -2.265625 H 20.625 q 0.05371,0.6542969 0.43457,1.0351563 0.385742,0.38085932 0.966797,0.38085932 0.81543,0 1.328125,-0.65917972 l 0.639649,0.6103516 q -0.317383,0.47363281 -0.84961,0.73730469 -0.527344,0.25878906 -1.186523,0.25878906 z M 21.816406,-4.4287109 q -0.488281,0 -0.791015,0.3417968 -0.297852,0.3417969 -0.38086,0.9521485 h 2.260742 v -0.087891 q -0.03906,-0.5957031 -0.317382,-0.8984374 -0.278321,-0.3076172 -0.771485,-0.3076172 z"
         id="path71" />
      <path
         d="m 26.098633,-5.2832031 0.03418,0.6103515 q 0.585938,-0.7080078 1.538086,-0.7080078 1.650391,0 1.679688,1.8896485 V 0 h -1.186524 v -3.4228516 q 0,-0.5029297 -0.219726,-0.7421875 -0.214844,-0.2441406 -0.708008,-0.2441406 -0.717773,0 -1.069336,0.6494141 V 0 h -1.186523 v -5.2832031 z"
         id="path73" />
      <path
         d="m 32.045898,-6.5673828 v 1.2841797 h 0.932618 v 0.8789062 h -0.932618 v 2.9492188 q 0,0.3027344 0.117188,0.4394531 0.12207,0.13183594 0.429687,0.13183594 0.205079,0 0.415039,-0.0488281 v 0.91796875 q -0.405273,0.11230469 -0.78125,0.11230469 -1.367187,0 -1.367187,-1.50878905 v -2.9931641 h -0.869141 v -0.8789062 h 0.869141 v -1.2841797 z"
         id="path75" />
      <path
         d="M 40.585937,-3.0126953 H 37.724609 V 0 h -1.235351 v -7.109375 h 4.516601 v 0.9960938 h -3.28125 v 2.1142578 h 2.861328 z"
         id="path77" />
      <path
         d="m 43.129883,0 h -1.186524 v -7.5 h 1.186524 z"
         id="path79" />
      <path
         d="m 44.199219,-2.6904297 q 0,-0.7763672 0.307617,-1.3964844 0.307617,-0.625 0.864258,-0.9570312 0.55664,-0.3369141 1.279297,-0.3369141 1.069336,0 1.733398,0.6884766 0.668945,0.6884766 0.722656,1.8261719 l 0.0049,0.2783203 q 0,0.78125 -0.302734,1.3964844 -0.297852,0.61523433 -0.859375,0.95214839 -0.556641,0.33691406 -1.289063,0.33691406 -1.118164,0 -1.791992,-0.7421875 -0.668945,-0.74707035 -0.668945,-1.98730465 z m 1.186523,0.1025391 q 0,0.8154297 0.336914,1.2792969 0.336914,0.45898432 0.9375,0.45898432 0.600586,0 0.932617,-0.46875002 0.336914,-0.46875 0.336914,-1.3720703 0,-0.8007812 -0.346679,-1.2695312 -0.341797,-0.46875 -0.932617,-0.46875 -0.581055,0 -0.922852,0.4638671 -0.341797,0.4589844 -0.341797,1.3769532 z"
         id="path81" />
      <path
         d="m 54.755859,-1.6357422 0.839844,-3.6474609 H 56.75293 L 55.3125,0 H 54.335937 L 53.203125,-3.6279297 52.089844,0 h -0.976563 l -1.445312,-5.2832031 h 1.157226 l 0.854492,3.6083984 1.083985,-3.6083984 h 0.893555 z"
         id="path83" />
    </g>
    <g
       aria-label="High Value Payments"
       transform="translate(665,393.876)"
       id="High_Value_Payments"
       style="font-weight:500;font-size:10px;font-family:Roboto-Medium, Roboto;fill:#0c2339">
      <path
         d="M 6.3671875,0 H 5.1367187 V -3.1591797 H 1.9580078 V 0 H 0.72265625 V -7.109375 H 1.9580078 v 2.9589844 H 5.1367187 V -7.109375 h 1.2304688 z"
         id="path86" />
      <path
         d="M 8.9746094,0 H 7.7880859 V -5.2832031 H 8.9746094 Z M 7.7148437,-6.6552734 q 0,-0.2734375 0.1708985,-0.4541016 0.1757812,-0.1806641 0.4980469,-0.1806641 0.3222656,0 0.4980468,0.1806641 0.1757813,0.1806641 0.1757813,0.4541016 0,0.2685547 -0.1757813,0.4492187 -0.1757812,0.1757813 -0.4980468,0.1757813 -0.3222657,0 -0.4980469,-0.1757813 -0.1708985,-0.180664 -0.1708985,-0.4492187 z"
         id="path88" />
      <path
         d="m 10.058594,-2.6806641 q 0,-1.2304687 0.576172,-1.9628906 0.581054,-0.7373047 1.538086,-0.7373047 0.90332,0 1.420898,0.6298828 l 0.05371,-0.5322265 h 1.069336 v 5.12207029 q 0,1.04003906 -0.649414,1.64062501 -0.644531,0.6005859 -1.743164,0.6005859 -0.581055,0 -1.137696,-0.2441406 Q 10.634766,1.5966797 10.34668,1.2060547 l 0.561523,-0.71289064 q 0.546875,0.64941404 1.347656,0.64941404 0.590821,0 0.932618,-0.3222656 0.341796,-0.31738281 0.341796,-0.9375 v -0.35644531 q -0.512695,0.57128906 -1.367187,0.57128906 -0.927734,0 -1.518555,-0.73730469 -0.585937,-0.73730466 -0.585937,-2.04101566 z m 1.18164,0.1025391 q 0,0.7958984 0.322266,1.2548828 0.327148,0.45410157 0.90332,0.45410157 0.717774,0 1.064453,-0.61523437 v -2.3242188 q -0.336914,-0.6005859 -1.054687,-0.6005859 -0.585938,0 -0.913086,0.4638672 -0.322266,0.4638672 -0.322266,1.3671875 z"
         id="path90" />
      <path
         d="m 17.104492,-4.7070312 q 0.581055,-0.6738282 1.469727,-0.6738282 1.689453,0 1.713867,1.928711 V 0 h -1.186524 v -3.4082031 q 0,-0.546875 -0.239257,-0.7714844 -0.234375,-0.2294922 -0.69336,-0.2294922 -0.71289,0 -1.064453,0.6347656 V 0 h -1.186523 v -7.5 h 1.186523 z"
         id="path92" />
      <path
         d="m 26.59668,-1.5478516 1.80664,-5.5615234 h 1.357422 L 27.202148,0 h -1.196289 l -2.548828,-7.109375 h 1.352539 z"
         id="path94" />
      <path
         d="m 33.378906,0 q -0.07813,-0.15136719 -0.136719,-0.49316406 -0.566406,0.59082031 -1.386718,0.59082031 -0.795899,0 -1.298828,-0.45410156 -0.50293,-0.45410157 -0.50293,-1.12304689 0,-0.8447266 0.625,-1.2939453 0.629883,-0.4541016 1.796875,-0.4541016 h 0.727539 v -0.3466797 q 0,-0.4101562 -0.229492,-0.6542968 -0.229492,-0.2490235 -0.698242,-0.2490235 -0.405274,0 -0.664063,0.2050782 -0.258789,0.2001953 -0.258789,0.5126953 h -1.186523 q 0,-0.4345703 0.288086,-0.8105469 0.288085,-0.3808594 0.78125,-0.5957031 0.498046,-0.2148438 1.108398,-0.2148438 0.927734,0 1.479492,0.46875 0.551758,0.4638672 0.566406,1.3085938 v 2.3828125 q 0,0.7128906 0.200196,1.13769529 V 0 Z m -1.303711,-0.85449219 q 0.351563,0 0.65918,-0.17089841 0.3125,-0.1708985 0.46875,-0.4589844 v -0.9960938 h -0.639648 q -0.65918,0 -0.991211,0.2294922 -0.332032,0.2294922 -0.332032,0.6494141 0,0.3417969 0.22461,0.546875 0.229492,0.20019531 0.610351,0.20019531 z"
         id="path96" />
      <path
         d="m 36.894531,0 h -1.186523 v -7.5 h 1.186523 z"
         id="path98" />
      <path
         d="m 41.386719,-0.51757812 q -0.522461,0.61523437 -1.484375,0.61523437 -0.859375,0 -1.303711,-0.50292969 Q 38.15918,-0.90820313 38.15918,-1.8603516 v -3.4228515 h 1.186523 V -1.875 q 0,1.00585937 0.834961,1.00585937 0.864258,0 1.166992,-0.62011717 V -5.2832031 H 42.53418 V 0 h -1.118164 z"
         id="path100" />
      <path
         d="m 46.069336,0.09765625 q -1.12793,0 -1.831055,-0.70800781 -0.698242,-0.71289064 -0.698242,-1.89453124 v -0.1464844 q 0,-0.7910156 0.302734,-1.4111328 0.307618,-0.625 0.859375,-0.9716797 0.551758,-0.3466797 1.230469,-0.3466797 1.079102,0 1.665039,0.6884766 0.590821,0.6884766 0.590821,1.9482422 v 0.4785156 h -3.452149 q 0.05371,0.6542969 0.43457,1.0351563 0.385743,0.38085932 0.966797,0.38085932 0.81543,0 1.328125,-0.65917972 l 0.639649,0.6103516 q -0.317383,0.47363281 -0.84961,0.73730469 -0.527343,0.25878906 -1.186523,0.25878906 z M 45.927734,-4.4287109 q -0.488281,0 -0.791015,0.3417968 -0.297852,0.3417969 -0.38086,0.9521485 h 2.260743 v -0.087891 q -0.03906,-0.5957031 -0.317383,-0.8984374 -0.278321,-0.3076172 -0.771485,-0.3076172 z"
         id="path102" />
      <path
         d="M 52.949219,-2.6416016 V 0 h -1.235352 v -7.109375 h 2.719727 q 1.191406,0 1.889648,0.6201172 0.703125,0.6201172 0.703125,1.640625 0,1.0449219 -0.688476,1.6259765 -0.683594,0.5810547 -1.918946,0.5810547 z m 0,-0.9912109 h 1.484375 q 0.659179,0 1.005859,-0.3076172 0.34668,-0.3125 0.34668,-0.8984375 0,-0.5761719 -0.351563,-0.9179687 -0.351562,-0.3466797 -0.966797,-0.3564453 h -1.518554 z"
         id="path104" />
      <path
         d="m 61.09375,0 q -0.07813,-0.15136719 -0.136719,-0.49316406 -0.566406,0.59082031 -1.386719,0.59082031 -0.795898,0 -1.298828,-0.45410156 -0.502929,-0.45410157 -0.502929,-1.12304689 0,-0.8447266 0.625,-1.2939453 0.629882,-0.4541016 1.796875,-0.4541016 h 0.727539 v -0.3466797 q 0,-0.4101562 -0.229492,-0.6542968 -0.229493,-0.2490235 -0.698243,-0.2490235 -0.405273,0 -0.664062,0.2050782 -0.258789,0.2001953 -0.258789,0.5126953 h -1.186524 q 0,-0.4345703 0.288086,-0.8105469 0.288086,-0.3808594 0.78125,-0.5957031 0.498047,-0.2148438 1.108399,-0.2148438 0.927734,0 1.479492,0.46875 0.551758,0.4638672 0.566406,1.3085938 v 2.3828125 q 0,0.7128906 0.200195,1.13769529 V 0 Z m -1.303711,-0.85449219 q 0.351563,0 0.65918,-0.17089841 0.3125,-0.1708985 0.46875,-0.4589844 V -2.4804688 H 60.27832 q -0.659179,0 -0.991211,0.2294922 -0.332031,0.2294922 -0.332031,0.6494141 0,0.3417969 0.224609,0.546875 0.229493,0.20019531 0.610352,0.20019531 z"
         id="path106" />
      <path
         d="m 65.12207,-1.6992187 1.074219,-3.5839844 h 1.264648 L 65.361328,0.80078125 Q 64.87793,2.1337891 63.720703,2.1337891 q -0.258789,0 -0.571289,-0.087891 V 1.1279297 l 0.224609,0.014648 q 0.449219,0 0.673829,-0.1660156 0.229492,-0.16113281 0.361328,-0.546875 l 0.170898,-0.45410156 -1.855469,-5.25878904 h 1.279297 z"
         id="path108" />
      <path
         d="m 69.257812,-5.2832031 0.03418,0.5517578 q 0.556641,-0.6494141 1.523438,-0.6494141 1.05957,0 1.450195,0.8105469 0.576172,-0.8105469 1.621094,-0.8105469 0.874023,0 1.298828,0.4833985 0.429687,0.4833984 0.439453,1.4257812 V 0 h -1.186523 v -3.4375 q 0,-0.5029297 -0.219727,-0.7373047 -0.219727,-0.234375 -0.727539,-0.234375 -0.405274,0 -0.664063,0.2197266 -0.253906,0.2148437 -0.356445,0.5664062 L 72.475586,0 h -1.186524 v -3.4765625 q -0.02441,-0.9326172 -0.952148,-0.9326172 -0.712891,0 -1.010742,0.5810547 V 0 h -1.186524 v -5.2832031 z"
         id="path110" />
      <path
         d="m 79.169922,0.09765625 q -1.12793,0 -1.831055,-0.70800781 -0.698242,-0.71289064 -0.698242,-1.89453124 v -0.1464844 q 0,-0.7910156 0.302734,-1.4111328 0.307618,-0.625 0.859375,-0.9716797 0.551758,-0.3466797 1.230469,-0.3466797 1.079102,0 1.665039,0.6884766 0.59082,0.6884766 0.59082,1.9482422 v 0.4785156 h -3.452148 q 0.05371,0.6542969 0.43457,1.0351563 0.385743,0.38085932 0.966797,0.38085932 0.81543,0 1.328125,-0.65917972 l 0.639649,0.6103516 q -0.317383,0.47363281 -0.84961,0.73730469 -0.527343,0.25878906 -1.186523,0.25878906 z M 79.02832,-4.4287109 q -0.488281,0 -0.791015,0.3417968 -0.297852,0.3417969 -0.38086,0.9521485 h 2.260742 v -0.087891 q -0.03906,-0.5957031 -0.317382,-0.8984374 -0.278321,-0.3076172 -0.771485,-0.3076172 z"
         id="path112" />
      <path
         d="m 83.310547,-5.2832031 0.03418,0.6103515 q 0.585937,-0.7080078 1.538085,-0.7080078 1.650391,0 1.679688,1.8896485 V 0 h -1.186523 v -3.4228516 q 0,-0.5029297 -0.219727,-0.7421875 -0.214844,-0.2441406 -0.708008,-0.2441406 -0.717773,0 -1.069336,0.6494141 V 0 h -1.186523 v -5.2832031 z"
         id="path114" />
      <path
         d="m 89.257812,-6.5673828 v 1.2841797 h 0.932618 v 0.8789062 h -0.932618 v 2.9492188 q 0,0.3027344 0.117188,0.4394531 0.12207,0.13183594 0.429687,0.13183594 0.205079,0 0.41504,-0.0488281 v 0.91796875 q -0.405274,0.11230469 -0.78125,0.11230469 -1.367188,0 -1.367188,-1.50878905 v -2.9931641 h -0.869141 v -0.8789062 h 0.869141 v -1.2841797 z"
         id="path116" />
      <path
         d="m 94.057617,-1.4355469 q 0,-0.3173828 -0.263672,-0.4833984 -0.258789,-0.1660156 -0.864258,-0.2929688 -0.605468,-0.1269531 -1.010742,-0.3222656 -0.888672,-0.4296875 -0.888672,-1.2451172 0,-0.6835937 0.576172,-1.1425781 0.576172,-0.4589844 1.464844,-0.4589844 0.947266,0 1.52832,0.46875 0.585938,0.46875 0.585938,1.2158203 h -1.186524 q 0,-0.3417968 -0.253906,-0.5664062 -0.253906,-0.2294922 -0.673828,-0.2294922 -0.390625,0 -0.639648,0.1806641 -0.244141,0.180664 -0.244141,0.4833984 0,0.2734375 0.229492,0.4248047 0.229492,0.1513672 0.927735,0.3076172 0.698242,0.1513672 1.09375,0.3662109 0.40039,0.2099609 0.59082,0.5078125 0.195312,0.2978516 0.195312,0.7226563 0,0.71289059 -0.59082,1.15722652 -0.59082,0.43945313 -1.547852,0.43945313 -0.649414,0 -1.157226,-0.234375 -0.507813,-0.234375 -0.791016,-0.64453125 -0.283203,-0.4101562 -0.283203,-0.8837891 h 1.152344 q 0.02441,0.4199219 0.317383,0.6494141 0.292968,0.22460938 0.776367,0.22460938 0.46875,0 0.712891,-0.17578126 0.24414,-0.18066402 0.24414,-0.46875002 z"
         id="path118" />
    </g>
    <g
       aria-label="Embargo Filtering Flow"
       transform="translate(807,393.876)"
       id="Embargo_Filtering_Flow"
       style="font-size:10px;font-family:Roboto-Regular, Roboto;fill:#0c2339">
      <path
         d="M 4.84375,-3.2861328 H 1.7626953 v 2.51953124 H 5.3417969 V 0 H 0.82519531 V -7.109375 H 5.2929687 v 0.7714844 H 1.7626953 v 2.2851562 H 4.84375 Z"
         id="path121" />
      <path
         d="m 7.2167969,-5.2832031 0.024414,0.5859375 q 0.5810547,-0.6835938 1.5673829,-0.6835938 1.1083984,0 1.5087892,0.8496094 0.263672,-0.3808594 0.683594,-0.6152344 0.424804,-0.234375 1.000976,-0.234375 1.738281,0 1.767578,1.8408203 V 0 h -0.90332 v -3.4863281 q 0,-0.5664063 -0.258789,-0.8447266 -0.258789,-0.2832031 -0.869141,-0.2832031 -0.502929,0 -0.834961,0.3027344 -0.332031,0.2978515 -0.385742,0.805664 V 0 H 9.609375 v -3.4619141 q 0,-1.1523437 -1.1279297,-1.1523437 -0.8886719,0 -1.2158203,0.7568359 V 0 H 6.3623047 v -5.2832031 z"
         id="path123" />
      <path
         d="m 19.604492,-2.5830078 q 0,1.2109375 -0.55664,1.94824218 -0.556641,0.73242187 -1.494141,0.73242187 -1.000977,0 -1.547852,-0.70800781 L 15.961914,0 h -0.830078 v -7.5 h 0.90332 v 2.7978516 q 0.546875,-0.678711 1.508789,-0.678711 0.961914,0 1.508789,0.7275391 0.551758,0.727539 0.551758,1.9921875 z m -0.90332,-0.1025391 q 0,-0.9228515 -0.356445,-1.4257812 -0.356446,-0.5029297 -1.025391,-0.5029297 -0.893555,0 -1.28418,0.8300781 v 2.2851563 q 0.415039,0.83007809 1.293946,0.83007809 0.649414,0 1.010742,-0.50292969 0.361328,-0.5029297 0.361328,-1.5136719 z"
         id="path125" />
      <path
         d="m 24.003906,0 q -0.07813,-0.15625 -0.126953,-0.55664062 -0.629883,0.65429687 -1.503906,0.65429687 -0.78125,0 -1.28418,-0.43945313 -0.498047,-0.44433593 -0.498047,-1.12304682 0,-0.8251954 0.625,-1.2792969 0.629883,-0.4589844 1.767578,-0.4589844 h 0.878907 v -0.4150391 q 0,-0.4736328 -0.283203,-0.7519531 -0.283204,-0.2832031 -0.834961,-0.2832031 -0.483399,0 -0.810547,0.2441406 -0.327149,0.2441406 -0.327149,0.5908203 h -0.908203 q 0,-0.3955078 0.27832,-0.7617187 0.283204,-0.3710938 0.761719,-0.5859375 0.483399,-0.2148438 1.059571,-0.2148438 0.913085,0 1.430664,0.4589844 0.517578,0.4541016 0.537109,1.2548828 v 2.4316406 q 0,0.7275391 0.185547,1.1572266 V 0 Z m -1.499023,-0.68847656 q 0.424804,0 0.805664,-0.21972657 0.380859,-0.21972657 0.551758,-0.57128907 v -1.0839844 h -0.708008 q -1.660156,0 -1.660156,0.9716797 0,0.4248047 0.283203,0.66406252 0.283203,0.23925782 0.727539,0.23925782 z"
         id="path127" />
      <path
         d="m 28.735352,-4.4726562 q -0.205079,-0.03418 -0.444336,-0.03418 -0.888672,0 -1.206055,0.7568359 V 0 h -0.90332 v -5.2832031 h 0.878906 l 0.01465,0.6103515 q 0.444336,-0.7080078 1.259766,-0.7080078 0.263672,0 0.400391,0.068359 z"
         id="path129" />
      <path
         d="m 29.257812,-2.6855469 q 0,-1.2353515 0.57129,-1.9628906 0.571289,-0.7324219 1.513671,-0.7324219 0.966797,0 1.508789,0.6835938 l 0.04395,-0.5859375 h 0.825195 v 5.15624998 q 0,1.02539062 -0.610351,1.61621092 -0.605469,0.5908203 -1.63086,0.5908203 -0.571289,0 -1.118164,-0.2441406 Q 29.814453,1.5917969 29.526367,1.1669922 L 29.995117,0.625 q 0.581055,0.7177734 1.420899,0.7177734 0.659179,0 1.02539,-0.37109371 Q 32.8125,0.60058594 32.8125,-0.07324219 v -0.45410156 q -0.541992,0.625 -1.479492,0.625 -0.927735,0 -1.503906,-0.74707031 -0.57129,-0.74707034 -0.57129,-2.03613284 z m 0.908204,0.1025391 q 0,0.8935547 0.366211,1.40625 0.36621,0.50781249 1.02539,0.50781249 0.854492,0 1.254883,-0.77636719 v -2.4121094 q -0.415039,-0.7568359 -1.245117,-0.7568359 -0.65918,0 -1.030274,0.5126953 -0.371093,0.5126953 -0.371093,1.5185547 z"
         id="path131" />
      <path
         d="m 34.84375,-2.6904297 q 0,-0.7763672 0.302734,-1.3964844 0.307618,-0.6201171 0.84961,-0.9570312 0.546875,-0.3369141 1.245117,-0.3369141 1.079101,0 1.743164,0.7470703 0.668945,0.7470703 0.668945,1.9873047 v 0.063477 q 0,0.7714844 -0.297851,1.3867187 -0.292969,0.6103516 -0.844727,0.95214847 -0.546875,0.34179688 -1.259765,0.34179688 -1.074219,0 -1.743165,-0.74707031 Q 34.84375,-1.3964844 34.84375,-2.6269531 Z m 0.908203,0.1074219 q 0,0.8789062 0.405274,1.4111328 0.410156,0.53222656 1.09375,0.53222656 0.688476,0 1.09375,-0.53710936 Q 38.75,-1.71875 38.75,-2.6904297 q 0,-0.8691406 -0.415039,-1.40625 -0.410156,-0.5419922 -1.09375,-0.5419922 -0.668945,0 -1.079102,0.5322266 -0.410156,0.5322265 -0.410156,1.5234375 z"
         id="path133" />
      <path
         d="M 47.324219,-3.1396484 H 44.34082 V 0 h -0.9375 v -7.109375 h 4.404297 v 0.7714844 H 44.34082 V -3.90625 h 2.983399 z"
         id="path135" />
      <path
         d="m 49.770508,0 h -0.903321 v -5.2832031 h 0.903321 z m -0.976563,-6.6845703 q 0,-0.2197266 0.131836,-0.3710938 0.136719,-0.1513671 0.400391,-0.1513671 0.263672,0 0.40039,0.1513671 0.136719,0.1513672 0.136719,0.3710938 0,0.2197266 -0.136719,0.3662109 -0.136718,0.1464844 -0.40039,0.1464844 -0.263672,0 -0.400391,-0.1464844 -0.131836,-0.1464843 -0.131836,-0.3662109 z"
         id="path137" />
      <path
         d="m 52.197266,0 h -0.903321 v -7.5 h 0.903321 z"
         id="path139" />
      <path
         d="m 54.868164,-6.5625 v 1.2792969 h 0.986328 v 0.6982422 h -0.986328 v 3.2763672 q 0,0.31738276 0.131836,0.47851557 0.131836,0.15625001 0.449219,0.15625001 0.15625,0 0.429687,-0.0585938 V 0 q -0.356445,0.09765625 -0.693359,0.09765625 -0.605469,0 -0.913086,-0.36621094 -0.307617,-0.36621093 -0.307617,-1.04003901 V -4.5849609 H 53.00293 v -0.6982422 h 0.961914 V -6.5625 Z"
         id="path141" />
      <path
         d="m 59.101562,0.09765625 q -1.074218,0 -1.748046,-0.703125 -0.673829,-0.70800785 -0.673829,-1.88964845 v -0.1660156 q 0,-0.7861328 0.297852,-1.4013672 0.302734,-0.6201172 0.839844,-0.9667969 0.541992,-0.3515625 1.171875,-0.3515625 1.030273,0 1.601562,0.678711 0.571289,0.6787109 0.571289,1.9433593 v 0.3759766 h -3.579101 q 0.01953,0.78125 0.454101,1.2646484 0.439453,0.47851566 1.113282,0.47851566 0.478515,0 0.810546,-0.1953125 0.332032,-0.19531246 0.581055,-0.51757816 l 0.551758,0.42968754 Q 60.429687,0.09765625 59.101562,0.09765625 Z M 58.989258,-4.6386719 q -0.546875,0 -0.917969,0.4003907 -0.371094,0.3955078 -0.458984,1.1132812 h 2.646484 v -0.068359 q -0.03906,-0.6884765 -0.371094,-1.0644531 -0.332031,-0.3808594 -0.898437,-0.3808594 z"
         id="path143" />
      <path
         d="m 64.760742,-4.4726562 q -0.205078,-0.03418 -0.444336,-0.03418 -0.888672,0 -1.206054,0.7568359 V 0 h -0.903321 v -5.2832031 h 0.878906 l 0.01465,0.6103515 q 0.444336,-0.7080078 1.259766,-0.7080078 0.263671,0 0.40039,0.068359 z"
         id="path145" />
      <path
         d="m 66.572266,0 h -0.903321 v -5.2832031 h 0.903321 z m -0.976563,-6.6845703 q 0,-0.2197266 0.131836,-0.3710938 0.136719,-0.1513671 0.400391,-0.1513671 0.263672,0 0.40039,0.1513671 0.136719,0.1513672 0.136719,0.3710938 0,0.2197266 -0.136719,0.3662109 -0.136718,0.1464844 -0.40039,0.1464844 -0.263672,0 -0.400391,-0.1464844 -0.131836,-0.1464843 -0.131836,-0.3662109 z"
         id="path147" />
      <path
         d="m 68.87207,-5.2832031 0.0293,0.6640625 q 0.605469,-0.7617188 1.582031,-0.7617188 1.674805,0 1.689454,1.8896485 V 0 h -0.903321 v -3.4960938 q -0.0049,-0.571289 -0.263672,-0.8447265 -0.253906,-0.2734375 -0.795898,-0.2734375 -0.439453,0 -0.771484,0.234375 -0.332032,0.234375 -0.517579,0.6152344 V 0 h -0.90332 v -5.2832031 z"
         id="path149" />
      <path
         d="m 73.320312,-2.6855469 q 0,-1.2353515 0.57129,-1.9628906 0.571289,-0.7324219 1.513671,-0.7324219 0.966797,0 1.508789,0.6835938 l 0.04395,-0.5859375 h 0.825195 v 5.15624998 q 0,1.02539062 -0.610351,1.61621092 -0.605469,0.5908203 -1.63086,0.5908203 -0.571289,0 -1.118164,-0.2441406 Q 73.876953,1.5917969 73.588867,1.1669922 L 74.057617,0.625 q 0.581055,0.7177734 1.420899,0.7177734 0.659179,0 1.02539,-0.37109371 Q 76.875,0.60058594 76.875,-0.07324219 v -0.45410156 q -0.541992,0.625 -1.479492,0.625 -0.927735,0 -1.503906,-0.74707031 -0.57129,-0.74707034 -0.57129,-2.03613284 z m 0.908204,0.1025391 q 0,0.8935547 0.366211,1.40625 0.36621,0.50781249 1.02539,0.50781249 0.854492,0 1.254883,-0.77636719 v -2.4121094 q -0.415039,-0.7568359 -1.245117,-0.7568359 -0.65918,0 -1.030274,0.5126953 -0.371093,0.5126953 -0.371093,1.5185547 z"
         id="path151" />
      <path
         d="M 85.683594,-3.1396484 H 82.700195 V 0 h -0.9375 v -7.109375 h 4.404297 v 0.7714844 H 82.700195 V -3.90625 h 2.983399 z"
         id="path153" />
      <path
         d="m 88.129883,0 h -0.903321 v -7.5 h 0.903321 z"
         id="path155" />
      <path
         d="m 89.335937,-2.6904297 q 0,-0.7763672 0.302735,-1.3964844 0.307617,-0.6201171 0.849609,-0.9570312 0.546875,-0.3369141 1.245117,-0.3369141 1.079102,0 1.743164,0.7470703 0.668946,0.7470703 0.668946,1.9873047 v 0.063477 q 0,0.7714844 -0.297852,1.3867187 -0.292969,0.6103516 -0.844726,0.95214847 -0.546875,0.34179688 -1.259766,0.34179688 -1.074219,0 -1.743164,-0.74707031 -0.664063,-0.74707034 -0.664063,-1.97753904 z m 0.908204,0.1074219 q 0,0.8789062 0.405273,1.4111328 0.410156,0.53222656 1.09375,0.53222656 0.688477,0 1.09375,-0.53710936 0.405273,-0.5419922 0.405273,-1.5136719 0,-0.8691406 -0.415039,-1.40625 -0.410156,-0.5419922 -1.09375,-0.5419922 -0.668945,0 -1.079101,0.5322266 -0.410156,0.5322265 -0.410156,1.5234375 z"
         id="path157" />
      <path
         d="m 99.956055,-1.2451172 1.015625,-4.0380859 H 101.875 L 100.33691,0 H 99.604492 L 98.320312,-4.0039062 97.070312,0 h -0.732421 l -1.533204,-5.2832031 h 0.898438 l 1.040039,3.9550781 1.230469,-3.9550781 h 0.727539 z"
         id="path159" />
    </g>
    <g
       aria-label="Children"
       transform="translate(834,218.252)"
       id="Children"
       style="font-weight:500;font-size:10px;font-family:Roboto-Medium, Roboto;fill:#0c2339">
      <path
         d="M 6.1474609,-2.3144531 Q 6.0400391,-1.1767578 5.3076172,-0.53710937 4.5751953,0.09765625 3.359375,0.09765625 q -0.8496094,0 -1.4990234,-0.40039063 Q 1.2158203,-0.70800781 0.86425781,-1.4501953 0.51269531,-2.1923828 0.49804688,-3.1738281 v -0.6640625 q 0,-1.0058594 0.35644531,-1.772461 Q 1.2109375,-6.3769531 1.875,-6.7919922 q 0.6689453,-0.415039 1.5429688,-0.415039 1.1767578,0 1.8945312,0.6396484 0.7177734,0.6396484 0.8349609,1.8066406 H 4.9169922 Q 4.8291016,-5.5273437 4.4677734,-5.8642578 4.1113281,-6.2060547 3.4179688,-6.2060547 q -0.8056641,0 -1.2402344,0.5908203 -0.4296875,0.5859375 -0.4394532,1.7236328 v 0.6298828 q 0,1.1523438 0.4101563,1.7578126 0.4150391,0.6054687 1.2109375,0.6054687 0.7275391,0 1.09375,-0.3271484 0.3662109,-0.3271485 0.4638672,-1.0888672 z"
         id="path162" />
      <path
         d="m 8.3056641,-4.7070312 q 0.5810547,-0.6738282 1.4697265,-0.6738282 1.6894534,0 1.7138674,1.928711 V 0 h -1.186524 v -3.4082031 q 0,-0.546875 -0.239257,-0.7714844 -0.2343754,-0.2294922 -0.6933598,-0.2294922 -0.7128906,0 -1.0644531,0.6347656 V 0 H 7.1191406 v -7.5 h 1.1865235 z"
         id="path164" />
      <path
         d="m 13.950195,0 h -1.186523 v -5.2832031 h 1.186523 z M 12.69043,-6.6552734 q 0,-0.2734375 0.170898,-0.4541016 0.175781,-0.1806641 0.498047,-0.1806641 0.322266,0 0.498047,0.1806641 0.175781,0.1806641 0.175781,0.4541016 0,0.2685547 -0.175781,0.4492187 -0.175781,0.1757813 -0.498047,0.1757813 -0.322266,0 -0.498047,-0.1757813 -0.170898,-0.180664 -0.170898,-0.4492187 z"
         id="path166" />
      <path
         d="m 16.503906,0 h -1.186523 v -7.5 h 1.186523 z"
         id="path168" />
      <path
         d="m 17.573242,-2.6806641 q 0,-1.2207031 0.566406,-1.9580078 0.566407,-0.7421875 1.518555,-0.7421875 0.839844,0 1.357422,0.5859375 V -7.5 h 1.186523 V 0 H 21.12793 l -0.05859,-0.546875 q -0.532227,0.64453125 -1.420899,0.64453125 -0.927734,0 -1.503906,-0.74707031 -0.571289,-0.74707034 -0.571289,-2.03125004 z m 1.186524,0.1025391 q 0,0.8056641 0.307617,1.2597656 0.3125,0.44921877 0.883789,0.44921877 0.727539,0 1.064453,-0.64941407 v -2.2558594 q -0.327148,-0.6347656 -1.054688,-0.6347656 -0.576171,0 -0.888671,0.4589844 -0.3125,0.4541015 -0.3125,1.3720703 z"
         id="path170" />
      <path
         d="m 26.206055,-4.1992187 q -0.234375,-0.039063 -0.483399,-0.039063 -0.815429,0 -1.098633,0.6249999 V 0 H 23.4375 v -5.2832031 h 1.132812 l 0.0293,0.5908203 q 0.429688,-0.6884766 1.191407,-0.6884766 0.253906,0 0.419921,0.068359 z"
         id="path172" />
      <path
         d="m 29.189453,0.09765625 q -1.12793,0 -1.831055,-0.70800781 -0.698242,-0.71289064 -0.698242,-1.89453124 v -0.1464844 q 0,-0.7910156 0.302735,-1.4111328 0.307617,-0.625 0.859375,-0.9716797 0.551757,-0.3466797 1.230468,-0.3466797 1.079102,0 1.665039,0.6884766 0.590821,0.6884766 0.590821,1.9482422 v 0.4785156 h -3.452149 q 0.05371,0.6542969 0.434571,1.0351563 0.385742,0.38085932 0.966796,0.38085932 0.81543,0 1.328125,-0.65917972 l 0.639649,0.6103516 q -0.317383,0.47363281 -0.849609,0.73730469 -0.527344,0.25878906 -1.186524,0.25878906 z M 29.047852,-4.4287109 q -0.488282,0 -0.791016,0.3417968 -0.297852,0.3417969 -0.380859,0.9521485 h 2.260742 v -0.087891 q -0.03906,-0.5957031 -0.317383,-0.8984374 -0.27832,-0.3076172 -0.771484,-0.3076172 z"
         id="path174" />
      <path
         d="m 33.330078,-5.2832031 0.03418,0.6103515 q 0.585937,-0.7080078 1.538086,-0.7080078 1.65039,0 1.679687,1.8896485 V 0 h -1.186523 v -3.4228516 q 0,-0.5029297 -0.219727,-0.7421875 -0.214844,-0.2441406 -0.708008,-0.2441406 -0.717773,0 -1.069336,0.6494141 V 0 h -1.186523 v -5.2832031 z"
         id="path176" />
    </g>
    <g
       id="Rectangle_34"
       data-name="Rectangle 34"
       transform="translate(706,363)"
       fill="#ffffff"
       stroke="#fe746e"
       stroke-width="1">
      <path
         id="rect29"
         style="stroke:none"
         d="M 0,0 H 13 V 13 H 0 Z" />
      <path
         id="rect31"
         style="fill:none"
         d="m 0.5,0.5 h 12 v 12 h -12 z" />
    </g>
    <g
       id="Rectangle_35"
       data-name="Rectangle 35"
       transform="translate(852,363)"
       fill="#ffffff"
       stroke="#fe746e"
       stroke-width="1">
      <path
         id="rect34"
         style="stroke:none"
         d="M 0,0 H 13 V 13 H 0 Z" />
      <path
         id="rect36"
         style="fill:none"
         d="m 0.5,0.5 h 12 v 12 h -12 z" />
    </g>
    <path
       id="Line_17"
       transform="translate(770.5,390.5)"
       style="fill:none;stroke:#707070"
       d="M 0,0 H 27" />
  </g>
</svg>
